M48
; DRILL file KiCad 10.0.5 date 2026-10-01T14:34:31
; FORMAT={-:-/ absolute / metric / decimal}
; #@! TF.CreationDate,2026-10-01T14:34:31+02:00
; #@! TF.GenerationSoftware,Kicad,Pcbnew,10.0.5
; #@! TF.FileFunction,MixedPlating,1,4
FMAT,2
METRIC
; #@! TA.AperFunction,Plated,PTH,ViaDrill
T1C0.300
; #@! TA.AperFunction,Plated,PTH,ComponentDrill
T2C0.800
; #@! TA.AperFunction,Plated,PTH,ComponentDrill
T3C1.000
; #@! TA.AperFunction,Plated,PTH,ComponentDrill
T4C1.100
; #@! TA.AperFunction,NonPlated,NPTH,ComponentDrill
T5C3.500
%
G90
G05
T1
X108.39Y-43.79
X109.95Y-100.9
X110.0Y-98.3
X111.65Y-85.05
X111.95Y-98.8
X111.95Y-100.25
X112.0Y-83.5
X112.64Y-43.84
X112.8Y-71.3
X112.85Y-86.9
X112.85Y-89.4
X112.85Y-93.9
X112.85Y-96.75
X113.3Y-92.0
X113.8Y-99.35
X113.9Y-84.8
X114.25Y-86.9
X114.25Y-89.4
X114.3Y-93.9
X114.3Y-97.0
X114.3Y-101.3
X114.45Y-88.05
X114.55Y-95.75
X114.55Y-98.25
X114.9Y-90.8
X115.25Y-79.1
X115.7Y-94.55
X115.7Y-97.1
X115.75Y-86.75
X115.75Y-99.5
X116.419Y-89.548
X117.1Y-43.79
X117.194Y-89.35
X117.85Y-71.35
X118.5Y-79.25
X119.15Y-97.05
X119.45Y-86.75
X119.5Y-94.55
X119.55Y-90.9
X119.7Y-89.25
X119.7Y-92.9
X120.1Y-97.8
X120.3Y-85.95
X120.6Y-101.8
X120.6Y-104.4
X121.0Y-92.0
X121.0Y-99.25
X121.05Y-84.65
X121.7Y-103.15
X122.05Y-98.2
X122.1Y-94.6
X122.1Y-96.9
X122.15Y-85.7
X122.25Y-89.15
X122.3Y-87.05
X122.95Y-71.35
X123.3Y-85.75
X123.3Y-100.8
X123.4Y-83.05
X123.4Y-98.25
X124.35Y-79.5
X125.55Y-83.0
X125.55Y-85.7
X126.85Y-100.25
X126.9Y-98.85
X127.4Y-83.1
X127.45Y-85.55
X128.15Y-71.35
X128.7Y-100.8
X128.75Y-98.3
X129.25Y-85.65
X129.3Y-82.9
X131.15Y-71.35
T2
X127.0Y-47.25
X129.5Y-47.25
X130.7Y-53.6
X130.7Y-58.6
T3
X108.36Y-39.75
X110.9Y-39.75
X113.44Y-39.75
X115.98Y-39.75
X118.52Y-39.75
X121.06Y-39.75
X126.485Y-40.26
X129.025Y-40.26
T4
X126.96Y-53.56
X126.96Y-56.1
X126.96Y-58.64
T5
X110.3Y-56.1
M30
