%TF.GenerationSoftware,KiCad,Pcbnew,10.0.4*%
%TF.CreationDate,2026-06-27T17:44:08+02:00*%
%TF.ProjectId,lna,6c6e612e-6b69-4636-9164-5f7063625858,rev?*%
%TF.SameCoordinates,Original*%
%TF.FileFunction,Copper,L1,Top*%
%TF.FilePolarity,Positive*%
%FSLAX46Y46*%
G04 Gerber Fmt 4.6, Leading zero omitted, Abs format (unit mm)*
G04 Created by KiCad (PCBNEW 10.0.4) date 2026-06-27 17:44:08*
%MOMM*%
%LPD*%
G01*
G04 APERTURE LIST*
G04 Aperture macros list*
%AMRoundRect*
0 Rectangle with rounded corners*
0 $1 Rounding radius*
0 $2 $3 $4 $5 $6 $7 $8 $9 X,Y pos of 4 corners*
0 Add a 4 corners polygon primitive as box body*
4,1,4,$2,$3,$4,$5,$6,$7,$8,$9,$2,$3,0*
0 Add four circle primitives for the rounded corners*
1,1,$1+$1,$2,$3*
1,1,$1+$1,$4,$5*
1,1,$1+$1,$6,$7*
1,1,$1+$1,$8,$9*
0 Add four rect primitives between the rounded corners*
20,1,$1+$1,$2,$3,$4,$5,0*
20,1,$1+$1,$4,$5,$6,$7,0*
20,1,$1+$1,$6,$7,$8,$9,0*
20,1,$1+$1,$8,$9,$2,$3,0*%
%AMFreePoly0*
4,1,9,5.362500,-0.866500,1.237500,-0.866500,1.237500,-0.450000,-1.237500,-0.450000,-1.237500,0.450000,1.237500,0.450000,1.237500,0.866500,5.362500,0.866500,5.362500,-0.866500,5.362500,-0.866500,$1*%
G04 Aperture macros list end*
%TA.AperFunction,SMDPad,CuDef*%
%ADD10RoundRect,0.250000X-0.475000X0.337500X-0.475000X-0.337500X0.475000X-0.337500X0.475000X0.337500X0*%
%TD*%
%TA.AperFunction,SMDPad,CuDef*%
%ADD11R,1.500000X5.080000*%
%TD*%
%TA.AperFunction,SMDPad,CuDef*%
%ADD12RoundRect,0.225000X-0.925000X-0.225000X0.925000X-0.225000X0.925000X0.225000X-0.925000X0.225000X0*%
%TD*%
%TA.AperFunction,SMDPad,CuDef*%
%ADD13FreePoly0,0.000000*%
%TD*%
%TA.AperFunction,SMDPad,CuDef*%
%ADD14RoundRect,0.250000X0.350000X-0.275000X0.350000X0.275000X-0.350000X0.275000X-0.350000X-0.275000X0*%
%TD*%
%TA.AperFunction,SMDPad,CuDef*%
%ADD15RoundRect,0.250000X-0.275000X-0.350000X0.275000X-0.350000X0.275000X0.350000X-0.275000X0.350000X0*%
%TD*%
%TA.AperFunction,SMDPad,CuDef*%
%ADD16RoundRect,0.250000X-0.337500X-0.475000X0.337500X-0.475000X0.337500X0.475000X-0.337500X0.475000X0*%
%TD*%
%TA.AperFunction,ComponentPad*%
%ADD17RoundRect,0.250000X0.550000X0.550000X-0.550000X0.550000X-0.550000X-0.550000X0.550000X-0.550000X0*%
%TD*%
%TA.AperFunction,ComponentPad*%
%ADD18C,1.600000*%
%TD*%
%TA.AperFunction,ComponentPad*%
%ADD19R,1.700000X1.700000*%
%TD*%
%TA.AperFunction,ComponentPad*%
%ADD20C,1.700000*%
%TD*%
%TA.AperFunction,ComponentPad*%
%ADD21R,2.000000X1.905000*%
%TD*%
%TA.AperFunction,ComponentPad*%
%ADD22O,2.000000X1.905000*%
%TD*%
%TA.AperFunction,SMDPad,CuDef*%
%ADD23R,5.080000X1.500000*%
%TD*%
%TA.AperFunction,ViaPad*%
%ADD24C,0.600000*%
%TD*%
%TA.AperFunction,Conductor*%
%ADD25C,0.600000*%
%TD*%
%TA.AperFunction,Conductor*%
%ADD26C,1.000000*%
%TD*%
%TA.AperFunction,Conductor*%
%ADD27C,0.380000*%
%TD*%
G04 APERTURE END LIST*
D10*
%TO.P,C5,1*%
%TO.N,Net-(C5-Pad1)*%
X137500000Y-137750000D03*
%TO.P,C5,2*%
%TO.N,Net-(J2-In)*%
X137500000Y-139825000D03*
%TD*%
D11*
%TO.P,J2,1,In_1*%
%TO.N,Net-(J2-In)*%
X137500000Y-146750000D03*
%TO.P,J2,2,Ext_2*%
%TO.N,GND*%
X141750000Y-146750000D03*
X133250000Y-146750000D03*
%TD*%
D12*
%TO.P,U1,1*%
%TO.N,Net-(C4-Pad2)*%
X137500000Y-131000000D03*
D13*
%TO.P,U1,2,GND_2*%
%TO.N,GND*%
X137587500Y-132500000D03*
D12*
%TO.P,U1,3*%
%TO.N,Net-(C5-Pad1)*%
X137500000Y-134000000D03*
%TD*%
D14*
%TO.P,L1,1,1_1*%
%TO.N,Net-(J1-In)*%
X112500000Y-129150000D03*
%TO.P,L1,2,2_2*%
%TO.N,GND*%
X112500000Y-126850000D03*
%TD*%
D15*
%TO.P,L4,1,1_1*%
%TO.N,Net-(U2-VO)*%
X145100000Y-127250000D03*
%TO.P,L4,2,2_2*%
%TO.N,Net-(C5-Pad1)*%
X147400000Y-127250000D03*
%TD*%
D16*
%TO.P,C2,1*%
%TO.N,Net-(C2-Pad1)*%
X121962500Y-131000000D03*
%TO.P,C2,2*%
%TO.N,Net-(C2-Pad2)*%
X124037500Y-131000000D03*
%TD*%
D17*
%TO.P,C7,1*%
%TO.N,Net-(U2-VO)*%
X145250000Y-115317621D03*
D18*
%TO.P,C7,2*%
%TO.N,GND*%
X142750000Y-115317621D03*
%TD*%
D10*
%TO.P,C3,1*%
%TO.N,Net-(C2-Pad2)*%
X127500000Y-132962500D03*
%TO.P,C3,2*%
%TO.N,GND*%
X127500000Y-135037500D03*
%TD*%
D19*
%TO.P,J3,1,Pin_1_1*%
%TO.N,+9V*%
X150750000Y-106250000D03*
D20*
%TO.P,J3,2,Pin_2_2*%
%TO.N,GND*%
X150750000Y-108790000D03*
%TD*%
D16*
%TO.P,C4,1*%
%TO.N,Net-(C2-Pad2)*%
X130962500Y-131000000D03*
%TO.P,C4,2*%
%TO.N,Net-(C4-Pad2)*%
X133037500Y-131000000D03*
%TD*%
D18*
%TO.P,C8,1*%
%TO.N,+9V*%
X141500000Y-108250000D03*
%TO.P,C8,2*%
%TO.N,GND*%
X141500000Y-103250000D03*
%TD*%
D10*
%TO.P,C1,1*%
%TO.N,Net-(J1-In)*%
X112500000Y-132962500D03*
%TO.P,C1,2*%
%TO.N,GND*%
X112500000Y-135037500D03*
%TD*%
D15*
%TO.P,L2,1,1_1*%
%TO.N,Net-(J1-In)*%
X115850000Y-131000000D03*
%TO.P,L2,2,2_2*%
%TO.N,Net-(C2-Pad1)*%
X118150000Y-131000000D03*
%TD*%
D14*
%TO.P,L3,1,1_1*%
%TO.N,Net-(C2-Pad2)*%
X127500000Y-129300000D03*
%TO.P,L3,2,2_2*%
%TO.N,GND*%
X127500000Y-127000000D03*
%TD*%
D21*
%TO.P,U2,1,VI_1*%
%TO.N,+9V*%
X131160000Y-110290000D03*
D22*
%TO.P,U2,2,GND_2*%
%TO.N,GND*%
X131160000Y-107750000D03*
%TO.P,U2,3,VO_3*%
%TO.N,Net-(U2-VO)*%
X131160000Y-105210000D03*
%TD*%
D16*
%TO.P,C6,1*%
%TO.N,Net-(U2-VO)*%
X145212500Y-122750000D03*
%TO.P,C6,2*%
%TO.N,GND*%
X147287500Y-122750000D03*
%TD*%
D23*
%TO.P,J1,1,In_1*%
%TO.N,Net-(J1-In)*%
X104862500Y-131000000D03*
%TO.P,J1,2,Ext_2*%
%TO.N,GND*%
X104862500Y-135250000D03*
X104862500Y-126750000D03*
%TD*%
D24*
%TO.N,GND*%
X109750000Y-132250000D03*
X114500000Y-132250000D03*
X112500000Y-136250000D03*
X129000000Y-135000000D03*
X112500000Y-125750000D03*
X136250000Y-141750000D03*
X125500000Y-129750000D03*
X120250000Y-129750000D03*
X128750000Y-127000000D03*
X114000000Y-135000000D03*
X141250000Y-131000000D03*
X114500000Y-129750000D03*
X111250000Y-126750000D03*
X113750000Y-126750000D03*
X136250000Y-135750000D03*
X127500000Y-125750000D03*
X135250000Y-129750000D03*
X129500000Y-129750000D03*
X120250000Y-132250000D03*
X125500000Y-132250000D03*
X129500000Y-132250000D03*
X138750000Y-135750000D03*
X126000000Y-135000000D03*
X127500000Y-136250000D03*
X126250000Y-127000000D03*
X109750000Y-129750000D03*
X135250000Y-132250000D03*
X143500000Y-132500000D03*
X138750000Y-141750000D03*
X111000000Y-135000000D03*
%TD*%
%TO.N,Net-(C5-Pad1)*%
D25*
X147250000Y-134000000D02*
X137500000Y-134000000D01*
X147500000Y-133750000D02*
X147250000Y-134000000D01*
X147500000Y-129831371D02*
X147500000Y-133750000D01*
X147400000Y-129731371D02*
X147500000Y-129831371D01*
X147400000Y-127250000D02*
X147400000Y-129731371D01*
D26*
X137500000Y-137750000D02*
X137500000Y-134000000D01*
%TO.N,GND*%
D25*
X141750000Y-146750000D02*
X141750000Y-144500000D01*
%TO.N,Net-(J1-In)*%
D26*
X112500000Y-131000000D02*
X115850000Y-131000000D01*
X104862500Y-131000000D02*
X112500000Y-131000000D01*
X112500000Y-131000000D02*
X112500000Y-132962500D01*
X112500000Y-131000000D02*
X112500000Y-129150000D01*
%TO.N,Net-(C2-Pad2)*%
X127500000Y-131000000D02*
X127500000Y-129300000D01*
D27*
X127250000Y-131000000D02*
X127500000Y-131000000D01*
D26*
X124037500Y-131000000D02*
X127250000Y-131000000D01*
X127500000Y-131000000D02*
X130962500Y-131000000D01*
X127500000Y-131000000D02*
X127500000Y-132962500D01*
%TO.N,Net-(C2-Pad1)*%
X118150000Y-131000000D02*
X121962500Y-131000000D01*
%TO.N,Net-(C4-Pad2)*%
X133037500Y-131000000D02*
X137500000Y-131000000D01*
%TO.N,Net-(J2-In)*%
X137500000Y-139825000D02*
X137500000Y-146750000D01*
%TO.N,Net-(U2-VO)*%
X145212500Y-115355121D02*
X145250000Y-115317621D01*
X145100000Y-122862500D02*
X145212500Y-122750000D01*
X145100000Y-127250000D02*
X145100000Y-122862500D01*
X145250000Y-106250000D02*
X144210000Y-105210000D01*
X144210000Y-105210000D02*
X131160000Y-105210000D01*
X145250000Y-115317621D02*
X145250000Y-106250000D01*
X145212500Y-122750000D02*
X145212500Y-115355121D01*
%TO.N,+9V*%
X141500000Y-108250000D02*
X140000000Y-108250000D01*
X137960000Y-110290000D02*
X131160000Y-110290000D01*
X140000000Y-108250000D02*
X137960000Y-110290000D01*
%TD*%
%TA.AperFunction,Conductor*%
%TO.N,GND*%
G36*
X144215039Y-121269685D02*
G01*
X144260794Y-121322489D01*
X144272000Y-121374000D01*
X144272000Y-121903199D01*
X144254118Y-121967347D01*
X144240710Y-121989527D01*
X144190822Y-122149623D01*
X144184500Y-122219201D01*
X144184500Y-122631965D01*
X144182118Y-122656155D01*
X144159500Y-122769870D01*
X144159500Y-126695809D01*
X144153886Y-126732697D01*
X144140823Y-126774619D01*
X144134500Y-126844201D01*
X144134500Y-127655808D01*
X144140821Y-127725376D01*
X144140823Y-127725383D01*
X144190708Y-127885470D01*
X144190709Y-127885472D01*
X144277454Y-128028967D01*
X144277457Y-128028971D01*
X144396028Y-128147542D01*
X144396032Y-128147545D01*
X144467622Y-128190822D01*
X144539529Y-128234291D01*
X144699620Y-128284177D01*
X144769199Y-128290500D01*
X145430800Y-128290499D01*
X145430808Y-128290499D01*
X145500376Y-128284178D01*
X145500383Y-128284176D01*
X145660471Y-128234291D01*
X145803972Y-128147542D01*
X145922542Y-128028972D01*
X146009291Y-127885471D01*
X146059177Y-127725380D01*
X146065500Y-127655801D01*
X146065499Y-126844200D01*
X146065499Y-126844199D01*
X146065499Y-126844191D01*
X146059177Y-126774622D01*
X146059177Y-126774620D01*
X146046114Y-126732697D01*
X146040500Y-126695808D01*
X146040500Y-123762376D01*
X146060185Y-123695337D01*
X146063235Y-123690811D01*
X146069336Y-123682177D01*
X146097542Y-123653972D01*
X146146478Y-123573020D01*
X146149026Y-123569416D01*
X146173075Y-123550363D01*
X146195700Y-123529644D01*
X146200208Y-123528868D01*
X146203793Y-123526029D01*
X146234321Y-123523003D01*
X146264559Y-123517805D01*
X146268770Y-123519590D01*
X146273322Y-123519139D01*
X146300640Y-123533098D01*
X146328888Y-123545072D01*
X146332715Y-123549489D01*
X146335539Y-123550932D01*
X146338759Y-123556463D01*
X146356408Y-123576831D01*
X146402852Y-123653660D01*
X146521338Y-123772146D01*
X146521342Y-123772149D01*
X146664733Y-123858831D01*
X146664737Y-123858833D01*
X146787499Y-123897087D01*
X146787500Y-123897087D01*
X147787500Y-123897087D01*
X147910262Y-123858833D01*
X147910266Y-123858831D01*
X148053657Y-123772149D01*
X148053661Y-123772146D01*
X148172146Y-123653661D01*
X148172149Y-123653657D01*
X148258831Y-123510267D01*
X148258833Y-123510261D01*
X148308681Y-123350294D01*
X148308683Y-123350287D01*
X148315000Y-123280769D01*
X148315000Y-123250000D01*
X147787500Y-123250000D01*
X147787500Y-123897087D01*
X146787500Y-123897087D01*
X146787500Y-122250000D01*
X147787500Y-122250000D01*
X148315000Y-122250000D01*
X148315000Y-122219230D01*
X148308683Y-122149712D01*
X148308681Y-122149705D01*
X148258833Y-121989738D01*
X148258831Y-121989732D01*
X148172149Y-121846342D01*
X148172146Y-121846338D01*
X148053661Y-121727853D01*
X148053657Y-121727850D01*
X147910267Y-121641168D01*
X147910260Y-121641166D01*
X147787500Y-121602911D01*
X147787500Y-122250000D01*
X146787500Y-122250000D01*
X146787500Y-121602912D01*
X146787499Y-121602911D01*
X146664739Y-121641166D01*
X146664732Y-121641168D01*
X146521342Y-121727850D01*
X146521338Y-121727853D01*
X146402853Y-121846338D01*
X146402852Y-121846340D01*
X146383117Y-121878986D01*
X146331589Y-121926174D01*
X146262729Y-121938012D01*
X146198401Y-121910743D01*
X146159027Y-121853024D01*
X146153000Y-121814836D01*
X146153000Y-121374000D01*
X146172685Y-121306961D01*
X146225489Y-121261206D01*
X146277000Y-121250000D01*
X151625500Y-121250000D01*
X151692539Y-121269685D01*
X151738294Y-121322489D01*
X151749500Y-121374000D01*
X151749500Y-148625500D01*
X151729815Y-148692539D01*
X151677011Y-148738294D01*
X151625500Y-148749500D01*
X143064000Y-148749500D01*
X142996961Y-148729815D01*
X142951206Y-148677011D01*
X142940000Y-148625500D01*
X142940000Y-147250000D01*
X140560001Y-147250000D01*
X140560001Y-148625500D01*
X140540316Y-148692539D01*
X140487512Y-148738294D01*
X140436001Y-148749500D01*
X138814500Y-148749500D01*
X138747461Y-148729815D01*
X138701706Y-148677011D01*
X138690500Y-148625500D01*
X138690500Y-144156992D01*
X140560000Y-144156992D01*
X140560000Y-146250000D01*
X141250000Y-146250000D01*
X142250000Y-146250000D01*
X142939999Y-146250000D01*
X142939999Y-144156999D01*
X142937213Y-144127279D01*
X142893403Y-144002077D01*
X142814641Y-143895358D01*
X142707919Y-143816594D01*
X142582732Y-143772788D01*
X142582720Y-143772786D01*
X142553007Y-143770000D01*
X142250000Y-143770000D01*
X142250000Y-146250000D01*
X141250000Y-146250000D01*
X141250000Y-143770000D01*
X140946999Y-143770000D01*
X140917279Y-143772786D01*
X140792077Y-143816596D01*
X140685358Y-143895358D01*
X140606594Y-144002080D01*
X140562788Y-144127267D01*
X140562786Y-144127279D01*
X140560000Y-144156992D01*
X138690500Y-144156992D01*
X138690500Y-144156929D01*
X138687710Y-144127185D01*
X138687710Y-144127181D01*
X138687708Y-144127177D01*
X138687708Y-144127173D01*
X138643852Y-144001844D01*
X138643852Y-144001843D01*
X138564999Y-143895001D01*
X138490866Y-143840288D01*
X138448615Y-143784640D01*
X138440500Y-143740518D01*
X138440500Y-140724876D01*
X138460185Y-140657837D01*
X138476819Y-140637195D01*
X138522542Y-140591472D01*
X138609291Y-140447971D01*
X138659177Y-140287880D01*
X138665500Y-140218301D01*
X138665499Y-139431700D01*
X138665499Y-139431699D01*
X138665499Y-139431691D01*
X138659178Y-139362123D01*
X138659176Y-139362116D01*
X138609291Y-139202029D01*
X138609290Y-139202027D01*
X138522545Y-139058532D01*
X138522542Y-139058528D01*
X138403971Y-138939957D01*
X138403967Y-138939954D01*
X138327315Y-138893617D01*
X138280127Y-138842090D01*
X138268288Y-138773231D01*
X138295556Y-138708902D01*
X138327315Y-138681383D01*
X138403967Y-138635045D01*
X138403970Y-138635043D01*
X138403972Y-138635042D01*
X138522542Y-138516472D01*
X138609291Y-138372971D01*
X138659177Y-138212880D01*
X138665500Y-138143301D01*
X138665499Y-137356700D01*
X138665499Y-137356699D01*
X138665499Y-137356691D01*
X138659178Y-137287123D01*
X138659176Y-137287116D01*
X138609291Y-137127029D01*
X138609290Y-137127027D01*
X138522545Y-136983532D01*
X138522542Y-136983528D01*
X138476819Y-136937805D01*
X138443334Y-136876482D01*
X138440500Y-136850124D01*
X138440500Y-135007124D01*
X138460185Y-134940085D01*
X138512989Y-134894330D01*
X138540313Y-134885506D01*
X138545831Y-134884407D01*
X138545841Y-134884407D01*
X138700136Y-134836327D01*
X138829070Y-134758382D01*
X138893219Y-134740500D01*
X147322935Y-134740500D01*
X147322936Y-134740499D01*
X147465996Y-134712043D01*
X147600758Y-134656223D01*
X147722041Y-134575184D01*
X148075184Y-134222041D01*
X148079223Y-134215996D01*
X148156223Y-134100758D01*
X148212043Y-133965996D01*
X148212043Y-133965993D01*
X148212045Y-133965989D01*
X148219787Y-133927068D01*
X148240499Y-133822937D01*
X148240500Y-133822934D01*
X148240500Y-129758437D01*
X148240499Y-129758434D01*
X148236238Y-129737011D01*
X148220609Y-129658438D01*
X148212043Y-129615374D01*
X148185121Y-129550380D01*
X148156301Y-129480801D01*
X148156222Y-129480610D01*
X148155137Y-129478580D01*
X148154763Y-129477089D01*
X148153892Y-129474985D01*
X148154204Y-129474855D01*
X148140500Y-129420136D01*
X148140500Y-128162376D01*
X148160185Y-128095337D01*
X148176819Y-128074695D01*
X148187515Y-128063999D01*
X148222542Y-128028972D01*
X148309291Y-127885471D01*
X148359177Y-127725380D01*
X148365500Y-127655801D01*
X148365499Y-126844200D01*
X148365499Y-126844199D01*
X148365499Y-126844191D01*
X148359178Y-126774623D01*
X148359176Y-126774616D01*
X148309291Y-126614529D01*
X148309290Y-126614527D01*
X148222545Y-126471032D01*
X148222542Y-126471028D01*
X148103971Y-126352457D01*
X148103967Y-126352454D01*
X147960473Y-126265710D01*
X147960472Y-126265709D01*
X147960471Y-126265709D01*
X147800380Y-126215823D01*
X147800378Y-126215822D01*
X147800376Y-126215822D01*
X147751662Y-126211395D01*
X147730801Y-126209500D01*
X147730798Y-126209500D01*
X147069191Y-126209500D01*
X146999623Y-126215821D01*
X146999616Y-126215823D01*
X146839529Y-126265708D01*
X146839527Y-126265709D01*
X146696032Y-126352454D01*
X146696028Y-126352457D01*
X146577457Y-126471028D01*
X146577454Y-126471032D01*
X146490710Y-126614526D01*
X146440822Y-126774623D01*
X146434500Y-126844201D01*
X146434500Y-127655808D01*
X146440821Y-127725376D01*
X146440823Y-127725383D01*
X146490708Y-127885470D01*
X146490709Y-127885472D01*
X146577454Y-128028967D01*
X146577457Y-128028971D01*
X146623181Y-128074695D01*
X146656666Y-128136018D01*
X146659500Y-128162376D01*
X146659500Y-129804308D01*
X146687955Y-129947359D01*
X146687958Y-129947371D01*
X146743775Y-130082126D01*
X146744856Y-130084148D01*
X146745228Y-130085634D01*
X146746108Y-130087758D01*
X146745793Y-130087888D01*
X146759500Y-130142605D01*
X146759500Y-133135500D01*
X146739815Y-133202539D01*
X146687011Y-133248294D01*
X146635500Y-133259500D01*
X138893219Y-133259500D01*
X138829070Y-133241617D01*
X138700136Y-133163673D01*
X138545841Y-133115593D01*
X138545839Y-133115592D01*
X138545837Y-133115592D01*
X138498892Y-133111326D01*
X138478790Y-133109500D01*
X138478787Y-133109500D01*
X137832452Y-133109500D01*
X137785004Y-133100062D01*
X137774334Y-133095643D01*
X137774327Y-133095641D01*
X137774326Y-133095641D01*
X137774326Y-133095640D01*
X137592634Y-133059500D01*
X137592631Y-133059500D01*
X137407369Y-133059500D01*
X137407366Y-133059500D01*
X137225673Y-133095640D01*
X137225673Y-133095641D01*
X137225670Y-133095642D01*
X137225666Y-133095643D01*
X137214995Y-133100062D01*
X137167548Y-133109500D01*
X136521210Y-133109500D01*
X136502934Y-133111160D01*
X136454162Y-133115592D01*
X136299863Y-133163673D01*
X136161555Y-133247284D01*
X136047284Y-133361555D01*
X135963673Y-133499863D01*
X135915592Y-133654162D01*
X135909500Y-133721212D01*
X135909500Y-134278787D01*
X135915592Y-134345837D01*
X135915592Y-134345839D01*
X135915593Y-134345841D01*
X135963673Y-134500136D01*
X136009041Y-134575184D01*
X136047284Y-134638444D01*
X136161555Y-134752715D01*
X136161557Y-134752716D01*
X136161559Y-134752718D01*
X136299864Y-134836327D01*
X136454159Y-134884407D01*
X136454166Y-134884407D01*
X136459687Y-134885506D01*
X136521599Y-134917889D01*
X136556176Y-134978604D01*
X136559500Y-135007124D01*
X136559500Y-136850124D01*
X136539815Y-136917163D01*
X136523181Y-136937805D01*
X136477457Y-136983528D01*
X136477454Y-136983532D01*
X136390710Y-137127026D01*
X136340822Y-137287123D01*
X136334500Y-137356701D01*
X136334500Y-138143308D01*
X136340821Y-138212876D01*
X136340823Y-138212883D01*
X136390708Y-138372970D01*
X136390709Y-138372972D01*
X136477454Y-138516467D01*
X136477457Y-138516471D01*
X136596029Y-138635043D01*
X136672685Y-138681383D01*
X136719872Y-138732911D01*
X136731711Y-138801770D01*
X136704442Y-138866099D01*
X136672685Y-138893617D01*
X136596029Y-138939956D01*
X136477457Y-139058528D01*
X136477454Y-139058532D01*
X136390710Y-139202026D01*
X136340822Y-139362123D01*
X136334500Y-139431701D01*
X136334500Y-140218308D01*
X136340821Y-140287876D01*
X136340823Y-140287883D01*
X136390708Y-140447970D01*
X136390709Y-140447972D01*
X136477454Y-140591467D01*
X136477457Y-140591471D01*
X136523181Y-140637195D01*
X136556666Y-140698518D01*
X136559500Y-140724876D01*
X136559500Y-143740518D01*
X136539815Y-143807557D01*
X136509134Y-143840288D01*
X136435001Y-143895001D01*
X136356147Y-144001844D01*
X136312291Y-144127173D01*
X136312289Y-144127185D01*
X136309500Y-144156929D01*
X136309500Y-148625500D01*
X136289815Y-148692539D01*
X136237011Y-148738294D01*
X136185500Y-148749500D01*
X134564000Y-148749500D01*
X134496961Y-148729815D01*
X134451206Y-148677011D01*
X134440000Y-148625500D01*
X134440000Y-147250000D01*
X132060001Y-147250000D01*
X132060001Y-148625500D01*
X132040316Y-148692539D01*
X131987512Y-148738294D01*
X131936001Y-148749500D01*
X102874500Y-148749500D01*
X102807461Y-148729815D01*
X102761706Y-148677011D01*
X102750500Y-148625500D01*
X102750500Y-144156992D01*
X132060000Y-144156992D01*
X132060000Y-146250000D01*
X132750000Y-146250000D01*
X133750000Y-146250000D01*
X134439999Y-146250000D01*
X134439999Y-144156999D01*
X134437213Y-144127279D01*
X134393403Y-144002077D01*
X134314641Y-143895358D01*
X134207919Y-143816594D01*
X134082732Y-143772788D01*
X134082720Y-143772786D01*
X134053007Y-143770000D01*
X133750000Y-143770000D01*
X133750000Y-146250000D01*
X132750000Y-146250000D01*
X132750000Y-143770000D01*
X132446999Y-143770000D01*
X132417279Y-143772786D01*
X132292077Y-143816596D01*
X132185358Y-143895358D01*
X132106594Y-144002080D01*
X132062788Y-144127267D01*
X132062786Y-144127279D01*
X132060000Y-144156992D01*
X102750500Y-144156992D01*
X102750500Y-136563999D01*
X102770185Y-136496960D01*
X102822989Y-136451205D01*
X102874500Y-136439999D01*
X104362500Y-136439999D01*
X105362500Y-136439999D01*
X107455500Y-136439999D01*
X107485220Y-136437213D01*
X107610422Y-136393403D01*
X107717141Y-136314641D01*
X107795905Y-136207919D01*
X107839711Y-136082732D01*
X107839713Y-136082720D01*
X107842500Y-136053007D01*
X107842500Y-135750000D01*
X105362500Y-135750000D01*
X105362500Y-136439999D01*
X104362500Y-136439999D01*
X104362500Y-135537500D01*
X111352912Y-135537500D01*
X111391166Y-135660260D01*
X111391168Y-135660267D01*
X111477850Y-135803657D01*
X111477853Y-135803661D01*
X111596338Y-135922146D01*
X111596342Y-135922149D01*
X111739732Y-136008831D01*
X111739738Y-136008833D01*
X111899705Y-136058681D01*
X111899712Y-136058683D01*
X111969231Y-136065000D01*
X112000000Y-136065000D01*
X113000000Y-136065000D01*
X113030769Y-136065000D01*
X113100287Y-136058683D01*
X113100294Y-136058681D01*
X113260261Y-136008833D01*
X113260267Y-136008831D01*
X113403657Y-135922149D01*
X113403661Y-135922146D01*
X113522146Y-135803661D01*
X113522149Y-135803657D01*
X113608831Y-135660267D01*
X113608833Y-135660260D01*
X113647088Y-135537500D01*
X126352912Y-135537500D01*
X126391166Y-135660260D01*
X126391168Y-135660267D01*
X126477850Y-135803657D01*
X126477853Y-135803661D01*
X126596338Y-135922146D01*
X126596342Y-135922149D01*
X126739732Y-136008831D01*
X126739738Y-136008833D01*
X126899705Y-136058681D01*
X126899712Y-136058683D01*
X126969231Y-136065000D01*
X127000000Y-136065000D01*
X128000000Y-136065000D01*
X128030769Y-136065000D01*
X128100287Y-136058683D01*
X128100294Y-136058681D01*
X128260261Y-136008833D01*
X128260267Y-136008831D01*
X128403657Y-135922149D01*
X128403661Y-135922146D01*
X128522146Y-135803661D01*
X128522149Y-135803657D01*
X128608831Y-135660267D01*
X128608833Y-135660260D01*
X128647088Y-135537500D01*
X128000000Y-135537500D01*
X128000000Y-136065000D01*
X127000000Y-136065000D01*
X127000000Y-135537500D01*
X126352912Y-135537500D01*
X113647088Y-135537500D01*
X113000000Y-135537500D01*
X113000000Y-136065000D01*
X112000000Y-136065000D01*
X112000000Y-135537500D01*
X111352912Y-135537500D01*
X104362500Y-135537500D01*
X104362500Y-134750000D01*
X105362500Y-134750000D01*
X107842499Y-134750000D01*
X107842499Y-134446999D01*
X107839713Y-134417279D01*
X107795903Y-134292077D01*
X107717141Y-134185358D01*
X107610419Y-134106594D01*
X107485232Y-134062788D01*
X107485220Y-134062786D01*
X107455507Y-134060000D01*
X105362500Y-134060000D01*
X105362500Y-134750000D01*
X104362500Y-134750000D01*
X104362500Y-134060000D01*
X102874500Y-134060000D01*
X102807461Y-134040315D01*
X102761706Y-133987511D01*
X102750500Y-133936000D01*
X102750500Y-132314500D01*
X102770185Y-132247461D01*
X102822989Y-132201706D01*
X102874500Y-132190500D01*
X107455570Y-132190500D01*
X107468789Y-132189260D01*
X107485319Y-132187710D01*
X107485323Y-132187708D01*
X107485326Y-132187708D01*
X107548794Y-132165499D01*
X107610657Y-132143852D01*
X107717499Y-132064999D01*
X107772212Y-131990864D01*
X107827858Y-131948616D01*
X107871981Y-131940500D01*
X111433624Y-131940500D01*
X111500663Y-131960185D01*
X111546418Y-132012989D01*
X111556362Y-132082147D01*
X111527337Y-132145703D01*
X111521305Y-132152181D01*
X111477457Y-132196028D01*
X111477454Y-132196032D01*
X111390710Y-132339526D01*
X111340822Y-132499623D01*
X111334500Y-132569201D01*
X111334500Y-133355808D01*
X111340821Y-133425376D01*
X111340823Y-133425383D01*
X111390708Y-133585470D01*
X111390709Y-133585472D01*
X111477454Y-133728967D01*
X111477457Y-133728971D01*
X111477458Y-133728972D01*
X111596028Y-133847542D01*
X111673168Y-133894175D01*
X111720355Y-133945701D01*
X111732194Y-134014560D01*
X111704926Y-134078889D01*
X111673168Y-134106408D01*
X111596339Y-134152852D01*
X111477853Y-134271338D01*
X111477850Y-134271342D01*
X111391168Y-134414732D01*
X111391166Y-134414739D01*
X111352911Y-134537499D01*
X111352912Y-134537500D01*
X113647088Y-134537500D01*
X113647088Y-134537499D01*
X113608833Y-134414739D01*
X113608831Y-134414732D01*
X113522149Y-134271342D01*
X113522146Y-134271338D01*
X113403660Y-134152852D01*
X113326831Y-134106408D01*
X113279644Y-134054881D01*
X113267805Y-133986021D01*
X113295073Y-133921692D01*
X113326829Y-133894176D01*
X113403972Y-133847542D01*
X113522542Y-133728972D01*
X113609291Y-133585471D01*
X113659177Y-133425380D01*
X113665500Y-133355801D01*
X113665499Y-132569200D01*
X113665499Y-132569199D01*
X113665499Y-132569191D01*
X113659178Y-132499623D01*
X113659176Y-132499616D01*
X113609291Y-132339529D01*
X113609290Y-132339527D01*
X113522545Y-132196032D01*
X113522542Y-132196028D01*
X113478695Y-132152181D01*
X113445210Y-132090858D01*
X113450194Y-132021166D01*
X113492066Y-131965233D01*
X113557530Y-131940816D01*
X113566376Y-131940500D01*
X115182522Y-131940500D01*
X115246671Y-131958383D01*
X115258003Y-131965233D01*
X115289529Y-131984291D01*
X115449620Y-132034177D01*
X115519199Y-132040500D01*
X116180800Y-132040499D01*
X116180808Y-132040499D01*
X116250376Y-132034178D01*
X116250383Y-132034176D01*
X116410471Y-131984291D01*
X116553972Y-131897542D01*
X116672542Y-131778972D01*
X116759291Y-131635471D01*
X116809177Y-131475380D01*
X116815500Y-131405801D01*
X116815499Y-130594201D01*
X117184500Y-130594201D01*
X117184500Y-131405808D01*
X117190821Y-131475376D01*
X117190823Y-131475383D01*
X117240708Y-131635470D01*
X117240709Y-131635472D01*
X117327454Y-131778967D01*
X117327457Y-131778971D01*
X117446028Y-131897542D01*
X117446032Y-131897545D01*
X117530515Y-131948616D01*
X117589529Y-131984291D01*
X117749620Y-132034177D01*
X117819199Y-132040500D01*
X118480800Y-132040499D01*
X118480808Y-132040499D01*
X118550376Y-132034178D01*
X118550383Y-132034176D01*
X118710471Y-131984291D01*
X118741997Y-131965233D01*
X118753329Y-131958383D01*
X118817478Y-131940500D01*
X121062624Y-131940500D01*
X121129663Y-131960185D01*
X121150305Y-131976819D01*
X121196028Y-132022542D01*
X121196032Y-132022545D01*
X121294627Y-132082147D01*
X121339529Y-132109291D01*
X121499620Y-132159177D01*
X121569199Y-132165500D01*
X122355800Y-132165499D01*
X122355808Y-132165499D01*
X122425376Y-132159178D01*
X122425383Y-132159176D01*
X122447831Y-132152181D01*
X122585471Y-132109291D01*
X122728972Y-132022542D01*
X122847542Y-131903972D01*
X122888435Y-131836327D01*
X122893883Y-131827315D01*
X122945410Y-131780127D01*
X123014269Y-131768288D01*
X123078598Y-131795556D01*
X123106117Y-131827315D01*
X123152454Y-131903967D01*
X123152457Y-131903971D01*
X123271028Y-132022542D01*
X123271032Y-132022545D01*
X123369627Y-132082147D01*
X123414529Y-132109291D01*
X123574620Y-132159177D01*
X123644199Y-132165500D01*
X124430800Y-132165499D01*
X124430808Y-132165499D01*
X124500376Y-132159178D01*
X124500383Y-132159176D01*
X124522831Y-132152181D01*
X124660471Y-132109291D01*
X124803972Y-132022542D01*
X124849695Y-131976819D01*
X124911018Y-131943334D01*
X124937376Y-131940500D01*
X126433624Y-131940500D01*
X126500663Y-131960185D01*
X126546418Y-132012989D01*
X126556362Y-132082147D01*
X126527337Y-132145703D01*
X126521305Y-132152181D01*
X126477457Y-132196028D01*
X126477454Y-132196032D01*
X126390710Y-132339526D01*
X126340822Y-132499623D01*
X126334500Y-132569201D01*
X126334500Y-133355808D01*
X126340821Y-133425376D01*
X126340823Y-133425383D01*
X126390708Y-133585470D01*
X126390709Y-133585472D01*
X126477454Y-133728967D01*
X126477457Y-133728971D01*
X126477458Y-133728972D01*
X126596028Y-133847542D01*
X126673168Y-133894175D01*
X126720355Y-133945701D01*
X126732194Y-134014560D01*
X126704926Y-134078889D01*
X126673168Y-134106408D01*
X126596339Y-134152852D01*
X126477853Y-134271338D01*
X126477850Y-134271342D01*
X126391168Y-134414732D01*
X126391166Y-134414739D01*
X126352911Y-134537499D01*
X126352912Y-134537500D01*
X128647088Y-134537500D01*
X128647088Y-134537499D01*
X128608833Y-134414739D01*
X128608831Y-134414732D01*
X128522149Y-134271342D01*
X128522146Y-134271338D01*
X128403660Y-134152852D01*
X128326831Y-134106408D01*
X128279644Y-134054881D01*
X128267805Y-133986021D01*
X128295073Y-133921692D01*
X128326829Y-133894176D01*
X128403972Y-133847542D01*
X128522542Y-133728972D01*
X128609291Y-133585471D01*
X128659177Y-133425380D01*
X128665500Y-133355801D01*
X128665499Y-132569200D01*
X128665499Y-132569199D01*
X128665499Y-132569191D01*
X128659178Y-132499623D01*
X128659176Y-132499616D01*
X128609291Y-132339529D01*
X128609290Y-132339527D01*
X128522545Y-132196032D01*
X128522542Y-132196028D01*
X128478695Y-132152181D01*
X128445210Y-132090858D01*
X128450194Y-132021166D01*
X128492066Y-131965233D01*
X128557530Y-131940816D01*
X128566376Y-131940500D01*
X130062624Y-131940500D01*
X130129663Y-131960185D01*
X130150305Y-131976819D01*
X130196028Y-132022542D01*
X130196032Y-132022545D01*
X130294627Y-132082147D01*
X130339529Y-132109291D01*
X130499620Y-132159177D01*
X130569199Y-132165500D01*
X131355800Y-132165499D01*
X131355808Y-132165499D01*
X131425376Y-132159178D01*
X131425383Y-132159176D01*
X131447831Y-132152181D01*
X131585471Y-132109291D01*
X131728972Y-132022542D01*
X131847542Y-131903972D01*
X131888435Y-131836327D01*
X131893883Y-131827315D01*
X131945410Y-131780127D01*
X132014269Y-131768288D01*
X132078598Y-131795556D01*
X132106117Y-131827315D01*
X132152454Y-131903967D01*
X132152457Y-131903971D01*
X132271028Y-132022542D01*
X132271032Y-132022545D01*
X132369627Y-132082147D01*
X132414529Y-132109291D01*
X132574620Y-132159177D01*
X132644199Y-132165500D01*
X133430800Y-132165499D01*
X133430808Y-132165499D01*
X133500376Y-132159178D01*
X133500383Y-132159176D01*
X133522831Y-132152181D01*
X133660471Y-132109291D01*
X133803972Y-132022542D01*
X133849695Y-131976819D01*
X133911018Y-131943334D01*
X133937376Y-131940500D01*
X137592633Y-131940500D01*
X137592634Y-131940499D01*
X137653198Y-131928452D01*
X137774326Y-131904359D01*
X137774326Y-131904358D01*
X137774334Y-131904357D01*
X137785004Y-131899937D01*
X137832452Y-131890500D01*
X138478787Y-131890500D01*
X138478790Y-131890500D01*
X138545841Y-131884407D01*
X138700136Y-131836327D01*
X138838441Y-131752718D01*
X138952718Y-131638441D01*
X139036327Y-131500136D01*
X139084407Y-131345841D01*
X139090500Y-131278790D01*
X139090500Y-130721210D01*
X139084407Y-130654159D01*
X139036327Y-130499864D01*
X138952718Y-130361559D01*
X138952716Y-130361557D01*
X138952715Y-130361555D01*
X138838444Y-130247284D01*
X138812683Y-130231711D01*
X138700136Y-130163673D01*
X138545841Y-130115593D01*
X138545839Y-130115592D01*
X138545837Y-130115592D01*
X138498892Y-130111326D01*
X138478790Y-130109500D01*
X138478787Y-130109500D01*
X137832452Y-130109500D01*
X137785004Y-130100062D01*
X137774334Y-130095643D01*
X137774327Y-130095641D01*
X137774326Y-130095641D01*
X137774326Y-130095640D01*
X137592634Y-130059500D01*
X137592631Y-130059500D01*
X133937376Y-130059500D01*
X133870337Y-130039815D01*
X133849695Y-130023181D01*
X133803971Y-129977457D01*
X133803967Y-129977454D01*
X133660473Y-129890710D01*
X133660472Y-129890709D01*
X133660471Y-129890709D01*
X133500380Y-129840823D01*
X133500378Y-129840822D01*
X133500376Y-129840822D01*
X133451662Y-129836395D01*
X133430801Y-129834500D01*
X133430798Y-129834500D01*
X132644191Y-129834500D01*
X132574623Y-129840821D01*
X132574616Y-129840823D01*
X132414529Y-129890708D01*
X132414527Y-129890709D01*
X132271032Y-129977454D01*
X132271028Y-129977457D01*
X132152456Y-130096029D01*
X132106117Y-130172685D01*
X132054589Y-130219872D01*
X131985730Y-130231711D01*
X131921401Y-130204442D01*
X131893883Y-130172685D01*
X131847543Y-130096029D01*
X131728971Y-129977457D01*
X131728967Y-129977454D01*
X131585473Y-129890710D01*
X131585472Y-129890709D01*
X131585471Y-129890709D01*
X131425380Y-129840823D01*
X131425378Y-129840822D01*
X131425376Y-129840822D01*
X131376662Y-129836395D01*
X131355801Y-129834500D01*
X131355798Y-129834500D01*
X130569191Y-129834500D01*
X130499623Y-129840821D01*
X130499616Y-129840823D01*
X130339529Y-129890708D01*
X130339527Y-129890709D01*
X130196032Y-129977454D01*
X130196028Y-129977457D01*
X130150305Y-130023181D01*
X130088982Y-130056666D01*
X130062624Y-130059500D01*
X128583831Y-130059500D01*
X128516792Y-130039815D01*
X128471037Y-129987011D01*
X128461093Y-129917853D01*
X128477714Y-129871350D01*
X128484291Y-129860471D01*
X128534177Y-129700380D01*
X128540500Y-129630801D01*
X128540499Y-128969200D01*
X128540499Y-128969199D01*
X128540499Y-128969191D01*
X128534178Y-128899623D01*
X128534176Y-128899616D01*
X128484291Y-128739529D01*
X128484290Y-128739527D01*
X128397545Y-128596032D01*
X128397542Y-128596028D01*
X128278971Y-128477457D01*
X128278967Y-128477454D01*
X128135473Y-128390710D01*
X128135472Y-128390709D01*
X128135471Y-128390709D01*
X127975380Y-128340823D01*
X127975378Y-128340822D01*
X127975376Y-128340822D01*
X127926662Y-128336395D01*
X127905801Y-128334500D01*
X127905798Y-128334500D01*
X127094191Y-128334500D01*
X127024623Y-128340821D01*
X127024616Y-128340823D01*
X126864529Y-128390708D01*
X126864527Y-128390709D01*
X126721032Y-128477454D01*
X126721028Y-128477457D01*
X126602457Y-128596028D01*
X126602454Y-128596032D01*
X126515710Y-128739526D01*
X126465822Y-128899623D01*
X126459500Y-128969201D01*
X126459500Y-129630808D01*
X126465821Y-129700376D01*
X126465823Y-129700383D01*
X126515708Y-129860469D01*
X126522286Y-129871350D01*
X126540122Y-129938905D01*
X126518604Y-130005379D01*
X126464564Y-130049666D01*
X126416169Y-130059500D01*
X124937376Y-130059500D01*
X124870337Y-130039815D01*
X124849695Y-130023181D01*
X124803971Y-129977457D01*
X124803967Y-129977454D01*
X124660473Y-129890710D01*
X124660472Y-129890709D01*
X124660471Y-129890709D01*
X124500380Y-129840823D01*
X124500378Y-129840822D01*
X124500376Y-129840822D01*
X124451662Y-129836395D01*
X124430801Y-129834500D01*
X124430798Y-129834500D01*
X123644191Y-129834500D01*
X123574623Y-129840821D01*
X123574616Y-129840823D01*
X123414529Y-129890708D01*
X123414527Y-129890709D01*
X123271032Y-129977454D01*
X123271028Y-129977457D01*
X123152456Y-130096029D01*
X123106117Y-130172685D01*
X123054589Y-130219872D01*
X122985730Y-130231711D01*
X122921401Y-130204442D01*
X122893883Y-130172685D01*
X122847543Y-130096029D01*
X122728971Y-129977457D01*
X122728967Y-129977454D01*
X122585473Y-129890710D01*
X122585472Y-129890709D01*
X122585471Y-129890709D01*
X122425380Y-129840823D01*
X122425378Y-129840822D01*
X122425376Y-129840822D01*
X122376662Y-129836395D01*
X122355801Y-129834500D01*
X122355798Y-129834500D01*
X121569191Y-129834500D01*
X121499623Y-129840821D01*
X121499616Y-129840823D01*
X121339529Y-129890708D01*
X121339527Y-129890709D01*
X121196032Y-129977454D01*
X121196028Y-129977457D01*
X121150305Y-130023181D01*
X121088982Y-130056666D01*
X121062624Y-130059500D01*
X118817478Y-130059500D01*
X118753329Y-130041617D01*
X118710473Y-130015710D01*
X118710472Y-130015709D01*
X118710471Y-130015709D01*
X118550380Y-129965823D01*
X118550378Y-129965822D01*
X118550376Y-129965822D01*
X118501662Y-129961395D01*
X118480801Y-129959500D01*
X118480798Y-129959500D01*
X117819191Y-129959500D01*
X117749623Y-129965821D01*
X117749616Y-129965823D01*
X117589529Y-130015708D01*
X117589527Y-130015709D01*
X117446032Y-130102454D01*
X117446028Y-130102457D01*
X117327457Y-130221028D01*
X117327454Y-130221032D01*
X117240710Y-130364526D01*
X117190822Y-130524623D01*
X117184500Y-130594201D01*
X116815499Y-130594201D01*
X116815499Y-130594200D01*
X116815499Y-130594199D01*
X116815499Y-130594191D01*
X116809178Y-130524623D01*
X116809176Y-130524616D01*
X116759291Y-130364529D01*
X116759290Y-130364527D01*
X116672545Y-130221032D01*
X116672542Y-130221028D01*
X116553971Y-130102457D01*
X116553967Y-130102454D01*
X116410473Y-130015710D01*
X116410472Y-130015709D01*
X116410471Y-130015709D01*
X116250380Y-129965823D01*
X116250378Y-129965822D01*
X116250376Y-129965822D01*
X116201662Y-129961395D01*
X116180801Y-129959500D01*
X116180798Y-129959500D01*
X115519191Y-129959500D01*
X115449623Y-129965821D01*
X115449616Y-129965823D01*
X115289529Y-130015708D01*
X115289527Y-130015709D01*
X115246671Y-130041617D01*
X115182522Y-130059500D01*
X113564500Y-130059500D01*
X113555814Y-130056949D01*
X113546853Y-130058238D01*
X113522812Y-130047259D01*
X113497461Y-130039815D01*
X113491533Y-130032974D01*
X113483297Y-130029213D01*
X113469007Y-130006978D01*
X113451706Y-129987011D01*
X113449418Y-129976496D01*
X113445523Y-129970435D01*
X113440500Y-129935500D01*
X113440500Y-129817477D01*
X113458382Y-129753328D01*
X113484291Y-129710471D01*
X113534177Y-129550380D01*
X113540500Y-129480801D01*
X113540499Y-128819200D01*
X113540499Y-128819199D01*
X113540499Y-128819191D01*
X113534178Y-128749623D01*
X113534176Y-128749616D01*
X113484291Y-128589529D01*
X113484290Y-128589527D01*
X113397545Y-128446032D01*
X113397542Y-128446028D01*
X113278971Y-128327457D01*
X113278967Y-128327454D01*
X113135473Y-128240710D01*
X113135472Y-128240709D01*
X113135471Y-128240709D01*
X112975380Y-128190823D01*
X112975378Y-128190822D01*
X112975376Y-128190822D01*
X112926662Y-128186395D01*
X112905801Y-128184500D01*
X112905798Y-128184500D01*
X112094191Y-128184500D01*
X112024623Y-128190821D01*
X112024616Y-128190823D01*
X111864529Y-128240708D01*
X111864527Y-128240709D01*
X111721032Y-128327454D01*
X111721028Y-128327457D01*
X111602457Y-128446028D01*
X111602454Y-128446032D01*
X111515710Y-128589526D01*
X111465822Y-128749623D01*
X111459500Y-128819201D01*
X111459500Y-129480808D01*
X111465821Y-129550376D01*
X111465823Y-129550383D01*
X111512565Y-129700383D01*
X111515709Y-129710471D01*
X111541617Y-129753328D01*
X111546148Y-129769582D01*
X111554477Y-129782542D01*
X111559500Y-129817477D01*
X111559500Y-129935500D01*
X111539815Y-130002539D01*
X111487011Y-130048294D01*
X111435500Y-130059500D01*
X107871981Y-130059500D01*
X107804942Y-130039815D01*
X107772213Y-130009135D01*
X107717499Y-129935001D01*
X107610657Y-129856148D01*
X107610655Y-129856147D01*
X107485326Y-129812291D01*
X107485314Y-129812289D01*
X107455570Y-129809500D01*
X107455566Y-129809500D01*
X102874500Y-129809500D01*
X102807461Y-129789815D01*
X102761706Y-129737011D01*
X102750500Y-129685500D01*
X102750500Y-128063999D01*
X102770185Y-127996960D01*
X102822989Y-127951205D01*
X102874500Y-127939999D01*
X104362500Y-127939999D01*
X105362500Y-127939999D01*
X107455500Y-127939999D01*
X107485220Y-127937213D01*
X107610422Y-127893403D01*
X107717141Y-127814641D01*
X107795905Y-127707919D01*
X107839711Y-127582732D01*
X107839713Y-127582720D01*
X107842500Y-127553007D01*
X107842500Y-127350000D01*
X111497388Y-127350000D01*
X111516166Y-127410260D01*
X111516168Y-127410267D01*
X111602850Y-127553657D01*
X111602853Y-127553661D01*
X111721338Y-127672146D01*
X111721342Y-127672149D01*
X111864733Y-127758831D01*
X111864737Y-127758833D01*
X111999999Y-127800982D01*
X112000000Y-127800982D01*
X113000000Y-127800982D01*
X113135262Y-127758833D01*
X113135266Y-127758831D01*
X113278657Y-127672149D01*
X113278661Y-127672146D01*
X113397146Y-127553661D01*
X113397149Y-127553657D01*
X113429586Y-127500000D01*
X126497388Y-127500000D01*
X126516166Y-127560260D01*
X126516168Y-127560267D01*
X126602850Y-127703657D01*
X126602853Y-127703661D01*
X126721338Y-127822146D01*
X126721342Y-127822149D01*
X126864733Y-127908831D01*
X126864737Y-127908833D01*
X126999999Y-127950982D01*
X127000000Y-127950982D01*
X128000000Y-127950982D01*
X128135262Y-127908833D01*
X128135266Y-127908831D01*
X128278657Y-127822149D01*
X128278661Y-127822146D01*
X128397146Y-127703661D01*
X128397149Y-127703657D01*
X128483831Y-127560267D01*
X128483833Y-127560260D01*
X128502612Y-127500000D01*
X128000000Y-127500000D01*
X128000000Y-127950982D01*
X127000000Y-127950982D01*
X127000000Y-127500000D01*
X126497388Y-127500000D01*
X113429586Y-127500000D01*
X113482256Y-127412872D01*
X113482257Y-127412869D01*
X113483833Y-127410260D01*
X113502612Y-127350000D01*
X113000000Y-127350000D01*
X113000000Y-127800982D01*
X112000000Y-127800982D01*
X112000000Y-127350000D01*
X111497388Y-127350000D01*
X107842500Y-127350000D01*
X107842500Y-127250000D01*
X105362500Y-127250000D01*
X105362500Y-127939999D01*
X104362500Y-127939999D01*
X104362500Y-126499999D01*
X126497387Y-126499999D01*
X126497388Y-126500000D01*
X127000000Y-126500000D01*
X128000000Y-126500000D01*
X128502612Y-126500000D01*
X128502612Y-126499999D01*
X128483833Y-126439739D01*
X128483831Y-126439732D01*
X128397149Y-126296342D01*
X128397146Y-126296338D01*
X128278661Y-126177853D01*
X128278657Y-126177850D01*
X128135267Y-126091168D01*
X128135260Y-126091166D01*
X128000000Y-126049016D01*
X128000000Y-126500000D01*
X127000000Y-126500000D01*
X127000000Y-126049017D01*
X126999999Y-126049016D01*
X126864739Y-126091166D01*
X126864732Y-126091168D01*
X126721342Y-126177850D01*
X126721338Y-126177853D01*
X126602853Y-126296338D01*
X126602850Y-126296342D01*
X126516168Y-126439732D01*
X126516166Y-126439739D01*
X126497387Y-126499999D01*
X104362500Y-126499999D01*
X104362500Y-126349999D01*
X111497387Y-126349999D01*
X111497388Y-126350000D01*
X112000000Y-126350000D01*
X113000000Y-126350000D01*
X113502612Y-126350000D01*
X113502612Y-126349999D01*
X113483833Y-126289739D01*
X113483831Y-126289732D01*
X113397149Y-126146342D01*
X113397146Y-126146338D01*
X113278661Y-126027853D01*
X113278657Y-126027850D01*
X113135267Y-125941168D01*
X113135260Y-125941166D01*
X113000000Y-125899016D01*
X113000000Y-126350000D01*
X112000000Y-126350000D01*
X112000000Y-125899017D01*
X111999999Y-125899016D01*
X111864739Y-125941166D01*
X111864732Y-125941168D01*
X111721342Y-126027850D01*
X111721338Y-126027853D01*
X111602853Y-126146338D01*
X111602850Y-126146342D01*
X111516168Y-126289732D01*
X111516166Y-126289739D01*
X111497387Y-126349999D01*
X104362500Y-126349999D01*
X104362500Y-126250000D01*
X105362500Y-126250000D01*
X107842499Y-126250000D01*
X107842499Y-125946999D01*
X107839713Y-125917279D01*
X107795903Y-125792077D01*
X107717141Y-125685358D01*
X107610419Y-125606594D01*
X107485232Y-125562788D01*
X107485220Y-125562786D01*
X107455507Y-125560000D01*
X105362500Y-125560000D01*
X105362500Y-126250000D01*
X104362500Y-126250000D01*
X104362500Y-125560000D01*
X102874500Y-125560000D01*
X102807461Y-125540315D01*
X102761706Y-125487511D01*
X102750500Y-125436000D01*
X102750500Y-121374000D01*
X102770185Y-121306961D01*
X102822989Y-121261206D01*
X102874500Y-121250000D01*
X144148000Y-121250000D01*
X144215039Y-121269685D01*
G37*
%TD.AperFunction*%
%TD*%
M02*
