M48
; DRILL file KiCad 10.0.4 date 2026-06-27T17:47:29
; FORMAT={-:-/ absolute / metric / decimal}
; #@! TF.CreationDate,2026-06-27T17:47:29+02:00
; #@! TF.GenerationSoftware,Kicad,Pcbnew,10.0.4
; #@! TF.FileFunction,Plated,1,2,PTH
FMAT,2
METRIC
; #@! TA.AperFunction,Plated,PTH,ViaDrill
T1C0.300
; #@! TA.AperFunction,Plated,PTH,ComponentDrill
T2C0.800
; #@! TA.AperFunction,Plated,PTH,ComponentDrill
T3C1.000
; #@! TA.AperFunction,Plated,PTH,ComponentDrill
T4C1.100
%
G90
G05
T1
X109.75Y-129.75
X109.75Y-132.25
X111.0Y-135.0
X111.25Y-126.75
X112.5Y-125.75
X112.5Y-136.25
X113.75Y-126.75
X114.0Y-135.0
X114.5Y-129.75
X114.5Y-132.25
X120.25Y-129.75
X120.25Y-132.25
X125.5Y-129.75
X125.5Y-132.25
X126.0Y-135.0
X126.25Y-127.0
X127.5Y-125.75
X127.5Y-136.25
X128.75Y-127.0
X129.0Y-135.0
X129.5Y-129.75
X129.5Y-132.25
X135.25Y-129.75
X135.25Y-132.25
X136.25Y-135.75
X136.25Y-141.75
X138.75Y-135.75
X138.75Y-141.75
X141.25Y-131.0
X143.5Y-132.5
T2
X141.5Y-103.25
X141.5Y-108.25
X142.75Y-115.318
X145.25Y-115.318
T3
X150.75Y-106.25
X150.75Y-108.79
T4
X131.16Y-105.21
X131.16Y-107.75
X131.16Y-110.29
M30
