%TF.GenerationSoftware,KiCad,Pcbnew,10.0.4*%
%TF.CreationDate,2026-06-27T17:44:08+02:00*%
%TF.ProjectId,lna,6c6e612e-6b69-4636-9164-5f7063625858,rev?*%
%TF.SameCoordinates,Original*%
%TF.FileFunction,Copper,L2,Bot*%
%TF.FilePolarity,Positive*%
%FSLAX46Y46*%
G04 Gerber Fmt 4.6, Leading zero omitted, Abs format (unit mm)*
G04 Created by KiCad (PCBNEW 10.0.4) date 2026-06-27 17:44:08*
%MOMM*%
%LPD*%
G01*
G04 APERTURE LIST*
G04 Aperture macros list*
%AMRoundRect*
0 Rectangle with rounded corners*
0 $1 Rounding radius*
0 $2 $3 $4 $5 $6 $7 $8 $9 X,Y pos of 4 corners*
0 Add a 4 corners polygon primitive as box body*
4,1,4,$2,$3,$4,$5,$6,$7,$8,$9,$2,$3,0*
0 Add four circle primitives for the rounded corners*
1,1,$1+$1,$2,$3*
1,1,$1+$1,$4,$5*
1,1,$1+$1,$6,$7*
1,1,$1+$1,$8,$9*
0 Add four rect primitives between the rounded corners*
20,1,$1+$1,$2,$3,$4,$5,0*
20,1,$1+$1,$4,$5,$6,$7,0*
20,1,$1+$1,$6,$7,$8,$9,0*
20,1,$1+$1,$8,$9,$2,$3,0*%
G04 Aperture macros list end*
%TA.AperFunction,SMDPad,CuDef*%
%ADD10R,1.500000X5.080000*%
%TD*%
%TA.AperFunction,ComponentPad*%
%ADD11RoundRect,0.250000X0.550000X0.550000X-0.550000X0.550000X-0.550000X-0.550000X0.550000X-0.550000X0*%
%TD*%
%TA.AperFunction,ComponentPad*%
%ADD12C,1.600000*%
%TD*%
%TA.AperFunction,ComponentPad*%
%ADD13R,1.700000X1.700000*%
%TD*%
%TA.AperFunction,ComponentPad*%
%ADD14C,1.700000*%
%TD*%
%TA.AperFunction,ComponentPad*%
%ADD15R,2.000000X1.905000*%
%TD*%
%TA.AperFunction,ComponentPad*%
%ADD16O,2.000000X1.905000*%
%TD*%
%TA.AperFunction,SMDPad,CuDef*%
%ADD17R,5.080000X1.500000*%
%TD*%
%TA.AperFunction,ViaPad*%
%ADD18C,0.600000*%
%TD*%
%TA.AperFunction,Conductor*%
%ADD19C,1.000000*%
%TD*%
G04 APERTURE END LIST*
D10*
%TO.P,J2,2,Ext_2*%
%TO.N,GND*%
X141750000Y-146750000D03*
X133250000Y-146750000D03*
%TD*%
D11*
%TO.P,C7,1*%
%TO.N,Net-(U2-VO)*%
X145250000Y-115317621D03*
D12*
%TO.P,C7,2*%
%TO.N,GND*%
X142750000Y-115317621D03*
%TD*%
D13*
%TO.P,J3,1,Pin_1_1*%
%TO.N,+9V*%
X150750000Y-106250000D03*
D14*
%TO.P,J3,2,Pin_2_2*%
%TO.N,GND*%
X150750000Y-108790000D03*
%TD*%
D12*
%TO.P,C8,1*%
%TO.N,+9V*%
X141500000Y-108250000D03*
%TO.P,C8,2*%
%TO.N,GND*%
X141500000Y-103250000D03*
%TD*%
D15*
%TO.P,U2,1,VI_1*%
%TO.N,+9V*%
X131160000Y-110290000D03*
D16*
%TO.P,U2,2,GND_2*%
%TO.N,GND*%
X131160000Y-107750000D03*
%TO.P,U2,3,VO_3*%
%TO.N,Net-(U2-VO)*%
X131160000Y-105210000D03*
%TD*%
D17*
%TO.P,J1,2,Ext_2*%
%TO.N,GND*%
X104862500Y-135250000D03*
X104862500Y-126750000D03*
%TD*%
D18*
%TO.N,GND*%
X109750000Y-132250000D03*
X114500000Y-132250000D03*
X112500000Y-136250000D03*
X129000000Y-135000000D03*
X112500000Y-125750000D03*
X136250000Y-141750000D03*
X125500000Y-129750000D03*
X120250000Y-129750000D03*
X128750000Y-127000000D03*
X114000000Y-135000000D03*
X141250000Y-131000000D03*
X114500000Y-129750000D03*
X111250000Y-126750000D03*
X113750000Y-126750000D03*
X136250000Y-135750000D03*
X127500000Y-125750000D03*
X135250000Y-129750000D03*
X129500000Y-129750000D03*
X120250000Y-132250000D03*
X125500000Y-132250000D03*
X129500000Y-132250000D03*
X138750000Y-135750000D03*
X126000000Y-135000000D03*
X127500000Y-136250000D03*
X126250000Y-127000000D03*
X109750000Y-129750000D03*
X135250000Y-132250000D03*
X143500000Y-132500000D03*
X138750000Y-141750000D03*
X111000000Y-135000000D03*
%TD*%
%TO.N,+9V*%
D19*
X143500000Y-106250000D02*
X141500000Y-108250000D01*
X150750000Y-106250000D02*
X143500000Y-106250000D01*
%TD*%
%TA.AperFunction,Conductor*%
%TO.N,GND*%
G36*
X151692539Y-99770185D02*
G01*
X151738294Y-99822989D01*
X151749500Y-99874500D01*
X151749500Y-104835500D01*
X151729815Y-104902539D01*
X151677011Y-104948294D01*
X151625500Y-104959500D01*
X149846930Y-104959500D01*
X149817185Y-104962289D01*
X149817173Y-104962291D01*
X149691844Y-105006147D01*
X149585001Y-105085001D01*
X149506147Y-105191843D01*
X149494036Y-105226456D01*
X149453314Y-105283232D01*
X149388361Y-105308978D01*
X149376995Y-105309500D01*
X143407364Y-105309500D01*
X143225672Y-105345640D01*
X143225665Y-105345642D01*
X143140086Y-105381091D01*
X143140085Y-105381091D01*
X143054512Y-105416535D01*
X143054500Y-105416542D01*
X142931218Y-105498918D01*
X142931217Y-105498918D01*
X142900470Y-105519462D01*
X142900462Y-105519468D01*
X141440439Y-106979492D01*
X141379116Y-107012977D01*
X141372157Y-107014284D01*
X141209514Y-107040045D01*
X141023815Y-107100381D01*
X141023812Y-107100382D01*
X140849832Y-107189031D01*
X140691874Y-107303793D01*
X140691869Y-107303797D01*
X140553797Y-107441869D01*
X140553793Y-107441874D01*
X140439031Y-107599832D01*
X140350382Y-107773812D01*
X140350381Y-107773815D01*
X140290045Y-107959514D01*
X140259500Y-108152365D01*
X140259500Y-108347634D01*
X140290045Y-108540485D01*
X140350381Y-108726184D01*
X140350382Y-108726187D01*
X140405988Y-108835318D01*
X140438838Y-108899790D01*
X140439031Y-108900167D01*
X140553793Y-109058125D01*
X140553797Y-109058130D01*
X140691869Y-109196202D01*
X140691874Y-109196206D01*
X140775939Y-109257282D01*
X140849836Y-109310971D01*
X140963565Y-109368919D01*
X141023812Y-109399617D01*
X141023815Y-109399618D01*
X141077079Y-109416924D01*
X141209516Y-109459955D01*
X141298835Y-109474101D01*
X141402366Y-109490500D01*
X141402371Y-109490500D01*
X141597634Y-109490500D01*
X141691125Y-109475691D01*
X141790484Y-109459955D01*
X141976187Y-109399617D01*
X142150164Y-109310971D01*
X142308132Y-109196201D01*
X142446201Y-109058132D01*
X142560971Y-108900164D01*
X142649617Y-108726187D01*
X142650271Y-108724174D01*
X142661872Y-108688469D01*
X149460000Y-108688469D01*
X149460000Y-108891530D01*
X149491764Y-109092077D01*
X149491764Y-109092080D01*
X149552840Y-109280051D01*
X149552841Y-109280051D01*
X150042893Y-108790000D01*
X149552840Y-108299947D01*
X149491764Y-108487919D01*
X149491764Y-108487922D01*
X149460000Y-108688469D01*
X142661872Y-108688469D01*
X142675904Y-108645285D01*
X142691808Y-108596333D01*
X142709955Y-108540484D01*
X142733088Y-108394428D01*
X142735715Y-108377843D01*
X142765644Y-108314708D01*
X142770489Y-108309578D01*
X143853249Y-107226819D01*
X143914572Y-107193334D01*
X143940930Y-107190500D01*
X149376995Y-107190500D01*
X149444034Y-107210185D01*
X149489789Y-107262989D01*
X149494036Y-107273544D01*
X149506147Y-107308156D01*
X149506148Y-107308157D01*
X149585001Y-107414999D01*
X149691843Y-107493852D01*
X149730003Y-107507204D01*
X149817173Y-107537708D01*
X149817177Y-107537708D01*
X149817181Y-107537710D01*
X149832057Y-107539105D01*
X149846930Y-107540500D01*
X150156245Y-107540500D01*
X150223284Y-107560185D01*
X150243926Y-107576819D01*
X151015872Y-108348765D01*
X151029736Y-108374156D01*
X150942993Y-108324075D01*
X150815826Y-108290000D01*
X150684174Y-108290000D01*
X150557007Y-108324075D01*
X150442993Y-108389901D01*
X150349901Y-108482993D01*
X150284075Y-108597007D01*
X150250000Y-108724174D01*
X150250000Y-108855826D01*
X150284075Y-108982993D01*
X150349901Y-109097007D01*
X150442993Y-109190099D01*
X150557007Y-109255925D01*
X150684174Y-109290000D01*
X150815826Y-109290000D01*
X150942993Y-109255925D01*
X151033634Y-109203592D01*
X151015871Y-109231233D01*
X150259947Y-109987157D01*
X150447929Y-110048236D01*
X150648470Y-110080000D01*
X150851530Y-110080000D01*
X151052076Y-110048236D01*
X151245192Y-109985488D01*
X151426110Y-109893304D01*
X151552615Y-109801394D01*
X151618421Y-109777914D01*
X151686475Y-109793739D01*
X151735170Y-109843845D01*
X151749500Y-109901712D01*
X151749500Y-148625500D01*
X151729815Y-148692539D01*
X151677011Y-148738294D01*
X151625500Y-148749500D01*
X143064000Y-148749500D01*
X142996961Y-148729815D01*
X142951206Y-148677011D01*
X142940000Y-148625500D01*
X142940000Y-147250000D01*
X140560001Y-147250000D01*
X140560001Y-148625500D01*
X140540316Y-148692539D01*
X140487512Y-148738294D01*
X140436001Y-148749500D01*
X134564000Y-148749500D01*
X134496961Y-148729815D01*
X134451206Y-148677011D01*
X134440000Y-148625500D01*
X134440000Y-147250000D01*
X132060001Y-147250000D01*
X132060001Y-148625500D01*
X132040316Y-148692539D01*
X131987512Y-148738294D01*
X131936001Y-148749500D01*
X102874500Y-148749500D01*
X102807461Y-148729815D01*
X102761706Y-148677011D01*
X102750500Y-148625500D01*
X102750500Y-144156992D01*
X132060000Y-144156992D01*
X132060000Y-146250000D01*
X132750000Y-146250000D01*
X133750000Y-146250000D01*
X134439999Y-146250000D01*
X134439999Y-144156999D01*
X134439998Y-144156992D01*
X140560000Y-144156992D01*
X140560000Y-146250000D01*
X141250000Y-146250000D01*
X142250000Y-146250000D01*
X142939999Y-146250000D01*
X142939999Y-144156999D01*
X142937213Y-144127279D01*
X142893403Y-144002077D01*
X142814641Y-143895358D01*
X142707919Y-143816594D01*
X142582732Y-143772788D01*
X142582720Y-143772786D01*
X142553007Y-143770000D01*
X142250000Y-143770000D01*
X142250000Y-146250000D01*
X141250000Y-146250000D01*
X141250000Y-143770000D01*
X140946999Y-143770000D01*
X140917279Y-143772786D01*
X140792077Y-143816596D01*
X140685358Y-143895358D01*
X140606594Y-144002080D01*
X140562788Y-144127267D01*
X140562786Y-144127279D01*
X140560000Y-144156992D01*
X134439998Y-144156992D01*
X134437213Y-144127279D01*
X134393403Y-144002077D01*
X134314641Y-143895358D01*
X134207919Y-143816594D01*
X134082732Y-143772788D01*
X134082720Y-143772786D01*
X134053007Y-143770000D01*
X133750000Y-143770000D01*
X133750000Y-146250000D01*
X132750000Y-146250000D01*
X132750000Y-143770000D01*
X132446999Y-143770000D01*
X132417279Y-143772786D01*
X132292077Y-143816596D01*
X132185358Y-143895358D01*
X132106594Y-144002080D01*
X132062788Y-144127267D01*
X132062786Y-144127279D01*
X132060000Y-144156992D01*
X102750500Y-144156992D01*
X102750500Y-136563999D01*
X102770185Y-136496960D01*
X102822989Y-136451205D01*
X102874500Y-136439999D01*
X104362500Y-136439999D01*
X105362500Y-136439999D01*
X107455500Y-136439999D01*
X107485220Y-136437213D01*
X107610422Y-136393403D01*
X107717141Y-136314641D01*
X107795905Y-136207919D01*
X107839711Y-136082732D01*
X107839713Y-136082720D01*
X107842500Y-136053007D01*
X107842500Y-135750000D01*
X105362500Y-135750000D01*
X105362500Y-136439999D01*
X104362500Y-136439999D01*
X104362500Y-134750000D01*
X105362500Y-134750000D01*
X107842499Y-134750000D01*
X107842499Y-134446999D01*
X107839713Y-134417279D01*
X107795903Y-134292077D01*
X107717141Y-134185358D01*
X107610419Y-134106594D01*
X107485232Y-134062788D01*
X107485220Y-134062786D01*
X107455507Y-134060000D01*
X105362500Y-134060000D01*
X105362500Y-134750000D01*
X104362500Y-134750000D01*
X104362500Y-134060000D01*
X102874500Y-134060000D01*
X102807461Y-134040315D01*
X102761706Y-133987511D01*
X102750500Y-133936000D01*
X102750500Y-128063999D01*
X102770185Y-127996960D01*
X102822989Y-127951205D01*
X102874500Y-127939999D01*
X104362500Y-127939999D01*
X105362500Y-127939999D01*
X107455500Y-127939999D01*
X107485220Y-127937213D01*
X107610422Y-127893403D01*
X107717141Y-127814641D01*
X107795905Y-127707919D01*
X107839711Y-127582732D01*
X107839713Y-127582720D01*
X107842500Y-127553007D01*
X107842500Y-127250000D01*
X105362500Y-127250000D01*
X105362500Y-127939999D01*
X104362500Y-127939999D01*
X104362500Y-126250000D01*
X105362500Y-126250000D01*
X107842499Y-126250000D01*
X107842499Y-125946999D01*
X107839713Y-125917279D01*
X107795903Y-125792077D01*
X107717141Y-125685358D01*
X107610419Y-125606594D01*
X107485232Y-125562788D01*
X107485220Y-125562786D01*
X107455507Y-125560000D01*
X105362500Y-125560000D01*
X105362500Y-126250000D01*
X104362500Y-126250000D01*
X104362500Y-125560000D01*
X102874500Y-125560000D01*
X102807461Y-125540315D01*
X102761706Y-125487511D01*
X102750500Y-125436000D01*
X102750500Y-116475099D01*
X142299627Y-116475099D01*
X142459635Y-116527088D01*
X142652411Y-116557621D01*
X142847589Y-116557621D01*
X143040364Y-116527088D01*
X143200371Y-116475099D01*
X143200371Y-116475098D01*
X142750001Y-116024727D01*
X142750000Y-116024727D01*
X142299627Y-116475099D01*
X102750500Y-116475099D01*
X102750500Y-115220031D01*
X141510000Y-115220031D01*
X141510000Y-115415210D01*
X141540533Y-115607989D01*
X141592520Y-115767991D01*
X141592521Y-115767991D01*
X142042893Y-115317621D01*
X141990232Y-115264960D01*
X142350000Y-115264960D01*
X142350000Y-115370282D01*
X142377259Y-115472015D01*
X142429920Y-115563227D01*
X142504394Y-115637701D01*
X142595606Y-115690362D01*
X142697339Y-115717621D01*
X142802661Y-115717621D01*
X142904394Y-115690362D01*
X142995606Y-115637701D01*
X143070080Y-115563227D01*
X143122741Y-115472015D01*
X143150000Y-115370282D01*
X143150000Y-115317621D01*
X143457106Y-115317621D01*
X143923026Y-115783540D01*
X143926329Y-115783706D01*
X143983149Y-115824366D01*
X144008966Y-115889291D01*
X144009500Y-115900786D01*
X144009500Y-115923428D01*
X144015821Y-115992996D01*
X144015823Y-115993004D01*
X144065708Y-116153091D01*
X144065709Y-116153093D01*
X144152454Y-116296588D01*
X144152457Y-116296592D01*
X144271028Y-116415163D01*
X144271032Y-116415166D01*
X144370173Y-116475098D01*
X144414529Y-116501912D01*
X144574620Y-116551798D01*
X144644199Y-116558121D01*
X145855800Y-116558120D01*
X145855807Y-116558120D01*
X145925375Y-116551799D01*
X145925378Y-116551798D01*
X145925380Y-116551798D01*
X146085471Y-116501912D01*
X146228972Y-116415163D01*
X146347542Y-116296593D01*
X146434291Y-116153092D01*
X146484177Y-115993001D01*
X146490500Y-115923422D01*
X146490499Y-114711821D01*
X146490499Y-114711820D01*
X146490499Y-114711812D01*
X146484178Y-114642245D01*
X146484176Y-114642237D01*
X146434291Y-114482150D01*
X146434290Y-114482148D01*
X146347545Y-114338653D01*
X146347542Y-114338649D01*
X146228971Y-114220078D01*
X146228967Y-114220075D01*
X146085473Y-114133331D01*
X146085472Y-114133330D01*
X146085471Y-114133330D01*
X145925380Y-114083444D01*
X145925378Y-114083443D01*
X145925376Y-114083443D01*
X145876662Y-114079016D01*
X145855801Y-114077121D01*
X145855798Y-114077121D01*
X144644191Y-114077121D01*
X144574624Y-114083442D01*
X144574616Y-114083444D01*
X144414529Y-114133329D01*
X144414527Y-114133330D01*
X144271032Y-114220075D01*
X144271028Y-114220078D01*
X144152457Y-114338649D01*
X144152454Y-114338653D01*
X144065710Y-114482147D01*
X144015822Y-114642244D01*
X144009500Y-114711822D01*
X144009500Y-114734449D01*
X143989815Y-114801488D01*
X143937011Y-114847243D01*
X143925884Y-114848842D01*
X143457106Y-115317621D01*
X143150000Y-115317621D01*
X143150000Y-115264960D01*
X143122741Y-115163227D01*
X143070080Y-115072015D01*
X142995606Y-114997541D01*
X142904394Y-114944880D01*
X142802661Y-114917621D01*
X142697339Y-114917621D01*
X142595606Y-114944880D01*
X142504394Y-114997541D01*
X142429920Y-115072015D01*
X142377259Y-115163227D01*
X142350000Y-115264960D01*
X141990232Y-115264960D01*
X141592521Y-114867249D01*
X141592520Y-114867249D01*
X141540533Y-115027252D01*
X141510000Y-115220031D01*
X102750500Y-115220031D01*
X102750500Y-114160141D01*
X142299628Y-114160141D01*
X142299628Y-114160142D01*
X142750000Y-114610514D01*
X142750001Y-114610514D01*
X143200370Y-114160142D01*
X143200370Y-114160141D01*
X143040368Y-114108154D01*
X142847589Y-114077621D01*
X142652411Y-114077621D01*
X142459631Y-114108154D01*
X142299628Y-114160141D01*
X102750500Y-114160141D01*
X102750500Y-107618872D01*
X112499500Y-107618872D01*
X112499500Y-107881127D01*
X112526123Y-108083339D01*
X112533730Y-108141116D01*
X112601602Y-108394418D01*
X112601605Y-108394428D01*
X112701953Y-108636690D01*
X112701958Y-108636700D01*
X112833075Y-108863803D01*
X112992718Y-109071851D01*
X112992726Y-109071860D01*
X113178140Y-109257274D01*
X113178148Y-109257281D01*
X113386196Y-109416924D01*
X113613299Y-109548041D01*
X113613309Y-109548046D01*
X113855571Y-109648394D01*
X113855581Y-109648398D01*
X114108884Y-109716270D01*
X114368880Y-109750500D01*
X114368887Y-109750500D01*
X114631113Y-109750500D01*
X114631120Y-109750500D01*
X114891116Y-109716270D01*
X115144419Y-109648398D01*
X115386697Y-109548043D01*
X115613803Y-109416924D01*
X115821851Y-109257282D01*
X115821855Y-109257277D01*
X115821860Y-109257274D01*
X116007274Y-109071860D01*
X116007277Y-109071855D01*
X116007282Y-109071851D01*
X116166924Y-108863803D01*
X116298043Y-108636697D01*
X116398398Y-108394419D01*
X116466270Y-108141116D01*
X116500500Y-107881120D01*
X116500500Y-107618880D01*
X116466270Y-107358884D01*
X116398398Y-107105581D01*
X116371252Y-107040045D01*
X116298046Y-106863309D01*
X116298041Y-106863299D01*
X116166924Y-106636196D01*
X116028410Y-106455683D01*
X116007282Y-106428149D01*
X116007281Y-106428148D01*
X116007274Y-106428140D01*
X115821860Y-106242726D01*
X115821851Y-106242718D01*
X115613803Y-106083075D01*
X115386700Y-105951958D01*
X115386690Y-105951953D01*
X115144428Y-105851605D01*
X115144421Y-105851603D01*
X115144419Y-105851602D01*
X114891116Y-105783730D01*
X114833339Y-105776123D01*
X114631127Y-105749500D01*
X114631120Y-105749500D01*
X114368880Y-105749500D01*
X114368872Y-105749500D01*
X114137772Y-105779926D01*
X114108884Y-105783730D01*
X113855581Y-105851602D01*
X113855571Y-105851605D01*
X113613309Y-105951953D01*
X113613299Y-105951958D01*
X113386196Y-106083075D01*
X113178148Y-106242718D01*
X112992718Y-106428148D01*
X112833075Y-106636196D01*
X112701958Y-106863299D01*
X112701953Y-106863309D01*
X112601605Y-107105571D01*
X112601602Y-107105581D01*
X112547323Y-107308156D01*
X112533730Y-107358885D01*
X112499500Y-107618872D01*
X102750500Y-107618872D01*
X102750500Y-105100369D01*
X129719500Y-105100369D01*
X129719500Y-105319631D01*
X129723620Y-105345642D01*
X129751151Y-105519468D01*
X129753801Y-105536195D01*
X129821557Y-105744726D01*
X129921100Y-105940091D01*
X130049979Y-106117478D01*
X130205022Y-106272521D01*
X130205025Y-106272523D01*
X130352940Y-106379990D01*
X130395606Y-106435320D01*
X130401585Y-106504933D01*
X130368979Y-106566728D01*
X130352941Y-106580626D01*
X130205348Y-106687858D01*
X130050358Y-106842848D01*
X130050354Y-106842853D01*
X129921529Y-107020167D01*
X129822020Y-107215464D01*
X129822018Y-107215467D01*
X129810798Y-107249999D01*
X129810799Y-107250000D01*
X130926026Y-107250000D01*
X130822292Y-107309890D01*
X130719890Y-107412292D01*
X130647482Y-107537708D01*
X130610000Y-107677591D01*
X130610000Y-107822409D01*
X130647482Y-107962292D01*
X130719890Y-108087708D01*
X130822292Y-108190110D01*
X130926026Y-108250000D01*
X129810799Y-108250000D01*
X129822018Y-108284532D01*
X129822020Y-108284535D01*
X129921529Y-108479832D01*
X130050354Y-108657146D01*
X130050358Y-108657151D01*
X130097510Y-108704303D01*
X130130995Y-108765626D01*
X130126011Y-108835318D01*
X130084139Y-108891251D01*
X130050785Y-108909025D01*
X129951843Y-108943647D01*
X129845001Y-109022501D01*
X129766147Y-109129344D01*
X129722291Y-109254673D01*
X129722289Y-109254685D01*
X129719500Y-109284429D01*
X129719500Y-111295570D01*
X129722289Y-111325314D01*
X129722291Y-111325326D01*
X129766147Y-111450655D01*
X129766148Y-111450657D01*
X129845001Y-111557499D01*
X129951843Y-111636352D01*
X129990003Y-111649704D01*
X130077173Y-111680208D01*
X130077177Y-111680208D01*
X130077181Y-111680210D01*
X130092057Y-111681605D01*
X130106930Y-111683000D01*
X130106934Y-111683000D01*
X132213070Y-111683000D01*
X132226289Y-111681760D01*
X132242819Y-111680210D01*
X132242823Y-111680208D01*
X132242826Y-111680208D01*
X132291836Y-111663057D01*
X132368157Y-111636352D01*
X132474999Y-111557499D01*
X132553852Y-111450657D01*
X132597710Y-111325319D01*
X132600500Y-111295566D01*
X132600500Y-109284434D01*
X132597710Y-109254681D01*
X132597708Y-109254677D01*
X132597708Y-109254673D01*
X132553852Y-109129344D01*
X132553852Y-109129343D01*
X132474999Y-109022501D01*
X132368157Y-108943648D01*
X132368156Y-108943647D01*
X132269214Y-108909025D01*
X132212438Y-108868303D01*
X132186692Y-108803350D01*
X132200149Y-108734788D01*
X132222490Y-108704302D01*
X132269642Y-108657150D01*
X132269645Y-108657146D01*
X132398470Y-108479832D01*
X132497979Y-108284535D01*
X132497981Y-108284532D01*
X132509201Y-108250000D01*
X131393974Y-108250000D01*
X131497708Y-108190110D01*
X131600110Y-108087708D01*
X131672518Y-107962292D01*
X131710000Y-107822409D01*
X131710000Y-107677591D01*
X131672518Y-107537708D01*
X131600110Y-107412292D01*
X131497708Y-107309890D01*
X131393974Y-107250000D01*
X132509201Y-107250000D01*
X132509201Y-107249999D01*
X132497981Y-107215467D01*
X132497979Y-107215464D01*
X132398470Y-107020167D01*
X132269645Y-106842853D01*
X132269641Y-106842848D01*
X132114651Y-106687858D01*
X132114646Y-106687854D01*
X131967059Y-106580626D01*
X131924393Y-106525296D01*
X131918414Y-106455683D01*
X131951020Y-106393888D01*
X131967059Y-106379990D01*
X132114978Y-106272521D01*
X132270021Y-106117478D01*
X132398900Y-105940091D01*
X132498443Y-105744726D01*
X132566199Y-105536195D01*
X132600500Y-105319631D01*
X132600500Y-105100369D01*
X132566199Y-104883805D01*
X132498443Y-104675274D01*
X132398900Y-104479909D01*
X132398898Y-104479906D01*
X132398897Y-104479904D01*
X132371205Y-104441789D01*
X132371203Y-104441787D01*
X132346276Y-104407478D01*
X141049627Y-104407478D01*
X141209635Y-104459467D01*
X141402411Y-104490000D01*
X141597589Y-104490000D01*
X141790364Y-104459467D01*
X141950371Y-104407478D01*
X141950371Y-104407477D01*
X141500001Y-103957106D01*
X141500000Y-103957106D01*
X141049627Y-104407478D01*
X132346276Y-104407478D01*
X132346275Y-104407477D01*
X132270021Y-104302522D01*
X132114978Y-104147479D01*
X131937591Y-104018600D01*
X131742226Y-103919057D01*
X131533695Y-103851301D01*
X131533693Y-103851300D01*
X131533691Y-103851300D01*
X131382484Y-103827351D01*
X131317131Y-103817000D01*
X131002869Y-103817000D01*
X130952665Y-103824951D01*
X130786308Y-103851300D01*
X130577771Y-103919058D01*
X130382408Y-104018600D01*
X130205019Y-104147481D01*
X130049981Y-104302519D01*
X129921100Y-104479908D01*
X129821558Y-104675271D01*
X129753800Y-104883808D01*
X129734423Y-105006148D01*
X129719500Y-105100369D01*
X102750500Y-105100369D01*
X102750500Y-103152410D01*
X140260000Y-103152410D01*
X140260000Y-103347589D01*
X140290533Y-103540368D01*
X140342520Y-103700370D01*
X140342521Y-103700370D01*
X140792893Y-103250000D01*
X140740232Y-103197339D01*
X141100000Y-103197339D01*
X141100000Y-103302661D01*
X141127259Y-103404394D01*
X141179920Y-103495606D01*
X141254394Y-103570080D01*
X141345606Y-103622741D01*
X141447339Y-103650000D01*
X141552661Y-103650000D01*
X141654394Y-103622741D01*
X141745606Y-103570080D01*
X141820080Y-103495606D01*
X141872741Y-103404394D01*
X141900000Y-103302661D01*
X141900000Y-103250000D01*
X142207106Y-103250000D01*
X142657477Y-103700371D01*
X142657478Y-103700371D01*
X142709467Y-103540364D01*
X142740000Y-103347589D01*
X142740000Y-103152410D01*
X142709467Y-102959635D01*
X142657478Y-102799627D01*
X142207106Y-103250000D01*
X141900000Y-103250000D01*
X141900000Y-103197339D01*
X141872741Y-103095606D01*
X141820080Y-103004394D01*
X141745606Y-102929920D01*
X141654394Y-102877259D01*
X141552661Y-102850000D01*
X141447339Y-102850000D01*
X141345606Y-102877259D01*
X141254394Y-102929920D01*
X141179920Y-103004394D01*
X141127259Y-103095606D01*
X141100000Y-103197339D01*
X140740232Y-103197339D01*
X140342521Y-102799628D01*
X140342520Y-102799628D01*
X140290533Y-102959631D01*
X140260000Y-103152410D01*
X102750500Y-103152410D01*
X102750500Y-102092520D01*
X141049628Y-102092520D01*
X141049628Y-102092521D01*
X141500000Y-102542893D01*
X141500001Y-102542893D01*
X141950370Y-102092521D01*
X141950370Y-102092520D01*
X141790368Y-102040533D01*
X141597589Y-102010000D01*
X141402411Y-102010000D01*
X141209631Y-102040533D01*
X141049628Y-102092520D01*
X102750500Y-102092520D01*
X102750500Y-99874500D01*
X102770185Y-99807461D01*
X102822989Y-99761706D01*
X102874500Y-99750500D01*
X151625500Y-99750500D01*
X151692539Y-99770185D01*
G37*
%TD.AperFunction*%
%TD*%
M02*
