%TF.GenerationSoftware,KiCad,Pcbnew,10.0.4*%
%TF.CreationDate,2026-08-24T22:14:08+02:00*%
%TF.ProjectId,simdir,73696d64-6972-42e6-9b69-6361645f7063,rev?*%
%TF.SameCoordinates,Original*%
%TF.FileFunction,Copper,L3,Inr*%
%TF.FilePolarity,Positive*%
%FSLAX46Y46*%
G04 Gerber Fmt 4.6, Leading zero omitted, Abs format (unit mm)*
G04 Created by KiCad (PCBNEW 10.0.4) date 2026-08-24 22:14:08*
%MOMM*%
%LPD*%
G01*
G04 APERTURE LIST*
G04 Aperture macros list*
%AMRoundRect*
0 Rectangle with rounded corners*
0 $1 Rounding radius*
0 $2 $3 $4 $5 $6 $7 $8 $9 X,Y pos of 4 corners*
0 Add a 4 corners polygon primitive as box body*
4,1,4,$2,$3,$4,$5,$6,$7,$8,$9,$2,$3,0*
0 Add four circle primitives for the rounded corners*
1,1,$1+$1,$2,$3*
1,1,$1+$1,$4,$5*
1,1,$1+$1,$6,$7*
1,1,$1+$1,$8,$9*
0 Add four rect primitives between the rounded corners*
20,1,$1+$1,$2,$3,$4,$5,0*
20,1,$1+$1,$4,$5,$6,$7,0*
20,1,$1+$1,$6,$7,$8,$9,0*
20,1,$1+$1,$8,$9,$2,$3,0*%
G04 Aperture macros list end*
%TA.AperFunction,ComponentPad*%
%ADD10RoundRect,0.255000X0.595000X0.595000X-0.595000X0.595000X-0.595000X-0.595000X0.595000X-0.595000X0*%
%TD*%
%TA.AperFunction,ComponentPad*%
%ADD11RoundRect,0.250000X-0.550000X-0.550000X0.550000X-0.550000X0.550000X0.550000X-0.550000X0.550000X0*%
%TD*%
%TA.AperFunction,ComponentPad*%
%ADD12C,1.600000*%
%TD*%
%TA.AperFunction,ComponentPad*%
%ADD13RoundRect,0.255000X-0.595000X-0.595000X0.595000X-0.595000X0.595000X0.595000X-0.595000X0.595000X0*%
%TD*%
%TA.AperFunction,ComponentPad*%
%ADD14R,1.700000X1.700000*%
%TD*%
%TA.AperFunction,ComponentPad*%
%ADD15C,1.700000*%
%TD*%
%TA.AperFunction,ComponentPad*%
%ADD16R,1.905000X2.000000*%
%TD*%
%TA.AperFunction,ComponentPad*%
%ADD17O,1.905000X2.000000*%
%TD*%
%TA.AperFunction,ViaPad*%
%ADD18C,0.600000*%
%TD*%
%TA.AperFunction,Conductor*%
%ADD19C,1.000000*%
%TD*%
%TA.AperFunction,Conductor*%
%ADD20C,0.380000*%
%TD*%
G04 APERTURE END LIST*
D10*
%TO.N,RF_GND*%
%TO.C,U29*%
X73139641Y-106450000D03*
%TD*%
%TO.N,RF_GND*%
%TO.C,U36*%
X141279641Y-106450000D03*
%TD*%
%TO.N,RF_GND*%
%TO.C,U15*%
X157912500Y-157290000D03*
%TD*%
D11*
%TO.N,Net-(Q13-C)*%
%TO.C,SWMSB1*%
X221230000Y-169420000D03*
D12*
%TO.N,DIG_GND*%
X221230000Y-171960000D03*
%TO.N,Net-(Q15-C)*%
X221230000Y-174500000D03*
%TO.N,Net-(Q14-C)*%
X228850000Y-174500000D03*
%TO.N,DIG_GND*%
X228850000Y-171960000D03*
%TO.N,Net-(Q16-C)*%
X228850000Y-169420000D03*
%TD*%
D11*
%TO.N,Net-(Q33-C)*%
%TO.C,SWLSB3*%
X220836250Y-57685000D03*
D12*
%TO.N,DIG_GND*%
X220836250Y-60225000D03*
%TO.N,Net-(Q35-C)*%
X220836250Y-62765000D03*
%TO.N,Net-(Q34-C)*%
X228456250Y-62765000D03*
%TO.N,DIG_GND*%
X228456250Y-60225000D03*
%TO.N,Net-(Q36-C)*%
X228456250Y-57685000D03*
%TD*%
D13*
%TO.N,RF_GND*%
%TO.C,U52*%
X149708750Y-55700000D03*
%TD*%
D10*
%TO.N,RF_GND*%
%TO.C,U28*%
X56047141Y-106515000D03*
%TD*%
D12*
%TO.N,Net-(J6-Pin_1)*%
%TO.C,C7*%
X222000000Y-44375000D03*
%TO.N,DIG_GND*%
X227000000Y-44375000D03*
%TD*%
D10*
%TO.N,RF_GND*%
%TO.C,U37*%
X158139641Y-106515000D03*
%TD*%
D11*
%TO.N,5v*%
%TO.C,C8*%
X231817621Y-40125000D03*
D12*
%TO.N,DIG_GND*%
X234317621Y-40125000D03*
%TD*%
D13*
%TO.N,RF_GND*%
%TO.C,U42*%
X81616250Y-55765000D03*
%TD*%
D11*
%TO.N,Net-(Q21-C)*%
%TO.C,SWMSB2*%
X221457141Y-118645000D03*
D12*
%TO.N,DIG_GND*%
X221457141Y-121185000D03*
%TO.N,Net-(Q23-C)*%
X221457141Y-123725000D03*
%TO.N,Net-(Q22-C)*%
X229077141Y-123725000D03*
%TO.N,DIG_GND*%
X229077141Y-121185000D03*
%TO.N,Net-(Q24-C)*%
X229077141Y-118645000D03*
%TD*%
D13*
%TO.N,RF_GND*%
%TO.C,U32*%
X133139641Y-106450000D03*
%TD*%
D10*
%TO.N,RF_GND*%
%TO.C,U14*%
X141052500Y-157225000D03*
%TD*%
%TO.N,RF_GND*%
%TO.C,U54*%
X123691250Y-55700000D03*
%TD*%
D13*
%TO.N,RF_GND*%
%TO.C,U50*%
X115616250Y-55715000D03*
%TD*%
D10*
%TO.N,RF_GND*%
%TO.C,U13*%
X123895000Y-157225000D03*
%TD*%
%TO.N,RF_GND*%
%TO.C,U16*%
X174545000Y-157225000D03*
%TD*%
%TO.N,RF_GND*%
%TO.C,U57*%
X174341250Y-55700000D03*
%TD*%
%TO.N,RF_GND*%
%TO.C,U45*%
X89616250Y-55715000D03*
%TD*%
D13*
%TO.N,RF_GND*%
%TO.C,U11*%
X149912500Y-157225000D03*
%TD*%
%TO.N,RF_GND*%
%TO.C,U41*%
X64616250Y-55765000D03*
%TD*%
D14*
%TO.N,Net-(J6-Pin_1)*%
%TO.C,J6*%
X240750000Y-39875000D03*
D15*
%TO.N,DIG_GND*%
X243290000Y-39875000D03*
%TD*%
D11*
%TO.N,Net-(Q17-C)*%
%TO.C,SWLSB2*%
X221267141Y-108435000D03*
D12*
%TO.N,DIG_GND*%
X221267141Y-110975000D03*
%TO.N,Net-(Q19-C)*%
X221267141Y-113515000D03*
%TO.N,Net-(Q18-C)*%
X228887141Y-113515000D03*
%TO.N,DIG_GND*%
X228887141Y-110975000D03*
%TO.N,Net-(Q20-C)*%
X228887141Y-108435000D03*
%TD*%
D13*
%TO.N,RF_GND*%
%TO.C,U24*%
X99047141Y-106465000D03*
%TD*%
%TO.N,RF_GND*%
%TO.C,U23*%
X82047141Y-106515000D03*
%TD*%
%TO.N,RF_GND*%
%TO.C,U40*%
X47616250Y-55765000D03*
%TD*%
%TO.N,RF_GND*%
%TO.C,U2*%
X64820000Y-157290000D03*
%TD*%
%TO.N,RF_GND*%
%TO.C,U4*%
X98820000Y-157240000D03*
%TD*%
%TO.N,RF_GND*%
%TO.C,U1*%
X47820000Y-157290000D03*
%TD*%
D10*
%TO.N,RF_GND*%
%TO.C,U38*%
X174772141Y-106450000D03*
%TD*%
D13*
%TO.N,RF_GND*%
%TO.C,U21*%
X48047141Y-106515000D03*
%TD*%
%TO.N,RF_GND*%
%TO.C,U3*%
X81820000Y-157290000D03*
%TD*%
D10*
%TO.N,RF_GND*%
%TO.C,U8*%
X106820000Y-157240000D03*
%TD*%
D13*
%TO.N,RF_GND*%
%TO.C,U31*%
X116047141Y-106465000D03*
%TD*%
%TO.N,RF_GND*%
%TO.C,U12*%
X166552500Y-157225000D03*
%TD*%
D10*
%TO.N,RF_GND*%
%TO.C,U7*%
X89820000Y-157240000D03*
%TD*%
D16*
%TO.N,Net-(J6-Pin_1)*%
%TO.C,U58*%
X216500000Y-37875000D03*
D17*
%TO.N,DIG_GND*%
X213960000Y-37875000D03*
%TO.N,5v*%
X211420000Y-37875000D03*
%TD*%
D14*
%TO.N,5v*%
%TO.C,J4*%
X260290000Y-38335000D03*
D15*
%TO.N,/channel1/DIN*%
X260290000Y-40875000D03*
%TO.N,/channel1/RCLK*%
X257750000Y-38335000D03*
%TO.N,/channel1/CLK*%
X257750000Y-40875000D03*
%TO.N,/channel2/RCLK*%
X255210000Y-38335000D03*
%TO.N,/channel1/ENABLE*%
X255210000Y-40875000D03*
%TO.N,/channel3/RCLK*%
X252670000Y-38335000D03*
%TO.N,/channel1/RESET*%
X252670000Y-40875000D03*
%TO.N,DIG_GND*%
X250130000Y-38335000D03*
X250130000Y-40875000D03*
%TD*%
D13*
%TO.N,RF_GND*%
%TO.C,U34*%
X166779641Y-106450000D03*
%TD*%
D11*
%TO.N,Net-(Q9-C)*%
%TO.C,SWLSB1*%
X221040000Y-159210000D03*
D12*
%TO.N,DIG_GND*%
X221040000Y-161750000D03*
%TO.N,Net-(Q11-C)*%
X221040000Y-164290000D03*
%TO.N,Net-(Q10-C)*%
X228660000Y-164290000D03*
%TO.N,DIG_GND*%
X228660000Y-161750000D03*
%TO.N,Net-(Q12-C)*%
X228660000Y-159210000D03*
%TD*%
D13*
%TO.N,RF_GND*%
%TO.C,U53*%
X166348750Y-55700000D03*
%TD*%
D10*
%TO.N,RF_GND*%
%TO.C,U6*%
X72912500Y-157225000D03*
%TD*%
%TO.N,RF_GND*%
%TO.C,U47*%
X55616250Y-55765000D03*
%TD*%
D13*
%TO.N,RF_GND*%
%TO.C,U33*%
X150139641Y-106450000D03*
%TD*%
D10*
%TO.N,RF_GND*%
%TO.C,U5*%
X55820000Y-157290000D03*
%TD*%
D13*
%TO.N,RF_GND*%
%TO.C,U10*%
X132912500Y-157225000D03*
%TD*%
D10*
%TO.N,RF_GND*%
%TO.C,U27*%
X107047141Y-106465000D03*
%TD*%
%TO.N,RF_GND*%
%TO.C,U26*%
X90047141Y-106465000D03*
%TD*%
D13*
%TO.N,RF_GND*%
%TO.C,U22*%
X65047141Y-106515000D03*
%TD*%
%TO.N,RF_GND*%
%TO.C,U9*%
X115820000Y-157240000D03*
%TD*%
D11*
%TO.N,Net-(Q37-C)*%
%TO.C,SWMSB3*%
X221026250Y-67895000D03*
D12*
%TO.N,DIG_GND*%
X221026250Y-70435000D03*
%TO.N,Net-(Q39-C)*%
X221026250Y-72975000D03*
%TO.N,Net-(Q38-C)*%
X228646250Y-72975000D03*
%TO.N,DIG_GND*%
X228646250Y-70435000D03*
%TO.N,Net-(Q40-C)*%
X228646250Y-67895000D03*
%TD*%
D13*
%TO.N,RF_GND*%
%TO.C,U51*%
X132708750Y-55700000D03*
%TD*%
%TO.N,RF_GND*%
%TO.C,U43*%
X98616250Y-55715000D03*
%TD*%
D10*
%TO.N,RF_GND*%
%TO.C,U46*%
X106616250Y-55715000D03*
%TD*%
%TO.N,RF_GND*%
%TO.C,U55*%
X140848750Y-55700000D03*
%TD*%
%TO.N,RF_GND*%
%TO.C,U48*%
X72708750Y-55700000D03*
%TD*%
%TO.N,RF_GND*%
%TO.C,U35*%
X124122141Y-106450000D03*
%TD*%
%TO.N,RF_GND*%
%TO.C,U56*%
X157708750Y-55765000D03*
%TD*%
D18*
%TO.N,Net-(Q26-C)*%
X74459641Y-109240000D03*
X60959641Y-105490000D03*
%TO.N,Net-(U22-CTL1)*%
X76959641Y-108990000D03*
X61399641Y-103990000D03*
%TO.N,RF_GND*%
X116482500Y-169515000D03*
X136250000Y-48875000D03*
X187459641Y-124990000D03*
X51709641Y-112240000D03*
X137546250Y-60725000D03*
X103750000Y-187000000D03*
X75732500Y-173765000D03*
X52750000Y-39625000D03*
X136232500Y-167265000D03*
X58959641Y-111740000D03*
X69209641Y-111740000D03*
X136028750Y-59490000D03*
X33050000Y-186500000D03*
X177732500Y-162265000D03*
X75250000Y-42625000D03*
X31027141Y-136975000D03*
X103546250Y-77975000D03*
X154296250Y-85475000D03*
X194500000Y-65375000D03*
X87046250Y-88225000D03*
X34000000Y-45125000D03*
X101278750Y-60990000D03*
X121977141Y-126225000D03*
X189250000Y-190250000D03*
X171727141Y-131225000D03*
X118500000Y-51875000D03*
X189778750Y-61990000D03*
X190000000Y-171750000D03*
X41232500Y-175515000D03*
X132500000Y-45375000D03*
X178959641Y-115990000D03*
X151500000Y-92375000D03*
X189750000Y-187000000D03*
X130000000Y-42625000D03*
X118459641Y-120240000D03*
X171500000Y-182000000D03*
X66232500Y-169765000D03*
X34250000Y-38625000D03*
X137296250Y-70475000D03*
X200500000Y-124875000D03*
X87250000Y-181750000D03*
X171296250Y-77975000D03*
X147982500Y-165765000D03*
X51709641Y-132240000D03*
X200000000Y-81875000D03*
X154000000Y-101875000D03*
X137959641Y-116490000D03*
X137296250Y-85475000D03*
X48750000Y-185750000D03*
X193500000Y-39375000D03*
X41028750Y-68990000D03*
X86500000Y-39375000D03*
X154727141Y-128725000D03*
X171296250Y-88225000D03*
X200000000Y-85875000D03*
X27846250Y-86225000D03*
X189982500Y-163515000D03*
X55959641Y-114490000D03*
X146250000Y-39375000D03*
X54750000Y-45125000D03*
X79750000Y-39375000D03*
X100732500Y-160515000D03*
X103750000Y-179500000D03*
X97750000Y-36375000D03*
X125227141Y-115240000D03*
X98732500Y-164515000D03*
X41459641Y-114990000D03*
X200250000Y-55625000D03*
X101500000Y-39375000D03*
X73546250Y-77975000D03*
X142750000Y-36125000D03*
X171500000Y-189750000D03*
X167732500Y-162015000D03*
X105459641Y-109740000D03*
X103750000Y-173750000D03*
X124796250Y-64490000D03*
X144709641Y-114990000D03*
X121750000Y-179500000D03*
X190209641Y-112740000D03*
X164750000Y-98125000D03*
X154727141Y-136225000D03*
X137977141Y-111475000D03*
X200250000Y-149625000D03*
X83209641Y-109990000D03*
X171296250Y-75475000D03*
X90500000Y-48875000D03*
X183000000Y-50375000D03*
X136232500Y-161015000D03*
X154732500Y-165765000D03*
X179500000Y-101375000D03*
X187477141Y-131225000D03*
X170000000Y-36125000D03*
X109750000Y-45875000D03*
X181250000Y-52375000D03*
X194000000Y-147125000D03*
X136459641Y-116490000D03*
X172500000Y-39625000D03*
X127459641Y-116740000D03*
X82982500Y-160765000D03*
X187232500Y-175765000D03*
X189046250Y-88725000D03*
X102528750Y-58990000D03*
X33596250Y-73475000D03*
X190227141Y-97475000D03*
X137296250Y-72975000D03*
X190227141Y-120975000D03*
X112500000Y-36375000D03*
X51500000Y-189250000D03*
X73977141Y-130975000D03*
X98528750Y-59990000D03*
X121546250Y-75475000D03*
X154727141Y-131225000D03*
X140028750Y-59990000D03*
X137296250Y-80475000D03*
X171250000Y-49625000D03*
X166250000Y-39375000D03*
X187232500Y-169265000D03*
X75732500Y-164515000D03*
X190227141Y-107725000D03*
X86209641Y-109240000D03*
X63528750Y-60990000D03*
X56000000Y-42625000D03*
X128959641Y-121240000D03*
X98528750Y-62990000D03*
X187046250Y-80475000D03*
X159750000Y-39375000D03*
X33800000Y-175000000D03*
X187250000Y-156125000D03*
X151000000Y-49625000D03*
X154727141Y-133725000D03*
X116709641Y-118740000D03*
X88232500Y-167015000D03*
X177959641Y-111490000D03*
X146000000Y-51875000D03*
X184000000Y-92375000D03*
X117278750Y-60990000D03*
X103546250Y-75475000D03*
X80778750Y-72240000D03*
X189477141Y-139475000D03*
X164000000Y-42625000D03*
X108250000Y-51875000D03*
X140459641Y-110740000D03*
X171500000Y-184500000D03*
X103750000Y-182000000D03*
X93500000Y-39375000D03*
X187477141Y-133725000D03*
X38500000Y-45125000D03*
X140232500Y-161515000D03*
X111296250Y-62740000D03*
X174500000Y-102875000D03*
X120250000Y-36125000D03*
X137727141Y-123725000D03*
X101482500Y-162515000D03*
X51278750Y-81490000D03*
X111727141Y-113490000D03*
X187959641Y-112740000D03*
X156959641Y-112490000D03*
X67500000Y-48875000D03*
X128732500Y-172015000D03*
X103977141Y-122975000D03*
X119528750Y-59240000D03*
X171727141Y-138975000D03*
X144482500Y-165765000D03*
X91209641Y-122990000D03*
X41028750Y-78990000D03*
X87477141Y-128725000D03*
X86982500Y-162015000D03*
X137500000Y-179500000D03*
X33800000Y-178000000D03*
X154500000Y-177000000D03*
X125227141Y-118725000D03*
X139709641Y-117740000D03*
X200250000Y-71625000D03*
X194500000Y-108875000D03*
X90778750Y-72240000D03*
X98959641Y-113740000D03*
X187528750Y-61990000D03*
X51482500Y-178015000D03*
X102959641Y-109740000D03*
X51296250Y-85475000D03*
X156528750Y-68490000D03*
X189796250Y-46725000D03*
X130778750Y-70490000D03*
X134459641Y-114990000D03*
X63750000Y-39625000D03*
X177500000Y-49625000D03*
X116250000Y-39375000D03*
X174250000Y-96125000D03*
X189977141Y-136225000D03*
X191500000Y-36125000D03*
X51278750Y-76490000D03*
X194250000Y-60625000D03*
X43750000Y-40125000D03*
X73750000Y-184500000D03*
X103977141Y-131225000D03*
X43750000Y-42375000D03*
X187477141Y-128725000D03*
X54750000Y-48125000D03*
X73977141Y-133725000D03*
X41750000Y-39125000D03*
X194250000Y-115125000D03*
X90778750Y-62990000D03*
X42959641Y-109990000D03*
X149500000Y-95875000D03*
X93232500Y-167015000D03*
X87477141Y-130975000D03*
X127459641Y-113740000D03*
X80982500Y-173765000D03*
X67250000Y-36125000D03*
X105232500Y-160515000D03*
X189977141Y-131225000D03*
X51727141Y-136225000D03*
X51709641Y-127240000D03*
X158000000Y-49625000D03*
X34000000Y-42625000D03*
X121278750Y-60990000D03*
X177250000Y-98125000D03*
X137727141Y-138725000D03*
X73977141Y-128725000D03*
X112750000Y-42625000D03*
X139709641Y-112990000D03*
X83000000Y-42625000D03*
X113959641Y-111990000D03*
X187250000Y-187000000D03*
X178528750Y-70240000D03*
X189796250Y-51725000D03*
X137500000Y-187000000D03*
X103546250Y-80475000D03*
X71500000Y-45875000D03*
X154727141Y-138725000D03*
X172250000Y-42625000D03*
X190000000Y-148250000D03*
X79250000Y-45875000D03*
X171296250Y-82975000D03*
X154528750Y-64240000D03*
X139482500Y-168515000D03*
X73546250Y-82975000D03*
X73977141Y-138975000D03*
X160750000Y-96125000D03*
X137528750Y-65740000D03*
X84709641Y-111240000D03*
X194000000Y-55625000D03*
X125227141Y-111975000D03*
X200250000Y-93125000D03*
X200500000Y-98875000D03*
X121977141Y-138475000D03*
X87477141Y-126225000D03*
X51727141Y-138475000D03*
X187500000Y-42625000D03*
X194000000Y-93375000D03*
X187732500Y-163515000D03*
X137296250Y-75475000D03*
X41028750Y-64240000D03*
X91209641Y-113740000D03*
X119959641Y-109990000D03*
X154000000Y-51875000D03*
X48977141Y-134975000D03*
X200250000Y-154625000D03*
X149250000Y-98125000D03*
X190000000Y-158500000D03*
X80528750Y-62990000D03*
X51500000Y-187000000D03*
X98959641Y-110740000D03*
X190227141Y-102475000D03*
X62477141Y-128725000D03*
X125000000Y-166015000D03*
X121750000Y-186750000D03*
X200500000Y-134875000D03*
X137727141Y-121225000D03*
X189546250Y-85475000D03*
X75528750Y-62990000D03*
X90000000Y-42625000D03*
X87250000Y-189750000D03*
X200000000Y-60625000D03*
X137500000Y-182000000D03*
X171727141Y-133725000D03*
X180000000Y-155875000D03*
X200000000Y-65375000D03*
X134028750Y-61240000D03*
X103977141Y-136225000D03*
X118028750Y-69490000D03*
X121546250Y-82975000D03*
X73750000Y-189750000D03*
X190209641Y-125975000D03*
X63000000Y-42875000D03*
X180000000Y-107125000D03*
X61459641Y-118240000D03*
X129250000Y-36125000D03*
X75528750Y-72240000D03*
X187046250Y-82975000D03*
X51709641Y-122490000D03*
X87477141Y-138975000D03*
X78232500Y-167015000D03*
X137296250Y-77975000D03*
X83028750Y-65490000D03*
X31300000Y-173500000D03*
X156959641Y-119240000D03*
X171500000Y-187000000D03*
X136028750Y-65740000D03*
X142500000Y-42625000D03*
X93028750Y-65490000D03*
X111296250Y-65990000D03*
X124796250Y-61225000D03*
X127028750Y-62990000D03*
X98528750Y-67740000D03*
X180750000Y-157875000D03*
X187459641Y-118490000D03*
X167709641Y-123490000D03*
X33527141Y-132975000D03*
X115727141Y-109975000D03*
X107209641Y-110740000D03*
X187477141Y-136225000D03*
X116278750Y-67990000D03*
X59750000Y-45125000D03*
X137500000Y-184500000D03*
X153528750Y-60990000D03*
X158000000Y-92375000D03*
X117482500Y-162515000D03*
X136459641Y-110240000D03*
X154500000Y-96125000D03*
X153959641Y-111740000D03*
X78459641Y-116240000D03*
X84278750Y-60490000D03*
X139959641Y-115240000D03*
X55750000Y-36125000D03*
X41459641Y-129740000D03*
X151709641Y-110740000D03*
X160500000Y-51875000D03*
X194000000Y-50625000D03*
X134459641Y-111990000D03*
X194500000Y-76625000D03*
X72000000Y-51875000D03*
X58732500Y-162515000D03*
X156528750Y-61740000D03*
X144482500Y-172015000D03*
X151459641Y-112740000D03*
X149750000Y-36125000D03*
X87250000Y-187000000D03*
X174750000Y-36125000D03*
X154500000Y-187000000D03*
X134732500Y-168765000D03*
X121977141Y-123225000D03*
X189778750Y-75225000D03*
X125500000Y-45125000D03*
X178528750Y-65240000D03*
X83000000Y-36375000D03*
X120250000Y-42625000D03*
X28527141Y-122725000D03*
X85982500Y-160015000D03*
X137500000Y-172000000D03*
X62750000Y-50375000D03*
X194000000Y-45625000D03*
X104232500Y-167015000D03*
X122000000Y-48875000D03*
X103977141Y-126225000D03*
X171500000Y-177000000D03*
X137296250Y-87975000D03*
X134232500Y-162765000D03*
X123959641Y-109990000D03*
X84482500Y-162015000D03*
X41459641Y-134725000D03*
X106982500Y-161515000D03*
X59250000Y-48125000D03*
X87209641Y-111240000D03*
X55732500Y-165265000D03*
X86209641Y-122990000D03*
X33277141Y-135725000D03*
X123209641Y-120990000D03*
X169528750Y-66490000D03*
X164500000Y-92375000D03*
X124796250Y-67975000D03*
X86778750Y-60490000D03*
X71250000Y-39375000D03*
X41232500Y-180515000D03*
X115296250Y-59225000D03*
X200500000Y-108875000D03*
X75959641Y-122990000D03*
X181278750Y-58740000D03*
X121546250Y-72475000D03*
X112000000Y-51875000D03*
X34027141Y-127225000D03*
X169959641Y-117240000D03*
X154727141Y-126225000D03*
X42000000Y-50375000D03*
X85982500Y-173765000D03*
X86750000Y-45875000D03*
X187500000Y-39375000D03*
X73977141Y-136225000D03*
X178732500Y-166765000D03*
X134959641Y-117990000D03*
X177250000Y-39625000D03*
X189750000Y-182000000D03*
X137750000Y-162250000D03*
X139482500Y-163765000D03*
X151232500Y-163515000D03*
X97000000Y-42625000D03*
X88732500Y-160765000D03*
X137727141Y-128725000D03*
X114982500Y-171515000D03*
X85528750Y-62990000D03*
X90982500Y-164515000D03*
X87477141Y-136225000D03*
X154296250Y-75475000D03*
X178959641Y-120990000D03*
X121546250Y-85225000D03*
X187250000Y-184500000D03*
X171727141Y-126225000D03*
X121750000Y-177000000D03*
X187250000Y-179500000D03*
X156750000Y-36125000D03*
X103977141Y-133725000D03*
X93750000Y-45875000D03*
X41028750Y-83975000D03*
X136232500Y-164515000D03*
X151750000Y-98125000D03*
X187046250Y-77975000D03*
X73546250Y-85475000D03*
X121546250Y-80475000D03*
X128528750Y-70490000D03*
X109250000Y-39375000D03*
X181482500Y-160265000D03*
X73278750Y-65490000D03*
X58250000Y-39625000D03*
X28300000Y-173500000D03*
X136459641Y-113740000D03*
X182500000Y-39375000D03*
X194500000Y-140625000D03*
X177250000Y-42625000D03*
X154500000Y-174500000D03*
X178732500Y-171765000D03*
X192250000Y-154875000D03*
X200500000Y-103875000D03*
X197000000Y-41125000D03*
X194250000Y-98875000D03*
X160750000Y-101625000D03*
X78250000Y-51875000D03*
X172250000Y-45125000D03*
X62250000Y-179500000D03*
X137732500Y-167265000D03*
X116000000Y-45125000D03*
X121709641Y-111740000D03*
X171000000Y-98125000D03*
X98732500Y-169265000D03*
X103977141Y-138975000D03*
X194250000Y-134875000D03*
X144709641Y-123740000D03*
X34250000Y-49625000D03*
X156500000Y-42625000D03*
X154500000Y-182000000D03*
X113959641Y-118740000D03*
X103750000Y-184500000D03*
X73709641Y-116240000D03*
X139732500Y-166015000D03*
X134528750Y-67240000D03*
X186500000Y-96125000D03*
X115500000Y-160750000D03*
X127232500Y-167515000D03*
X187046250Y-85475000D03*
X82778750Y-59240000D03*
X127232500Y-164515000D03*
X180500000Y-56375000D03*
X121977141Y-133725000D03*
X50000000Y-36125000D03*
X100528750Y-58990000D03*
X187028750Y-74240000D03*
X98959641Y-118490000D03*
X181500000Y-96125000D03*
X137296250Y-82975000D03*
X51278750Y-66740000D03*
X70278750Y-68240000D03*
X104709641Y-111740000D03*
X68778750Y-60990000D03*
X154500000Y-184500000D03*
X73546250Y-88225000D03*
X134232500Y-165765000D03*
X41232500Y-165765000D03*
X85778750Y-58490000D03*
X106000000Y-48875000D03*
X92000000Y-51875000D03*
X154296250Y-72975000D03*
X33300000Y-183750000D03*
X167278750Y-72740000D03*
X121750000Y-182000000D03*
X47750000Y-45125000D03*
X104278750Y-60990000D03*
X87046250Y-85475000D03*
X144278750Y-70490000D03*
X136500000Y-36125000D03*
X41232500Y-170515000D03*
X197500000Y-143625000D03*
X154296250Y-82975000D03*
X171296250Y-80475000D03*
X31750000Y-51375000D03*
X41232500Y-185500000D03*
X171296250Y-85475000D03*
X174209641Y-109490000D03*
X51482500Y-173265000D03*
X103546250Y-88225000D03*
X63732500Y-162515000D03*
X179750000Y-54125000D03*
X144278750Y-64240000D03*
X83232500Y-167015000D03*
X74227141Y-126225000D03*
X157000000Y-98125000D03*
X151278750Y-59990000D03*
X28096250Y-71975000D03*
X106778750Y-59990000D03*
X103546250Y-82975000D03*
X51278750Y-61490000D03*
X137727141Y-136225000D03*
X194250000Y-129875000D03*
X85959641Y-113740000D03*
X28277141Y-136975000D03*
X96500000Y-48875000D03*
X187250000Y-182000000D03*
X75250000Y-36375000D03*
X121546250Y-87725000D03*
X129500000Y-48875000D03*
X60750000Y-36125000D03*
X150778750Y-66490000D03*
X113959641Y-115240000D03*
X120709641Y-118740000D03*
X147778750Y-64240000D03*
X81209641Y-122990000D03*
X131209641Y-121240000D03*
X200250000Y-50625000D03*
X121546250Y-77975000D03*
X190000000Y-153250000D03*
X47750000Y-42625000D03*
X105028750Y-58990000D03*
X200500000Y-119875000D03*
X57750000Y-50375000D03*
X75959641Y-113740000D03*
X169732500Y-168015000D03*
X101250000Y-51875000D03*
X48546250Y-84225000D03*
X167482500Y-174265000D03*
X85732500Y-164515000D03*
X41459641Y-124740000D03*
X104459641Y-116240000D03*
X87250000Y-184500000D03*
X136028750Y-62990000D03*
X103546250Y-72225000D03*
X63959641Y-111740000D03*
X42732500Y-160765000D03*
X34027141Y-124225000D03*
X179500000Y-36125000D03*
X194500000Y-87125000D03*
X121977141Y-131225000D03*
X67250000Y-42625000D03*
X194250000Y-103875000D03*
X51482500Y-183015000D03*
X111727141Y-116740000D03*
X123528750Y-59240000D03*
X73546250Y-80225000D03*
X87250000Y-179500000D03*
X51709641Y-117490000D03*
X75250000Y-48875000D03*
X51278750Y-71740000D03*
X144278750Y-68240000D03*
X88959641Y-109990000D03*
X28250000Y-36375000D03*
X200000000Y-45625000D03*
X154296250Y-87975000D03*
X164500000Y-49625000D03*
X33596250Y-76475000D03*
X153732500Y-162515000D03*
X55528750Y-63740000D03*
X171500000Y-92375000D03*
X146000000Y-47375000D03*
X144709641Y-121240000D03*
X121977141Y-128725000D03*
X126000000Y-51875000D03*
X181709641Y-109490000D03*
X144709641Y-118990000D03*
X61028750Y-67490000D03*
X90000000Y-36375000D03*
X194250000Y-124875000D03*
X102732500Y-160515000D03*
X194500000Y-152125000D03*
X105250000Y-42625000D03*
X200500000Y-129875000D03*
X113732500Y-166015000D03*
X197750000Y-115125000D03*
X66028750Y-68240000D03*
X137500000Y-189500000D03*
X142250000Y-48875000D03*
X154500000Y-179500000D03*
X133500000Y-51875000D03*
X87046250Y-75475000D03*
X154959641Y-114990000D03*
X80959641Y-113740000D03*
X68982500Y-162515000D03*
X156732500Y-163265000D03*
X151209641Y-117240000D03*
X33096250Y-82225000D03*
X31750000Y-36375000D03*
X153750000Y-39375000D03*
X73750000Y-181750000D03*
X87046250Y-80225000D03*
X120482500Y-169515000D03*
X120278750Y-67990000D03*
X111500000Y-167515000D03*
X87250000Y-177000000D03*
X125000000Y-162750000D03*
X171727141Y-136225000D03*
X118232500Y-171015000D03*
X137500000Y-177000000D03*
X178000000Y-92375000D03*
X177528750Y-60740000D03*
X104482500Y-162515000D03*
X173982500Y-160265000D03*
X103546250Y-85475000D03*
X194500000Y-119875000D03*
X194500000Y-71625000D03*
X105250000Y-36375000D03*
X150982500Y-168015000D03*
X134028750Y-64240000D03*
X163250000Y-36125000D03*
X83459641Y-116240000D03*
X103750000Y-177000000D03*
X87046250Y-82975000D03*
X137727141Y-131225000D03*
X183500000Y-101625000D03*
X87046250Y-77975000D03*
X51482500Y-163015000D03*
X195000000Y-157125000D03*
X85778750Y-72240000D03*
X139500000Y-51875000D03*
X154296250Y-80475000D03*
X136250000Y-42625000D03*
X200000000Y-76625000D03*
X113528750Y-67990000D03*
X171500000Y-179500000D03*
X151482500Y-161515000D03*
X117709641Y-111740000D03*
X189546250Y-80475000D03*
X148209641Y-114990000D03*
X43750000Y-45125000D03*
X31096250Y-71975000D03*
X168500000Y-42625000D03*
X121750000Y-174000000D03*
X51250000Y-50375000D03*
X101709641Y-111740000D03*
X189796250Y-70225000D03*
X183500000Y-105125000D03*
X167959641Y-111240000D03*
X174750000Y-52125000D03*
X73750000Y-179500000D03*
X121482500Y-162515000D03*
X144278750Y-72990000D03*
X125250000Y-39375000D03*
X38500000Y-42875000D03*
X121750000Y-184500000D03*
X139278750Y-62240000D03*
X66750000Y-51875000D03*
X137500000Y-174500000D03*
X171727141Y-128725000D03*
X103977141Y-128725000D03*
X115209641Y-120740000D03*
X31527141Y-122725000D03*
X151028750Y-61990000D03*
X41028750Y-73990000D03*
X104028750Y-65490000D03*
X182250000Y-42375000D03*
X51296250Y-87725000D03*
X78028750Y-65490000D03*
X133250000Y-39375000D03*
X168250000Y-52125000D03*
X73482500Y-167015000D03*
X173778750Y-58740000D03*
X137727141Y-126225000D03*
X139278750Y-66990000D03*
X123732500Y-160765000D03*
X87000000Y-51875000D03*
X125000000Y-169500000D03*
X113528750Y-61240000D03*
X121977141Y-135975000D03*
X119732500Y-160765000D03*
X90982500Y-173765000D03*
X139528750Y-64490000D03*
X73796250Y-75475000D03*
X28050000Y-187750000D03*
X122778750Y-70240000D03*
X167500000Y-102875000D03*
X73750000Y-187000000D03*
X189796250Y-56975000D03*
X154296250Y-77975000D03*
X189982500Y-176750000D03*
X137727141Y-133725000D03*
X40750000Y-46375000D03*
X74000000Y-177000000D03*
X111500000Y-164265000D03*
X41459641Y-119740000D03*
X144482500Y-174515000D03*
X121750000Y-189250000D03*
X28250000Y-51375000D03*
X70709641Y-118990000D03*
X113732500Y-169515000D03*
X87477141Y-133725000D03*
X62046250Y-77975000D03*
X43750000Y-36625000D03*
X156732500Y-170015000D03*
X168250000Y-96125000D03*
X185000000Y-36125000D03*
X93459641Y-116240000D03*
X127028750Y-65990000D03*
X51250000Y-48125000D03*
X113528750Y-64490000D03*
X167528750Y-60490000D03*
X103750000Y-189750000D03*
X114778750Y-69990000D03*
X66459641Y-118990000D03*
X114250000Y-48875000D03*
X122982500Y-171765000D03*
X40750000Y-41125000D03*
X30800000Y-187750000D03*
X80732500Y-164515000D03*
X32846250Y-84975000D03*
X64000000Y-45875000D03*
X98732500Y-161515000D03*
X70482500Y-169765000D03*
X61232500Y-169015000D03*
X88528750Y-59240000D03*
X180000000Y-105125000D03*
X187028750Y-67740000D03*
X139500000Y-39375000D03*
X100959641Y-109740000D03*
X58528750Y-60990000D03*
X101500000Y-45875000D03*
X83000000Y-48875000D03*
X113732500Y-162765000D03*
X88028750Y-65490000D03*
X30596250Y-86225000D03*
X43750000Y-47875000D03*
X194500000Y-81875000D03*
X154727141Y-123725000D03*
X149750000Y-42625000D03*
X51482500Y-168265000D03*
X154500000Y-189500000D03*
X88459641Y-116240000D03*
X42528750Y-59240000D03*
X130982500Y-172015000D03*
X144482500Y-169765000D03*
%TO.N,Net-(Q30-C)*%
X143477141Y-109225000D03*
X128977141Y-105475000D03*
%TO.N,Net-(U32-CTL1)*%
X130977141Y-103725000D03*
X144977141Y-108975000D03*
%TO.N,Net-(Q7-C)*%
X160250000Y-159750000D03*
X145754920Y-156218023D03*
%TO.N,Net-(U11-CTL1)*%
X147750000Y-154500000D03*
X161750000Y-159750000D03*
%TO.N,DIG_GND*%
X254000000Y-172875000D03*
X238600000Y-180500000D03*
X238646250Y-63225000D03*
X238396250Y-68975000D03*
X238600000Y-185500000D03*
X254250000Y-71375000D03*
X238396250Y-83975000D03*
X238896250Y-57975000D03*
X239100000Y-149500000D03*
X238850000Y-164750000D03*
X239100000Y-154250000D03*
X238827141Y-119725000D03*
X250646250Y-59475000D03*
X239327141Y-98725000D03*
X250850000Y-161000000D03*
X239327141Y-103475000D03*
X254000000Y-122125000D03*
X251077141Y-110225000D03*
X238827141Y-124475000D03*
X238896250Y-47975000D03*
X238827141Y-134725000D03*
X239327141Y-108725000D03*
X238827141Y-129725000D03*
X239100000Y-159500000D03*
X238600000Y-170500000D03*
X238396250Y-78975000D03*
X238396250Y-73725000D03*
X239077141Y-113975000D03*
X238600000Y-175250000D03*
X238896250Y-52725000D03*
%TO.N,Net-(Q14-C)*%
X218350000Y-177000000D03*
%TO.N,Net-(Q16-C)*%
X230850000Y-187000000D03*
X231600000Y-169500000D03*
%TO.N,Net-(Q35-C)*%
X216896250Y-56975000D03*
X230396250Y-54225000D03*
%TO.N,Net-(Q34-C)*%
X219646250Y-51725000D03*
X230896250Y-51725000D03*
%TO.N,Net-(U52-CTL1)*%
X147546250Y-52975000D03*
X161546250Y-58225000D03*
%TO.N,Net-(Q47-C)*%
X145551170Y-54693023D03*
X160046250Y-58225000D03*
%TO.N,Net-(Q25-C)*%
X57209641Y-108990000D03*
X43959641Y-106240000D03*
%TO.N,Net-(U21-CTL1)*%
X59709641Y-108740000D03*
X37977141Y-103975000D03*
X44459641Y-103990000D03*
%TO.N,Net-(Q31-C)*%
X145982061Y-105443023D03*
X160477141Y-108975000D03*
%TO.N,Net-(U33-CTL1)*%
X161977141Y-108975000D03*
X147977141Y-103725000D03*
%TO.N,Net-(U42-CTL1)*%
X79528750Y-53240000D03*
X93278750Y-57990000D03*
%TO.N,Net-(Q43-C)*%
X91778750Y-58740000D03*
X77528750Y-54740000D03*
%TO.N,Net-(Q22-C)*%
X218577141Y-126225000D03*
%TO.N,Net-(Q24-C)*%
X231077141Y-136225000D03*
X231827141Y-118725000D03*
%TO.N,Net-(Q6-C)*%
X128750000Y-156250000D03*
X143250000Y-160000000D03*
%TO.N,Net-(U10-CTL1)*%
X130750000Y-154500000D03*
X144750000Y-159750000D03*
%TO.N,Net-(Q45-C)*%
X125796250Y-57975000D03*
X111546250Y-54725000D03*
%TO.N,Net-(U50-CTL1)*%
X189556250Y-59465000D03*
X113546250Y-52975000D03*
X127546250Y-58225000D03*
%TO.N,Net-(Q5-C)*%
X111750000Y-156250000D03*
X126000000Y-159500000D03*
%TO.N,Net-(U13-CTL2)*%
X127750000Y-159750000D03*
X113750000Y-154500000D03*
X147500000Y-151250000D03*
%TO.N,Net-(Q8-C)*%
X176750000Y-160000000D03*
X162750000Y-156250000D03*
%TO.N,Net-(U12-CTL1)*%
X180750000Y-176250000D03*
X178500000Y-160000000D03*
X184000000Y-176250000D03*
X164500000Y-154500000D03*
%TO.N,Net-(Q48-C)*%
X162546250Y-54725000D03*
X176546250Y-58475000D03*
%TO.N,Net-(U53-CTL1)*%
X178296250Y-58475000D03*
X180546250Y-74725000D03*
X164296250Y-52975000D03*
X183796250Y-74725000D03*
%TO.N,Net-(U41-CTL1)*%
X60968750Y-53240000D03*
X76528750Y-58240000D03*
%TO.N,Net-(Q42-C)*%
X74028750Y-58490000D03*
X60528750Y-54740000D03*
%TO.N,Net-(Q19-C)*%
X217327141Y-107725000D03*
X230827141Y-104975000D03*
%TO.N,Net-(Q18-C)*%
X231327141Y-102475000D03*
X220077141Y-102475000D03*
%TO.N,Net-(U24-CTL1)*%
X96977141Y-103975000D03*
X110727141Y-108975000D03*
%TO.N,Net-(Q28-C)*%
X109227141Y-109975000D03*
X94727141Y-105475000D03*
%TO.N,Net-(U23-CTL1)*%
X93709641Y-108740000D03*
X79959641Y-103990000D03*
%TO.N,Net-(Q27-C)*%
X77959641Y-105490000D03*
X92209641Y-109490000D03*
%TO.N,Net-(U40-CTL1)*%
X59278750Y-57990000D03*
X37546250Y-53225000D03*
X44028750Y-53240000D03*
%TO.N,Net-(Q41-C)*%
X43528750Y-55490000D03*
X56778750Y-58240000D03*
%TO.N,Net-(U2-CTL1)*%
X61172500Y-154765000D03*
X76732500Y-159765000D03*
%TO.N,Net-(Q2-C)*%
X60732500Y-156265000D03*
X74232500Y-160015000D03*
%TO.N,Net-(U4-CTL1)*%
X110500000Y-159750000D03*
X96750000Y-154750000D03*
%TO.N,Net-(Q4-C)*%
X109000000Y-160750000D03*
X94500000Y-156250000D03*
%TO.N,Net-(U1-CTL1)*%
X37750000Y-154750000D03*
X44232500Y-154765000D03*
X59482500Y-159515000D03*
%TO.N,Net-(Q1-C)*%
X43732500Y-157015000D03*
X56982500Y-159765000D03*
%TO.N,Net-(Q32-C)*%
X176977141Y-109225000D03*
X162977141Y-105475000D03*
%TO.N,Net-(U34-CTL1)*%
X178727141Y-109225000D03*
X180977141Y-125475000D03*
X184227141Y-125475000D03*
X164727141Y-103725000D03*
%TO.N,Net-(U3-CTL1)*%
X93482500Y-159515000D03*
X79732500Y-154765000D03*
%TO.N,Net-(Q3-C)*%
X77732500Y-156265000D03*
X91982500Y-160265000D03*
%TO.N,Net-(U31-CTL1)*%
X113977141Y-103725000D03*
X127977141Y-108975000D03*
X147727141Y-100475000D03*
%TO.N,Net-(Q29-C)*%
X111977141Y-105475000D03*
X126227141Y-108725000D03*
%TO.N,/channel1/DIN*%
X266000000Y-167350000D03*
%TO.N,/channel1/CLK*%
X263000000Y-163625000D03*
X263250000Y-62125000D03*
X263250000Y-112875000D03*
%TO.N,/channel2/RCLK*%
X266800000Y-113925000D03*
%TO.N,/channel1/ENABLE*%
X261750000Y-49875000D03*
X261750000Y-166125000D03*
X261750000Y-115375000D03*
X261750000Y-64375000D03*
%TO.N,/channel3/RCLK*%
X260500000Y-63375000D03*
%TO.N,/channel1/RESET*%
X264500000Y-111625000D03*
X264500000Y-60875000D03*
X264500000Y-162125000D03*
%TO.N,Net-(Q11-C)*%
X217100000Y-158500000D03*
X230600000Y-155750000D03*
%TO.N,Net-(Q10-C)*%
X231100000Y-153250000D03*
X219850000Y-153250000D03*
%TO.N,Net-(Q38-C)*%
X218146250Y-75475000D03*
%TO.N,Net-(Q40-C)*%
X231396250Y-67975000D03*
X230646250Y-85475000D03*
%TO.N,Net-(U51-CTL1)*%
X130546250Y-52975000D03*
X144546250Y-58225000D03*
%TO.N,Net-(Q46-C)*%
X143046250Y-58475000D03*
X128546250Y-54725000D03*
%TO.N,Net-(U43-CTL1)*%
X96546250Y-53225000D03*
X110296250Y-58225000D03*
%TO.N,Net-(Q44-C)*%
X108796250Y-59225000D03*
X94296250Y-54725000D03*
%TO.N,Net-(U20-QD)*%
X244577141Y-111975000D03*
X246827141Y-111975000D03*
%TO.N,Net-(U20-QE)*%
X244827141Y-117725000D03*
X248077141Y-115475000D03*
%TO.N,Net-(U20-QF)*%
X249077141Y-114225000D03*
X248577141Y-122725000D03*
%TO.N,Net-(U20-QG)*%
X250077141Y-112725000D03*
X250077141Y-127725000D03*
%TO.N,Net-(U20-QH)*%
X251077141Y-111725000D03*
X250577141Y-132725000D03*
%TO.N,Net-(C1-Pad1)*%
X179750000Y-189500000D03*
X186500000Y-189500000D03*
%TO.N,Net-(C4-Pad1)*%
X179977141Y-138725000D03*
X186727141Y-138725000D03*
%TO.N,Net-(C6-Pad1)*%
X179546250Y-87975000D03*
X186296250Y-87975000D03*
%TO.N,Net-(U19-QD)*%
X244350000Y-162750000D03*
X246600000Y-162750000D03*
%TO.N,Net-(U39-QD)*%
X244146250Y-61225000D03*
X246396250Y-61225000D03*
%TO.N,Net-(U39-QE)*%
X247646250Y-64725000D03*
X244396250Y-66975000D03*
%TO.N,Net-(U39-QF)*%
X248146250Y-71975000D03*
X248646250Y-63475000D03*
%TO.N,Net-(U39-QG)*%
X249646250Y-76975000D03*
X249646250Y-61975000D03*
%TO.N,Net-(U39-QH)*%
X250146250Y-81975000D03*
X250646250Y-60975000D03*
%TO.N,Net-(U19-QF)*%
X248850000Y-165000000D03*
X248350000Y-173500000D03*
%TO.N,Net-(U19-QG)*%
X249850000Y-163500000D03*
X249850000Y-178500000D03*
%TO.N,Net-(U19-QE)*%
X244600000Y-168500000D03*
X247850000Y-166250000D03*
%TO.N,Net-(U19-QH)*%
X250350000Y-183500000D03*
X250850000Y-162500000D03*
%TD*%
%TO.N,DIG_GND*%
D19*
X239077141Y-113975000D02*
X239077141Y-108975000D01*
X225327141Y-110975000D02*
X221267141Y-110975000D01*
X249577141Y-108725000D02*
X239327141Y-108725000D01*
X224646250Y-60475000D02*
X224896250Y-60225000D01*
X225100000Y-161750000D02*
X221040000Y-161750000D01*
X238896250Y-52725000D02*
X238896250Y-47975000D01*
X238600000Y-185500000D02*
X238600000Y-180500000D01*
X225327141Y-115975000D02*
X225077141Y-115725000D01*
X238600000Y-165000000D02*
X238850000Y-164750000D01*
X225100000Y-161750000D02*
X228660000Y-161750000D01*
X228850000Y-171960000D02*
X224850000Y-171960000D01*
X238396250Y-63475000D02*
X238646250Y-63225000D01*
X249350000Y-159500000D02*
X239100000Y-159500000D01*
X254577141Y-108475000D02*
X254327141Y-108725000D01*
X224896250Y-60225000D02*
X228456250Y-60225000D01*
X254146250Y-57725000D02*
X253896250Y-57975000D01*
X254350000Y-159250000D02*
X254100000Y-159500000D01*
X238827141Y-115975000D02*
X225327141Y-115975000D01*
X239077141Y-108975000D02*
X239327141Y-108725000D01*
X239327141Y-108725000D02*
X239327141Y-103475000D01*
X225077141Y-111225000D02*
X225327141Y-110975000D01*
X225077141Y-121185000D02*
X225077141Y-115725000D01*
X238396250Y-78975000D02*
X238396250Y-73725000D01*
X224646250Y-70435000D02*
X224646250Y-64975000D01*
X224850000Y-171960000D02*
X224850000Y-166500000D01*
X238850000Y-159750000D02*
X239100000Y-159500000D01*
X238646250Y-58225000D02*
X238896250Y-57975000D01*
X256146250Y-59725000D02*
X254146250Y-57725000D01*
X238600000Y-180500000D02*
X238600000Y-175250000D01*
X224896250Y-65225000D02*
X224646250Y-64975000D01*
X238850000Y-164750000D02*
X238850000Y-159750000D01*
X251077141Y-110225000D02*
X249577141Y-108725000D01*
X254327141Y-108725000D02*
X249577141Y-108725000D01*
X224850000Y-171960000D02*
X221230000Y-171960000D01*
X225100000Y-166750000D02*
X224850000Y-166500000D01*
X238827141Y-114225000D02*
X239077141Y-113975000D01*
X238827141Y-119725000D02*
X238827141Y-115975000D01*
X238827141Y-124475000D02*
X238827141Y-119725000D01*
X224646250Y-64975000D02*
X224646250Y-60475000D01*
X238600000Y-166750000D02*
X225100000Y-166750000D01*
X256577141Y-122225000D02*
X256577141Y-110475000D01*
X225077141Y-115725000D02*
X225077141Y-111225000D01*
X224896250Y-60225000D02*
X220836250Y-60225000D01*
X256146250Y-71475000D02*
X256146250Y-59725000D01*
X225077141Y-121185000D02*
X221457141Y-121185000D01*
X228646250Y-70435000D02*
X224646250Y-70435000D01*
X224646250Y-70435000D02*
X221026250Y-70435000D01*
X224850000Y-162000000D02*
X225100000Y-161750000D01*
X238827141Y-134725000D02*
X238827141Y-129725000D01*
X249146250Y-57975000D02*
X238896250Y-57975000D01*
X238396250Y-65225000D02*
X238396250Y-63475000D01*
X224850000Y-166500000D02*
X224850000Y-162000000D01*
X238827141Y-129725000D02*
X238827141Y-124475000D01*
X238396250Y-68975000D02*
X238396250Y-65225000D01*
X239100000Y-159500000D02*
X239100000Y-154250000D01*
X256350000Y-173000000D02*
X256350000Y-161250000D01*
X239100000Y-154250000D02*
X239100000Y-149500000D01*
X239327141Y-103475000D02*
X239327141Y-98725000D01*
X238827141Y-115975000D02*
X238827141Y-114225000D01*
X229077141Y-121185000D02*
X225077141Y-121185000D01*
X218686250Y-70435000D02*
X218646250Y-70475000D01*
X238600000Y-175250000D02*
X238600000Y-170500000D01*
X238646250Y-63225000D02*
X238646250Y-58225000D01*
X256577141Y-110475000D02*
X254577141Y-108475000D01*
X238396250Y-83975000D02*
X238396250Y-78975000D01*
X238396250Y-73725000D02*
X238396250Y-68975000D01*
X250646250Y-59475000D02*
X249146250Y-57975000D01*
X256350000Y-161250000D02*
X254350000Y-159250000D01*
X238396250Y-65225000D02*
X224896250Y-65225000D01*
X225327141Y-110975000D02*
X228887141Y-110975000D01*
X253896250Y-57975000D02*
X249146250Y-57975000D01*
X254100000Y-159500000D02*
X249350000Y-159500000D01*
X250850000Y-161000000D02*
X249350000Y-159500000D01*
X238600000Y-170500000D02*
X238600000Y-166750000D01*
X238896250Y-57975000D02*
X238896250Y-52725000D01*
X238600000Y-166750000D02*
X238600000Y-165000000D01*
%TO.N,Net-(Q14-C)*%
D20*
X218350000Y-177000000D02*
X226350000Y-177000000D01*
X226350000Y-177000000D02*
X228850000Y-174500000D01*
%TO.N,Net-(Q16-C)*%
X231600000Y-169500000D02*
X231600000Y-186250000D01*
X231600000Y-186250000D02*
X230850000Y-187000000D01*
%TO.N,Net-(Q35-C)*%
X230396250Y-54225000D02*
X219646250Y-54225000D01*
X219646250Y-54225000D02*
X216896250Y-56975000D01*
%TO.N,Net-(Q34-C)*%
X232646250Y-60725000D02*
X232646250Y-53475000D01*
X228456250Y-62765000D02*
X230606250Y-62765000D01*
X230896250Y-51725000D02*
X219646250Y-51725000D01*
X230606250Y-62765000D02*
X232646250Y-60725000D01*
X232646250Y-53475000D02*
X230946250Y-51775000D01*
X230946250Y-51775000D02*
X230896250Y-51725000D01*
%TO.N,Net-(U21-CTL1)*%
X37977141Y-103975000D02*
X44444641Y-103975000D01*
X44444641Y-103975000D02*
X44459641Y-103990000D01*
%TO.N,Net-(Q22-C)*%
X226577141Y-126225000D02*
X229077141Y-123725000D01*
X218577141Y-126225000D02*
X226577141Y-126225000D01*
%TO.N,Net-(Q24-C)*%
X231827141Y-118725000D02*
X231827141Y-135475000D01*
X231827141Y-135475000D02*
X231077141Y-136225000D01*
%TO.N,Net-(U50-CTL1)*%
X189556250Y-59181250D02*
X189556250Y-59465000D01*
X181000000Y-50625000D02*
X189556250Y-59181250D01*
X115250000Y-50625000D02*
X181000000Y-50625000D01*
X113546250Y-52975000D02*
X113546250Y-52328750D01*
X113546250Y-52328750D02*
X115250000Y-50625000D01*
%TO.N,Net-(U13-CTL2)*%
X147500000Y-151250000D02*
X115000000Y-151250000D01*
X113750000Y-152500000D02*
X113750000Y-154500000D01*
X115000000Y-151250000D02*
X113750000Y-152500000D01*
%TO.N,Net-(U12-CTL1)*%
X180750000Y-176250000D02*
X184000000Y-176250000D01*
%TO.N,Net-(U53-CTL1)*%
X180546250Y-74725000D02*
X183796250Y-74725000D01*
%TO.N,Net-(Q19-C)*%
X230827141Y-104975000D02*
X220077141Y-104975000D01*
X220077141Y-104975000D02*
X217327141Y-107725000D01*
%TO.N,Net-(Q18-C)*%
X228887141Y-113515000D02*
X231037141Y-113515000D01*
X231037141Y-113515000D02*
X233077141Y-111475000D01*
X231327141Y-102475000D02*
X220077141Y-102475000D01*
X231377141Y-102525000D02*
X231327141Y-102475000D01*
X233077141Y-111475000D02*
X233077141Y-104225000D01*
X233077141Y-104225000D02*
X231377141Y-102525000D01*
%TO.N,Net-(U40-CTL1)*%
X44013750Y-53225000D02*
X44028750Y-53240000D01*
X37546250Y-53225000D02*
X44013750Y-53225000D01*
%TO.N,Net-(U1-CTL1)*%
X37750000Y-154750000D02*
X44217500Y-154750000D01*
X44217500Y-154750000D02*
X44232500Y-154765000D01*
%TO.N,Net-(U34-CTL1)*%
X180977141Y-125475000D02*
X184227141Y-125475000D01*
%TO.N,Net-(U31-CTL1)*%
X115227141Y-100475000D02*
X113977141Y-101725000D01*
X113977141Y-101725000D02*
X113977141Y-103725000D01*
X147727141Y-100475000D02*
X115227141Y-100475000D01*
%TO.N,Net-(Q11-C)*%
X219850000Y-155750000D02*
X217100000Y-158500000D01*
X230600000Y-155750000D02*
X219850000Y-155750000D01*
%TO.N,Net-(Q10-C)*%
X232850000Y-162250000D02*
X232850000Y-155000000D01*
X231150000Y-153300000D02*
X231100000Y-153250000D01*
X230810000Y-164290000D02*
X232850000Y-162250000D01*
X232850000Y-155000000D02*
X231150000Y-153300000D01*
X228660000Y-164290000D02*
X230810000Y-164290000D01*
X231100000Y-153250000D02*
X219850000Y-153250000D01*
%TO.N,Net-(Q38-C)*%
X218146250Y-75475000D02*
X226146250Y-75475000D01*
X226146250Y-75475000D02*
X228646250Y-72975000D01*
%TO.N,Net-(Q40-C)*%
X231396250Y-84725000D02*
X230646250Y-85475000D01*
X231396250Y-67975000D02*
X231396250Y-84725000D01*
%TO.N,Net-(U20-QD)*%
X246827141Y-111975000D02*
X244577141Y-111975000D01*
%TO.N,Net-(U20-QE)*%
X248077141Y-115475000D02*
X245827141Y-117725000D01*
X245827141Y-117725000D02*
X244827141Y-117725000D01*
%TO.N,Net-(U20-QF)*%
X249077141Y-114225000D02*
X249077141Y-122225000D01*
X249077141Y-122225000D02*
X248577141Y-122725000D01*
%TO.N,Net-(U20-QG)*%
X250077141Y-112725000D02*
X250077141Y-127725000D01*
%TO.N,Net-(U20-QH)*%
X251077141Y-132225000D02*
X250577141Y-132725000D01*
X251077141Y-111725000D02*
X251077141Y-132225000D01*
%TO.N,Net-(C1-Pad1)*%
D19*
X186500000Y-189500000D02*
X179750000Y-189500000D01*
%TO.N,Net-(C4-Pad1)*%
X186727141Y-138725000D02*
X179977141Y-138725000D01*
%TO.N,Net-(C6-Pad1)*%
X186296250Y-87975000D02*
X179546250Y-87975000D01*
%TO.N,Net-(U19-QD)*%
D20*
X246600000Y-162750000D02*
X244350000Y-162750000D01*
%TO.N,Net-(U39-QD)*%
X246396250Y-61225000D02*
X244146250Y-61225000D01*
%TO.N,Net-(U39-QE)*%
X247646250Y-64725000D02*
X245396250Y-66975000D01*
X245396250Y-66975000D02*
X244396250Y-66975000D01*
%TO.N,Net-(U39-QF)*%
X248646250Y-63475000D02*
X248646250Y-71475000D01*
X248646250Y-71475000D02*
X248146250Y-71975000D01*
%TO.N,Net-(U39-QG)*%
X249646250Y-61975000D02*
X249646250Y-76975000D01*
%TO.N,Net-(U39-QH)*%
X250646250Y-81475000D02*
X250146250Y-81975000D01*
X250646250Y-60975000D02*
X250646250Y-81475000D01*
%TO.N,Net-(U19-QF)*%
X248850000Y-165000000D02*
X248850000Y-173000000D01*
X248850000Y-173000000D02*
X248350000Y-173500000D01*
%TO.N,Net-(U19-QG)*%
X249850000Y-163500000D02*
X249850000Y-178500000D01*
%TO.N,Net-(U19-QE)*%
X247850000Y-166250000D02*
X245600000Y-168500000D01*
X245600000Y-168500000D02*
X244600000Y-168500000D01*
%TO.N,Net-(U19-QH)*%
X250850000Y-183000000D02*
X250350000Y-183500000D01*
X250850000Y-162500000D02*
X250850000Y-183000000D01*
%TD*%
%TA.AperFunction,Conductor*%
%TO.N,DIG_GND*%
G36*
X266442840Y-35644685D02*
G01*
X266488595Y-35697489D01*
X266499801Y-35749198D01*
X266375196Y-113626751D01*
X266358585Y-113688550D01*
X266333609Y-113731811D01*
X266333608Y-113731814D01*
X266299500Y-113859108D01*
X266299500Y-113990892D01*
X266310465Y-114031812D01*
X266333608Y-114118185D01*
X266333608Y-114118186D01*
X266357632Y-114159797D01*
X266374244Y-114221994D01*
X266290201Y-166748201D01*
X266270409Y-166815209D01*
X266217532Y-166860880D01*
X266148358Y-166870712D01*
X266134109Y-166867778D01*
X266065893Y-166849500D01*
X266065892Y-166849500D01*
X265934108Y-166849500D01*
X265806812Y-166883608D01*
X265692686Y-166949500D01*
X265692683Y-166949502D01*
X265599502Y-167042683D01*
X265599500Y-167042686D01*
X265533608Y-167156812D01*
X265499500Y-167284108D01*
X265499500Y-167415891D01*
X265533608Y-167543187D01*
X265566554Y-167600250D01*
X265599500Y-167657314D01*
X265692686Y-167750500D01*
X265806814Y-167816392D01*
X265934108Y-167850500D01*
X265934110Y-167850500D01*
X266065889Y-167850500D01*
X266065892Y-167850500D01*
X266132184Y-167832737D01*
X266202030Y-167834400D01*
X266259892Y-167873562D01*
X266287397Y-167937790D01*
X266288274Y-167952710D01*
X266250198Y-191751198D01*
X266230406Y-191818206D01*
X266177529Y-191863877D01*
X266126198Y-191875000D01*
X203124000Y-191875000D01*
X203056961Y-191855315D01*
X203011206Y-191802511D01*
X203000000Y-191751000D01*
X203000000Y-186934108D01*
X230349500Y-186934108D01*
X230349500Y-187065891D01*
X230383608Y-187193187D01*
X230416554Y-187250250D01*
X230449500Y-187307314D01*
X230542686Y-187400500D01*
X230656814Y-187466392D01*
X230784108Y-187500500D01*
X230784110Y-187500500D01*
X230915890Y-187500500D01*
X230915892Y-187500500D01*
X231043186Y-187466392D01*
X231157314Y-187400500D01*
X231250500Y-187307314D01*
X231316392Y-187193186D01*
X231347077Y-187078663D01*
X231379168Y-187023081D01*
X231829563Y-186572685D01*
X231829568Y-186572682D01*
X231839771Y-186562478D01*
X231839773Y-186562478D01*
X231912478Y-186489773D01*
X231963888Y-186400728D01*
X231990500Y-186301410D01*
X231990500Y-169857860D01*
X232007112Y-169795860D01*
X232066392Y-169693186D01*
X232100500Y-169565892D01*
X232100500Y-169434108D01*
X232066392Y-169306814D01*
X232000500Y-169192686D01*
X231907314Y-169099500D01*
X231850250Y-169066554D01*
X231793187Y-169033608D01*
X231729539Y-169016554D01*
X231665892Y-168999500D01*
X231534108Y-168999500D01*
X231406812Y-169033608D01*
X231292686Y-169099500D01*
X231292683Y-169099502D01*
X231199502Y-169192683D01*
X231199500Y-169192686D01*
X231133608Y-169306812D01*
X231099500Y-169434108D01*
X231099500Y-169565891D01*
X231133608Y-169693187D01*
X231144375Y-169711835D01*
X231192887Y-169795860D01*
X231209500Y-169857860D01*
X231209500Y-186036887D01*
X231189815Y-186103926D01*
X231173181Y-186124568D01*
X230826919Y-186470829D01*
X230771332Y-186502923D01*
X230727638Y-186514630D01*
X230656814Y-186533608D01*
X230656812Y-186533608D01*
X230656812Y-186533609D01*
X230542686Y-186599500D01*
X230542683Y-186599502D01*
X230449502Y-186692683D01*
X230449500Y-186692686D01*
X230383608Y-186806812D01*
X230349500Y-186934108D01*
X203000000Y-186934108D01*
X203000000Y-176934108D01*
X217849500Y-176934108D01*
X217849500Y-177065891D01*
X217883608Y-177193187D01*
X217910505Y-177239773D01*
X217949500Y-177307314D01*
X218042686Y-177400500D01*
X218156814Y-177466392D01*
X218284108Y-177500500D01*
X218284110Y-177500500D01*
X218415890Y-177500500D01*
X218415892Y-177500500D01*
X218543186Y-177466392D01*
X218645860Y-177407112D01*
X218707860Y-177390500D01*
X226401408Y-177390500D01*
X226401410Y-177390500D01*
X226500728Y-177363888D01*
X226589773Y-177312478D01*
X226662478Y-177239773D01*
X228416165Y-175486084D01*
X228477486Y-175452601D01*
X228547177Y-175457585D01*
X228551293Y-175459205D01*
X228558159Y-175462049D01*
X228558161Y-175462049D01*
X228558165Y-175462051D01*
X228605496Y-175471465D01*
X228751456Y-175500500D01*
X228751459Y-175500500D01*
X228948543Y-175500500D01*
X229078582Y-175474632D01*
X229141835Y-175462051D01*
X229323914Y-175386632D01*
X229487782Y-175277139D01*
X229627139Y-175137782D01*
X229736632Y-174973914D01*
X229812051Y-174791835D01*
X229850500Y-174598541D01*
X229850500Y-174401459D01*
X229850500Y-174401456D01*
X229812052Y-174208170D01*
X229812051Y-174208169D01*
X229812051Y-174208165D01*
X229812049Y-174208160D01*
X229736635Y-174026092D01*
X229736628Y-174026079D01*
X229627139Y-173862218D01*
X229627136Y-173862214D01*
X229487785Y-173722863D01*
X229487781Y-173722860D01*
X229323920Y-173613371D01*
X229323907Y-173613364D01*
X229141839Y-173537950D01*
X229141829Y-173537947D01*
X228960937Y-173501965D01*
X228899026Y-173469580D01*
X228864452Y-173408864D01*
X228868192Y-173339095D01*
X228909059Y-173282423D01*
X228965731Y-173257875D01*
X229154417Y-173227990D01*
X229349031Y-173164755D01*
X229531349Y-173071859D01*
X229575921Y-173039474D01*
X228896447Y-172360000D01*
X228902661Y-172360000D01*
X229004394Y-172332741D01*
X229095606Y-172280080D01*
X229170080Y-172205606D01*
X229222741Y-172114394D01*
X229250000Y-172012661D01*
X229250000Y-172006447D01*
X229929474Y-172685921D01*
X229961859Y-172641349D01*
X230054755Y-172459031D01*
X230117990Y-172264417D01*
X230150000Y-172062317D01*
X230150000Y-171857682D01*
X230117990Y-171655582D01*
X230054755Y-171460968D01*
X229961859Y-171278650D01*
X229929474Y-171234077D01*
X229929474Y-171234076D01*
X229250000Y-171913551D01*
X229250000Y-171907339D01*
X229222741Y-171805606D01*
X229170080Y-171714394D01*
X229095606Y-171639920D01*
X229004394Y-171587259D01*
X228902661Y-171560000D01*
X228896446Y-171560000D01*
X229575922Y-170880524D01*
X229575921Y-170880523D01*
X229531359Y-170848147D01*
X229531350Y-170848141D01*
X229349031Y-170755244D01*
X229154417Y-170692009D01*
X228965731Y-170662124D01*
X228902596Y-170632194D01*
X228865665Y-170572883D01*
X228866663Y-170503020D01*
X228905273Y-170444788D01*
X228960938Y-170418034D01*
X228962889Y-170417646D01*
X229141835Y-170382051D01*
X229323914Y-170306632D01*
X229487782Y-170197139D01*
X229627139Y-170057782D01*
X229736632Y-169893914D01*
X229812051Y-169711835D01*
X229841081Y-169565892D01*
X229850500Y-169518543D01*
X229850500Y-169321456D01*
X229812052Y-169128170D01*
X229812051Y-169128169D01*
X229812051Y-169128165D01*
X229812049Y-169128160D01*
X229736635Y-168946092D01*
X229736628Y-168946079D01*
X229627139Y-168782218D01*
X229627136Y-168782214D01*
X229487785Y-168642863D01*
X229487781Y-168642860D01*
X229323914Y-168533367D01*
X229141839Y-168457950D01*
X229141829Y-168457947D01*
X229021982Y-168434108D01*
X244099500Y-168434108D01*
X244099500Y-168565891D01*
X244133608Y-168693187D01*
X244160505Y-168739773D01*
X244199500Y-168807314D01*
X244292686Y-168900500D01*
X244406814Y-168966392D01*
X244534108Y-169000500D01*
X244534110Y-169000500D01*
X244665890Y-169000500D01*
X244665892Y-169000500D01*
X244793186Y-168966392D01*
X244895860Y-168907112D01*
X244957860Y-168890500D01*
X245651408Y-168890500D01*
X245651410Y-168890500D01*
X245750728Y-168863888D01*
X245839773Y-168812478D01*
X245912478Y-168739773D01*
X245912478Y-168739772D01*
X247873081Y-166779168D01*
X247928663Y-166747077D01*
X248043186Y-166716392D01*
X248157314Y-166650500D01*
X248247819Y-166559995D01*
X248309142Y-166526510D01*
X248378834Y-166531494D01*
X248434767Y-166573366D01*
X248459184Y-166638830D01*
X248459500Y-166647676D01*
X248459500Y-172786887D01*
X248450855Y-172816326D01*
X248444332Y-172846314D01*
X248440577Y-172851329D01*
X248439815Y-172853926D01*
X248423185Y-172874563D01*
X248349163Y-172948586D01*
X248326919Y-172970830D01*
X248271332Y-173002923D01*
X248227638Y-173014630D01*
X248156814Y-173033608D01*
X248156812Y-173033608D01*
X248156812Y-173033609D01*
X248042686Y-173099500D01*
X248042683Y-173099502D01*
X247949502Y-173192683D01*
X247949500Y-173192686D01*
X247883608Y-173306812D01*
X247874958Y-173339095D01*
X247849500Y-173434108D01*
X247849500Y-173565892D01*
X247862220Y-173613364D01*
X247883608Y-173693187D01*
X247900740Y-173722860D01*
X247949500Y-173807314D01*
X248042686Y-173900500D01*
X248156814Y-173966392D01*
X248284108Y-174000500D01*
X248284110Y-174000500D01*
X248415890Y-174000500D01*
X248415892Y-174000500D01*
X248543186Y-173966392D01*
X248657314Y-173900500D01*
X248750500Y-173807314D01*
X248816392Y-173693186D01*
X248847077Y-173578665D01*
X248879168Y-173523082D01*
X249162478Y-173239773D01*
X249213889Y-173150727D01*
X249215725Y-173143873D01*
X249252089Y-173084213D01*
X249314936Y-173053683D01*
X249384311Y-173061977D01*
X249438190Y-173106462D01*
X249459465Y-173173014D01*
X249459500Y-173175966D01*
X249459500Y-178142139D01*
X249442887Y-178204139D01*
X249383609Y-178306810D01*
X249383609Y-178306811D01*
X249349500Y-178434108D01*
X249349500Y-178565891D01*
X249383608Y-178693187D01*
X249416554Y-178750250D01*
X249449500Y-178807314D01*
X249542686Y-178900500D01*
X249656814Y-178966392D01*
X249784108Y-179000500D01*
X249784110Y-179000500D01*
X249915890Y-179000500D01*
X249915892Y-179000500D01*
X250043186Y-178966392D01*
X250157314Y-178900500D01*
X250247819Y-178809995D01*
X250309142Y-178776510D01*
X250378834Y-178781494D01*
X250434767Y-178823366D01*
X250459184Y-178888830D01*
X250459500Y-178897676D01*
X250459500Y-182786887D01*
X250450855Y-182816326D01*
X250444332Y-182846314D01*
X250440577Y-182851329D01*
X250439815Y-182853926D01*
X250423185Y-182874563D01*
X250356772Y-182940977D01*
X250326919Y-182970830D01*
X250271332Y-183002923D01*
X250227638Y-183014630D01*
X250156814Y-183033608D01*
X250156812Y-183033608D01*
X250156812Y-183033609D01*
X250042686Y-183099500D01*
X250042683Y-183099502D01*
X249949502Y-183192683D01*
X249949500Y-183192686D01*
X249883608Y-183306812D01*
X249849500Y-183434108D01*
X249849500Y-183565892D01*
X249866554Y-183629539D01*
X249883608Y-183693187D01*
X249916554Y-183750250D01*
X249949500Y-183807314D01*
X250042686Y-183900500D01*
X250156814Y-183966392D01*
X250284108Y-184000500D01*
X250284110Y-184000500D01*
X250415890Y-184000500D01*
X250415892Y-184000500D01*
X250543186Y-183966392D01*
X250657314Y-183900500D01*
X250750500Y-183807314D01*
X250816392Y-183693186D01*
X250847077Y-183578665D01*
X250879168Y-183523082D01*
X251162478Y-183239773D01*
X251213889Y-183150727D01*
X251240501Y-183051410D01*
X251240501Y-182948590D01*
X251240501Y-182940995D01*
X251240500Y-182940977D01*
X251240500Y-166059108D01*
X261249500Y-166059108D01*
X261249500Y-166190892D01*
X261259153Y-166226919D01*
X261283608Y-166318187D01*
X261316554Y-166375250D01*
X261349500Y-166432314D01*
X261442686Y-166525500D01*
X261556814Y-166591392D01*
X261684108Y-166625500D01*
X261684110Y-166625500D01*
X261815890Y-166625500D01*
X261815892Y-166625500D01*
X261943186Y-166591392D01*
X262057314Y-166525500D01*
X262150500Y-166432314D01*
X262216392Y-166318186D01*
X262250500Y-166190892D01*
X262250500Y-166059108D01*
X262216392Y-165931814D01*
X262150500Y-165817686D01*
X262057314Y-165724500D01*
X262000250Y-165691554D01*
X261943187Y-165658608D01*
X261879539Y-165641554D01*
X261815892Y-165624500D01*
X261684108Y-165624500D01*
X261556812Y-165658608D01*
X261442686Y-165724500D01*
X261442683Y-165724502D01*
X261349502Y-165817683D01*
X261349500Y-165817686D01*
X261283608Y-165931812D01*
X261250115Y-166056812D01*
X261249500Y-166059108D01*
X251240500Y-166059108D01*
X251240500Y-163559108D01*
X262499500Y-163559108D01*
X262499500Y-163690891D01*
X262533608Y-163818187D01*
X262536357Y-163822948D01*
X262599500Y-163932314D01*
X262692686Y-164025500D01*
X262806814Y-164091392D01*
X262934108Y-164125500D01*
X262934110Y-164125500D01*
X263065890Y-164125500D01*
X263065892Y-164125500D01*
X263193186Y-164091392D01*
X263307314Y-164025500D01*
X263400500Y-163932314D01*
X263466392Y-163818186D01*
X263500500Y-163690892D01*
X263500500Y-163559108D01*
X263466392Y-163431814D01*
X263400500Y-163317686D01*
X263307314Y-163224500D01*
X263247567Y-163190005D01*
X263193187Y-163158608D01*
X263112976Y-163137116D01*
X263065892Y-163124500D01*
X262934108Y-163124500D01*
X262806812Y-163158608D01*
X262692686Y-163224500D01*
X262692683Y-163224502D01*
X262599502Y-163317683D01*
X262599500Y-163317686D01*
X262533608Y-163431812D01*
X262499500Y-163559108D01*
X251240500Y-163559108D01*
X251240500Y-162857860D01*
X251257112Y-162795860D01*
X251316392Y-162693186D01*
X251350500Y-162565892D01*
X251350500Y-162434108D01*
X251316392Y-162306814D01*
X251250500Y-162192686D01*
X251157314Y-162099500D01*
X251087353Y-162059108D01*
X263999500Y-162059108D01*
X263999500Y-162190891D01*
X264033608Y-162318187D01*
X264047869Y-162342887D01*
X264099500Y-162432314D01*
X264192686Y-162525500D01*
X264262647Y-162565892D01*
X264301458Y-162588300D01*
X264306814Y-162591392D01*
X264434108Y-162625500D01*
X264434110Y-162625500D01*
X264565890Y-162625500D01*
X264565892Y-162625500D01*
X264693186Y-162591392D01*
X264807314Y-162525500D01*
X264900500Y-162432314D01*
X264966392Y-162318186D01*
X265000500Y-162190892D01*
X265000500Y-162059108D01*
X264966392Y-161931814D01*
X264900500Y-161817686D01*
X264807314Y-161724500D01*
X264750250Y-161691554D01*
X264693187Y-161658608D01*
X264629539Y-161641554D01*
X264565892Y-161624500D01*
X264434108Y-161624500D01*
X264306812Y-161658608D01*
X264192686Y-161724500D01*
X264192683Y-161724502D01*
X264099502Y-161817683D01*
X264099500Y-161817686D01*
X264033608Y-161931812D01*
X263999500Y-162059108D01*
X251087353Y-162059108D01*
X251043187Y-162033608D01*
X250979539Y-162016554D01*
X250915892Y-161999500D01*
X250784108Y-161999500D01*
X250656812Y-162033608D01*
X250542686Y-162099500D01*
X250542683Y-162099502D01*
X250449502Y-162192683D01*
X250449500Y-162192686D01*
X250383608Y-162306812D01*
X250373942Y-162342887D01*
X250349500Y-162434108D01*
X250349500Y-162565892D01*
X250365472Y-162625500D01*
X250383608Y-162693187D01*
X250413587Y-162745112D01*
X250442887Y-162795860D01*
X250447037Y-162811348D01*
X250454477Y-162822925D01*
X250459500Y-162857860D01*
X250459500Y-163102324D01*
X250439815Y-163169363D01*
X250387011Y-163215118D01*
X250317853Y-163225062D01*
X250254297Y-163196037D01*
X250247819Y-163190005D01*
X250157316Y-163099502D01*
X250157314Y-163099500D01*
X250100250Y-163066554D01*
X250043187Y-163033608D01*
X249979539Y-163016554D01*
X249915892Y-162999500D01*
X249784108Y-162999500D01*
X249656812Y-163033608D01*
X249542686Y-163099500D01*
X249542683Y-163099502D01*
X249449502Y-163192683D01*
X249449500Y-163192686D01*
X249383608Y-163306812D01*
X249349500Y-163434108D01*
X249349500Y-163565891D01*
X249383608Y-163693187D01*
X249413587Y-163745112D01*
X249442887Y-163795860D01*
X249459500Y-163857860D01*
X249459500Y-164602324D01*
X249439815Y-164669363D01*
X249387011Y-164715118D01*
X249317853Y-164725062D01*
X249254297Y-164696037D01*
X249247819Y-164690005D01*
X249157316Y-164599502D01*
X249157314Y-164599500D01*
X249100250Y-164566554D01*
X249043187Y-164533608D01*
X248979539Y-164516554D01*
X248915892Y-164499500D01*
X248784108Y-164499500D01*
X248656812Y-164533608D01*
X248542686Y-164599500D01*
X248542683Y-164599502D01*
X248449502Y-164692683D01*
X248449500Y-164692686D01*
X248383608Y-164806812D01*
X248351195Y-164927781D01*
X248349500Y-164934108D01*
X248349500Y-165065892D01*
X248349834Y-165067139D01*
X248383608Y-165193187D01*
X248413587Y-165245112D01*
X248442887Y-165295860D01*
X248459500Y-165357860D01*
X248459500Y-165852324D01*
X248439815Y-165919363D01*
X248387011Y-165965118D01*
X248317853Y-165975062D01*
X248254297Y-165946037D01*
X248247819Y-165940005D01*
X248157316Y-165849502D01*
X248157314Y-165849500D01*
X248100250Y-165816554D01*
X248043187Y-165783608D01*
X247979539Y-165766554D01*
X247915892Y-165749500D01*
X247784108Y-165749500D01*
X247656812Y-165783608D01*
X247542686Y-165849500D01*
X247542683Y-165849502D01*
X247449502Y-165942683D01*
X247449500Y-165942686D01*
X247383608Y-166056814D01*
X247382993Y-166059110D01*
X247352923Y-166171332D01*
X247320829Y-166226919D01*
X245474568Y-168073181D01*
X245413245Y-168106666D01*
X245386887Y-168109500D01*
X244957860Y-168109500D01*
X244895860Y-168092887D01*
X244845112Y-168063587D01*
X244793187Y-168033608D01*
X244729539Y-168016554D01*
X244665892Y-167999500D01*
X244534108Y-167999500D01*
X244406812Y-168033608D01*
X244292686Y-168099500D01*
X244292683Y-168099502D01*
X244199502Y-168192683D01*
X244199500Y-168192686D01*
X244133608Y-168306812D01*
X244099500Y-168434108D01*
X229021982Y-168434108D01*
X228948543Y-168419500D01*
X228948541Y-168419500D01*
X228751459Y-168419500D01*
X228751457Y-168419500D01*
X228558170Y-168457947D01*
X228558160Y-168457950D01*
X228376092Y-168533364D01*
X228376079Y-168533371D01*
X228212218Y-168642860D01*
X228212214Y-168642863D01*
X228072863Y-168782214D01*
X228072860Y-168782218D01*
X227963371Y-168946079D01*
X227963364Y-168946092D01*
X227887950Y-169128160D01*
X227887947Y-169128170D01*
X227849500Y-169321456D01*
X227849500Y-169321459D01*
X227849500Y-169518541D01*
X227849500Y-169518543D01*
X227849499Y-169518543D01*
X227887947Y-169711829D01*
X227887950Y-169711839D01*
X227963364Y-169893907D01*
X227963371Y-169893920D01*
X228072860Y-170057781D01*
X228072863Y-170057785D01*
X228212214Y-170197136D01*
X228212218Y-170197139D01*
X228376079Y-170306628D01*
X228376092Y-170306635D01*
X228535814Y-170372793D01*
X228558165Y-170382051D01*
X228690674Y-170408409D01*
X228739061Y-170418034D01*
X228800972Y-170450419D01*
X228835546Y-170511134D01*
X228831807Y-170580904D01*
X228790940Y-170637576D01*
X228734269Y-170662124D01*
X228545581Y-170692010D01*
X228350968Y-170755244D01*
X228168644Y-170848143D01*
X228124077Y-170880523D01*
X228124077Y-170880524D01*
X228803554Y-171560000D01*
X228797339Y-171560000D01*
X228695606Y-171587259D01*
X228604394Y-171639920D01*
X228529920Y-171714394D01*
X228477259Y-171805606D01*
X228450000Y-171907339D01*
X228450000Y-171913553D01*
X227770524Y-171234077D01*
X227770523Y-171234077D01*
X227738143Y-171278644D01*
X227645244Y-171460968D01*
X227582009Y-171655582D01*
X227550000Y-171857682D01*
X227550000Y-172062317D01*
X227582009Y-172264417D01*
X227645244Y-172459031D01*
X227738141Y-172641350D01*
X227738147Y-172641359D01*
X227770523Y-172685921D01*
X227770524Y-172685922D01*
X228450000Y-172006446D01*
X228450000Y-172012661D01*
X228477259Y-172114394D01*
X228529920Y-172205606D01*
X228604394Y-172280080D01*
X228695606Y-172332741D01*
X228797339Y-172360000D01*
X228803553Y-172360000D01*
X228124076Y-173039474D01*
X228168650Y-173071859D01*
X228350968Y-173164755D01*
X228545582Y-173227990D01*
X228734268Y-173257875D01*
X228797403Y-173287804D01*
X228834334Y-173347116D01*
X228833336Y-173416978D01*
X228794726Y-173475211D01*
X228739062Y-173501965D01*
X228558170Y-173537947D01*
X228558160Y-173537950D01*
X228376092Y-173613364D01*
X228376079Y-173613371D01*
X228212218Y-173722860D01*
X228212214Y-173722863D01*
X228072863Y-173862214D01*
X228072860Y-173862218D01*
X227963371Y-174026079D01*
X227963364Y-174026092D01*
X227887950Y-174208160D01*
X227887947Y-174208170D01*
X227849500Y-174401456D01*
X227849500Y-174401459D01*
X227849500Y-174598541D01*
X227849500Y-174598543D01*
X227849499Y-174598543D01*
X227887948Y-174791833D01*
X227887950Y-174791839D01*
X227890794Y-174798706D01*
X227898260Y-174868176D01*
X227866982Y-174930654D01*
X227863912Y-174933835D01*
X226224568Y-176573181D01*
X226163245Y-176606666D01*
X226136887Y-176609500D01*
X218707860Y-176609500D01*
X218645860Y-176592887D01*
X218595112Y-176563587D01*
X218543187Y-176533608D01*
X218479539Y-176516554D01*
X218415892Y-176499500D01*
X218284108Y-176499500D01*
X218156812Y-176533608D01*
X218042686Y-176599500D01*
X218042683Y-176599502D01*
X217949502Y-176692683D01*
X217949500Y-176692686D01*
X217883608Y-176806812D01*
X217849500Y-176934108D01*
X203000000Y-176934108D01*
X203000000Y-171857682D01*
X219930000Y-171857682D01*
X219930000Y-172062317D01*
X219962009Y-172264417D01*
X220025244Y-172459031D01*
X220118141Y-172641350D01*
X220118147Y-172641359D01*
X220150523Y-172685921D01*
X220150524Y-172685922D01*
X220830000Y-172006446D01*
X220830000Y-172012661D01*
X220857259Y-172114394D01*
X220909920Y-172205606D01*
X220984394Y-172280080D01*
X221075606Y-172332741D01*
X221177339Y-172360000D01*
X221183553Y-172360000D01*
X220504076Y-173039474D01*
X220548650Y-173071859D01*
X220730968Y-173164755D01*
X220925582Y-173227990D01*
X221114268Y-173257875D01*
X221177403Y-173287804D01*
X221214334Y-173347116D01*
X221213336Y-173416978D01*
X221174726Y-173475211D01*
X221119062Y-173501965D01*
X220938170Y-173537947D01*
X220938160Y-173537950D01*
X220756092Y-173613364D01*
X220756079Y-173613371D01*
X220592218Y-173722860D01*
X220592214Y-173722863D01*
X220452863Y-173862214D01*
X220452860Y-173862218D01*
X220343371Y-174026079D01*
X220343364Y-174026092D01*
X220267950Y-174208160D01*
X220267947Y-174208170D01*
X220229500Y-174401456D01*
X220229500Y-174401459D01*
X220229500Y-174598541D01*
X220229500Y-174598543D01*
X220229499Y-174598543D01*
X220267947Y-174791829D01*
X220267950Y-174791839D01*
X220343364Y-174973907D01*
X220343371Y-174973920D01*
X220452860Y-175137781D01*
X220452863Y-175137785D01*
X220592214Y-175277136D01*
X220592218Y-175277139D01*
X220756079Y-175386628D01*
X220756092Y-175386635D01*
X220927383Y-175457585D01*
X220938165Y-175462051D01*
X220938169Y-175462051D01*
X220938170Y-175462052D01*
X221131456Y-175500500D01*
X221131459Y-175500500D01*
X221328543Y-175500500D01*
X221458582Y-175474632D01*
X221521835Y-175462051D01*
X221703914Y-175386632D01*
X221867782Y-175277139D01*
X222007139Y-175137782D01*
X222116632Y-174973914D01*
X222192051Y-174791835D01*
X222230500Y-174598541D01*
X222230500Y-174401459D01*
X222230500Y-174401456D01*
X222192052Y-174208170D01*
X222192051Y-174208169D01*
X222192051Y-174208165D01*
X222192049Y-174208160D01*
X222116635Y-174026092D01*
X222116628Y-174026079D01*
X222007139Y-173862218D01*
X222007136Y-173862214D01*
X221867785Y-173722863D01*
X221867781Y-173722860D01*
X221703920Y-173613371D01*
X221703907Y-173613364D01*
X221521839Y-173537950D01*
X221521829Y-173537947D01*
X221340937Y-173501965D01*
X221279026Y-173469580D01*
X221244452Y-173408864D01*
X221248192Y-173339095D01*
X221289059Y-173282423D01*
X221345731Y-173257875D01*
X221534417Y-173227990D01*
X221729031Y-173164755D01*
X221911349Y-173071859D01*
X221955921Y-173039474D01*
X221276447Y-172360000D01*
X221282661Y-172360000D01*
X221384394Y-172332741D01*
X221475606Y-172280080D01*
X221550080Y-172205606D01*
X221602741Y-172114394D01*
X221630000Y-172012661D01*
X221630000Y-172006447D01*
X222309474Y-172685921D01*
X222341859Y-172641349D01*
X222434755Y-172459031D01*
X222497990Y-172264417D01*
X222530000Y-172062317D01*
X222530000Y-171857682D01*
X222497990Y-171655582D01*
X222434755Y-171460968D01*
X222341859Y-171278650D01*
X222309474Y-171234077D01*
X222309474Y-171234076D01*
X221630000Y-171913551D01*
X221630000Y-171907339D01*
X221602741Y-171805606D01*
X221550080Y-171714394D01*
X221475606Y-171639920D01*
X221384394Y-171587259D01*
X221282661Y-171560000D01*
X221276446Y-171560000D01*
X221955922Y-170880524D01*
X221955921Y-170880523D01*
X221911359Y-170848147D01*
X221911350Y-170848141D01*
X221729031Y-170755244D01*
X221534417Y-170692009D01*
X221376343Y-170666973D01*
X221313208Y-170637044D01*
X221276277Y-170577732D01*
X221277275Y-170507870D01*
X221315885Y-170449637D01*
X221379849Y-170421523D01*
X221395741Y-170420500D01*
X221834270Y-170420500D01*
X221864699Y-170417646D01*
X221864701Y-170417646D01*
X221928790Y-170395219D01*
X221992882Y-170372793D01*
X222102150Y-170292150D01*
X222182793Y-170182882D01*
X222205219Y-170118790D01*
X222227646Y-170054701D01*
X222227646Y-170054699D01*
X222230500Y-170024269D01*
X222230500Y-168815730D01*
X222227646Y-168785300D01*
X222227646Y-168785298D01*
X222182793Y-168657119D01*
X222182792Y-168657117D01*
X222172270Y-168642860D01*
X222102150Y-168547850D01*
X221992882Y-168467207D01*
X221992880Y-168467206D01*
X221864700Y-168422353D01*
X221834270Y-168419500D01*
X221834266Y-168419500D01*
X220625734Y-168419500D01*
X220625730Y-168419500D01*
X220595300Y-168422353D01*
X220595298Y-168422353D01*
X220467119Y-168467206D01*
X220467117Y-168467207D01*
X220357850Y-168547850D01*
X220277207Y-168657117D01*
X220277206Y-168657119D01*
X220232353Y-168785298D01*
X220232353Y-168785300D01*
X220229500Y-168815730D01*
X220229500Y-170024269D01*
X220232353Y-170054699D01*
X220232353Y-170054701D01*
X220277206Y-170182880D01*
X220277207Y-170182882D01*
X220357850Y-170292150D01*
X220467118Y-170372793D01*
X220493576Y-170382051D01*
X220595299Y-170417646D01*
X220625730Y-170420500D01*
X221064259Y-170420500D01*
X221131298Y-170440185D01*
X221177053Y-170492989D01*
X221186997Y-170562147D01*
X221157972Y-170625703D01*
X221099194Y-170663477D01*
X221083657Y-170666973D01*
X220925582Y-170692009D01*
X220730968Y-170755244D01*
X220548644Y-170848143D01*
X220504077Y-170880523D01*
X220504077Y-170880524D01*
X221183554Y-171560000D01*
X221177339Y-171560000D01*
X221075606Y-171587259D01*
X220984394Y-171639920D01*
X220909920Y-171714394D01*
X220857259Y-171805606D01*
X220830000Y-171907339D01*
X220830000Y-171913553D01*
X220150524Y-171234077D01*
X220150523Y-171234077D01*
X220118143Y-171278644D01*
X220025244Y-171460968D01*
X219962009Y-171655582D01*
X219930000Y-171857682D01*
X203000000Y-171857682D01*
X203000000Y-161647682D01*
X219740000Y-161647682D01*
X219740000Y-161852317D01*
X219772009Y-162054417D01*
X219835244Y-162249031D01*
X219928141Y-162431350D01*
X219928147Y-162431359D01*
X219960523Y-162475921D01*
X219960524Y-162475922D01*
X220640000Y-161796446D01*
X220640000Y-161802661D01*
X220667259Y-161904394D01*
X220719920Y-161995606D01*
X220794394Y-162070080D01*
X220885606Y-162122741D01*
X220987339Y-162150000D01*
X220993553Y-162150000D01*
X220314076Y-162829474D01*
X220358650Y-162861859D01*
X220540968Y-162954755D01*
X220735582Y-163017990D01*
X220924268Y-163047875D01*
X220987403Y-163077804D01*
X221024334Y-163137116D01*
X221023336Y-163206978D01*
X220984726Y-163265211D01*
X220929062Y-163291965D01*
X220748170Y-163327947D01*
X220748160Y-163327950D01*
X220566092Y-163403364D01*
X220566079Y-163403371D01*
X220402218Y-163512860D01*
X220402214Y-163512863D01*
X220262863Y-163652214D01*
X220262860Y-163652218D01*
X220153371Y-163816079D01*
X220153364Y-163816092D01*
X220077950Y-163998160D01*
X220077947Y-163998170D01*
X220039500Y-164191456D01*
X220039500Y-164191459D01*
X220039500Y-164388541D01*
X220039500Y-164388543D01*
X220039499Y-164388543D01*
X220077947Y-164581829D01*
X220077950Y-164581839D01*
X220153364Y-164763907D01*
X220153371Y-164763920D01*
X220262860Y-164927781D01*
X220262863Y-164927785D01*
X220402214Y-165067136D01*
X220402218Y-165067139D01*
X220566079Y-165176628D01*
X220566092Y-165176635D01*
X220748160Y-165252049D01*
X220748165Y-165252051D01*
X220748169Y-165252051D01*
X220748170Y-165252052D01*
X220941456Y-165290500D01*
X220941459Y-165290500D01*
X221138543Y-165290500D01*
X221268582Y-165264632D01*
X221331835Y-165252051D01*
X221513914Y-165176632D01*
X221677782Y-165067139D01*
X221817139Y-164927782D01*
X221926632Y-164763914D01*
X222002051Y-164581835D01*
X222040500Y-164388541D01*
X222040500Y-164191459D01*
X222040500Y-164191456D01*
X222002052Y-163998170D01*
X222002051Y-163998169D01*
X222002051Y-163998165D01*
X221974775Y-163932314D01*
X221926635Y-163816092D01*
X221926628Y-163816079D01*
X221817139Y-163652218D01*
X221817136Y-163652214D01*
X221677785Y-163512863D01*
X221677781Y-163512860D01*
X221513920Y-163403371D01*
X221513907Y-163403364D01*
X221331839Y-163327950D01*
X221331829Y-163327947D01*
X221150937Y-163291965D01*
X221089026Y-163259580D01*
X221054452Y-163198864D01*
X221058192Y-163129095D01*
X221099059Y-163072423D01*
X221155731Y-163047875D01*
X221344417Y-163017990D01*
X221539031Y-162954755D01*
X221721349Y-162861859D01*
X221765921Y-162829474D01*
X221086447Y-162150000D01*
X221092661Y-162150000D01*
X221194394Y-162122741D01*
X221285606Y-162070080D01*
X221360080Y-161995606D01*
X221412741Y-161904394D01*
X221440000Y-161802661D01*
X221440000Y-161796447D01*
X222119474Y-162475921D01*
X222151859Y-162431349D01*
X222244755Y-162249031D01*
X222307990Y-162054417D01*
X222340000Y-161852317D01*
X222340000Y-161647682D01*
X222307990Y-161445582D01*
X222244755Y-161250968D01*
X222151859Y-161068650D01*
X222119474Y-161024077D01*
X222119474Y-161024076D01*
X221440000Y-161703551D01*
X221440000Y-161697339D01*
X221412741Y-161595606D01*
X221360080Y-161504394D01*
X221285606Y-161429920D01*
X221194394Y-161377259D01*
X221092661Y-161350000D01*
X221086446Y-161350000D01*
X221765922Y-160670524D01*
X221765921Y-160670523D01*
X221721359Y-160638147D01*
X221721350Y-160638141D01*
X221539031Y-160545244D01*
X221344417Y-160482009D01*
X221186343Y-160456973D01*
X221123208Y-160427044D01*
X221086277Y-160367732D01*
X221087275Y-160297870D01*
X221125885Y-160239637D01*
X221189849Y-160211523D01*
X221205741Y-160210500D01*
X221644270Y-160210500D01*
X221674699Y-160207646D01*
X221674701Y-160207646D01*
X221738790Y-160185219D01*
X221802882Y-160162793D01*
X221912150Y-160082150D01*
X221992793Y-159972882D01*
X222015219Y-159908790D01*
X222037646Y-159844701D01*
X222037646Y-159844699D01*
X222040500Y-159814269D01*
X222040500Y-158605730D01*
X222037646Y-158575300D01*
X222037646Y-158575298D01*
X221992793Y-158447119D01*
X221992792Y-158447117D01*
X221982270Y-158432860D01*
X221912150Y-158337850D01*
X221802882Y-158257207D01*
X221802880Y-158257206D01*
X221674700Y-158212353D01*
X221644270Y-158209500D01*
X221644266Y-158209500D01*
X220435734Y-158209500D01*
X220435730Y-158209500D01*
X220405300Y-158212353D01*
X220405298Y-158212353D01*
X220277119Y-158257206D01*
X220277117Y-158257207D01*
X220167850Y-158337850D01*
X220087207Y-158447117D01*
X220087206Y-158447119D01*
X220042353Y-158575298D01*
X220042353Y-158575300D01*
X220039500Y-158605730D01*
X220039500Y-159814269D01*
X220042353Y-159844699D01*
X220042353Y-159844701D01*
X220087206Y-159972880D01*
X220087207Y-159972882D01*
X220167850Y-160082150D01*
X220277118Y-160162793D01*
X220303576Y-160172051D01*
X220405299Y-160207646D01*
X220435730Y-160210500D01*
X220874259Y-160210500D01*
X220941298Y-160230185D01*
X220987053Y-160282989D01*
X220996997Y-160352147D01*
X220967972Y-160415703D01*
X220909194Y-160453477D01*
X220893657Y-160456973D01*
X220735582Y-160482009D01*
X220540968Y-160545244D01*
X220358644Y-160638143D01*
X220314077Y-160670523D01*
X220314077Y-160670524D01*
X220993554Y-161350000D01*
X220987339Y-161350000D01*
X220885606Y-161377259D01*
X220794394Y-161429920D01*
X220719920Y-161504394D01*
X220667259Y-161595606D01*
X220640000Y-161697339D01*
X220640000Y-161703553D01*
X219960524Y-161024077D01*
X219960523Y-161024077D01*
X219928143Y-161068644D01*
X219835244Y-161250968D01*
X219772009Y-161445582D01*
X219740000Y-161647682D01*
X203000000Y-161647682D01*
X203000000Y-158434108D01*
X216599500Y-158434108D01*
X216599500Y-158565892D01*
X216610176Y-158605734D01*
X216633608Y-158693187D01*
X216658372Y-158736079D01*
X216699500Y-158807314D01*
X216792686Y-158900500D01*
X216906814Y-158966392D01*
X217034108Y-159000500D01*
X217034110Y-159000500D01*
X217165890Y-159000500D01*
X217165892Y-159000500D01*
X217293186Y-158966392D01*
X217407314Y-158900500D01*
X217500500Y-158807314D01*
X217566392Y-158693186D01*
X217597077Y-158578663D01*
X217605093Y-158564779D01*
X217608019Y-158551333D01*
X217629167Y-158523082D01*
X219975431Y-156176819D01*
X220036754Y-156143334D01*
X220063112Y-156140500D01*
X230242140Y-156140500D01*
X230304139Y-156157112D01*
X230406814Y-156216392D01*
X230534108Y-156250500D01*
X230534110Y-156250500D01*
X230665890Y-156250500D01*
X230665892Y-156250500D01*
X230793186Y-156216392D01*
X230907314Y-156150500D01*
X231000500Y-156057314D01*
X231066392Y-155943186D01*
X231100500Y-155815892D01*
X231100500Y-155684108D01*
X231066392Y-155556814D01*
X231000500Y-155442686D01*
X230907314Y-155349500D01*
X230850250Y-155316554D01*
X230793187Y-155283608D01*
X230729539Y-155266554D01*
X230665892Y-155249500D01*
X230534108Y-155249500D01*
X230406812Y-155283608D01*
X230337842Y-155323428D01*
X230304139Y-155342887D01*
X230242140Y-155359500D01*
X219798590Y-155359500D01*
X219699272Y-155386112D01*
X219699269Y-155386113D01*
X219610230Y-155437519D01*
X219610225Y-155437523D01*
X219537520Y-155510229D01*
X217076919Y-157970829D01*
X217021332Y-158002923D01*
X216977638Y-158014630D01*
X216906814Y-158033608D01*
X216906812Y-158033608D01*
X216906812Y-158033609D01*
X216792686Y-158099500D01*
X216792683Y-158099502D01*
X216699502Y-158192683D01*
X216699500Y-158192686D01*
X216633608Y-158306812D01*
X216625292Y-158337850D01*
X216599500Y-158434108D01*
X203000000Y-158434108D01*
X203000000Y-153184108D01*
X219349500Y-153184108D01*
X219349500Y-153315891D01*
X219383608Y-153443187D01*
X219416554Y-153500250D01*
X219449500Y-153557314D01*
X219542686Y-153650500D01*
X219656814Y-153716392D01*
X219784108Y-153750500D01*
X219784110Y-153750500D01*
X219915890Y-153750500D01*
X219915892Y-153750500D01*
X220043186Y-153716392D01*
X220145860Y-153657112D01*
X220207860Y-153640500D01*
X230742140Y-153640500D01*
X230804139Y-153657112D01*
X230906814Y-153716392D01*
X231021332Y-153747076D01*
X231076919Y-153779170D01*
X232423181Y-155125432D01*
X232456666Y-155186755D01*
X232459500Y-155213113D01*
X232459500Y-162036887D01*
X232439815Y-162103926D01*
X232423181Y-162124568D01*
X230684568Y-163863181D01*
X230623245Y-163896666D01*
X230596887Y-163899500D01*
X229664037Y-163899500D01*
X229596998Y-163879815D01*
X229551243Y-163827011D01*
X229549474Y-163822948D01*
X229547502Y-163818187D01*
X229546632Y-163816086D01*
X229546630Y-163816083D01*
X229546628Y-163816079D01*
X229437139Y-163652218D01*
X229437136Y-163652214D01*
X229297785Y-163512863D01*
X229297781Y-163512860D01*
X229133920Y-163403371D01*
X229133907Y-163403364D01*
X228951839Y-163327950D01*
X228951829Y-163327947D01*
X228770937Y-163291965D01*
X228709026Y-163259580D01*
X228674452Y-163198864D01*
X228678192Y-163129095D01*
X228719059Y-163072423D01*
X228775731Y-163047875D01*
X228964417Y-163017990D01*
X229159031Y-162954755D01*
X229341349Y-162861859D01*
X229385921Y-162829474D01*
X228706447Y-162150000D01*
X228712661Y-162150000D01*
X228814394Y-162122741D01*
X228905606Y-162070080D01*
X228980080Y-161995606D01*
X229032741Y-161904394D01*
X229060000Y-161802661D01*
X229060000Y-161796447D01*
X229739474Y-162475921D01*
X229771859Y-162431349D01*
X229864755Y-162249031D01*
X229927990Y-162054417D01*
X229960000Y-161852317D01*
X229960000Y-161647682D01*
X229927990Y-161445582D01*
X229864755Y-161250968D01*
X229771859Y-161068650D01*
X229739474Y-161024077D01*
X229739474Y-161024076D01*
X229060000Y-161703551D01*
X229060000Y-161697339D01*
X229032741Y-161595606D01*
X228980080Y-161504394D01*
X228905606Y-161429920D01*
X228814394Y-161377259D01*
X228712661Y-161350000D01*
X228706446Y-161350000D01*
X229385922Y-160670524D01*
X229385921Y-160670523D01*
X229341359Y-160638147D01*
X229341350Y-160638141D01*
X229159031Y-160545244D01*
X228964417Y-160482009D01*
X228775731Y-160452124D01*
X228712596Y-160422194D01*
X228675665Y-160362883D01*
X228676663Y-160293020D01*
X228715273Y-160234788D01*
X228770938Y-160208034D01*
X228772889Y-160207646D01*
X228951835Y-160172051D01*
X229133914Y-160096632D01*
X229297782Y-159987139D01*
X229437139Y-159847782D01*
X229546632Y-159683914D01*
X229622051Y-159501835D01*
X229660500Y-159308541D01*
X229660500Y-159111459D01*
X229660500Y-159111456D01*
X229622052Y-158918170D01*
X229622051Y-158918169D01*
X229622051Y-158918165D01*
X229614733Y-158900497D01*
X229546635Y-158736092D01*
X229546628Y-158736079D01*
X229437139Y-158572218D01*
X229437136Y-158572214D01*
X229297785Y-158432863D01*
X229297781Y-158432860D01*
X229133920Y-158323371D01*
X229133907Y-158323364D01*
X228951839Y-158247950D01*
X228951829Y-158247947D01*
X228758543Y-158209500D01*
X228758541Y-158209500D01*
X228561459Y-158209500D01*
X228561457Y-158209500D01*
X228368170Y-158247947D01*
X228368160Y-158247950D01*
X228186092Y-158323364D01*
X228186079Y-158323371D01*
X228022218Y-158432860D01*
X228022214Y-158432863D01*
X227882863Y-158572214D01*
X227882860Y-158572218D01*
X227773371Y-158736079D01*
X227773364Y-158736092D01*
X227697950Y-158918160D01*
X227697947Y-158918170D01*
X227659500Y-159111456D01*
X227659500Y-159111459D01*
X227659500Y-159308541D01*
X227659500Y-159308543D01*
X227659499Y-159308543D01*
X227697947Y-159501829D01*
X227697950Y-159501839D01*
X227773364Y-159683907D01*
X227773371Y-159683920D01*
X227882860Y-159847781D01*
X227882863Y-159847785D01*
X228022214Y-159987136D01*
X228022218Y-159987139D01*
X228186079Y-160096628D01*
X228186092Y-160096635D01*
X228345814Y-160162793D01*
X228368165Y-160172051D01*
X228500674Y-160198409D01*
X228549061Y-160208034D01*
X228610972Y-160240419D01*
X228645546Y-160301134D01*
X228641807Y-160370904D01*
X228600940Y-160427576D01*
X228544269Y-160452124D01*
X228355581Y-160482010D01*
X228160968Y-160545244D01*
X227978644Y-160638143D01*
X227934077Y-160670523D01*
X227934077Y-160670524D01*
X228613554Y-161350000D01*
X228607339Y-161350000D01*
X228505606Y-161377259D01*
X228414394Y-161429920D01*
X228339920Y-161504394D01*
X228287259Y-161595606D01*
X228260000Y-161697339D01*
X228260000Y-161703553D01*
X227580524Y-161024077D01*
X227580523Y-161024077D01*
X227548143Y-161068644D01*
X227455244Y-161250968D01*
X227392009Y-161445582D01*
X227360000Y-161647682D01*
X227360000Y-161852317D01*
X227392009Y-162054417D01*
X227455244Y-162249031D01*
X227548141Y-162431350D01*
X227548147Y-162431359D01*
X227580523Y-162475921D01*
X227580524Y-162475922D01*
X228260000Y-161796446D01*
X228260000Y-161802661D01*
X228287259Y-161904394D01*
X228339920Y-161995606D01*
X228414394Y-162070080D01*
X228505606Y-162122741D01*
X228607339Y-162150000D01*
X228613553Y-162150000D01*
X227934076Y-162829474D01*
X227978650Y-162861859D01*
X228160968Y-162954755D01*
X228355582Y-163017990D01*
X228544268Y-163047875D01*
X228607403Y-163077804D01*
X228644334Y-163137116D01*
X228643336Y-163206978D01*
X228604726Y-163265211D01*
X228549062Y-163291965D01*
X228368170Y-163327947D01*
X228368160Y-163327950D01*
X228186092Y-163403364D01*
X228186079Y-163403371D01*
X228022218Y-163512860D01*
X228022214Y-163512863D01*
X227882863Y-163652214D01*
X227882860Y-163652218D01*
X227773371Y-163816079D01*
X227773364Y-163816092D01*
X227697950Y-163998160D01*
X227697947Y-163998170D01*
X227659500Y-164191456D01*
X227659500Y-164191459D01*
X227659500Y-164388541D01*
X227659500Y-164388543D01*
X227659499Y-164388543D01*
X227697947Y-164581829D01*
X227697950Y-164581839D01*
X227773364Y-164763907D01*
X227773371Y-164763920D01*
X227882860Y-164927781D01*
X227882863Y-164927785D01*
X228022214Y-165067136D01*
X228022218Y-165067139D01*
X228186079Y-165176628D01*
X228186092Y-165176635D01*
X228368160Y-165252049D01*
X228368165Y-165252051D01*
X228368169Y-165252051D01*
X228368170Y-165252052D01*
X228561456Y-165290500D01*
X228561459Y-165290500D01*
X228758543Y-165290500D01*
X228888582Y-165264632D01*
X228951835Y-165252051D01*
X229133914Y-165176632D01*
X229297782Y-165067139D01*
X229437139Y-164927782D01*
X229546632Y-164763914D01*
X229549474Y-164757051D01*
X229593313Y-164702647D01*
X229659606Y-164680579D01*
X229664037Y-164680500D01*
X230861408Y-164680500D01*
X230861410Y-164680500D01*
X230960728Y-164653888D01*
X231049773Y-164602478D01*
X231122478Y-164529773D01*
X232968143Y-162684108D01*
X243849500Y-162684108D01*
X243849500Y-162815892D01*
X243853139Y-162829474D01*
X243883608Y-162943187D01*
X243890287Y-162954755D01*
X243949500Y-163057314D01*
X244042686Y-163150500D01*
X244156814Y-163216392D01*
X244284108Y-163250500D01*
X244284110Y-163250500D01*
X244415890Y-163250500D01*
X244415892Y-163250500D01*
X244543186Y-163216392D01*
X244645860Y-163157112D01*
X244707860Y-163140500D01*
X246242140Y-163140500D01*
X246304139Y-163157112D01*
X246365749Y-163192683D01*
X246390508Y-163206978D01*
X246406814Y-163216392D01*
X246534108Y-163250500D01*
X246534110Y-163250500D01*
X246665890Y-163250500D01*
X246665892Y-163250500D01*
X246793186Y-163216392D01*
X246907314Y-163150500D01*
X247000500Y-163057314D01*
X247066392Y-162943186D01*
X247100500Y-162815892D01*
X247100500Y-162684108D01*
X247066392Y-162556814D01*
X247000500Y-162442686D01*
X246907314Y-162349500D01*
X246833380Y-162306814D01*
X246793187Y-162283608D01*
X246729539Y-162266554D01*
X246665892Y-162249500D01*
X246534108Y-162249500D01*
X246406812Y-162283608D01*
X246337842Y-162323428D01*
X246304139Y-162342887D01*
X246242140Y-162359500D01*
X244707860Y-162359500D01*
X244645860Y-162342887D01*
X244583380Y-162306814D01*
X244543187Y-162283608D01*
X244479539Y-162266554D01*
X244415892Y-162249500D01*
X244284108Y-162249500D01*
X244156812Y-162283608D01*
X244042686Y-162349500D01*
X244042683Y-162349502D01*
X243949502Y-162442683D01*
X243949500Y-162442686D01*
X243883608Y-162556812D01*
X243875171Y-162588300D01*
X243849500Y-162684108D01*
X232968143Y-162684108D01*
X233162478Y-162489773D01*
X233213889Y-162400727D01*
X233240501Y-162301410D01*
X233240501Y-162198590D01*
X233240501Y-162190995D01*
X233240500Y-162190977D01*
X233240500Y-154948592D01*
X233240500Y-154948590D01*
X233213888Y-154849272D01*
X233162478Y-154760227D01*
X233089773Y-154687522D01*
X231629170Y-153226919D01*
X231597076Y-153171331D01*
X231566391Y-153056812D01*
X231557563Y-153041521D01*
X231500500Y-152942686D01*
X231407314Y-152849500D01*
X231350250Y-152816554D01*
X231293187Y-152783608D01*
X231229539Y-152766554D01*
X231165892Y-152749500D01*
X231034108Y-152749500D01*
X230906812Y-152783608D01*
X230837842Y-152823428D01*
X230804139Y-152842887D01*
X230742140Y-152859500D01*
X220207860Y-152859500D01*
X220145860Y-152842887D01*
X220095112Y-152813587D01*
X220043187Y-152783608D01*
X219979539Y-152766554D01*
X219915892Y-152749500D01*
X219784108Y-152749500D01*
X219656812Y-152783608D01*
X219542686Y-152849500D01*
X219542683Y-152849502D01*
X219449502Y-152942683D01*
X219449500Y-152942686D01*
X219383608Y-153056812D01*
X219349500Y-153184108D01*
X203000000Y-153184108D01*
X203000000Y-136159108D01*
X230576641Y-136159108D01*
X230576641Y-136290891D01*
X230610749Y-136418187D01*
X230643695Y-136475250D01*
X230676641Y-136532314D01*
X230769827Y-136625500D01*
X230883955Y-136691392D01*
X231011249Y-136725500D01*
X231011251Y-136725500D01*
X231143031Y-136725500D01*
X231143033Y-136725500D01*
X231270327Y-136691392D01*
X231384455Y-136625500D01*
X231477641Y-136532314D01*
X231543533Y-136418186D01*
X231574218Y-136303663D01*
X231606309Y-136248081D01*
X232056704Y-135797685D01*
X232056709Y-135797682D01*
X232066912Y-135787478D01*
X232066914Y-135787478D01*
X232139619Y-135714773D01*
X232191029Y-135625728D01*
X232217641Y-135526410D01*
X232217641Y-119082860D01*
X232234253Y-119020860D01*
X232293533Y-118918186D01*
X232327641Y-118790892D01*
X232327641Y-118659108D01*
X232293533Y-118531814D01*
X232227641Y-118417686D01*
X232134455Y-118324500D01*
X232077391Y-118291554D01*
X232020328Y-118258608D01*
X231956680Y-118241554D01*
X231893033Y-118224500D01*
X231761249Y-118224500D01*
X231633953Y-118258608D01*
X231519827Y-118324500D01*
X231519824Y-118324502D01*
X231426643Y-118417683D01*
X231426641Y-118417686D01*
X231360749Y-118531812D01*
X231326641Y-118659108D01*
X231326641Y-118790891D01*
X231360749Y-118918187D01*
X231371516Y-118936835D01*
X231420028Y-119020860D01*
X231436641Y-119082860D01*
X231436641Y-135261887D01*
X231416956Y-135328926D01*
X231400322Y-135349568D01*
X231054060Y-135695829D01*
X230998473Y-135727923D01*
X230954779Y-135739630D01*
X230883955Y-135758608D01*
X230883953Y-135758608D01*
X230883953Y-135758609D01*
X230769827Y-135824500D01*
X230769824Y-135824502D01*
X230676643Y-135917683D01*
X230676641Y-135917686D01*
X230610749Y-136031812D01*
X230576641Y-136159108D01*
X203000000Y-136159108D01*
X203000000Y-126159108D01*
X218076641Y-126159108D01*
X218076641Y-126290891D01*
X218110749Y-126418187D01*
X218137646Y-126464773D01*
X218176641Y-126532314D01*
X218269827Y-126625500D01*
X218383955Y-126691392D01*
X218511249Y-126725500D01*
X218511251Y-126725500D01*
X218643031Y-126725500D01*
X218643033Y-126725500D01*
X218770327Y-126691392D01*
X218873001Y-126632112D01*
X218935001Y-126615500D01*
X226628549Y-126615500D01*
X226628551Y-126615500D01*
X226727869Y-126588888D01*
X226816914Y-126537478D01*
X226889619Y-126464773D01*
X228643306Y-124711084D01*
X228704627Y-124677601D01*
X228774318Y-124682585D01*
X228778434Y-124684205D01*
X228785300Y-124687049D01*
X228785302Y-124687049D01*
X228785306Y-124687051D01*
X228832637Y-124696465D01*
X228978597Y-124725500D01*
X228978600Y-124725500D01*
X229175684Y-124725500D01*
X229305723Y-124699632D01*
X229368976Y-124687051D01*
X229551055Y-124611632D01*
X229714923Y-124502139D01*
X229854280Y-124362782D01*
X229963773Y-124198914D01*
X230039192Y-124016835D01*
X230077641Y-123823541D01*
X230077641Y-123626459D01*
X230077641Y-123626456D01*
X230039193Y-123433170D01*
X230039192Y-123433169D01*
X230039192Y-123433165D01*
X230039190Y-123433160D01*
X229963776Y-123251092D01*
X229963769Y-123251079D01*
X229854280Y-123087218D01*
X229854277Y-123087214D01*
X229714926Y-122947863D01*
X229714922Y-122947860D01*
X229551061Y-122838371D01*
X229551048Y-122838364D01*
X229368980Y-122762950D01*
X229368970Y-122762947D01*
X229188078Y-122726965D01*
X229126167Y-122694580D01*
X229091593Y-122633864D01*
X229095333Y-122564095D01*
X229136200Y-122507423D01*
X229192872Y-122482875D01*
X229381558Y-122452990D01*
X229576172Y-122389755D01*
X229758490Y-122296859D01*
X229803062Y-122264474D01*
X229123588Y-121585000D01*
X229129802Y-121585000D01*
X229231535Y-121557741D01*
X229322747Y-121505080D01*
X229397221Y-121430606D01*
X229449882Y-121339394D01*
X229477141Y-121237661D01*
X229477141Y-121231447D01*
X230156615Y-121910921D01*
X230189000Y-121866349D01*
X230281896Y-121684031D01*
X230345131Y-121489417D01*
X230377141Y-121287317D01*
X230377141Y-121082682D01*
X230345131Y-120880582D01*
X230281896Y-120685968D01*
X230189000Y-120503650D01*
X230156615Y-120459077D01*
X230156615Y-120459076D01*
X229477141Y-121138551D01*
X229477141Y-121132339D01*
X229449882Y-121030606D01*
X229397221Y-120939394D01*
X229322747Y-120864920D01*
X229231535Y-120812259D01*
X229129802Y-120785000D01*
X229123587Y-120785000D01*
X229803063Y-120105524D01*
X229803062Y-120105523D01*
X229758500Y-120073147D01*
X229758491Y-120073141D01*
X229576172Y-119980244D01*
X229381558Y-119917009D01*
X229192872Y-119887124D01*
X229129737Y-119857194D01*
X229092806Y-119797883D01*
X229093804Y-119728020D01*
X229132414Y-119669788D01*
X229188079Y-119643034D01*
X229190030Y-119642646D01*
X229368976Y-119607051D01*
X229551055Y-119531632D01*
X229714923Y-119422139D01*
X229854280Y-119282782D01*
X229963773Y-119118914D01*
X230039192Y-118936835D01*
X230068222Y-118790892D01*
X230077641Y-118743543D01*
X230077641Y-118546456D01*
X230039193Y-118353170D01*
X230039192Y-118353169D01*
X230039192Y-118353165D01*
X230039190Y-118353160D01*
X229963776Y-118171092D01*
X229963769Y-118171079D01*
X229854280Y-118007218D01*
X229854277Y-118007214D01*
X229714926Y-117867863D01*
X229714922Y-117867860D01*
X229551055Y-117758367D01*
X229368980Y-117682950D01*
X229368970Y-117682947D01*
X229249123Y-117659108D01*
X244326641Y-117659108D01*
X244326641Y-117790891D01*
X244360749Y-117918187D01*
X244387646Y-117964773D01*
X244426641Y-118032314D01*
X244519827Y-118125500D01*
X244633955Y-118191392D01*
X244761249Y-118225500D01*
X244761251Y-118225500D01*
X244893031Y-118225500D01*
X244893033Y-118225500D01*
X245020327Y-118191392D01*
X245123001Y-118132112D01*
X245185001Y-118115500D01*
X245878549Y-118115500D01*
X245878551Y-118115500D01*
X245977869Y-118088888D01*
X246066914Y-118037478D01*
X246139619Y-117964773D01*
X246139619Y-117964772D01*
X248100222Y-116004168D01*
X248155804Y-115972077D01*
X248270327Y-115941392D01*
X248384455Y-115875500D01*
X248474960Y-115784995D01*
X248536283Y-115751510D01*
X248605975Y-115756494D01*
X248661908Y-115798366D01*
X248686325Y-115863830D01*
X248686641Y-115872676D01*
X248686641Y-122011887D01*
X248677996Y-122041326D01*
X248671473Y-122071314D01*
X248667718Y-122076329D01*
X248666956Y-122078926D01*
X248650326Y-122099563D01*
X248576304Y-122173586D01*
X248554060Y-122195830D01*
X248498473Y-122227923D01*
X248454779Y-122239630D01*
X248383955Y-122258608D01*
X248383953Y-122258608D01*
X248383953Y-122258609D01*
X248269827Y-122324500D01*
X248269824Y-122324502D01*
X248176643Y-122417683D01*
X248176641Y-122417686D01*
X248110749Y-122531812D01*
X248102099Y-122564095D01*
X248076641Y-122659108D01*
X248076641Y-122790892D01*
X248089361Y-122838364D01*
X248110749Y-122918187D01*
X248127881Y-122947860D01*
X248176641Y-123032314D01*
X248269827Y-123125500D01*
X248383955Y-123191392D01*
X248511249Y-123225500D01*
X248511251Y-123225500D01*
X248643031Y-123225500D01*
X248643033Y-123225500D01*
X248770327Y-123191392D01*
X248884455Y-123125500D01*
X248977641Y-123032314D01*
X249043533Y-122918186D01*
X249074218Y-122803665D01*
X249106309Y-122748082D01*
X249389619Y-122464773D01*
X249441030Y-122375727D01*
X249442866Y-122368873D01*
X249479230Y-122309213D01*
X249542077Y-122278683D01*
X249611452Y-122286977D01*
X249665331Y-122331462D01*
X249686606Y-122398014D01*
X249686641Y-122400966D01*
X249686641Y-127367139D01*
X249670028Y-127429139D01*
X249610750Y-127531810D01*
X249610750Y-127531811D01*
X249576641Y-127659108D01*
X249576641Y-127790891D01*
X249610749Y-127918187D01*
X249643695Y-127975250D01*
X249676641Y-128032314D01*
X249769827Y-128125500D01*
X249883955Y-128191392D01*
X250011249Y-128225500D01*
X250011251Y-128225500D01*
X250143031Y-128225500D01*
X250143033Y-128225500D01*
X250270327Y-128191392D01*
X250384455Y-128125500D01*
X250474960Y-128034995D01*
X250536283Y-128001510D01*
X250605975Y-128006494D01*
X250661908Y-128048366D01*
X250686325Y-128113830D01*
X250686641Y-128122676D01*
X250686641Y-132011887D01*
X250677996Y-132041326D01*
X250671473Y-132071314D01*
X250667718Y-132076329D01*
X250666956Y-132078926D01*
X250650326Y-132099563D01*
X250583913Y-132165977D01*
X250554060Y-132195830D01*
X250498473Y-132227923D01*
X250454779Y-132239630D01*
X250383955Y-132258608D01*
X250383953Y-132258608D01*
X250383953Y-132258609D01*
X250269827Y-132324500D01*
X250269824Y-132324502D01*
X250176643Y-132417683D01*
X250176641Y-132417686D01*
X250110749Y-132531812D01*
X250076641Y-132659108D01*
X250076641Y-132790892D01*
X250093695Y-132854539D01*
X250110749Y-132918187D01*
X250143695Y-132975250D01*
X250176641Y-133032314D01*
X250269827Y-133125500D01*
X250383955Y-133191392D01*
X250511249Y-133225500D01*
X250511251Y-133225500D01*
X250643031Y-133225500D01*
X250643033Y-133225500D01*
X250770327Y-133191392D01*
X250884455Y-133125500D01*
X250977641Y-133032314D01*
X251043533Y-132918186D01*
X251074218Y-132803665D01*
X251106309Y-132748082D01*
X251389619Y-132464773D01*
X251441030Y-132375727D01*
X251467642Y-132276410D01*
X251467642Y-132173590D01*
X251467642Y-132165995D01*
X251467641Y-132165977D01*
X251467641Y-115309108D01*
X261249500Y-115309108D01*
X261249500Y-115440891D01*
X261283608Y-115568187D01*
X261316554Y-115625250D01*
X261349500Y-115682314D01*
X261442686Y-115775500D01*
X261556814Y-115841392D01*
X261684108Y-115875500D01*
X261684110Y-115875500D01*
X261815890Y-115875500D01*
X261815892Y-115875500D01*
X261943186Y-115841392D01*
X262057314Y-115775500D01*
X262150500Y-115682314D01*
X262216392Y-115568186D01*
X262250500Y-115440892D01*
X262250500Y-115309108D01*
X262216392Y-115181814D01*
X262150500Y-115067686D01*
X262057314Y-114974500D01*
X262000250Y-114941554D01*
X261943187Y-114908608D01*
X261879539Y-114891554D01*
X261815892Y-114874500D01*
X261684108Y-114874500D01*
X261556812Y-114908608D01*
X261442686Y-114974500D01*
X261442683Y-114974502D01*
X261349502Y-115067683D01*
X261349500Y-115067686D01*
X261283608Y-115181812D01*
X261249500Y-115309108D01*
X251467641Y-115309108D01*
X251467641Y-112809108D01*
X262749500Y-112809108D01*
X262749500Y-112940891D01*
X262783608Y-113068187D01*
X262792080Y-113082860D01*
X262849500Y-113182314D01*
X262942686Y-113275500D01*
X263056814Y-113341392D01*
X263184108Y-113375500D01*
X263184110Y-113375500D01*
X263315890Y-113375500D01*
X263315892Y-113375500D01*
X263443186Y-113341392D01*
X263557314Y-113275500D01*
X263650500Y-113182314D01*
X263716392Y-113068186D01*
X263750500Y-112940892D01*
X263750500Y-112809108D01*
X263716392Y-112681814D01*
X263650500Y-112567686D01*
X263557314Y-112474500D01*
X263483664Y-112431978D01*
X263443187Y-112408608D01*
X263344304Y-112382113D01*
X263315892Y-112374500D01*
X263184108Y-112374500D01*
X263056812Y-112408608D01*
X262942686Y-112474500D01*
X262942683Y-112474502D01*
X262849502Y-112567683D01*
X262849500Y-112567686D01*
X262783608Y-112681812D01*
X262749500Y-112809108D01*
X251467641Y-112809108D01*
X251467641Y-112082860D01*
X251484253Y-112020860D01*
X251543533Y-111918186D01*
X251577641Y-111790892D01*
X251577641Y-111659108D01*
X251550846Y-111559108D01*
X263999500Y-111559108D01*
X263999500Y-111690892D01*
X264016554Y-111754539D01*
X264033608Y-111818187D01*
X264066554Y-111875250D01*
X264099500Y-111932314D01*
X264192686Y-112025500D01*
X264306814Y-112091392D01*
X264434108Y-112125500D01*
X264434110Y-112125500D01*
X264565890Y-112125500D01*
X264565892Y-112125500D01*
X264693186Y-112091392D01*
X264807314Y-112025500D01*
X264900500Y-111932314D01*
X264966392Y-111818186D01*
X265000500Y-111690892D01*
X265000500Y-111559108D01*
X264966392Y-111431814D01*
X264900500Y-111317686D01*
X264807314Y-111224500D01*
X264750250Y-111191554D01*
X264693187Y-111158608D01*
X264629539Y-111141554D01*
X264565892Y-111124500D01*
X264434108Y-111124500D01*
X264306812Y-111158608D01*
X264192686Y-111224500D01*
X264192683Y-111224502D01*
X264099502Y-111317683D01*
X264099500Y-111317686D01*
X264033608Y-111431812D01*
X264022296Y-111474031D01*
X263999500Y-111559108D01*
X251550846Y-111559108D01*
X251543533Y-111531814D01*
X251477641Y-111417686D01*
X251384455Y-111324500D01*
X251327391Y-111291554D01*
X251270328Y-111258608D01*
X251206680Y-111241554D01*
X251143033Y-111224500D01*
X251011249Y-111224500D01*
X250883953Y-111258608D01*
X250769827Y-111324500D01*
X250769824Y-111324502D01*
X250676643Y-111417683D01*
X250676641Y-111417686D01*
X250610749Y-111531812D01*
X250576641Y-111659108D01*
X250576641Y-111790891D01*
X250610749Y-111918187D01*
X250618907Y-111932316D01*
X250670028Y-112020860D01*
X250674178Y-112036348D01*
X250681618Y-112047925D01*
X250686641Y-112082860D01*
X250686641Y-112327324D01*
X250666956Y-112394363D01*
X250614152Y-112440118D01*
X250544994Y-112450062D01*
X250481438Y-112421037D01*
X250474960Y-112415005D01*
X250384457Y-112324502D01*
X250384455Y-112324500D01*
X250327391Y-112291554D01*
X250270328Y-112258608D01*
X250206680Y-112241554D01*
X250143033Y-112224500D01*
X250011249Y-112224500D01*
X249883953Y-112258608D01*
X249769827Y-112324500D01*
X249769824Y-112324502D01*
X249676643Y-112417683D01*
X249676641Y-112417686D01*
X249610749Y-112531812D01*
X249601138Y-112567683D01*
X249576641Y-112659108D01*
X249576641Y-112790892D01*
X249593695Y-112854539D01*
X249610749Y-112918187D01*
X249623858Y-112940892D01*
X249670028Y-113020860D01*
X249686641Y-113082860D01*
X249686641Y-113827324D01*
X249666956Y-113894363D01*
X249614152Y-113940118D01*
X249544994Y-113950062D01*
X249481438Y-113921037D01*
X249474960Y-113915005D01*
X249384457Y-113824502D01*
X249384455Y-113824500D01*
X249327391Y-113791554D01*
X249270328Y-113758608D01*
X249170318Y-113731811D01*
X249143033Y-113724500D01*
X249011249Y-113724500D01*
X248883953Y-113758608D01*
X248769827Y-113824500D01*
X248769824Y-113824502D01*
X248676643Y-113917683D01*
X248676641Y-113917686D01*
X248610749Y-114031812D01*
X248587606Y-114118185D01*
X248576641Y-114159108D01*
X248576641Y-114290892D01*
X248576975Y-114292139D01*
X248610749Y-114418187D01*
X248640728Y-114470112D01*
X248670028Y-114520860D01*
X248686641Y-114582860D01*
X248686641Y-115077324D01*
X248666956Y-115144363D01*
X248614152Y-115190118D01*
X248544994Y-115200062D01*
X248481438Y-115171037D01*
X248474960Y-115165005D01*
X248384457Y-115074502D01*
X248384455Y-115074500D01*
X248327391Y-115041554D01*
X248270328Y-115008608D01*
X248206680Y-114991554D01*
X248143033Y-114974500D01*
X248011249Y-114974500D01*
X247883953Y-115008608D01*
X247769827Y-115074500D01*
X247769824Y-115074502D01*
X247676643Y-115167683D01*
X247676641Y-115167686D01*
X247610750Y-115281812D01*
X247580064Y-115396332D01*
X247547970Y-115451919D01*
X245701709Y-117298181D01*
X245640386Y-117331666D01*
X245614028Y-117334500D01*
X245185001Y-117334500D01*
X245123001Y-117317887D01*
X245072253Y-117288587D01*
X245020328Y-117258608D01*
X244956680Y-117241554D01*
X244893033Y-117224500D01*
X244761249Y-117224500D01*
X244633953Y-117258608D01*
X244519827Y-117324500D01*
X244519824Y-117324502D01*
X244426643Y-117417683D01*
X244426641Y-117417686D01*
X244360749Y-117531812D01*
X244326641Y-117659108D01*
X229249123Y-117659108D01*
X229175684Y-117644500D01*
X229175682Y-117644500D01*
X228978600Y-117644500D01*
X228978598Y-117644500D01*
X228785311Y-117682947D01*
X228785301Y-117682950D01*
X228603233Y-117758364D01*
X228603220Y-117758371D01*
X228439359Y-117867860D01*
X228439355Y-117867863D01*
X228300004Y-118007214D01*
X228300001Y-118007218D01*
X228190512Y-118171079D01*
X228190505Y-118171092D01*
X228115091Y-118353160D01*
X228115088Y-118353170D01*
X228076641Y-118546456D01*
X228076641Y-118546459D01*
X228076641Y-118743541D01*
X228076641Y-118743543D01*
X228076640Y-118743543D01*
X228115088Y-118936829D01*
X228115091Y-118936839D01*
X228190505Y-119118907D01*
X228190512Y-119118920D01*
X228300001Y-119282781D01*
X228300004Y-119282785D01*
X228439355Y-119422136D01*
X228439359Y-119422139D01*
X228603220Y-119531628D01*
X228603233Y-119531635D01*
X228762955Y-119597793D01*
X228785306Y-119607051D01*
X228917815Y-119633409D01*
X228966202Y-119643034D01*
X229028113Y-119675419D01*
X229062687Y-119736134D01*
X229058948Y-119805904D01*
X229018081Y-119862576D01*
X228961410Y-119887124D01*
X228772722Y-119917010D01*
X228578109Y-119980244D01*
X228395785Y-120073143D01*
X228351218Y-120105523D01*
X228351218Y-120105524D01*
X229030695Y-120785000D01*
X229024480Y-120785000D01*
X228922747Y-120812259D01*
X228831535Y-120864920D01*
X228757061Y-120939394D01*
X228704400Y-121030606D01*
X228677141Y-121132339D01*
X228677141Y-121138553D01*
X227997665Y-120459077D01*
X227997664Y-120459077D01*
X227965284Y-120503644D01*
X227872385Y-120685968D01*
X227809150Y-120880582D01*
X227777141Y-121082682D01*
X227777141Y-121287317D01*
X227809150Y-121489417D01*
X227872385Y-121684031D01*
X227965282Y-121866350D01*
X227965288Y-121866359D01*
X227997664Y-121910921D01*
X227997665Y-121910922D01*
X228677141Y-121231446D01*
X228677141Y-121237661D01*
X228704400Y-121339394D01*
X228757061Y-121430606D01*
X228831535Y-121505080D01*
X228922747Y-121557741D01*
X229024480Y-121585000D01*
X229030694Y-121585000D01*
X228351217Y-122264474D01*
X228395791Y-122296859D01*
X228578109Y-122389755D01*
X228772723Y-122452990D01*
X228961409Y-122482875D01*
X229024544Y-122512804D01*
X229061475Y-122572116D01*
X229060477Y-122641978D01*
X229021867Y-122700211D01*
X228966203Y-122726965D01*
X228785311Y-122762947D01*
X228785301Y-122762950D01*
X228603233Y-122838364D01*
X228603220Y-122838371D01*
X228439359Y-122947860D01*
X228439355Y-122947863D01*
X228300004Y-123087214D01*
X228300001Y-123087218D01*
X228190512Y-123251079D01*
X228190505Y-123251092D01*
X228115091Y-123433160D01*
X228115088Y-123433170D01*
X228076641Y-123626456D01*
X228076641Y-123626459D01*
X228076641Y-123823541D01*
X228076641Y-123823543D01*
X228076640Y-123823543D01*
X228115089Y-124016833D01*
X228115091Y-124016839D01*
X228117935Y-124023706D01*
X228125401Y-124093176D01*
X228094123Y-124155654D01*
X228091053Y-124158835D01*
X226451709Y-125798181D01*
X226390386Y-125831666D01*
X226364028Y-125834500D01*
X218935001Y-125834500D01*
X218873001Y-125817887D01*
X218822253Y-125788587D01*
X218770328Y-125758608D01*
X218706680Y-125741554D01*
X218643033Y-125724500D01*
X218511249Y-125724500D01*
X218383953Y-125758608D01*
X218269827Y-125824500D01*
X218269824Y-125824502D01*
X218176643Y-125917683D01*
X218176641Y-125917686D01*
X218110749Y-126031812D01*
X218076641Y-126159108D01*
X203000000Y-126159108D01*
X203000000Y-121082682D01*
X220157141Y-121082682D01*
X220157141Y-121287317D01*
X220189150Y-121489417D01*
X220252385Y-121684031D01*
X220345282Y-121866350D01*
X220345288Y-121866359D01*
X220377664Y-121910921D01*
X220377665Y-121910922D01*
X221057141Y-121231446D01*
X221057141Y-121237661D01*
X221084400Y-121339394D01*
X221137061Y-121430606D01*
X221211535Y-121505080D01*
X221302747Y-121557741D01*
X221404480Y-121585000D01*
X221410694Y-121585000D01*
X220731217Y-122264474D01*
X220775791Y-122296859D01*
X220958109Y-122389755D01*
X221152723Y-122452990D01*
X221341409Y-122482875D01*
X221404544Y-122512804D01*
X221441475Y-122572116D01*
X221440477Y-122641978D01*
X221401867Y-122700211D01*
X221346203Y-122726965D01*
X221165311Y-122762947D01*
X221165301Y-122762950D01*
X220983233Y-122838364D01*
X220983220Y-122838371D01*
X220819359Y-122947860D01*
X220819355Y-122947863D01*
X220680004Y-123087214D01*
X220680001Y-123087218D01*
X220570512Y-123251079D01*
X220570505Y-123251092D01*
X220495091Y-123433160D01*
X220495088Y-123433170D01*
X220456641Y-123626456D01*
X220456641Y-123626459D01*
X220456641Y-123823541D01*
X220456641Y-123823543D01*
X220456640Y-123823543D01*
X220495088Y-124016829D01*
X220495091Y-124016839D01*
X220570505Y-124198907D01*
X220570512Y-124198920D01*
X220680001Y-124362781D01*
X220680004Y-124362785D01*
X220819355Y-124502136D01*
X220819359Y-124502139D01*
X220983220Y-124611628D01*
X220983233Y-124611635D01*
X221154524Y-124682585D01*
X221165306Y-124687051D01*
X221165310Y-124687051D01*
X221165311Y-124687052D01*
X221358597Y-124725500D01*
X221358600Y-124725500D01*
X221555684Y-124725500D01*
X221685723Y-124699632D01*
X221748976Y-124687051D01*
X221931055Y-124611632D01*
X222094923Y-124502139D01*
X222234280Y-124362782D01*
X222343773Y-124198914D01*
X222419192Y-124016835D01*
X222457641Y-123823541D01*
X222457641Y-123626459D01*
X222457641Y-123626456D01*
X222419193Y-123433170D01*
X222419192Y-123433169D01*
X222419192Y-123433165D01*
X222419190Y-123433160D01*
X222343776Y-123251092D01*
X222343769Y-123251079D01*
X222234280Y-123087218D01*
X222234277Y-123087214D01*
X222094926Y-122947863D01*
X222094922Y-122947860D01*
X221931061Y-122838371D01*
X221931048Y-122838364D01*
X221748980Y-122762950D01*
X221748970Y-122762947D01*
X221568078Y-122726965D01*
X221506167Y-122694580D01*
X221471593Y-122633864D01*
X221475333Y-122564095D01*
X221516200Y-122507423D01*
X221572872Y-122482875D01*
X221761558Y-122452990D01*
X221956172Y-122389755D01*
X222138490Y-122296859D01*
X222183062Y-122264474D01*
X221503588Y-121585000D01*
X221509802Y-121585000D01*
X221611535Y-121557741D01*
X221702747Y-121505080D01*
X221777221Y-121430606D01*
X221829882Y-121339394D01*
X221857141Y-121237661D01*
X221857141Y-121231447D01*
X222536615Y-121910921D01*
X222569000Y-121866349D01*
X222661896Y-121684031D01*
X222725131Y-121489417D01*
X222757141Y-121287317D01*
X222757141Y-121082682D01*
X222725131Y-120880582D01*
X222661896Y-120685968D01*
X222569000Y-120503650D01*
X222536615Y-120459077D01*
X222536615Y-120459076D01*
X221857141Y-121138551D01*
X221857141Y-121132339D01*
X221829882Y-121030606D01*
X221777221Y-120939394D01*
X221702747Y-120864920D01*
X221611535Y-120812259D01*
X221509802Y-120785000D01*
X221503587Y-120785000D01*
X222183063Y-120105524D01*
X222183062Y-120105523D01*
X222138500Y-120073147D01*
X222138491Y-120073141D01*
X221956172Y-119980244D01*
X221761558Y-119917009D01*
X221603484Y-119891973D01*
X221540349Y-119862044D01*
X221503418Y-119802732D01*
X221504416Y-119732870D01*
X221543026Y-119674637D01*
X221606990Y-119646523D01*
X221622882Y-119645500D01*
X222061411Y-119645500D01*
X222091840Y-119642646D01*
X222091842Y-119642646D01*
X222155931Y-119620219D01*
X222220023Y-119597793D01*
X222329291Y-119517150D01*
X222409934Y-119407882D01*
X222432360Y-119343790D01*
X222454787Y-119279701D01*
X222454787Y-119279699D01*
X222457641Y-119249269D01*
X222457641Y-118040730D01*
X222454787Y-118010300D01*
X222454787Y-118010298D01*
X222409934Y-117882119D01*
X222409933Y-117882117D01*
X222399411Y-117867860D01*
X222329291Y-117772850D01*
X222220023Y-117692207D01*
X222220021Y-117692206D01*
X222091841Y-117647353D01*
X222061411Y-117644500D01*
X222061407Y-117644500D01*
X220852875Y-117644500D01*
X220852871Y-117644500D01*
X220822441Y-117647353D01*
X220822439Y-117647353D01*
X220694260Y-117692206D01*
X220694258Y-117692207D01*
X220584991Y-117772850D01*
X220504348Y-117882117D01*
X220504347Y-117882119D01*
X220459494Y-118010298D01*
X220459494Y-118010300D01*
X220456641Y-118040730D01*
X220456641Y-119249269D01*
X220459494Y-119279699D01*
X220459494Y-119279701D01*
X220504347Y-119407880D01*
X220504348Y-119407882D01*
X220584991Y-119517150D01*
X220694259Y-119597793D01*
X220720717Y-119607051D01*
X220822440Y-119642646D01*
X220852871Y-119645500D01*
X221291400Y-119645500D01*
X221358439Y-119665185D01*
X221404194Y-119717989D01*
X221414138Y-119787147D01*
X221385113Y-119850703D01*
X221326335Y-119888477D01*
X221310798Y-119891973D01*
X221152723Y-119917009D01*
X220958109Y-119980244D01*
X220775785Y-120073143D01*
X220731218Y-120105523D01*
X220731218Y-120105524D01*
X221410695Y-120785000D01*
X221404480Y-120785000D01*
X221302747Y-120812259D01*
X221211535Y-120864920D01*
X221137061Y-120939394D01*
X221084400Y-121030606D01*
X221057141Y-121132339D01*
X221057141Y-121138553D01*
X220377665Y-120459077D01*
X220377664Y-120459077D01*
X220345284Y-120503644D01*
X220252385Y-120685968D01*
X220189150Y-120880582D01*
X220157141Y-121082682D01*
X203000000Y-121082682D01*
X203000000Y-110872682D01*
X219967141Y-110872682D01*
X219967141Y-111077317D01*
X219999150Y-111279417D01*
X220062385Y-111474031D01*
X220155282Y-111656350D01*
X220155288Y-111656359D01*
X220187664Y-111700921D01*
X220187665Y-111700922D01*
X220867141Y-111021446D01*
X220867141Y-111027661D01*
X220894400Y-111129394D01*
X220947061Y-111220606D01*
X221021535Y-111295080D01*
X221112747Y-111347741D01*
X221214480Y-111375000D01*
X221220694Y-111375000D01*
X220541217Y-112054474D01*
X220585791Y-112086859D01*
X220768109Y-112179755D01*
X220962723Y-112242990D01*
X221151409Y-112272875D01*
X221214544Y-112302804D01*
X221251475Y-112362116D01*
X221250477Y-112431978D01*
X221211867Y-112490211D01*
X221156203Y-112516965D01*
X220975311Y-112552947D01*
X220975301Y-112552950D01*
X220793233Y-112628364D01*
X220793220Y-112628371D01*
X220629359Y-112737860D01*
X220629355Y-112737863D01*
X220490004Y-112877214D01*
X220490001Y-112877218D01*
X220380512Y-113041079D01*
X220380505Y-113041092D01*
X220305091Y-113223160D01*
X220305088Y-113223170D01*
X220266641Y-113416456D01*
X220266641Y-113416459D01*
X220266641Y-113613541D01*
X220266641Y-113613543D01*
X220266640Y-113613543D01*
X220305088Y-113806829D01*
X220305091Y-113806839D01*
X220380505Y-113988907D01*
X220380512Y-113988920D01*
X220490001Y-114152781D01*
X220490004Y-114152785D01*
X220629355Y-114292136D01*
X220629359Y-114292139D01*
X220793220Y-114401628D01*
X220793233Y-114401635D01*
X220975301Y-114477049D01*
X220975306Y-114477051D01*
X220975310Y-114477051D01*
X220975311Y-114477052D01*
X221168597Y-114515500D01*
X221168600Y-114515500D01*
X221365684Y-114515500D01*
X221495723Y-114489632D01*
X221558976Y-114477051D01*
X221741055Y-114401632D01*
X221904923Y-114292139D01*
X222044280Y-114152782D01*
X222153773Y-113988914D01*
X222229192Y-113806835D01*
X222252721Y-113688550D01*
X222267641Y-113613543D01*
X222267641Y-113416456D01*
X222229193Y-113223170D01*
X222229192Y-113223169D01*
X222229192Y-113223165D01*
X222187150Y-113121666D01*
X222153776Y-113041092D01*
X222153769Y-113041079D01*
X222044280Y-112877218D01*
X222044277Y-112877214D01*
X221904926Y-112737863D01*
X221904922Y-112737860D01*
X221741061Y-112628371D01*
X221741048Y-112628364D01*
X221558980Y-112552950D01*
X221558970Y-112552947D01*
X221378078Y-112516965D01*
X221316167Y-112484580D01*
X221281593Y-112423864D01*
X221285333Y-112354095D01*
X221326200Y-112297423D01*
X221382872Y-112272875D01*
X221571558Y-112242990D01*
X221766172Y-112179755D01*
X221948490Y-112086859D01*
X221993062Y-112054474D01*
X221313588Y-111375000D01*
X221319802Y-111375000D01*
X221421535Y-111347741D01*
X221512747Y-111295080D01*
X221587221Y-111220606D01*
X221639882Y-111129394D01*
X221667141Y-111027661D01*
X221667141Y-111021447D01*
X222346615Y-111700921D01*
X222379000Y-111656349D01*
X222471896Y-111474031D01*
X222535131Y-111279417D01*
X222567141Y-111077317D01*
X222567141Y-110872682D01*
X222535131Y-110670582D01*
X222471896Y-110475968D01*
X222379000Y-110293650D01*
X222346615Y-110249077D01*
X222346615Y-110249076D01*
X221667141Y-110928551D01*
X221667141Y-110922339D01*
X221639882Y-110820606D01*
X221587221Y-110729394D01*
X221512747Y-110654920D01*
X221421535Y-110602259D01*
X221319802Y-110575000D01*
X221313587Y-110575000D01*
X221993063Y-109895524D01*
X221993062Y-109895523D01*
X221948500Y-109863147D01*
X221948491Y-109863141D01*
X221766172Y-109770244D01*
X221571558Y-109707009D01*
X221413484Y-109681973D01*
X221350349Y-109652044D01*
X221313418Y-109592732D01*
X221314416Y-109522870D01*
X221353026Y-109464637D01*
X221416990Y-109436523D01*
X221432882Y-109435500D01*
X221871411Y-109435500D01*
X221901840Y-109432646D01*
X221901842Y-109432646D01*
X221965931Y-109410219D01*
X222030023Y-109387793D01*
X222139291Y-109307150D01*
X222219934Y-109197882D01*
X222242360Y-109133790D01*
X222264787Y-109069701D01*
X222264787Y-109069699D01*
X222267641Y-109039269D01*
X222267641Y-107830730D01*
X222264787Y-107800300D01*
X222264787Y-107800298D01*
X222219934Y-107672119D01*
X222219933Y-107672117D01*
X222209411Y-107657860D01*
X222139291Y-107562850D01*
X222030023Y-107482207D01*
X222030021Y-107482206D01*
X221901841Y-107437353D01*
X221871411Y-107434500D01*
X221871407Y-107434500D01*
X220662875Y-107434500D01*
X220662871Y-107434500D01*
X220632441Y-107437353D01*
X220632439Y-107437353D01*
X220504260Y-107482206D01*
X220504258Y-107482207D01*
X220394991Y-107562850D01*
X220314348Y-107672117D01*
X220314347Y-107672119D01*
X220269494Y-107800298D01*
X220269494Y-107800300D01*
X220266641Y-107830730D01*
X220266641Y-109039269D01*
X220269494Y-109069699D01*
X220269494Y-109069701D01*
X220314347Y-109197880D01*
X220314348Y-109197882D01*
X220394991Y-109307150D01*
X220504259Y-109387793D01*
X220530717Y-109397051D01*
X220632440Y-109432646D01*
X220662871Y-109435500D01*
X221101400Y-109435500D01*
X221168439Y-109455185D01*
X221214194Y-109507989D01*
X221224138Y-109577147D01*
X221195113Y-109640703D01*
X221136335Y-109678477D01*
X221120798Y-109681973D01*
X220962723Y-109707009D01*
X220768109Y-109770244D01*
X220585785Y-109863143D01*
X220541218Y-109895523D01*
X220541218Y-109895524D01*
X221220695Y-110575000D01*
X221214480Y-110575000D01*
X221112747Y-110602259D01*
X221021535Y-110654920D01*
X220947061Y-110729394D01*
X220894400Y-110820606D01*
X220867141Y-110922339D01*
X220867141Y-110928553D01*
X220187665Y-110249077D01*
X220187664Y-110249077D01*
X220155284Y-110293644D01*
X220062385Y-110475968D01*
X219999150Y-110670582D01*
X219967141Y-110872682D01*
X203000000Y-110872682D01*
X203000000Y-107659108D01*
X216826641Y-107659108D01*
X216826641Y-107790892D01*
X216837317Y-107830734D01*
X216860749Y-107918187D01*
X216885513Y-107961079D01*
X216926641Y-108032314D01*
X217019827Y-108125500D01*
X217133955Y-108191392D01*
X217261249Y-108225500D01*
X217261251Y-108225500D01*
X217393031Y-108225500D01*
X217393033Y-108225500D01*
X217520327Y-108191392D01*
X217634455Y-108125500D01*
X217727641Y-108032314D01*
X217793533Y-107918186D01*
X217824218Y-107803663D01*
X217832234Y-107789779D01*
X217835160Y-107776333D01*
X217856308Y-107748082D01*
X220202572Y-105401819D01*
X220263895Y-105368334D01*
X220290253Y-105365500D01*
X230469281Y-105365500D01*
X230531280Y-105382112D01*
X230633955Y-105441392D01*
X230761249Y-105475500D01*
X230761251Y-105475500D01*
X230893031Y-105475500D01*
X230893033Y-105475500D01*
X231020327Y-105441392D01*
X231134455Y-105375500D01*
X231227641Y-105282314D01*
X231293533Y-105168186D01*
X231327641Y-105040892D01*
X231327641Y-104909108D01*
X231293533Y-104781814D01*
X231227641Y-104667686D01*
X231134455Y-104574500D01*
X231077391Y-104541554D01*
X231020328Y-104508608D01*
X230956680Y-104491554D01*
X230893033Y-104474500D01*
X230761249Y-104474500D01*
X230633953Y-104508608D01*
X230564983Y-104548428D01*
X230531280Y-104567887D01*
X230469281Y-104584500D01*
X220025731Y-104584500D01*
X219926413Y-104611112D01*
X219926410Y-104611113D01*
X219837371Y-104662519D01*
X219837366Y-104662523D01*
X219764661Y-104735229D01*
X217304060Y-107195829D01*
X217248473Y-107227923D01*
X217204779Y-107239630D01*
X217133955Y-107258608D01*
X217133953Y-107258608D01*
X217133953Y-107258609D01*
X217019827Y-107324500D01*
X217019824Y-107324502D01*
X216926643Y-107417683D01*
X216926641Y-107417686D01*
X216860749Y-107531812D01*
X216852433Y-107562850D01*
X216826641Y-107659108D01*
X203000000Y-107659108D01*
X203000000Y-102409108D01*
X219576641Y-102409108D01*
X219576641Y-102540891D01*
X219610749Y-102668187D01*
X219643695Y-102725250D01*
X219676641Y-102782314D01*
X219769827Y-102875500D01*
X219883955Y-102941392D01*
X220011249Y-102975500D01*
X220011251Y-102975500D01*
X220143031Y-102975500D01*
X220143033Y-102975500D01*
X220270327Y-102941392D01*
X220373001Y-102882112D01*
X220435001Y-102865500D01*
X230969281Y-102865500D01*
X231031280Y-102882112D01*
X231133955Y-102941392D01*
X231248473Y-102972076D01*
X231304060Y-103004170D01*
X232650322Y-104350432D01*
X232683807Y-104411755D01*
X232686641Y-104438113D01*
X232686641Y-111261887D01*
X232666956Y-111328926D01*
X232650322Y-111349568D01*
X230911709Y-113088181D01*
X230850386Y-113121666D01*
X230824028Y-113124500D01*
X229891178Y-113124500D01*
X229824139Y-113104815D01*
X229778384Y-113052011D01*
X229776615Y-113047948D01*
X229773773Y-113041086D01*
X229773771Y-113041083D01*
X229773769Y-113041079D01*
X229664280Y-112877218D01*
X229664277Y-112877214D01*
X229524926Y-112737863D01*
X229524922Y-112737860D01*
X229361061Y-112628371D01*
X229361048Y-112628364D01*
X229178980Y-112552950D01*
X229178970Y-112552947D01*
X228998078Y-112516965D01*
X228936167Y-112484580D01*
X228901593Y-112423864D01*
X228905333Y-112354095D01*
X228946200Y-112297423D01*
X229002872Y-112272875D01*
X229191558Y-112242990D01*
X229386172Y-112179755D01*
X229568490Y-112086859D01*
X229613062Y-112054474D01*
X228933588Y-111375000D01*
X228939802Y-111375000D01*
X229041535Y-111347741D01*
X229132747Y-111295080D01*
X229207221Y-111220606D01*
X229259882Y-111129394D01*
X229287141Y-111027661D01*
X229287141Y-111021447D01*
X229966615Y-111700921D01*
X229999000Y-111656349D01*
X230091896Y-111474031D01*
X230155131Y-111279417D01*
X230187141Y-111077317D01*
X230187141Y-110872682D01*
X230155131Y-110670582D01*
X230091896Y-110475968D01*
X229999000Y-110293650D01*
X229966615Y-110249077D01*
X229966615Y-110249076D01*
X229287141Y-110928551D01*
X229287141Y-110922339D01*
X229259882Y-110820606D01*
X229207221Y-110729394D01*
X229132747Y-110654920D01*
X229041535Y-110602259D01*
X228939802Y-110575000D01*
X228933587Y-110575000D01*
X229613063Y-109895524D01*
X229613062Y-109895523D01*
X229568500Y-109863147D01*
X229568491Y-109863141D01*
X229386172Y-109770244D01*
X229191558Y-109707009D01*
X229002872Y-109677124D01*
X228939737Y-109647194D01*
X228902806Y-109587883D01*
X228903804Y-109518020D01*
X228942414Y-109459788D01*
X228998079Y-109433034D01*
X229000030Y-109432646D01*
X229178976Y-109397051D01*
X229361055Y-109321632D01*
X229524923Y-109212139D01*
X229664280Y-109072782D01*
X229773773Y-108908914D01*
X229849192Y-108726835D01*
X229887641Y-108533541D01*
X229887641Y-108336459D01*
X229887641Y-108336456D01*
X229849193Y-108143170D01*
X229849192Y-108143169D01*
X229849192Y-108143165D01*
X229841874Y-108125497D01*
X229773776Y-107961092D01*
X229773769Y-107961079D01*
X229664280Y-107797218D01*
X229664277Y-107797214D01*
X229524926Y-107657863D01*
X229524922Y-107657860D01*
X229361061Y-107548371D01*
X229361048Y-107548364D01*
X229178980Y-107472950D01*
X229178970Y-107472947D01*
X228985684Y-107434500D01*
X228985682Y-107434500D01*
X228788600Y-107434500D01*
X228788598Y-107434500D01*
X228595311Y-107472947D01*
X228595301Y-107472950D01*
X228413233Y-107548364D01*
X228413220Y-107548371D01*
X228249359Y-107657860D01*
X228249355Y-107657863D01*
X228110004Y-107797214D01*
X228110001Y-107797218D01*
X228000512Y-107961079D01*
X228000505Y-107961092D01*
X227925091Y-108143160D01*
X227925088Y-108143170D01*
X227886641Y-108336456D01*
X227886641Y-108336459D01*
X227886641Y-108533541D01*
X227886641Y-108533543D01*
X227886640Y-108533543D01*
X227925088Y-108726829D01*
X227925091Y-108726839D01*
X228000505Y-108908907D01*
X228000512Y-108908920D01*
X228110001Y-109072781D01*
X228110004Y-109072785D01*
X228249355Y-109212136D01*
X228249359Y-109212139D01*
X228413220Y-109321628D01*
X228413233Y-109321635D01*
X228572955Y-109387793D01*
X228595306Y-109397051D01*
X228727815Y-109423409D01*
X228776202Y-109433034D01*
X228838113Y-109465419D01*
X228872687Y-109526134D01*
X228868948Y-109595904D01*
X228828081Y-109652576D01*
X228771410Y-109677124D01*
X228582722Y-109707010D01*
X228388109Y-109770244D01*
X228205785Y-109863143D01*
X228161218Y-109895523D01*
X228161218Y-109895524D01*
X228840695Y-110575000D01*
X228834480Y-110575000D01*
X228732747Y-110602259D01*
X228641535Y-110654920D01*
X228567061Y-110729394D01*
X228514400Y-110820606D01*
X228487141Y-110922339D01*
X228487141Y-110928553D01*
X227807665Y-110249077D01*
X227807664Y-110249077D01*
X227775284Y-110293644D01*
X227682385Y-110475968D01*
X227619150Y-110670582D01*
X227587141Y-110872682D01*
X227587141Y-111077317D01*
X227619150Y-111279417D01*
X227682385Y-111474031D01*
X227775282Y-111656350D01*
X227775288Y-111656359D01*
X227807664Y-111700921D01*
X227807665Y-111700922D01*
X228487141Y-111021446D01*
X228487141Y-111027661D01*
X228514400Y-111129394D01*
X228567061Y-111220606D01*
X228641535Y-111295080D01*
X228732747Y-111347741D01*
X228834480Y-111375000D01*
X228840694Y-111375000D01*
X228161217Y-112054474D01*
X228205791Y-112086859D01*
X228388109Y-112179755D01*
X228582723Y-112242990D01*
X228771409Y-112272875D01*
X228834544Y-112302804D01*
X228871475Y-112362116D01*
X228870477Y-112431978D01*
X228831867Y-112490211D01*
X228776203Y-112516965D01*
X228595311Y-112552947D01*
X228595301Y-112552950D01*
X228413233Y-112628364D01*
X228413220Y-112628371D01*
X228249359Y-112737860D01*
X228249355Y-112737863D01*
X228110004Y-112877214D01*
X228110001Y-112877218D01*
X228000512Y-113041079D01*
X228000505Y-113041092D01*
X227925091Y-113223160D01*
X227925088Y-113223170D01*
X227886641Y-113416456D01*
X227886641Y-113416459D01*
X227886641Y-113613541D01*
X227886641Y-113613543D01*
X227886640Y-113613543D01*
X227925088Y-113806829D01*
X227925091Y-113806839D01*
X228000505Y-113988907D01*
X228000512Y-113988920D01*
X228110001Y-114152781D01*
X228110004Y-114152785D01*
X228249355Y-114292136D01*
X228249359Y-114292139D01*
X228413220Y-114401628D01*
X228413233Y-114401635D01*
X228595301Y-114477049D01*
X228595306Y-114477051D01*
X228595310Y-114477051D01*
X228595311Y-114477052D01*
X228788597Y-114515500D01*
X228788600Y-114515500D01*
X228985684Y-114515500D01*
X229115723Y-114489632D01*
X229178976Y-114477051D01*
X229361055Y-114401632D01*
X229524923Y-114292139D01*
X229664280Y-114152782D01*
X229773773Y-113988914D01*
X229776615Y-113982051D01*
X229820454Y-113927647D01*
X229886747Y-113905579D01*
X229891178Y-113905500D01*
X231088549Y-113905500D01*
X231088551Y-113905500D01*
X231187869Y-113878888D01*
X231276914Y-113827478D01*
X231349619Y-113754773D01*
X233195284Y-111909108D01*
X244076641Y-111909108D01*
X244076641Y-112040892D01*
X244080280Y-112054474D01*
X244110749Y-112168187D01*
X244117428Y-112179755D01*
X244176641Y-112282314D01*
X244269827Y-112375500D01*
X244383955Y-112441392D01*
X244511249Y-112475500D01*
X244511251Y-112475500D01*
X244643031Y-112475500D01*
X244643033Y-112475500D01*
X244770327Y-112441392D01*
X244873001Y-112382112D01*
X244935001Y-112365500D01*
X246469281Y-112365500D01*
X246531280Y-112382112D01*
X246592890Y-112417683D01*
X246617649Y-112431978D01*
X246633955Y-112441392D01*
X246761249Y-112475500D01*
X246761251Y-112475500D01*
X246893031Y-112475500D01*
X246893033Y-112475500D01*
X247020327Y-112441392D01*
X247134455Y-112375500D01*
X247227641Y-112282314D01*
X247293533Y-112168186D01*
X247327641Y-112040892D01*
X247327641Y-111909108D01*
X247293533Y-111781814D01*
X247227641Y-111667686D01*
X247134455Y-111574500D01*
X247060521Y-111531814D01*
X247020328Y-111508608D01*
X246956680Y-111491554D01*
X246893033Y-111474500D01*
X246761249Y-111474500D01*
X246633953Y-111508608D01*
X246564983Y-111548428D01*
X246531280Y-111567887D01*
X246469281Y-111584500D01*
X244935001Y-111584500D01*
X244873001Y-111567887D01*
X244810521Y-111531814D01*
X244770328Y-111508608D01*
X244706680Y-111491554D01*
X244643033Y-111474500D01*
X244511249Y-111474500D01*
X244383953Y-111508608D01*
X244269827Y-111574500D01*
X244269824Y-111574502D01*
X244176643Y-111667683D01*
X244176641Y-111667686D01*
X244110749Y-111781812D01*
X244102312Y-111813300D01*
X244076641Y-111909108D01*
X233195284Y-111909108D01*
X233389619Y-111714773D01*
X233441030Y-111625727D01*
X233467642Y-111526410D01*
X233467642Y-111423590D01*
X233467642Y-111415995D01*
X233467641Y-111415977D01*
X233467641Y-104173592D01*
X233467641Y-104173590D01*
X233441029Y-104074272D01*
X233389619Y-103985227D01*
X233316914Y-103912522D01*
X231856311Y-102451919D01*
X231824217Y-102396331D01*
X231793532Y-102281812D01*
X231784704Y-102266521D01*
X231727641Y-102167686D01*
X231634455Y-102074500D01*
X231577391Y-102041554D01*
X231520328Y-102008608D01*
X231456680Y-101991554D01*
X231393033Y-101974500D01*
X231261249Y-101974500D01*
X231133953Y-102008608D01*
X231064983Y-102048428D01*
X231031280Y-102067887D01*
X230969281Y-102084500D01*
X220435001Y-102084500D01*
X220373001Y-102067887D01*
X220322253Y-102038587D01*
X220270328Y-102008608D01*
X220206680Y-101991554D01*
X220143033Y-101974500D01*
X220011249Y-101974500D01*
X219883953Y-102008608D01*
X219769827Y-102074500D01*
X219769824Y-102074502D01*
X219676643Y-102167683D01*
X219676641Y-102167686D01*
X219610749Y-102281812D01*
X219576641Y-102409108D01*
X203000000Y-102409108D01*
X203000000Y-85409108D01*
X230145750Y-85409108D01*
X230145750Y-85540891D01*
X230179858Y-85668187D01*
X230212804Y-85725250D01*
X230245750Y-85782314D01*
X230338936Y-85875500D01*
X230453064Y-85941392D01*
X230580358Y-85975500D01*
X230580360Y-85975500D01*
X230712140Y-85975500D01*
X230712142Y-85975500D01*
X230839436Y-85941392D01*
X230953564Y-85875500D01*
X231046750Y-85782314D01*
X231112642Y-85668186D01*
X231143327Y-85553663D01*
X231175418Y-85498081D01*
X231625813Y-85047685D01*
X231625818Y-85047682D01*
X231636021Y-85037478D01*
X231636023Y-85037478D01*
X231708728Y-84964773D01*
X231760138Y-84875728D01*
X231786750Y-84776410D01*
X231786750Y-68332860D01*
X231803362Y-68270860D01*
X231862642Y-68168186D01*
X231896750Y-68040892D01*
X231896750Y-67909108D01*
X231862642Y-67781814D01*
X231796750Y-67667686D01*
X231703564Y-67574500D01*
X231646500Y-67541554D01*
X231589437Y-67508608D01*
X231525789Y-67491554D01*
X231462142Y-67474500D01*
X231330358Y-67474500D01*
X231203062Y-67508608D01*
X231088936Y-67574500D01*
X231088933Y-67574502D01*
X230995752Y-67667683D01*
X230995750Y-67667686D01*
X230929858Y-67781812D01*
X230895750Y-67909108D01*
X230895750Y-68040891D01*
X230929858Y-68168187D01*
X230940625Y-68186835D01*
X230989137Y-68270860D01*
X231005750Y-68332860D01*
X231005750Y-84511887D01*
X230986065Y-84578926D01*
X230969431Y-84599568D01*
X230623169Y-84945829D01*
X230567582Y-84977923D01*
X230523888Y-84989630D01*
X230453064Y-85008608D01*
X230453062Y-85008608D01*
X230453062Y-85008609D01*
X230338936Y-85074500D01*
X230338933Y-85074502D01*
X230245752Y-85167683D01*
X230245750Y-85167686D01*
X230179858Y-85281812D01*
X230145750Y-85409108D01*
X203000000Y-85409108D01*
X203000000Y-75409108D01*
X217645750Y-75409108D01*
X217645750Y-75540891D01*
X217679858Y-75668187D01*
X217706755Y-75714773D01*
X217745750Y-75782314D01*
X217838936Y-75875500D01*
X217953064Y-75941392D01*
X218080358Y-75975500D01*
X218080360Y-75975500D01*
X218212140Y-75975500D01*
X218212142Y-75975500D01*
X218339436Y-75941392D01*
X218442110Y-75882112D01*
X218504110Y-75865500D01*
X226197658Y-75865500D01*
X226197660Y-75865500D01*
X226296978Y-75838888D01*
X226386023Y-75787478D01*
X226458728Y-75714773D01*
X228212415Y-73961084D01*
X228273736Y-73927601D01*
X228343427Y-73932585D01*
X228347543Y-73934205D01*
X228354409Y-73937049D01*
X228354411Y-73937049D01*
X228354415Y-73937051D01*
X228401746Y-73946465D01*
X228547706Y-73975500D01*
X228547709Y-73975500D01*
X228744793Y-73975500D01*
X228874832Y-73949632D01*
X228938085Y-73937051D01*
X229120164Y-73861632D01*
X229284032Y-73752139D01*
X229423389Y-73612782D01*
X229532882Y-73448914D01*
X229608301Y-73266835D01*
X229646750Y-73073541D01*
X229646750Y-72876459D01*
X229646750Y-72876456D01*
X229608302Y-72683170D01*
X229608301Y-72683169D01*
X229608301Y-72683165D01*
X229608299Y-72683160D01*
X229532885Y-72501092D01*
X229532878Y-72501079D01*
X229423389Y-72337218D01*
X229423386Y-72337214D01*
X229284035Y-72197863D01*
X229284031Y-72197860D01*
X229120170Y-72088371D01*
X229120157Y-72088364D01*
X228938089Y-72012950D01*
X228938079Y-72012947D01*
X228757187Y-71976965D01*
X228695276Y-71944580D01*
X228660702Y-71883864D01*
X228664442Y-71814095D01*
X228705309Y-71757423D01*
X228761981Y-71732875D01*
X228950667Y-71702990D01*
X229145281Y-71639755D01*
X229327599Y-71546859D01*
X229372171Y-71514474D01*
X228692697Y-70835000D01*
X228698911Y-70835000D01*
X228800644Y-70807741D01*
X228891856Y-70755080D01*
X228966330Y-70680606D01*
X229018991Y-70589394D01*
X229046250Y-70487661D01*
X229046250Y-70481447D01*
X229725724Y-71160921D01*
X229758109Y-71116349D01*
X229851005Y-70934031D01*
X229914240Y-70739417D01*
X229946250Y-70537317D01*
X229946250Y-70332682D01*
X229914240Y-70130582D01*
X229851005Y-69935968D01*
X229758109Y-69753650D01*
X229725724Y-69709077D01*
X229725724Y-69709076D01*
X229046250Y-70388551D01*
X229046250Y-70382339D01*
X229018991Y-70280606D01*
X228966330Y-70189394D01*
X228891856Y-70114920D01*
X228800644Y-70062259D01*
X228698911Y-70035000D01*
X228692696Y-70035000D01*
X229372172Y-69355524D01*
X229372171Y-69355523D01*
X229327609Y-69323147D01*
X229327600Y-69323141D01*
X229145281Y-69230244D01*
X228950667Y-69167009D01*
X228761981Y-69137124D01*
X228698846Y-69107194D01*
X228661915Y-69047883D01*
X228662913Y-68978020D01*
X228701523Y-68919788D01*
X228757188Y-68893034D01*
X228759139Y-68892646D01*
X228938085Y-68857051D01*
X229120164Y-68781632D01*
X229284032Y-68672139D01*
X229423389Y-68532782D01*
X229532882Y-68368914D01*
X229608301Y-68186835D01*
X229637331Y-68040892D01*
X229646750Y-67993543D01*
X229646750Y-67796456D01*
X229608302Y-67603170D01*
X229608301Y-67603169D01*
X229608301Y-67603165D01*
X229608299Y-67603160D01*
X229532885Y-67421092D01*
X229532878Y-67421079D01*
X229423389Y-67257218D01*
X229423386Y-67257214D01*
X229284035Y-67117863D01*
X229284031Y-67117860D01*
X229120164Y-67008367D01*
X228938089Y-66932950D01*
X228938079Y-66932947D01*
X228818232Y-66909108D01*
X243895750Y-66909108D01*
X243895750Y-67040891D01*
X243929858Y-67168187D01*
X243956755Y-67214773D01*
X243995750Y-67282314D01*
X244088936Y-67375500D01*
X244203064Y-67441392D01*
X244330358Y-67475500D01*
X244330360Y-67475500D01*
X244462140Y-67475500D01*
X244462142Y-67475500D01*
X244589436Y-67441392D01*
X244692110Y-67382112D01*
X244754110Y-67365500D01*
X245447658Y-67365500D01*
X245447660Y-67365500D01*
X245546978Y-67338888D01*
X245636023Y-67287478D01*
X245708728Y-67214773D01*
X245708728Y-67214772D01*
X247669331Y-65254168D01*
X247724913Y-65222077D01*
X247839436Y-65191392D01*
X247953564Y-65125500D01*
X248044069Y-65034995D01*
X248105392Y-65001510D01*
X248175084Y-65006494D01*
X248231017Y-65048366D01*
X248255434Y-65113830D01*
X248255750Y-65122676D01*
X248255750Y-71261887D01*
X248247105Y-71291326D01*
X248240582Y-71321314D01*
X248236827Y-71326329D01*
X248236065Y-71328926D01*
X248219435Y-71349563D01*
X248145413Y-71423586D01*
X248123169Y-71445830D01*
X248067582Y-71477923D01*
X248023888Y-71489630D01*
X247953064Y-71508608D01*
X247953062Y-71508608D01*
X247953062Y-71508609D01*
X247838936Y-71574500D01*
X247838933Y-71574502D01*
X247745752Y-71667683D01*
X247745750Y-71667686D01*
X247679858Y-71781812D01*
X247671208Y-71814095D01*
X247645750Y-71909108D01*
X247645750Y-72040892D01*
X247658470Y-72088364D01*
X247679858Y-72168187D01*
X247696990Y-72197860D01*
X247745750Y-72282314D01*
X247838936Y-72375500D01*
X247953064Y-72441392D01*
X248080358Y-72475500D01*
X248080360Y-72475500D01*
X248212140Y-72475500D01*
X248212142Y-72475500D01*
X248339436Y-72441392D01*
X248453564Y-72375500D01*
X248546750Y-72282314D01*
X248612642Y-72168186D01*
X248643327Y-72053665D01*
X248675418Y-71998082D01*
X248958728Y-71714773D01*
X249010139Y-71625727D01*
X249011975Y-71618873D01*
X249048339Y-71559213D01*
X249111186Y-71528683D01*
X249180561Y-71536977D01*
X249234440Y-71581462D01*
X249255715Y-71648014D01*
X249255750Y-71650966D01*
X249255750Y-76617139D01*
X249239137Y-76679139D01*
X249179859Y-76781810D01*
X249179859Y-76781811D01*
X249145750Y-76909108D01*
X249145750Y-77040891D01*
X249179858Y-77168187D01*
X249212804Y-77225250D01*
X249245750Y-77282314D01*
X249338936Y-77375500D01*
X249453064Y-77441392D01*
X249580358Y-77475500D01*
X249580360Y-77475500D01*
X249712140Y-77475500D01*
X249712142Y-77475500D01*
X249839436Y-77441392D01*
X249953564Y-77375500D01*
X250044069Y-77284995D01*
X250105392Y-77251510D01*
X250175084Y-77256494D01*
X250231017Y-77298366D01*
X250255434Y-77363830D01*
X250255750Y-77372676D01*
X250255750Y-81261887D01*
X250247105Y-81291326D01*
X250240582Y-81321314D01*
X250236827Y-81326329D01*
X250236065Y-81328926D01*
X250219435Y-81349563D01*
X250153022Y-81415977D01*
X250123169Y-81445830D01*
X250067582Y-81477923D01*
X250023888Y-81489630D01*
X249953064Y-81508608D01*
X249953062Y-81508608D01*
X249953062Y-81508609D01*
X249838936Y-81574500D01*
X249838933Y-81574502D01*
X249745752Y-81667683D01*
X249745750Y-81667686D01*
X249679858Y-81781812D01*
X249645750Y-81909108D01*
X249645750Y-82040892D01*
X249662804Y-82104539D01*
X249679858Y-82168187D01*
X249712804Y-82225250D01*
X249745750Y-82282314D01*
X249838936Y-82375500D01*
X249953064Y-82441392D01*
X250080358Y-82475500D01*
X250080360Y-82475500D01*
X250212140Y-82475500D01*
X250212142Y-82475500D01*
X250339436Y-82441392D01*
X250453564Y-82375500D01*
X250546750Y-82282314D01*
X250612642Y-82168186D01*
X250643327Y-82053665D01*
X250675418Y-81998082D01*
X250958728Y-81714773D01*
X251010139Y-81625727D01*
X251036751Y-81526410D01*
X251036751Y-81423590D01*
X251036751Y-81415995D01*
X251036750Y-81415977D01*
X251036750Y-64309108D01*
X261249500Y-64309108D01*
X261249500Y-64440891D01*
X261283608Y-64568187D01*
X261316554Y-64625250D01*
X261349500Y-64682314D01*
X261442686Y-64775500D01*
X261556814Y-64841392D01*
X261684108Y-64875500D01*
X261684110Y-64875500D01*
X261815890Y-64875500D01*
X261815892Y-64875500D01*
X261943186Y-64841392D01*
X262057314Y-64775500D01*
X262150500Y-64682314D01*
X262216392Y-64568186D01*
X262250500Y-64440892D01*
X262250500Y-64309108D01*
X262216392Y-64181814D01*
X262150500Y-64067686D01*
X262057314Y-63974500D01*
X262000250Y-63941554D01*
X261943187Y-63908608D01*
X261879539Y-63891554D01*
X261815892Y-63874500D01*
X261684108Y-63874500D01*
X261556812Y-63908608D01*
X261442686Y-63974500D01*
X261442683Y-63974502D01*
X261349502Y-64067683D01*
X261349500Y-64067686D01*
X261283608Y-64181812D01*
X261249500Y-64309108D01*
X251036750Y-64309108D01*
X251036750Y-63309108D01*
X259999500Y-63309108D01*
X259999500Y-63440891D01*
X260033608Y-63568187D01*
X260066554Y-63625250D01*
X260099500Y-63682314D01*
X260192686Y-63775500D01*
X260306814Y-63841392D01*
X260434108Y-63875500D01*
X260434110Y-63875500D01*
X260565890Y-63875500D01*
X260565892Y-63875500D01*
X260693186Y-63841392D01*
X260807314Y-63775500D01*
X260900500Y-63682314D01*
X260966392Y-63568186D01*
X261000500Y-63440892D01*
X261000500Y-63309108D01*
X260966392Y-63181814D01*
X260900500Y-63067686D01*
X260807314Y-62974500D01*
X260750250Y-62941554D01*
X260693187Y-62908608D01*
X260629539Y-62891554D01*
X260565892Y-62874500D01*
X260434108Y-62874500D01*
X260306812Y-62908608D01*
X260192686Y-62974500D01*
X260192683Y-62974502D01*
X260099502Y-63067683D01*
X260099500Y-63067686D01*
X260033608Y-63181812D01*
X259999500Y-63309108D01*
X251036750Y-63309108D01*
X251036750Y-62059108D01*
X262749500Y-62059108D01*
X262749500Y-62190891D01*
X262783608Y-62318187D01*
X262792080Y-62332860D01*
X262849500Y-62432314D01*
X262942686Y-62525500D01*
X263056814Y-62591392D01*
X263184108Y-62625500D01*
X263184110Y-62625500D01*
X263315890Y-62625500D01*
X263315892Y-62625500D01*
X263443186Y-62591392D01*
X263557314Y-62525500D01*
X263650500Y-62432314D01*
X263716392Y-62318186D01*
X263750500Y-62190892D01*
X263750500Y-62059108D01*
X263716392Y-61931814D01*
X263650500Y-61817686D01*
X263557314Y-61724500D01*
X263483664Y-61681978D01*
X263443187Y-61658608D01*
X263344304Y-61632113D01*
X263315892Y-61624500D01*
X263184108Y-61624500D01*
X263056812Y-61658608D01*
X262942686Y-61724500D01*
X262942683Y-61724502D01*
X262849502Y-61817683D01*
X262849500Y-61817686D01*
X262783608Y-61931812D01*
X262749500Y-62059108D01*
X251036750Y-62059108D01*
X251036750Y-61332860D01*
X251053362Y-61270860D01*
X251112642Y-61168186D01*
X251146750Y-61040892D01*
X251146750Y-60909108D01*
X251119955Y-60809108D01*
X263999500Y-60809108D01*
X263999500Y-60940892D01*
X264016554Y-61004539D01*
X264033608Y-61068187D01*
X264066554Y-61125250D01*
X264099500Y-61182314D01*
X264192686Y-61275500D01*
X264306814Y-61341392D01*
X264434108Y-61375500D01*
X264434110Y-61375500D01*
X264565890Y-61375500D01*
X264565892Y-61375500D01*
X264693186Y-61341392D01*
X264807314Y-61275500D01*
X264900500Y-61182314D01*
X264966392Y-61068186D01*
X265000500Y-60940892D01*
X265000500Y-60809108D01*
X264966392Y-60681814D01*
X264900500Y-60567686D01*
X264807314Y-60474500D01*
X264750250Y-60441554D01*
X264693187Y-60408608D01*
X264629539Y-60391554D01*
X264565892Y-60374500D01*
X264434108Y-60374500D01*
X264306812Y-60408608D01*
X264192686Y-60474500D01*
X264192683Y-60474502D01*
X264099502Y-60567683D01*
X264099500Y-60567686D01*
X264033608Y-60681812D01*
X264022296Y-60724031D01*
X263999500Y-60809108D01*
X251119955Y-60809108D01*
X251112642Y-60781814D01*
X251046750Y-60667686D01*
X250953564Y-60574500D01*
X250896500Y-60541554D01*
X250839437Y-60508608D01*
X250775789Y-60491554D01*
X250712142Y-60474500D01*
X250580358Y-60474500D01*
X250453062Y-60508608D01*
X250338936Y-60574500D01*
X250338933Y-60574502D01*
X250245752Y-60667683D01*
X250245750Y-60667686D01*
X250179858Y-60781812D01*
X250145750Y-60909108D01*
X250145750Y-61040891D01*
X250179858Y-61168187D01*
X250188016Y-61182316D01*
X250239137Y-61270860D01*
X250243287Y-61286348D01*
X250250727Y-61297925D01*
X250255750Y-61332860D01*
X250255750Y-61577324D01*
X250236065Y-61644363D01*
X250183261Y-61690118D01*
X250114103Y-61700062D01*
X250050547Y-61671037D01*
X250044069Y-61665005D01*
X249953566Y-61574502D01*
X249953564Y-61574500D01*
X249896500Y-61541554D01*
X249839437Y-61508608D01*
X249775789Y-61491554D01*
X249712142Y-61474500D01*
X249580358Y-61474500D01*
X249453062Y-61508608D01*
X249338936Y-61574500D01*
X249338933Y-61574502D01*
X249245752Y-61667683D01*
X249245750Y-61667686D01*
X249179858Y-61781812D01*
X249170247Y-61817683D01*
X249145750Y-61909108D01*
X249145750Y-62040892D01*
X249162804Y-62104539D01*
X249179858Y-62168187D01*
X249192967Y-62190892D01*
X249239137Y-62270860D01*
X249255750Y-62332860D01*
X249255750Y-63077324D01*
X249236065Y-63144363D01*
X249183261Y-63190118D01*
X249114103Y-63200062D01*
X249050547Y-63171037D01*
X249044069Y-63165005D01*
X248953566Y-63074502D01*
X248953564Y-63074500D01*
X248896500Y-63041554D01*
X248839437Y-63008608D01*
X248775789Y-62991554D01*
X248712142Y-62974500D01*
X248580358Y-62974500D01*
X248453062Y-63008608D01*
X248338936Y-63074500D01*
X248338933Y-63074502D01*
X248245752Y-63167683D01*
X248245750Y-63167686D01*
X248179858Y-63281812D01*
X248172544Y-63309110D01*
X248145750Y-63409108D01*
X248145750Y-63540892D01*
X248146084Y-63542139D01*
X248179858Y-63668187D01*
X248188016Y-63682316D01*
X248239137Y-63770860D01*
X248255750Y-63832860D01*
X248255750Y-64327324D01*
X248236065Y-64394363D01*
X248183261Y-64440118D01*
X248114103Y-64450062D01*
X248050547Y-64421037D01*
X248044069Y-64415005D01*
X247953566Y-64324502D01*
X247953564Y-64324500D01*
X247896500Y-64291554D01*
X247839437Y-64258608D01*
X247775789Y-64241554D01*
X247712142Y-64224500D01*
X247580358Y-64224500D01*
X247453062Y-64258608D01*
X247338936Y-64324500D01*
X247338933Y-64324502D01*
X247245752Y-64417683D01*
X247245750Y-64417686D01*
X247179859Y-64531812D01*
X247149173Y-64646332D01*
X247117079Y-64701919D01*
X245270818Y-66548181D01*
X245209495Y-66581666D01*
X245183137Y-66584500D01*
X244754110Y-66584500D01*
X244692110Y-66567887D01*
X244641362Y-66538587D01*
X244589437Y-66508608D01*
X244525789Y-66491554D01*
X244462142Y-66474500D01*
X244330358Y-66474500D01*
X244203062Y-66508608D01*
X244088936Y-66574500D01*
X244088933Y-66574502D01*
X243995752Y-66667683D01*
X243995750Y-66667686D01*
X243929858Y-66781812D01*
X243895750Y-66909108D01*
X228818232Y-66909108D01*
X228744793Y-66894500D01*
X228744791Y-66894500D01*
X228547709Y-66894500D01*
X228547707Y-66894500D01*
X228354420Y-66932947D01*
X228354410Y-66932950D01*
X228172342Y-67008364D01*
X228172329Y-67008371D01*
X228008468Y-67117860D01*
X228008464Y-67117863D01*
X227869113Y-67257214D01*
X227869110Y-67257218D01*
X227759621Y-67421079D01*
X227759614Y-67421092D01*
X227684200Y-67603160D01*
X227684197Y-67603170D01*
X227645750Y-67796456D01*
X227645750Y-67796459D01*
X227645750Y-67993541D01*
X227645750Y-67993543D01*
X227645749Y-67993543D01*
X227684197Y-68186829D01*
X227684200Y-68186839D01*
X227759614Y-68368907D01*
X227759621Y-68368920D01*
X227869110Y-68532781D01*
X227869113Y-68532785D01*
X228008464Y-68672136D01*
X228008468Y-68672139D01*
X228172329Y-68781628D01*
X228172342Y-68781635D01*
X228332064Y-68847793D01*
X228354415Y-68857051D01*
X228486924Y-68883409D01*
X228535311Y-68893034D01*
X228597222Y-68925419D01*
X228631796Y-68986134D01*
X228628057Y-69055904D01*
X228587190Y-69112576D01*
X228530519Y-69137124D01*
X228341831Y-69167010D01*
X228147218Y-69230244D01*
X227964894Y-69323143D01*
X227920327Y-69355523D01*
X227920327Y-69355524D01*
X228599804Y-70035000D01*
X228593589Y-70035000D01*
X228491856Y-70062259D01*
X228400644Y-70114920D01*
X228326170Y-70189394D01*
X228273509Y-70280606D01*
X228246250Y-70382339D01*
X228246250Y-70388553D01*
X227566774Y-69709077D01*
X227566773Y-69709077D01*
X227534393Y-69753644D01*
X227441494Y-69935968D01*
X227378259Y-70130582D01*
X227346250Y-70332682D01*
X227346250Y-70537317D01*
X227378259Y-70739417D01*
X227441494Y-70934031D01*
X227534391Y-71116350D01*
X227534397Y-71116359D01*
X227566773Y-71160921D01*
X227566774Y-71160922D01*
X228246250Y-70481446D01*
X228246250Y-70487661D01*
X228273509Y-70589394D01*
X228326170Y-70680606D01*
X228400644Y-70755080D01*
X228491856Y-70807741D01*
X228593589Y-70835000D01*
X228599803Y-70835000D01*
X227920326Y-71514474D01*
X227964900Y-71546859D01*
X228147218Y-71639755D01*
X228341832Y-71702990D01*
X228530518Y-71732875D01*
X228593653Y-71762804D01*
X228630584Y-71822116D01*
X228629586Y-71891978D01*
X228590976Y-71950211D01*
X228535312Y-71976965D01*
X228354420Y-72012947D01*
X228354410Y-72012950D01*
X228172342Y-72088364D01*
X228172329Y-72088371D01*
X228008468Y-72197860D01*
X228008464Y-72197863D01*
X227869113Y-72337214D01*
X227869110Y-72337218D01*
X227759621Y-72501079D01*
X227759614Y-72501092D01*
X227684200Y-72683160D01*
X227684197Y-72683170D01*
X227645750Y-72876456D01*
X227645750Y-72876459D01*
X227645750Y-73073541D01*
X227645750Y-73073543D01*
X227645749Y-73073543D01*
X227684198Y-73266833D01*
X227684200Y-73266839D01*
X227687044Y-73273706D01*
X227694510Y-73343176D01*
X227663232Y-73405654D01*
X227660162Y-73408835D01*
X226020818Y-75048181D01*
X225959495Y-75081666D01*
X225933137Y-75084500D01*
X218504110Y-75084500D01*
X218442110Y-75067887D01*
X218391362Y-75038587D01*
X218339437Y-75008608D01*
X218275789Y-74991554D01*
X218212142Y-74974500D01*
X218080358Y-74974500D01*
X217953062Y-75008608D01*
X217838936Y-75074500D01*
X217838933Y-75074502D01*
X217745752Y-75167683D01*
X217745750Y-75167686D01*
X217679858Y-75281812D01*
X217645750Y-75409108D01*
X203000000Y-75409108D01*
X203000000Y-70332682D01*
X219726250Y-70332682D01*
X219726250Y-70537317D01*
X219758259Y-70739417D01*
X219821494Y-70934031D01*
X219914391Y-71116350D01*
X219914397Y-71116359D01*
X219946773Y-71160921D01*
X219946774Y-71160922D01*
X220626250Y-70481446D01*
X220626250Y-70487661D01*
X220653509Y-70589394D01*
X220706170Y-70680606D01*
X220780644Y-70755080D01*
X220871856Y-70807741D01*
X220973589Y-70835000D01*
X220979803Y-70835000D01*
X220300326Y-71514474D01*
X220344900Y-71546859D01*
X220527218Y-71639755D01*
X220721832Y-71702990D01*
X220910518Y-71732875D01*
X220973653Y-71762804D01*
X221010584Y-71822116D01*
X221009586Y-71891978D01*
X220970976Y-71950211D01*
X220915312Y-71976965D01*
X220734420Y-72012947D01*
X220734410Y-72012950D01*
X220552342Y-72088364D01*
X220552329Y-72088371D01*
X220388468Y-72197860D01*
X220388464Y-72197863D01*
X220249113Y-72337214D01*
X220249110Y-72337218D01*
X220139621Y-72501079D01*
X220139614Y-72501092D01*
X220064200Y-72683160D01*
X220064197Y-72683170D01*
X220025750Y-72876456D01*
X220025750Y-72876459D01*
X220025750Y-73073541D01*
X220025750Y-73073543D01*
X220025749Y-73073543D01*
X220064197Y-73266829D01*
X220064200Y-73266839D01*
X220139614Y-73448907D01*
X220139621Y-73448920D01*
X220249110Y-73612781D01*
X220249113Y-73612785D01*
X220388464Y-73752136D01*
X220388468Y-73752139D01*
X220552329Y-73861628D01*
X220552342Y-73861635D01*
X220723633Y-73932585D01*
X220734415Y-73937051D01*
X220734419Y-73937051D01*
X220734420Y-73937052D01*
X220927706Y-73975500D01*
X220927709Y-73975500D01*
X221124793Y-73975500D01*
X221254832Y-73949632D01*
X221318085Y-73937051D01*
X221500164Y-73861632D01*
X221664032Y-73752139D01*
X221803389Y-73612782D01*
X221912882Y-73448914D01*
X221988301Y-73266835D01*
X222026750Y-73073541D01*
X222026750Y-72876459D01*
X222026750Y-72876456D01*
X221988302Y-72683170D01*
X221988301Y-72683169D01*
X221988301Y-72683165D01*
X221988299Y-72683160D01*
X221912885Y-72501092D01*
X221912878Y-72501079D01*
X221803389Y-72337218D01*
X221803386Y-72337214D01*
X221664035Y-72197863D01*
X221664031Y-72197860D01*
X221500170Y-72088371D01*
X221500157Y-72088364D01*
X221318089Y-72012950D01*
X221318079Y-72012947D01*
X221137187Y-71976965D01*
X221075276Y-71944580D01*
X221040702Y-71883864D01*
X221044442Y-71814095D01*
X221085309Y-71757423D01*
X221141981Y-71732875D01*
X221330667Y-71702990D01*
X221525281Y-71639755D01*
X221707599Y-71546859D01*
X221752171Y-71514474D01*
X221072697Y-70835000D01*
X221078911Y-70835000D01*
X221180644Y-70807741D01*
X221271856Y-70755080D01*
X221346330Y-70680606D01*
X221398991Y-70589394D01*
X221426250Y-70487661D01*
X221426250Y-70481447D01*
X222105724Y-71160921D01*
X222138109Y-71116349D01*
X222231005Y-70934031D01*
X222294240Y-70739417D01*
X222326250Y-70537317D01*
X222326250Y-70332682D01*
X222294240Y-70130582D01*
X222231005Y-69935968D01*
X222138109Y-69753650D01*
X222105724Y-69709077D01*
X222105724Y-69709076D01*
X221426250Y-70388551D01*
X221426250Y-70382339D01*
X221398991Y-70280606D01*
X221346330Y-70189394D01*
X221271856Y-70114920D01*
X221180644Y-70062259D01*
X221078911Y-70035000D01*
X221072696Y-70035000D01*
X221752172Y-69355524D01*
X221752171Y-69355523D01*
X221707609Y-69323147D01*
X221707600Y-69323141D01*
X221525281Y-69230244D01*
X221330667Y-69167009D01*
X221172593Y-69141973D01*
X221109458Y-69112044D01*
X221072527Y-69052732D01*
X221073525Y-68982870D01*
X221112135Y-68924637D01*
X221176099Y-68896523D01*
X221191991Y-68895500D01*
X221630520Y-68895500D01*
X221660949Y-68892646D01*
X221660951Y-68892646D01*
X221725040Y-68870219D01*
X221789132Y-68847793D01*
X221898400Y-68767150D01*
X221979043Y-68657882D01*
X222001469Y-68593790D01*
X222023896Y-68529701D01*
X222023896Y-68529699D01*
X222026750Y-68499269D01*
X222026750Y-67290730D01*
X222023896Y-67260300D01*
X222023896Y-67260298D01*
X221979043Y-67132119D01*
X221979042Y-67132117D01*
X221968520Y-67117860D01*
X221898400Y-67022850D01*
X221789132Y-66942207D01*
X221789130Y-66942206D01*
X221660950Y-66897353D01*
X221630520Y-66894500D01*
X221630516Y-66894500D01*
X220421984Y-66894500D01*
X220421980Y-66894500D01*
X220391550Y-66897353D01*
X220391548Y-66897353D01*
X220263369Y-66942206D01*
X220263367Y-66942207D01*
X220154100Y-67022850D01*
X220073457Y-67132117D01*
X220073456Y-67132119D01*
X220028603Y-67260298D01*
X220028603Y-67260300D01*
X220025750Y-67290730D01*
X220025750Y-68499269D01*
X220028603Y-68529699D01*
X220028603Y-68529701D01*
X220073456Y-68657880D01*
X220073457Y-68657882D01*
X220154100Y-68767150D01*
X220263368Y-68847793D01*
X220289826Y-68857051D01*
X220391549Y-68892646D01*
X220421980Y-68895500D01*
X220860509Y-68895500D01*
X220927548Y-68915185D01*
X220973303Y-68967989D01*
X220983247Y-69037147D01*
X220954222Y-69100703D01*
X220895444Y-69138477D01*
X220879907Y-69141973D01*
X220721832Y-69167009D01*
X220527218Y-69230244D01*
X220344894Y-69323143D01*
X220300327Y-69355523D01*
X220300327Y-69355524D01*
X220979804Y-70035000D01*
X220973589Y-70035000D01*
X220871856Y-70062259D01*
X220780644Y-70114920D01*
X220706170Y-70189394D01*
X220653509Y-70280606D01*
X220626250Y-70382339D01*
X220626250Y-70388553D01*
X219946774Y-69709077D01*
X219946773Y-69709077D01*
X219914393Y-69753644D01*
X219821494Y-69935968D01*
X219758259Y-70130582D01*
X219726250Y-70332682D01*
X203000000Y-70332682D01*
X203000000Y-60122682D01*
X219536250Y-60122682D01*
X219536250Y-60327317D01*
X219568259Y-60529417D01*
X219631494Y-60724031D01*
X219724391Y-60906350D01*
X219724397Y-60906359D01*
X219756773Y-60950921D01*
X219756774Y-60950922D01*
X220436250Y-60271446D01*
X220436250Y-60277661D01*
X220463509Y-60379394D01*
X220516170Y-60470606D01*
X220590644Y-60545080D01*
X220681856Y-60597741D01*
X220783589Y-60625000D01*
X220789803Y-60625000D01*
X220110326Y-61304474D01*
X220154900Y-61336859D01*
X220337218Y-61429755D01*
X220531832Y-61492990D01*
X220720518Y-61522875D01*
X220783653Y-61552804D01*
X220820584Y-61612116D01*
X220819586Y-61681978D01*
X220780976Y-61740211D01*
X220725312Y-61766965D01*
X220544420Y-61802947D01*
X220544410Y-61802950D01*
X220362342Y-61878364D01*
X220362329Y-61878371D01*
X220198468Y-61987860D01*
X220198464Y-61987863D01*
X220059113Y-62127214D01*
X220059110Y-62127218D01*
X219949621Y-62291079D01*
X219949614Y-62291092D01*
X219874200Y-62473160D01*
X219874197Y-62473170D01*
X219835750Y-62666456D01*
X219835750Y-62666459D01*
X219835750Y-62863541D01*
X219835750Y-62863543D01*
X219835749Y-62863543D01*
X219874197Y-63056829D01*
X219874200Y-63056839D01*
X219949614Y-63238907D01*
X219949621Y-63238920D01*
X220059110Y-63402781D01*
X220059113Y-63402785D01*
X220198464Y-63542136D01*
X220198468Y-63542139D01*
X220362329Y-63651628D01*
X220362342Y-63651635D01*
X220436409Y-63682314D01*
X220544415Y-63727051D01*
X220544419Y-63727051D01*
X220544420Y-63727052D01*
X220737706Y-63765500D01*
X220737709Y-63765500D01*
X220934793Y-63765500D01*
X221064832Y-63739632D01*
X221128085Y-63727051D01*
X221310164Y-63651632D01*
X221474032Y-63542139D01*
X221613389Y-63402782D01*
X221722882Y-63238914D01*
X221798301Y-63056835D01*
X221836750Y-62863541D01*
X221836750Y-62666459D01*
X221836750Y-62666456D01*
X221798302Y-62473170D01*
X221798301Y-62473169D01*
X221798301Y-62473165D01*
X221756259Y-62371666D01*
X221722885Y-62291092D01*
X221722878Y-62291079D01*
X221613389Y-62127218D01*
X221613386Y-62127214D01*
X221474035Y-61987863D01*
X221474031Y-61987860D01*
X221310170Y-61878371D01*
X221310157Y-61878364D01*
X221128089Y-61802950D01*
X221128079Y-61802947D01*
X220947187Y-61766965D01*
X220885276Y-61734580D01*
X220850702Y-61673864D01*
X220854442Y-61604095D01*
X220895309Y-61547423D01*
X220951981Y-61522875D01*
X221140667Y-61492990D01*
X221335281Y-61429755D01*
X221517599Y-61336859D01*
X221562171Y-61304474D01*
X220882697Y-60625000D01*
X220888911Y-60625000D01*
X220990644Y-60597741D01*
X221081856Y-60545080D01*
X221156330Y-60470606D01*
X221208991Y-60379394D01*
X221236250Y-60277661D01*
X221236250Y-60271447D01*
X221915724Y-60950921D01*
X221948109Y-60906349D01*
X222041005Y-60724031D01*
X222104240Y-60529417D01*
X222136250Y-60327317D01*
X222136250Y-60122682D01*
X222104240Y-59920582D01*
X222041005Y-59725968D01*
X221948109Y-59543650D01*
X221915724Y-59499077D01*
X221915724Y-59499076D01*
X221236250Y-60178551D01*
X221236250Y-60172339D01*
X221208991Y-60070606D01*
X221156330Y-59979394D01*
X221081856Y-59904920D01*
X220990644Y-59852259D01*
X220888911Y-59825000D01*
X220882696Y-59825000D01*
X221562172Y-59145524D01*
X221562171Y-59145523D01*
X221517609Y-59113147D01*
X221517600Y-59113141D01*
X221335281Y-59020244D01*
X221140667Y-58957009D01*
X220982593Y-58931973D01*
X220919458Y-58902044D01*
X220882527Y-58842732D01*
X220883525Y-58772870D01*
X220922135Y-58714637D01*
X220986099Y-58686523D01*
X221001991Y-58685500D01*
X221440520Y-58685500D01*
X221470949Y-58682646D01*
X221470951Y-58682646D01*
X221535040Y-58660219D01*
X221599132Y-58637793D01*
X221708400Y-58557150D01*
X221789043Y-58447882D01*
X221811469Y-58383790D01*
X221833896Y-58319701D01*
X221833896Y-58319699D01*
X221836750Y-58289269D01*
X221836750Y-57080730D01*
X221833896Y-57050300D01*
X221833896Y-57050298D01*
X221789043Y-56922119D01*
X221789042Y-56922117D01*
X221778520Y-56907860D01*
X221708400Y-56812850D01*
X221599132Y-56732207D01*
X221599130Y-56732206D01*
X221470950Y-56687353D01*
X221440520Y-56684500D01*
X221440516Y-56684500D01*
X220231984Y-56684500D01*
X220231980Y-56684500D01*
X220201550Y-56687353D01*
X220201548Y-56687353D01*
X220073369Y-56732206D01*
X220073367Y-56732207D01*
X219964100Y-56812850D01*
X219883457Y-56922117D01*
X219883456Y-56922119D01*
X219838603Y-57050298D01*
X219838603Y-57050300D01*
X219835750Y-57080730D01*
X219835750Y-58289269D01*
X219838603Y-58319699D01*
X219838603Y-58319701D01*
X219883456Y-58447880D01*
X219883457Y-58447882D01*
X219964100Y-58557150D01*
X220073368Y-58637793D01*
X220099826Y-58647051D01*
X220201549Y-58682646D01*
X220231980Y-58685500D01*
X220670509Y-58685500D01*
X220737548Y-58705185D01*
X220783303Y-58757989D01*
X220793247Y-58827147D01*
X220764222Y-58890703D01*
X220705444Y-58928477D01*
X220689907Y-58931973D01*
X220531832Y-58957009D01*
X220337218Y-59020244D01*
X220154894Y-59113143D01*
X220110327Y-59145523D01*
X220110327Y-59145524D01*
X220789804Y-59825000D01*
X220783589Y-59825000D01*
X220681856Y-59852259D01*
X220590644Y-59904920D01*
X220516170Y-59979394D01*
X220463509Y-60070606D01*
X220436250Y-60172339D01*
X220436250Y-60178553D01*
X219756774Y-59499077D01*
X219756773Y-59499077D01*
X219724393Y-59543644D01*
X219631494Y-59725968D01*
X219568259Y-59920582D01*
X219536250Y-60122682D01*
X203000000Y-60122682D01*
X203000000Y-56909108D01*
X216395750Y-56909108D01*
X216395750Y-57040892D01*
X216406426Y-57080734D01*
X216429858Y-57168187D01*
X216454622Y-57211079D01*
X216495750Y-57282314D01*
X216588936Y-57375500D01*
X216703064Y-57441392D01*
X216830358Y-57475500D01*
X216830360Y-57475500D01*
X216962140Y-57475500D01*
X216962142Y-57475500D01*
X217089436Y-57441392D01*
X217203564Y-57375500D01*
X217296750Y-57282314D01*
X217362642Y-57168186D01*
X217393327Y-57053663D01*
X217401343Y-57039779D01*
X217404269Y-57026333D01*
X217425417Y-56998082D01*
X219771681Y-54651819D01*
X219833004Y-54618334D01*
X219859362Y-54615500D01*
X230038390Y-54615500D01*
X230100389Y-54632112D01*
X230203064Y-54691392D01*
X230330358Y-54725500D01*
X230330360Y-54725500D01*
X230462140Y-54725500D01*
X230462142Y-54725500D01*
X230589436Y-54691392D01*
X230703564Y-54625500D01*
X230796750Y-54532314D01*
X230862642Y-54418186D01*
X230896750Y-54290892D01*
X230896750Y-54159108D01*
X230862642Y-54031814D01*
X230796750Y-53917686D01*
X230703564Y-53824500D01*
X230646500Y-53791554D01*
X230589437Y-53758608D01*
X230525789Y-53741554D01*
X230462142Y-53724500D01*
X230330358Y-53724500D01*
X230203062Y-53758608D01*
X230134092Y-53798428D01*
X230100389Y-53817887D01*
X230038390Y-53834500D01*
X219594840Y-53834500D01*
X219495522Y-53861112D01*
X219495519Y-53861113D01*
X219406480Y-53912519D01*
X219406475Y-53912523D01*
X219333770Y-53985229D01*
X216873169Y-56445829D01*
X216817582Y-56477923D01*
X216773888Y-56489630D01*
X216703064Y-56508608D01*
X216703062Y-56508608D01*
X216703062Y-56508609D01*
X216588936Y-56574500D01*
X216588933Y-56574502D01*
X216495752Y-56667683D01*
X216495750Y-56667686D01*
X216429858Y-56781812D01*
X216421542Y-56812850D01*
X216395750Y-56909108D01*
X203000000Y-56909108D01*
X203000000Y-51659108D01*
X219145750Y-51659108D01*
X219145750Y-51790891D01*
X219179858Y-51918187D01*
X219212804Y-51975250D01*
X219245750Y-52032314D01*
X219338936Y-52125500D01*
X219453064Y-52191392D01*
X219580358Y-52225500D01*
X219580360Y-52225500D01*
X219712140Y-52225500D01*
X219712142Y-52225500D01*
X219839436Y-52191392D01*
X219942110Y-52132112D01*
X220004110Y-52115500D01*
X230538390Y-52115500D01*
X230600389Y-52132112D01*
X230703064Y-52191392D01*
X230817582Y-52222076D01*
X230873169Y-52254170D01*
X232219431Y-53600432D01*
X232252916Y-53661755D01*
X232255750Y-53688113D01*
X232255750Y-60511887D01*
X232236065Y-60578926D01*
X232219431Y-60599568D01*
X230480818Y-62338181D01*
X230419495Y-62371666D01*
X230393137Y-62374500D01*
X229460287Y-62374500D01*
X229393248Y-62354815D01*
X229347493Y-62302011D01*
X229345724Y-62297948D01*
X229342882Y-62291086D01*
X229342880Y-62291083D01*
X229342878Y-62291079D01*
X229233389Y-62127218D01*
X229233386Y-62127214D01*
X229094035Y-61987863D01*
X229094031Y-61987860D01*
X228930170Y-61878371D01*
X228930157Y-61878364D01*
X228748089Y-61802950D01*
X228748079Y-61802947D01*
X228567187Y-61766965D01*
X228505276Y-61734580D01*
X228470702Y-61673864D01*
X228474442Y-61604095D01*
X228515309Y-61547423D01*
X228571981Y-61522875D01*
X228760667Y-61492990D01*
X228955281Y-61429755D01*
X229137599Y-61336859D01*
X229182171Y-61304474D01*
X228502697Y-60625000D01*
X228508911Y-60625000D01*
X228610644Y-60597741D01*
X228701856Y-60545080D01*
X228776330Y-60470606D01*
X228828991Y-60379394D01*
X228856250Y-60277661D01*
X228856250Y-60271447D01*
X229535724Y-60950921D01*
X229568109Y-60906349D01*
X229661005Y-60724031D01*
X229724240Y-60529417D01*
X229756250Y-60327317D01*
X229756250Y-60122682D01*
X229724240Y-59920582D01*
X229661005Y-59725968D01*
X229568109Y-59543650D01*
X229535724Y-59499077D01*
X229535724Y-59499076D01*
X228856250Y-60178551D01*
X228856250Y-60172339D01*
X228828991Y-60070606D01*
X228776330Y-59979394D01*
X228701856Y-59904920D01*
X228610644Y-59852259D01*
X228508911Y-59825000D01*
X228502696Y-59825000D01*
X229182172Y-59145524D01*
X229182171Y-59145523D01*
X229137609Y-59113147D01*
X229137600Y-59113141D01*
X228955281Y-59020244D01*
X228760667Y-58957009D01*
X228571981Y-58927124D01*
X228508846Y-58897194D01*
X228471915Y-58837883D01*
X228472913Y-58768020D01*
X228511523Y-58709788D01*
X228567188Y-58683034D01*
X228569139Y-58682646D01*
X228748085Y-58647051D01*
X228930164Y-58571632D01*
X229094032Y-58462139D01*
X229233389Y-58322782D01*
X229342882Y-58158914D01*
X229418301Y-57976835D01*
X229456750Y-57783541D01*
X229456750Y-57586459D01*
X229456750Y-57586456D01*
X229418302Y-57393170D01*
X229418301Y-57393169D01*
X229418301Y-57393165D01*
X229410983Y-57375497D01*
X229342885Y-57211092D01*
X229342878Y-57211079D01*
X229233389Y-57047218D01*
X229233386Y-57047214D01*
X229094035Y-56907863D01*
X229094031Y-56907860D01*
X228930170Y-56798371D01*
X228930157Y-56798364D01*
X228748089Y-56722950D01*
X228748079Y-56722947D01*
X228554793Y-56684500D01*
X228554791Y-56684500D01*
X228357709Y-56684500D01*
X228357707Y-56684500D01*
X228164420Y-56722947D01*
X228164410Y-56722950D01*
X227982342Y-56798364D01*
X227982329Y-56798371D01*
X227818468Y-56907860D01*
X227818464Y-56907863D01*
X227679113Y-57047214D01*
X227679110Y-57047218D01*
X227569621Y-57211079D01*
X227569614Y-57211092D01*
X227494200Y-57393160D01*
X227494197Y-57393170D01*
X227455750Y-57586456D01*
X227455750Y-57586459D01*
X227455750Y-57783541D01*
X227455750Y-57783543D01*
X227455749Y-57783543D01*
X227494197Y-57976829D01*
X227494200Y-57976839D01*
X227569614Y-58158907D01*
X227569621Y-58158920D01*
X227679110Y-58322781D01*
X227679113Y-58322785D01*
X227818464Y-58462136D01*
X227818468Y-58462139D01*
X227982329Y-58571628D01*
X227982342Y-58571635D01*
X228142064Y-58637793D01*
X228164415Y-58647051D01*
X228296924Y-58673409D01*
X228345311Y-58683034D01*
X228407222Y-58715419D01*
X228441796Y-58776134D01*
X228438057Y-58845904D01*
X228397190Y-58902576D01*
X228340519Y-58927124D01*
X228151831Y-58957010D01*
X227957218Y-59020244D01*
X227774894Y-59113143D01*
X227730327Y-59145523D01*
X227730327Y-59145524D01*
X228409804Y-59825000D01*
X228403589Y-59825000D01*
X228301856Y-59852259D01*
X228210644Y-59904920D01*
X228136170Y-59979394D01*
X228083509Y-60070606D01*
X228056250Y-60172339D01*
X228056250Y-60178553D01*
X227376774Y-59499077D01*
X227376773Y-59499077D01*
X227344393Y-59543644D01*
X227251494Y-59725968D01*
X227188259Y-59920582D01*
X227156250Y-60122682D01*
X227156250Y-60327317D01*
X227188259Y-60529417D01*
X227251494Y-60724031D01*
X227344391Y-60906350D01*
X227344397Y-60906359D01*
X227376773Y-60950921D01*
X227376774Y-60950922D01*
X228056250Y-60271446D01*
X228056250Y-60277661D01*
X228083509Y-60379394D01*
X228136170Y-60470606D01*
X228210644Y-60545080D01*
X228301856Y-60597741D01*
X228403589Y-60625000D01*
X228409803Y-60625000D01*
X227730326Y-61304474D01*
X227774900Y-61336859D01*
X227957218Y-61429755D01*
X228151832Y-61492990D01*
X228340518Y-61522875D01*
X228403653Y-61552804D01*
X228440584Y-61612116D01*
X228439586Y-61681978D01*
X228400976Y-61740211D01*
X228345312Y-61766965D01*
X228164420Y-61802947D01*
X228164410Y-61802950D01*
X227982342Y-61878364D01*
X227982329Y-61878371D01*
X227818468Y-61987860D01*
X227818464Y-61987863D01*
X227679113Y-62127214D01*
X227679110Y-62127218D01*
X227569621Y-62291079D01*
X227569614Y-62291092D01*
X227494200Y-62473160D01*
X227494197Y-62473170D01*
X227455750Y-62666456D01*
X227455750Y-62666459D01*
X227455750Y-62863541D01*
X227455750Y-62863543D01*
X227455749Y-62863543D01*
X227494197Y-63056829D01*
X227494200Y-63056839D01*
X227569614Y-63238907D01*
X227569621Y-63238920D01*
X227679110Y-63402781D01*
X227679113Y-63402785D01*
X227818464Y-63542136D01*
X227818468Y-63542139D01*
X227982329Y-63651628D01*
X227982342Y-63651635D01*
X228056409Y-63682314D01*
X228164415Y-63727051D01*
X228164419Y-63727051D01*
X228164420Y-63727052D01*
X228357706Y-63765500D01*
X228357709Y-63765500D01*
X228554793Y-63765500D01*
X228684832Y-63739632D01*
X228748085Y-63727051D01*
X228930164Y-63651632D01*
X229094032Y-63542139D01*
X229233389Y-63402782D01*
X229342882Y-63238914D01*
X229345724Y-63232051D01*
X229389563Y-63177647D01*
X229455856Y-63155579D01*
X229460287Y-63155500D01*
X230657658Y-63155500D01*
X230657660Y-63155500D01*
X230756978Y-63128888D01*
X230846023Y-63077478D01*
X230918728Y-63004773D01*
X232764393Y-61159108D01*
X243645750Y-61159108D01*
X243645750Y-61290892D01*
X243649389Y-61304474D01*
X243679858Y-61418187D01*
X243686537Y-61429755D01*
X243745750Y-61532314D01*
X243838936Y-61625500D01*
X243953064Y-61691392D01*
X244080358Y-61725500D01*
X244080360Y-61725500D01*
X244212140Y-61725500D01*
X244212142Y-61725500D01*
X244339436Y-61691392D01*
X244442110Y-61632112D01*
X244504110Y-61615500D01*
X246038390Y-61615500D01*
X246100389Y-61632112D01*
X246161999Y-61667683D01*
X246186758Y-61681978D01*
X246203064Y-61691392D01*
X246330358Y-61725500D01*
X246330360Y-61725500D01*
X246462140Y-61725500D01*
X246462142Y-61725500D01*
X246589436Y-61691392D01*
X246703564Y-61625500D01*
X246796750Y-61532314D01*
X246862642Y-61418186D01*
X246896750Y-61290892D01*
X246896750Y-61159108D01*
X246862642Y-61031814D01*
X246796750Y-60917686D01*
X246703564Y-60824500D01*
X246629630Y-60781814D01*
X246589437Y-60758608D01*
X246525789Y-60741554D01*
X246462142Y-60724500D01*
X246330358Y-60724500D01*
X246203062Y-60758608D01*
X246134092Y-60798428D01*
X246100389Y-60817887D01*
X246038390Y-60834500D01*
X244504110Y-60834500D01*
X244442110Y-60817887D01*
X244379630Y-60781814D01*
X244339437Y-60758608D01*
X244275789Y-60741554D01*
X244212142Y-60724500D01*
X244080358Y-60724500D01*
X243953062Y-60758608D01*
X243838936Y-60824500D01*
X243838933Y-60824502D01*
X243745752Y-60917683D01*
X243745750Y-60917686D01*
X243679858Y-61031812D01*
X243671421Y-61063300D01*
X243645750Y-61159108D01*
X232764393Y-61159108D01*
X232958728Y-60964773D01*
X233010139Y-60875727D01*
X233036751Y-60776410D01*
X233036751Y-60673590D01*
X233036751Y-60665995D01*
X233036750Y-60665977D01*
X233036750Y-53423592D01*
X233036750Y-53423590D01*
X233010138Y-53324272D01*
X232958728Y-53235227D01*
X232886023Y-53162522D01*
X231425420Y-51701919D01*
X231393326Y-51646331D01*
X231362641Y-51531812D01*
X231353813Y-51516521D01*
X231296750Y-51417686D01*
X231203564Y-51324500D01*
X231146500Y-51291554D01*
X231089437Y-51258608D01*
X231025789Y-51241554D01*
X230962142Y-51224500D01*
X230830358Y-51224500D01*
X230703062Y-51258608D01*
X230634092Y-51298428D01*
X230600389Y-51317887D01*
X230538390Y-51334500D01*
X220004110Y-51334500D01*
X219942110Y-51317887D01*
X219891362Y-51288587D01*
X219839437Y-51258608D01*
X219775789Y-51241554D01*
X219712142Y-51224500D01*
X219580358Y-51224500D01*
X219453062Y-51258608D01*
X219338936Y-51324500D01*
X219338933Y-51324502D01*
X219245752Y-51417683D01*
X219245750Y-51417686D01*
X219179858Y-51531812D01*
X219145750Y-51659108D01*
X203000000Y-51659108D01*
X203000000Y-49809108D01*
X261249500Y-49809108D01*
X261249500Y-49940891D01*
X261283608Y-50068187D01*
X261316554Y-50125250D01*
X261349500Y-50182314D01*
X261442686Y-50275500D01*
X261556814Y-50341392D01*
X261684108Y-50375500D01*
X261684110Y-50375500D01*
X261815890Y-50375500D01*
X261815892Y-50375500D01*
X261943186Y-50341392D01*
X262057314Y-50275500D01*
X262150500Y-50182314D01*
X262216392Y-50068186D01*
X262250500Y-49940892D01*
X262250500Y-49809108D01*
X262216392Y-49681814D01*
X262150500Y-49567686D01*
X262057314Y-49474500D01*
X262000250Y-49441554D01*
X261943187Y-49408608D01*
X261879539Y-49391554D01*
X261815892Y-49374500D01*
X261684108Y-49374500D01*
X261556812Y-49408608D01*
X261442686Y-49474500D01*
X261442683Y-49474502D01*
X261349502Y-49567683D01*
X261349500Y-49567686D01*
X261283608Y-49681812D01*
X261249500Y-49809108D01*
X203000000Y-49809108D01*
X203000000Y-44473543D01*
X220999499Y-44473543D01*
X221037947Y-44666829D01*
X221037950Y-44666839D01*
X221113364Y-44848907D01*
X221113371Y-44848920D01*
X221222860Y-45012781D01*
X221222863Y-45012785D01*
X221362214Y-45152136D01*
X221362218Y-45152139D01*
X221526079Y-45261628D01*
X221526092Y-45261635D01*
X221600980Y-45292654D01*
X221708165Y-45337051D01*
X221708169Y-45337051D01*
X221708170Y-45337052D01*
X221901456Y-45375500D01*
X221901459Y-45375500D01*
X222098543Y-45375500D01*
X222228582Y-45349632D01*
X222291835Y-45337051D01*
X222333164Y-45319931D01*
X222399021Y-45292654D01*
X222473907Y-45261635D01*
X222473907Y-45261634D01*
X222473914Y-45261632D01*
X222637782Y-45152139D01*
X222777139Y-45012782D01*
X222886632Y-44848914D01*
X222962051Y-44666835D01*
X223000500Y-44473541D01*
X223000500Y-44276459D01*
X222999749Y-44272682D01*
X225700000Y-44272682D01*
X225700000Y-44477317D01*
X225732009Y-44679417D01*
X225795244Y-44874031D01*
X225888141Y-45056350D01*
X225888147Y-45056359D01*
X225920523Y-45100921D01*
X225920524Y-45100922D01*
X226600000Y-44421446D01*
X226600000Y-44427661D01*
X226627259Y-44529394D01*
X226679920Y-44620606D01*
X226754394Y-44695080D01*
X226845606Y-44747741D01*
X226947339Y-44775000D01*
X226953553Y-44775000D01*
X226274076Y-45454474D01*
X226318650Y-45486859D01*
X226500968Y-45579755D01*
X226695582Y-45642990D01*
X226897683Y-45675000D01*
X227102317Y-45675000D01*
X227304417Y-45642990D01*
X227499031Y-45579755D01*
X227681349Y-45486859D01*
X227725921Y-45454474D01*
X227046447Y-44775000D01*
X227052661Y-44775000D01*
X227154394Y-44747741D01*
X227245606Y-44695080D01*
X227320080Y-44620606D01*
X227372741Y-44529394D01*
X227400000Y-44427661D01*
X227400000Y-44421447D01*
X228079474Y-45100921D01*
X228111859Y-45056349D01*
X228204755Y-44874031D01*
X228267990Y-44679417D01*
X228300000Y-44477317D01*
X228300000Y-44272682D01*
X228267990Y-44070582D01*
X228204755Y-43875968D01*
X228111859Y-43693650D01*
X228079474Y-43649077D01*
X228079474Y-43649076D01*
X227400000Y-44328551D01*
X227400000Y-44322339D01*
X227372741Y-44220606D01*
X227320080Y-44129394D01*
X227245606Y-44054920D01*
X227154394Y-44002259D01*
X227052661Y-43975000D01*
X227046446Y-43975000D01*
X227725922Y-43295524D01*
X227725921Y-43295523D01*
X227681359Y-43263147D01*
X227681350Y-43263141D01*
X227499031Y-43170244D01*
X227304417Y-43107009D01*
X227102317Y-43075000D01*
X226897683Y-43075000D01*
X226695582Y-43107009D01*
X226500968Y-43170244D01*
X226318644Y-43263143D01*
X226274077Y-43295523D01*
X226274077Y-43295524D01*
X226953554Y-43975000D01*
X226947339Y-43975000D01*
X226845606Y-44002259D01*
X226754394Y-44054920D01*
X226679920Y-44129394D01*
X226627259Y-44220606D01*
X226600000Y-44322339D01*
X226600000Y-44328553D01*
X225920524Y-43649077D01*
X225920523Y-43649077D01*
X225888143Y-43693644D01*
X225795244Y-43875968D01*
X225732009Y-44070582D01*
X225700000Y-44272682D01*
X222999749Y-44272682D01*
X222962051Y-44083165D01*
X222950352Y-44054920D01*
X222886635Y-43901092D01*
X222886628Y-43901079D01*
X222777139Y-43737218D01*
X222777136Y-43737214D01*
X222637785Y-43597863D01*
X222637781Y-43597860D01*
X222473920Y-43488371D01*
X222473907Y-43488364D01*
X222399016Y-43457344D01*
X222291839Y-43412950D01*
X222291829Y-43412947D01*
X222098543Y-43374500D01*
X222098541Y-43374500D01*
X221901459Y-43374500D01*
X221901457Y-43374500D01*
X221708170Y-43412947D01*
X221708160Y-43412950D01*
X221526092Y-43488364D01*
X221526079Y-43488371D01*
X221362218Y-43597860D01*
X221362214Y-43597863D01*
X221222863Y-43737214D01*
X221222860Y-43737218D01*
X221113371Y-43901079D01*
X221113364Y-43901092D01*
X221037950Y-44083160D01*
X221037947Y-44083170D01*
X220999500Y-44276456D01*
X220999500Y-44276458D01*
X220999500Y-44276459D01*
X220999500Y-44473541D01*
X220999500Y-44473543D01*
X220999499Y-44473543D01*
X203000000Y-44473543D01*
X203000000Y-39520730D01*
X230817121Y-39520730D01*
X230817121Y-40729269D01*
X230819974Y-40759699D01*
X230819974Y-40759701D01*
X230858414Y-40869552D01*
X230864828Y-40887882D01*
X230945471Y-40997150D01*
X231054739Y-41077793D01*
X231097466Y-41092744D01*
X231182920Y-41122646D01*
X231213351Y-41125500D01*
X231213355Y-41125500D01*
X232421891Y-41125500D01*
X232452320Y-41122646D01*
X232452322Y-41122646D01*
X232516411Y-41100219D01*
X232580503Y-41077793D01*
X232689771Y-40997150D01*
X232770414Y-40887882D01*
X232800035Y-40803229D01*
X232815267Y-40759701D01*
X232815267Y-40759699D01*
X232818121Y-40729269D01*
X232818121Y-40499808D01*
X232837806Y-40432769D01*
X232890610Y-40387014D01*
X232959768Y-40377070D01*
X233023324Y-40406095D01*
X233060052Y-40461489D01*
X233112865Y-40624031D01*
X233205762Y-40806350D01*
X233205768Y-40806359D01*
X233238144Y-40850921D01*
X233238145Y-40850922D01*
X233917621Y-40171446D01*
X233917621Y-40177661D01*
X233944880Y-40279394D01*
X233997541Y-40370606D01*
X234072015Y-40445080D01*
X234163227Y-40497741D01*
X234264960Y-40525000D01*
X234271174Y-40525000D01*
X233591697Y-41204474D01*
X233636271Y-41236859D01*
X233818589Y-41329755D01*
X234013203Y-41392990D01*
X234215304Y-41425000D01*
X234419938Y-41425000D01*
X234622038Y-41392990D01*
X234816652Y-41329755D01*
X234998970Y-41236859D01*
X235043542Y-41204474D01*
X234364068Y-40525000D01*
X234370282Y-40525000D01*
X234472015Y-40497741D01*
X234563227Y-40445080D01*
X234637701Y-40370606D01*
X234690362Y-40279394D01*
X234717621Y-40177661D01*
X234717621Y-40171448D01*
X235397095Y-40850922D01*
X235397095Y-40850921D01*
X235429480Y-40806349D01*
X235522376Y-40624031D01*
X235585611Y-40429417D01*
X235617621Y-40227317D01*
X235617621Y-40022682D01*
X235585611Y-39820582D01*
X235522376Y-39625968D01*
X235429480Y-39443650D01*
X235397095Y-39399077D01*
X235397095Y-39399076D01*
X234717621Y-40078551D01*
X234717621Y-40072339D01*
X234690362Y-39970606D01*
X234637701Y-39879394D01*
X234563227Y-39804920D01*
X234472015Y-39752259D01*
X234370282Y-39725000D01*
X234364067Y-39725000D01*
X235043543Y-39045524D01*
X235043543Y-39045523D01*
X234998980Y-39013147D01*
X234998971Y-39013141D01*
X234983478Y-39005247D01*
X239699500Y-39005247D01*
X239699500Y-40744752D01*
X239711131Y-40803229D01*
X239711132Y-40803230D01*
X239755447Y-40869552D01*
X239821769Y-40913867D01*
X239821770Y-40913868D01*
X239880247Y-40925499D01*
X239880250Y-40925500D01*
X239880252Y-40925500D01*
X241619750Y-40925500D01*
X241619751Y-40925499D01*
X241634568Y-40922552D01*
X241678229Y-40913868D01*
X241678229Y-40913867D01*
X241678231Y-40913867D01*
X241744552Y-40869552D01*
X241788867Y-40803231D01*
X241788867Y-40803229D01*
X241788868Y-40803229D01*
X241800499Y-40744752D01*
X241800500Y-40744750D01*
X241800500Y-40441048D01*
X241820185Y-40374009D01*
X241872989Y-40328254D01*
X241942147Y-40318310D01*
X242005703Y-40347335D01*
X242035938Y-40389264D01*
X242036694Y-40388879D01*
X242135375Y-40582550D01*
X242174728Y-40636716D01*
X242807037Y-40004408D01*
X242824075Y-40067993D01*
X242889901Y-40182007D01*
X242982993Y-40275099D01*
X243097007Y-40340925D01*
X243160590Y-40357962D01*
X242528282Y-40990269D01*
X242528282Y-40990270D01*
X242582449Y-41029624D01*
X242771782Y-41126095D01*
X242973870Y-41191757D01*
X243183754Y-41225000D01*
X243396246Y-41225000D01*
X243606127Y-41191757D01*
X243606130Y-41191757D01*
X243808217Y-41126095D01*
X243997554Y-41029622D01*
X244051716Y-40990270D01*
X244051717Y-40990270D01*
X243419408Y-40357962D01*
X243482993Y-40340925D01*
X243597007Y-40275099D01*
X243690099Y-40182007D01*
X243755925Y-40067993D01*
X243772962Y-40004408D01*
X244405270Y-40636717D01*
X244405270Y-40636716D01*
X244444622Y-40582554D01*
X244541095Y-40393217D01*
X244606757Y-40191130D01*
X244606757Y-40191127D01*
X244640000Y-39981246D01*
X244640000Y-39768753D01*
X244606757Y-39558872D01*
X244606757Y-39558869D01*
X244568566Y-39441329D01*
X244541095Y-39356782D01*
X244444624Y-39167449D01*
X244405270Y-39113282D01*
X244405269Y-39113282D01*
X243772962Y-39745590D01*
X243755925Y-39682007D01*
X243690099Y-39567993D01*
X243597007Y-39474901D01*
X243482993Y-39409075D01*
X243419409Y-39392037D01*
X244051716Y-38759728D01*
X243997550Y-38720375D01*
X243808217Y-38623904D01*
X243606129Y-38558242D01*
X243396246Y-38525000D01*
X243183754Y-38525000D01*
X242973872Y-38558242D01*
X242973869Y-38558242D01*
X242771782Y-38623904D01*
X242582439Y-38720380D01*
X242528282Y-38759727D01*
X242528282Y-38759728D01*
X243160591Y-39392037D01*
X243097007Y-39409075D01*
X242982993Y-39474901D01*
X242889901Y-39567993D01*
X242824075Y-39682007D01*
X242807037Y-39745591D01*
X242174728Y-39113282D01*
X242174727Y-39113282D01*
X242135380Y-39167439D01*
X242036694Y-39361121D01*
X242035678Y-39360603D01*
X241995212Y-39410813D01*
X241928916Y-39432872D01*
X241861218Y-39415588D01*
X241813612Y-39364447D01*
X241800500Y-39308951D01*
X241800500Y-39005249D01*
X241800499Y-39005247D01*
X241788868Y-38946770D01*
X241788867Y-38946769D01*
X241744552Y-38880447D01*
X241678230Y-38836132D01*
X241678229Y-38836131D01*
X241619752Y-38824500D01*
X241619748Y-38824500D01*
X239880252Y-38824500D01*
X239880247Y-38824500D01*
X239821770Y-38836131D01*
X239821769Y-38836132D01*
X239755447Y-38880447D01*
X239711132Y-38946769D01*
X239711131Y-38946770D01*
X239699500Y-39005247D01*
X234983478Y-39005247D01*
X234816652Y-38920244D01*
X234622038Y-38857009D01*
X234419938Y-38825000D01*
X234215304Y-38825000D01*
X234013203Y-38857009D01*
X233818589Y-38920244D01*
X233636265Y-39013143D01*
X233591698Y-39045523D01*
X233591698Y-39045524D01*
X234271175Y-39725000D01*
X234264960Y-39725000D01*
X234163227Y-39752259D01*
X234072015Y-39804920D01*
X233997541Y-39879394D01*
X233944880Y-39970606D01*
X233917621Y-40072339D01*
X233917621Y-40078553D01*
X233238145Y-39399077D01*
X233238144Y-39399077D01*
X233205764Y-39443644D01*
X233112865Y-39625968D01*
X233060052Y-39788510D01*
X233020614Y-39846185D01*
X232956255Y-39873383D01*
X232887409Y-39861468D01*
X232835933Y-39814224D01*
X232818121Y-39750191D01*
X232818121Y-39520730D01*
X232815267Y-39490300D01*
X232815267Y-39490298D01*
X232778595Y-39385499D01*
X232770414Y-39362118D01*
X232689771Y-39252850D01*
X232580503Y-39172207D01*
X232580501Y-39172206D01*
X232452321Y-39127353D01*
X232421891Y-39124500D01*
X232421887Y-39124500D01*
X231213355Y-39124500D01*
X231213351Y-39124500D01*
X231182921Y-39127353D01*
X231182919Y-39127353D01*
X231054740Y-39172206D01*
X231054738Y-39172207D01*
X230945471Y-39252850D01*
X230864828Y-39362117D01*
X230864827Y-39362119D01*
X230819974Y-39490298D01*
X230819974Y-39490300D01*
X230817121Y-39520730D01*
X203000000Y-39520730D01*
X203000000Y-37736757D01*
X210267000Y-37736757D01*
X210267000Y-38013242D01*
X210295391Y-38192496D01*
X210295391Y-38192499D01*
X210351471Y-38365095D01*
X210428553Y-38516376D01*
X210433866Y-38526804D01*
X210540541Y-38673629D01*
X210668871Y-38801959D01*
X210815696Y-38908634D01*
X210903219Y-38953229D01*
X210977404Y-38991028D01*
X211150001Y-39047108D01*
X211150002Y-39047108D01*
X211150005Y-39047109D01*
X211329257Y-39075500D01*
X211329258Y-39075500D01*
X211510742Y-39075500D01*
X211510743Y-39075500D01*
X211689995Y-39047109D01*
X211689998Y-39047108D01*
X211689999Y-39047108D01*
X211862595Y-38991028D01*
X211862595Y-38991027D01*
X211862598Y-38991027D01*
X212024304Y-38908634D01*
X212171129Y-38801959D01*
X212299459Y-38673629D01*
X212406134Y-38526804D01*
X212411444Y-38516381D01*
X212459414Y-38465584D01*
X212527234Y-38448784D01*
X212593370Y-38471318D01*
X212632416Y-38516376D01*
X212717711Y-38683776D01*
X212852097Y-38868742D01*
X213013757Y-39030402D01*
X213198723Y-39164788D01*
X213402429Y-39268582D01*
X213619871Y-39339234D01*
X213710000Y-39353509D01*
X213710000Y-38365747D01*
X213747708Y-38387518D01*
X213887591Y-38425000D01*
X214032409Y-38425000D01*
X214172292Y-38387518D01*
X214210000Y-38365747D01*
X214210000Y-39353508D01*
X214300128Y-39339234D01*
X214517570Y-39268582D01*
X214721276Y-39164788D01*
X214906242Y-39030402D01*
X215067902Y-38868742D01*
X215067907Y-38868736D01*
X215122682Y-38793346D01*
X215178012Y-38750680D01*
X215247625Y-38744701D01*
X215309420Y-38777307D01*
X215343777Y-38838145D01*
X215347000Y-38866231D01*
X215347000Y-38894752D01*
X215358631Y-38953229D01*
X215358632Y-38953230D01*
X215402947Y-39019552D01*
X215469269Y-39063867D01*
X215469270Y-39063868D01*
X215527747Y-39075499D01*
X215527750Y-39075500D01*
X215527752Y-39075500D01*
X217472250Y-39075500D01*
X217472251Y-39075499D01*
X217487068Y-39072552D01*
X217530729Y-39063868D01*
X217530729Y-39063867D01*
X217530731Y-39063867D01*
X217597052Y-39019552D01*
X217641367Y-38953231D01*
X217641367Y-38953229D01*
X217641368Y-38953229D01*
X217652999Y-38894752D01*
X217653000Y-38894750D01*
X217653000Y-38228753D01*
X248780000Y-38228753D01*
X248780000Y-38441246D01*
X248813242Y-38651127D01*
X248813242Y-38651130D01*
X248878904Y-38853217D01*
X248975375Y-39042550D01*
X249014728Y-39096716D01*
X249647037Y-38464408D01*
X249664075Y-38527993D01*
X249729901Y-38642007D01*
X249822993Y-38735099D01*
X249937007Y-38800925D01*
X250000591Y-38817962D01*
X249399971Y-39418581D01*
X249478711Y-39535895D01*
X249479920Y-39539729D01*
X249482844Y-39542491D01*
X249490343Y-39572778D01*
X249499727Y-39602529D01*
X249498671Y-39606408D01*
X249499638Y-39610312D01*
X249489573Y-39639844D01*
X249481383Y-39669947D01*
X249478397Y-39672640D01*
X249477100Y-39676447D01*
X249432051Y-39715483D01*
X249422440Y-39720380D01*
X249368282Y-39759727D01*
X249368282Y-39759728D01*
X250000591Y-40392037D01*
X249937007Y-40409075D01*
X249822993Y-40474901D01*
X249729901Y-40567993D01*
X249664075Y-40682007D01*
X249647037Y-40745590D01*
X249014728Y-40113282D01*
X249014727Y-40113282D01*
X248975380Y-40167439D01*
X248878904Y-40356782D01*
X248813242Y-40558869D01*
X248813242Y-40558872D01*
X248780000Y-40768753D01*
X248780000Y-40981246D01*
X248813242Y-41191127D01*
X248813242Y-41191130D01*
X248878904Y-41393217D01*
X248975375Y-41582550D01*
X249014728Y-41636716D01*
X249647037Y-41004408D01*
X249664075Y-41067993D01*
X249729901Y-41182007D01*
X249822993Y-41275099D01*
X249937007Y-41340925D01*
X250000590Y-41357962D01*
X249368282Y-41990269D01*
X249368282Y-41990270D01*
X249422449Y-42029624D01*
X249611782Y-42126095D01*
X249813870Y-42191757D01*
X250023754Y-42225000D01*
X250236246Y-42225000D01*
X250446127Y-42191757D01*
X250446130Y-42191757D01*
X250648217Y-42126095D01*
X250837554Y-42029622D01*
X250891716Y-41990270D01*
X250891717Y-41990270D01*
X250259408Y-41357962D01*
X250322993Y-41340925D01*
X250437007Y-41275099D01*
X250530099Y-41182007D01*
X250595925Y-41067993D01*
X250612962Y-41004408D01*
X251245270Y-41636717D01*
X251245270Y-41636716D01*
X251284622Y-41582554D01*
X251381095Y-41393217D01*
X251438343Y-41217026D01*
X251477780Y-41159351D01*
X251542139Y-41132152D01*
X251610985Y-41144066D01*
X251662461Y-41191310D01*
X251670835Y-41207891D01*
X251725939Y-41340925D01*
X251739059Y-41372598D01*
X251752836Y-41393217D01*
X251854024Y-41544657D01*
X252000342Y-41690975D01*
X252000345Y-41690977D01*
X252172402Y-41805941D01*
X252363580Y-41885130D01*
X252566530Y-41925499D01*
X252566534Y-41925500D01*
X252566535Y-41925500D01*
X252773466Y-41925500D01*
X252773467Y-41925499D01*
X252976420Y-41885130D01*
X253167598Y-41805941D01*
X253339655Y-41690977D01*
X253485977Y-41544655D01*
X253600941Y-41372598D01*
X253680130Y-41181420D01*
X253720500Y-40978465D01*
X253720500Y-40771535D01*
X253720499Y-40771530D01*
X254159500Y-40771530D01*
X254159500Y-40978469D01*
X254199868Y-41181412D01*
X254199870Y-41181420D01*
X254265939Y-41340925D01*
X254279059Y-41372598D01*
X254292836Y-41393217D01*
X254394024Y-41544657D01*
X254540342Y-41690975D01*
X254540345Y-41690977D01*
X254712402Y-41805941D01*
X254903580Y-41885130D01*
X255106530Y-41925499D01*
X255106534Y-41925500D01*
X255106535Y-41925500D01*
X255313466Y-41925500D01*
X255313467Y-41925499D01*
X255516420Y-41885130D01*
X255707598Y-41805941D01*
X255879655Y-41690977D01*
X256025977Y-41544655D01*
X256140941Y-41372598D01*
X256220130Y-41181420D01*
X256260500Y-40978465D01*
X256260500Y-40771535D01*
X256260499Y-40771530D01*
X256699500Y-40771530D01*
X256699500Y-40978469D01*
X256739868Y-41181412D01*
X256739870Y-41181420D01*
X256805939Y-41340925D01*
X256819059Y-41372598D01*
X256832836Y-41393217D01*
X256934024Y-41544657D01*
X257080342Y-41690975D01*
X257080345Y-41690977D01*
X257252402Y-41805941D01*
X257443580Y-41885130D01*
X257646530Y-41925499D01*
X257646534Y-41925500D01*
X257646535Y-41925500D01*
X257853466Y-41925500D01*
X257853467Y-41925499D01*
X258056420Y-41885130D01*
X258247598Y-41805941D01*
X258419655Y-41690977D01*
X258565977Y-41544655D01*
X258680941Y-41372598D01*
X258760130Y-41181420D01*
X258800500Y-40978465D01*
X258800500Y-40771535D01*
X258800499Y-40771530D01*
X259239500Y-40771530D01*
X259239500Y-40978469D01*
X259279868Y-41181412D01*
X259279870Y-41181420D01*
X259345939Y-41340925D01*
X259359059Y-41372598D01*
X259372836Y-41393217D01*
X259474024Y-41544657D01*
X259620342Y-41690975D01*
X259620345Y-41690977D01*
X259792402Y-41805941D01*
X259983580Y-41885130D01*
X260186530Y-41925499D01*
X260186534Y-41925500D01*
X260186535Y-41925500D01*
X260393466Y-41925500D01*
X260393467Y-41925499D01*
X260596420Y-41885130D01*
X260787598Y-41805941D01*
X260959655Y-41690977D01*
X261105977Y-41544655D01*
X261220941Y-41372598D01*
X261300130Y-41181420D01*
X261340500Y-40978465D01*
X261340500Y-40771535D01*
X261300130Y-40568580D01*
X261220941Y-40377402D01*
X261105977Y-40205345D01*
X261105975Y-40205342D01*
X260959657Y-40059024D01*
X260873626Y-40001541D01*
X260787598Y-39944059D01*
X260596420Y-39864870D01*
X260596412Y-39864868D01*
X260393469Y-39824500D01*
X260393465Y-39824500D01*
X260186535Y-39824500D01*
X260186530Y-39824500D01*
X259983587Y-39864868D01*
X259983579Y-39864870D01*
X259792403Y-39944058D01*
X259620342Y-40059024D01*
X259474024Y-40205342D01*
X259359058Y-40377403D01*
X259279870Y-40568579D01*
X259279868Y-40568587D01*
X259239500Y-40771530D01*
X258800499Y-40771530D01*
X258760130Y-40568580D01*
X258680941Y-40377402D01*
X258565977Y-40205345D01*
X258565975Y-40205342D01*
X258419657Y-40059024D01*
X258333626Y-40001541D01*
X258247598Y-39944059D01*
X258056420Y-39864870D01*
X258056412Y-39864868D01*
X257853469Y-39824500D01*
X257853465Y-39824500D01*
X257646535Y-39824500D01*
X257646530Y-39824500D01*
X257443587Y-39864868D01*
X257443579Y-39864870D01*
X257252403Y-39944058D01*
X257080342Y-40059024D01*
X256934024Y-40205342D01*
X256819058Y-40377403D01*
X256739870Y-40568579D01*
X256739868Y-40568587D01*
X256699500Y-40771530D01*
X256260499Y-40771530D01*
X256220130Y-40568580D01*
X256140941Y-40377402D01*
X256025977Y-40205345D01*
X256025975Y-40205342D01*
X255879657Y-40059024D01*
X255793626Y-40001541D01*
X255707598Y-39944059D01*
X255516420Y-39864870D01*
X255516412Y-39864868D01*
X255313469Y-39824500D01*
X255313465Y-39824500D01*
X255106535Y-39824500D01*
X255106530Y-39824500D01*
X254903587Y-39864868D01*
X254903579Y-39864870D01*
X254712403Y-39944058D01*
X254540342Y-40059024D01*
X254394024Y-40205342D01*
X254279058Y-40377403D01*
X254199870Y-40568579D01*
X254199868Y-40568587D01*
X254159500Y-40771530D01*
X253720499Y-40771530D01*
X253680130Y-40568580D01*
X253600941Y-40377402D01*
X253485977Y-40205345D01*
X253485975Y-40205342D01*
X253339657Y-40059024D01*
X253253626Y-40001541D01*
X253167598Y-39944059D01*
X252976420Y-39864870D01*
X252976412Y-39864868D01*
X252773469Y-39824500D01*
X252773465Y-39824500D01*
X252566535Y-39824500D01*
X252566530Y-39824500D01*
X252363587Y-39864868D01*
X252363579Y-39864870D01*
X252172403Y-39944058D01*
X252000342Y-40059024D01*
X251854024Y-40205342D01*
X251739057Y-40377403D01*
X251670835Y-40542108D01*
X251626994Y-40596511D01*
X251560700Y-40618576D01*
X251493000Y-40601297D01*
X251445390Y-40550159D01*
X251438343Y-40532973D01*
X251381095Y-40356782D01*
X251284624Y-40167449D01*
X251245270Y-40113282D01*
X251245269Y-40113282D01*
X250612962Y-40745590D01*
X250595925Y-40682007D01*
X250530099Y-40567993D01*
X250437007Y-40474901D01*
X250322993Y-40409075D01*
X250259409Y-40392037D01*
X250891716Y-39759728D01*
X250837550Y-39720375D01*
X250827954Y-39715486D01*
X250777157Y-39667512D01*
X250760361Y-39599692D01*
X250782897Y-39533556D01*
X250827954Y-39494514D01*
X250837554Y-39489622D01*
X250891716Y-39450270D01*
X250891717Y-39450270D01*
X250259408Y-38817962D01*
X250322993Y-38800925D01*
X250437007Y-38735099D01*
X250530099Y-38642007D01*
X250595925Y-38527993D01*
X250612962Y-38464408D01*
X251245270Y-39096717D01*
X251245270Y-39096716D01*
X251284622Y-39042554D01*
X251381095Y-38853217D01*
X251438343Y-38677026D01*
X251477780Y-38619351D01*
X251542139Y-38592152D01*
X251610985Y-38604066D01*
X251662461Y-38651310D01*
X251670833Y-38667887D01*
X251692577Y-38720380D01*
X251725939Y-38800925D01*
X251739059Y-38832598D01*
X251771031Y-38880448D01*
X251854024Y-39004657D01*
X252000342Y-39150975D01*
X252000345Y-39150977D01*
X252172402Y-39265941D01*
X252363580Y-39345130D01*
X252508052Y-39373867D01*
X252566530Y-39385499D01*
X252566534Y-39385500D01*
X252566535Y-39385500D01*
X252773466Y-39385500D01*
X252773467Y-39385499D01*
X252976420Y-39345130D01*
X253167598Y-39265941D01*
X253339655Y-39150977D01*
X253485977Y-39004655D01*
X253600941Y-38832598D01*
X253680130Y-38641420D01*
X253720500Y-38438465D01*
X253720500Y-38231535D01*
X253720499Y-38231530D01*
X254159500Y-38231530D01*
X254159500Y-38438469D01*
X254199868Y-38641412D01*
X254199870Y-38641420D01*
X254266366Y-38801956D01*
X254279059Y-38832598D01*
X254311031Y-38880448D01*
X254394024Y-39004657D01*
X254540342Y-39150975D01*
X254540345Y-39150977D01*
X254712402Y-39265941D01*
X254903580Y-39345130D01*
X255048052Y-39373867D01*
X255106530Y-39385499D01*
X255106534Y-39385500D01*
X255106535Y-39385500D01*
X255313466Y-39385500D01*
X255313467Y-39385499D01*
X255516420Y-39345130D01*
X255707598Y-39265941D01*
X255879655Y-39150977D01*
X256025977Y-39004655D01*
X256140941Y-38832598D01*
X256220130Y-38641420D01*
X256260500Y-38438465D01*
X256260500Y-38231535D01*
X256260499Y-38231530D01*
X256699500Y-38231530D01*
X256699500Y-38438469D01*
X256739868Y-38641412D01*
X256739870Y-38641420D01*
X256806366Y-38801956D01*
X256819059Y-38832598D01*
X256851031Y-38880448D01*
X256934024Y-39004657D01*
X257080342Y-39150975D01*
X257080345Y-39150977D01*
X257252402Y-39265941D01*
X257443580Y-39345130D01*
X257588052Y-39373867D01*
X257646530Y-39385499D01*
X257646534Y-39385500D01*
X257646535Y-39385500D01*
X257853466Y-39385500D01*
X257853467Y-39385499D01*
X258056420Y-39345130D01*
X258247598Y-39265941D01*
X258419655Y-39150977D01*
X258565977Y-39004655D01*
X258680941Y-38832598D01*
X258760130Y-38641420D01*
X258800500Y-38438465D01*
X258800500Y-38231535D01*
X258760130Y-38028580D01*
X258680941Y-37837402D01*
X258565977Y-37665345D01*
X258565975Y-37665342D01*
X258419657Y-37519024D01*
X258339173Y-37465247D01*
X259239500Y-37465247D01*
X259239500Y-39204752D01*
X259251131Y-39263229D01*
X259251132Y-39263230D01*
X259295447Y-39329552D01*
X259361769Y-39373867D01*
X259361770Y-39373868D01*
X259420247Y-39385499D01*
X259420250Y-39385500D01*
X259420252Y-39385500D01*
X261159750Y-39385500D01*
X261159751Y-39385499D01*
X261174568Y-39382552D01*
X261218229Y-39373868D01*
X261218229Y-39373867D01*
X261218231Y-39373867D01*
X261284552Y-39329552D01*
X261328867Y-39263231D01*
X261328867Y-39263229D01*
X261328868Y-39263229D01*
X261340499Y-39204752D01*
X261340500Y-39204750D01*
X261340500Y-37465249D01*
X261340499Y-37465247D01*
X261328868Y-37406770D01*
X261328867Y-37406769D01*
X261284552Y-37340447D01*
X261218230Y-37296132D01*
X261218229Y-37296131D01*
X261159752Y-37284500D01*
X261159748Y-37284500D01*
X259420252Y-37284500D01*
X259420247Y-37284500D01*
X259361770Y-37296131D01*
X259361769Y-37296132D01*
X259295447Y-37340447D01*
X259251132Y-37406769D01*
X259251131Y-37406770D01*
X259239500Y-37465247D01*
X258339173Y-37465247D01*
X258251655Y-37406770D01*
X258247598Y-37404059D01*
X258201349Y-37384902D01*
X258056420Y-37324870D01*
X258056412Y-37324868D01*
X257853469Y-37284500D01*
X257853465Y-37284500D01*
X257646535Y-37284500D01*
X257646530Y-37284500D01*
X257443587Y-37324868D01*
X257443579Y-37324870D01*
X257252403Y-37404058D01*
X257080342Y-37519024D01*
X256934024Y-37665342D01*
X256819058Y-37837403D01*
X256739870Y-38028579D01*
X256739868Y-38028587D01*
X256699500Y-38231530D01*
X256260499Y-38231530D01*
X256220130Y-38028580D01*
X256140941Y-37837402D01*
X256025977Y-37665345D01*
X256025975Y-37665342D01*
X255879657Y-37519024D01*
X255711655Y-37406770D01*
X255707598Y-37404059D01*
X255661349Y-37384902D01*
X255516420Y-37324870D01*
X255516412Y-37324868D01*
X255313469Y-37284500D01*
X255313465Y-37284500D01*
X255106535Y-37284500D01*
X255106530Y-37284500D01*
X254903587Y-37324868D01*
X254903579Y-37324870D01*
X254712403Y-37404058D01*
X254540342Y-37519024D01*
X254394024Y-37665342D01*
X254279058Y-37837403D01*
X254199870Y-38028579D01*
X254199868Y-38028587D01*
X254159500Y-38231530D01*
X253720499Y-38231530D01*
X253680130Y-38028580D01*
X253600941Y-37837402D01*
X253485977Y-37665345D01*
X253485975Y-37665342D01*
X253339657Y-37519024D01*
X253171655Y-37406770D01*
X253167598Y-37404059D01*
X253121349Y-37384902D01*
X252976420Y-37324870D01*
X252976412Y-37324868D01*
X252773469Y-37284500D01*
X252773465Y-37284500D01*
X252566535Y-37284500D01*
X252566530Y-37284500D01*
X252363587Y-37324868D01*
X252363579Y-37324870D01*
X252172403Y-37404058D01*
X252000342Y-37519024D01*
X251854024Y-37665342D01*
X251739057Y-37837403D01*
X251670835Y-38002108D01*
X251626994Y-38056511D01*
X251560700Y-38078576D01*
X251493000Y-38061297D01*
X251445390Y-38010159D01*
X251438343Y-37992973D01*
X251381095Y-37816782D01*
X251284624Y-37627449D01*
X251245270Y-37573282D01*
X251245269Y-37573282D01*
X250612962Y-38205590D01*
X250595925Y-38142007D01*
X250530099Y-38027993D01*
X250437007Y-37934901D01*
X250322993Y-37869075D01*
X250259409Y-37852037D01*
X250891716Y-37219728D01*
X250837550Y-37180375D01*
X250648217Y-37083904D01*
X250446129Y-37018242D01*
X250236246Y-36985000D01*
X250023754Y-36985000D01*
X249813872Y-37018242D01*
X249813869Y-37018242D01*
X249611782Y-37083904D01*
X249422439Y-37180380D01*
X249368282Y-37219727D01*
X249368282Y-37219728D01*
X250000591Y-37852037D01*
X249937007Y-37869075D01*
X249822993Y-37934901D01*
X249729901Y-38027993D01*
X249664075Y-38142007D01*
X249647037Y-38205590D01*
X249014728Y-37573282D01*
X249014727Y-37573282D01*
X248975380Y-37627439D01*
X248878904Y-37816782D01*
X248813242Y-38018869D01*
X248813242Y-38018872D01*
X248780000Y-38228753D01*
X217653000Y-38228753D01*
X217653000Y-36855249D01*
X217652999Y-36855247D01*
X217641368Y-36796770D01*
X217641367Y-36796769D01*
X217597052Y-36730447D01*
X217530730Y-36686132D01*
X217530729Y-36686131D01*
X217472252Y-36674500D01*
X217472248Y-36674500D01*
X215527752Y-36674500D01*
X215527747Y-36674500D01*
X215469270Y-36686131D01*
X215469269Y-36686132D01*
X215402947Y-36730447D01*
X215358632Y-36796769D01*
X215358631Y-36796770D01*
X215347000Y-36855247D01*
X215347000Y-36883768D01*
X215327315Y-36950807D01*
X215274511Y-36996562D01*
X215205353Y-37006506D01*
X215141797Y-36977481D01*
X215122682Y-36956654D01*
X215067903Y-36881258D01*
X214906242Y-36719597D01*
X214721276Y-36585211D01*
X214517568Y-36481417D01*
X214300124Y-36410765D01*
X214210000Y-36396490D01*
X214210000Y-37384252D01*
X214172292Y-37362482D01*
X214032409Y-37325000D01*
X213887591Y-37325000D01*
X213747708Y-37362482D01*
X213710000Y-37384252D01*
X213710000Y-36396490D01*
X213709999Y-36396490D01*
X213619875Y-36410765D01*
X213402431Y-36481417D01*
X213198723Y-36585211D01*
X213013757Y-36719597D01*
X212852097Y-36881257D01*
X212717711Y-37066223D01*
X212632416Y-37233623D01*
X212584441Y-37284419D01*
X212516620Y-37301214D01*
X212450485Y-37278676D01*
X212411445Y-37233621D01*
X212406134Y-37223196D01*
X212406133Y-37223194D01*
X212375026Y-37180380D01*
X212299459Y-37076371D01*
X212171129Y-36948041D01*
X212024304Y-36841366D01*
X211862595Y-36758971D01*
X211689998Y-36702891D01*
X211555556Y-36681597D01*
X211510743Y-36674500D01*
X211329257Y-36674500D01*
X211269506Y-36683963D01*
X211150003Y-36702891D01*
X211150000Y-36702891D01*
X210977404Y-36758971D01*
X210815695Y-36841366D01*
X210757335Y-36883768D01*
X210668871Y-36948041D01*
X210668869Y-36948043D01*
X210668868Y-36948043D01*
X210540543Y-37076368D01*
X210540543Y-37076369D01*
X210540541Y-37076371D01*
X210535068Y-37083904D01*
X210433866Y-37223195D01*
X210351471Y-37384904D01*
X210295391Y-37557500D01*
X210295391Y-37557503D01*
X210267000Y-37736757D01*
X203000000Y-37736757D01*
X203000000Y-35749000D01*
X203019685Y-35681961D01*
X203072489Y-35636206D01*
X203124000Y-35625000D01*
X266375801Y-35625000D01*
X266442840Y-35644685D01*
G37*
%TD.AperFunction*%
%TD*%
M02*
