%TF.GenerationSoftware,KiCad,Pcbnew,10.0.4*%
%TF.CreationDate,2026-08-24T22:14:09+02:00*%
%TF.ProjectId,simdir,73696d64-6972-42e6-9b69-6361645f7063,rev?*%
%TF.SameCoordinates,Original*%
%TF.FileFunction,Legend,Top*%
%TF.FilePolarity,Positive*%
%FSLAX46Y46*%
G04 Gerber Fmt 4.6, Leading zero omitted, Abs format (unit mm)*
G04 Created by KiCad (PCBNEW 10.0.4) date 2026-08-24 22:14:09*
%MOMM*%
%LPD*%
G01*
G04 APERTURE LIST*
%ADD10C,0.100000*%
%ADD11C,0.150000*%
%ADD12C,0.200000*%
%ADD13C,0.120000*%
G04 APERTURE END LIST*
D10*
X239721503Y-42997419D02*
X239911979Y-42997419D01*
X239911979Y-42997419D02*
X240007217Y-42949800D01*
X240007217Y-42949800D02*
X240054836Y-42902180D01*
X240054836Y-42902180D02*
X240150074Y-42759323D01*
X240150074Y-42759323D02*
X240197693Y-42568847D01*
X240197693Y-42568847D02*
X240197693Y-42187895D01*
X240197693Y-42187895D02*
X240150074Y-42092657D01*
X240150074Y-42092657D02*
X240102455Y-42045038D01*
X240102455Y-42045038D02*
X240007217Y-41997419D01*
X240007217Y-41997419D02*
X239816741Y-41997419D01*
X239816741Y-41997419D02*
X239721503Y-42045038D01*
X239721503Y-42045038D02*
X239673884Y-42092657D01*
X239673884Y-42092657D02*
X239626265Y-42187895D01*
X239626265Y-42187895D02*
X239626265Y-42425990D01*
X239626265Y-42425990D02*
X239673884Y-42521228D01*
X239673884Y-42521228D02*
X239721503Y-42568847D01*
X239721503Y-42568847D02*
X239816741Y-42616466D01*
X239816741Y-42616466D02*
X240007217Y-42616466D01*
X240007217Y-42616466D02*
X240102455Y-42568847D01*
X240102455Y-42568847D02*
X240150074Y-42521228D01*
X240150074Y-42521228D02*
X240197693Y-42425990D01*
X240531027Y-42330752D02*
X240769122Y-42997419D01*
X240769122Y-42997419D02*
X241007217Y-42330752D01*
X242827693Y-42295038D02*
X242732455Y-42247419D01*
X242732455Y-42247419D02*
X242589598Y-42247419D01*
X242589598Y-42247419D02*
X242446741Y-42295038D01*
X242446741Y-42295038D02*
X242351503Y-42390276D01*
X242351503Y-42390276D02*
X242303884Y-42485514D01*
X242303884Y-42485514D02*
X242256265Y-42675990D01*
X242256265Y-42675990D02*
X242256265Y-42818847D01*
X242256265Y-42818847D02*
X242303884Y-43009323D01*
X242303884Y-43009323D02*
X242351503Y-43104561D01*
X242351503Y-43104561D02*
X242446741Y-43199800D01*
X242446741Y-43199800D02*
X242589598Y-43247419D01*
X242589598Y-43247419D02*
X242684836Y-43247419D01*
X242684836Y-43247419D02*
X242827693Y-43199800D01*
X242827693Y-43199800D02*
X242875312Y-43152180D01*
X242875312Y-43152180D02*
X242875312Y-42818847D01*
X242875312Y-42818847D02*
X242684836Y-42818847D01*
X243303884Y-43247419D02*
X243303884Y-42247419D01*
X243303884Y-42247419D02*
X243875312Y-43247419D01*
X243875312Y-43247419D02*
X243875312Y-42247419D01*
X244351503Y-43247419D02*
X244351503Y-42247419D01*
X244351503Y-42247419D02*
X244589598Y-42247419D01*
X244589598Y-42247419D02*
X244732455Y-42295038D01*
X244732455Y-42295038D02*
X244827693Y-42390276D01*
X244827693Y-42390276D02*
X244875312Y-42485514D01*
X244875312Y-42485514D02*
X244922931Y-42675990D01*
X244922931Y-42675990D02*
X244922931Y-42818847D01*
X244922931Y-42818847D02*
X244875312Y-43009323D01*
X244875312Y-43009323D02*
X244827693Y-43104561D01*
X244827693Y-43104561D02*
X244732455Y-43199800D01*
X244732455Y-43199800D02*
X244589598Y-43247419D01*
X244589598Y-43247419D02*
X244351503Y-43247419D01*
X252208646Y-35497419D02*
X252446741Y-36497419D01*
X252446741Y-36497419D02*
X252637217Y-35783133D01*
X252637217Y-35783133D02*
X252827693Y-36497419D01*
X252827693Y-36497419D02*
X253065789Y-35497419D01*
X255053884Y-35973609D02*
X255387217Y-35973609D01*
X255530074Y-36497419D02*
X255053884Y-36497419D01*
X255053884Y-36497419D02*
X255053884Y-35497419D01*
X255053884Y-35497419D02*
X255530074Y-35497419D01*
X257303884Y-36497419D02*
X257303884Y-35497419D01*
X257303884Y-35497419D02*
X257875312Y-36497419D01*
X257875312Y-36497419D02*
X257875312Y-35497419D01*
X263280074Y-36497419D02*
X262803884Y-36497419D01*
X262803884Y-36497419D02*
X262756265Y-36973609D01*
X262756265Y-36973609D02*
X262803884Y-36925990D01*
X262803884Y-36925990D02*
X262899122Y-36878371D01*
X262899122Y-36878371D02*
X263137217Y-36878371D01*
X263137217Y-36878371D02*
X263232455Y-36925990D01*
X263232455Y-36925990D02*
X263280074Y-36973609D01*
X263280074Y-36973609D02*
X263327693Y-37068847D01*
X263327693Y-37068847D02*
X263327693Y-37306942D01*
X263327693Y-37306942D02*
X263280074Y-37402180D01*
X263280074Y-37402180D02*
X263232455Y-37449800D01*
X263232455Y-37449800D02*
X263137217Y-37497419D01*
X263137217Y-37497419D02*
X262899122Y-37497419D01*
X262899122Y-37497419D02*
X262803884Y-37449800D01*
X262803884Y-37449800D02*
X262756265Y-37402180D01*
X263661027Y-36830752D02*
X263899122Y-37497419D01*
X263899122Y-37497419D02*
X264137217Y-36830752D01*
X247420038Y-40297306D02*
X247372419Y-40392544D01*
X247372419Y-40392544D02*
X247372419Y-40535401D01*
X247372419Y-40535401D02*
X247420038Y-40678258D01*
X247420038Y-40678258D02*
X247515276Y-40773496D01*
X247515276Y-40773496D02*
X247610514Y-40821115D01*
X247610514Y-40821115D02*
X247800990Y-40868734D01*
X247800990Y-40868734D02*
X247943847Y-40868734D01*
X247943847Y-40868734D02*
X248134323Y-40821115D01*
X248134323Y-40821115D02*
X248229561Y-40773496D01*
X248229561Y-40773496D02*
X248324800Y-40678258D01*
X248324800Y-40678258D02*
X248372419Y-40535401D01*
X248372419Y-40535401D02*
X248372419Y-40440163D01*
X248372419Y-40440163D02*
X248324800Y-40297306D01*
X248324800Y-40297306D02*
X248277180Y-40249687D01*
X248277180Y-40249687D02*
X247943847Y-40249687D01*
X247943847Y-40249687D02*
X247943847Y-40440163D01*
X248372419Y-39821115D02*
X247372419Y-39821115D01*
X247372419Y-39821115D02*
X248372419Y-39249687D01*
X248372419Y-39249687D02*
X247372419Y-39249687D01*
X248372419Y-38773496D02*
X247372419Y-38773496D01*
X247372419Y-38773496D02*
X247372419Y-38535401D01*
X247372419Y-38535401D02*
X247420038Y-38392544D01*
X247420038Y-38392544D02*
X247515276Y-38297306D01*
X247515276Y-38297306D02*
X247610514Y-38249687D01*
X247610514Y-38249687D02*
X247800990Y-38202068D01*
X247800990Y-38202068D02*
X247943847Y-38202068D01*
X247943847Y-38202068D02*
X248134323Y-38249687D01*
X248134323Y-38249687D02*
X248229561Y-38297306D01*
X248229561Y-38297306D02*
X248324800Y-38392544D01*
X248324800Y-38392544D02*
X248372419Y-38535401D01*
X248372419Y-38535401D02*
X248372419Y-38773496D01*
X253122419Y-44249687D02*
X252646228Y-44583020D01*
X253122419Y-44821115D02*
X252122419Y-44821115D01*
X252122419Y-44821115D02*
X252122419Y-44440163D01*
X252122419Y-44440163D02*
X252170038Y-44344925D01*
X252170038Y-44344925D02*
X252217657Y-44297306D01*
X252217657Y-44297306D02*
X252312895Y-44249687D01*
X252312895Y-44249687D02*
X252455752Y-44249687D01*
X252455752Y-44249687D02*
X252550990Y-44297306D01*
X252550990Y-44297306D02*
X252598609Y-44344925D01*
X252598609Y-44344925D02*
X252646228Y-44440163D01*
X252646228Y-44440163D02*
X252646228Y-44821115D01*
X252598609Y-43821115D02*
X252598609Y-43487782D01*
X253122419Y-43344925D02*
X253122419Y-43821115D01*
X253122419Y-43821115D02*
X252122419Y-43821115D01*
X252122419Y-43821115D02*
X252122419Y-43344925D01*
X253074800Y-42963972D02*
X253122419Y-42821115D01*
X253122419Y-42821115D02*
X253122419Y-42583020D01*
X253122419Y-42583020D02*
X253074800Y-42487782D01*
X253074800Y-42487782D02*
X253027180Y-42440163D01*
X253027180Y-42440163D02*
X252931942Y-42392544D01*
X252931942Y-42392544D02*
X252836704Y-42392544D01*
X252836704Y-42392544D02*
X252741466Y-42440163D01*
X252741466Y-42440163D02*
X252693847Y-42487782D01*
X252693847Y-42487782D02*
X252646228Y-42583020D01*
X252646228Y-42583020D02*
X252598609Y-42773496D01*
X252598609Y-42773496D02*
X252550990Y-42868734D01*
X252550990Y-42868734D02*
X252503371Y-42916353D01*
X252503371Y-42916353D02*
X252408133Y-42963972D01*
X252408133Y-42963972D02*
X252312895Y-42963972D01*
X252312895Y-42963972D02*
X252217657Y-42916353D01*
X252217657Y-42916353D02*
X252170038Y-42868734D01*
X252170038Y-42868734D02*
X252122419Y-42773496D01*
X252122419Y-42773496D02*
X252122419Y-42535401D01*
X252122419Y-42535401D02*
X252170038Y-42392544D01*
X255098609Y-44071115D02*
X255098609Y-43737782D01*
X255622419Y-43594925D02*
X255622419Y-44071115D01*
X255622419Y-44071115D02*
X254622419Y-44071115D01*
X254622419Y-44071115D02*
X254622419Y-43594925D01*
X255622419Y-43166353D02*
X254622419Y-43166353D01*
X254622419Y-43166353D02*
X255622419Y-42594925D01*
X255622419Y-42594925D02*
X254622419Y-42594925D01*
X258027180Y-44249687D02*
X258074800Y-44297306D01*
X258074800Y-44297306D02*
X258122419Y-44440163D01*
X258122419Y-44440163D02*
X258122419Y-44535401D01*
X258122419Y-44535401D02*
X258074800Y-44678258D01*
X258074800Y-44678258D02*
X257979561Y-44773496D01*
X257979561Y-44773496D02*
X257884323Y-44821115D01*
X257884323Y-44821115D02*
X257693847Y-44868734D01*
X257693847Y-44868734D02*
X257550990Y-44868734D01*
X257550990Y-44868734D02*
X257360514Y-44821115D01*
X257360514Y-44821115D02*
X257265276Y-44773496D01*
X257265276Y-44773496D02*
X257170038Y-44678258D01*
X257170038Y-44678258D02*
X257122419Y-44535401D01*
X257122419Y-44535401D02*
X257122419Y-44440163D01*
X257122419Y-44440163D02*
X257170038Y-44297306D01*
X257170038Y-44297306D02*
X257217657Y-44249687D01*
X258122419Y-43344925D02*
X258122419Y-43821115D01*
X258122419Y-43821115D02*
X257122419Y-43821115D01*
X258122419Y-43011591D02*
X257122419Y-43011591D01*
X258122419Y-42440163D02*
X257550990Y-42868734D01*
X257122419Y-42440163D02*
X257693847Y-43011591D01*
X260872419Y-44571115D02*
X259872419Y-44571115D01*
X259872419Y-44571115D02*
X259872419Y-44333020D01*
X259872419Y-44333020D02*
X259920038Y-44190163D01*
X259920038Y-44190163D02*
X260015276Y-44094925D01*
X260015276Y-44094925D02*
X260110514Y-44047306D01*
X260110514Y-44047306D02*
X260300990Y-43999687D01*
X260300990Y-43999687D02*
X260443847Y-43999687D01*
X260443847Y-43999687D02*
X260634323Y-44047306D01*
X260634323Y-44047306D02*
X260729561Y-44094925D01*
X260729561Y-44094925D02*
X260824800Y-44190163D01*
X260824800Y-44190163D02*
X260872419Y-44333020D01*
X260872419Y-44333020D02*
X260872419Y-44571115D01*
X260872419Y-43571115D02*
X259872419Y-43571115D01*
X260872419Y-43094925D02*
X259872419Y-43094925D01*
X259872419Y-43094925D02*
X260872419Y-42523497D01*
X260872419Y-42523497D02*
X259872419Y-42523497D01*
D11*
X29997438Y-57800125D02*
X27997438Y-57800125D01*
X28664104Y-56847744D02*
X29997438Y-56847744D01*
X28854580Y-56847744D02*
X28759342Y-56752506D01*
X28759342Y-56752506D02*
X28664104Y-56562030D01*
X28664104Y-56562030D02*
X28664104Y-56276315D01*
X28664104Y-56276315D02*
X28759342Y-56085839D01*
X28759342Y-56085839D02*
X28949819Y-55990601D01*
X28949819Y-55990601D02*
X29997438Y-55990601D01*
X28664104Y-55038220D02*
X30664104Y-55038220D01*
X28759342Y-55038220D02*
X28664104Y-54847744D01*
X28664104Y-54847744D02*
X28664104Y-54466791D01*
X28664104Y-54466791D02*
X28759342Y-54276315D01*
X28759342Y-54276315D02*
X28854580Y-54181077D01*
X28854580Y-54181077D02*
X29045057Y-54085839D01*
X29045057Y-54085839D02*
X29616485Y-54085839D01*
X29616485Y-54085839D02*
X29806961Y-54181077D01*
X29806961Y-54181077D02*
X29902200Y-54276315D01*
X29902200Y-54276315D02*
X29997438Y-54466791D01*
X29997438Y-54466791D02*
X29997438Y-54847744D01*
X29997438Y-54847744D02*
X29902200Y-55038220D01*
X28664104Y-52371553D02*
X29997438Y-52371553D01*
X28664104Y-53228696D02*
X29711723Y-53228696D01*
X29711723Y-53228696D02*
X29902200Y-53133458D01*
X29902200Y-53133458D02*
X29997438Y-52942982D01*
X29997438Y-52942982D02*
X29997438Y-52657267D01*
X29997438Y-52657267D02*
X29902200Y-52466791D01*
X29902200Y-52466791D02*
X29806961Y-52371553D01*
X28664104Y-51704886D02*
X28664104Y-50942982D01*
X27997438Y-51419172D02*
X29711723Y-51419172D01*
X29711723Y-51419172D02*
X29902200Y-51323934D01*
X29902200Y-51323934D02*
X29997438Y-51133458D01*
X29997438Y-51133458D02*
X29997438Y-50942982D01*
X29199819Y-121550125D02*
X29199819Y-120883458D01*
X30247438Y-120597744D02*
X30247438Y-121550125D01*
X30247438Y-121550125D02*
X28247438Y-121550125D01*
X28247438Y-121550125D02*
X28247438Y-120597744D01*
X30247438Y-118883458D02*
X29199819Y-118883458D01*
X29199819Y-118883458D02*
X29009342Y-118978696D01*
X29009342Y-118978696D02*
X28914104Y-119169172D01*
X28914104Y-119169172D02*
X28914104Y-119550125D01*
X28914104Y-119550125D02*
X29009342Y-119740601D01*
X30152200Y-118883458D02*
X30247438Y-119073934D01*
X30247438Y-119073934D02*
X30247438Y-119550125D01*
X30247438Y-119550125D02*
X30152200Y-119740601D01*
X30152200Y-119740601D02*
X29961723Y-119835839D01*
X29961723Y-119835839D02*
X29771247Y-119835839D01*
X29771247Y-119835839D02*
X29580771Y-119740601D01*
X29580771Y-119740601D02*
X29485533Y-119550125D01*
X29485533Y-119550125D02*
X29485533Y-119073934D01*
X29485533Y-119073934D02*
X29390295Y-118883458D01*
X30152200Y-118026315D02*
X30247438Y-117835839D01*
X30247438Y-117835839D02*
X30247438Y-117454887D01*
X30247438Y-117454887D02*
X30152200Y-117264410D01*
X30152200Y-117264410D02*
X29961723Y-117169172D01*
X29961723Y-117169172D02*
X29866485Y-117169172D01*
X29866485Y-117169172D02*
X29676009Y-117264410D01*
X29676009Y-117264410D02*
X29580771Y-117454887D01*
X29580771Y-117454887D02*
X29580771Y-117740601D01*
X29580771Y-117740601D02*
X29485533Y-117931077D01*
X29485533Y-117931077D02*
X29295057Y-118026315D01*
X29295057Y-118026315D02*
X29199819Y-118026315D01*
X29199819Y-118026315D02*
X29009342Y-117931077D01*
X29009342Y-117931077D02*
X28914104Y-117740601D01*
X28914104Y-117740601D02*
X28914104Y-117454887D01*
X28914104Y-117454887D02*
X29009342Y-117264410D01*
X28914104Y-116597743D02*
X28914104Y-115835839D01*
X28247438Y-116312029D02*
X29961723Y-116312029D01*
X29961723Y-116312029D02*
X30152200Y-116216791D01*
X30152200Y-116216791D02*
X30247438Y-116026315D01*
X30247438Y-116026315D02*
X30247438Y-115835839D01*
X28497438Y-70740601D02*
X30497438Y-70264411D01*
X30497438Y-70264411D02*
X29068866Y-69883458D01*
X29068866Y-69883458D02*
X30497438Y-69502506D01*
X30497438Y-69502506D02*
X28497438Y-69026316D01*
X30402200Y-67502506D02*
X30497438Y-67692982D01*
X30497438Y-67692982D02*
X30497438Y-68073935D01*
X30497438Y-68073935D02*
X30402200Y-68264411D01*
X30402200Y-68264411D02*
X30211723Y-68359649D01*
X30211723Y-68359649D02*
X29449819Y-68359649D01*
X29449819Y-68359649D02*
X29259342Y-68264411D01*
X29259342Y-68264411D02*
X29164104Y-68073935D01*
X29164104Y-68073935D02*
X29164104Y-67692982D01*
X29164104Y-67692982D02*
X29259342Y-67502506D01*
X29259342Y-67502506D02*
X29449819Y-67407268D01*
X29449819Y-67407268D02*
X29640295Y-67407268D01*
X29640295Y-67407268D02*
X29830771Y-68359649D01*
X30402200Y-66645363D02*
X30497438Y-66454887D01*
X30497438Y-66454887D02*
X30497438Y-66073935D01*
X30497438Y-66073935D02*
X30402200Y-65883458D01*
X30402200Y-65883458D02*
X30211723Y-65788220D01*
X30211723Y-65788220D02*
X30116485Y-65788220D01*
X30116485Y-65788220D02*
X29926009Y-65883458D01*
X29926009Y-65883458D02*
X29830771Y-66073935D01*
X29830771Y-66073935D02*
X29830771Y-66359649D01*
X29830771Y-66359649D02*
X29735533Y-66550125D01*
X29735533Y-66550125D02*
X29545057Y-66645363D01*
X29545057Y-66645363D02*
X29449819Y-66645363D01*
X29449819Y-66645363D02*
X29259342Y-66550125D01*
X29259342Y-66550125D02*
X29164104Y-66359649D01*
X29164104Y-66359649D02*
X29164104Y-66073935D01*
X29164104Y-66073935D02*
X29259342Y-65883458D01*
X29164104Y-65216791D02*
X29164104Y-64454887D01*
X28497438Y-64931077D02*
X30211723Y-64931077D01*
X30211723Y-64931077D02*
X30402200Y-64835839D01*
X30402200Y-64835839D02*
X30497438Y-64645363D01*
X30497438Y-64645363D02*
X30497438Y-64454887D01*
X31247438Y-171550125D02*
X29247438Y-171550125D01*
X29247438Y-171550125D02*
X31247438Y-170407268D01*
X31247438Y-170407268D02*
X29247438Y-170407268D01*
X31247438Y-169169173D02*
X31152200Y-169359649D01*
X31152200Y-169359649D02*
X31056961Y-169454887D01*
X31056961Y-169454887D02*
X30866485Y-169550125D01*
X30866485Y-169550125D02*
X30295057Y-169550125D01*
X30295057Y-169550125D02*
X30104580Y-169454887D01*
X30104580Y-169454887D02*
X30009342Y-169359649D01*
X30009342Y-169359649D02*
X29914104Y-169169173D01*
X29914104Y-169169173D02*
X29914104Y-168883458D01*
X29914104Y-168883458D02*
X30009342Y-168692982D01*
X30009342Y-168692982D02*
X30104580Y-168597744D01*
X30104580Y-168597744D02*
X30295057Y-168502506D01*
X30295057Y-168502506D02*
X30866485Y-168502506D01*
X30866485Y-168502506D02*
X31056961Y-168597744D01*
X31056961Y-168597744D02*
X31152200Y-168692982D01*
X31152200Y-168692982D02*
X31247438Y-168883458D01*
X31247438Y-168883458D02*
X31247438Y-169169173D01*
X31247438Y-167645363D02*
X29914104Y-167645363D01*
X30295057Y-167645363D02*
X30104580Y-167550125D01*
X30104580Y-167550125D02*
X30009342Y-167454887D01*
X30009342Y-167454887D02*
X29914104Y-167264411D01*
X29914104Y-167264411D02*
X29914104Y-167073934D01*
X29914104Y-166692982D02*
X29914104Y-165931078D01*
X29247438Y-166407268D02*
X30961723Y-166407268D01*
X30961723Y-166407268D02*
X31152200Y-166312030D01*
X31152200Y-166312030D02*
X31247438Y-166121554D01*
X31247438Y-166121554D02*
X31247438Y-165931078D01*
X31247438Y-165264411D02*
X29247438Y-165264411D01*
X31247438Y-164407268D02*
X30199819Y-164407268D01*
X30199819Y-164407268D02*
X30009342Y-164502506D01*
X30009342Y-164502506D02*
X29914104Y-164692982D01*
X29914104Y-164692982D02*
X29914104Y-164978697D01*
X29914104Y-164978697D02*
X30009342Y-165169173D01*
X30009342Y-165169173D02*
X30104580Y-165264411D01*
D12*
X100845863Y-40497457D02*
X100845863Y-37497457D01*
X100845863Y-37497457D02*
X101560149Y-37497457D01*
X101560149Y-37497457D02*
X101988720Y-37640314D01*
X101988720Y-37640314D02*
X102274435Y-37926028D01*
X102274435Y-37926028D02*
X102417292Y-38211742D01*
X102417292Y-38211742D02*
X102560149Y-38783171D01*
X102560149Y-38783171D02*
X102560149Y-39211742D01*
X102560149Y-39211742D02*
X102417292Y-39783171D01*
X102417292Y-39783171D02*
X102274435Y-40068885D01*
X102274435Y-40068885D02*
X101988720Y-40354600D01*
X101988720Y-40354600D02*
X101560149Y-40497457D01*
X101560149Y-40497457D02*
X100845863Y-40497457D01*
X103845863Y-40497457D02*
X103845863Y-38497457D01*
X103845863Y-37497457D02*
X103703006Y-37640314D01*
X103703006Y-37640314D02*
X103845863Y-37783171D01*
X103845863Y-37783171D02*
X103988720Y-37640314D01*
X103988720Y-37640314D02*
X103845863Y-37497457D01*
X103845863Y-37497457D02*
X103845863Y-37783171D01*
X105274434Y-40497457D02*
X105274434Y-38497457D01*
X105274434Y-39068885D02*
X105417291Y-38783171D01*
X105417291Y-38783171D02*
X105560149Y-38640314D01*
X105560149Y-38640314D02*
X105845863Y-38497457D01*
X105845863Y-38497457D02*
X106131577Y-38497457D01*
X108274434Y-40354600D02*
X107988720Y-40497457D01*
X107988720Y-40497457D02*
X107417292Y-40497457D01*
X107417292Y-40497457D02*
X107131577Y-40354600D01*
X107131577Y-40354600D02*
X106988720Y-40068885D01*
X106988720Y-40068885D02*
X106988720Y-38926028D01*
X106988720Y-38926028D02*
X107131577Y-38640314D01*
X107131577Y-38640314D02*
X107417292Y-38497457D01*
X107417292Y-38497457D02*
X107988720Y-38497457D01*
X107988720Y-38497457D02*
X108274434Y-38640314D01*
X108274434Y-38640314D02*
X108417292Y-38926028D01*
X108417292Y-38926028D02*
X108417292Y-39211742D01*
X108417292Y-39211742D02*
X106988720Y-39497457D01*
X110988721Y-40354600D02*
X110703006Y-40497457D01*
X110703006Y-40497457D02*
X110131578Y-40497457D01*
X110131578Y-40497457D02*
X109845863Y-40354600D01*
X109845863Y-40354600D02*
X109703006Y-40211742D01*
X109703006Y-40211742D02*
X109560149Y-39926028D01*
X109560149Y-39926028D02*
X109560149Y-39068885D01*
X109560149Y-39068885D02*
X109703006Y-38783171D01*
X109703006Y-38783171D02*
X109845863Y-38640314D01*
X109845863Y-38640314D02*
X110131578Y-38497457D01*
X110131578Y-38497457D02*
X110703006Y-38497457D01*
X110703006Y-38497457D02*
X110988721Y-38640314D01*
X111845864Y-38497457D02*
X112988721Y-38497457D01*
X112274435Y-37497457D02*
X112274435Y-40068885D01*
X112274435Y-40068885D02*
X112417292Y-40354600D01*
X112417292Y-40354600D02*
X112703007Y-40497457D01*
X112703007Y-40497457D02*
X112988721Y-40497457D01*
X113988721Y-40497457D02*
X113988721Y-38497457D01*
X113988721Y-37497457D02*
X113845864Y-37640314D01*
X113845864Y-37640314D02*
X113988721Y-37783171D01*
X113988721Y-37783171D02*
X114131578Y-37640314D01*
X114131578Y-37640314D02*
X113988721Y-37497457D01*
X113988721Y-37497457D02*
X113988721Y-37783171D01*
X115845864Y-40497457D02*
X115560149Y-40354600D01*
X115560149Y-40354600D02*
X115417292Y-40211742D01*
X115417292Y-40211742D02*
X115274435Y-39926028D01*
X115274435Y-39926028D02*
X115274435Y-39068885D01*
X115274435Y-39068885D02*
X115417292Y-38783171D01*
X115417292Y-38783171D02*
X115560149Y-38640314D01*
X115560149Y-38640314D02*
X115845864Y-38497457D01*
X115845864Y-38497457D02*
X116274435Y-38497457D01*
X116274435Y-38497457D02*
X116560149Y-38640314D01*
X116560149Y-38640314D02*
X116703007Y-38783171D01*
X116703007Y-38783171D02*
X116845864Y-39068885D01*
X116845864Y-39068885D02*
X116845864Y-39926028D01*
X116845864Y-39926028D02*
X116703007Y-40211742D01*
X116703007Y-40211742D02*
X116560149Y-40354600D01*
X116560149Y-40354600D02*
X116274435Y-40497457D01*
X116274435Y-40497457D02*
X115845864Y-40497457D01*
X118131578Y-38497457D02*
X118131578Y-40497457D01*
X118131578Y-38783171D02*
X118274435Y-38640314D01*
X118274435Y-38640314D02*
X118560150Y-38497457D01*
X118560150Y-38497457D02*
X118988721Y-38497457D01*
X118988721Y-38497457D02*
X119274435Y-38640314D01*
X119274435Y-38640314D02*
X119417293Y-38926028D01*
X119417293Y-38926028D02*
X119417293Y-40497457D01*
X122988721Y-40354600D02*
X123274435Y-40497457D01*
X123274435Y-40497457D02*
X123845864Y-40497457D01*
X123845864Y-40497457D02*
X124131578Y-40354600D01*
X124131578Y-40354600D02*
X124274435Y-40068885D01*
X124274435Y-40068885D02*
X124274435Y-39926028D01*
X124274435Y-39926028D02*
X124131578Y-39640314D01*
X124131578Y-39640314D02*
X123845864Y-39497457D01*
X123845864Y-39497457D02*
X123417293Y-39497457D01*
X123417293Y-39497457D02*
X123131578Y-39354600D01*
X123131578Y-39354600D02*
X122988721Y-39068885D01*
X122988721Y-39068885D02*
X122988721Y-38926028D01*
X122988721Y-38926028D02*
X123131578Y-38640314D01*
X123131578Y-38640314D02*
X123417293Y-38497457D01*
X123417293Y-38497457D02*
X123845864Y-38497457D01*
X123845864Y-38497457D02*
X124131578Y-38640314D01*
X125560149Y-40497457D02*
X125560149Y-38497457D01*
X125560149Y-37497457D02*
X125417292Y-37640314D01*
X125417292Y-37640314D02*
X125560149Y-37783171D01*
X125560149Y-37783171D02*
X125703006Y-37640314D01*
X125703006Y-37640314D02*
X125560149Y-37497457D01*
X125560149Y-37497457D02*
X125560149Y-37783171D01*
X126988720Y-40497457D02*
X126988720Y-38497457D01*
X126988720Y-38783171D02*
X127131577Y-38640314D01*
X127131577Y-38640314D02*
X127417292Y-38497457D01*
X127417292Y-38497457D02*
X127845863Y-38497457D01*
X127845863Y-38497457D02*
X128131577Y-38640314D01*
X128131577Y-38640314D02*
X128274435Y-38926028D01*
X128274435Y-38926028D02*
X128274435Y-40497457D01*
X128274435Y-38926028D02*
X128417292Y-38640314D01*
X128417292Y-38640314D02*
X128703006Y-38497457D01*
X128703006Y-38497457D02*
X129131577Y-38497457D01*
X129131577Y-38497457D02*
X129417292Y-38640314D01*
X129417292Y-38640314D02*
X129560149Y-38926028D01*
X129560149Y-38926028D02*
X129560149Y-40497457D01*
X132274435Y-38497457D02*
X132274435Y-40497457D01*
X130988720Y-38497457D02*
X130988720Y-40068885D01*
X130988720Y-40068885D02*
X131131577Y-40354600D01*
X131131577Y-40354600D02*
X131417292Y-40497457D01*
X131417292Y-40497457D02*
X131845863Y-40497457D01*
X131845863Y-40497457D02*
X132131577Y-40354600D01*
X132131577Y-40354600D02*
X132274435Y-40211742D01*
X134131578Y-40497457D02*
X133845863Y-40354600D01*
X133845863Y-40354600D02*
X133703006Y-40068885D01*
X133703006Y-40068885D02*
X133703006Y-37497457D01*
X136560150Y-40497457D02*
X136560150Y-38926028D01*
X136560150Y-38926028D02*
X136417292Y-38640314D01*
X136417292Y-38640314D02*
X136131578Y-38497457D01*
X136131578Y-38497457D02*
X135560150Y-38497457D01*
X135560150Y-38497457D02*
X135274435Y-38640314D01*
X136560150Y-40354600D02*
X136274435Y-40497457D01*
X136274435Y-40497457D02*
X135560150Y-40497457D01*
X135560150Y-40497457D02*
X135274435Y-40354600D01*
X135274435Y-40354600D02*
X135131578Y-40068885D01*
X135131578Y-40068885D02*
X135131578Y-39783171D01*
X135131578Y-39783171D02*
X135274435Y-39497457D01*
X135274435Y-39497457D02*
X135560150Y-39354600D01*
X135560150Y-39354600D02*
X136274435Y-39354600D01*
X136274435Y-39354600D02*
X136560150Y-39211742D01*
X137560150Y-38497457D02*
X138703007Y-38497457D01*
X137988721Y-37497457D02*
X137988721Y-40068885D01*
X137988721Y-40068885D02*
X138131578Y-40354600D01*
X138131578Y-40354600D02*
X138417293Y-40497457D01*
X138417293Y-40497457D02*
X138703007Y-40497457D01*
X140131579Y-40497457D02*
X139845864Y-40354600D01*
X139845864Y-40354600D02*
X139703007Y-40211742D01*
X139703007Y-40211742D02*
X139560150Y-39926028D01*
X139560150Y-39926028D02*
X139560150Y-39068885D01*
X139560150Y-39068885D02*
X139703007Y-38783171D01*
X139703007Y-38783171D02*
X139845864Y-38640314D01*
X139845864Y-38640314D02*
X140131579Y-38497457D01*
X140131579Y-38497457D02*
X140560150Y-38497457D01*
X140560150Y-38497457D02*
X140845864Y-38640314D01*
X140845864Y-38640314D02*
X140988722Y-38783171D01*
X140988722Y-38783171D02*
X141131579Y-39068885D01*
X141131579Y-39068885D02*
X141131579Y-39926028D01*
X141131579Y-39926028D02*
X140988722Y-40211742D01*
X140988722Y-40211742D02*
X140845864Y-40354600D01*
X140845864Y-40354600D02*
X140560150Y-40497457D01*
X140560150Y-40497457D02*
X140131579Y-40497457D01*
X142417293Y-40497457D02*
X142417293Y-38497457D01*
X142417293Y-39068885D02*
X142560150Y-38783171D01*
X142560150Y-38783171D02*
X142703008Y-38640314D01*
X142703008Y-38640314D02*
X142988722Y-38497457D01*
X142988722Y-38497457D02*
X143274436Y-38497457D01*
D11*
X71901546Y-108354819D02*
X71901546Y-109164342D01*
X71901546Y-109164342D02*
X71949165Y-109259580D01*
X71949165Y-109259580D02*
X71996784Y-109307200D01*
X71996784Y-109307200D02*
X72092022Y-109354819D01*
X72092022Y-109354819D02*
X72282498Y-109354819D01*
X72282498Y-109354819D02*
X72377736Y-109307200D01*
X72377736Y-109307200D02*
X72425355Y-109259580D01*
X72425355Y-109259580D02*
X72472974Y-109164342D01*
X72472974Y-109164342D02*
X72472974Y-108354819D01*
X72901546Y-108450057D02*
X72949165Y-108402438D01*
X72949165Y-108402438D02*
X73044403Y-108354819D01*
X73044403Y-108354819D02*
X73282498Y-108354819D01*
X73282498Y-108354819D02*
X73377736Y-108402438D01*
X73377736Y-108402438D02*
X73425355Y-108450057D01*
X73425355Y-108450057D02*
X73472974Y-108545295D01*
X73472974Y-108545295D02*
X73472974Y-108640533D01*
X73472974Y-108640533D02*
X73425355Y-108783390D01*
X73425355Y-108783390D02*
X72853927Y-109354819D01*
X72853927Y-109354819D02*
X73472974Y-109354819D01*
X73949165Y-109354819D02*
X74139641Y-109354819D01*
X74139641Y-109354819D02*
X74234879Y-109307200D01*
X74234879Y-109307200D02*
X74282498Y-109259580D01*
X74282498Y-109259580D02*
X74377736Y-109116723D01*
X74377736Y-109116723D02*
X74425355Y-108926247D01*
X74425355Y-108926247D02*
X74425355Y-108545295D01*
X74425355Y-108545295D02*
X74377736Y-108450057D01*
X74377736Y-108450057D02*
X74330117Y-108402438D01*
X74330117Y-108402438D02*
X74234879Y-108354819D01*
X74234879Y-108354819D02*
X74044403Y-108354819D01*
X74044403Y-108354819D02*
X73949165Y-108402438D01*
X73949165Y-108402438D02*
X73901546Y-108450057D01*
X73901546Y-108450057D02*
X73853927Y-108545295D01*
X73853927Y-108545295D02*
X73853927Y-108783390D01*
X73853927Y-108783390D02*
X73901546Y-108878628D01*
X73901546Y-108878628D02*
X73949165Y-108926247D01*
X73949165Y-108926247D02*
X74044403Y-108973866D01*
X74044403Y-108973866D02*
X74234879Y-108973866D01*
X74234879Y-108973866D02*
X74330117Y-108926247D01*
X74330117Y-108926247D02*
X74377736Y-108878628D01*
X74377736Y-108878628D02*
X74425355Y-108783390D01*
X140041546Y-108354819D02*
X140041546Y-109164342D01*
X140041546Y-109164342D02*
X140089165Y-109259580D01*
X140089165Y-109259580D02*
X140136784Y-109307200D01*
X140136784Y-109307200D02*
X140232022Y-109354819D01*
X140232022Y-109354819D02*
X140422498Y-109354819D01*
X140422498Y-109354819D02*
X140517736Y-109307200D01*
X140517736Y-109307200D02*
X140565355Y-109259580D01*
X140565355Y-109259580D02*
X140612974Y-109164342D01*
X140612974Y-109164342D02*
X140612974Y-108354819D01*
X140993927Y-108354819D02*
X141612974Y-108354819D01*
X141612974Y-108354819D02*
X141279641Y-108735771D01*
X141279641Y-108735771D02*
X141422498Y-108735771D01*
X141422498Y-108735771D02*
X141517736Y-108783390D01*
X141517736Y-108783390D02*
X141565355Y-108831009D01*
X141565355Y-108831009D02*
X141612974Y-108926247D01*
X141612974Y-108926247D02*
X141612974Y-109164342D01*
X141612974Y-109164342D02*
X141565355Y-109259580D01*
X141565355Y-109259580D02*
X141517736Y-109307200D01*
X141517736Y-109307200D02*
X141422498Y-109354819D01*
X141422498Y-109354819D02*
X141136784Y-109354819D01*
X141136784Y-109354819D02*
X141041546Y-109307200D01*
X141041546Y-109307200D02*
X140993927Y-109259580D01*
X142470117Y-108354819D02*
X142279641Y-108354819D01*
X142279641Y-108354819D02*
X142184403Y-108402438D01*
X142184403Y-108402438D02*
X142136784Y-108450057D01*
X142136784Y-108450057D02*
X142041546Y-108592914D01*
X142041546Y-108592914D02*
X141993927Y-108783390D01*
X141993927Y-108783390D02*
X141993927Y-109164342D01*
X141993927Y-109164342D02*
X142041546Y-109259580D01*
X142041546Y-109259580D02*
X142089165Y-109307200D01*
X142089165Y-109307200D02*
X142184403Y-109354819D01*
X142184403Y-109354819D02*
X142374879Y-109354819D01*
X142374879Y-109354819D02*
X142470117Y-109307200D01*
X142470117Y-109307200D02*
X142517736Y-109259580D01*
X142517736Y-109259580D02*
X142565355Y-109164342D01*
X142565355Y-109164342D02*
X142565355Y-108926247D01*
X142565355Y-108926247D02*
X142517736Y-108831009D01*
X142517736Y-108831009D02*
X142470117Y-108783390D01*
X142470117Y-108783390D02*
X142374879Y-108735771D01*
X142374879Y-108735771D02*
X142184403Y-108735771D01*
X142184403Y-108735771D02*
X142089165Y-108783390D01*
X142089165Y-108783390D02*
X142041546Y-108831009D01*
X142041546Y-108831009D02*
X141993927Y-108926247D01*
X156674405Y-159194819D02*
X156674405Y-160004342D01*
X156674405Y-160004342D02*
X156722024Y-160099580D01*
X156722024Y-160099580D02*
X156769643Y-160147200D01*
X156769643Y-160147200D02*
X156864881Y-160194819D01*
X156864881Y-160194819D02*
X157055357Y-160194819D01*
X157055357Y-160194819D02*
X157150595Y-160147200D01*
X157150595Y-160147200D02*
X157198214Y-160099580D01*
X157198214Y-160099580D02*
X157245833Y-160004342D01*
X157245833Y-160004342D02*
X157245833Y-159194819D01*
X158245833Y-160194819D02*
X157674405Y-160194819D01*
X157960119Y-160194819D02*
X157960119Y-159194819D01*
X157960119Y-159194819D02*
X157864881Y-159337676D01*
X157864881Y-159337676D02*
X157769643Y-159432914D01*
X157769643Y-159432914D02*
X157674405Y-159480533D01*
X159150595Y-159194819D02*
X158674405Y-159194819D01*
X158674405Y-159194819D02*
X158626786Y-159671009D01*
X158626786Y-159671009D02*
X158674405Y-159623390D01*
X158674405Y-159623390D02*
X158769643Y-159575771D01*
X158769643Y-159575771D02*
X159007738Y-159575771D01*
X159007738Y-159575771D02*
X159102976Y-159623390D01*
X159102976Y-159623390D02*
X159150595Y-159671009D01*
X159150595Y-159671009D02*
X159198214Y-159766247D01*
X159198214Y-159766247D02*
X159198214Y-160004342D01*
X159198214Y-160004342D02*
X159150595Y-160099580D01*
X159150595Y-160099580D02*
X159102976Y-160147200D01*
X159102976Y-160147200D02*
X159007738Y-160194819D01*
X159007738Y-160194819D02*
X158769643Y-160194819D01*
X158769643Y-160194819D02*
X158674405Y-160147200D01*
X158674405Y-160147200D02*
X158626786Y-160099580D01*
X222159048Y-167497200D02*
X222301905Y-167544819D01*
X222301905Y-167544819D02*
X222540000Y-167544819D01*
X222540000Y-167544819D02*
X222635238Y-167497200D01*
X222635238Y-167497200D02*
X222682857Y-167449580D01*
X222682857Y-167449580D02*
X222730476Y-167354342D01*
X222730476Y-167354342D02*
X222730476Y-167259104D01*
X222730476Y-167259104D02*
X222682857Y-167163866D01*
X222682857Y-167163866D02*
X222635238Y-167116247D01*
X222635238Y-167116247D02*
X222540000Y-167068628D01*
X222540000Y-167068628D02*
X222349524Y-167021009D01*
X222349524Y-167021009D02*
X222254286Y-166973390D01*
X222254286Y-166973390D02*
X222206667Y-166925771D01*
X222206667Y-166925771D02*
X222159048Y-166830533D01*
X222159048Y-166830533D02*
X222159048Y-166735295D01*
X222159048Y-166735295D02*
X222206667Y-166640057D01*
X222206667Y-166640057D02*
X222254286Y-166592438D01*
X222254286Y-166592438D02*
X222349524Y-166544819D01*
X222349524Y-166544819D02*
X222587619Y-166544819D01*
X222587619Y-166544819D02*
X222730476Y-166592438D01*
X223063810Y-166544819D02*
X223301905Y-167544819D01*
X223301905Y-167544819D02*
X223492381Y-166830533D01*
X223492381Y-166830533D02*
X223682857Y-167544819D01*
X223682857Y-167544819D02*
X223920953Y-166544819D01*
X224301905Y-167544819D02*
X224301905Y-166544819D01*
X224301905Y-166544819D02*
X224635238Y-167259104D01*
X224635238Y-167259104D02*
X224968571Y-166544819D01*
X224968571Y-166544819D02*
X224968571Y-167544819D01*
X225397143Y-167497200D02*
X225540000Y-167544819D01*
X225540000Y-167544819D02*
X225778095Y-167544819D01*
X225778095Y-167544819D02*
X225873333Y-167497200D01*
X225873333Y-167497200D02*
X225920952Y-167449580D01*
X225920952Y-167449580D02*
X225968571Y-167354342D01*
X225968571Y-167354342D02*
X225968571Y-167259104D01*
X225968571Y-167259104D02*
X225920952Y-167163866D01*
X225920952Y-167163866D02*
X225873333Y-167116247D01*
X225873333Y-167116247D02*
X225778095Y-167068628D01*
X225778095Y-167068628D02*
X225587619Y-167021009D01*
X225587619Y-167021009D02*
X225492381Y-166973390D01*
X225492381Y-166973390D02*
X225444762Y-166925771D01*
X225444762Y-166925771D02*
X225397143Y-166830533D01*
X225397143Y-166830533D02*
X225397143Y-166735295D01*
X225397143Y-166735295D02*
X225444762Y-166640057D01*
X225444762Y-166640057D02*
X225492381Y-166592438D01*
X225492381Y-166592438D02*
X225587619Y-166544819D01*
X225587619Y-166544819D02*
X225825714Y-166544819D01*
X225825714Y-166544819D02*
X225968571Y-166592438D01*
X226730476Y-167021009D02*
X226873333Y-167068628D01*
X226873333Y-167068628D02*
X226920952Y-167116247D01*
X226920952Y-167116247D02*
X226968571Y-167211485D01*
X226968571Y-167211485D02*
X226968571Y-167354342D01*
X226968571Y-167354342D02*
X226920952Y-167449580D01*
X226920952Y-167449580D02*
X226873333Y-167497200D01*
X226873333Y-167497200D02*
X226778095Y-167544819D01*
X226778095Y-167544819D02*
X226397143Y-167544819D01*
X226397143Y-167544819D02*
X226397143Y-166544819D01*
X226397143Y-166544819D02*
X226730476Y-166544819D01*
X226730476Y-166544819D02*
X226825714Y-166592438D01*
X226825714Y-166592438D02*
X226873333Y-166640057D01*
X226873333Y-166640057D02*
X226920952Y-166735295D01*
X226920952Y-166735295D02*
X226920952Y-166830533D01*
X226920952Y-166830533D02*
X226873333Y-166925771D01*
X226873333Y-166925771D02*
X226825714Y-166973390D01*
X226825714Y-166973390D02*
X226730476Y-167021009D01*
X226730476Y-167021009D02*
X226397143Y-167021009D01*
X227920952Y-167544819D02*
X227349524Y-167544819D01*
X227635238Y-167544819D02*
X227635238Y-166544819D01*
X227635238Y-166544819D02*
X227540000Y-166687676D01*
X227540000Y-166687676D02*
X227444762Y-166782914D01*
X227444762Y-166782914D02*
X227349524Y-166830533D01*
X32777319Y-47358333D02*
X33491604Y-47358333D01*
X33491604Y-47358333D02*
X33634461Y-47405952D01*
X33634461Y-47405952D02*
X33729700Y-47501190D01*
X33729700Y-47501190D02*
X33777319Y-47644047D01*
X33777319Y-47644047D02*
X33777319Y-47739285D01*
X32777319Y-46405952D02*
X32777319Y-46882142D01*
X32777319Y-46882142D02*
X33253509Y-46929761D01*
X33253509Y-46929761D02*
X33205890Y-46882142D01*
X33205890Y-46882142D02*
X33158271Y-46786904D01*
X33158271Y-46786904D02*
X33158271Y-46548809D01*
X33158271Y-46548809D02*
X33205890Y-46453571D01*
X33205890Y-46453571D02*
X33253509Y-46405952D01*
X33253509Y-46405952D02*
X33348747Y-46358333D01*
X33348747Y-46358333D02*
X33586842Y-46358333D01*
X33586842Y-46358333D02*
X33682080Y-46405952D01*
X33682080Y-46405952D02*
X33729700Y-46453571D01*
X33729700Y-46453571D02*
X33777319Y-46548809D01*
X33777319Y-46548809D02*
X33777319Y-46786904D01*
X33777319Y-46786904D02*
X33729700Y-46882142D01*
X33729700Y-46882142D02*
X33682080Y-46929761D01*
X221931964Y-55762200D02*
X222074821Y-55809819D01*
X222074821Y-55809819D02*
X222312916Y-55809819D01*
X222312916Y-55809819D02*
X222408154Y-55762200D01*
X222408154Y-55762200D02*
X222455773Y-55714580D01*
X222455773Y-55714580D02*
X222503392Y-55619342D01*
X222503392Y-55619342D02*
X222503392Y-55524104D01*
X222503392Y-55524104D02*
X222455773Y-55428866D01*
X222455773Y-55428866D02*
X222408154Y-55381247D01*
X222408154Y-55381247D02*
X222312916Y-55333628D01*
X222312916Y-55333628D02*
X222122440Y-55286009D01*
X222122440Y-55286009D02*
X222027202Y-55238390D01*
X222027202Y-55238390D02*
X221979583Y-55190771D01*
X221979583Y-55190771D02*
X221931964Y-55095533D01*
X221931964Y-55095533D02*
X221931964Y-55000295D01*
X221931964Y-55000295D02*
X221979583Y-54905057D01*
X221979583Y-54905057D02*
X222027202Y-54857438D01*
X222027202Y-54857438D02*
X222122440Y-54809819D01*
X222122440Y-54809819D02*
X222360535Y-54809819D01*
X222360535Y-54809819D02*
X222503392Y-54857438D01*
X222836726Y-54809819D02*
X223074821Y-55809819D01*
X223074821Y-55809819D02*
X223265297Y-55095533D01*
X223265297Y-55095533D02*
X223455773Y-55809819D01*
X223455773Y-55809819D02*
X223693869Y-54809819D01*
X224551011Y-55809819D02*
X224074821Y-55809819D01*
X224074821Y-55809819D02*
X224074821Y-54809819D01*
X224836726Y-55762200D02*
X224979583Y-55809819D01*
X224979583Y-55809819D02*
X225217678Y-55809819D01*
X225217678Y-55809819D02*
X225312916Y-55762200D01*
X225312916Y-55762200D02*
X225360535Y-55714580D01*
X225360535Y-55714580D02*
X225408154Y-55619342D01*
X225408154Y-55619342D02*
X225408154Y-55524104D01*
X225408154Y-55524104D02*
X225360535Y-55428866D01*
X225360535Y-55428866D02*
X225312916Y-55381247D01*
X225312916Y-55381247D02*
X225217678Y-55333628D01*
X225217678Y-55333628D02*
X225027202Y-55286009D01*
X225027202Y-55286009D02*
X224931964Y-55238390D01*
X224931964Y-55238390D02*
X224884345Y-55190771D01*
X224884345Y-55190771D02*
X224836726Y-55095533D01*
X224836726Y-55095533D02*
X224836726Y-55000295D01*
X224836726Y-55000295D02*
X224884345Y-54905057D01*
X224884345Y-54905057D02*
X224931964Y-54857438D01*
X224931964Y-54857438D02*
X225027202Y-54809819D01*
X225027202Y-54809819D02*
X225265297Y-54809819D01*
X225265297Y-54809819D02*
X225408154Y-54857438D01*
X226170059Y-55286009D02*
X226312916Y-55333628D01*
X226312916Y-55333628D02*
X226360535Y-55381247D01*
X226360535Y-55381247D02*
X226408154Y-55476485D01*
X226408154Y-55476485D02*
X226408154Y-55619342D01*
X226408154Y-55619342D02*
X226360535Y-55714580D01*
X226360535Y-55714580D02*
X226312916Y-55762200D01*
X226312916Y-55762200D02*
X226217678Y-55809819D01*
X226217678Y-55809819D02*
X225836726Y-55809819D01*
X225836726Y-55809819D02*
X225836726Y-54809819D01*
X225836726Y-54809819D02*
X226170059Y-54809819D01*
X226170059Y-54809819D02*
X226265297Y-54857438D01*
X226265297Y-54857438D02*
X226312916Y-54905057D01*
X226312916Y-54905057D02*
X226360535Y-55000295D01*
X226360535Y-55000295D02*
X226360535Y-55095533D01*
X226360535Y-55095533D02*
X226312916Y-55190771D01*
X226312916Y-55190771D02*
X226265297Y-55238390D01*
X226265297Y-55238390D02*
X226170059Y-55286009D01*
X226170059Y-55286009D02*
X225836726Y-55286009D01*
X226741488Y-54809819D02*
X227360535Y-54809819D01*
X227360535Y-54809819D02*
X227027202Y-55190771D01*
X227027202Y-55190771D02*
X227170059Y-55190771D01*
X227170059Y-55190771D02*
X227265297Y-55238390D01*
X227265297Y-55238390D02*
X227312916Y-55286009D01*
X227312916Y-55286009D02*
X227360535Y-55381247D01*
X227360535Y-55381247D02*
X227360535Y-55619342D01*
X227360535Y-55619342D02*
X227312916Y-55714580D01*
X227312916Y-55714580D02*
X227265297Y-55762200D01*
X227265297Y-55762200D02*
X227170059Y-55809819D01*
X227170059Y-55809819D02*
X226884345Y-55809819D01*
X226884345Y-55809819D02*
X226789107Y-55762200D01*
X226789107Y-55762200D02*
X226741488Y-55714580D01*
X148470655Y-52704819D02*
X148470655Y-53514342D01*
X148470655Y-53514342D02*
X148518274Y-53609580D01*
X148518274Y-53609580D02*
X148565893Y-53657200D01*
X148565893Y-53657200D02*
X148661131Y-53704819D01*
X148661131Y-53704819D02*
X148851607Y-53704819D01*
X148851607Y-53704819D02*
X148946845Y-53657200D01*
X148946845Y-53657200D02*
X148994464Y-53609580D01*
X148994464Y-53609580D02*
X149042083Y-53514342D01*
X149042083Y-53514342D02*
X149042083Y-52704819D01*
X149994464Y-52704819D02*
X149518274Y-52704819D01*
X149518274Y-52704819D02*
X149470655Y-53181009D01*
X149470655Y-53181009D02*
X149518274Y-53133390D01*
X149518274Y-53133390D02*
X149613512Y-53085771D01*
X149613512Y-53085771D02*
X149851607Y-53085771D01*
X149851607Y-53085771D02*
X149946845Y-53133390D01*
X149946845Y-53133390D02*
X149994464Y-53181009D01*
X149994464Y-53181009D02*
X150042083Y-53276247D01*
X150042083Y-53276247D02*
X150042083Y-53514342D01*
X150042083Y-53514342D02*
X149994464Y-53609580D01*
X149994464Y-53609580D02*
X149946845Y-53657200D01*
X149946845Y-53657200D02*
X149851607Y-53704819D01*
X149851607Y-53704819D02*
X149613512Y-53704819D01*
X149613512Y-53704819D02*
X149518274Y-53657200D01*
X149518274Y-53657200D02*
X149470655Y-53609580D01*
X150423036Y-52800057D02*
X150470655Y-52752438D01*
X150470655Y-52752438D02*
X150565893Y-52704819D01*
X150565893Y-52704819D02*
X150803988Y-52704819D01*
X150803988Y-52704819D02*
X150899226Y-52752438D01*
X150899226Y-52752438D02*
X150946845Y-52800057D01*
X150946845Y-52800057D02*
X150994464Y-52895295D01*
X150994464Y-52895295D02*
X150994464Y-52990533D01*
X150994464Y-52990533D02*
X150946845Y-53133390D01*
X150946845Y-53133390D02*
X150375417Y-53704819D01*
X150375417Y-53704819D02*
X150994464Y-53704819D01*
X54809046Y-108419819D02*
X54809046Y-109229342D01*
X54809046Y-109229342D02*
X54856665Y-109324580D01*
X54856665Y-109324580D02*
X54904284Y-109372200D01*
X54904284Y-109372200D02*
X54999522Y-109419819D01*
X54999522Y-109419819D02*
X55189998Y-109419819D01*
X55189998Y-109419819D02*
X55285236Y-109372200D01*
X55285236Y-109372200D02*
X55332855Y-109324580D01*
X55332855Y-109324580D02*
X55380474Y-109229342D01*
X55380474Y-109229342D02*
X55380474Y-108419819D01*
X55809046Y-108515057D02*
X55856665Y-108467438D01*
X55856665Y-108467438D02*
X55951903Y-108419819D01*
X55951903Y-108419819D02*
X56189998Y-108419819D01*
X56189998Y-108419819D02*
X56285236Y-108467438D01*
X56285236Y-108467438D02*
X56332855Y-108515057D01*
X56332855Y-108515057D02*
X56380474Y-108610295D01*
X56380474Y-108610295D02*
X56380474Y-108705533D01*
X56380474Y-108705533D02*
X56332855Y-108848390D01*
X56332855Y-108848390D02*
X55761427Y-109419819D01*
X55761427Y-109419819D02*
X56380474Y-109419819D01*
X56951903Y-108848390D02*
X56856665Y-108800771D01*
X56856665Y-108800771D02*
X56809046Y-108753152D01*
X56809046Y-108753152D02*
X56761427Y-108657914D01*
X56761427Y-108657914D02*
X56761427Y-108610295D01*
X56761427Y-108610295D02*
X56809046Y-108515057D01*
X56809046Y-108515057D02*
X56856665Y-108467438D01*
X56856665Y-108467438D02*
X56951903Y-108419819D01*
X56951903Y-108419819D02*
X57142379Y-108419819D01*
X57142379Y-108419819D02*
X57237617Y-108467438D01*
X57237617Y-108467438D02*
X57285236Y-108515057D01*
X57285236Y-108515057D02*
X57332855Y-108610295D01*
X57332855Y-108610295D02*
X57332855Y-108657914D01*
X57332855Y-108657914D02*
X57285236Y-108753152D01*
X57285236Y-108753152D02*
X57237617Y-108800771D01*
X57237617Y-108800771D02*
X57142379Y-108848390D01*
X57142379Y-108848390D02*
X56951903Y-108848390D01*
X56951903Y-108848390D02*
X56856665Y-108896009D01*
X56856665Y-108896009D02*
X56809046Y-108943628D01*
X56809046Y-108943628D02*
X56761427Y-109038866D01*
X56761427Y-109038866D02*
X56761427Y-109229342D01*
X56761427Y-109229342D02*
X56809046Y-109324580D01*
X56809046Y-109324580D02*
X56856665Y-109372200D01*
X56856665Y-109372200D02*
X56951903Y-109419819D01*
X56951903Y-109419819D02*
X57142379Y-109419819D01*
X57142379Y-109419819D02*
X57237617Y-109372200D01*
X57237617Y-109372200D02*
X57285236Y-109324580D01*
X57285236Y-109324580D02*
X57332855Y-109229342D01*
X57332855Y-109229342D02*
X57332855Y-109038866D01*
X57332855Y-109038866D02*
X57285236Y-108943628D01*
X57285236Y-108943628D02*
X57237617Y-108896009D01*
X57237617Y-108896009D02*
X57142379Y-108848390D01*
X224333333Y-38484580D02*
X224285714Y-38532200D01*
X224285714Y-38532200D02*
X224142857Y-38579819D01*
X224142857Y-38579819D02*
X224047619Y-38579819D01*
X224047619Y-38579819D02*
X223904762Y-38532200D01*
X223904762Y-38532200D02*
X223809524Y-38436961D01*
X223809524Y-38436961D02*
X223761905Y-38341723D01*
X223761905Y-38341723D02*
X223714286Y-38151247D01*
X223714286Y-38151247D02*
X223714286Y-38008390D01*
X223714286Y-38008390D02*
X223761905Y-37817914D01*
X223761905Y-37817914D02*
X223809524Y-37722676D01*
X223809524Y-37722676D02*
X223904762Y-37627438D01*
X223904762Y-37627438D02*
X224047619Y-37579819D01*
X224047619Y-37579819D02*
X224142857Y-37579819D01*
X224142857Y-37579819D02*
X224285714Y-37627438D01*
X224285714Y-37627438D02*
X224333333Y-37675057D01*
X224666667Y-37579819D02*
X225333333Y-37579819D01*
X225333333Y-37579819D02*
X224904762Y-38579819D01*
X156901546Y-108419819D02*
X156901546Y-109229342D01*
X156901546Y-109229342D02*
X156949165Y-109324580D01*
X156949165Y-109324580D02*
X156996784Y-109372200D01*
X156996784Y-109372200D02*
X157092022Y-109419819D01*
X157092022Y-109419819D02*
X157282498Y-109419819D01*
X157282498Y-109419819D02*
X157377736Y-109372200D01*
X157377736Y-109372200D02*
X157425355Y-109324580D01*
X157425355Y-109324580D02*
X157472974Y-109229342D01*
X157472974Y-109229342D02*
X157472974Y-108419819D01*
X157853927Y-108419819D02*
X158472974Y-108419819D01*
X158472974Y-108419819D02*
X158139641Y-108800771D01*
X158139641Y-108800771D02*
X158282498Y-108800771D01*
X158282498Y-108800771D02*
X158377736Y-108848390D01*
X158377736Y-108848390D02*
X158425355Y-108896009D01*
X158425355Y-108896009D02*
X158472974Y-108991247D01*
X158472974Y-108991247D02*
X158472974Y-109229342D01*
X158472974Y-109229342D02*
X158425355Y-109324580D01*
X158425355Y-109324580D02*
X158377736Y-109372200D01*
X158377736Y-109372200D02*
X158282498Y-109419819D01*
X158282498Y-109419819D02*
X157996784Y-109419819D01*
X157996784Y-109419819D02*
X157901546Y-109372200D01*
X157901546Y-109372200D02*
X157853927Y-109324580D01*
X158806308Y-108419819D02*
X159472974Y-108419819D01*
X159472974Y-108419819D02*
X159044403Y-109419819D01*
X236833333Y-38084580D02*
X236785714Y-38132200D01*
X236785714Y-38132200D02*
X236642857Y-38179819D01*
X236642857Y-38179819D02*
X236547619Y-38179819D01*
X236547619Y-38179819D02*
X236404762Y-38132200D01*
X236404762Y-38132200D02*
X236309524Y-38036961D01*
X236309524Y-38036961D02*
X236261905Y-37941723D01*
X236261905Y-37941723D02*
X236214286Y-37751247D01*
X236214286Y-37751247D02*
X236214286Y-37608390D01*
X236214286Y-37608390D02*
X236261905Y-37417914D01*
X236261905Y-37417914D02*
X236309524Y-37322676D01*
X236309524Y-37322676D02*
X236404762Y-37227438D01*
X236404762Y-37227438D02*
X236547619Y-37179819D01*
X236547619Y-37179819D02*
X236642857Y-37179819D01*
X236642857Y-37179819D02*
X236785714Y-37227438D01*
X236785714Y-37227438D02*
X236833333Y-37275057D01*
X237404762Y-37608390D02*
X237309524Y-37560771D01*
X237309524Y-37560771D02*
X237261905Y-37513152D01*
X237261905Y-37513152D02*
X237214286Y-37417914D01*
X237214286Y-37417914D02*
X237214286Y-37370295D01*
X237214286Y-37370295D02*
X237261905Y-37275057D01*
X237261905Y-37275057D02*
X237309524Y-37227438D01*
X237309524Y-37227438D02*
X237404762Y-37179819D01*
X237404762Y-37179819D02*
X237595238Y-37179819D01*
X237595238Y-37179819D02*
X237690476Y-37227438D01*
X237690476Y-37227438D02*
X237738095Y-37275057D01*
X237738095Y-37275057D02*
X237785714Y-37370295D01*
X237785714Y-37370295D02*
X237785714Y-37417914D01*
X237785714Y-37417914D02*
X237738095Y-37513152D01*
X237738095Y-37513152D02*
X237690476Y-37560771D01*
X237690476Y-37560771D02*
X237595238Y-37608390D01*
X237595238Y-37608390D02*
X237404762Y-37608390D01*
X237404762Y-37608390D02*
X237309524Y-37656009D01*
X237309524Y-37656009D02*
X237261905Y-37703628D01*
X237261905Y-37703628D02*
X237214286Y-37798866D01*
X237214286Y-37798866D02*
X237214286Y-37989342D01*
X237214286Y-37989342D02*
X237261905Y-38084580D01*
X237261905Y-38084580D02*
X237309524Y-38132200D01*
X237309524Y-38132200D02*
X237404762Y-38179819D01*
X237404762Y-38179819D02*
X237595238Y-38179819D01*
X237595238Y-38179819D02*
X237690476Y-38132200D01*
X237690476Y-38132200D02*
X237738095Y-38084580D01*
X237738095Y-38084580D02*
X237785714Y-37989342D01*
X237785714Y-37989342D02*
X237785714Y-37798866D01*
X237785714Y-37798866D02*
X237738095Y-37703628D01*
X237738095Y-37703628D02*
X237690476Y-37656009D01*
X237690476Y-37656009D02*
X237595238Y-37608390D01*
X80378155Y-52769819D02*
X80378155Y-53579342D01*
X80378155Y-53579342D02*
X80425774Y-53674580D01*
X80425774Y-53674580D02*
X80473393Y-53722200D01*
X80473393Y-53722200D02*
X80568631Y-53769819D01*
X80568631Y-53769819D02*
X80759107Y-53769819D01*
X80759107Y-53769819D02*
X80854345Y-53722200D01*
X80854345Y-53722200D02*
X80901964Y-53674580D01*
X80901964Y-53674580D02*
X80949583Y-53579342D01*
X80949583Y-53579342D02*
X80949583Y-52769819D01*
X81854345Y-53103152D02*
X81854345Y-53769819D01*
X81616250Y-52722200D02*
X81378155Y-53436485D01*
X81378155Y-53436485D02*
X81997202Y-53436485D01*
X82330536Y-52865057D02*
X82378155Y-52817438D01*
X82378155Y-52817438D02*
X82473393Y-52769819D01*
X82473393Y-52769819D02*
X82711488Y-52769819D01*
X82711488Y-52769819D02*
X82806726Y-52817438D01*
X82806726Y-52817438D02*
X82854345Y-52865057D01*
X82854345Y-52865057D02*
X82901964Y-52960295D01*
X82901964Y-52960295D02*
X82901964Y-53055533D01*
X82901964Y-53055533D02*
X82854345Y-53198390D01*
X82854345Y-53198390D02*
X82282917Y-53769819D01*
X82282917Y-53769819D02*
X82901964Y-53769819D01*
X38380952Y-79829819D02*
X38047619Y-79353628D01*
X37809524Y-79829819D02*
X37809524Y-78829819D01*
X37809524Y-78829819D02*
X38190476Y-78829819D01*
X38190476Y-78829819D02*
X38285714Y-78877438D01*
X38285714Y-78877438D02*
X38333333Y-78925057D01*
X38333333Y-78925057D02*
X38380952Y-79020295D01*
X38380952Y-79020295D02*
X38380952Y-79163152D01*
X38380952Y-79163152D02*
X38333333Y-79258390D01*
X38333333Y-79258390D02*
X38285714Y-79306009D01*
X38285714Y-79306009D02*
X38190476Y-79353628D01*
X38190476Y-79353628D02*
X37809524Y-79353628D01*
X39333333Y-79829819D02*
X38761905Y-79829819D01*
X39047619Y-79829819D02*
X39047619Y-78829819D01*
X39047619Y-78829819D02*
X38952381Y-78972676D01*
X38952381Y-78972676D02*
X38857143Y-79067914D01*
X38857143Y-79067914D02*
X38761905Y-79115533D01*
X39714286Y-78925057D02*
X39761905Y-78877438D01*
X39761905Y-78877438D02*
X39857143Y-78829819D01*
X39857143Y-78829819D02*
X40095238Y-78829819D01*
X40095238Y-78829819D02*
X40190476Y-78877438D01*
X40190476Y-78877438D02*
X40238095Y-78925057D01*
X40238095Y-78925057D02*
X40285714Y-79020295D01*
X40285714Y-79020295D02*
X40285714Y-79115533D01*
X40285714Y-79115533D02*
X40238095Y-79258390D01*
X40238095Y-79258390D02*
X39666667Y-79829819D01*
X39666667Y-79829819D02*
X40285714Y-79829819D01*
X41142857Y-79163152D02*
X41142857Y-79829819D01*
X40904762Y-78782200D02*
X40666667Y-79496485D01*
X40666667Y-79496485D02*
X41285714Y-79496485D01*
X41030952Y-38729819D02*
X40697619Y-38253628D01*
X40459524Y-38729819D02*
X40459524Y-37729819D01*
X40459524Y-37729819D02*
X40840476Y-37729819D01*
X40840476Y-37729819D02*
X40935714Y-37777438D01*
X40935714Y-37777438D02*
X40983333Y-37825057D01*
X40983333Y-37825057D02*
X41030952Y-37920295D01*
X41030952Y-37920295D02*
X41030952Y-38063152D01*
X41030952Y-38063152D02*
X40983333Y-38158390D01*
X40983333Y-38158390D02*
X40935714Y-38206009D01*
X40935714Y-38206009D02*
X40840476Y-38253628D01*
X40840476Y-38253628D02*
X40459524Y-38253628D01*
X41983333Y-38729819D02*
X41411905Y-38729819D01*
X41697619Y-38729819D02*
X41697619Y-37729819D01*
X41697619Y-37729819D02*
X41602381Y-37872676D01*
X41602381Y-37872676D02*
X41507143Y-37967914D01*
X41507143Y-37967914D02*
X41411905Y-38015533D01*
X42316667Y-37729819D02*
X42935714Y-37729819D01*
X42935714Y-37729819D02*
X42602381Y-38110771D01*
X42602381Y-38110771D02*
X42745238Y-38110771D01*
X42745238Y-38110771D02*
X42840476Y-38158390D01*
X42840476Y-38158390D02*
X42888095Y-38206009D01*
X42888095Y-38206009D02*
X42935714Y-38301247D01*
X42935714Y-38301247D02*
X42935714Y-38539342D01*
X42935714Y-38539342D02*
X42888095Y-38634580D01*
X42888095Y-38634580D02*
X42840476Y-38682200D01*
X42840476Y-38682200D02*
X42745238Y-38729819D01*
X42745238Y-38729819D02*
X42459524Y-38729819D01*
X42459524Y-38729819D02*
X42364286Y-38682200D01*
X42364286Y-38682200D02*
X42316667Y-38634580D01*
X43316667Y-37825057D02*
X43364286Y-37777438D01*
X43364286Y-37777438D02*
X43459524Y-37729819D01*
X43459524Y-37729819D02*
X43697619Y-37729819D01*
X43697619Y-37729819D02*
X43792857Y-37777438D01*
X43792857Y-37777438D02*
X43840476Y-37825057D01*
X43840476Y-37825057D02*
X43888095Y-37920295D01*
X43888095Y-37920295D02*
X43888095Y-38015533D01*
X43888095Y-38015533D02*
X43840476Y-38158390D01*
X43840476Y-38158390D02*
X43269048Y-38729819D01*
X43269048Y-38729819D02*
X43888095Y-38729819D01*
X222386189Y-116722200D02*
X222529046Y-116769819D01*
X222529046Y-116769819D02*
X222767141Y-116769819D01*
X222767141Y-116769819D02*
X222862379Y-116722200D01*
X222862379Y-116722200D02*
X222909998Y-116674580D01*
X222909998Y-116674580D02*
X222957617Y-116579342D01*
X222957617Y-116579342D02*
X222957617Y-116484104D01*
X222957617Y-116484104D02*
X222909998Y-116388866D01*
X222909998Y-116388866D02*
X222862379Y-116341247D01*
X222862379Y-116341247D02*
X222767141Y-116293628D01*
X222767141Y-116293628D02*
X222576665Y-116246009D01*
X222576665Y-116246009D02*
X222481427Y-116198390D01*
X222481427Y-116198390D02*
X222433808Y-116150771D01*
X222433808Y-116150771D02*
X222386189Y-116055533D01*
X222386189Y-116055533D02*
X222386189Y-115960295D01*
X222386189Y-115960295D02*
X222433808Y-115865057D01*
X222433808Y-115865057D02*
X222481427Y-115817438D01*
X222481427Y-115817438D02*
X222576665Y-115769819D01*
X222576665Y-115769819D02*
X222814760Y-115769819D01*
X222814760Y-115769819D02*
X222957617Y-115817438D01*
X223290951Y-115769819D02*
X223529046Y-116769819D01*
X223529046Y-116769819D02*
X223719522Y-116055533D01*
X223719522Y-116055533D02*
X223909998Y-116769819D01*
X223909998Y-116769819D02*
X224148094Y-115769819D01*
X224529046Y-116769819D02*
X224529046Y-115769819D01*
X224529046Y-115769819D02*
X224862379Y-116484104D01*
X224862379Y-116484104D02*
X225195712Y-115769819D01*
X225195712Y-115769819D02*
X225195712Y-116769819D01*
X225624284Y-116722200D02*
X225767141Y-116769819D01*
X225767141Y-116769819D02*
X226005236Y-116769819D01*
X226005236Y-116769819D02*
X226100474Y-116722200D01*
X226100474Y-116722200D02*
X226148093Y-116674580D01*
X226148093Y-116674580D02*
X226195712Y-116579342D01*
X226195712Y-116579342D02*
X226195712Y-116484104D01*
X226195712Y-116484104D02*
X226148093Y-116388866D01*
X226148093Y-116388866D02*
X226100474Y-116341247D01*
X226100474Y-116341247D02*
X226005236Y-116293628D01*
X226005236Y-116293628D02*
X225814760Y-116246009D01*
X225814760Y-116246009D02*
X225719522Y-116198390D01*
X225719522Y-116198390D02*
X225671903Y-116150771D01*
X225671903Y-116150771D02*
X225624284Y-116055533D01*
X225624284Y-116055533D02*
X225624284Y-115960295D01*
X225624284Y-115960295D02*
X225671903Y-115865057D01*
X225671903Y-115865057D02*
X225719522Y-115817438D01*
X225719522Y-115817438D02*
X225814760Y-115769819D01*
X225814760Y-115769819D02*
X226052855Y-115769819D01*
X226052855Y-115769819D02*
X226195712Y-115817438D01*
X226957617Y-116246009D02*
X227100474Y-116293628D01*
X227100474Y-116293628D02*
X227148093Y-116341247D01*
X227148093Y-116341247D02*
X227195712Y-116436485D01*
X227195712Y-116436485D02*
X227195712Y-116579342D01*
X227195712Y-116579342D02*
X227148093Y-116674580D01*
X227148093Y-116674580D02*
X227100474Y-116722200D01*
X227100474Y-116722200D02*
X227005236Y-116769819D01*
X227005236Y-116769819D02*
X226624284Y-116769819D01*
X226624284Y-116769819D02*
X226624284Y-115769819D01*
X226624284Y-115769819D02*
X226957617Y-115769819D01*
X226957617Y-115769819D02*
X227052855Y-115817438D01*
X227052855Y-115817438D02*
X227100474Y-115865057D01*
X227100474Y-115865057D02*
X227148093Y-115960295D01*
X227148093Y-115960295D02*
X227148093Y-116055533D01*
X227148093Y-116055533D02*
X227100474Y-116150771D01*
X227100474Y-116150771D02*
X227052855Y-116198390D01*
X227052855Y-116198390D02*
X226957617Y-116246009D01*
X226957617Y-116246009D02*
X226624284Y-116246009D01*
X227576665Y-115865057D02*
X227624284Y-115817438D01*
X227624284Y-115817438D02*
X227719522Y-115769819D01*
X227719522Y-115769819D02*
X227957617Y-115769819D01*
X227957617Y-115769819D02*
X228052855Y-115817438D01*
X228052855Y-115817438D02*
X228100474Y-115865057D01*
X228100474Y-115865057D02*
X228148093Y-115960295D01*
X228148093Y-115960295D02*
X228148093Y-116055533D01*
X228148093Y-116055533D02*
X228100474Y-116198390D01*
X228100474Y-116198390D02*
X227529046Y-116769819D01*
X227529046Y-116769819D02*
X228148093Y-116769819D01*
X131901546Y-103454819D02*
X131901546Y-104264342D01*
X131901546Y-104264342D02*
X131949165Y-104359580D01*
X131949165Y-104359580D02*
X131996784Y-104407200D01*
X131996784Y-104407200D02*
X132092022Y-104454819D01*
X132092022Y-104454819D02*
X132282498Y-104454819D01*
X132282498Y-104454819D02*
X132377736Y-104407200D01*
X132377736Y-104407200D02*
X132425355Y-104359580D01*
X132425355Y-104359580D02*
X132472974Y-104264342D01*
X132472974Y-104264342D02*
X132472974Y-103454819D01*
X132853927Y-103454819D02*
X133472974Y-103454819D01*
X133472974Y-103454819D02*
X133139641Y-103835771D01*
X133139641Y-103835771D02*
X133282498Y-103835771D01*
X133282498Y-103835771D02*
X133377736Y-103883390D01*
X133377736Y-103883390D02*
X133425355Y-103931009D01*
X133425355Y-103931009D02*
X133472974Y-104026247D01*
X133472974Y-104026247D02*
X133472974Y-104264342D01*
X133472974Y-104264342D02*
X133425355Y-104359580D01*
X133425355Y-104359580D02*
X133377736Y-104407200D01*
X133377736Y-104407200D02*
X133282498Y-104454819D01*
X133282498Y-104454819D02*
X132996784Y-104454819D01*
X132996784Y-104454819D02*
X132901546Y-104407200D01*
X132901546Y-104407200D02*
X132853927Y-104359580D01*
X133853927Y-103550057D02*
X133901546Y-103502438D01*
X133901546Y-103502438D02*
X133996784Y-103454819D01*
X133996784Y-103454819D02*
X134234879Y-103454819D01*
X134234879Y-103454819D02*
X134330117Y-103502438D01*
X134330117Y-103502438D02*
X134377736Y-103550057D01*
X134377736Y-103550057D02*
X134425355Y-103645295D01*
X134425355Y-103645295D02*
X134425355Y-103740533D01*
X134425355Y-103740533D02*
X134377736Y-103883390D01*
X134377736Y-103883390D02*
X133806308Y-104454819D01*
X133806308Y-104454819D02*
X134425355Y-104454819D01*
X139814405Y-159129819D02*
X139814405Y-159939342D01*
X139814405Y-159939342D02*
X139862024Y-160034580D01*
X139862024Y-160034580D02*
X139909643Y-160082200D01*
X139909643Y-160082200D02*
X140004881Y-160129819D01*
X140004881Y-160129819D02*
X140195357Y-160129819D01*
X140195357Y-160129819D02*
X140290595Y-160082200D01*
X140290595Y-160082200D02*
X140338214Y-160034580D01*
X140338214Y-160034580D02*
X140385833Y-159939342D01*
X140385833Y-159939342D02*
X140385833Y-159129819D01*
X141385833Y-160129819D02*
X140814405Y-160129819D01*
X141100119Y-160129819D02*
X141100119Y-159129819D01*
X141100119Y-159129819D02*
X141004881Y-159272676D01*
X141004881Y-159272676D02*
X140909643Y-159367914D01*
X140909643Y-159367914D02*
X140814405Y-159415533D01*
X142242976Y-159463152D02*
X142242976Y-160129819D01*
X142004881Y-159082200D02*
X141766786Y-159796485D01*
X141766786Y-159796485D02*
X142385833Y-159796485D01*
X122453155Y-57604819D02*
X122453155Y-58414342D01*
X122453155Y-58414342D02*
X122500774Y-58509580D01*
X122500774Y-58509580D02*
X122548393Y-58557200D01*
X122548393Y-58557200D02*
X122643631Y-58604819D01*
X122643631Y-58604819D02*
X122834107Y-58604819D01*
X122834107Y-58604819D02*
X122929345Y-58557200D01*
X122929345Y-58557200D02*
X122976964Y-58509580D01*
X122976964Y-58509580D02*
X123024583Y-58414342D01*
X123024583Y-58414342D02*
X123024583Y-57604819D01*
X123976964Y-57604819D02*
X123500774Y-57604819D01*
X123500774Y-57604819D02*
X123453155Y-58081009D01*
X123453155Y-58081009D02*
X123500774Y-58033390D01*
X123500774Y-58033390D02*
X123596012Y-57985771D01*
X123596012Y-57985771D02*
X123834107Y-57985771D01*
X123834107Y-57985771D02*
X123929345Y-58033390D01*
X123929345Y-58033390D02*
X123976964Y-58081009D01*
X123976964Y-58081009D02*
X124024583Y-58176247D01*
X124024583Y-58176247D02*
X124024583Y-58414342D01*
X124024583Y-58414342D02*
X123976964Y-58509580D01*
X123976964Y-58509580D02*
X123929345Y-58557200D01*
X123929345Y-58557200D02*
X123834107Y-58604819D01*
X123834107Y-58604819D02*
X123596012Y-58604819D01*
X123596012Y-58604819D02*
X123500774Y-58557200D01*
X123500774Y-58557200D02*
X123453155Y-58509580D01*
X124881726Y-57938152D02*
X124881726Y-58604819D01*
X124643631Y-57557200D02*
X124405536Y-58271485D01*
X124405536Y-58271485D02*
X125024583Y-58271485D01*
X28204819Y-137458333D02*
X28919104Y-137458333D01*
X28919104Y-137458333D02*
X29061961Y-137505952D01*
X29061961Y-137505952D02*
X29157200Y-137601190D01*
X29157200Y-137601190D02*
X29204819Y-137744047D01*
X29204819Y-137744047D02*
X29204819Y-137839285D01*
X28300057Y-137029761D02*
X28252438Y-136982142D01*
X28252438Y-136982142D02*
X28204819Y-136886904D01*
X28204819Y-136886904D02*
X28204819Y-136648809D01*
X28204819Y-136648809D02*
X28252438Y-136553571D01*
X28252438Y-136553571D02*
X28300057Y-136505952D01*
X28300057Y-136505952D02*
X28395295Y-136458333D01*
X28395295Y-136458333D02*
X28490533Y-136458333D01*
X28490533Y-136458333D02*
X28633390Y-136505952D01*
X28633390Y-136505952D02*
X29204819Y-137077380D01*
X29204819Y-137077380D02*
X29204819Y-136458333D01*
X114378155Y-52719819D02*
X114378155Y-53529342D01*
X114378155Y-53529342D02*
X114425774Y-53624580D01*
X114425774Y-53624580D02*
X114473393Y-53672200D01*
X114473393Y-53672200D02*
X114568631Y-53719819D01*
X114568631Y-53719819D02*
X114759107Y-53719819D01*
X114759107Y-53719819D02*
X114854345Y-53672200D01*
X114854345Y-53672200D02*
X114901964Y-53624580D01*
X114901964Y-53624580D02*
X114949583Y-53529342D01*
X114949583Y-53529342D02*
X114949583Y-52719819D01*
X115901964Y-52719819D02*
X115425774Y-52719819D01*
X115425774Y-52719819D02*
X115378155Y-53196009D01*
X115378155Y-53196009D02*
X115425774Y-53148390D01*
X115425774Y-53148390D02*
X115521012Y-53100771D01*
X115521012Y-53100771D02*
X115759107Y-53100771D01*
X115759107Y-53100771D02*
X115854345Y-53148390D01*
X115854345Y-53148390D02*
X115901964Y-53196009D01*
X115901964Y-53196009D02*
X115949583Y-53291247D01*
X115949583Y-53291247D02*
X115949583Y-53529342D01*
X115949583Y-53529342D02*
X115901964Y-53624580D01*
X115901964Y-53624580D02*
X115854345Y-53672200D01*
X115854345Y-53672200D02*
X115759107Y-53719819D01*
X115759107Y-53719819D02*
X115521012Y-53719819D01*
X115521012Y-53719819D02*
X115425774Y-53672200D01*
X115425774Y-53672200D02*
X115378155Y-53624580D01*
X116568631Y-52719819D02*
X116663869Y-52719819D01*
X116663869Y-52719819D02*
X116759107Y-52767438D01*
X116759107Y-52767438D02*
X116806726Y-52815057D01*
X116806726Y-52815057D02*
X116854345Y-52910295D01*
X116854345Y-52910295D02*
X116901964Y-53100771D01*
X116901964Y-53100771D02*
X116901964Y-53338866D01*
X116901964Y-53338866D02*
X116854345Y-53529342D01*
X116854345Y-53529342D02*
X116806726Y-53624580D01*
X116806726Y-53624580D02*
X116759107Y-53672200D01*
X116759107Y-53672200D02*
X116663869Y-53719819D01*
X116663869Y-53719819D02*
X116568631Y-53719819D01*
X116568631Y-53719819D02*
X116473393Y-53672200D01*
X116473393Y-53672200D02*
X116425774Y-53624580D01*
X116425774Y-53624580D02*
X116378155Y-53529342D01*
X116378155Y-53529342D02*
X116330536Y-53338866D01*
X116330536Y-53338866D02*
X116330536Y-53100771D01*
X116330536Y-53100771D02*
X116378155Y-52910295D01*
X116378155Y-52910295D02*
X116425774Y-52815057D01*
X116425774Y-52815057D02*
X116473393Y-52767438D01*
X116473393Y-52767438D02*
X116568631Y-52719819D01*
X38107142Y-130829819D02*
X37773809Y-130353628D01*
X37535714Y-130829819D02*
X37535714Y-129829819D01*
X37535714Y-129829819D02*
X37916666Y-129829819D01*
X37916666Y-129829819D02*
X38011904Y-129877438D01*
X38011904Y-129877438D02*
X38059523Y-129925057D01*
X38059523Y-129925057D02*
X38107142Y-130020295D01*
X38107142Y-130020295D02*
X38107142Y-130163152D01*
X38107142Y-130163152D02*
X38059523Y-130258390D01*
X38059523Y-130258390D02*
X38011904Y-130306009D01*
X38011904Y-130306009D02*
X37916666Y-130353628D01*
X37916666Y-130353628D02*
X37535714Y-130353628D01*
X38678571Y-130258390D02*
X38583333Y-130210771D01*
X38583333Y-130210771D02*
X38535714Y-130163152D01*
X38535714Y-130163152D02*
X38488095Y-130067914D01*
X38488095Y-130067914D02*
X38488095Y-130020295D01*
X38488095Y-130020295D02*
X38535714Y-129925057D01*
X38535714Y-129925057D02*
X38583333Y-129877438D01*
X38583333Y-129877438D02*
X38678571Y-129829819D01*
X38678571Y-129829819D02*
X38869047Y-129829819D01*
X38869047Y-129829819D02*
X38964285Y-129877438D01*
X38964285Y-129877438D02*
X39011904Y-129925057D01*
X39011904Y-129925057D02*
X39059523Y-130020295D01*
X39059523Y-130020295D02*
X39059523Y-130067914D01*
X39059523Y-130067914D02*
X39011904Y-130163152D01*
X39011904Y-130163152D02*
X38964285Y-130210771D01*
X38964285Y-130210771D02*
X38869047Y-130258390D01*
X38869047Y-130258390D02*
X38678571Y-130258390D01*
X38678571Y-130258390D02*
X38583333Y-130306009D01*
X38583333Y-130306009D02*
X38535714Y-130353628D01*
X38535714Y-130353628D02*
X38488095Y-130448866D01*
X38488095Y-130448866D02*
X38488095Y-130639342D01*
X38488095Y-130639342D02*
X38535714Y-130734580D01*
X38535714Y-130734580D02*
X38583333Y-130782200D01*
X38583333Y-130782200D02*
X38678571Y-130829819D01*
X38678571Y-130829819D02*
X38869047Y-130829819D01*
X38869047Y-130829819D02*
X38964285Y-130782200D01*
X38964285Y-130782200D02*
X39011904Y-130734580D01*
X39011904Y-130734580D02*
X39059523Y-130639342D01*
X39059523Y-130639342D02*
X39059523Y-130448866D01*
X39059523Y-130448866D02*
X39011904Y-130353628D01*
X39011904Y-130353628D02*
X38964285Y-130306009D01*
X38964285Y-130306009D02*
X38869047Y-130258390D01*
X40011904Y-130829819D02*
X39440476Y-130829819D01*
X39726190Y-130829819D02*
X39726190Y-129829819D01*
X39726190Y-129829819D02*
X39630952Y-129972676D01*
X39630952Y-129972676D02*
X39535714Y-130067914D01*
X39535714Y-130067914D02*
X39440476Y-130115533D01*
X122656905Y-159129819D02*
X122656905Y-159939342D01*
X122656905Y-159939342D02*
X122704524Y-160034580D01*
X122704524Y-160034580D02*
X122752143Y-160082200D01*
X122752143Y-160082200D02*
X122847381Y-160129819D01*
X122847381Y-160129819D02*
X123037857Y-160129819D01*
X123037857Y-160129819D02*
X123133095Y-160082200D01*
X123133095Y-160082200D02*
X123180714Y-160034580D01*
X123180714Y-160034580D02*
X123228333Y-159939342D01*
X123228333Y-159939342D02*
X123228333Y-159129819D01*
X124228333Y-160129819D02*
X123656905Y-160129819D01*
X123942619Y-160129819D02*
X123942619Y-159129819D01*
X123942619Y-159129819D02*
X123847381Y-159272676D01*
X123847381Y-159272676D02*
X123752143Y-159367914D01*
X123752143Y-159367914D02*
X123656905Y-159415533D01*
X124561667Y-159129819D02*
X125180714Y-159129819D01*
X125180714Y-159129819D02*
X124847381Y-159510771D01*
X124847381Y-159510771D02*
X124990238Y-159510771D01*
X124990238Y-159510771D02*
X125085476Y-159558390D01*
X125085476Y-159558390D02*
X125133095Y-159606009D01*
X125133095Y-159606009D02*
X125180714Y-159701247D01*
X125180714Y-159701247D02*
X125180714Y-159939342D01*
X125180714Y-159939342D02*
X125133095Y-160034580D01*
X125133095Y-160034580D02*
X125085476Y-160082200D01*
X125085476Y-160082200D02*
X124990238Y-160129819D01*
X124990238Y-160129819D02*
X124704524Y-160129819D01*
X124704524Y-160129819D02*
X124609286Y-160082200D01*
X124609286Y-160082200D02*
X124561667Y-160034580D01*
X28204819Y-188208333D02*
X28919104Y-188208333D01*
X28919104Y-188208333D02*
X29061961Y-188255952D01*
X29061961Y-188255952D02*
X29157200Y-188351190D01*
X29157200Y-188351190D02*
X29204819Y-188494047D01*
X29204819Y-188494047D02*
X29204819Y-188589285D01*
X29204819Y-187208333D02*
X29204819Y-187779761D01*
X29204819Y-187494047D02*
X28204819Y-187494047D01*
X28204819Y-187494047D02*
X28347676Y-187589285D01*
X28347676Y-187589285D02*
X28442914Y-187684523D01*
X28442914Y-187684523D02*
X28490533Y-187779761D01*
X173306905Y-159129819D02*
X173306905Y-159939342D01*
X173306905Y-159939342D02*
X173354524Y-160034580D01*
X173354524Y-160034580D02*
X173402143Y-160082200D01*
X173402143Y-160082200D02*
X173497381Y-160129819D01*
X173497381Y-160129819D02*
X173687857Y-160129819D01*
X173687857Y-160129819D02*
X173783095Y-160082200D01*
X173783095Y-160082200D02*
X173830714Y-160034580D01*
X173830714Y-160034580D02*
X173878333Y-159939342D01*
X173878333Y-159939342D02*
X173878333Y-159129819D01*
X174878333Y-160129819D02*
X174306905Y-160129819D01*
X174592619Y-160129819D02*
X174592619Y-159129819D01*
X174592619Y-159129819D02*
X174497381Y-159272676D01*
X174497381Y-159272676D02*
X174402143Y-159367914D01*
X174402143Y-159367914D02*
X174306905Y-159415533D01*
X175735476Y-159129819D02*
X175545000Y-159129819D01*
X175545000Y-159129819D02*
X175449762Y-159177438D01*
X175449762Y-159177438D02*
X175402143Y-159225057D01*
X175402143Y-159225057D02*
X175306905Y-159367914D01*
X175306905Y-159367914D02*
X175259286Y-159558390D01*
X175259286Y-159558390D02*
X175259286Y-159939342D01*
X175259286Y-159939342D02*
X175306905Y-160034580D01*
X175306905Y-160034580D02*
X175354524Y-160082200D01*
X175354524Y-160082200D02*
X175449762Y-160129819D01*
X175449762Y-160129819D02*
X175640238Y-160129819D01*
X175640238Y-160129819D02*
X175735476Y-160082200D01*
X175735476Y-160082200D02*
X175783095Y-160034580D01*
X175783095Y-160034580D02*
X175830714Y-159939342D01*
X175830714Y-159939342D02*
X175830714Y-159701247D01*
X175830714Y-159701247D02*
X175783095Y-159606009D01*
X175783095Y-159606009D02*
X175735476Y-159558390D01*
X175735476Y-159558390D02*
X175640238Y-159510771D01*
X175640238Y-159510771D02*
X175449762Y-159510771D01*
X175449762Y-159510771D02*
X175354524Y-159558390D01*
X175354524Y-159558390D02*
X175306905Y-159606009D01*
X175306905Y-159606009D02*
X175259286Y-159701247D01*
X173103155Y-57604819D02*
X173103155Y-58414342D01*
X173103155Y-58414342D02*
X173150774Y-58509580D01*
X173150774Y-58509580D02*
X173198393Y-58557200D01*
X173198393Y-58557200D02*
X173293631Y-58604819D01*
X173293631Y-58604819D02*
X173484107Y-58604819D01*
X173484107Y-58604819D02*
X173579345Y-58557200D01*
X173579345Y-58557200D02*
X173626964Y-58509580D01*
X173626964Y-58509580D02*
X173674583Y-58414342D01*
X173674583Y-58414342D02*
X173674583Y-57604819D01*
X174626964Y-57604819D02*
X174150774Y-57604819D01*
X174150774Y-57604819D02*
X174103155Y-58081009D01*
X174103155Y-58081009D02*
X174150774Y-58033390D01*
X174150774Y-58033390D02*
X174246012Y-57985771D01*
X174246012Y-57985771D02*
X174484107Y-57985771D01*
X174484107Y-57985771D02*
X174579345Y-58033390D01*
X174579345Y-58033390D02*
X174626964Y-58081009D01*
X174626964Y-58081009D02*
X174674583Y-58176247D01*
X174674583Y-58176247D02*
X174674583Y-58414342D01*
X174674583Y-58414342D02*
X174626964Y-58509580D01*
X174626964Y-58509580D02*
X174579345Y-58557200D01*
X174579345Y-58557200D02*
X174484107Y-58604819D01*
X174484107Y-58604819D02*
X174246012Y-58604819D01*
X174246012Y-58604819D02*
X174150774Y-58557200D01*
X174150774Y-58557200D02*
X174103155Y-58509580D01*
X175007917Y-57604819D02*
X175674583Y-57604819D01*
X175674583Y-57604819D02*
X175246012Y-58604819D01*
X88378155Y-57619819D02*
X88378155Y-58429342D01*
X88378155Y-58429342D02*
X88425774Y-58524580D01*
X88425774Y-58524580D02*
X88473393Y-58572200D01*
X88473393Y-58572200D02*
X88568631Y-58619819D01*
X88568631Y-58619819D02*
X88759107Y-58619819D01*
X88759107Y-58619819D02*
X88854345Y-58572200D01*
X88854345Y-58572200D02*
X88901964Y-58524580D01*
X88901964Y-58524580D02*
X88949583Y-58429342D01*
X88949583Y-58429342D02*
X88949583Y-57619819D01*
X89854345Y-57953152D02*
X89854345Y-58619819D01*
X89616250Y-57572200D02*
X89378155Y-58286485D01*
X89378155Y-58286485D02*
X89997202Y-58286485D01*
X90854345Y-57619819D02*
X90378155Y-57619819D01*
X90378155Y-57619819D02*
X90330536Y-58096009D01*
X90330536Y-58096009D02*
X90378155Y-58048390D01*
X90378155Y-58048390D02*
X90473393Y-58000771D01*
X90473393Y-58000771D02*
X90711488Y-58000771D01*
X90711488Y-58000771D02*
X90806726Y-58048390D01*
X90806726Y-58048390D02*
X90854345Y-58096009D01*
X90854345Y-58096009D02*
X90901964Y-58191247D01*
X90901964Y-58191247D02*
X90901964Y-58429342D01*
X90901964Y-58429342D02*
X90854345Y-58524580D01*
X90854345Y-58524580D02*
X90806726Y-58572200D01*
X90806726Y-58572200D02*
X90711488Y-58619819D01*
X90711488Y-58619819D02*
X90473393Y-58619819D01*
X90473393Y-58619819D02*
X90378155Y-58572200D01*
X90378155Y-58572200D02*
X90330536Y-58524580D01*
X148674405Y-154229819D02*
X148674405Y-155039342D01*
X148674405Y-155039342D02*
X148722024Y-155134580D01*
X148722024Y-155134580D02*
X148769643Y-155182200D01*
X148769643Y-155182200D02*
X148864881Y-155229819D01*
X148864881Y-155229819D02*
X149055357Y-155229819D01*
X149055357Y-155229819D02*
X149150595Y-155182200D01*
X149150595Y-155182200D02*
X149198214Y-155134580D01*
X149198214Y-155134580D02*
X149245833Y-155039342D01*
X149245833Y-155039342D02*
X149245833Y-154229819D01*
X150245833Y-155229819D02*
X149674405Y-155229819D01*
X149960119Y-155229819D02*
X149960119Y-154229819D01*
X149960119Y-154229819D02*
X149864881Y-154372676D01*
X149864881Y-154372676D02*
X149769643Y-154467914D01*
X149769643Y-154467914D02*
X149674405Y-154515533D01*
X151198214Y-155229819D02*
X150626786Y-155229819D01*
X150912500Y-155229819D02*
X150912500Y-154229819D01*
X150912500Y-154229819D02*
X150817262Y-154372676D01*
X150817262Y-154372676D02*
X150722024Y-154467914D01*
X150722024Y-154467914D02*
X150626786Y-154515533D01*
X63378155Y-52769819D02*
X63378155Y-53579342D01*
X63378155Y-53579342D02*
X63425774Y-53674580D01*
X63425774Y-53674580D02*
X63473393Y-53722200D01*
X63473393Y-53722200D02*
X63568631Y-53769819D01*
X63568631Y-53769819D02*
X63759107Y-53769819D01*
X63759107Y-53769819D02*
X63854345Y-53722200D01*
X63854345Y-53722200D02*
X63901964Y-53674580D01*
X63901964Y-53674580D02*
X63949583Y-53579342D01*
X63949583Y-53579342D02*
X63949583Y-52769819D01*
X64854345Y-53103152D02*
X64854345Y-53769819D01*
X64616250Y-52722200D02*
X64378155Y-53436485D01*
X64378155Y-53436485D02*
X64997202Y-53436485D01*
X65901964Y-53769819D02*
X65330536Y-53769819D01*
X65616250Y-53769819D02*
X65616250Y-52769819D01*
X65616250Y-52769819D02*
X65521012Y-52912676D01*
X65521012Y-52912676D02*
X65425774Y-53007914D01*
X65425774Y-53007914D02*
X65330536Y-53055533D01*
X237824819Y-40208333D02*
X238539104Y-40208333D01*
X238539104Y-40208333D02*
X238681961Y-40255952D01*
X238681961Y-40255952D02*
X238777200Y-40351190D01*
X238777200Y-40351190D02*
X238824819Y-40494047D01*
X238824819Y-40494047D02*
X238824819Y-40589285D01*
X237824819Y-39303571D02*
X237824819Y-39494047D01*
X237824819Y-39494047D02*
X237872438Y-39589285D01*
X237872438Y-39589285D02*
X237920057Y-39636904D01*
X237920057Y-39636904D02*
X238062914Y-39732142D01*
X238062914Y-39732142D02*
X238253390Y-39779761D01*
X238253390Y-39779761D02*
X238634342Y-39779761D01*
X238634342Y-39779761D02*
X238729580Y-39732142D01*
X238729580Y-39732142D02*
X238777200Y-39684523D01*
X238777200Y-39684523D02*
X238824819Y-39589285D01*
X238824819Y-39589285D02*
X238824819Y-39398809D01*
X238824819Y-39398809D02*
X238777200Y-39303571D01*
X238777200Y-39303571D02*
X238729580Y-39255952D01*
X238729580Y-39255952D02*
X238634342Y-39208333D01*
X238634342Y-39208333D02*
X238396247Y-39208333D01*
X238396247Y-39208333D02*
X238301009Y-39255952D01*
X238301009Y-39255952D02*
X238253390Y-39303571D01*
X238253390Y-39303571D02*
X238205771Y-39398809D01*
X238205771Y-39398809D02*
X238205771Y-39589285D01*
X238205771Y-39589285D02*
X238253390Y-39684523D01*
X238253390Y-39684523D02*
X238301009Y-39732142D01*
X238301009Y-39732142D02*
X238396247Y-39779761D01*
X35607142Y-138079819D02*
X35273809Y-137603628D01*
X35035714Y-138079819D02*
X35035714Y-137079819D01*
X35035714Y-137079819D02*
X35416666Y-137079819D01*
X35416666Y-137079819D02*
X35511904Y-137127438D01*
X35511904Y-137127438D02*
X35559523Y-137175057D01*
X35559523Y-137175057D02*
X35607142Y-137270295D01*
X35607142Y-137270295D02*
X35607142Y-137413152D01*
X35607142Y-137413152D02*
X35559523Y-137508390D01*
X35559523Y-137508390D02*
X35511904Y-137556009D01*
X35511904Y-137556009D02*
X35416666Y-137603628D01*
X35416666Y-137603628D02*
X35035714Y-137603628D01*
X36178571Y-137508390D02*
X36083333Y-137460771D01*
X36083333Y-137460771D02*
X36035714Y-137413152D01*
X36035714Y-137413152D02*
X35988095Y-137317914D01*
X35988095Y-137317914D02*
X35988095Y-137270295D01*
X35988095Y-137270295D02*
X36035714Y-137175057D01*
X36035714Y-137175057D02*
X36083333Y-137127438D01*
X36083333Y-137127438D02*
X36178571Y-137079819D01*
X36178571Y-137079819D02*
X36369047Y-137079819D01*
X36369047Y-137079819D02*
X36464285Y-137127438D01*
X36464285Y-137127438D02*
X36511904Y-137175057D01*
X36511904Y-137175057D02*
X36559523Y-137270295D01*
X36559523Y-137270295D02*
X36559523Y-137317914D01*
X36559523Y-137317914D02*
X36511904Y-137413152D01*
X36511904Y-137413152D02*
X36464285Y-137460771D01*
X36464285Y-137460771D02*
X36369047Y-137508390D01*
X36369047Y-137508390D02*
X36178571Y-137508390D01*
X36178571Y-137508390D02*
X36083333Y-137556009D01*
X36083333Y-137556009D02*
X36035714Y-137603628D01*
X36035714Y-137603628D02*
X35988095Y-137698866D01*
X35988095Y-137698866D02*
X35988095Y-137889342D01*
X35988095Y-137889342D02*
X36035714Y-137984580D01*
X36035714Y-137984580D02*
X36083333Y-138032200D01*
X36083333Y-138032200D02*
X36178571Y-138079819D01*
X36178571Y-138079819D02*
X36369047Y-138079819D01*
X36369047Y-138079819D02*
X36464285Y-138032200D01*
X36464285Y-138032200D02*
X36511904Y-137984580D01*
X36511904Y-137984580D02*
X36559523Y-137889342D01*
X36559523Y-137889342D02*
X36559523Y-137698866D01*
X36559523Y-137698866D02*
X36511904Y-137603628D01*
X36511904Y-137603628D02*
X36464285Y-137556009D01*
X36464285Y-137556009D02*
X36369047Y-137508390D01*
X36940476Y-137175057D02*
X36988095Y-137127438D01*
X36988095Y-137127438D02*
X37083333Y-137079819D01*
X37083333Y-137079819D02*
X37321428Y-137079819D01*
X37321428Y-137079819D02*
X37416666Y-137127438D01*
X37416666Y-137127438D02*
X37464285Y-137175057D01*
X37464285Y-137175057D02*
X37511904Y-137270295D01*
X37511904Y-137270295D02*
X37511904Y-137365533D01*
X37511904Y-137365533D02*
X37464285Y-137508390D01*
X37464285Y-137508390D02*
X36892857Y-138079819D01*
X36892857Y-138079819D02*
X37511904Y-138079819D01*
X201916666Y-39806009D02*
X201583333Y-39806009D01*
X201583333Y-40329819D02*
X201583333Y-39329819D01*
X201583333Y-39329819D02*
X202059523Y-39329819D01*
X202773809Y-39806009D02*
X202916666Y-39853628D01*
X202916666Y-39853628D02*
X202964285Y-39901247D01*
X202964285Y-39901247D02*
X203011904Y-39996485D01*
X203011904Y-39996485D02*
X203011904Y-40139342D01*
X203011904Y-40139342D02*
X202964285Y-40234580D01*
X202964285Y-40234580D02*
X202916666Y-40282200D01*
X202916666Y-40282200D02*
X202821428Y-40329819D01*
X202821428Y-40329819D02*
X202440476Y-40329819D01*
X202440476Y-40329819D02*
X202440476Y-39329819D01*
X202440476Y-39329819D02*
X202773809Y-39329819D01*
X202773809Y-39329819D02*
X202869047Y-39377438D01*
X202869047Y-39377438D02*
X202916666Y-39425057D01*
X202916666Y-39425057D02*
X202964285Y-39520295D01*
X202964285Y-39520295D02*
X202964285Y-39615533D01*
X202964285Y-39615533D02*
X202916666Y-39710771D01*
X202916666Y-39710771D02*
X202869047Y-39758390D01*
X202869047Y-39758390D02*
X202773809Y-39806009D01*
X202773809Y-39806009D02*
X202440476Y-39806009D01*
X203869047Y-39663152D02*
X203869047Y-40329819D01*
X203630952Y-39282200D02*
X203392857Y-39996485D01*
X203392857Y-39996485D02*
X204011904Y-39996485D01*
X222362855Y-106512200D02*
X222505712Y-106559819D01*
X222505712Y-106559819D02*
X222743807Y-106559819D01*
X222743807Y-106559819D02*
X222839045Y-106512200D01*
X222839045Y-106512200D02*
X222886664Y-106464580D01*
X222886664Y-106464580D02*
X222934283Y-106369342D01*
X222934283Y-106369342D02*
X222934283Y-106274104D01*
X222934283Y-106274104D02*
X222886664Y-106178866D01*
X222886664Y-106178866D02*
X222839045Y-106131247D01*
X222839045Y-106131247D02*
X222743807Y-106083628D01*
X222743807Y-106083628D02*
X222553331Y-106036009D01*
X222553331Y-106036009D02*
X222458093Y-105988390D01*
X222458093Y-105988390D02*
X222410474Y-105940771D01*
X222410474Y-105940771D02*
X222362855Y-105845533D01*
X222362855Y-105845533D02*
X222362855Y-105750295D01*
X222362855Y-105750295D02*
X222410474Y-105655057D01*
X222410474Y-105655057D02*
X222458093Y-105607438D01*
X222458093Y-105607438D02*
X222553331Y-105559819D01*
X222553331Y-105559819D02*
X222791426Y-105559819D01*
X222791426Y-105559819D02*
X222934283Y-105607438D01*
X223267617Y-105559819D02*
X223505712Y-106559819D01*
X223505712Y-106559819D02*
X223696188Y-105845533D01*
X223696188Y-105845533D02*
X223886664Y-106559819D01*
X223886664Y-106559819D02*
X224124760Y-105559819D01*
X224981902Y-106559819D02*
X224505712Y-106559819D01*
X224505712Y-106559819D02*
X224505712Y-105559819D01*
X225267617Y-106512200D02*
X225410474Y-106559819D01*
X225410474Y-106559819D02*
X225648569Y-106559819D01*
X225648569Y-106559819D02*
X225743807Y-106512200D01*
X225743807Y-106512200D02*
X225791426Y-106464580D01*
X225791426Y-106464580D02*
X225839045Y-106369342D01*
X225839045Y-106369342D02*
X225839045Y-106274104D01*
X225839045Y-106274104D02*
X225791426Y-106178866D01*
X225791426Y-106178866D02*
X225743807Y-106131247D01*
X225743807Y-106131247D02*
X225648569Y-106083628D01*
X225648569Y-106083628D02*
X225458093Y-106036009D01*
X225458093Y-106036009D02*
X225362855Y-105988390D01*
X225362855Y-105988390D02*
X225315236Y-105940771D01*
X225315236Y-105940771D02*
X225267617Y-105845533D01*
X225267617Y-105845533D02*
X225267617Y-105750295D01*
X225267617Y-105750295D02*
X225315236Y-105655057D01*
X225315236Y-105655057D02*
X225362855Y-105607438D01*
X225362855Y-105607438D02*
X225458093Y-105559819D01*
X225458093Y-105559819D02*
X225696188Y-105559819D01*
X225696188Y-105559819D02*
X225839045Y-105607438D01*
X226600950Y-106036009D02*
X226743807Y-106083628D01*
X226743807Y-106083628D02*
X226791426Y-106131247D01*
X226791426Y-106131247D02*
X226839045Y-106226485D01*
X226839045Y-106226485D02*
X226839045Y-106369342D01*
X226839045Y-106369342D02*
X226791426Y-106464580D01*
X226791426Y-106464580D02*
X226743807Y-106512200D01*
X226743807Y-106512200D02*
X226648569Y-106559819D01*
X226648569Y-106559819D02*
X226267617Y-106559819D01*
X226267617Y-106559819D02*
X226267617Y-105559819D01*
X226267617Y-105559819D02*
X226600950Y-105559819D01*
X226600950Y-105559819D02*
X226696188Y-105607438D01*
X226696188Y-105607438D02*
X226743807Y-105655057D01*
X226743807Y-105655057D02*
X226791426Y-105750295D01*
X226791426Y-105750295D02*
X226791426Y-105845533D01*
X226791426Y-105845533D02*
X226743807Y-105940771D01*
X226743807Y-105940771D02*
X226696188Y-105988390D01*
X226696188Y-105988390D02*
X226600950Y-106036009D01*
X226600950Y-106036009D02*
X226267617Y-106036009D01*
X227219998Y-105655057D02*
X227267617Y-105607438D01*
X227267617Y-105607438D02*
X227362855Y-105559819D01*
X227362855Y-105559819D02*
X227600950Y-105559819D01*
X227600950Y-105559819D02*
X227696188Y-105607438D01*
X227696188Y-105607438D02*
X227743807Y-105655057D01*
X227743807Y-105655057D02*
X227791426Y-105750295D01*
X227791426Y-105750295D02*
X227791426Y-105845533D01*
X227791426Y-105845533D02*
X227743807Y-105988390D01*
X227743807Y-105988390D02*
X227172379Y-106559819D01*
X227172379Y-106559819D02*
X227791426Y-106559819D01*
X97809046Y-103469819D02*
X97809046Y-104279342D01*
X97809046Y-104279342D02*
X97856665Y-104374580D01*
X97856665Y-104374580D02*
X97904284Y-104422200D01*
X97904284Y-104422200D02*
X97999522Y-104469819D01*
X97999522Y-104469819D02*
X98189998Y-104469819D01*
X98189998Y-104469819D02*
X98285236Y-104422200D01*
X98285236Y-104422200D02*
X98332855Y-104374580D01*
X98332855Y-104374580D02*
X98380474Y-104279342D01*
X98380474Y-104279342D02*
X98380474Y-103469819D01*
X98809046Y-103565057D02*
X98856665Y-103517438D01*
X98856665Y-103517438D02*
X98951903Y-103469819D01*
X98951903Y-103469819D02*
X99189998Y-103469819D01*
X99189998Y-103469819D02*
X99285236Y-103517438D01*
X99285236Y-103517438D02*
X99332855Y-103565057D01*
X99332855Y-103565057D02*
X99380474Y-103660295D01*
X99380474Y-103660295D02*
X99380474Y-103755533D01*
X99380474Y-103755533D02*
X99332855Y-103898390D01*
X99332855Y-103898390D02*
X98761427Y-104469819D01*
X98761427Y-104469819D02*
X99380474Y-104469819D01*
X100237617Y-103803152D02*
X100237617Y-104469819D01*
X99999522Y-103422200D02*
X99761427Y-104136485D01*
X99761427Y-104136485D02*
X100380474Y-104136485D01*
X35357142Y-188829819D02*
X35023809Y-188353628D01*
X34785714Y-188829819D02*
X34785714Y-187829819D01*
X34785714Y-187829819D02*
X35166666Y-187829819D01*
X35166666Y-187829819D02*
X35261904Y-187877438D01*
X35261904Y-187877438D02*
X35309523Y-187925057D01*
X35309523Y-187925057D02*
X35357142Y-188020295D01*
X35357142Y-188020295D02*
X35357142Y-188163152D01*
X35357142Y-188163152D02*
X35309523Y-188258390D01*
X35309523Y-188258390D02*
X35261904Y-188306009D01*
X35261904Y-188306009D02*
X35166666Y-188353628D01*
X35166666Y-188353628D02*
X34785714Y-188353628D01*
X36214285Y-188163152D02*
X36214285Y-188829819D01*
X35976190Y-187782200D02*
X35738095Y-188496485D01*
X35738095Y-188496485D02*
X36357142Y-188496485D01*
X37261904Y-188829819D02*
X36690476Y-188829819D01*
X36976190Y-188829819D02*
X36976190Y-187829819D01*
X36976190Y-187829819D02*
X36880952Y-187972676D01*
X36880952Y-187972676D02*
X36785714Y-188067914D01*
X36785714Y-188067914D02*
X36690476Y-188115533D01*
X80809046Y-103519819D02*
X80809046Y-104329342D01*
X80809046Y-104329342D02*
X80856665Y-104424580D01*
X80856665Y-104424580D02*
X80904284Y-104472200D01*
X80904284Y-104472200D02*
X80999522Y-104519819D01*
X80999522Y-104519819D02*
X81189998Y-104519819D01*
X81189998Y-104519819D02*
X81285236Y-104472200D01*
X81285236Y-104472200D02*
X81332855Y-104424580D01*
X81332855Y-104424580D02*
X81380474Y-104329342D01*
X81380474Y-104329342D02*
X81380474Y-103519819D01*
X81809046Y-103615057D02*
X81856665Y-103567438D01*
X81856665Y-103567438D02*
X81951903Y-103519819D01*
X81951903Y-103519819D02*
X82189998Y-103519819D01*
X82189998Y-103519819D02*
X82285236Y-103567438D01*
X82285236Y-103567438D02*
X82332855Y-103615057D01*
X82332855Y-103615057D02*
X82380474Y-103710295D01*
X82380474Y-103710295D02*
X82380474Y-103805533D01*
X82380474Y-103805533D02*
X82332855Y-103948390D01*
X82332855Y-103948390D02*
X81761427Y-104519819D01*
X81761427Y-104519819D02*
X82380474Y-104519819D01*
X82713808Y-103519819D02*
X83332855Y-103519819D01*
X83332855Y-103519819D02*
X82999522Y-103900771D01*
X82999522Y-103900771D02*
X83142379Y-103900771D01*
X83142379Y-103900771D02*
X83237617Y-103948390D01*
X83237617Y-103948390D02*
X83285236Y-103996009D01*
X83285236Y-103996009D02*
X83332855Y-104091247D01*
X83332855Y-104091247D02*
X83332855Y-104329342D01*
X83332855Y-104329342D02*
X83285236Y-104424580D01*
X83285236Y-104424580D02*
X83237617Y-104472200D01*
X83237617Y-104472200D02*
X83142379Y-104519819D01*
X83142379Y-104519819D02*
X82856665Y-104519819D01*
X82856665Y-104519819D02*
X82761427Y-104472200D01*
X82761427Y-104472200D02*
X82713808Y-104424580D01*
X46378155Y-52769819D02*
X46378155Y-53579342D01*
X46378155Y-53579342D02*
X46425774Y-53674580D01*
X46425774Y-53674580D02*
X46473393Y-53722200D01*
X46473393Y-53722200D02*
X46568631Y-53769819D01*
X46568631Y-53769819D02*
X46759107Y-53769819D01*
X46759107Y-53769819D02*
X46854345Y-53722200D01*
X46854345Y-53722200D02*
X46901964Y-53674580D01*
X46901964Y-53674580D02*
X46949583Y-53579342D01*
X46949583Y-53579342D02*
X46949583Y-52769819D01*
X47854345Y-53103152D02*
X47854345Y-53769819D01*
X47616250Y-52722200D02*
X47378155Y-53436485D01*
X47378155Y-53436485D02*
X47997202Y-53436485D01*
X48568631Y-52769819D02*
X48663869Y-52769819D01*
X48663869Y-52769819D02*
X48759107Y-52817438D01*
X48759107Y-52817438D02*
X48806726Y-52865057D01*
X48806726Y-52865057D02*
X48854345Y-52960295D01*
X48854345Y-52960295D02*
X48901964Y-53150771D01*
X48901964Y-53150771D02*
X48901964Y-53388866D01*
X48901964Y-53388866D02*
X48854345Y-53579342D01*
X48854345Y-53579342D02*
X48806726Y-53674580D01*
X48806726Y-53674580D02*
X48759107Y-53722200D01*
X48759107Y-53722200D02*
X48663869Y-53769819D01*
X48663869Y-53769819D02*
X48568631Y-53769819D01*
X48568631Y-53769819D02*
X48473393Y-53722200D01*
X48473393Y-53722200D02*
X48425774Y-53674580D01*
X48425774Y-53674580D02*
X48378155Y-53579342D01*
X48378155Y-53579342D02*
X48330536Y-53388866D01*
X48330536Y-53388866D02*
X48330536Y-53150771D01*
X48330536Y-53150771D02*
X48378155Y-52960295D01*
X48378155Y-52960295D02*
X48425774Y-52865057D01*
X48425774Y-52865057D02*
X48473393Y-52817438D01*
X48473393Y-52817438D02*
X48568631Y-52769819D01*
X64058095Y-154294819D02*
X64058095Y-155104342D01*
X64058095Y-155104342D02*
X64105714Y-155199580D01*
X64105714Y-155199580D02*
X64153333Y-155247200D01*
X64153333Y-155247200D02*
X64248571Y-155294819D01*
X64248571Y-155294819D02*
X64439047Y-155294819D01*
X64439047Y-155294819D02*
X64534285Y-155247200D01*
X64534285Y-155247200D02*
X64581904Y-155199580D01*
X64581904Y-155199580D02*
X64629523Y-155104342D01*
X64629523Y-155104342D02*
X64629523Y-154294819D01*
X65058095Y-154390057D02*
X65105714Y-154342438D01*
X65105714Y-154342438D02*
X65200952Y-154294819D01*
X65200952Y-154294819D02*
X65439047Y-154294819D01*
X65439047Y-154294819D02*
X65534285Y-154342438D01*
X65534285Y-154342438D02*
X65581904Y-154390057D01*
X65581904Y-154390057D02*
X65629523Y-154485295D01*
X65629523Y-154485295D02*
X65629523Y-154580533D01*
X65629523Y-154580533D02*
X65581904Y-154723390D01*
X65581904Y-154723390D02*
X65010476Y-155294819D01*
X65010476Y-155294819D02*
X65629523Y-155294819D01*
X41780952Y-49679819D02*
X41447619Y-49203628D01*
X41209524Y-49679819D02*
X41209524Y-48679819D01*
X41209524Y-48679819D02*
X41590476Y-48679819D01*
X41590476Y-48679819D02*
X41685714Y-48727438D01*
X41685714Y-48727438D02*
X41733333Y-48775057D01*
X41733333Y-48775057D02*
X41780952Y-48870295D01*
X41780952Y-48870295D02*
X41780952Y-49013152D01*
X41780952Y-49013152D02*
X41733333Y-49108390D01*
X41733333Y-49108390D02*
X41685714Y-49156009D01*
X41685714Y-49156009D02*
X41590476Y-49203628D01*
X41590476Y-49203628D02*
X41209524Y-49203628D01*
X42733333Y-49679819D02*
X42161905Y-49679819D01*
X42447619Y-49679819D02*
X42447619Y-48679819D01*
X42447619Y-48679819D02*
X42352381Y-48822676D01*
X42352381Y-48822676D02*
X42257143Y-48917914D01*
X42257143Y-48917914D02*
X42161905Y-48965533D01*
X43066667Y-48679819D02*
X43685714Y-48679819D01*
X43685714Y-48679819D02*
X43352381Y-49060771D01*
X43352381Y-49060771D02*
X43495238Y-49060771D01*
X43495238Y-49060771D02*
X43590476Y-49108390D01*
X43590476Y-49108390D02*
X43638095Y-49156009D01*
X43638095Y-49156009D02*
X43685714Y-49251247D01*
X43685714Y-49251247D02*
X43685714Y-49489342D01*
X43685714Y-49489342D02*
X43638095Y-49584580D01*
X43638095Y-49584580D02*
X43590476Y-49632200D01*
X43590476Y-49632200D02*
X43495238Y-49679819D01*
X43495238Y-49679819D02*
X43209524Y-49679819D01*
X43209524Y-49679819D02*
X43114286Y-49632200D01*
X43114286Y-49632200D02*
X43066667Y-49584580D01*
X44019048Y-48679819D02*
X44638095Y-48679819D01*
X44638095Y-48679819D02*
X44304762Y-49060771D01*
X44304762Y-49060771D02*
X44447619Y-49060771D01*
X44447619Y-49060771D02*
X44542857Y-49108390D01*
X44542857Y-49108390D02*
X44590476Y-49156009D01*
X44590476Y-49156009D02*
X44638095Y-49251247D01*
X44638095Y-49251247D02*
X44638095Y-49489342D01*
X44638095Y-49489342D02*
X44590476Y-49584580D01*
X44590476Y-49584580D02*
X44542857Y-49632200D01*
X44542857Y-49632200D02*
X44447619Y-49679819D01*
X44447619Y-49679819D02*
X44161905Y-49679819D01*
X44161905Y-49679819D02*
X44066667Y-49632200D01*
X44066667Y-49632200D02*
X44019048Y-49584580D01*
X98058095Y-154244819D02*
X98058095Y-155054342D01*
X98058095Y-155054342D02*
X98105714Y-155149580D01*
X98105714Y-155149580D02*
X98153333Y-155197200D01*
X98153333Y-155197200D02*
X98248571Y-155244819D01*
X98248571Y-155244819D02*
X98439047Y-155244819D01*
X98439047Y-155244819D02*
X98534285Y-155197200D01*
X98534285Y-155197200D02*
X98581904Y-155149580D01*
X98581904Y-155149580D02*
X98629523Y-155054342D01*
X98629523Y-155054342D02*
X98629523Y-154244819D01*
X99534285Y-154578152D02*
X99534285Y-155244819D01*
X99296190Y-154197200D02*
X99058095Y-154911485D01*
X99058095Y-154911485D02*
X99677142Y-154911485D01*
X34630952Y-87329819D02*
X34297619Y-86853628D01*
X34059524Y-87329819D02*
X34059524Y-86329819D01*
X34059524Y-86329819D02*
X34440476Y-86329819D01*
X34440476Y-86329819D02*
X34535714Y-86377438D01*
X34535714Y-86377438D02*
X34583333Y-86425057D01*
X34583333Y-86425057D02*
X34630952Y-86520295D01*
X34630952Y-86520295D02*
X34630952Y-86663152D01*
X34630952Y-86663152D02*
X34583333Y-86758390D01*
X34583333Y-86758390D02*
X34535714Y-86806009D01*
X34535714Y-86806009D02*
X34440476Y-86853628D01*
X34440476Y-86853628D02*
X34059524Y-86853628D01*
X35583333Y-87329819D02*
X35011905Y-87329819D01*
X35297619Y-87329819D02*
X35297619Y-86329819D01*
X35297619Y-86329819D02*
X35202381Y-86472676D01*
X35202381Y-86472676D02*
X35107143Y-86567914D01*
X35107143Y-86567914D02*
X35011905Y-86615533D01*
X35964286Y-86425057D02*
X36011905Y-86377438D01*
X36011905Y-86377438D02*
X36107143Y-86329819D01*
X36107143Y-86329819D02*
X36345238Y-86329819D01*
X36345238Y-86329819D02*
X36440476Y-86377438D01*
X36440476Y-86377438D02*
X36488095Y-86425057D01*
X36488095Y-86425057D02*
X36535714Y-86520295D01*
X36535714Y-86520295D02*
X36535714Y-86615533D01*
X36535714Y-86615533D02*
X36488095Y-86758390D01*
X36488095Y-86758390D02*
X35916667Y-87329819D01*
X35916667Y-87329819D02*
X36535714Y-87329819D01*
X37440476Y-86329819D02*
X36964286Y-86329819D01*
X36964286Y-86329819D02*
X36916667Y-86806009D01*
X36916667Y-86806009D02*
X36964286Y-86758390D01*
X36964286Y-86758390D02*
X37059524Y-86710771D01*
X37059524Y-86710771D02*
X37297619Y-86710771D01*
X37297619Y-86710771D02*
X37392857Y-86758390D01*
X37392857Y-86758390D02*
X37440476Y-86806009D01*
X37440476Y-86806009D02*
X37488095Y-86901247D01*
X37488095Y-86901247D02*
X37488095Y-87139342D01*
X37488095Y-87139342D02*
X37440476Y-87234580D01*
X37440476Y-87234580D02*
X37392857Y-87282200D01*
X37392857Y-87282200D02*
X37297619Y-87329819D01*
X37297619Y-87329819D02*
X37059524Y-87329819D01*
X37059524Y-87329819D02*
X36964286Y-87282200D01*
X36964286Y-87282200D02*
X36916667Y-87234580D01*
X47058095Y-154294819D02*
X47058095Y-155104342D01*
X47058095Y-155104342D02*
X47105714Y-155199580D01*
X47105714Y-155199580D02*
X47153333Y-155247200D01*
X47153333Y-155247200D02*
X47248571Y-155294819D01*
X47248571Y-155294819D02*
X47439047Y-155294819D01*
X47439047Y-155294819D02*
X47534285Y-155247200D01*
X47534285Y-155247200D02*
X47581904Y-155199580D01*
X47581904Y-155199580D02*
X47629523Y-155104342D01*
X47629523Y-155104342D02*
X47629523Y-154294819D01*
X48629523Y-155294819D02*
X48058095Y-155294819D01*
X48343809Y-155294819D02*
X48343809Y-154294819D01*
X48343809Y-154294819D02*
X48248571Y-154437676D01*
X48248571Y-154437676D02*
X48153333Y-154532914D01*
X48153333Y-154532914D02*
X48058095Y-154580533D01*
X173534046Y-108354819D02*
X173534046Y-109164342D01*
X173534046Y-109164342D02*
X173581665Y-109259580D01*
X173581665Y-109259580D02*
X173629284Y-109307200D01*
X173629284Y-109307200D02*
X173724522Y-109354819D01*
X173724522Y-109354819D02*
X173914998Y-109354819D01*
X173914998Y-109354819D02*
X174010236Y-109307200D01*
X174010236Y-109307200D02*
X174057855Y-109259580D01*
X174057855Y-109259580D02*
X174105474Y-109164342D01*
X174105474Y-109164342D02*
X174105474Y-108354819D01*
X174486427Y-108354819D02*
X175105474Y-108354819D01*
X175105474Y-108354819D02*
X174772141Y-108735771D01*
X174772141Y-108735771D02*
X174914998Y-108735771D01*
X174914998Y-108735771D02*
X175010236Y-108783390D01*
X175010236Y-108783390D02*
X175057855Y-108831009D01*
X175057855Y-108831009D02*
X175105474Y-108926247D01*
X175105474Y-108926247D02*
X175105474Y-109164342D01*
X175105474Y-109164342D02*
X175057855Y-109259580D01*
X175057855Y-109259580D02*
X175010236Y-109307200D01*
X175010236Y-109307200D02*
X174914998Y-109354819D01*
X174914998Y-109354819D02*
X174629284Y-109354819D01*
X174629284Y-109354819D02*
X174534046Y-109307200D01*
X174534046Y-109307200D02*
X174486427Y-109259580D01*
X175676903Y-108783390D02*
X175581665Y-108735771D01*
X175581665Y-108735771D02*
X175534046Y-108688152D01*
X175534046Y-108688152D02*
X175486427Y-108592914D01*
X175486427Y-108592914D02*
X175486427Y-108545295D01*
X175486427Y-108545295D02*
X175534046Y-108450057D01*
X175534046Y-108450057D02*
X175581665Y-108402438D01*
X175581665Y-108402438D02*
X175676903Y-108354819D01*
X175676903Y-108354819D02*
X175867379Y-108354819D01*
X175867379Y-108354819D02*
X175962617Y-108402438D01*
X175962617Y-108402438D02*
X176010236Y-108450057D01*
X176010236Y-108450057D02*
X176057855Y-108545295D01*
X176057855Y-108545295D02*
X176057855Y-108592914D01*
X176057855Y-108592914D02*
X176010236Y-108688152D01*
X176010236Y-108688152D02*
X175962617Y-108735771D01*
X175962617Y-108735771D02*
X175867379Y-108783390D01*
X175867379Y-108783390D02*
X175676903Y-108783390D01*
X175676903Y-108783390D02*
X175581665Y-108831009D01*
X175581665Y-108831009D02*
X175534046Y-108878628D01*
X175534046Y-108878628D02*
X175486427Y-108973866D01*
X175486427Y-108973866D02*
X175486427Y-109164342D01*
X175486427Y-109164342D02*
X175534046Y-109259580D01*
X175534046Y-109259580D02*
X175581665Y-109307200D01*
X175581665Y-109307200D02*
X175676903Y-109354819D01*
X175676903Y-109354819D02*
X175867379Y-109354819D01*
X175867379Y-109354819D02*
X175962617Y-109307200D01*
X175962617Y-109307200D02*
X176010236Y-109259580D01*
X176010236Y-109259580D02*
X176057855Y-109164342D01*
X176057855Y-109164342D02*
X176057855Y-108973866D01*
X176057855Y-108973866D02*
X176010236Y-108878628D01*
X176010236Y-108878628D02*
X175962617Y-108831009D01*
X175962617Y-108831009D02*
X175867379Y-108783390D01*
X46809046Y-103519819D02*
X46809046Y-104329342D01*
X46809046Y-104329342D02*
X46856665Y-104424580D01*
X46856665Y-104424580D02*
X46904284Y-104472200D01*
X46904284Y-104472200D02*
X46999522Y-104519819D01*
X46999522Y-104519819D02*
X47189998Y-104519819D01*
X47189998Y-104519819D02*
X47285236Y-104472200D01*
X47285236Y-104472200D02*
X47332855Y-104424580D01*
X47332855Y-104424580D02*
X47380474Y-104329342D01*
X47380474Y-104329342D02*
X47380474Y-103519819D01*
X47809046Y-103615057D02*
X47856665Y-103567438D01*
X47856665Y-103567438D02*
X47951903Y-103519819D01*
X47951903Y-103519819D02*
X48189998Y-103519819D01*
X48189998Y-103519819D02*
X48285236Y-103567438D01*
X48285236Y-103567438D02*
X48332855Y-103615057D01*
X48332855Y-103615057D02*
X48380474Y-103710295D01*
X48380474Y-103710295D02*
X48380474Y-103805533D01*
X48380474Y-103805533D02*
X48332855Y-103948390D01*
X48332855Y-103948390D02*
X47761427Y-104519819D01*
X47761427Y-104519819D02*
X48380474Y-104519819D01*
X49332855Y-104519819D02*
X48761427Y-104519819D01*
X49047141Y-104519819D02*
X49047141Y-103519819D01*
X49047141Y-103519819D02*
X48951903Y-103662676D01*
X48951903Y-103662676D02*
X48856665Y-103757914D01*
X48856665Y-103757914D02*
X48761427Y-103805533D01*
X81058095Y-154294819D02*
X81058095Y-155104342D01*
X81058095Y-155104342D02*
X81105714Y-155199580D01*
X81105714Y-155199580D02*
X81153333Y-155247200D01*
X81153333Y-155247200D02*
X81248571Y-155294819D01*
X81248571Y-155294819D02*
X81439047Y-155294819D01*
X81439047Y-155294819D02*
X81534285Y-155247200D01*
X81534285Y-155247200D02*
X81581904Y-155199580D01*
X81581904Y-155199580D02*
X81629523Y-155104342D01*
X81629523Y-155104342D02*
X81629523Y-154294819D01*
X82010476Y-154294819D02*
X82629523Y-154294819D01*
X82629523Y-154294819D02*
X82296190Y-154675771D01*
X82296190Y-154675771D02*
X82439047Y-154675771D01*
X82439047Y-154675771D02*
X82534285Y-154723390D01*
X82534285Y-154723390D02*
X82581904Y-154771009D01*
X82581904Y-154771009D02*
X82629523Y-154866247D01*
X82629523Y-154866247D02*
X82629523Y-155104342D01*
X82629523Y-155104342D02*
X82581904Y-155199580D01*
X82581904Y-155199580D02*
X82534285Y-155247200D01*
X82534285Y-155247200D02*
X82439047Y-155294819D01*
X82439047Y-155294819D02*
X82153333Y-155294819D01*
X82153333Y-155294819D02*
X82058095Y-155247200D01*
X82058095Y-155247200D02*
X82010476Y-155199580D01*
X35857142Y-123329819D02*
X35523809Y-122853628D01*
X35285714Y-123329819D02*
X35285714Y-122329819D01*
X35285714Y-122329819D02*
X35666666Y-122329819D01*
X35666666Y-122329819D02*
X35761904Y-122377438D01*
X35761904Y-122377438D02*
X35809523Y-122425057D01*
X35809523Y-122425057D02*
X35857142Y-122520295D01*
X35857142Y-122520295D02*
X35857142Y-122663152D01*
X35857142Y-122663152D02*
X35809523Y-122758390D01*
X35809523Y-122758390D02*
X35761904Y-122806009D01*
X35761904Y-122806009D02*
X35666666Y-122853628D01*
X35666666Y-122853628D02*
X35285714Y-122853628D01*
X36190476Y-122329819D02*
X36857142Y-122329819D01*
X36857142Y-122329819D02*
X36428571Y-123329819D01*
X37666666Y-122329819D02*
X37476190Y-122329819D01*
X37476190Y-122329819D02*
X37380952Y-122377438D01*
X37380952Y-122377438D02*
X37333333Y-122425057D01*
X37333333Y-122425057D02*
X37238095Y-122567914D01*
X37238095Y-122567914D02*
X37190476Y-122758390D01*
X37190476Y-122758390D02*
X37190476Y-123139342D01*
X37190476Y-123139342D02*
X37238095Y-123234580D01*
X37238095Y-123234580D02*
X37285714Y-123282200D01*
X37285714Y-123282200D02*
X37380952Y-123329819D01*
X37380952Y-123329819D02*
X37571428Y-123329819D01*
X37571428Y-123329819D02*
X37666666Y-123282200D01*
X37666666Y-123282200D02*
X37714285Y-123234580D01*
X37714285Y-123234580D02*
X37761904Y-123139342D01*
X37761904Y-123139342D02*
X37761904Y-122901247D01*
X37761904Y-122901247D02*
X37714285Y-122806009D01*
X37714285Y-122806009D02*
X37666666Y-122758390D01*
X37666666Y-122758390D02*
X37571428Y-122710771D01*
X37571428Y-122710771D02*
X37380952Y-122710771D01*
X37380952Y-122710771D02*
X37285714Y-122758390D01*
X37285714Y-122758390D02*
X37238095Y-122806009D01*
X37238095Y-122806009D02*
X37190476Y-122901247D01*
X106058095Y-159144819D02*
X106058095Y-159954342D01*
X106058095Y-159954342D02*
X106105714Y-160049580D01*
X106105714Y-160049580D02*
X106153333Y-160097200D01*
X106153333Y-160097200D02*
X106248571Y-160144819D01*
X106248571Y-160144819D02*
X106439047Y-160144819D01*
X106439047Y-160144819D02*
X106534285Y-160097200D01*
X106534285Y-160097200D02*
X106581904Y-160049580D01*
X106581904Y-160049580D02*
X106629523Y-159954342D01*
X106629523Y-159954342D02*
X106629523Y-159144819D01*
X107248571Y-159573390D02*
X107153333Y-159525771D01*
X107153333Y-159525771D02*
X107105714Y-159478152D01*
X107105714Y-159478152D02*
X107058095Y-159382914D01*
X107058095Y-159382914D02*
X107058095Y-159335295D01*
X107058095Y-159335295D02*
X107105714Y-159240057D01*
X107105714Y-159240057D02*
X107153333Y-159192438D01*
X107153333Y-159192438D02*
X107248571Y-159144819D01*
X107248571Y-159144819D02*
X107439047Y-159144819D01*
X107439047Y-159144819D02*
X107534285Y-159192438D01*
X107534285Y-159192438D02*
X107581904Y-159240057D01*
X107581904Y-159240057D02*
X107629523Y-159335295D01*
X107629523Y-159335295D02*
X107629523Y-159382914D01*
X107629523Y-159382914D02*
X107581904Y-159478152D01*
X107581904Y-159478152D02*
X107534285Y-159525771D01*
X107534285Y-159525771D02*
X107439047Y-159573390D01*
X107439047Y-159573390D02*
X107248571Y-159573390D01*
X107248571Y-159573390D02*
X107153333Y-159621009D01*
X107153333Y-159621009D02*
X107105714Y-159668628D01*
X107105714Y-159668628D02*
X107058095Y-159763866D01*
X107058095Y-159763866D02*
X107058095Y-159954342D01*
X107058095Y-159954342D02*
X107105714Y-160049580D01*
X107105714Y-160049580D02*
X107153333Y-160097200D01*
X107153333Y-160097200D02*
X107248571Y-160144819D01*
X107248571Y-160144819D02*
X107439047Y-160144819D01*
X107439047Y-160144819D02*
X107534285Y-160097200D01*
X107534285Y-160097200D02*
X107581904Y-160049580D01*
X107581904Y-160049580D02*
X107629523Y-159954342D01*
X107629523Y-159954342D02*
X107629523Y-159763866D01*
X107629523Y-159763866D02*
X107581904Y-159668628D01*
X107581904Y-159668628D02*
X107534285Y-159621009D01*
X107534285Y-159621009D02*
X107439047Y-159573390D01*
X114809046Y-103469819D02*
X114809046Y-104279342D01*
X114809046Y-104279342D02*
X114856665Y-104374580D01*
X114856665Y-104374580D02*
X114904284Y-104422200D01*
X114904284Y-104422200D02*
X114999522Y-104469819D01*
X114999522Y-104469819D02*
X115189998Y-104469819D01*
X115189998Y-104469819D02*
X115285236Y-104422200D01*
X115285236Y-104422200D02*
X115332855Y-104374580D01*
X115332855Y-104374580D02*
X115380474Y-104279342D01*
X115380474Y-104279342D02*
X115380474Y-103469819D01*
X115761427Y-103469819D02*
X116380474Y-103469819D01*
X116380474Y-103469819D02*
X116047141Y-103850771D01*
X116047141Y-103850771D02*
X116189998Y-103850771D01*
X116189998Y-103850771D02*
X116285236Y-103898390D01*
X116285236Y-103898390D02*
X116332855Y-103946009D01*
X116332855Y-103946009D02*
X116380474Y-104041247D01*
X116380474Y-104041247D02*
X116380474Y-104279342D01*
X116380474Y-104279342D02*
X116332855Y-104374580D01*
X116332855Y-104374580D02*
X116285236Y-104422200D01*
X116285236Y-104422200D02*
X116189998Y-104469819D01*
X116189998Y-104469819D02*
X115904284Y-104469819D01*
X115904284Y-104469819D02*
X115809046Y-104422200D01*
X115809046Y-104422200D02*
X115761427Y-104374580D01*
X117332855Y-104469819D02*
X116761427Y-104469819D01*
X117047141Y-104469819D02*
X117047141Y-103469819D01*
X117047141Y-103469819D02*
X116951903Y-103612676D01*
X116951903Y-103612676D02*
X116856665Y-103707914D01*
X116856665Y-103707914D02*
X116761427Y-103755533D01*
X165314405Y-154229819D02*
X165314405Y-155039342D01*
X165314405Y-155039342D02*
X165362024Y-155134580D01*
X165362024Y-155134580D02*
X165409643Y-155182200D01*
X165409643Y-155182200D02*
X165504881Y-155229819D01*
X165504881Y-155229819D02*
X165695357Y-155229819D01*
X165695357Y-155229819D02*
X165790595Y-155182200D01*
X165790595Y-155182200D02*
X165838214Y-155134580D01*
X165838214Y-155134580D02*
X165885833Y-155039342D01*
X165885833Y-155039342D02*
X165885833Y-154229819D01*
X166885833Y-155229819D02*
X166314405Y-155229819D01*
X166600119Y-155229819D02*
X166600119Y-154229819D01*
X166600119Y-154229819D02*
X166504881Y-154372676D01*
X166504881Y-154372676D02*
X166409643Y-154467914D01*
X166409643Y-154467914D02*
X166314405Y-154515533D01*
X167266786Y-154325057D02*
X167314405Y-154277438D01*
X167314405Y-154277438D02*
X167409643Y-154229819D01*
X167409643Y-154229819D02*
X167647738Y-154229819D01*
X167647738Y-154229819D02*
X167742976Y-154277438D01*
X167742976Y-154277438D02*
X167790595Y-154325057D01*
X167790595Y-154325057D02*
X167838214Y-154420295D01*
X167838214Y-154420295D02*
X167838214Y-154515533D01*
X167838214Y-154515533D02*
X167790595Y-154658390D01*
X167790595Y-154658390D02*
X167219167Y-155229819D01*
X167219167Y-155229819D02*
X167838214Y-155229819D01*
X89058095Y-159144819D02*
X89058095Y-159954342D01*
X89058095Y-159954342D02*
X89105714Y-160049580D01*
X89105714Y-160049580D02*
X89153333Y-160097200D01*
X89153333Y-160097200D02*
X89248571Y-160144819D01*
X89248571Y-160144819D02*
X89439047Y-160144819D01*
X89439047Y-160144819D02*
X89534285Y-160097200D01*
X89534285Y-160097200D02*
X89581904Y-160049580D01*
X89581904Y-160049580D02*
X89629523Y-159954342D01*
X89629523Y-159954342D02*
X89629523Y-159144819D01*
X90010476Y-159144819D02*
X90677142Y-159144819D01*
X90677142Y-159144819D02*
X90248571Y-160144819D01*
X212721905Y-41429819D02*
X212721905Y-42239342D01*
X212721905Y-42239342D02*
X212769524Y-42334580D01*
X212769524Y-42334580D02*
X212817143Y-42382200D01*
X212817143Y-42382200D02*
X212912381Y-42429819D01*
X212912381Y-42429819D02*
X213102857Y-42429819D01*
X213102857Y-42429819D02*
X213198095Y-42382200D01*
X213198095Y-42382200D02*
X213245714Y-42334580D01*
X213245714Y-42334580D02*
X213293333Y-42239342D01*
X213293333Y-42239342D02*
X213293333Y-41429819D01*
X214245714Y-41429819D02*
X213769524Y-41429819D01*
X213769524Y-41429819D02*
X213721905Y-41906009D01*
X213721905Y-41906009D02*
X213769524Y-41858390D01*
X213769524Y-41858390D02*
X213864762Y-41810771D01*
X213864762Y-41810771D02*
X214102857Y-41810771D01*
X214102857Y-41810771D02*
X214198095Y-41858390D01*
X214198095Y-41858390D02*
X214245714Y-41906009D01*
X214245714Y-41906009D02*
X214293333Y-42001247D01*
X214293333Y-42001247D02*
X214293333Y-42239342D01*
X214293333Y-42239342D02*
X214245714Y-42334580D01*
X214245714Y-42334580D02*
X214198095Y-42382200D01*
X214198095Y-42382200D02*
X214102857Y-42429819D01*
X214102857Y-42429819D02*
X213864762Y-42429819D01*
X213864762Y-42429819D02*
X213769524Y-42382200D01*
X213769524Y-42382200D02*
X213721905Y-42334580D01*
X214864762Y-41858390D02*
X214769524Y-41810771D01*
X214769524Y-41810771D02*
X214721905Y-41763152D01*
X214721905Y-41763152D02*
X214674286Y-41667914D01*
X214674286Y-41667914D02*
X214674286Y-41620295D01*
X214674286Y-41620295D02*
X214721905Y-41525057D01*
X214721905Y-41525057D02*
X214769524Y-41477438D01*
X214769524Y-41477438D02*
X214864762Y-41429819D01*
X214864762Y-41429819D02*
X215055238Y-41429819D01*
X215055238Y-41429819D02*
X215150476Y-41477438D01*
X215150476Y-41477438D02*
X215198095Y-41525057D01*
X215198095Y-41525057D02*
X215245714Y-41620295D01*
X215245714Y-41620295D02*
X215245714Y-41667914D01*
X215245714Y-41667914D02*
X215198095Y-41763152D01*
X215198095Y-41763152D02*
X215150476Y-41810771D01*
X215150476Y-41810771D02*
X215055238Y-41858390D01*
X215055238Y-41858390D02*
X214864762Y-41858390D01*
X214864762Y-41858390D02*
X214769524Y-41906009D01*
X214769524Y-41906009D02*
X214721905Y-41953628D01*
X214721905Y-41953628D02*
X214674286Y-42048866D01*
X214674286Y-42048866D02*
X214674286Y-42239342D01*
X214674286Y-42239342D02*
X214721905Y-42334580D01*
X214721905Y-42334580D02*
X214769524Y-42382200D01*
X214769524Y-42382200D02*
X214864762Y-42429819D01*
X214864762Y-42429819D02*
X215055238Y-42429819D01*
X215055238Y-42429819D02*
X215150476Y-42382200D01*
X215150476Y-42382200D02*
X215198095Y-42334580D01*
X215198095Y-42334580D02*
X215245714Y-42239342D01*
X215245714Y-42239342D02*
X215245714Y-42048866D01*
X215245714Y-42048866D02*
X215198095Y-41953628D01*
X215198095Y-41953628D02*
X215150476Y-41906009D01*
X215150476Y-41906009D02*
X215055238Y-41858390D01*
X245454819Y-40208333D02*
X246169104Y-40208333D01*
X246169104Y-40208333D02*
X246311961Y-40255952D01*
X246311961Y-40255952D02*
X246407200Y-40351190D01*
X246407200Y-40351190D02*
X246454819Y-40494047D01*
X246454819Y-40494047D02*
X246454819Y-40589285D01*
X245788152Y-39303571D02*
X246454819Y-39303571D01*
X245407200Y-39541666D02*
X246121485Y-39779761D01*
X246121485Y-39779761D02*
X246121485Y-39160714D01*
X165541546Y-103454819D02*
X165541546Y-104264342D01*
X165541546Y-104264342D02*
X165589165Y-104359580D01*
X165589165Y-104359580D02*
X165636784Y-104407200D01*
X165636784Y-104407200D02*
X165732022Y-104454819D01*
X165732022Y-104454819D02*
X165922498Y-104454819D01*
X165922498Y-104454819D02*
X166017736Y-104407200D01*
X166017736Y-104407200D02*
X166065355Y-104359580D01*
X166065355Y-104359580D02*
X166112974Y-104264342D01*
X166112974Y-104264342D02*
X166112974Y-103454819D01*
X166493927Y-103454819D02*
X167112974Y-103454819D01*
X167112974Y-103454819D02*
X166779641Y-103835771D01*
X166779641Y-103835771D02*
X166922498Y-103835771D01*
X166922498Y-103835771D02*
X167017736Y-103883390D01*
X167017736Y-103883390D02*
X167065355Y-103931009D01*
X167065355Y-103931009D02*
X167112974Y-104026247D01*
X167112974Y-104026247D02*
X167112974Y-104264342D01*
X167112974Y-104264342D02*
X167065355Y-104359580D01*
X167065355Y-104359580D02*
X167017736Y-104407200D01*
X167017736Y-104407200D02*
X166922498Y-104454819D01*
X166922498Y-104454819D02*
X166636784Y-104454819D01*
X166636784Y-104454819D02*
X166541546Y-104407200D01*
X166541546Y-104407200D02*
X166493927Y-104359580D01*
X167970117Y-103788152D02*
X167970117Y-104454819D01*
X167732022Y-103407200D02*
X167493927Y-104121485D01*
X167493927Y-104121485D02*
X168112974Y-104121485D01*
X222135714Y-157287200D02*
X222278571Y-157334819D01*
X222278571Y-157334819D02*
X222516666Y-157334819D01*
X222516666Y-157334819D02*
X222611904Y-157287200D01*
X222611904Y-157287200D02*
X222659523Y-157239580D01*
X222659523Y-157239580D02*
X222707142Y-157144342D01*
X222707142Y-157144342D02*
X222707142Y-157049104D01*
X222707142Y-157049104D02*
X222659523Y-156953866D01*
X222659523Y-156953866D02*
X222611904Y-156906247D01*
X222611904Y-156906247D02*
X222516666Y-156858628D01*
X222516666Y-156858628D02*
X222326190Y-156811009D01*
X222326190Y-156811009D02*
X222230952Y-156763390D01*
X222230952Y-156763390D02*
X222183333Y-156715771D01*
X222183333Y-156715771D02*
X222135714Y-156620533D01*
X222135714Y-156620533D02*
X222135714Y-156525295D01*
X222135714Y-156525295D02*
X222183333Y-156430057D01*
X222183333Y-156430057D02*
X222230952Y-156382438D01*
X222230952Y-156382438D02*
X222326190Y-156334819D01*
X222326190Y-156334819D02*
X222564285Y-156334819D01*
X222564285Y-156334819D02*
X222707142Y-156382438D01*
X223040476Y-156334819D02*
X223278571Y-157334819D01*
X223278571Y-157334819D02*
X223469047Y-156620533D01*
X223469047Y-156620533D02*
X223659523Y-157334819D01*
X223659523Y-157334819D02*
X223897619Y-156334819D01*
X224754761Y-157334819D02*
X224278571Y-157334819D01*
X224278571Y-157334819D02*
X224278571Y-156334819D01*
X225040476Y-157287200D02*
X225183333Y-157334819D01*
X225183333Y-157334819D02*
X225421428Y-157334819D01*
X225421428Y-157334819D02*
X225516666Y-157287200D01*
X225516666Y-157287200D02*
X225564285Y-157239580D01*
X225564285Y-157239580D02*
X225611904Y-157144342D01*
X225611904Y-157144342D02*
X225611904Y-157049104D01*
X225611904Y-157049104D02*
X225564285Y-156953866D01*
X225564285Y-156953866D02*
X225516666Y-156906247D01*
X225516666Y-156906247D02*
X225421428Y-156858628D01*
X225421428Y-156858628D02*
X225230952Y-156811009D01*
X225230952Y-156811009D02*
X225135714Y-156763390D01*
X225135714Y-156763390D02*
X225088095Y-156715771D01*
X225088095Y-156715771D02*
X225040476Y-156620533D01*
X225040476Y-156620533D02*
X225040476Y-156525295D01*
X225040476Y-156525295D02*
X225088095Y-156430057D01*
X225088095Y-156430057D02*
X225135714Y-156382438D01*
X225135714Y-156382438D02*
X225230952Y-156334819D01*
X225230952Y-156334819D02*
X225469047Y-156334819D01*
X225469047Y-156334819D02*
X225611904Y-156382438D01*
X226373809Y-156811009D02*
X226516666Y-156858628D01*
X226516666Y-156858628D02*
X226564285Y-156906247D01*
X226564285Y-156906247D02*
X226611904Y-157001485D01*
X226611904Y-157001485D02*
X226611904Y-157144342D01*
X226611904Y-157144342D02*
X226564285Y-157239580D01*
X226564285Y-157239580D02*
X226516666Y-157287200D01*
X226516666Y-157287200D02*
X226421428Y-157334819D01*
X226421428Y-157334819D02*
X226040476Y-157334819D01*
X226040476Y-157334819D02*
X226040476Y-156334819D01*
X226040476Y-156334819D02*
X226373809Y-156334819D01*
X226373809Y-156334819D02*
X226469047Y-156382438D01*
X226469047Y-156382438D02*
X226516666Y-156430057D01*
X226516666Y-156430057D02*
X226564285Y-156525295D01*
X226564285Y-156525295D02*
X226564285Y-156620533D01*
X226564285Y-156620533D02*
X226516666Y-156715771D01*
X226516666Y-156715771D02*
X226469047Y-156763390D01*
X226469047Y-156763390D02*
X226373809Y-156811009D01*
X226373809Y-156811009D02*
X226040476Y-156811009D01*
X227564285Y-157334819D02*
X226992857Y-157334819D01*
X227278571Y-157334819D02*
X227278571Y-156334819D01*
X227278571Y-156334819D02*
X227183333Y-156477676D01*
X227183333Y-156477676D02*
X227088095Y-156572914D01*
X227088095Y-156572914D02*
X226992857Y-156620533D01*
X165110655Y-52704819D02*
X165110655Y-53514342D01*
X165110655Y-53514342D02*
X165158274Y-53609580D01*
X165158274Y-53609580D02*
X165205893Y-53657200D01*
X165205893Y-53657200D02*
X165301131Y-53704819D01*
X165301131Y-53704819D02*
X165491607Y-53704819D01*
X165491607Y-53704819D02*
X165586845Y-53657200D01*
X165586845Y-53657200D02*
X165634464Y-53609580D01*
X165634464Y-53609580D02*
X165682083Y-53514342D01*
X165682083Y-53514342D02*
X165682083Y-52704819D01*
X166634464Y-52704819D02*
X166158274Y-52704819D01*
X166158274Y-52704819D02*
X166110655Y-53181009D01*
X166110655Y-53181009D02*
X166158274Y-53133390D01*
X166158274Y-53133390D02*
X166253512Y-53085771D01*
X166253512Y-53085771D02*
X166491607Y-53085771D01*
X166491607Y-53085771D02*
X166586845Y-53133390D01*
X166586845Y-53133390D02*
X166634464Y-53181009D01*
X166634464Y-53181009D02*
X166682083Y-53276247D01*
X166682083Y-53276247D02*
X166682083Y-53514342D01*
X166682083Y-53514342D02*
X166634464Y-53609580D01*
X166634464Y-53609580D02*
X166586845Y-53657200D01*
X166586845Y-53657200D02*
X166491607Y-53704819D01*
X166491607Y-53704819D02*
X166253512Y-53704819D01*
X166253512Y-53704819D02*
X166158274Y-53657200D01*
X166158274Y-53657200D02*
X166110655Y-53609580D01*
X167015417Y-52704819D02*
X167634464Y-52704819D01*
X167634464Y-52704819D02*
X167301131Y-53085771D01*
X167301131Y-53085771D02*
X167443988Y-53085771D01*
X167443988Y-53085771D02*
X167539226Y-53133390D01*
X167539226Y-53133390D02*
X167586845Y-53181009D01*
X167586845Y-53181009D02*
X167634464Y-53276247D01*
X167634464Y-53276247D02*
X167634464Y-53514342D01*
X167634464Y-53514342D02*
X167586845Y-53609580D01*
X167586845Y-53609580D02*
X167539226Y-53657200D01*
X167539226Y-53657200D02*
X167443988Y-53704819D01*
X167443988Y-53704819D02*
X167158274Y-53704819D01*
X167158274Y-53704819D02*
X167063036Y-53657200D01*
X167063036Y-53657200D02*
X167015417Y-53609580D01*
X72150595Y-159129819D02*
X72150595Y-159939342D01*
X72150595Y-159939342D02*
X72198214Y-160034580D01*
X72198214Y-160034580D02*
X72245833Y-160082200D01*
X72245833Y-160082200D02*
X72341071Y-160129819D01*
X72341071Y-160129819D02*
X72531547Y-160129819D01*
X72531547Y-160129819D02*
X72626785Y-160082200D01*
X72626785Y-160082200D02*
X72674404Y-160034580D01*
X72674404Y-160034580D02*
X72722023Y-159939342D01*
X72722023Y-159939342D02*
X72722023Y-159129819D01*
X73626785Y-159129819D02*
X73436309Y-159129819D01*
X73436309Y-159129819D02*
X73341071Y-159177438D01*
X73341071Y-159177438D02*
X73293452Y-159225057D01*
X73293452Y-159225057D02*
X73198214Y-159367914D01*
X73198214Y-159367914D02*
X73150595Y-159558390D01*
X73150595Y-159558390D02*
X73150595Y-159939342D01*
X73150595Y-159939342D02*
X73198214Y-160034580D01*
X73198214Y-160034580D02*
X73245833Y-160082200D01*
X73245833Y-160082200D02*
X73341071Y-160129819D01*
X73341071Y-160129819D02*
X73531547Y-160129819D01*
X73531547Y-160129819D02*
X73626785Y-160082200D01*
X73626785Y-160082200D02*
X73674404Y-160034580D01*
X73674404Y-160034580D02*
X73722023Y-159939342D01*
X73722023Y-159939342D02*
X73722023Y-159701247D01*
X73722023Y-159701247D02*
X73674404Y-159606009D01*
X73674404Y-159606009D02*
X73626785Y-159558390D01*
X73626785Y-159558390D02*
X73531547Y-159510771D01*
X73531547Y-159510771D02*
X73341071Y-159510771D01*
X73341071Y-159510771D02*
X73245833Y-159558390D01*
X73245833Y-159558390D02*
X73198214Y-159606009D01*
X73198214Y-159606009D02*
X73150595Y-159701247D01*
X54378155Y-57669819D02*
X54378155Y-58479342D01*
X54378155Y-58479342D02*
X54425774Y-58574580D01*
X54425774Y-58574580D02*
X54473393Y-58622200D01*
X54473393Y-58622200D02*
X54568631Y-58669819D01*
X54568631Y-58669819D02*
X54759107Y-58669819D01*
X54759107Y-58669819D02*
X54854345Y-58622200D01*
X54854345Y-58622200D02*
X54901964Y-58574580D01*
X54901964Y-58574580D02*
X54949583Y-58479342D01*
X54949583Y-58479342D02*
X54949583Y-57669819D01*
X55854345Y-58003152D02*
X55854345Y-58669819D01*
X55616250Y-57622200D02*
X55378155Y-58336485D01*
X55378155Y-58336485D02*
X55997202Y-58336485D01*
X56282917Y-57669819D02*
X56949583Y-57669819D01*
X56949583Y-57669819D02*
X56521012Y-58669819D01*
X148901546Y-103454819D02*
X148901546Y-104264342D01*
X148901546Y-104264342D02*
X148949165Y-104359580D01*
X148949165Y-104359580D02*
X148996784Y-104407200D01*
X148996784Y-104407200D02*
X149092022Y-104454819D01*
X149092022Y-104454819D02*
X149282498Y-104454819D01*
X149282498Y-104454819D02*
X149377736Y-104407200D01*
X149377736Y-104407200D02*
X149425355Y-104359580D01*
X149425355Y-104359580D02*
X149472974Y-104264342D01*
X149472974Y-104264342D02*
X149472974Y-103454819D01*
X149853927Y-103454819D02*
X150472974Y-103454819D01*
X150472974Y-103454819D02*
X150139641Y-103835771D01*
X150139641Y-103835771D02*
X150282498Y-103835771D01*
X150282498Y-103835771D02*
X150377736Y-103883390D01*
X150377736Y-103883390D02*
X150425355Y-103931009D01*
X150425355Y-103931009D02*
X150472974Y-104026247D01*
X150472974Y-104026247D02*
X150472974Y-104264342D01*
X150472974Y-104264342D02*
X150425355Y-104359580D01*
X150425355Y-104359580D02*
X150377736Y-104407200D01*
X150377736Y-104407200D02*
X150282498Y-104454819D01*
X150282498Y-104454819D02*
X149996784Y-104454819D01*
X149996784Y-104454819D02*
X149901546Y-104407200D01*
X149901546Y-104407200D02*
X149853927Y-104359580D01*
X150806308Y-103454819D02*
X151425355Y-103454819D01*
X151425355Y-103454819D02*
X151092022Y-103835771D01*
X151092022Y-103835771D02*
X151234879Y-103835771D01*
X151234879Y-103835771D02*
X151330117Y-103883390D01*
X151330117Y-103883390D02*
X151377736Y-103931009D01*
X151377736Y-103931009D02*
X151425355Y-104026247D01*
X151425355Y-104026247D02*
X151425355Y-104264342D01*
X151425355Y-104264342D02*
X151377736Y-104359580D01*
X151377736Y-104359580D02*
X151330117Y-104407200D01*
X151330117Y-104407200D02*
X151234879Y-104454819D01*
X151234879Y-104454819D02*
X150949165Y-104454819D01*
X150949165Y-104454819D02*
X150853927Y-104407200D01*
X150853927Y-104407200D02*
X150806308Y-104359580D01*
X34880952Y-72329819D02*
X34547619Y-71853628D01*
X34309524Y-72329819D02*
X34309524Y-71329819D01*
X34309524Y-71329819D02*
X34690476Y-71329819D01*
X34690476Y-71329819D02*
X34785714Y-71377438D01*
X34785714Y-71377438D02*
X34833333Y-71425057D01*
X34833333Y-71425057D02*
X34880952Y-71520295D01*
X34880952Y-71520295D02*
X34880952Y-71663152D01*
X34880952Y-71663152D02*
X34833333Y-71758390D01*
X34833333Y-71758390D02*
X34785714Y-71806009D01*
X34785714Y-71806009D02*
X34690476Y-71853628D01*
X34690476Y-71853628D02*
X34309524Y-71853628D01*
X35833333Y-72329819D02*
X35261905Y-72329819D01*
X35547619Y-72329819D02*
X35547619Y-71329819D01*
X35547619Y-71329819D02*
X35452381Y-71472676D01*
X35452381Y-71472676D02*
X35357143Y-71567914D01*
X35357143Y-71567914D02*
X35261905Y-71615533D01*
X36785714Y-72329819D02*
X36214286Y-72329819D01*
X36500000Y-72329819D02*
X36500000Y-71329819D01*
X36500000Y-71329819D02*
X36404762Y-71472676D01*
X36404762Y-71472676D02*
X36309524Y-71567914D01*
X36309524Y-71567914D02*
X36214286Y-71615533D01*
X37261905Y-72329819D02*
X37452381Y-72329819D01*
X37452381Y-72329819D02*
X37547619Y-72282200D01*
X37547619Y-72282200D02*
X37595238Y-72234580D01*
X37595238Y-72234580D02*
X37690476Y-72091723D01*
X37690476Y-72091723D02*
X37738095Y-71901247D01*
X37738095Y-71901247D02*
X37738095Y-71520295D01*
X37738095Y-71520295D02*
X37690476Y-71425057D01*
X37690476Y-71425057D02*
X37642857Y-71377438D01*
X37642857Y-71377438D02*
X37547619Y-71329819D01*
X37547619Y-71329819D02*
X37357143Y-71329819D01*
X37357143Y-71329819D02*
X37261905Y-71377438D01*
X37261905Y-71377438D02*
X37214286Y-71425057D01*
X37214286Y-71425057D02*
X37166667Y-71520295D01*
X37166667Y-71520295D02*
X37166667Y-71758390D01*
X37166667Y-71758390D02*
X37214286Y-71853628D01*
X37214286Y-71853628D02*
X37261905Y-71901247D01*
X37261905Y-71901247D02*
X37357143Y-71948866D01*
X37357143Y-71948866D02*
X37547619Y-71948866D01*
X37547619Y-71948866D02*
X37642857Y-71901247D01*
X37642857Y-71901247D02*
X37690476Y-71853628D01*
X37690476Y-71853628D02*
X37738095Y-71758390D01*
X28454819Y-87708333D02*
X29169104Y-87708333D01*
X29169104Y-87708333D02*
X29311961Y-87755952D01*
X29311961Y-87755952D02*
X29407200Y-87851190D01*
X29407200Y-87851190D02*
X29454819Y-87994047D01*
X29454819Y-87994047D02*
X29454819Y-88089285D01*
X28454819Y-87327380D02*
X28454819Y-86708333D01*
X28454819Y-86708333D02*
X28835771Y-87041666D01*
X28835771Y-87041666D02*
X28835771Y-86898809D01*
X28835771Y-86898809D02*
X28883390Y-86803571D01*
X28883390Y-86803571D02*
X28931009Y-86755952D01*
X28931009Y-86755952D02*
X29026247Y-86708333D01*
X29026247Y-86708333D02*
X29264342Y-86708333D01*
X29264342Y-86708333D02*
X29359580Y-86755952D01*
X29359580Y-86755952D02*
X29407200Y-86803571D01*
X29407200Y-86803571D02*
X29454819Y-86898809D01*
X29454819Y-86898809D02*
X29454819Y-87184523D01*
X29454819Y-87184523D02*
X29407200Y-87279761D01*
X29407200Y-87279761D02*
X29359580Y-87327380D01*
X55058095Y-159194819D02*
X55058095Y-160004342D01*
X55058095Y-160004342D02*
X55105714Y-160099580D01*
X55105714Y-160099580D02*
X55153333Y-160147200D01*
X55153333Y-160147200D02*
X55248571Y-160194819D01*
X55248571Y-160194819D02*
X55439047Y-160194819D01*
X55439047Y-160194819D02*
X55534285Y-160147200D01*
X55534285Y-160147200D02*
X55581904Y-160099580D01*
X55581904Y-160099580D02*
X55629523Y-160004342D01*
X55629523Y-160004342D02*
X55629523Y-159194819D01*
X56581904Y-159194819D02*
X56105714Y-159194819D01*
X56105714Y-159194819D02*
X56058095Y-159671009D01*
X56058095Y-159671009D02*
X56105714Y-159623390D01*
X56105714Y-159623390D02*
X56200952Y-159575771D01*
X56200952Y-159575771D02*
X56439047Y-159575771D01*
X56439047Y-159575771D02*
X56534285Y-159623390D01*
X56534285Y-159623390D02*
X56581904Y-159671009D01*
X56581904Y-159671009D02*
X56629523Y-159766247D01*
X56629523Y-159766247D02*
X56629523Y-160004342D01*
X56629523Y-160004342D02*
X56581904Y-160099580D01*
X56581904Y-160099580D02*
X56534285Y-160147200D01*
X56534285Y-160147200D02*
X56439047Y-160194819D01*
X56439047Y-160194819D02*
X56200952Y-160194819D01*
X56200952Y-160194819D02*
X56105714Y-160147200D01*
X56105714Y-160147200D02*
X56058095Y-160099580D01*
X131674405Y-154229819D02*
X131674405Y-155039342D01*
X131674405Y-155039342D02*
X131722024Y-155134580D01*
X131722024Y-155134580D02*
X131769643Y-155182200D01*
X131769643Y-155182200D02*
X131864881Y-155229819D01*
X131864881Y-155229819D02*
X132055357Y-155229819D01*
X132055357Y-155229819D02*
X132150595Y-155182200D01*
X132150595Y-155182200D02*
X132198214Y-155134580D01*
X132198214Y-155134580D02*
X132245833Y-155039342D01*
X132245833Y-155039342D02*
X132245833Y-154229819D01*
X133245833Y-155229819D02*
X132674405Y-155229819D01*
X132960119Y-155229819D02*
X132960119Y-154229819D01*
X132960119Y-154229819D02*
X132864881Y-154372676D01*
X132864881Y-154372676D02*
X132769643Y-154467914D01*
X132769643Y-154467914D02*
X132674405Y-154515533D01*
X133864881Y-154229819D02*
X133960119Y-154229819D01*
X133960119Y-154229819D02*
X134055357Y-154277438D01*
X134055357Y-154277438D02*
X134102976Y-154325057D01*
X134102976Y-154325057D02*
X134150595Y-154420295D01*
X134150595Y-154420295D02*
X134198214Y-154610771D01*
X134198214Y-154610771D02*
X134198214Y-154848866D01*
X134198214Y-154848866D02*
X134150595Y-155039342D01*
X134150595Y-155039342D02*
X134102976Y-155134580D01*
X134102976Y-155134580D02*
X134055357Y-155182200D01*
X134055357Y-155182200D02*
X133960119Y-155229819D01*
X133960119Y-155229819D02*
X133864881Y-155229819D01*
X133864881Y-155229819D02*
X133769643Y-155182200D01*
X133769643Y-155182200D02*
X133722024Y-155134580D01*
X133722024Y-155134580D02*
X133674405Y-155039342D01*
X133674405Y-155039342D02*
X133626786Y-154848866D01*
X133626786Y-154848866D02*
X133626786Y-154610771D01*
X133626786Y-154610771D02*
X133674405Y-154420295D01*
X133674405Y-154420295D02*
X133722024Y-154325057D01*
X133722024Y-154325057D02*
X133769643Y-154277438D01*
X133769643Y-154277438D02*
X133864881Y-154229819D01*
X105809046Y-108369819D02*
X105809046Y-109179342D01*
X105809046Y-109179342D02*
X105856665Y-109274580D01*
X105856665Y-109274580D02*
X105904284Y-109322200D01*
X105904284Y-109322200D02*
X105999522Y-109369819D01*
X105999522Y-109369819D02*
X106189998Y-109369819D01*
X106189998Y-109369819D02*
X106285236Y-109322200D01*
X106285236Y-109322200D02*
X106332855Y-109274580D01*
X106332855Y-109274580D02*
X106380474Y-109179342D01*
X106380474Y-109179342D02*
X106380474Y-108369819D01*
X106809046Y-108465057D02*
X106856665Y-108417438D01*
X106856665Y-108417438D02*
X106951903Y-108369819D01*
X106951903Y-108369819D02*
X107189998Y-108369819D01*
X107189998Y-108369819D02*
X107285236Y-108417438D01*
X107285236Y-108417438D02*
X107332855Y-108465057D01*
X107332855Y-108465057D02*
X107380474Y-108560295D01*
X107380474Y-108560295D02*
X107380474Y-108655533D01*
X107380474Y-108655533D02*
X107332855Y-108798390D01*
X107332855Y-108798390D02*
X106761427Y-109369819D01*
X106761427Y-109369819D02*
X107380474Y-109369819D01*
X107713808Y-108369819D02*
X108380474Y-108369819D01*
X108380474Y-108369819D02*
X107951903Y-109369819D01*
X37857142Y-181579819D02*
X37523809Y-181103628D01*
X37285714Y-181579819D02*
X37285714Y-180579819D01*
X37285714Y-180579819D02*
X37666666Y-180579819D01*
X37666666Y-180579819D02*
X37761904Y-180627438D01*
X37761904Y-180627438D02*
X37809523Y-180675057D01*
X37809523Y-180675057D02*
X37857142Y-180770295D01*
X37857142Y-180770295D02*
X37857142Y-180913152D01*
X37857142Y-180913152D02*
X37809523Y-181008390D01*
X37809523Y-181008390D02*
X37761904Y-181056009D01*
X37761904Y-181056009D02*
X37666666Y-181103628D01*
X37666666Y-181103628D02*
X37285714Y-181103628D01*
X38714285Y-180913152D02*
X38714285Y-181579819D01*
X38476190Y-180532200D02*
X38238095Y-181246485D01*
X38238095Y-181246485D02*
X38857142Y-181246485D01*
X39142857Y-180579819D02*
X39761904Y-180579819D01*
X39761904Y-180579819D02*
X39428571Y-180960771D01*
X39428571Y-180960771D02*
X39571428Y-180960771D01*
X39571428Y-180960771D02*
X39666666Y-181008390D01*
X39666666Y-181008390D02*
X39714285Y-181056009D01*
X39714285Y-181056009D02*
X39761904Y-181151247D01*
X39761904Y-181151247D02*
X39761904Y-181389342D01*
X39761904Y-181389342D02*
X39714285Y-181484580D01*
X39714285Y-181484580D02*
X39666666Y-181532200D01*
X39666666Y-181532200D02*
X39571428Y-181579819D01*
X39571428Y-181579819D02*
X39285714Y-181579819D01*
X39285714Y-181579819D02*
X39190476Y-181532200D01*
X39190476Y-181532200D02*
X39142857Y-181484580D01*
X88809046Y-108369819D02*
X88809046Y-109179342D01*
X88809046Y-109179342D02*
X88856665Y-109274580D01*
X88856665Y-109274580D02*
X88904284Y-109322200D01*
X88904284Y-109322200D02*
X88999522Y-109369819D01*
X88999522Y-109369819D02*
X89189998Y-109369819D01*
X89189998Y-109369819D02*
X89285236Y-109322200D01*
X89285236Y-109322200D02*
X89332855Y-109274580D01*
X89332855Y-109274580D02*
X89380474Y-109179342D01*
X89380474Y-109179342D02*
X89380474Y-108369819D01*
X89809046Y-108465057D02*
X89856665Y-108417438D01*
X89856665Y-108417438D02*
X89951903Y-108369819D01*
X89951903Y-108369819D02*
X90189998Y-108369819D01*
X90189998Y-108369819D02*
X90285236Y-108417438D01*
X90285236Y-108417438D02*
X90332855Y-108465057D01*
X90332855Y-108465057D02*
X90380474Y-108560295D01*
X90380474Y-108560295D02*
X90380474Y-108655533D01*
X90380474Y-108655533D02*
X90332855Y-108798390D01*
X90332855Y-108798390D02*
X89761427Y-109369819D01*
X89761427Y-109369819D02*
X90380474Y-109369819D01*
X91237617Y-108369819D02*
X91047141Y-108369819D01*
X91047141Y-108369819D02*
X90951903Y-108417438D01*
X90951903Y-108417438D02*
X90904284Y-108465057D01*
X90904284Y-108465057D02*
X90809046Y-108607914D01*
X90809046Y-108607914D02*
X90761427Y-108798390D01*
X90761427Y-108798390D02*
X90761427Y-109179342D01*
X90761427Y-109179342D02*
X90809046Y-109274580D01*
X90809046Y-109274580D02*
X90856665Y-109322200D01*
X90856665Y-109322200D02*
X90951903Y-109369819D01*
X90951903Y-109369819D02*
X91142379Y-109369819D01*
X91142379Y-109369819D02*
X91237617Y-109322200D01*
X91237617Y-109322200D02*
X91285236Y-109274580D01*
X91285236Y-109274580D02*
X91332855Y-109179342D01*
X91332855Y-109179342D02*
X91332855Y-108941247D01*
X91332855Y-108941247D02*
X91285236Y-108846009D01*
X91285236Y-108846009D02*
X91237617Y-108798390D01*
X91237617Y-108798390D02*
X91142379Y-108750771D01*
X91142379Y-108750771D02*
X90951903Y-108750771D01*
X90951903Y-108750771D02*
X90856665Y-108798390D01*
X90856665Y-108798390D02*
X90809046Y-108846009D01*
X90809046Y-108846009D02*
X90761427Y-108941247D01*
X63809046Y-103519819D02*
X63809046Y-104329342D01*
X63809046Y-104329342D02*
X63856665Y-104424580D01*
X63856665Y-104424580D02*
X63904284Y-104472200D01*
X63904284Y-104472200D02*
X63999522Y-104519819D01*
X63999522Y-104519819D02*
X64189998Y-104519819D01*
X64189998Y-104519819D02*
X64285236Y-104472200D01*
X64285236Y-104472200D02*
X64332855Y-104424580D01*
X64332855Y-104424580D02*
X64380474Y-104329342D01*
X64380474Y-104329342D02*
X64380474Y-103519819D01*
X64809046Y-103615057D02*
X64856665Y-103567438D01*
X64856665Y-103567438D02*
X64951903Y-103519819D01*
X64951903Y-103519819D02*
X65189998Y-103519819D01*
X65189998Y-103519819D02*
X65285236Y-103567438D01*
X65285236Y-103567438D02*
X65332855Y-103615057D01*
X65332855Y-103615057D02*
X65380474Y-103710295D01*
X65380474Y-103710295D02*
X65380474Y-103805533D01*
X65380474Y-103805533D02*
X65332855Y-103948390D01*
X65332855Y-103948390D02*
X64761427Y-104519819D01*
X64761427Y-104519819D02*
X65380474Y-104519819D01*
X65761427Y-103615057D02*
X65809046Y-103567438D01*
X65809046Y-103567438D02*
X65904284Y-103519819D01*
X65904284Y-103519819D02*
X66142379Y-103519819D01*
X66142379Y-103519819D02*
X66237617Y-103567438D01*
X66237617Y-103567438D02*
X66285236Y-103615057D01*
X66285236Y-103615057D02*
X66332855Y-103710295D01*
X66332855Y-103710295D02*
X66332855Y-103805533D01*
X66332855Y-103805533D02*
X66285236Y-103948390D01*
X66285236Y-103948390D02*
X65713808Y-104519819D01*
X65713808Y-104519819D02*
X66332855Y-104519819D01*
X115058095Y-154244819D02*
X115058095Y-155054342D01*
X115058095Y-155054342D02*
X115105714Y-155149580D01*
X115105714Y-155149580D02*
X115153333Y-155197200D01*
X115153333Y-155197200D02*
X115248571Y-155244819D01*
X115248571Y-155244819D02*
X115439047Y-155244819D01*
X115439047Y-155244819D02*
X115534285Y-155197200D01*
X115534285Y-155197200D02*
X115581904Y-155149580D01*
X115581904Y-155149580D02*
X115629523Y-155054342D01*
X115629523Y-155054342D02*
X115629523Y-154244819D01*
X116153333Y-155244819D02*
X116343809Y-155244819D01*
X116343809Y-155244819D02*
X116439047Y-155197200D01*
X116439047Y-155197200D02*
X116486666Y-155149580D01*
X116486666Y-155149580D02*
X116581904Y-155006723D01*
X116581904Y-155006723D02*
X116629523Y-154816247D01*
X116629523Y-154816247D02*
X116629523Y-154435295D01*
X116629523Y-154435295D02*
X116581904Y-154340057D01*
X116581904Y-154340057D02*
X116534285Y-154292438D01*
X116534285Y-154292438D02*
X116439047Y-154244819D01*
X116439047Y-154244819D02*
X116248571Y-154244819D01*
X116248571Y-154244819D02*
X116153333Y-154292438D01*
X116153333Y-154292438D02*
X116105714Y-154340057D01*
X116105714Y-154340057D02*
X116058095Y-154435295D01*
X116058095Y-154435295D02*
X116058095Y-154673390D01*
X116058095Y-154673390D02*
X116105714Y-154768628D01*
X116105714Y-154768628D02*
X116153333Y-154816247D01*
X116153333Y-154816247D02*
X116248571Y-154863866D01*
X116248571Y-154863866D02*
X116439047Y-154863866D01*
X116439047Y-154863866D02*
X116534285Y-154816247D01*
X116534285Y-154816247D02*
X116581904Y-154768628D01*
X116581904Y-154768628D02*
X116629523Y-154673390D01*
X221955298Y-65972200D02*
X222098155Y-66019819D01*
X222098155Y-66019819D02*
X222336250Y-66019819D01*
X222336250Y-66019819D02*
X222431488Y-65972200D01*
X222431488Y-65972200D02*
X222479107Y-65924580D01*
X222479107Y-65924580D02*
X222526726Y-65829342D01*
X222526726Y-65829342D02*
X222526726Y-65734104D01*
X222526726Y-65734104D02*
X222479107Y-65638866D01*
X222479107Y-65638866D02*
X222431488Y-65591247D01*
X222431488Y-65591247D02*
X222336250Y-65543628D01*
X222336250Y-65543628D02*
X222145774Y-65496009D01*
X222145774Y-65496009D02*
X222050536Y-65448390D01*
X222050536Y-65448390D02*
X222002917Y-65400771D01*
X222002917Y-65400771D02*
X221955298Y-65305533D01*
X221955298Y-65305533D02*
X221955298Y-65210295D01*
X221955298Y-65210295D02*
X222002917Y-65115057D01*
X222002917Y-65115057D02*
X222050536Y-65067438D01*
X222050536Y-65067438D02*
X222145774Y-65019819D01*
X222145774Y-65019819D02*
X222383869Y-65019819D01*
X222383869Y-65019819D02*
X222526726Y-65067438D01*
X222860060Y-65019819D02*
X223098155Y-66019819D01*
X223098155Y-66019819D02*
X223288631Y-65305533D01*
X223288631Y-65305533D02*
X223479107Y-66019819D01*
X223479107Y-66019819D02*
X223717203Y-65019819D01*
X224098155Y-66019819D02*
X224098155Y-65019819D01*
X224098155Y-65019819D02*
X224431488Y-65734104D01*
X224431488Y-65734104D02*
X224764821Y-65019819D01*
X224764821Y-65019819D02*
X224764821Y-66019819D01*
X225193393Y-65972200D02*
X225336250Y-66019819D01*
X225336250Y-66019819D02*
X225574345Y-66019819D01*
X225574345Y-66019819D02*
X225669583Y-65972200D01*
X225669583Y-65972200D02*
X225717202Y-65924580D01*
X225717202Y-65924580D02*
X225764821Y-65829342D01*
X225764821Y-65829342D02*
X225764821Y-65734104D01*
X225764821Y-65734104D02*
X225717202Y-65638866D01*
X225717202Y-65638866D02*
X225669583Y-65591247D01*
X225669583Y-65591247D02*
X225574345Y-65543628D01*
X225574345Y-65543628D02*
X225383869Y-65496009D01*
X225383869Y-65496009D02*
X225288631Y-65448390D01*
X225288631Y-65448390D02*
X225241012Y-65400771D01*
X225241012Y-65400771D02*
X225193393Y-65305533D01*
X225193393Y-65305533D02*
X225193393Y-65210295D01*
X225193393Y-65210295D02*
X225241012Y-65115057D01*
X225241012Y-65115057D02*
X225288631Y-65067438D01*
X225288631Y-65067438D02*
X225383869Y-65019819D01*
X225383869Y-65019819D02*
X225621964Y-65019819D01*
X225621964Y-65019819D02*
X225764821Y-65067438D01*
X226526726Y-65496009D02*
X226669583Y-65543628D01*
X226669583Y-65543628D02*
X226717202Y-65591247D01*
X226717202Y-65591247D02*
X226764821Y-65686485D01*
X226764821Y-65686485D02*
X226764821Y-65829342D01*
X226764821Y-65829342D02*
X226717202Y-65924580D01*
X226717202Y-65924580D02*
X226669583Y-65972200D01*
X226669583Y-65972200D02*
X226574345Y-66019819D01*
X226574345Y-66019819D02*
X226193393Y-66019819D01*
X226193393Y-66019819D02*
X226193393Y-65019819D01*
X226193393Y-65019819D02*
X226526726Y-65019819D01*
X226526726Y-65019819D02*
X226621964Y-65067438D01*
X226621964Y-65067438D02*
X226669583Y-65115057D01*
X226669583Y-65115057D02*
X226717202Y-65210295D01*
X226717202Y-65210295D02*
X226717202Y-65305533D01*
X226717202Y-65305533D02*
X226669583Y-65400771D01*
X226669583Y-65400771D02*
X226621964Y-65448390D01*
X226621964Y-65448390D02*
X226526726Y-65496009D01*
X226526726Y-65496009D02*
X226193393Y-65496009D01*
X227098155Y-65019819D02*
X227717202Y-65019819D01*
X227717202Y-65019819D02*
X227383869Y-65400771D01*
X227383869Y-65400771D02*
X227526726Y-65400771D01*
X227526726Y-65400771D02*
X227621964Y-65448390D01*
X227621964Y-65448390D02*
X227669583Y-65496009D01*
X227669583Y-65496009D02*
X227717202Y-65591247D01*
X227717202Y-65591247D02*
X227717202Y-65829342D01*
X227717202Y-65829342D02*
X227669583Y-65924580D01*
X227669583Y-65924580D02*
X227621964Y-65972200D01*
X227621964Y-65972200D02*
X227526726Y-66019819D01*
X227526726Y-66019819D02*
X227241012Y-66019819D01*
X227241012Y-66019819D02*
X227145774Y-65972200D01*
X227145774Y-65972200D02*
X227098155Y-65924580D01*
X131470655Y-52704819D02*
X131470655Y-53514342D01*
X131470655Y-53514342D02*
X131518274Y-53609580D01*
X131518274Y-53609580D02*
X131565893Y-53657200D01*
X131565893Y-53657200D02*
X131661131Y-53704819D01*
X131661131Y-53704819D02*
X131851607Y-53704819D01*
X131851607Y-53704819D02*
X131946845Y-53657200D01*
X131946845Y-53657200D02*
X131994464Y-53609580D01*
X131994464Y-53609580D02*
X132042083Y-53514342D01*
X132042083Y-53514342D02*
X132042083Y-52704819D01*
X132994464Y-52704819D02*
X132518274Y-52704819D01*
X132518274Y-52704819D02*
X132470655Y-53181009D01*
X132470655Y-53181009D02*
X132518274Y-53133390D01*
X132518274Y-53133390D02*
X132613512Y-53085771D01*
X132613512Y-53085771D02*
X132851607Y-53085771D01*
X132851607Y-53085771D02*
X132946845Y-53133390D01*
X132946845Y-53133390D02*
X132994464Y-53181009D01*
X132994464Y-53181009D02*
X133042083Y-53276247D01*
X133042083Y-53276247D02*
X133042083Y-53514342D01*
X133042083Y-53514342D02*
X132994464Y-53609580D01*
X132994464Y-53609580D02*
X132946845Y-53657200D01*
X132946845Y-53657200D02*
X132851607Y-53704819D01*
X132851607Y-53704819D02*
X132613512Y-53704819D01*
X132613512Y-53704819D02*
X132518274Y-53657200D01*
X132518274Y-53657200D02*
X132470655Y-53609580D01*
X133994464Y-53704819D02*
X133423036Y-53704819D01*
X133708750Y-53704819D02*
X133708750Y-52704819D01*
X133708750Y-52704819D02*
X133613512Y-52847676D01*
X133613512Y-52847676D02*
X133518274Y-52942914D01*
X133518274Y-52942914D02*
X133423036Y-52990533D01*
X97378155Y-52719819D02*
X97378155Y-53529342D01*
X97378155Y-53529342D02*
X97425774Y-53624580D01*
X97425774Y-53624580D02*
X97473393Y-53672200D01*
X97473393Y-53672200D02*
X97568631Y-53719819D01*
X97568631Y-53719819D02*
X97759107Y-53719819D01*
X97759107Y-53719819D02*
X97854345Y-53672200D01*
X97854345Y-53672200D02*
X97901964Y-53624580D01*
X97901964Y-53624580D02*
X97949583Y-53529342D01*
X97949583Y-53529342D02*
X97949583Y-52719819D01*
X98854345Y-53053152D02*
X98854345Y-53719819D01*
X98616250Y-52672200D02*
X98378155Y-53386485D01*
X98378155Y-53386485D02*
X98997202Y-53386485D01*
X99282917Y-52719819D02*
X99901964Y-52719819D01*
X99901964Y-52719819D02*
X99568631Y-53100771D01*
X99568631Y-53100771D02*
X99711488Y-53100771D01*
X99711488Y-53100771D02*
X99806726Y-53148390D01*
X99806726Y-53148390D02*
X99854345Y-53196009D01*
X99854345Y-53196009D02*
X99901964Y-53291247D01*
X99901964Y-53291247D02*
X99901964Y-53529342D01*
X99901964Y-53529342D02*
X99854345Y-53624580D01*
X99854345Y-53624580D02*
X99806726Y-53672200D01*
X99806726Y-53672200D02*
X99711488Y-53719819D01*
X99711488Y-53719819D02*
X99425774Y-53719819D01*
X99425774Y-53719819D02*
X99330536Y-53672200D01*
X99330536Y-53672200D02*
X99282917Y-53624580D01*
X36280952Y-42829819D02*
X35947619Y-42353628D01*
X35709524Y-42829819D02*
X35709524Y-41829819D01*
X35709524Y-41829819D02*
X36090476Y-41829819D01*
X36090476Y-41829819D02*
X36185714Y-41877438D01*
X36185714Y-41877438D02*
X36233333Y-41925057D01*
X36233333Y-41925057D02*
X36280952Y-42020295D01*
X36280952Y-42020295D02*
X36280952Y-42163152D01*
X36280952Y-42163152D02*
X36233333Y-42258390D01*
X36233333Y-42258390D02*
X36185714Y-42306009D01*
X36185714Y-42306009D02*
X36090476Y-42353628D01*
X36090476Y-42353628D02*
X35709524Y-42353628D01*
X37233333Y-42829819D02*
X36661905Y-42829819D01*
X36947619Y-42829819D02*
X36947619Y-41829819D01*
X36947619Y-41829819D02*
X36852381Y-41972676D01*
X36852381Y-41972676D02*
X36757143Y-42067914D01*
X36757143Y-42067914D02*
X36661905Y-42115533D01*
X37566667Y-41829819D02*
X38185714Y-41829819D01*
X38185714Y-41829819D02*
X37852381Y-42210771D01*
X37852381Y-42210771D02*
X37995238Y-42210771D01*
X37995238Y-42210771D02*
X38090476Y-42258390D01*
X38090476Y-42258390D02*
X38138095Y-42306009D01*
X38138095Y-42306009D02*
X38185714Y-42401247D01*
X38185714Y-42401247D02*
X38185714Y-42639342D01*
X38185714Y-42639342D02*
X38138095Y-42734580D01*
X38138095Y-42734580D02*
X38090476Y-42782200D01*
X38090476Y-42782200D02*
X37995238Y-42829819D01*
X37995238Y-42829819D02*
X37709524Y-42829819D01*
X37709524Y-42829819D02*
X37614286Y-42782200D01*
X37614286Y-42782200D02*
X37566667Y-42734580D01*
X39042857Y-42163152D02*
X39042857Y-42829819D01*
X38804762Y-41782200D02*
X38566667Y-42496485D01*
X38566667Y-42496485D02*
X39185714Y-42496485D01*
X45480952Y-45179819D02*
X45147619Y-44703628D01*
X44909524Y-45179819D02*
X44909524Y-44179819D01*
X44909524Y-44179819D02*
X45290476Y-44179819D01*
X45290476Y-44179819D02*
X45385714Y-44227438D01*
X45385714Y-44227438D02*
X45433333Y-44275057D01*
X45433333Y-44275057D02*
X45480952Y-44370295D01*
X45480952Y-44370295D02*
X45480952Y-44513152D01*
X45480952Y-44513152D02*
X45433333Y-44608390D01*
X45433333Y-44608390D02*
X45385714Y-44656009D01*
X45385714Y-44656009D02*
X45290476Y-44703628D01*
X45290476Y-44703628D02*
X44909524Y-44703628D01*
X46433333Y-45179819D02*
X45861905Y-45179819D01*
X46147619Y-45179819D02*
X46147619Y-44179819D01*
X46147619Y-44179819D02*
X46052381Y-44322676D01*
X46052381Y-44322676D02*
X45957143Y-44417914D01*
X45957143Y-44417914D02*
X45861905Y-44465533D01*
X46766667Y-44179819D02*
X47385714Y-44179819D01*
X47385714Y-44179819D02*
X47052381Y-44560771D01*
X47052381Y-44560771D02*
X47195238Y-44560771D01*
X47195238Y-44560771D02*
X47290476Y-44608390D01*
X47290476Y-44608390D02*
X47338095Y-44656009D01*
X47338095Y-44656009D02*
X47385714Y-44751247D01*
X47385714Y-44751247D02*
X47385714Y-44989342D01*
X47385714Y-44989342D02*
X47338095Y-45084580D01*
X47338095Y-45084580D02*
X47290476Y-45132200D01*
X47290476Y-45132200D02*
X47195238Y-45179819D01*
X47195238Y-45179819D02*
X46909524Y-45179819D01*
X46909524Y-45179819D02*
X46814286Y-45132200D01*
X46814286Y-45132200D02*
X46766667Y-45084580D01*
X48338095Y-45179819D02*
X47766667Y-45179819D01*
X48052381Y-45179819D02*
X48052381Y-44179819D01*
X48052381Y-44179819D02*
X47957143Y-44322676D01*
X47957143Y-44322676D02*
X47861905Y-44417914D01*
X47861905Y-44417914D02*
X47766667Y-44465533D01*
X105378155Y-57619819D02*
X105378155Y-58429342D01*
X105378155Y-58429342D02*
X105425774Y-58524580D01*
X105425774Y-58524580D02*
X105473393Y-58572200D01*
X105473393Y-58572200D02*
X105568631Y-58619819D01*
X105568631Y-58619819D02*
X105759107Y-58619819D01*
X105759107Y-58619819D02*
X105854345Y-58572200D01*
X105854345Y-58572200D02*
X105901964Y-58524580D01*
X105901964Y-58524580D02*
X105949583Y-58429342D01*
X105949583Y-58429342D02*
X105949583Y-57619819D01*
X106854345Y-57953152D02*
X106854345Y-58619819D01*
X106616250Y-57572200D02*
X106378155Y-58286485D01*
X106378155Y-58286485D02*
X106997202Y-58286485D01*
X107806726Y-57619819D02*
X107616250Y-57619819D01*
X107616250Y-57619819D02*
X107521012Y-57667438D01*
X107521012Y-57667438D02*
X107473393Y-57715057D01*
X107473393Y-57715057D02*
X107378155Y-57857914D01*
X107378155Y-57857914D02*
X107330536Y-58048390D01*
X107330536Y-58048390D02*
X107330536Y-58429342D01*
X107330536Y-58429342D02*
X107378155Y-58524580D01*
X107378155Y-58524580D02*
X107425774Y-58572200D01*
X107425774Y-58572200D02*
X107521012Y-58619819D01*
X107521012Y-58619819D02*
X107711488Y-58619819D01*
X107711488Y-58619819D02*
X107806726Y-58572200D01*
X107806726Y-58572200D02*
X107854345Y-58524580D01*
X107854345Y-58524580D02*
X107901964Y-58429342D01*
X107901964Y-58429342D02*
X107901964Y-58191247D01*
X107901964Y-58191247D02*
X107854345Y-58096009D01*
X107854345Y-58096009D02*
X107806726Y-58048390D01*
X107806726Y-58048390D02*
X107711488Y-58000771D01*
X107711488Y-58000771D02*
X107521012Y-58000771D01*
X107521012Y-58000771D02*
X107425774Y-58048390D01*
X107425774Y-58048390D02*
X107378155Y-58096009D01*
X107378155Y-58096009D02*
X107330536Y-58191247D01*
X139610655Y-57604819D02*
X139610655Y-58414342D01*
X139610655Y-58414342D02*
X139658274Y-58509580D01*
X139658274Y-58509580D02*
X139705893Y-58557200D01*
X139705893Y-58557200D02*
X139801131Y-58604819D01*
X139801131Y-58604819D02*
X139991607Y-58604819D01*
X139991607Y-58604819D02*
X140086845Y-58557200D01*
X140086845Y-58557200D02*
X140134464Y-58509580D01*
X140134464Y-58509580D02*
X140182083Y-58414342D01*
X140182083Y-58414342D02*
X140182083Y-57604819D01*
X141134464Y-57604819D02*
X140658274Y-57604819D01*
X140658274Y-57604819D02*
X140610655Y-58081009D01*
X140610655Y-58081009D02*
X140658274Y-58033390D01*
X140658274Y-58033390D02*
X140753512Y-57985771D01*
X140753512Y-57985771D02*
X140991607Y-57985771D01*
X140991607Y-57985771D02*
X141086845Y-58033390D01*
X141086845Y-58033390D02*
X141134464Y-58081009D01*
X141134464Y-58081009D02*
X141182083Y-58176247D01*
X141182083Y-58176247D02*
X141182083Y-58414342D01*
X141182083Y-58414342D02*
X141134464Y-58509580D01*
X141134464Y-58509580D02*
X141086845Y-58557200D01*
X141086845Y-58557200D02*
X140991607Y-58604819D01*
X140991607Y-58604819D02*
X140753512Y-58604819D01*
X140753512Y-58604819D02*
X140658274Y-58557200D01*
X140658274Y-58557200D02*
X140610655Y-58509580D01*
X142086845Y-57604819D02*
X141610655Y-57604819D01*
X141610655Y-57604819D02*
X141563036Y-58081009D01*
X141563036Y-58081009D02*
X141610655Y-58033390D01*
X141610655Y-58033390D02*
X141705893Y-57985771D01*
X141705893Y-57985771D02*
X141943988Y-57985771D01*
X141943988Y-57985771D02*
X142039226Y-58033390D01*
X142039226Y-58033390D02*
X142086845Y-58081009D01*
X142086845Y-58081009D02*
X142134464Y-58176247D01*
X142134464Y-58176247D02*
X142134464Y-58414342D01*
X142134464Y-58414342D02*
X142086845Y-58509580D01*
X142086845Y-58509580D02*
X142039226Y-58557200D01*
X142039226Y-58557200D02*
X141943988Y-58604819D01*
X141943988Y-58604819D02*
X141705893Y-58604819D01*
X141705893Y-58604819D02*
X141610655Y-58557200D01*
X141610655Y-58557200D02*
X141563036Y-58509580D01*
X71470655Y-57604819D02*
X71470655Y-58414342D01*
X71470655Y-58414342D02*
X71518274Y-58509580D01*
X71518274Y-58509580D02*
X71565893Y-58557200D01*
X71565893Y-58557200D02*
X71661131Y-58604819D01*
X71661131Y-58604819D02*
X71851607Y-58604819D01*
X71851607Y-58604819D02*
X71946845Y-58557200D01*
X71946845Y-58557200D02*
X71994464Y-58509580D01*
X71994464Y-58509580D02*
X72042083Y-58414342D01*
X72042083Y-58414342D02*
X72042083Y-57604819D01*
X72946845Y-57938152D02*
X72946845Y-58604819D01*
X72708750Y-57557200D02*
X72470655Y-58271485D01*
X72470655Y-58271485D02*
X73089702Y-58271485D01*
X73613512Y-58033390D02*
X73518274Y-57985771D01*
X73518274Y-57985771D02*
X73470655Y-57938152D01*
X73470655Y-57938152D02*
X73423036Y-57842914D01*
X73423036Y-57842914D02*
X73423036Y-57795295D01*
X73423036Y-57795295D02*
X73470655Y-57700057D01*
X73470655Y-57700057D02*
X73518274Y-57652438D01*
X73518274Y-57652438D02*
X73613512Y-57604819D01*
X73613512Y-57604819D02*
X73803988Y-57604819D01*
X73803988Y-57604819D02*
X73899226Y-57652438D01*
X73899226Y-57652438D02*
X73946845Y-57700057D01*
X73946845Y-57700057D02*
X73994464Y-57795295D01*
X73994464Y-57795295D02*
X73994464Y-57842914D01*
X73994464Y-57842914D02*
X73946845Y-57938152D01*
X73946845Y-57938152D02*
X73899226Y-57985771D01*
X73899226Y-57985771D02*
X73803988Y-58033390D01*
X73803988Y-58033390D02*
X73613512Y-58033390D01*
X73613512Y-58033390D02*
X73518274Y-58081009D01*
X73518274Y-58081009D02*
X73470655Y-58128628D01*
X73470655Y-58128628D02*
X73423036Y-58223866D01*
X73423036Y-58223866D02*
X73423036Y-58414342D01*
X73423036Y-58414342D02*
X73470655Y-58509580D01*
X73470655Y-58509580D02*
X73518274Y-58557200D01*
X73518274Y-58557200D02*
X73613512Y-58604819D01*
X73613512Y-58604819D02*
X73803988Y-58604819D01*
X73803988Y-58604819D02*
X73899226Y-58557200D01*
X73899226Y-58557200D02*
X73946845Y-58509580D01*
X73946845Y-58509580D02*
X73994464Y-58414342D01*
X73994464Y-58414342D02*
X73994464Y-58223866D01*
X73994464Y-58223866D02*
X73946845Y-58128628D01*
X73946845Y-58128628D02*
X73899226Y-58081009D01*
X73899226Y-58081009D02*
X73803988Y-58033390D01*
X122884046Y-108354819D02*
X122884046Y-109164342D01*
X122884046Y-109164342D02*
X122931665Y-109259580D01*
X122931665Y-109259580D02*
X122979284Y-109307200D01*
X122979284Y-109307200D02*
X123074522Y-109354819D01*
X123074522Y-109354819D02*
X123264998Y-109354819D01*
X123264998Y-109354819D02*
X123360236Y-109307200D01*
X123360236Y-109307200D02*
X123407855Y-109259580D01*
X123407855Y-109259580D02*
X123455474Y-109164342D01*
X123455474Y-109164342D02*
X123455474Y-108354819D01*
X123836427Y-108354819D02*
X124455474Y-108354819D01*
X124455474Y-108354819D02*
X124122141Y-108735771D01*
X124122141Y-108735771D02*
X124264998Y-108735771D01*
X124264998Y-108735771D02*
X124360236Y-108783390D01*
X124360236Y-108783390D02*
X124407855Y-108831009D01*
X124407855Y-108831009D02*
X124455474Y-108926247D01*
X124455474Y-108926247D02*
X124455474Y-109164342D01*
X124455474Y-109164342D02*
X124407855Y-109259580D01*
X124407855Y-109259580D02*
X124360236Y-109307200D01*
X124360236Y-109307200D02*
X124264998Y-109354819D01*
X124264998Y-109354819D02*
X123979284Y-109354819D01*
X123979284Y-109354819D02*
X123884046Y-109307200D01*
X123884046Y-109307200D02*
X123836427Y-109259580D01*
X125360236Y-108354819D02*
X124884046Y-108354819D01*
X124884046Y-108354819D02*
X124836427Y-108831009D01*
X124836427Y-108831009D02*
X124884046Y-108783390D01*
X124884046Y-108783390D02*
X124979284Y-108735771D01*
X124979284Y-108735771D02*
X125217379Y-108735771D01*
X125217379Y-108735771D02*
X125312617Y-108783390D01*
X125312617Y-108783390D02*
X125360236Y-108831009D01*
X125360236Y-108831009D02*
X125407855Y-108926247D01*
X125407855Y-108926247D02*
X125407855Y-109164342D01*
X125407855Y-109164342D02*
X125360236Y-109259580D01*
X125360236Y-109259580D02*
X125312617Y-109307200D01*
X125312617Y-109307200D02*
X125217379Y-109354819D01*
X125217379Y-109354819D02*
X124979284Y-109354819D01*
X124979284Y-109354819D02*
X124884046Y-109307200D01*
X124884046Y-109307200D02*
X124836427Y-109259580D01*
X156470655Y-57669819D02*
X156470655Y-58479342D01*
X156470655Y-58479342D02*
X156518274Y-58574580D01*
X156518274Y-58574580D02*
X156565893Y-58622200D01*
X156565893Y-58622200D02*
X156661131Y-58669819D01*
X156661131Y-58669819D02*
X156851607Y-58669819D01*
X156851607Y-58669819D02*
X156946845Y-58622200D01*
X156946845Y-58622200D02*
X156994464Y-58574580D01*
X156994464Y-58574580D02*
X157042083Y-58479342D01*
X157042083Y-58479342D02*
X157042083Y-57669819D01*
X157994464Y-57669819D02*
X157518274Y-57669819D01*
X157518274Y-57669819D02*
X157470655Y-58146009D01*
X157470655Y-58146009D02*
X157518274Y-58098390D01*
X157518274Y-58098390D02*
X157613512Y-58050771D01*
X157613512Y-58050771D02*
X157851607Y-58050771D01*
X157851607Y-58050771D02*
X157946845Y-58098390D01*
X157946845Y-58098390D02*
X157994464Y-58146009D01*
X157994464Y-58146009D02*
X158042083Y-58241247D01*
X158042083Y-58241247D02*
X158042083Y-58479342D01*
X158042083Y-58479342D02*
X157994464Y-58574580D01*
X157994464Y-58574580D02*
X157946845Y-58622200D01*
X157946845Y-58622200D02*
X157851607Y-58669819D01*
X157851607Y-58669819D02*
X157613512Y-58669819D01*
X157613512Y-58669819D02*
X157518274Y-58622200D01*
X157518274Y-58622200D02*
X157470655Y-58574580D01*
X158899226Y-57669819D02*
X158708750Y-57669819D01*
X158708750Y-57669819D02*
X158613512Y-57717438D01*
X158613512Y-57717438D02*
X158565893Y-57765057D01*
X158565893Y-57765057D02*
X158470655Y-57907914D01*
X158470655Y-57907914D02*
X158423036Y-58098390D01*
X158423036Y-58098390D02*
X158423036Y-58479342D01*
X158423036Y-58479342D02*
X158470655Y-58574580D01*
X158470655Y-58574580D02*
X158518274Y-58622200D01*
X158518274Y-58622200D02*
X158613512Y-58669819D01*
X158613512Y-58669819D02*
X158803988Y-58669819D01*
X158803988Y-58669819D02*
X158899226Y-58622200D01*
X158899226Y-58622200D02*
X158946845Y-58574580D01*
X158946845Y-58574580D02*
X158994464Y-58479342D01*
X158994464Y-58479342D02*
X158994464Y-58241247D01*
X158994464Y-58241247D02*
X158946845Y-58146009D01*
X158946845Y-58146009D02*
X158899226Y-58098390D01*
X158899226Y-58098390D02*
X158803988Y-58050771D01*
X158803988Y-58050771D02*
X158613512Y-58050771D01*
X158613512Y-58050771D02*
X158518274Y-58098390D01*
X158518274Y-58098390D02*
X158470655Y-58146009D01*
X158470655Y-58146009D02*
X158423036Y-58241247D01*
X35607142Y-173579819D02*
X35273809Y-173103628D01*
X35035714Y-173579819D02*
X35035714Y-172579819D01*
X35035714Y-172579819D02*
X35416666Y-172579819D01*
X35416666Y-172579819D02*
X35511904Y-172627438D01*
X35511904Y-172627438D02*
X35559523Y-172675057D01*
X35559523Y-172675057D02*
X35607142Y-172770295D01*
X35607142Y-172770295D02*
X35607142Y-172913152D01*
X35607142Y-172913152D02*
X35559523Y-173008390D01*
X35559523Y-173008390D02*
X35511904Y-173056009D01*
X35511904Y-173056009D02*
X35416666Y-173103628D01*
X35416666Y-173103628D02*
X35035714Y-173103628D01*
X36464285Y-172913152D02*
X36464285Y-173579819D01*
X36226190Y-172532200D02*
X35988095Y-173246485D01*
X35988095Y-173246485D02*
X36607142Y-173246485D01*
X36940476Y-172675057D02*
X36988095Y-172627438D01*
X36988095Y-172627438D02*
X37083333Y-172579819D01*
X37083333Y-172579819D02*
X37321428Y-172579819D01*
X37321428Y-172579819D02*
X37416666Y-172627438D01*
X37416666Y-172627438D02*
X37464285Y-172675057D01*
X37464285Y-172675057D02*
X37511904Y-172770295D01*
X37511904Y-172770295D02*
X37511904Y-172865533D01*
X37511904Y-172865533D02*
X37464285Y-173008390D01*
X37464285Y-173008390D02*
X36892857Y-173579819D01*
X36892857Y-173579819D02*
X37511904Y-173579819D01*
%TO.C,U29*%
D13*
X71529641Y-104840000D02*
X74749641Y-104840000D01*
X71529641Y-105015000D02*
X71529641Y-104840000D01*
X71529641Y-108060000D02*
X71529641Y-107885000D01*
X74749641Y-104840000D02*
X74749641Y-105015000D01*
X74749641Y-107885000D02*
X74749641Y-108060000D01*
X74749641Y-108060000D02*
X71529641Y-108060000D01*
X75309641Y-107890000D02*
X75549641Y-108220000D01*
X75069641Y-108220000D01*
X75309641Y-107890000D01*
G36*
X75549641Y-108220000D02*
G01*
X75069641Y-108220000D01*
X75309641Y-107890000D01*
X75549641Y-108220000D01*
G37*
%TO.C,U36*%
X139669641Y-104840000D02*
X142889641Y-104840000D01*
X139669641Y-105015000D02*
X139669641Y-104840000D01*
X139669641Y-108060000D02*
X139669641Y-107885000D01*
X142889641Y-104840000D02*
X142889641Y-105015000D01*
X142889641Y-107885000D02*
X142889641Y-108060000D01*
X142889641Y-108060000D02*
X139669641Y-108060000D01*
X143449641Y-107890000D02*
X143689641Y-108220000D01*
X143209641Y-108220000D01*
X143449641Y-107890000D01*
G36*
X143689641Y-108220000D02*
G01*
X143209641Y-108220000D01*
X143449641Y-107890000D01*
X143689641Y-108220000D01*
G37*
%TO.C,U15*%
X156302500Y-155680000D02*
X159522500Y-155680000D01*
X156302500Y-155855000D02*
X156302500Y-155680000D01*
X156302500Y-158900000D02*
X156302500Y-158725000D01*
X159522500Y-155680000D02*
X159522500Y-155855000D01*
X159522500Y-158725000D02*
X159522500Y-158900000D01*
X159522500Y-158900000D02*
X156302500Y-158900000D01*
X160082500Y-158730000D02*
X160322500Y-159060000D01*
X159842500Y-159060000D01*
X160082500Y-158730000D01*
G36*
X160322500Y-159060000D02*
G01*
X159842500Y-159060000D01*
X160082500Y-158730000D01*
X160322500Y-159060000D01*
G37*
%TO.C,SWMSB1*%
X222390000Y-168090000D02*
X222390000Y-175830000D01*
X222390000Y-175830000D02*
X227690000Y-175830000D01*
X224040000Y-168090000D02*
X222390000Y-168090000D01*
X227690000Y-168090000D02*
X226040000Y-168090000D01*
X227690000Y-175830000D02*
X227690000Y-168090000D01*
X226040000Y-168090000D02*
G75*
G02*
X224040000Y-168090000I-1000000J0D01*
G01*
%TO.C,J5*%
X32572500Y-44025000D02*
X33072500Y-44275000D01*
X33072500Y-43775000D02*
X32572500Y-44025000D01*
X33072500Y-44275000D02*
X33072500Y-43775000D01*
%TO.C,SWLSB3*%
X221996250Y-56355000D02*
X221996250Y-64095000D01*
X221996250Y-64095000D02*
X227296250Y-64095000D01*
X223646250Y-56355000D02*
X221996250Y-56355000D01*
X227296250Y-56355000D02*
X225646250Y-56355000D01*
X227296250Y-64095000D02*
X227296250Y-56355000D01*
X225646250Y-56355000D02*
G75*
G02*
X223646250Y-56355000I-1000000J0D01*
G01*
%TO.C,U52*%
X148098750Y-54090000D02*
X151318750Y-54090000D01*
X148098750Y-54265000D02*
X148098750Y-54090000D01*
X148098750Y-57310000D02*
X148098750Y-57135000D01*
X151318750Y-54090000D02*
X151318750Y-54265000D01*
X151318750Y-57135000D02*
X151318750Y-57310000D01*
X151318750Y-57310000D02*
X148098750Y-57310000D01*
X147538750Y-54260000D02*
X147298750Y-53930000D01*
X147778750Y-53930000D01*
X147538750Y-54260000D01*
G36*
X147538750Y-54260000D02*
G01*
X147298750Y-53930000D01*
X147778750Y-53930000D01*
X147538750Y-54260000D01*
G37*
%TO.C,U28*%
X54437141Y-104905000D02*
X57657141Y-104905000D01*
X54437141Y-105080000D02*
X54437141Y-104905000D01*
X54437141Y-108125000D02*
X54437141Y-107950000D01*
X57657141Y-104905000D02*
X57657141Y-105080000D01*
X57657141Y-107950000D02*
X57657141Y-108125000D01*
X57657141Y-108125000D02*
X54437141Y-108125000D01*
X58217141Y-107955000D02*
X58457141Y-108285000D01*
X57977141Y-108285000D01*
X58217141Y-107955000D01*
G36*
X58457141Y-108285000D02*
G01*
X57977141Y-108285000D01*
X58217141Y-107955000D01*
X58457141Y-108285000D01*
G37*
%TO.C,C7*%
X229620000Y-44375000D02*
G75*
G02*
X219380000Y-44375000I-5120000J0D01*
G01*
X219380000Y-44375000D02*
G75*
G02*
X229620000Y-44375000I5120000J0D01*
G01*
%TO.C,U37*%
X156529641Y-104905000D02*
X159749641Y-104905000D01*
X156529641Y-105080000D02*
X156529641Y-104905000D01*
X156529641Y-108125000D02*
X156529641Y-107950000D01*
X159749641Y-104905000D02*
X159749641Y-105080000D01*
X159749641Y-107950000D02*
X159749641Y-108125000D01*
X159749641Y-108125000D02*
X156529641Y-108125000D01*
X160309641Y-107955000D02*
X160549641Y-108285000D01*
X160069641Y-108285000D01*
X160309641Y-107955000D01*
G36*
X160549641Y-108285000D02*
G01*
X160069641Y-108285000D01*
X160309641Y-107955000D01*
X160549641Y-108285000D01*
G37*
%TO.C,C8*%
X229567380Y-38286000D02*
X230197380Y-38286000D01*
X229882380Y-37971000D02*
X229882380Y-38601000D01*
X233067621Y-36895000D02*
X233067621Y-43355000D01*
X233107621Y-36895000D02*
X233107621Y-43355000D01*
X233147621Y-36896000D02*
X233147621Y-43354000D01*
X233187621Y-36897000D02*
X233187621Y-43353000D01*
X233227621Y-36899000D02*
X233227621Y-43351000D01*
X233267621Y-36901000D02*
X233267621Y-43349000D01*
X233307621Y-36904000D02*
X233307621Y-39085000D01*
X233307621Y-41165000D02*
X233307621Y-43346000D01*
X233347621Y-36907000D02*
X233347621Y-39085000D01*
X233347621Y-41165000D02*
X233347621Y-43343000D01*
X233387621Y-36911000D02*
X233387621Y-39085000D01*
X233387621Y-41165000D02*
X233387621Y-43339000D01*
X233427621Y-36915000D02*
X233427621Y-39085000D01*
X233427621Y-41165000D02*
X233427621Y-43335000D01*
X233467621Y-36920000D02*
X233467621Y-39085000D01*
X233467621Y-41165000D02*
X233467621Y-43330000D01*
X233507621Y-36925000D02*
X233507621Y-39085000D01*
X233507621Y-41165000D02*
X233507621Y-43325000D01*
X233547621Y-36930000D02*
X233547621Y-39085000D01*
X233547621Y-41165000D02*
X233547621Y-43320000D01*
X233587621Y-36937000D02*
X233587621Y-39085000D01*
X233587621Y-41165000D02*
X233587621Y-43313000D01*
X233627621Y-36943000D02*
X233627621Y-39085000D01*
X233627621Y-41165000D02*
X233627621Y-43307000D01*
X233667621Y-36951000D02*
X233667621Y-39085000D01*
X233667621Y-41165000D02*
X233667621Y-43299000D01*
X233707621Y-36958000D02*
X233707621Y-39085000D01*
X233707621Y-41165000D02*
X233707621Y-43292000D01*
X233747621Y-36966000D02*
X233747621Y-39085000D01*
X233747621Y-41165000D02*
X233747621Y-43284000D01*
X233787621Y-36975000D02*
X233787621Y-39085000D01*
X233787621Y-41165000D02*
X233787621Y-43275000D01*
X233827621Y-36985000D02*
X233827621Y-39085000D01*
X233827621Y-41165000D02*
X233827621Y-43265000D01*
X233867621Y-36994000D02*
X233867621Y-39085000D01*
X233867621Y-41165000D02*
X233867621Y-43256000D01*
X233907621Y-37005000D02*
X233907621Y-39085000D01*
X233907621Y-41165000D02*
X233907621Y-43245000D01*
X233947621Y-37016000D02*
X233947621Y-39085000D01*
X233947621Y-41165000D02*
X233947621Y-43234000D01*
X233987621Y-37027000D02*
X233987621Y-39085000D01*
X233987621Y-41165000D02*
X233987621Y-43223000D01*
X234027621Y-37039000D02*
X234027621Y-39085000D01*
X234027621Y-41165000D02*
X234027621Y-43211000D01*
X234067621Y-37052000D02*
X234067621Y-39085000D01*
X234067621Y-41165000D02*
X234067621Y-43198000D01*
X234107621Y-37065000D02*
X234107621Y-39085000D01*
X234107621Y-41165000D02*
X234107621Y-43185000D01*
X234147621Y-37078000D02*
X234147621Y-39085000D01*
X234147621Y-41165000D02*
X234147621Y-43172000D01*
X234187621Y-37093000D02*
X234187621Y-39085000D01*
X234187621Y-41165000D02*
X234187621Y-43157000D01*
X234227621Y-37108000D02*
X234227621Y-39085000D01*
X234227621Y-41165000D02*
X234227621Y-43142000D01*
X234267621Y-37123000D02*
X234267621Y-39085000D01*
X234267621Y-41165000D02*
X234267621Y-43127000D01*
X234307621Y-37139000D02*
X234307621Y-39085000D01*
X234307621Y-41165000D02*
X234307621Y-43111000D01*
X234347621Y-37156000D02*
X234347621Y-39085000D01*
X234347621Y-41165000D02*
X234347621Y-43094000D01*
X234387621Y-37173000D02*
X234387621Y-39085000D01*
X234387621Y-41165000D02*
X234387621Y-43077000D01*
X234427621Y-37191000D02*
X234427621Y-39085000D01*
X234427621Y-41165000D02*
X234427621Y-43059000D01*
X234467621Y-37210000D02*
X234467621Y-39085000D01*
X234467621Y-41165000D02*
X234467621Y-43040000D01*
X234507621Y-37229000D02*
X234507621Y-39085000D01*
X234507621Y-41165000D02*
X234507621Y-43021000D01*
X234547621Y-37249000D02*
X234547621Y-39085000D01*
X234547621Y-41165000D02*
X234547621Y-43001000D01*
X234587621Y-37270000D02*
X234587621Y-39085000D01*
X234587621Y-41165000D02*
X234587621Y-42980000D01*
X234627621Y-37291000D02*
X234627621Y-39085000D01*
X234627621Y-41165000D02*
X234627621Y-42959000D01*
X234667621Y-37313000D02*
X234667621Y-39085000D01*
X234667621Y-41165000D02*
X234667621Y-42937000D01*
X234707621Y-37336000D02*
X234707621Y-39085000D01*
X234707621Y-41165000D02*
X234707621Y-42914000D01*
X234747621Y-37360000D02*
X234747621Y-39085000D01*
X234747621Y-41165000D02*
X234747621Y-42890000D01*
X234787621Y-37384000D02*
X234787621Y-39085000D01*
X234787621Y-41165000D02*
X234787621Y-42866000D01*
X234827621Y-37409000D02*
X234827621Y-39085000D01*
X234827621Y-41165000D02*
X234827621Y-42841000D01*
X234867621Y-37435000D02*
X234867621Y-39085000D01*
X234867621Y-41165000D02*
X234867621Y-42815000D01*
X234907621Y-37462000D02*
X234907621Y-39085000D01*
X234907621Y-41165000D02*
X234907621Y-42788000D01*
X234947621Y-37489000D02*
X234947621Y-39085000D01*
X234947621Y-41165000D02*
X234947621Y-42761000D01*
X234987621Y-37518000D02*
X234987621Y-39085000D01*
X234987621Y-41165000D02*
X234987621Y-42732000D01*
X235027621Y-37548000D02*
X235027621Y-39085000D01*
X235027621Y-41165000D02*
X235027621Y-42702000D01*
X235067621Y-37578000D02*
X235067621Y-39085000D01*
X235067621Y-41165000D02*
X235067621Y-42672000D01*
X235107621Y-37609000D02*
X235107621Y-39085000D01*
X235107621Y-41165000D02*
X235107621Y-42641000D01*
X235147621Y-37642000D02*
X235147621Y-39085000D01*
X235147621Y-41165000D02*
X235147621Y-42608000D01*
X235187621Y-37675000D02*
X235187621Y-39085000D01*
X235187621Y-41165000D02*
X235187621Y-42575000D01*
X235227621Y-37710000D02*
X235227621Y-39085000D01*
X235227621Y-41165000D02*
X235227621Y-42540000D01*
X235267621Y-37746000D02*
X235267621Y-39085000D01*
X235267621Y-41165000D02*
X235267621Y-42504000D01*
X235307621Y-37783000D02*
X235307621Y-39085000D01*
X235307621Y-41165000D02*
X235307621Y-42467000D01*
X235347621Y-37821000D02*
X235347621Y-39085000D01*
X235347621Y-41165000D02*
X235347621Y-42429000D01*
X235387621Y-37861000D02*
X235387621Y-42389000D01*
X235427621Y-37902000D02*
X235427621Y-42348000D01*
X235467621Y-37944000D02*
X235467621Y-42306000D01*
X235507621Y-37988000D02*
X235507621Y-42262000D01*
X235547621Y-38034000D02*
X235547621Y-42216000D01*
X235587621Y-38081000D02*
X235587621Y-42169000D01*
X235627621Y-38130000D02*
X235627621Y-42120000D01*
X235667621Y-38182000D02*
X235667621Y-42068000D01*
X235707621Y-38235000D02*
X235707621Y-42015000D01*
X235747621Y-38291000D02*
X235747621Y-41959000D01*
X235787621Y-38350000D02*
X235787621Y-41900000D01*
X235827621Y-38411000D02*
X235827621Y-41839000D01*
X235867621Y-38476000D02*
X235867621Y-41774000D01*
X235907621Y-38544000D02*
X235907621Y-41706000D01*
X235947621Y-38616000D02*
X235947621Y-41634000D01*
X235987621Y-38693000D02*
X235987621Y-41557000D01*
X236027621Y-38775000D02*
X236027621Y-41475000D01*
X236067621Y-38864000D02*
X236067621Y-41386000D01*
X236107621Y-38960000D02*
X236107621Y-41290000D01*
X236147621Y-39067000D02*
X236147621Y-41183000D01*
X236187621Y-39186000D02*
X236187621Y-41064000D01*
X236227621Y-39324000D02*
X236227621Y-40926000D01*
X236267621Y-39492000D02*
X236267621Y-40758000D01*
X236307621Y-39723000D02*
X236307621Y-40527000D01*
X236337621Y-40125000D02*
G75*
G02*
X229797621Y-40125000I-3270000J0D01*
G01*
X229797621Y-40125000D02*
G75*
G02*
X236337621Y-40125000I3270000J0D01*
G01*
%TO.C,U42*%
X80006250Y-54155000D02*
X83226250Y-54155000D01*
X80006250Y-54330000D02*
X80006250Y-54155000D01*
X80006250Y-57375000D02*
X80006250Y-57200000D01*
X83226250Y-54155000D02*
X83226250Y-54330000D01*
X83226250Y-57200000D02*
X83226250Y-57375000D01*
X83226250Y-57375000D02*
X80006250Y-57375000D01*
X79446250Y-54325000D02*
X79206250Y-53995000D01*
X79686250Y-53995000D01*
X79446250Y-54325000D01*
G36*
X79446250Y-54325000D02*
G01*
X79206250Y-53995000D01*
X79686250Y-53995000D01*
X79446250Y-54325000D01*
G37*
%TO.C,R124*%
X35423314Y-78715000D02*
X34969186Y-78715000D01*
X35423314Y-80185000D02*
X34969186Y-80185000D01*
%TO.C,R132*%
X46522936Y-37140000D02*
X46977064Y-37140000D01*
X46522936Y-38610000D02*
X46977064Y-38610000D01*
%TO.C,SWMSB2*%
X222617141Y-117315000D02*
X222617141Y-125055000D01*
X222617141Y-125055000D02*
X227917141Y-125055000D01*
X224267141Y-117315000D02*
X222617141Y-117315000D01*
X227917141Y-117315000D02*
X226267141Y-117315000D01*
X227917141Y-125055000D02*
X227917141Y-117315000D01*
X226267141Y-117315000D02*
G75*
G02*
X224267141Y-117315000I-1000000J0D01*
G01*
%TO.C,U32*%
X131529641Y-104840000D02*
X134749641Y-104840000D01*
X131529641Y-105015000D02*
X131529641Y-104840000D01*
X131529641Y-108060000D02*
X131529641Y-107885000D01*
X134749641Y-104840000D02*
X134749641Y-105015000D01*
X134749641Y-107885000D02*
X134749641Y-108060000D01*
X134749641Y-108060000D02*
X131529641Y-108060000D01*
X130969641Y-105010000D02*
X130729641Y-104680000D01*
X131209641Y-104680000D01*
X130969641Y-105010000D01*
G36*
X130969641Y-105010000D02*
G01*
X130729641Y-104680000D01*
X131209641Y-104680000D01*
X130969641Y-105010000D01*
G37*
%TO.C,U14*%
X139442500Y-155615000D02*
X142662500Y-155615000D01*
X139442500Y-155790000D02*
X139442500Y-155615000D01*
X139442500Y-158835000D02*
X139442500Y-158660000D01*
X142662500Y-155615000D02*
X142662500Y-155790000D01*
X142662500Y-158660000D02*
X142662500Y-158835000D01*
X142662500Y-158835000D02*
X139442500Y-158835000D01*
X143222500Y-158665000D02*
X143462500Y-158995000D01*
X142982500Y-158995000D01*
X143222500Y-158665000D01*
G36*
X143462500Y-158995000D02*
G01*
X142982500Y-158995000D01*
X143222500Y-158665000D01*
X143462500Y-158995000D01*
G37*
%TO.C,U54*%
X122081250Y-54090000D02*
X125301250Y-54090000D01*
X122081250Y-54265000D02*
X122081250Y-54090000D01*
X122081250Y-57310000D02*
X122081250Y-57135000D01*
X125301250Y-54090000D02*
X125301250Y-54265000D01*
X125301250Y-57135000D02*
X125301250Y-57310000D01*
X125301250Y-57310000D02*
X122081250Y-57310000D01*
X125861250Y-57140000D02*
X126101250Y-57470000D01*
X125621250Y-57470000D01*
X125861250Y-57140000D01*
G36*
X126101250Y-57470000D02*
G01*
X125621250Y-57470000D01*
X125861250Y-57140000D01*
X126101250Y-57470000D01*
G37*
%TO.C,J2*%
X32849641Y-130120000D02*
X33349641Y-130370000D01*
X33349641Y-129870000D02*
X32849641Y-130120000D01*
X33349641Y-130370000D02*
X33349641Y-129870000D01*
%TO.C,U50*%
X114006250Y-54105000D02*
X117226250Y-54105000D01*
X114006250Y-54280000D02*
X114006250Y-54105000D01*
X114006250Y-57325000D02*
X114006250Y-57150000D01*
X117226250Y-54105000D02*
X117226250Y-54280000D01*
X117226250Y-57150000D02*
X117226250Y-57325000D01*
X117226250Y-57325000D02*
X114006250Y-57325000D01*
X113446250Y-54275000D02*
X113206250Y-53945000D01*
X113686250Y-53945000D01*
X113446250Y-54275000D01*
G36*
X113446250Y-54275000D02*
G01*
X113206250Y-53945000D01*
X113686250Y-53945000D01*
X113446250Y-54275000D01*
G37*
%TO.C,R81*%
X35854205Y-129465000D02*
X35400077Y-129465000D01*
X35854205Y-130935000D02*
X35400077Y-130935000D01*
%TO.C,U13*%
X122285000Y-155615000D02*
X125505000Y-155615000D01*
X122285000Y-155790000D02*
X122285000Y-155615000D01*
X122285000Y-158835000D02*
X122285000Y-158660000D01*
X125505000Y-155615000D02*
X125505000Y-155790000D01*
X125505000Y-158660000D02*
X125505000Y-158835000D01*
X125505000Y-158835000D02*
X122285000Y-158835000D01*
X126065000Y-158665000D02*
X126305000Y-158995000D01*
X125825000Y-158995000D01*
X126065000Y-158665000D01*
G36*
X126305000Y-158995000D02*
G01*
X125825000Y-158995000D01*
X126065000Y-158665000D01*
X126305000Y-158995000D01*
G37*
%TO.C,J1*%
X32622500Y-180895000D02*
X33122500Y-181145000D01*
X33122500Y-180645000D02*
X32622500Y-180895000D01*
X33122500Y-181145000D02*
X33122500Y-180645000D01*
%TO.C,U16*%
X172935000Y-155615000D02*
X176155000Y-155615000D01*
X172935000Y-155790000D02*
X172935000Y-155615000D01*
X172935000Y-158835000D02*
X172935000Y-158660000D01*
X176155000Y-155615000D02*
X176155000Y-155790000D01*
X176155000Y-158660000D02*
X176155000Y-158835000D01*
X176155000Y-158835000D02*
X172935000Y-158835000D01*
X176715000Y-158665000D02*
X176955000Y-158995000D01*
X176475000Y-158995000D01*
X176715000Y-158665000D01*
G36*
X176955000Y-158995000D02*
G01*
X176475000Y-158995000D01*
X176715000Y-158665000D01*
X176955000Y-158995000D01*
G37*
%TO.C,U57*%
X172731250Y-54090000D02*
X175951250Y-54090000D01*
X172731250Y-54265000D02*
X172731250Y-54090000D01*
X172731250Y-57310000D02*
X172731250Y-57135000D01*
X175951250Y-54090000D02*
X175951250Y-54265000D01*
X175951250Y-57135000D02*
X175951250Y-57310000D01*
X175951250Y-57310000D02*
X172731250Y-57310000D01*
X176511250Y-57140000D02*
X176751250Y-57470000D01*
X176271250Y-57470000D01*
X176511250Y-57140000D01*
G36*
X176751250Y-57470000D02*
G01*
X176271250Y-57470000D01*
X176511250Y-57140000D01*
X176751250Y-57470000D01*
G37*
%TO.C,U45*%
X88006250Y-54105000D02*
X91226250Y-54105000D01*
X88006250Y-54280000D02*
X88006250Y-54105000D01*
X88006250Y-57325000D02*
X88006250Y-57150000D01*
X91226250Y-54105000D02*
X91226250Y-54280000D01*
X91226250Y-57150000D02*
X91226250Y-57325000D01*
X91226250Y-57325000D02*
X88006250Y-57325000D01*
X91786250Y-57155000D02*
X92026250Y-57485000D01*
X91546250Y-57485000D01*
X91786250Y-57155000D01*
G36*
X92026250Y-57485000D02*
G01*
X91546250Y-57485000D01*
X91786250Y-57155000D01*
X92026250Y-57485000D01*
G37*
%TO.C,U11*%
X148302500Y-155615000D02*
X151522500Y-155615000D01*
X148302500Y-155790000D02*
X148302500Y-155615000D01*
X148302500Y-158835000D02*
X148302500Y-158660000D01*
X151522500Y-155615000D02*
X151522500Y-155790000D01*
X151522500Y-158660000D02*
X151522500Y-158835000D01*
X151522500Y-158835000D02*
X148302500Y-158835000D01*
X147742500Y-155785000D02*
X147502500Y-155455000D01*
X147982500Y-155455000D01*
X147742500Y-155785000D01*
G36*
X147742500Y-155785000D02*
G01*
X147502500Y-155455000D01*
X147982500Y-155455000D01*
X147742500Y-155785000D01*
G37*
%TO.C,U41*%
X63006250Y-54155000D02*
X66226250Y-54155000D01*
X63006250Y-54330000D02*
X63006250Y-54155000D01*
X63006250Y-57375000D02*
X63006250Y-57200000D01*
X66226250Y-54155000D02*
X66226250Y-54330000D01*
X66226250Y-57200000D02*
X66226250Y-57375000D01*
X66226250Y-57375000D02*
X63006250Y-57375000D01*
X62446250Y-54325000D02*
X62206250Y-53995000D01*
X62686250Y-53995000D01*
X62446250Y-54325000D01*
G36*
X62446250Y-54325000D02*
G01*
X62206250Y-53995000D01*
X62686250Y-53995000D01*
X62446250Y-54325000D01*
G37*
%TO.C,J6*%
X239370000Y-41255000D02*
X239370000Y-39875000D01*
X240750000Y-41255000D02*
X239370000Y-41255000D01*
X242020000Y-38495000D02*
X244670000Y-38495000D01*
X242020000Y-41255000D02*
X242020000Y-38495000D01*
X242020000Y-41255000D02*
X244670000Y-41255000D01*
X244670000Y-41255000D02*
X244670000Y-38495000D01*
%TO.C,R82*%
X35492141Y-134627064D02*
X35492141Y-134172936D01*
X36962141Y-134627064D02*
X36962141Y-134172936D01*
%TO.C,FB4*%
X202489758Y-36565000D02*
X203310242Y-36565000D01*
X202489758Y-37685000D02*
X203310242Y-37685000D01*
%TO.C,SWLSB2*%
X222427141Y-107105000D02*
X222427141Y-114845000D01*
X222427141Y-114845000D02*
X227727141Y-114845000D01*
X224077141Y-107105000D02*
X222427141Y-107105000D01*
X227727141Y-107105000D02*
X226077141Y-107105000D01*
X227727141Y-114845000D02*
X227727141Y-107105000D01*
X226077141Y-107105000D02*
G75*
G02*
X224077141Y-107105000I-1000000J0D01*
G01*
%TO.C,U24*%
X97437141Y-104855000D02*
X100657141Y-104855000D01*
X97437141Y-105030000D02*
X97437141Y-104855000D01*
X97437141Y-108075000D02*
X97437141Y-107900000D01*
X100657141Y-104855000D02*
X100657141Y-105030000D01*
X100657141Y-107900000D02*
X100657141Y-108075000D01*
X100657141Y-108075000D02*
X97437141Y-108075000D01*
X96877141Y-105025000D02*
X96637141Y-104695000D01*
X97117141Y-104695000D01*
X96877141Y-105025000D01*
G36*
X96877141Y-105025000D02*
G01*
X96637141Y-104695000D01*
X97117141Y-104695000D01*
X96877141Y-105025000D01*
G37*
%TO.C,R41*%
X35265000Y-185402064D02*
X35265000Y-184947936D01*
X36735000Y-185402064D02*
X36735000Y-184947936D01*
%TO.C,U23*%
X80437141Y-104905000D02*
X83657141Y-104905000D01*
X80437141Y-105080000D02*
X80437141Y-104905000D01*
X80437141Y-108125000D02*
X80437141Y-107950000D01*
X83657141Y-104905000D02*
X83657141Y-105080000D01*
X83657141Y-107950000D02*
X83657141Y-108125000D01*
X83657141Y-108125000D02*
X80437141Y-108125000D01*
X79877141Y-105075000D02*
X79637141Y-104745000D01*
X80117141Y-104745000D01*
X79877141Y-105075000D01*
G36*
X79877141Y-105075000D02*
G01*
X79637141Y-104745000D01*
X80117141Y-104745000D01*
X79877141Y-105075000D01*
G37*
%TO.C,U40*%
X46006250Y-54155000D02*
X49226250Y-54155000D01*
X46006250Y-54330000D02*
X46006250Y-54155000D01*
X46006250Y-57375000D02*
X46006250Y-57200000D01*
X49226250Y-54155000D02*
X49226250Y-54330000D01*
X49226250Y-57200000D02*
X49226250Y-57375000D01*
X49226250Y-57375000D02*
X46006250Y-57375000D01*
X45446250Y-54325000D02*
X45206250Y-53995000D01*
X45686250Y-53995000D01*
X45446250Y-54325000D01*
G36*
X45446250Y-54325000D02*
G01*
X45206250Y-53995000D01*
X45686250Y-53995000D01*
X45446250Y-54325000D01*
G37*
%TO.C,U2*%
X63210000Y-155680000D02*
X66430000Y-155680000D01*
X63210000Y-155855000D02*
X63210000Y-155680000D01*
X63210000Y-158900000D02*
X63210000Y-158725000D01*
X66430000Y-155680000D02*
X66430000Y-155855000D01*
X66430000Y-158725000D02*
X66430000Y-158900000D01*
X66430000Y-158900000D02*
X63210000Y-158900000D01*
X62650000Y-155850000D02*
X62410000Y-155520000D01*
X62890000Y-155520000D01*
X62650000Y-155850000D01*
G36*
X62650000Y-155850000D02*
G01*
X62410000Y-155520000D01*
X62890000Y-155520000D01*
X62650000Y-155850000D01*
G37*
%TO.C,R133*%
X47272936Y-48390000D02*
X47727064Y-48390000D01*
X47272936Y-49860000D02*
X47727064Y-49860000D01*
%TO.C,U4*%
X97210000Y-155630000D02*
X100430000Y-155630000D01*
X97210000Y-155805000D02*
X97210000Y-155630000D01*
X97210000Y-158850000D02*
X97210000Y-158675000D01*
X100430000Y-155630000D02*
X100430000Y-155805000D01*
X100430000Y-158675000D02*
X100430000Y-158850000D01*
X100430000Y-158850000D02*
X97210000Y-158850000D01*
X96650000Y-155800000D02*
X96410000Y-155470000D01*
X96890000Y-155470000D01*
X96650000Y-155800000D01*
G36*
X96650000Y-155800000D02*
G01*
X96410000Y-155470000D01*
X96890000Y-155470000D01*
X96650000Y-155800000D01*
G37*
%TO.C,R125*%
X35061250Y-83877064D02*
X35061250Y-83422936D01*
X36531250Y-83877064D02*
X36531250Y-83422936D01*
%TO.C,U1*%
X46210000Y-155680000D02*
X49430000Y-155680000D01*
X46210000Y-155855000D02*
X46210000Y-155680000D01*
X46210000Y-158900000D02*
X46210000Y-158725000D01*
X49430000Y-155680000D02*
X49430000Y-155855000D01*
X49430000Y-158725000D02*
X49430000Y-158900000D01*
X49430000Y-158900000D02*
X46210000Y-158900000D01*
X45650000Y-155850000D02*
X45410000Y-155520000D01*
X45890000Y-155520000D01*
X45650000Y-155850000D01*
G36*
X45650000Y-155850000D02*
G01*
X45410000Y-155520000D01*
X45890000Y-155520000D01*
X45650000Y-155850000D01*
G37*
%TO.C,U38*%
X173162141Y-104840000D02*
X176382141Y-104840000D01*
X173162141Y-105015000D02*
X173162141Y-104840000D01*
X173162141Y-108060000D02*
X173162141Y-107885000D01*
X176382141Y-104840000D02*
X176382141Y-105015000D01*
X176382141Y-107885000D02*
X176382141Y-108060000D01*
X176382141Y-108060000D02*
X173162141Y-108060000D01*
X176942141Y-107890000D02*
X177182141Y-108220000D01*
X176702141Y-108220000D01*
X176942141Y-107890000D01*
G36*
X177182141Y-108220000D02*
G01*
X176702141Y-108220000D01*
X176942141Y-107890000D01*
X177182141Y-108220000D01*
G37*
%TO.C,U21*%
X46437141Y-104905000D02*
X49657141Y-104905000D01*
X46437141Y-105080000D02*
X46437141Y-104905000D01*
X46437141Y-108125000D02*
X46437141Y-107950000D01*
X49657141Y-104905000D02*
X49657141Y-105080000D01*
X49657141Y-107950000D02*
X49657141Y-108125000D01*
X49657141Y-108125000D02*
X46437141Y-108125000D01*
X45877141Y-105075000D02*
X45637141Y-104745000D01*
X46117141Y-104745000D01*
X45877141Y-105075000D01*
G36*
X45877141Y-105075000D02*
G01*
X45637141Y-104745000D01*
X46117141Y-104745000D01*
X45877141Y-105075000D01*
G37*
%TO.C,U3*%
X80210000Y-155680000D02*
X83430000Y-155680000D01*
X80210000Y-155855000D02*
X80210000Y-155680000D01*
X80210000Y-158900000D02*
X80210000Y-158725000D01*
X83430000Y-155680000D02*
X83430000Y-155855000D01*
X83430000Y-158725000D02*
X83430000Y-158900000D01*
X83430000Y-158900000D02*
X80210000Y-158900000D01*
X79650000Y-155850000D02*
X79410000Y-155520000D01*
X79890000Y-155520000D01*
X79650000Y-155850000D01*
G36*
X79650000Y-155850000D02*
G01*
X79410000Y-155520000D01*
X79890000Y-155520000D01*
X79650000Y-155850000D01*
G37*
%TO.C,R76*%
X35792141Y-125572936D02*
X35792141Y-126027064D01*
X37262141Y-125572936D02*
X37262141Y-126027064D01*
%TO.C,U8*%
X105210000Y-155630000D02*
X108430000Y-155630000D01*
X105210000Y-155805000D02*
X105210000Y-155630000D01*
X105210000Y-158850000D02*
X105210000Y-158675000D01*
X108430000Y-155630000D02*
X108430000Y-155805000D01*
X108430000Y-158675000D02*
X108430000Y-158850000D01*
X108430000Y-158850000D02*
X105210000Y-158850000D01*
X108990000Y-158680000D02*
X109230000Y-159010000D01*
X108750000Y-159010000D01*
X108990000Y-158680000D01*
G36*
X109230000Y-159010000D02*
G01*
X108750000Y-159010000D01*
X108990000Y-158680000D01*
X109230000Y-159010000D01*
G37*
%TO.C,U31*%
X114437141Y-104855000D02*
X117657141Y-104855000D01*
X114437141Y-105030000D02*
X114437141Y-104855000D01*
X114437141Y-108075000D02*
X114437141Y-107900000D01*
X117657141Y-104855000D02*
X117657141Y-105030000D01*
X117657141Y-107900000D02*
X117657141Y-108075000D01*
X117657141Y-108075000D02*
X114437141Y-108075000D01*
X113877141Y-105025000D02*
X113637141Y-104695000D01*
X114117141Y-104695000D01*
X113877141Y-105025000D01*
G36*
X113877141Y-105025000D02*
G01*
X113637141Y-104695000D01*
X114117141Y-104695000D01*
X113877141Y-105025000D01*
G37*
%TO.C,U12*%
X164942500Y-155615000D02*
X168162500Y-155615000D01*
X164942500Y-155790000D02*
X164942500Y-155615000D01*
X164942500Y-158835000D02*
X164942500Y-158660000D01*
X168162500Y-155615000D02*
X168162500Y-155790000D01*
X168162500Y-158660000D02*
X168162500Y-158835000D01*
X168162500Y-158835000D02*
X164942500Y-158835000D01*
X164382500Y-155785000D02*
X164142500Y-155455000D01*
X164622500Y-155455000D01*
X164382500Y-155785000D01*
G36*
X164382500Y-155785000D02*
G01*
X164142500Y-155455000D01*
X164622500Y-155455000D01*
X164382500Y-155785000D01*
G37*
%TO.C,U7*%
X88210000Y-155630000D02*
X91430000Y-155630000D01*
X88210000Y-155805000D02*
X88210000Y-155630000D01*
X88210000Y-158850000D02*
X88210000Y-158675000D01*
X91430000Y-155630000D02*
X91430000Y-155805000D01*
X91430000Y-158675000D02*
X91430000Y-158850000D01*
X91430000Y-158850000D02*
X88210000Y-158850000D01*
X91990000Y-158680000D02*
X92230000Y-159010000D01*
X91750000Y-159010000D01*
X91990000Y-158680000D01*
G36*
X92230000Y-159010000D02*
G01*
X91750000Y-159010000D01*
X91990000Y-158680000D01*
X92230000Y-159010000D01*
G37*
%TO.C,U58*%
X208850000Y-36515000D02*
X219070000Y-36515000D01*
X208850000Y-41135000D02*
X208850000Y-36515000D01*
X212110000Y-41135000D02*
X212110000Y-39755000D01*
X215810000Y-41135000D02*
X215810000Y-39755000D01*
X219070000Y-36515000D02*
X219070000Y-41135000D01*
X219070000Y-39755000D02*
X208850000Y-39755000D01*
X219070000Y-41135000D02*
X208850000Y-41135000D01*
%TO.C,J4*%
X248750000Y-36955000D02*
X248750000Y-42255000D01*
X259020000Y-36955000D02*
X248750000Y-36955000D01*
X259020000Y-36955000D02*
X259020000Y-39605000D01*
X259020000Y-39605000D02*
X261670000Y-39605000D01*
X260290000Y-36955000D02*
X261670000Y-36955000D01*
X261670000Y-36955000D02*
X261670000Y-38335000D01*
X261670000Y-39605000D02*
X261670000Y-42255000D01*
X261670000Y-42255000D02*
X248750000Y-42255000D01*
%TO.C,U34*%
X165169641Y-104840000D02*
X168389641Y-104840000D01*
X165169641Y-105015000D02*
X165169641Y-104840000D01*
X165169641Y-108060000D02*
X165169641Y-107885000D01*
X168389641Y-104840000D02*
X168389641Y-105015000D01*
X168389641Y-107885000D02*
X168389641Y-108060000D01*
X168389641Y-108060000D02*
X165169641Y-108060000D01*
X164609641Y-105010000D02*
X164369641Y-104680000D01*
X164849641Y-104680000D01*
X164609641Y-105010000D01*
G36*
X164609641Y-105010000D02*
G01*
X164369641Y-104680000D01*
X164849641Y-104680000D01*
X164609641Y-105010000D01*
G37*
%TO.C,SWLSB1*%
X222200000Y-157880000D02*
X222200000Y-165620000D01*
X222200000Y-165620000D02*
X227500000Y-165620000D01*
X223850000Y-157880000D02*
X222200000Y-157880000D01*
X227500000Y-157880000D02*
X225850000Y-157880000D01*
X227500000Y-165620000D02*
X227500000Y-157880000D01*
X225850000Y-157880000D02*
G75*
G02*
X223850000Y-157880000I-1000000J0D01*
G01*
%TO.C,U53*%
X164738750Y-54090000D02*
X167958750Y-54090000D01*
X164738750Y-54265000D02*
X164738750Y-54090000D01*
X164738750Y-57310000D02*
X164738750Y-57135000D01*
X167958750Y-54090000D02*
X167958750Y-54265000D01*
X167958750Y-57135000D02*
X167958750Y-57310000D01*
X167958750Y-57310000D02*
X164738750Y-57310000D01*
X164178750Y-54260000D02*
X163938750Y-53930000D01*
X164418750Y-53930000D01*
X164178750Y-54260000D01*
G36*
X164178750Y-54260000D02*
G01*
X163938750Y-53930000D01*
X164418750Y-53930000D01*
X164178750Y-54260000D01*
G37*
%TO.C,U6*%
X71302500Y-155615000D02*
X74522500Y-155615000D01*
X71302500Y-155790000D02*
X71302500Y-155615000D01*
X71302500Y-158835000D02*
X71302500Y-158660000D01*
X74522500Y-155615000D02*
X74522500Y-155790000D01*
X74522500Y-158660000D02*
X74522500Y-158835000D01*
X74522500Y-158835000D02*
X71302500Y-158835000D01*
X75082500Y-158665000D02*
X75322500Y-158995000D01*
X74842500Y-158995000D01*
X75082500Y-158665000D01*
G36*
X75322500Y-158995000D02*
G01*
X74842500Y-158995000D01*
X75082500Y-158665000D01*
X75322500Y-158995000D01*
G37*
%TO.C,U47*%
X54006250Y-54155000D02*
X57226250Y-54155000D01*
X54006250Y-54330000D02*
X54006250Y-54155000D01*
X54006250Y-57375000D02*
X54006250Y-57200000D01*
X57226250Y-54155000D02*
X57226250Y-54330000D01*
X57226250Y-57200000D02*
X57226250Y-57375000D01*
X57226250Y-57375000D02*
X54006250Y-57375000D01*
X57786250Y-57205000D02*
X58026250Y-57535000D01*
X57546250Y-57535000D01*
X57786250Y-57205000D01*
G36*
X58026250Y-57535000D02*
G01*
X57546250Y-57535000D01*
X57786250Y-57205000D01*
X58026250Y-57535000D01*
G37*
%TO.C,U33*%
X148529641Y-104840000D02*
X151749641Y-104840000D01*
X148529641Y-105015000D02*
X148529641Y-104840000D01*
X148529641Y-108060000D02*
X148529641Y-107885000D01*
X151749641Y-104840000D02*
X151749641Y-105015000D01*
X151749641Y-107885000D02*
X151749641Y-108060000D01*
X151749641Y-108060000D02*
X148529641Y-108060000D01*
X147969641Y-105010000D02*
X147729641Y-104680000D01*
X148209641Y-104680000D01*
X147969641Y-105010000D01*
G36*
X147969641Y-105010000D02*
G01*
X147729641Y-104680000D01*
X148209641Y-104680000D01*
X147969641Y-105010000D01*
G37*
%TO.C,R119*%
X35361250Y-74822936D02*
X35361250Y-75277064D01*
X36831250Y-74822936D02*
X36831250Y-75277064D01*
%TO.C,J3*%
X32418750Y-79370000D02*
X32918750Y-79620000D01*
X32918750Y-79120000D02*
X32418750Y-79370000D01*
X32918750Y-79620000D02*
X32918750Y-79120000D01*
%TO.C,U5*%
X54210000Y-155680000D02*
X57430000Y-155680000D01*
X54210000Y-155855000D02*
X54210000Y-155680000D01*
X54210000Y-158900000D02*
X54210000Y-158725000D01*
X57430000Y-155680000D02*
X57430000Y-155855000D01*
X57430000Y-158725000D02*
X57430000Y-158900000D01*
X57430000Y-158900000D02*
X54210000Y-158900000D01*
X57990000Y-158730000D02*
X58230000Y-159060000D01*
X57750000Y-159060000D01*
X57990000Y-158730000D01*
G36*
X58230000Y-159060000D02*
G01*
X57750000Y-159060000D01*
X57990000Y-158730000D01*
X58230000Y-159060000D01*
G37*
%TO.C,U10*%
X131302500Y-155615000D02*
X134522500Y-155615000D01*
X131302500Y-155790000D02*
X131302500Y-155615000D01*
X131302500Y-158835000D02*
X131302500Y-158660000D01*
X134522500Y-155615000D02*
X134522500Y-155790000D01*
X134522500Y-158660000D02*
X134522500Y-158835000D01*
X134522500Y-158835000D02*
X131302500Y-158835000D01*
X130742500Y-155785000D02*
X130502500Y-155455000D01*
X130982500Y-155455000D01*
X130742500Y-155785000D01*
G36*
X130742500Y-155785000D02*
G01*
X130502500Y-155455000D01*
X130982500Y-155455000D01*
X130742500Y-155785000D01*
G37*
%TO.C,U27*%
X105437141Y-104855000D02*
X108657141Y-104855000D01*
X105437141Y-105030000D02*
X105437141Y-104855000D01*
X105437141Y-108075000D02*
X105437141Y-107900000D01*
X108657141Y-104855000D02*
X108657141Y-105030000D01*
X108657141Y-107900000D02*
X108657141Y-108075000D01*
X108657141Y-108075000D02*
X105437141Y-108075000D01*
X109217141Y-107905000D02*
X109457141Y-108235000D01*
X108977141Y-108235000D01*
X109217141Y-107905000D01*
G36*
X109457141Y-108235000D02*
G01*
X108977141Y-108235000D01*
X109217141Y-107905000D01*
X109457141Y-108235000D01*
G37*
%TO.C,R43*%
X35627064Y-180240000D02*
X35172936Y-180240000D01*
X35627064Y-181710000D02*
X35172936Y-181710000D01*
%TO.C,U26*%
X88437141Y-104855000D02*
X91657141Y-104855000D01*
X88437141Y-105030000D02*
X88437141Y-104855000D01*
X88437141Y-108075000D02*
X88437141Y-107900000D01*
X91657141Y-104855000D02*
X91657141Y-105030000D01*
X91657141Y-107900000D02*
X91657141Y-108075000D01*
X91657141Y-108075000D02*
X88437141Y-108075000D01*
X92217141Y-107905000D02*
X92457141Y-108235000D01*
X91977141Y-108235000D01*
X92217141Y-107905000D01*
G36*
X92457141Y-108235000D02*
G01*
X91977141Y-108235000D01*
X92217141Y-107905000D01*
X92457141Y-108235000D01*
G37*
%TO.C,U22*%
X63437141Y-104905000D02*
X66657141Y-104905000D01*
X63437141Y-105080000D02*
X63437141Y-104905000D01*
X63437141Y-108125000D02*
X63437141Y-107950000D01*
X66657141Y-104905000D02*
X66657141Y-105080000D01*
X66657141Y-107950000D02*
X66657141Y-108125000D01*
X66657141Y-108125000D02*
X63437141Y-108125000D01*
X62877141Y-105075000D02*
X62637141Y-104745000D01*
X63117141Y-104745000D01*
X62877141Y-105075000D01*
G36*
X62877141Y-105075000D02*
G01*
X62637141Y-104745000D01*
X63117141Y-104745000D01*
X62877141Y-105075000D01*
G37*
%TO.C,U9*%
X114210000Y-155630000D02*
X117430000Y-155630000D01*
X114210000Y-155805000D02*
X114210000Y-155630000D01*
X114210000Y-158850000D02*
X114210000Y-158675000D01*
X117430000Y-155630000D02*
X117430000Y-155805000D01*
X117430000Y-158675000D02*
X117430000Y-158850000D01*
X117430000Y-158850000D02*
X114210000Y-158850000D01*
X113650000Y-155800000D02*
X113410000Y-155470000D01*
X113890000Y-155470000D01*
X113650000Y-155800000D01*
G36*
X113650000Y-155800000D02*
G01*
X113410000Y-155470000D01*
X113890000Y-155470000D01*
X113650000Y-155800000D01*
G37*
%TO.C,SWMSB3*%
X222186250Y-66565000D02*
X222186250Y-74305000D01*
X222186250Y-74305000D02*
X227486250Y-74305000D01*
X223836250Y-66565000D02*
X222186250Y-66565000D01*
X227486250Y-66565000D02*
X225836250Y-66565000D01*
X227486250Y-74305000D02*
X227486250Y-66565000D01*
X225836250Y-66565000D02*
G75*
G02*
X223836250Y-66565000I-1000000J0D01*
G01*
%TO.C,U51*%
X131098750Y-54090000D02*
X134318750Y-54090000D01*
X131098750Y-54265000D02*
X131098750Y-54090000D01*
X131098750Y-57310000D02*
X131098750Y-57135000D01*
X134318750Y-54090000D02*
X134318750Y-54265000D01*
X134318750Y-57135000D02*
X134318750Y-57310000D01*
X134318750Y-57310000D02*
X131098750Y-57310000D01*
X130538750Y-54260000D02*
X130298750Y-53930000D01*
X130778750Y-53930000D01*
X130538750Y-54260000D01*
G36*
X130538750Y-54260000D02*
G01*
X130298750Y-53930000D01*
X130778750Y-53930000D01*
X130538750Y-54260000D01*
G37*
%TO.C,U43*%
X97006250Y-54105000D02*
X100226250Y-54105000D01*
X97006250Y-54280000D02*
X97006250Y-54105000D01*
X97006250Y-57325000D02*
X97006250Y-57150000D01*
X100226250Y-54105000D02*
X100226250Y-54280000D01*
X100226250Y-57150000D02*
X100226250Y-57325000D01*
X100226250Y-57325000D02*
X97006250Y-57325000D01*
X96446250Y-54275000D02*
X96206250Y-53945000D01*
X96686250Y-53945000D01*
X96446250Y-54275000D01*
G36*
X96446250Y-54275000D02*
G01*
X96206250Y-53945000D01*
X96686250Y-53945000D01*
X96446250Y-54275000D01*
G37*
%TO.C,R134*%
X37172936Y-43290000D02*
X37627064Y-43290000D01*
X37172936Y-44760000D02*
X37627064Y-44760000D01*
%TO.C,R131*%
X50972936Y-43390000D02*
X51427064Y-43390000D01*
X50972936Y-44860000D02*
X51427064Y-44860000D01*
%TO.C,U46*%
X105006250Y-54105000D02*
X108226250Y-54105000D01*
X105006250Y-54280000D02*
X105006250Y-54105000D01*
X105006250Y-57325000D02*
X105006250Y-57150000D01*
X108226250Y-54105000D02*
X108226250Y-54280000D01*
X108226250Y-57150000D02*
X108226250Y-57325000D01*
X108226250Y-57325000D02*
X105006250Y-57325000D01*
X108786250Y-57155000D02*
X109026250Y-57485000D01*
X108546250Y-57485000D01*
X108786250Y-57155000D01*
G36*
X109026250Y-57485000D02*
G01*
X108546250Y-57485000D01*
X108786250Y-57155000D01*
X109026250Y-57485000D01*
G37*
%TO.C,U55*%
X139238750Y-54090000D02*
X142458750Y-54090000D01*
X139238750Y-54265000D02*
X139238750Y-54090000D01*
X139238750Y-57310000D02*
X139238750Y-57135000D01*
X142458750Y-54090000D02*
X142458750Y-54265000D01*
X142458750Y-57135000D02*
X142458750Y-57310000D01*
X142458750Y-57310000D02*
X139238750Y-57310000D01*
X143018750Y-57140000D02*
X143258750Y-57470000D01*
X142778750Y-57470000D01*
X143018750Y-57140000D01*
G36*
X143258750Y-57470000D02*
G01*
X142778750Y-57470000D01*
X143018750Y-57140000D01*
X143258750Y-57470000D01*
G37*
%TO.C,U48*%
X71098750Y-54090000D02*
X74318750Y-54090000D01*
X71098750Y-54265000D02*
X71098750Y-54090000D01*
X71098750Y-57310000D02*
X71098750Y-57135000D01*
X74318750Y-54090000D02*
X74318750Y-54265000D01*
X74318750Y-57135000D02*
X74318750Y-57310000D01*
X74318750Y-57310000D02*
X71098750Y-57310000D01*
X74878750Y-57140000D02*
X75118750Y-57470000D01*
X74638750Y-57470000D01*
X74878750Y-57140000D01*
G36*
X75118750Y-57470000D02*
G01*
X74638750Y-57470000D01*
X74878750Y-57140000D01*
X75118750Y-57470000D01*
G37*
%TO.C,U35*%
X122512141Y-104840000D02*
X125732141Y-104840000D01*
X122512141Y-105015000D02*
X122512141Y-104840000D01*
X122512141Y-108060000D02*
X122512141Y-107885000D01*
X125732141Y-104840000D02*
X125732141Y-105015000D01*
X125732141Y-107885000D02*
X125732141Y-108060000D01*
X125732141Y-108060000D02*
X122512141Y-108060000D01*
X126292141Y-107890000D02*
X126532141Y-108220000D01*
X126052141Y-108220000D01*
X126292141Y-107890000D01*
G36*
X126532141Y-108220000D02*
G01*
X126052141Y-108220000D01*
X126292141Y-107890000D01*
X126532141Y-108220000D01*
G37*
%TO.C,U56*%
X156098750Y-54155000D02*
X159318750Y-54155000D01*
X156098750Y-54330000D02*
X156098750Y-54155000D01*
X156098750Y-57375000D02*
X156098750Y-57200000D01*
X159318750Y-54155000D02*
X159318750Y-54330000D01*
X159318750Y-57200000D02*
X159318750Y-57375000D01*
X159318750Y-57375000D02*
X156098750Y-57375000D01*
X159878750Y-57205000D02*
X160118750Y-57535000D01*
X159638750Y-57535000D01*
X159878750Y-57205000D01*
G36*
X160118750Y-57535000D02*
G01*
X159638750Y-57535000D01*
X159878750Y-57205000D01*
X160118750Y-57535000D01*
G37*
%TO.C,R42*%
X35565000Y-176347936D02*
X35565000Y-176802064D01*
X37035000Y-176347936D02*
X37035000Y-176802064D01*
%TD*%
M02*
