M48
; DRILL file KiCad 10.0.5 date 2026-09-21T15:51:02
; FORMAT={3:3/ absolute / metric / suppress leading zeros}
; #@! TF.CreationDate,2026-09-21T15:51:02+02:00
; #@! TF.GenerationSoftware,Kicad,Pcbnew,10.0.5
; #@! TF.FileFunction,MixedPlating,1,4
FMAT,2
METRIC,TZ
; #@! TA.AperFunction,Plated,PTH,ViaDrill
T1C0.300
; #@! TA.AperFunction,Plated,PTH,ComponentDrill
T2C0.600
; #@! TA.AperFunction,Plated,PTH,ComponentDrill
T3C0.800
; #@! TA.AperFunction,Plated,PTH,ComponentDrill
T4C1.000
; #@! TA.AperFunction,Plated,PTH,ComponentDrill
T5C1.100
; #@! TA.AperFunction,Plated,PTH,ComponentDrill
T6C4.300
; #@! TA.AperFunction,NonPlated,NPTH,ComponentDrill
T7C3.500
%
G90
G05
T1
X27846Y-86225
X28050Y-187750
X28096Y-71975
X28250Y-36375
X28250Y-51375
X28277Y-136975
X28300Y-173500
X28527Y-122725
X30596Y-86225
X30800Y-187750
X31027Y-136975
X31096Y-71975
X31300Y-173500
X31527Y-122725
X31750Y-36375
X31750Y-51375
X32846Y-84975
X33050Y-186500
X33096Y-82225
X33277Y-135725
X33300Y-183750
X33527Y-132975
X33596Y-73475
X33596Y-76475
X33800Y-175000
X33800Y-178000
X34000Y-42625
X34000Y-45125
X34027Y-124225
X34027Y-127225
X34250Y-38625
X34250Y-49625
X37150Y-55200
X37400Y-59125
X37400Y-64125
X37450Y-156775
X37500Y-69325
X37700Y-77025
X38200Y-158725
X38200Y-170625
X38250Y-107625
X38300Y-165225
X38300Y-175525
X38400Y-179125
X38500Y-45425
X38600Y-42525
X38600Y-109925
X38600Y-114925
X38600Y-119725
X38600Y-125225
X40700Y-54450
X40750Y-41125
X40750Y-46375
X40900Y-105525
X40933Y-64190
X40933Y-68940
X40933Y-73940
X40933Y-78940
X40933Y-83925
X41000Y-156025
X41232Y-165765
X41232Y-170515
X41232Y-175515
X41232Y-180515
X41232Y-185500
X41582Y-114815
X41582Y-119565
X41582Y-124565
X41582Y-129565
X41582Y-134550
X41750Y-39125
X42000Y-50375
X42300Y-107525
X42433Y-59190
X42732Y-160765
X43082Y-109815
X43750Y-36625
X43750Y-40125
X43750Y-42375
X43750Y-45125
X43750Y-47875
X45100Y-58525
X46300Y-159925
X46650Y-108975
X47100Y-156125
X47450Y-104240
X47750Y-42625
X47750Y-45125
X48100Y-58425
X48450Y-84175
X48600Y-53825
X48750Y-185750
X49100Y-134800
X50000Y-36125
X51183Y-61440
X51183Y-66690
X51183Y-71690
X51183Y-76440
X51183Y-81440
X51200Y-85425
X51200Y-87675
X51250Y-48125
X51250Y-50375
X51482Y-163015
X51482Y-168265
X51482Y-173265
X51482Y-178015
X51482Y-183015
X51500Y-187000
X51500Y-189250
X51700Y-56025
X51832Y-112065
X51832Y-117315
X51832Y-122315
X51832Y-127065
X51832Y-132065
X51850Y-136050
X51850Y-138300
X52000Y-157625
X52400Y-106625
X52750Y-39625
X54750Y-45125
X54750Y-48125
X54800Y-53825
X55000Y-58225
X55100Y-82925
X55432Y-63690
X55550Y-155475
X55732Y-165265
X55750Y-36125
X55800Y-104240
X56000Y-42625
X56082Y-114315
X56150Y-159125
X56500Y-87675
X56500Y-108175
X57750Y-50375
X58250Y-39625
X58432Y-60940
X58732Y-162515
X59082Y-111565
X59250Y-48125
X59750Y-45125
X60750Y-36125
X60932Y-67440
X61232Y-169015
X61582Y-118065
X61950Y-77925
X62100Y-80325
X62250Y-179500
X62600Y-128550
X62750Y-50375
X63000Y-42875
X63220Y-158775
X63432Y-60940
X63570Y-107825
X63600Y-57325
X63650Y-130975
X63732Y-162515
X63750Y-39625
X63900Y-156275
X64000Y-45875
X64082Y-111565
X64250Y-105325
X64900Y-54325
X65932Y-68190
X66233Y-169765
X66582Y-118815
X66750Y-51875
X67250Y-36125
X67250Y-42625
X67250Y-184625
X67500Y-48875
X68500Y-83050
X68500Y-136050
X68600Y-56025
X68600Y-85525
X68682Y-60940
X68700Y-157625
X68983Y-162515
X69200Y-106625
X69332Y-111565
X70182Y-68190
X70483Y-169765
X70832Y-118815
X71250Y-39375
X71500Y-45875
X72000Y-51875
X72000Y-54025
X72200Y-155725
X72550Y-104775
X72750Y-159275
X73100Y-108325
X73182Y-65440
X73450Y-77925
X73450Y-80175
X73483Y-167015
X73700Y-75425
X73750Y-179500
X73750Y-181750
X73750Y-184500
X73750Y-187000
X73750Y-189750
X73832Y-116065
X73900Y-57425
X74000Y-177000
X74100Y-128550
X74100Y-130800
X74350Y-126050
X74800Y-136125
X74800Y-138225
X75000Y-87925
X75100Y-85325
X75100Y-133325
X75250Y-36375
X75250Y-42625
X75250Y-48875
X75432Y-62940
X75432Y-72190
X75733Y-164515
X75733Y-173765
X76082Y-113565
X76082Y-122815
X77932Y-65440
X78233Y-167015
X78250Y-51875
X78582Y-116065
X79250Y-45875
X79750Y-39375
X80432Y-62940
X80500Y-184375
X80682Y-72190
X80733Y-164515
X80983Y-173765
X81082Y-113565
X81332Y-122815
X81500Y-133475
X81750Y-159375
X81800Y-83050
X81800Y-85425
X81850Y-135725
X81850Y-155775
X81950Y-108925
X82000Y-58025
X82100Y-53725
X82200Y-104825
X82683Y-59190
X82933Y-65440
X82983Y-160765
X83000Y-36375
X83000Y-42625
X83000Y-48875
X83233Y-167015
X83333Y-109815
X83583Y-116065
X84183Y-60440
X84483Y-162015
X84833Y-111065
X85433Y-62940
X85600Y-157625
X85683Y-58440
X85683Y-72190
X85700Y-56025
X85733Y-164515
X85983Y-160015
X85983Y-173765
X86083Y-113565
X86300Y-106625
X86333Y-109065
X86333Y-122815
X86500Y-39375
X86683Y-60440
X86750Y-45875
X86950Y-75425
X86950Y-77925
X86950Y-80175
X86983Y-162015
X87000Y-51875
X87250Y-177000
X87250Y-179500
X87250Y-181750
X87250Y-184500
X87250Y-187000
X87250Y-189750
X87333Y-111065
X87600Y-126050
X87600Y-128550
X87600Y-130800
X87933Y-65440
X88233Y-167015
X88300Y-85325
X88300Y-87725
X88400Y-138425
X88433Y-59190
X88500Y-133275
X88500Y-136050
X88583Y-116065
X88733Y-160765
X88900Y-155675
X89083Y-109815
X89100Y-57725
X89200Y-53725
X89250Y-104725
X89850Y-159225
X90000Y-36375
X90000Y-42625
X90300Y-108775
X90500Y-48875
X90683Y-62940
X90683Y-72190
X90983Y-164515
X90983Y-173765
X91333Y-113565
X91333Y-122815
X92000Y-51875
X92933Y-65440
X93233Y-167015
X93500Y-39375
X93583Y-116065
X93750Y-45875
X94700Y-83050
X95000Y-184625
X95350Y-133675
X96300Y-135975
X96400Y-85425
X96500Y-48875
X97000Y-42625
X97750Y-36375
X98300Y-57725
X98433Y-59940
X98433Y-62940
X98433Y-67690
X98733Y-161515
X98733Y-164515
X98733Y-169265
X98800Y-155775
X98800Y-159275
X99000Y-53925
X99083Y-110565
X99083Y-113565
X99083Y-118315
X99150Y-104825
X99150Y-108325
X100433Y-58940
X100733Y-160515
X101083Y-109565
X101183Y-60940
X101250Y-51875
X101483Y-162515
X101500Y-39375
X101500Y-45875
X101833Y-111565
X102432Y-58940
X102500Y-56025
X102700Y-157625
X102733Y-160515
X103083Y-109565
X103200Y-106625
X103450Y-72175
X103450Y-75425
X103450Y-77925
X103450Y-80425
X103750Y-173750
X103750Y-177000
X103750Y-179500
X103750Y-182000
X103750Y-184500
X103750Y-187000
X103750Y-189750
X103932Y-65440
X104000Y-138325
X104100Y-122800
X104100Y-126050
X104100Y-128550
X104100Y-131050
X104100Y-136050
X104182Y-60940
X104233Y-167015
X104483Y-162515
X104583Y-116065
X104700Y-82925
X104800Y-85425
X104800Y-87725
X104833Y-111565
X104932Y-58940
X105100Y-133525
X105233Y-160515
X105250Y-36375
X105250Y-42625
X105583Y-109565
X105900Y-155725
X106000Y-48875
X106000Y-53825
X106250Y-104775
X106500Y-57725
X106682Y-59940
X106983Y-161515
X107333Y-110565
X107700Y-159325
X108050Y-108375
X108250Y-51875
X109250Y-39375
X109750Y-45875
X111200Y-62690
X111200Y-65940
X111500Y-164265
X111500Y-167515
X111850Y-113315
X111850Y-116565
X111950Y-83050
X112000Y-51875
X112250Y-184625
X112500Y-36375
X112600Y-133675
X112750Y-42625
X113432Y-61190
X113432Y-64440
X113432Y-67940
X113550Y-136025
X113600Y-85425
X113733Y-162765
X113733Y-166015
X113733Y-169515
X114083Y-111815
X114083Y-115065
X114083Y-118565
X114250Y-48875
X114682Y-69940
X114983Y-171515
X115333Y-120565
X115500Y-160750
X115800Y-155875
X115800Y-159275
X115850Y-109800
X116000Y-45125
X116100Y-58125
X116150Y-104925
X116150Y-108325
X116182Y-67940
X116200Y-53925
X116250Y-39375
X116483Y-169515
X116833Y-118565
X117182Y-60940
X117483Y-162515
X117833Y-111565
X117932Y-69440
X118233Y-171015
X118500Y-51875
X118583Y-120065
X119432Y-59190
X119600Y-56025
X119732Y-160765
X119800Y-157625
X120083Y-109815
X120182Y-67940
X120250Y-36125
X120250Y-42625
X120300Y-106625
X120482Y-169515
X120833Y-118565
X121182Y-60940
X121450Y-72425
X121450Y-75425
X121450Y-77925
X121450Y-80425
X121482Y-162515
X121750Y-174000
X121750Y-177000
X121750Y-179500
X121750Y-182000
X121750Y-184500
X121750Y-186750
X121750Y-189250
X121833Y-111565
X122000Y-48875
X122100Y-123050
X122100Y-126050
X122100Y-128550
X122100Y-131050
X122100Y-135800
X122100Y-138300
X122200Y-82925
X122200Y-85225
X122200Y-87825
X122682Y-70190
X122950Y-155825
X122982Y-171765
X123000Y-133525
X123100Y-58125
X123200Y-53725
X123300Y-104875
X123333Y-120815
X123432Y-59190
X123732Y-160765
X123950Y-159325
X124083Y-109815
X124300Y-108375
X124700Y-61175
X124700Y-64440
X124700Y-67925
X125000Y-162750
X125000Y-166015
X125000Y-169500
X125250Y-39375
X125350Y-111800
X125350Y-115065
X125350Y-118550
X125500Y-45125
X126000Y-51875
X126150Y-101425
X126932Y-62940
X126932Y-65940
X127232Y-164515
X127232Y-167515
X127583Y-113565
X127583Y-116565
X128433Y-70440
X128732Y-172015
X129082Y-121065
X129250Y-36125
X129500Y-48875
X130000Y-42625
X130000Y-184375
X130350Y-133425
X130683Y-70440
X130982Y-172015
X131000Y-82925
X131250Y-135925
X131332Y-121065
X131500Y-85525
X132500Y-45375
X132900Y-156025
X133100Y-53625
X133200Y-58125
X133200Y-159125
X133250Y-39375
X133250Y-105075
X133500Y-51875
X133550Y-108175
X133933Y-61190
X133933Y-64190
X134232Y-162765
X134232Y-165765
X134433Y-67190
X134582Y-111815
X134582Y-114815
X134732Y-168765
X135082Y-117815
X135933Y-59440
X135933Y-62940
X135933Y-65690
X136232Y-161015
X136232Y-164515
X136232Y-167265
X136250Y-42625
X136250Y-48875
X136500Y-36125
X136582Y-110065
X136582Y-113565
X136582Y-116315
X136700Y-56025
X137100Y-157625
X137200Y-70425
X137200Y-72925
X137200Y-75425
X137200Y-77925
X137200Y-80425
X137433Y-65690
X137450Y-60675
X137500Y-106625
X137500Y-172000
X137500Y-174500
X137500Y-177000
X137500Y-179500
X137500Y-182000
X137500Y-184500
X137500Y-187000
X137500Y-189500
X137732Y-167265
X137750Y-162250
X137850Y-121050
X137850Y-123550
X137850Y-126050
X137850Y-128550
X137850Y-131050
X138082Y-116315
X138100Y-111300
X138700Y-85425
X138750Y-133625
X138800Y-136025
X138800Y-138550
X138900Y-83025
X138900Y-87925
X139183Y-62190
X139183Y-66940
X139433Y-64440
X139482Y-163765
X139482Y-168515
X139500Y-39375
X139500Y-51875
X139732Y-166015
X139832Y-112815
X139832Y-117565
X139933Y-59940
X140082Y-115065
X140100Y-58125
X140100Y-155925
X140200Y-53825
X140232Y-161515
X140450Y-104975
X140582Y-110565
X140850Y-159025
X141200Y-108075
X142250Y-48875
X142500Y-42625
X142750Y-36125
X144183Y-64190
X144183Y-68190
X144183Y-70440
X144183Y-72940
X144482Y-165765
X144482Y-169765
X144482Y-172015
X144482Y-174515
X144832Y-114815
X144832Y-118815
X144832Y-121065
X144832Y-123565
X145250Y-184375
X145600Y-133425
X145800Y-82925
X146000Y-47375
X146000Y-51875
X146250Y-39375
X146550Y-135975
X146700Y-85425
X147600Y-151325
X147683Y-64190
X147727Y-100475
X147982Y-165765
X148332Y-114815
X148500Y-95875
X148500Y-97925
X149750Y-36125
X149750Y-42625
X150050Y-155675
X150200Y-53925
X150200Y-58125
X150200Y-159125
X150400Y-104725
X150550Y-108175
X150683Y-66440
X150933Y-61940
X150982Y-168015
X151000Y-49625
X151183Y-59940
X151232Y-163515
X151332Y-117065
X151482Y-161515
X151500Y-92375
X151582Y-112565
X151750Y-98125
X151832Y-110565
X153433Y-60940
X153600Y-56025
X153732Y-162515
X153750Y-39375
X154000Y-51875
X154000Y-101875
X154000Y-157625
X154082Y-111565
X154200Y-72925
X154200Y-75425
X154200Y-77925
X154200Y-80425
X154300Y-106625
X154433Y-64190
X154500Y-96125
X154500Y-174500
X154500Y-177000
X154500Y-179500
X154500Y-182000
X154500Y-184500
X154500Y-187000
X154500Y-189500
X154732Y-165765
X154850Y-123550
X154850Y-126050
X154850Y-128550
X154850Y-131050
X154850Y-136050
X154850Y-138550
X155082Y-114815
X155600Y-82925
X155700Y-133475
X155800Y-87925
X155900Y-85525
X156433Y-61690
X156433Y-68440
X156500Y-42625
X156732Y-163265
X156732Y-170015
X156750Y-36125
X157000Y-98125
X157000Y-155775
X157082Y-112315
X157082Y-119065
X157100Y-53925
X157200Y-58125
X157350Y-104825
X157850Y-159175
X158000Y-49625
X158000Y-92375
X158200Y-108225
X159750Y-39375
X160500Y-51875
X160750Y-96125
X160750Y-101625
X161950Y-82800
X162250Y-184375
X163250Y-36125
X163550Y-135875
X163700Y-85325
X164000Y-42625
X164500Y-49625
X164500Y-92375
X164750Y-98125
X166250Y-39375
X166400Y-159060
X166600Y-53625
X166600Y-155875
X166700Y-58025
X166750Y-108110
X166950Y-104925
X167183Y-72690
X167433Y-60440
X167483Y-174265
X167500Y-102875
X167733Y-162015
X167833Y-123315
X168083Y-111065
X168250Y-52125
X168250Y-96125
X168500Y-42625
X169433Y-66440
X169733Y-168015
X170000Y-36125
X170083Y-117065
X170100Y-56025
X170600Y-157625
X171000Y-98125
X171000Y-106625
X171200Y-75425
X171200Y-77925
X171200Y-80425
X171200Y-82925
X171200Y-85425
X171200Y-88175
X171250Y-49625
X171500Y-92375
X171500Y-177000
X171500Y-179500
X171500Y-182000
X171500Y-184500
X171500Y-187000
X171500Y-189750
X171800Y-138625
X171850Y-126050
X171850Y-128550
X171850Y-131050
X171850Y-133550
X171850Y-136050
X172250Y-42625
X172250Y-45125
X172500Y-39625
X173300Y-57625
X173683Y-58690
X173850Y-155925
X173900Y-53625
X173983Y-160265
X174200Y-104975
X174250Y-96125
X174300Y-91225
X174333Y-109315
X174500Y-102875
X174600Y-159025
X174750Y-36125
X174750Y-52125
X174950Y-108075
X177250Y-39625
X177250Y-42625
X177250Y-98125
X177433Y-60690
X177500Y-49625
X177733Y-162265
X178000Y-92375
X178025Y-51468
X178083Y-111315
X178433Y-65190
X178433Y-70190
X178733Y-166765
X178733Y-171765
X179083Y-115815
X179083Y-120815
X179450Y-83050
X179500Y-36125
X179500Y-101375
X179700Y-54300
X179750Y-184625
X179750Y-189500
X180000Y-155875
X180050Y-108425
X180100Y-133675
X180350Y-104925
X180450Y-74675
X180750Y-157875
X180750Y-176250
X181050Y-141000
X181100Y-85325
X181100Y-125300
X181175Y-90583
X181183Y-58690
X181200Y-56300
X181200Y-135925
X181250Y-52375
X181483Y-160265
X181500Y-96125
X181833Y-109315
X182050Y-128525
X182175Y-80325
X182250Y-42375
X182500Y-39375
X183000Y-50375
X183500Y-101625
X183700Y-74675
X184000Y-92375
X184000Y-176250
X184950Y-128575
X185000Y-36125
X185300Y-88625
X186500Y-96125
X186500Y-189500
X186850Y-138550
X186933Y-67690
X186933Y-74190
X186950Y-54550
X186950Y-77925
X186950Y-80425
X186950Y-82925
X186950Y-85425
X187233Y-169265
X187233Y-175765
X187250Y-156125
X187250Y-179500
X187250Y-182000
X187250Y-184500
X187250Y-187000
X187433Y-61940
X187500Y-39375
X187500Y-42625
X187583Y-118315
X187583Y-124815
X187600Y-105175
X187600Y-128550
X187600Y-131050
X187600Y-133550
X187600Y-136050
X187733Y-163515
X187800Y-141000
X187925Y-90583
X188071Y-54318
X188083Y-112565
X188900Y-79225
X188950Y-88675
X189250Y-190250
X189450Y-80425
X189450Y-85425
X189556Y-59465
X189600Y-139300
X189683Y-61940
X189683Y-75175
X189700Y-56925
X189700Y-70175
X189750Y-182000
X189750Y-187000
X189796Y-46725
X189796Y-51725
X189983Y-163515
X189983Y-176750
X190000Y-148250
X190000Y-153250
X190000Y-158500
X190000Y-171750
X190100Y-131050
X190100Y-136050
X190227Y-97475
X190227Y-102475
X190333Y-112565
X190333Y-125800
X190350Y-107550
X190350Y-120800
X191500Y-36125
X192250Y-154875
X193500Y-39375
X194000Y-45625
X194000Y-50625
X194000Y-55625
X194000Y-93375
X194000Y-147125
X194250Y-60625
X194250Y-98875
X194250Y-103875
X194250Y-115125
X194250Y-124875
X194250Y-129875
X194250Y-134875
X194500Y-65375
X194500Y-71625
X194500Y-76625
X194500Y-81875
X194500Y-87125
X194500Y-108875
X194500Y-119875
X194500Y-140625
X194500Y-152125
X195000Y-157125
X197000Y-41125
X197500Y-143625
X197750Y-115125
X200000Y-45625
X200000Y-60625
X200000Y-65375
X200000Y-76625
X200000Y-81875
X200000Y-85875
X200250Y-50625
X200250Y-55625
X200250Y-71625
X200250Y-93125
X200250Y-149625
X200250Y-154625
X200500Y-98875
X200500Y-103875
X200500Y-108875
X200500Y-119875
X200500Y-124875
X200500Y-129875
X200500Y-134875
X216896Y-56975
X217100Y-158500
X217327Y-107725
X218146Y-75475
X218350Y-177000
X218577Y-126225
X219646Y-51725
X219850Y-153250
X220077Y-102475
X230396Y-54225
X230600Y-155750
X230646Y-85475
X230827Y-104975
X230850Y-187000
X230896Y-51725
X231077Y-136225
X231100Y-153250
X231327Y-102475
X231396Y-67975
X231600Y-169500
X231827Y-118725
X238396Y-68975
X238396Y-73725
X238396Y-78975
X238396Y-83975
X238600Y-170500
X238600Y-175250
X238600Y-180500
X238600Y-185500
X238646Y-63225
X238827Y-119725
X238827Y-124475
X238827Y-129725
X238827Y-134725
X238850Y-164750
X238896Y-47975
X238896Y-52725
X238896Y-57975
X239077Y-113975
X239100Y-149500
X239100Y-154250
X239100Y-159500
X239327Y-98725
X239327Y-103475
X239327Y-108725
X244146Y-61225
X244350Y-162750
X244396Y-66975
X244577Y-111975
X244600Y-168500
X244827Y-117725
X246396Y-61225
X246600Y-162750
X246827Y-111975
X247646Y-64725
X247850Y-166250
X248077Y-115475
X248146Y-71975
X248350Y-173500
X248577Y-122725
X248646Y-63475
X248850Y-165000
X249077Y-114225
X249646Y-61975
X249646Y-76975
X249850Y-163500
X249850Y-178500
X250077Y-112725
X250077Y-127725
X250146Y-81975
X250350Y-183500
X250577Y-132725
X250646Y-59475
X250646Y-60975
X250850Y-161000
X250850Y-162500
X251077Y-110225
X251077Y-111725
X254000Y-122125
X254000Y-172875
X254250Y-71375
X260500Y-63375
X261750Y-49875
X261750Y-64375
X261750Y-115375
X261750Y-166125
X263000Y-163625
X263250Y-49725
X263250Y-62125
X263250Y-112875
X264500Y-60875
X264500Y-111625
X264500Y-162125
X265500Y-47625
X266000Y-167350
X266800Y-63425
X266800Y-113925
X267000Y-164925
T2
X30675Y-99050
X30675Y-150450
X31620Y-96770
X31620Y-101330
X31620Y-148170
X31620Y-152730
X33900Y-95825
X33900Y-102275
X33900Y-147225
X33900Y-153675
X36180Y-96770
X36180Y-101330
X36180Y-148170
X36180Y-152730
X37125Y-99050
X37125Y-150450
X266975Y-187925
X267775Y-40825
X267920Y-185645
X267920Y-190205
X268720Y-38545
X268720Y-43105
X270200Y-184700
X270200Y-191150
X271000Y-37600
X271000Y-44050
X272480Y-185645
X272480Y-190205
X273280Y-38545
X273280Y-43105
X273425Y-187925
X274225Y-40825
T3
X211900Y-37625
X211900Y-42625
X220836Y-57685
X220836Y-60225
X220836Y-62765
X221026Y-67895
X221026Y-70435
X221026Y-72975
X221040Y-159210
X221040Y-161750
X221040Y-164290
X221230Y-169420
X221230Y-171960
X221230Y-174500
X221267Y-108435
X221267Y-110975
X221267Y-113515
X221457Y-118645
X221457Y-121185
X221457Y-123725
X228456Y-57685
X228456Y-60225
X228456Y-62765
X228646Y-67895
X228646Y-70435
X228646Y-72975
X228660Y-159210
X228660Y-161750
X228660Y-164290
X228850Y-169420
X228850Y-171960
X228850Y-174500
X228887Y-108435
X228887Y-110975
X228887Y-113515
X229077Y-118645
X229077Y-121185
X229077Y-123725
X239100Y-39225
X241600Y-39225
T4
X201500Y-40525
X204100Y-40525
X204860Y-37525
X207400Y-37525
X251080Y-38485
X251080Y-41025
X253620Y-38485
X253620Y-41025
X256160Y-38485
X256160Y-41025
X258700Y-38485
X258700Y-41025
T5
X234500Y-38025
X234500Y-40565
X234500Y-43105
T6
X33900Y-99050
X33900Y-150450
X270200Y-187925
X271000Y-40825
T7
X217840Y-40565
M30
