%TF.GenerationSoftware,KiCad,Pcbnew,10.0.5*%
%TF.CreationDate,2026-09-21T15:49:40+02:00*%
%TF.ProjectId,simdir,73696d64-6972-42e6-9b69-6361645f7063,rev?*%
%TF.SameCoordinates,Original*%
%TF.FileFunction,Paste,Top*%
%TF.FilePolarity,Positive*%
%FSLAX46Y46*%
G04 Gerber Fmt 4.6, Leading zero omitted, Abs format (unit mm)*
G04 Created by KiCad (PCBNEW 10.0.5) date 2026-09-21 15:49:40*
%MOMM*%
%LPD*%
G01*
G04 APERTURE LIST*
G04 Aperture macros list*
%AMRoundRect*
0 Rectangle with rounded corners*
0 $1 Rounding radius*
0 $2 $3 $4 $5 $6 $7 $8 $9 X,Y pos of 4 corners*
0 Add a 4 corners polygon primitive as box body*
4,1,4,$2,$3,$4,$5,$6,$7,$8,$9,$2,$3,0*
0 Add four circle primitives for the rounded corners*
1,1,$1+$1,$2,$3*
1,1,$1+$1,$4,$5*
1,1,$1+$1,$6,$7*
1,1,$1+$1,$8,$9*
0 Add four rect primitives between the rounded corners*
20,1,$1+$1,$2,$3,$4,$5,0*
20,1,$1+$1,$4,$5,$6,$7,0*
20,1,$1+$1,$6,$7,$8,$9,0*
20,1,$1+$1,$8,$9,$2,$3,0*%
G04 Aperture macros list end*
%ADD10RoundRect,0.087500X-0.425000X-0.087500X0.425000X-0.087500X0.425000X0.087500X-0.425000X0.087500X0*%
%ADD11RoundRect,0.250000X-0.337500X-0.475000X0.337500X-0.475000X0.337500X0.475000X-0.337500X0.475000X0*%
%ADD12RoundRect,0.087500X0.425000X0.087500X-0.425000X0.087500X-0.425000X-0.087500X0.425000X-0.087500X0*%
%ADD13R,5.080000X1.500000*%
%ADD14RoundRect,0.250000X0.350000X0.450000X-0.350000X0.450000X-0.350000X-0.450000X0.350000X-0.450000X0*%
%ADD15RoundRect,0.250000X-0.350000X-0.450000X0.350000X-0.450000X0.350000X0.450000X-0.350000X0.450000X0*%
%ADD16RoundRect,0.250000X0.450000X-0.350000X0.450000X0.350000X-0.450000X0.350000X-0.450000X-0.350000X0*%
%ADD17RoundRect,0.250000X-0.450000X0.350000X-0.450000X-0.350000X0.450000X-0.350000X0.450000X0.350000X0*%
G04 APERTURE END LIST*
D10*
%TO.C,U66*%
X70950000Y-105925000D03*
X70950000Y-106575000D03*
X70950000Y-107225000D03*
X72625000Y-107225000D03*
X72625000Y-106575000D03*
X72625000Y-105925000D03*
%TD*%
%TO.C,U105*%
X172850000Y-105925000D03*
X172850000Y-106575000D03*
X172850000Y-107225000D03*
X174525000Y-107225000D03*
X174525000Y-106575000D03*
X174525000Y-105925000D03*
%TD*%
D11*
%TO.C,C13*%
X59650000Y-106575000D03*
X61725000Y-106575000D03*
%TD*%
D12*
%TO.C,U97*%
X151850000Y-56600000D03*
X151850000Y-55950000D03*
X151850000Y-55300000D03*
X150175000Y-55300000D03*
X150175000Y-55950000D03*
X150175000Y-56600000D03*
%TD*%
D13*
%TO.C,J5*%
X29362500Y-44025000D03*
X29362500Y-48275000D03*
X29362500Y-39775000D03*
%TD*%
D12*
%TO.C,U73*%
X83750000Y-56600000D03*
X83750000Y-55950000D03*
X83750000Y-55300000D03*
X82075000Y-55300000D03*
X82075000Y-55950000D03*
X82075000Y-56600000D03*
%TD*%
%TO.C,U72*%
X84400000Y-107225000D03*
X84400000Y-106575000D03*
X84400000Y-105925000D03*
X82725000Y-105925000D03*
X82725000Y-106575000D03*
X82725000Y-107225000D03*
%TD*%
D10*
%TO.C,U94*%
X138550000Y-55300000D03*
X138550000Y-55950000D03*
X138550000Y-56600000D03*
X140225000Y-56600000D03*
X140225000Y-55950000D03*
X140225000Y-55300000D03*
%TD*%
D11*
%TO.C,C24*%
X127350000Y-157525000D03*
X129425000Y-157525000D03*
%TD*%
%TO.C,C34*%
X177412500Y-106575000D03*
X179487500Y-106575000D03*
%TD*%
%TO.C,C27*%
X143662500Y-157525000D03*
X145737500Y-157525000D03*
%TD*%
%TO.C,C18*%
X92562500Y-157525000D03*
X94637500Y-157525000D03*
%TD*%
D14*
%TO.C,R124*%
X36196250Y-79450000D03*
X34196250Y-79450000D03*
%TD*%
D15*
%TO.C,R132*%
X45750000Y-37875000D03*
X47750000Y-37875000D03*
%TD*%
D10*
%TO.C,U100*%
X155450000Y-55300000D03*
X155450000Y-55950000D03*
X155450000Y-56600000D03*
X157125000Y-56600000D03*
X157125000Y-55950000D03*
X157125000Y-55300000D03*
%TD*%
D13*
%TO.C,J2*%
X29639641Y-130120000D03*
X29639641Y-134370000D03*
X29639641Y-125870000D03*
%TD*%
D11*
%TO.C,C30*%
X161212500Y-157525000D03*
X163287500Y-157525000D03*
%TD*%
%TO.C,C29*%
X143362500Y-55950000D03*
X145437500Y-55950000D03*
%TD*%
D12*
%TO.C,U68*%
X50125000Y-158175000D03*
X50125000Y-157525000D03*
X50125000Y-156875000D03*
X48450000Y-156875000D03*
X48450000Y-157525000D03*
X48450000Y-158175000D03*
%TD*%
D14*
%TO.C,R81*%
X36627141Y-130200000D03*
X34627141Y-130200000D03*
%TD*%
D12*
%TO.C,U90*%
X135500000Y-107225000D03*
X135500000Y-106575000D03*
X135500000Y-105925000D03*
X133825000Y-105925000D03*
X133825000Y-106575000D03*
X133825000Y-107225000D03*
%TD*%
%TO.C,U79*%
X100587500Y-56600000D03*
X100587500Y-55950000D03*
X100587500Y-55300000D03*
X98912500Y-55300000D03*
X98912500Y-55950000D03*
X98912500Y-56600000D03*
%TD*%
D11*
%TO.C,C23*%
X109812500Y-55950000D03*
X111887500Y-55950000D03*
%TD*%
D10*
%TO.C,U82*%
X104350000Y-55300000D03*
X104350000Y-55950000D03*
X104350000Y-56600000D03*
X106025000Y-56600000D03*
X106025000Y-55950000D03*
X106025000Y-55300000D03*
%TD*%
D12*
%TO.C,U85*%
X117700000Y-56600000D03*
X117700000Y-55950000D03*
X117700000Y-55300000D03*
X116025000Y-55300000D03*
X116025000Y-55950000D03*
X116025000Y-56600000D03*
%TD*%
D13*
%TO.C,J1*%
X29412500Y-180895000D03*
X29412500Y-185145000D03*
X29412500Y-176645000D03*
%TD*%
D10*
%TO.C,U76*%
X87450000Y-55300000D03*
X87450000Y-55950000D03*
X87450000Y-56600000D03*
X89125000Y-56600000D03*
X89125000Y-55950000D03*
X89125000Y-55300000D03*
%TD*%
D11*
%TO.C,C22*%
X110462500Y-106575000D03*
X112537500Y-106575000D03*
%TD*%
%TO.C,C16*%
X76462500Y-106575000D03*
X78537500Y-106575000D03*
%TD*%
%TO.C,C21*%
X110112500Y-157525000D03*
X112187500Y-157525000D03*
%TD*%
D16*
%TO.C,R82*%
X36227141Y-135400000D03*
X36227141Y-133400000D03*
%TD*%
D10*
%TO.C,U67*%
X70300000Y-55300000D03*
X70300000Y-55950000D03*
X70300000Y-56600000D03*
X71975000Y-56600000D03*
X71975000Y-55950000D03*
X71975000Y-55300000D03*
%TD*%
D12*
%TO.C,U61*%
X66700000Y-56600000D03*
X66700000Y-55950000D03*
X66700000Y-55300000D03*
X65025000Y-55300000D03*
X65025000Y-55950000D03*
X65025000Y-56600000D03*
%TD*%
D16*
%TO.C,R41*%
X36000000Y-186175000D03*
X36000000Y-184175000D03*
%TD*%
D11*
%TO.C,C19*%
X92912500Y-106575000D03*
X94987500Y-106575000D03*
%TD*%
D15*
%TO.C,R133*%
X46500000Y-49125000D03*
X48500000Y-49125000D03*
%TD*%
D10*
%TO.C,U87*%
X122100000Y-105925000D03*
X122100000Y-106575000D03*
X122100000Y-107225000D03*
X123775000Y-107225000D03*
X123775000Y-106575000D03*
X123775000Y-105925000D03*
%TD*%
D16*
%TO.C,R125*%
X35796250Y-84650000D03*
X35796250Y-82650000D03*
%TD*%
D12*
%TO.C,U101*%
X168600000Y-158175000D03*
X168600000Y-157525000D03*
X168600000Y-156875000D03*
X166925000Y-156875000D03*
X166925000Y-157525000D03*
X166925000Y-158175000D03*
%TD*%
D11*
%TO.C,C25*%
X127700000Y-106575000D03*
X129775000Y-106575000D03*
%TD*%
D12*
%TO.C,U96*%
X152500000Y-107225000D03*
X152500000Y-106575000D03*
X152500000Y-105925000D03*
X150825000Y-105925000D03*
X150825000Y-106575000D03*
X150825000Y-107225000D03*
%TD*%
D11*
%TO.C,C31*%
X161562500Y-106575000D03*
X163637500Y-106575000D03*
%TD*%
%TO.C,C26*%
X127050000Y-55950000D03*
X129125000Y-55950000D03*
%TD*%
D10*
%TO.C,U104*%
X172500000Y-156875000D03*
X172500000Y-157525000D03*
X172500000Y-158175000D03*
X174175000Y-158175000D03*
X174175000Y-157525000D03*
X174175000Y-156875000D03*
%TD*%
D17*
%TO.C,R76*%
X36527141Y-124800000D03*
X36527141Y-126800000D03*
%TD*%
D12*
%TO.C,U59*%
X67000000Y-158175000D03*
X67000000Y-157525000D03*
X67000000Y-156875000D03*
X65325000Y-156875000D03*
X65325000Y-157525000D03*
X65325000Y-158175000D03*
%TD*%
%TO.C,U70*%
X49825000Y-56600000D03*
X49825000Y-55950000D03*
X49825000Y-55300000D03*
X48150000Y-55300000D03*
X48150000Y-55950000D03*
X48150000Y-56600000D03*
%TD*%
D11*
%TO.C,C20*%
X92262500Y-55950000D03*
X94337500Y-55950000D03*
%TD*%
D12*
%TO.C,U84*%
X118350000Y-107225000D03*
X118350000Y-106575000D03*
X118350000Y-105925000D03*
X116675000Y-105925000D03*
X116675000Y-106575000D03*
X116675000Y-107225000D03*
%TD*%
D10*
%TO.C,U74*%
X87750000Y-156875000D03*
X87750000Y-157525000D03*
X87750000Y-158175000D03*
X89425000Y-158175000D03*
X89425000Y-157525000D03*
X89425000Y-156875000D03*
%TD*%
%TO.C,U63*%
X54050000Y-105925000D03*
X54050000Y-106575000D03*
X54050000Y-107225000D03*
X55725000Y-107225000D03*
X55725000Y-106575000D03*
X55725000Y-105925000D03*
%TD*%
D12*
%TO.C,U91*%
X134850000Y-56600000D03*
X134850000Y-55950000D03*
X134850000Y-55300000D03*
X133175000Y-55300000D03*
X133175000Y-55950000D03*
X133175000Y-56600000D03*
%TD*%
D10*
%TO.C,U62*%
X53700000Y-156875000D03*
X53700000Y-157525000D03*
X53700000Y-158175000D03*
X55375000Y-158175000D03*
X55375000Y-157525000D03*
X55375000Y-156875000D03*
%TD*%
D11*
%TO.C,C17*%
X75812500Y-55950000D03*
X77887500Y-55950000D03*
%TD*%
D10*
%TO.C,U65*%
X70600000Y-156875000D03*
X70600000Y-157525000D03*
X70600000Y-158175000D03*
X72275000Y-158175000D03*
X72275000Y-157525000D03*
X72275000Y-156875000D03*
%TD*%
D12*
%TO.C,U103*%
X168300000Y-56600000D03*
X168300000Y-55950000D03*
X168300000Y-55300000D03*
X166625000Y-55300000D03*
X166625000Y-55950000D03*
X166625000Y-56600000D03*
%TD*%
D10*
%TO.C,U99*%
X156100000Y-105925000D03*
X156100000Y-106575000D03*
X156100000Y-107225000D03*
X157775000Y-107225000D03*
X157775000Y-106575000D03*
X157775000Y-105925000D03*
%TD*%
D11*
%TO.C,C10*%
X43800000Y-106675000D03*
X45875000Y-106675000D03*
%TD*%
D10*
%TO.C,U86*%
X121750000Y-156875000D03*
X121750000Y-157525000D03*
X121750000Y-158175000D03*
X123425000Y-158175000D03*
X123425000Y-157525000D03*
X123425000Y-156875000D03*
%TD*%
D11*
%TO.C,C32*%
X160912500Y-55950000D03*
X162987500Y-55950000D03*
%TD*%
D12*
%TO.C,U71*%
X84050000Y-158175000D03*
X84050000Y-157525000D03*
X84050000Y-156875000D03*
X82375000Y-156875000D03*
X82375000Y-157525000D03*
X82375000Y-158175000D03*
%TD*%
%TO.C,U69*%
X50475000Y-107225000D03*
X50475000Y-106575000D03*
X50475000Y-105925000D03*
X48800000Y-105925000D03*
X48800000Y-106575000D03*
X48800000Y-107225000D03*
%TD*%
D11*
%TO.C,C9*%
X43450000Y-157625000D03*
X45525000Y-157625000D03*
%TD*%
D17*
%TO.C,R119*%
X36096250Y-74050000D03*
X36096250Y-76050000D03*
%TD*%
D12*
%TO.C,U77*%
X100887500Y-158175000D03*
X100887500Y-157525000D03*
X100887500Y-156875000D03*
X99212500Y-156875000D03*
X99212500Y-157525000D03*
X99212500Y-158175000D03*
%TD*%
D11*
%TO.C,C28*%
X144012500Y-106575000D03*
X146087500Y-106575000D03*
%TD*%
%TO.C,C11*%
X43150000Y-56050000D03*
X45225000Y-56050000D03*
%TD*%
D10*
%TO.C,U80*%
X104650000Y-156875000D03*
X104650000Y-157525000D03*
X104650000Y-158175000D03*
X106325000Y-158175000D03*
X106325000Y-157525000D03*
X106325000Y-156875000D03*
%TD*%
D13*
%TO.C,J3*%
X29208750Y-79370000D03*
X29208750Y-83620000D03*
X29208750Y-75120000D03*
%TD*%
D12*
%TO.C,U78*%
X101237500Y-107225000D03*
X101237500Y-106575000D03*
X101237500Y-105925000D03*
X99562500Y-105925000D03*
X99562500Y-106575000D03*
X99562500Y-107225000D03*
%TD*%
D10*
%TO.C,U93*%
X139200000Y-105925000D03*
X139200000Y-106575000D03*
X139200000Y-107225000D03*
X140875000Y-107225000D03*
X140875000Y-106575000D03*
X140875000Y-105925000D03*
%TD*%
D14*
%TO.C,R43*%
X36400000Y-180975000D03*
X34400000Y-180975000D03*
%TD*%
D11*
%TO.C,C35*%
X176762500Y-55950000D03*
X178837500Y-55950000D03*
%TD*%
D10*
%TO.C,U81*%
X105000000Y-105925000D03*
X105000000Y-106575000D03*
X105000000Y-107225000D03*
X106675000Y-107225000D03*
X106675000Y-106575000D03*
X106675000Y-105925000D03*
%TD*%
%TO.C,U88*%
X121450000Y-55300000D03*
X121450000Y-55950000D03*
X121450000Y-56600000D03*
X123125000Y-56600000D03*
X123125000Y-55950000D03*
X123125000Y-55300000D03*
%TD*%
D12*
%TO.C,U89*%
X135150000Y-158175000D03*
X135150000Y-157525000D03*
X135150000Y-156875000D03*
X133475000Y-156875000D03*
X133475000Y-157525000D03*
X133475000Y-158175000D03*
%TD*%
D10*
%TO.C,U75*%
X88100000Y-105925000D03*
X88100000Y-106575000D03*
X88100000Y-107225000D03*
X89775000Y-107225000D03*
X89775000Y-106575000D03*
X89775000Y-105925000D03*
%TD*%
D12*
%TO.C,U95*%
X152150000Y-158175000D03*
X152150000Y-157525000D03*
X152150000Y-156875000D03*
X150475000Y-156875000D03*
X150475000Y-157525000D03*
X150475000Y-158175000D03*
%TD*%
D15*
%TO.C,R134*%
X36400000Y-44025000D03*
X38400000Y-44025000D03*
%TD*%
%TO.C,R131*%
X50200000Y-44125000D03*
X52200000Y-44125000D03*
%TD*%
D12*
%TO.C,U60*%
X67350000Y-107225000D03*
X67350000Y-106575000D03*
X67350000Y-105925000D03*
X65675000Y-105925000D03*
X65675000Y-106575000D03*
X65675000Y-107225000D03*
%TD*%
%TO.C,U83*%
X118000000Y-158175000D03*
X118000000Y-157525000D03*
X118000000Y-156875000D03*
X116325000Y-156875000D03*
X116325000Y-157525000D03*
X116325000Y-158175000D03*
%TD*%
D10*
%TO.C,U92*%
X138850000Y-156875000D03*
X138850000Y-157525000D03*
X138850000Y-158175000D03*
X140525000Y-158175000D03*
X140525000Y-157525000D03*
X140525000Y-156875000D03*
%TD*%
D11*
%TO.C,C33*%
X177062500Y-157525000D03*
X179137500Y-157525000D03*
%TD*%
D10*
%TO.C,U106*%
X172200000Y-55300000D03*
X172200000Y-55950000D03*
X172200000Y-56600000D03*
X173875000Y-56600000D03*
X173875000Y-55950000D03*
X173875000Y-55300000D03*
%TD*%
%TO.C,U98*%
X155750000Y-156875000D03*
X155750000Y-157525000D03*
X155750000Y-158175000D03*
X157425000Y-158175000D03*
X157425000Y-157525000D03*
X157425000Y-156875000D03*
%TD*%
D11*
%TO.C,C12*%
X59300000Y-157525000D03*
X61375000Y-157525000D03*
%TD*%
D17*
%TO.C,R42*%
X36300000Y-175575000D03*
X36300000Y-177575000D03*
%TD*%
D12*
%TO.C,U102*%
X168950000Y-107225000D03*
X168950000Y-106575000D03*
X168950000Y-105925000D03*
X167275000Y-105925000D03*
X167275000Y-106575000D03*
X167275000Y-107225000D03*
%TD*%
D10*
%TO.C,U64*%
X53400000Y-55300000D03*
X53400000Y-55950000D03*
X53400000Y-56600000D03*
X55075000Y-56600000D03*
X55075000Y-55950000D03*
X55075000Y-55300000D03*
%TD*%
D11*
%TO.C,C14*%
X59000000Y-55950000D03*
X61075000Y-55950000D03*
%TD*%
%TO.C,C15*%
X76112500Y-157525000D03*
X78187500Y-157525000D03*
%TD*%
M02*
