%TF.GenerationSoftware,KiCad,Pcbnew,10.0.4*%
%TF.CreationDate,2026-08-24T22:14:09+02:00*%
%TF.ProjectId,simdir,73696d64-6972-42e6-9b69-6361645f7063,rev?*%
%TF.SameCoordinates,Original*%
%TF.FileFunction,Paste,Top*%
%TF.FilePolarity,Positive*%
%FSLAX46Y46*%
G04 Gerber Fmt 4.6, Leading zero omitted, Abs format (unit mm)*
G04 Created by KiCad (PCBNEW 10.0.4) date 2026-08-24 22:14:09*
%MOMM*%
%LPD*%
G01*
G04 APERTURE LIST*
G04 Aperture macros list*
%AMRoundRect*
0 Rectangle with rounded corners*
0 $1 Rounding radius*
0 $2 $3 $4 $5 $6 $7 $8 $9 X,Y pos of 4 corners*
0 Add a 4 corners polygon primitive as box body*
4,1,4,$2,$3,$4,$5,$6,$7,$8,$9,$2,$3,0*
0 Add four circle primitives for the rounded corners*
1,1,$1+$1,$2,$3*
1,1,$1+$1,$4,$5*
1,1,$1+$1,$6,$7*
1,1,$1+$1,$8,$9*
0 Add four rect primitives between the rounded corners*
20,1,$1+$1,$2,$3,$4,$5,0*
20,1,$1+$1,$4,$5,$6,$7,0*
20,1,$1+$1,$6,$7,$8,$9,0*
20,1,$1+$1,$8,$9,$2,$3,0*%
G04 Aperture macros list end*
%ADD10RoundRect,0.175000X0.175000X0.200000X-0.175000X0.200000X-0.175000X-0.200000X0.175000X-0.200000X0*%
%ADD11RoundRect,0.100000X0.612500X0.100000X-0.612500X0.100000X-0.612500X-0.100000X0.612500X-0.100000X0*%
%ADD12R,5.080000X1.500000*%
%ADD13RoundRect,0.175000X-0.175000X-0.200000X0.175000X-0.200000X0.175000X0.200000X-0.175000X0.200000X0*%
%ADD14RoundRect,0.100000X-0.612500X-0.100000X0.612500X-0.100000X0.612500X0.100000X-0.612500X0.100000X0*%
%ADD15RoundRect,0.250000X0.350000X0.450000X-0.350000X0.450000X-0.350000X-0.450000X0.350000X-0.450000X0*%
%ADD16RoundRect,0.250000X-0.350000X-0.450000X0.350000X-0.450000X0.350000X0.450000X-0.350000X0.450000X0*%
%ADD17RoundRect,0.250000X0.450000X-0.350000X0.450000X0.350000X-0.450000X0.350000X-0.450000X-0.350000X0*%
%ADD18RoundRect,0.250000X-0.275000X-0.350000X0.275000X-0.350000X0.275000X0.350000X-0.275000X0.350000X0*%
%ADD19RoundRect,0.250000X-0.450000X0.350000X-0.450000X-0.350000X0.450000X-0.350000X0.450000X0.350000X0*%
G04 APERTURE END LIST*
D10*
%TO.C,U29*%
X73569641Y-106910000D03*
X73569641Y-105990000D03*
X72709641Y-106910000D03*
X72709641Y-105990000D03*
D11*
X75302141Y-107425000D03*
X75302141Y-106775000D03*
X75302141Y-106125000D03*
X75302141Y-105475000D03*
X70977141Y-105475000D03*
X70977141Y-106125000D03*
X70977141Y-106775000D03*
X70977141Y-107425000D03*
%TD*%
D10*
%TO.C,U36*%
X141709641Y-106910000D03*
X141709641Y-105990000D03*
X140849641Y-106910000D03*
X140849641Y-105990000D03*
D11*
X143442141Y-107425000D03*
X143442141Y-106775000D03*
X143442141Y-106125000D03*
X143442141Y-105475000D03*
X139117141Y-105475000D03*
X139117141Y-106125000D03*
X139117141Y-106775000D03*
X139117141Y-107425000D03*
%TD*%
D10*
%TO.C,U15*%
X158342500Y-157750000D03*
X158342500Y-156830000D03*
X157482500Y-157750000D03*
X157482500Y-156830000D03*
D11*
X160075000Y-158265000D03*
X160075000Y-157615000D03*
X160075000Y-156965000D03*
X160075000Y-156315000D03*
X155750000Y-156315000D03*
X155750000Y-156965000D03*
X155750000Y-157615000D03*
X155750000Y-158265000D03*
%TD*%
D12*
%TO.C,J5*%
X29362500Y-44025000D03*
X29362500Y-48275000D03*
X29362500Y-39775000D03*
%TD*%
D13*
%TO.C,U52*%
X149278750Y-55240000D03*
X149278750Y-56160000D03*
X150138750Y-55240000D03*
X150138750Y-56160000D03*
D14*
X147546250Y-54725000D03*
X147546250Y-55375000D03*
X147546250Y-56025000D03*
X147546250Y-56675000D03*
X151871250Y-56675000D03*
X151871250Y-56025000D03*
X151871250Y-55375000D03*
X151871250Y-54725000D03*
%TD*%
D10*
%TO.C,U28*%
X56477141Y-106975000D03*
X56477141Y-106055000D03*
X55617141Y-106975000D03*
X55617141Y-106055000D03*
D11*
X58209641Y-107490000D03*
X58209641Y-106840000D03*
X58209641Y-106190000D03*
X58209641Y-105540000D03*
X53884641Y-105540000D03*
X53884641Y-106190000D03*
X53884641Y-106840000D03*
X53884641Y-107490000D03*
%TD*%
D10*
%TO.C,U37*%
X158569641Y-106975000D03*
X158569641Y-106055000D03*
X157709641Y-106975000D03*
X157709641Y-106055000D03*
D11*
X160302141Y-107490000D03*
X160302141Y-106840000D03*
X160302141Y-106190000D03*
X160302141Y-105540000D03*
X155977141Y-105540000D03*
X155977141Y-106190000D03*
X155977141Y-106840000D03*
X155977141Y-107490000D03*
%TD*%
D13*
%TO.C,U42*%
X81186250Y-55305000D03*
X81186250Y-56225000D03*
X82046250Y-55305000D03*
X82046250Y-56225000D03*
D14*
X79453750Y-54790000D03*
X79453750Y-55440000D03*
X79453750Y-56090000D03*
X79453750Y-56740000D03*
X83778750Y-56740000D03*
X83778750Y-56090000D03*
X83778750Y-55440000D03*
X83778750Y-54790000D03*
%TD*%
D15*
%TO.C,R124*%
X36196250Y-79450000D03*
X34196250Y-79450000D03*
%TD*%
D16*
%TO.C,R132*%
X45750000Y-37875000D03*
X47750000Y-37875000D03*
%TD*%
D13*
%TO.C,U32*%
X132709641Y-105990000D03*
X132709641Y-106910000D03*
X133569641Y-105990000D03*
X133569641Y-106910000D03*
D14*
X130977141Y-105475000D03*
X130977141Y-106125000D03*
X130977141Y-106775000D03*
X130977141Y-107425000D03*
X135302141Y-107425000D03*
X135302141Y-106775000D03*
X135302141Y-106125000D03*
X135302141Y-105475000D03*
%TD*%
D10*
%TO.C,U14*%
X141482500Y-157685000D03*
X141482500Y-156765000D03*
X140622500Y-157685000D03*
X140622500Y-156765000D03*
D11*
X143215000Y-158200000D03*
X143215000Y-157550000D03*
X143215000Y-156900000D03*
X143215000Y-156250000D03*
X138890000Y-156250000D03*
X138890000Y-156900000D03*
X138890000Y-157550000D03*
X138890000Y-158200000D03*
%TD*%
D10*
%TO.C,U54*%
X124121250Y-56160000D03*
X124121250Y-55240000D03*
X123261250Y-56160000D03*
X123261250Y-55240000D03*
D11*
X125853750Y-56675000D03*
X125853750Y-56025000D03*
X125853750Y-55375000D03*
X125853750Y-54725000D03*
X121528750Y-54725000D03*
X121528750Y-55375000D03*
X121528750Y-56025000D03*
X121528750Y-56675000D03*
%TD*%
D12*
%TO.C,J2*%
X29639641Y-130120000D03*
X29639641Y-134370000D03*
X29639641Y-125870000D03*
%TD*%
D13*
%TO.C,U50*%
X115186250Y-55255000D03*
X115186250Y-56175000D03*
X116046250Y-55255000D03*
X116046250Y-56175000D03*
D14*
X113453750Y-54740000D03*
X113453750Y-55390000D03*
X113453750Y-56040000D03*
X113453750Y-56690000D03*
X117778750Y-56690000D03*
X117778750Y-56040000D03*
X117778750Y-55390000D03*
X117778750Y-54740000D03*
%TD*%
D15*
%TO.C,R81*%
X36627141Y-130200000D03*
X34627141Y-130200000D03*
%TD*%
D10*
%TO.C,U13*%
X124325000Y-157685000D03*
X124325000Y-156765000D03*
X123465000Y-157685000D03*
X123465000Y-156765000D03*
D11*
X126057500Y-158200000D03*
X126057500Y-157550000D03*
X126057500Y-156900000D03*
X126057500Y-156250000D03*
X121732500Y-156250000D03*
X121732500Y-156900000D03*
X121732500Y-157550000D03*
X121732500Y-158200000D03*
%TD*%
D12*
%TO.C,J1*%
X29412500Y-180895000D03*
X29412500Y-185145000D03*
X29412500Y-176645000D03*
%TD*%
D10*
%TO.C,U16*%
X174975000Y-157685000D03*
X174975000Y-156765000D03*
X174115000Y-157685000D03*
X174115000Y-156765000D03*
D11*
X176707500Y-158200000D03*
X176707500Y-157550000D03*
X176707500Y-156900000D03*
X176707500Y-156250000D03*
X172382500Y-156250000D03*
X172382500Y-156900000D03*
X172382500Y-157550000D03*
X172382500Y-158200000D03*
%TD*%
D10*
%TO.C,U57*%
X174771250Y-56160000D03*
X174771250Y-55240000D03*
X173911250Y-56160000D03*
X173911250Y-55240000D03*
D11*
X176503750Y-56675000D03*
X176503750Y-56025000D03*
X176503750Y-55375000D03*
X176503750Y-54725000D03*
X172178750Y-54725000D03*
X172178750Y-55375000D03*
X172178750Y-56025000D03*
X172178750Y-56675000D03*
%TD*%
D10*
%TO.C,U45*%
X90046250Y-56175000D03*
X90046250Y-55255000D03*
X89186250Y-56175000D03*
X89186250Y-55255000D03*
D11*
X91778750Y-56690000D03*
X91778750Y-56040000D03*
X91778750Y-55390000D03*
X91778750Y-54740000D03*
X87453750Y-54740000D03*
X87453750Y-55390000D03*
X87453750Y-56040000D03*
X87453750Y-56690000D03*
%TD*%
D13*
%TO.C,U11*%
X149482500Y-156765000D03*
X149482500Y-157685000D03*
X150342500Y-156765000D03*
X150342500Y-157685000D03*
D14*
X147750000Y-156250000D03*
X147750000Y-156900000D03*
X147750000Y-157550000D03*
X147750000Y-158200000D03*
X152075000Y-158200000D03*
X152075000Y-157550000D03*
X152075000Y-156900000D03*
X152075000Y-156250000D03*
%TD*%
D13*
%TO.C,U41*%
X64186250Y-55305000D03*
X64186250Y-56225000D03*
X65046250Y-55305000D03*
X65046250Y-56225000D03*
D14*
X62453750Y-54790000D03*
X62453750Y-55440000D03*
X62453750Y-56090000D03*
X62453750Y-56740000D03*
X66778750Y-56740000D03*
X66778750Y-56090000D03*
X66778750Y-55440000D03*
X66778750Y-54790000D03*
%TD*%
D17*
%TO.C,R82*%
X36227141Y-135400000D03*
X36227141Y-133400000D03*
%TD*%
D18*
%TO.C,FB4*%
X201750000Y-37125000D03*
X204050000Y-37125000D03*
%TD*%
D13*
%TO.C,U24*%
X98617141Y-106005000D03*
X98617141Y-106925000D03*
X99477141Y-106005000D03*
X99477141Y-106925000D03*
D14*
X96884641Y-105490000D03*
X96884641Y-106140000D03*
X96884641Y-106790000D03*
X96884641Y-107440000D03*
X101209641Y-107440000D03*
X101209641Y-106790000D03*
X101209641Y-106140000D03*
X101209641Y-105490000D03*
%TD*%
D17*
%TO.C,R41*%
X36000000Y-186175000D03*
X36000000Y-184175000D03*
%TD*%
D13*
%TO.C,U23*%
X81617141Y-106055000D03*
X81617141Y-106975000D03*
X82477141Y-106055000D03*
X82477141Y-106975000D03*
D14*
X79884641Y-105540000D03*
X79884641Y-106190000D03*
X79884641Y-106840000D03*
X79884641Y-107490000D03*
X84209641Y-107490000D03*
X84209641Y-106840000D03*
X84209641Y-106190000D03*
X84209641Y-105540000D03*
%TD*%
D13*
%TO.C,U40*%
X47186250Y-55305000D03*
X47186250Y-56225000D03*
X48046250Y-55305000D03*
X48046250Y-56225000D03*
D14*
X45453750Y-54790000D03*
X45453750Y-55440000D03*
X45453750Y-56090000D03*
X45453750Y-56740000D03*
X49778750Y-56740000D03*
X49778750Y-56090000D03*
X49778750Y-55440000D03*
X49778750Y-54790000D03*
%TD*%
D13*
%TO.C,U2*%
X64390000Y-156830000D03*
X64390000Y-157750000D03*
X65250000Y-156830000D03*
X65250000Y-157750000D03*
D14*
X62657500Y-156315000D03*
X62657500Y-156965000D03*
X62657500Y-157615000D03*
X62657500Y-158265000D03*
X66982500Y-158265000D03*
X66982500Y-157615000D03*
X66982500Y-156965000D03*
X66982500Y-156315000D03*
%TD*%
D16*
%TO.C,R133*%
X46500000Y-49125000D03*
X48500000Y-49125000D03*
%TD*%
D13*
%TO.C,U4*%
X98390000Y-156780000D03*
X98390000Y-157700000D03*
X99250000Y-156780000D03*
X99250000Y-157700000D03*
D14*
X96657500Y-156265000D03*
X96657500Y-156915000D03*
X96657500Y-157565000D03*
X96657500Y-158215000D03*
X100982500Y-158215000D03*
X100982500Y-157565000D03*
X100982500Y-156915000D03*
X100982500Y-156265000D03*
%TD*%
D17*
%TO.C,R125*%
X35796250Y-84650000D03*
X35796250Y-82650000D03*
%TD*%
D13*
%TO.C,U1*%
X47390000Y-156830000D03*
X47390000Y-157750000D03*
X48250000Y-156830000D03*
X48250000Y-157750000D03*
D14*
X45657500Y-156315000D03*
X45657500Y-156965000D03*
X45657500Y-157615000D03*
X45657500Y-158265000D03*
X49982500Y-158265000D03*
X49982500Y-157615000D03*
X49982500Y-156965000D03*
X49982500Y-156315000D03*
%TD*%
D10*
%TO.C,U38*%
X175202141Y-106910000D03*
X175202141Y-105990000D03*
X174342141Y-106910000D03*
X174342141Y-105990000D03*
D11*
X176934641Y-107425000D03*
X176934641Y-106775000D03*
X176934641Y-106125000D03*
X176934641Y-105475000D03*
X172609641Y-105475000D03*
X172609641Y-106125000D03*
X172609641Y-106775000D03*
X172609641Y-107425000D03*
%TD*%
D13*
%TO.C,U21*%
X47617141Y-106055000D03*
X47617141Y-106975000D03*
X48477141Y-106055000D03*
X48477141Y-106975000D03*
D14*
X45884641Y-105540000D03*
X45884641Y-106190000D03*
X45884641Y-106840000D03*
X45884641Y-107490000D03*
X50209641Y-107490000D03*
X50209641Y-106840000D03*
X50209641Y-106190000D03*
X50209641Y-105540000D03*
%TD*%
D13*
%TO.C,U3*%
X81390000Y-156830000D03*
X81390000Y-157750000D03*
X82250000Y-156830000D03*
X82250000Y-157750000D03*
D14*
X79657500Y-156315000D03*
X79657500Y-156965000D03*
X79657500Y-157615000D03*
X79657500Y-158265000D03*
X83982500Y-158265000D03*
X83982500Y-157615000D03*
X83982500Y-156965000D03*
X83982500Y-156315000D03*
%TD*%
D19*
%TO.C,R76*%
X36527141Y-124800000D03*
X36527141Y-126800000D03*
%TD*%
D10*
%TO.C,U8*%
X107250000Y-157700000D03*
X107250000Y-156780000D03*
X106390000Y-157700000D03*
X106390000Y-156780000D03*
D11*
X108982500Y-158215000D03*
X108982500Y-157565000D03*
X108982500Y-156915000D03*
X108982500Y-156265000D03*
X104657500Y-156265000D03*
X104657500Y-156915000D03*
X104657500Y-157565000D03*
X104657500Y-158215000D03*
%TD*%
D13*
%TO.C,U31*%
X115617141Y-106005000D03*
X115617141Y-106925000D03*
X116477141Y-106005000D03*
X116477141Y-106925000D03*
D14*
X113884641Y-105490000D03*
X113884641Y-106140000D03*
X113884641Y-106790000D03*
X113884641Y-107440000D03*
X118209641Y-107440000D03*
X118209641Y-106790000D03*
X118209641Y-106140000D03*
X118209641Y-105490000D03*
%TD*%
D13*
%TO.C,U12*%
X166122500Y-156765000D03*
X166122500Y-157685000D03*
X166982500Y-156765000D03*
X166982500Y-157685000D03*
D14*
X164390000Y-156250000D03*
X164390000Y-156900000D03*
X164390000Y-157550000D03*
X164390000Y-158200000D03*
X168715000Y-158200000D03*
X168715000Y-157550000D03*
X168715000Y-156900000D03*
X168715000Y-156250000D03*
%TD*%
D10*
%TO.C,U7*%
X90250000Y-157700000D03*
X90250000Y-156780000D03*
X89390000Y-157700000D03*
X89390000Y-156780000D03*
D11*
X91982500Y-158215000D03*
X91982500Y-157565000D03*
X91982500Y-156915000D03*
X91982500Y-156265000D03*
X87657500Y-156265000D03*
X87657500Y-156915000D03*
X87657500Y-157565000D03*
X87657500Y-158215000D03*
%TD*%
D13*
%TO.C,U34*%
X166349641Y-105990000D03*
X166349641Y-106910000D03*
X167209641Y-105990000D03*
X167209641Y-106910000D03*
D14*
X164617141Y-105475000D03*
X164617141Y-106125000D03*
X164617141Y-106775000D03*
X164617141Y-107425000D03*
X168942141Y-107425000D03*
X168942141Y-106775000D03*
X168942141Y-106125000D03*
X168942141Y-105475000D03*
%TD*%
D13*
%TO.C,U53*%
X165918750Y-55240000D03*
X165918750Y-56160000D03*
X166778750Y-55240000D03*
X166778750Y-56160000D03*
D14*
X164186250Y-54725000D03*
X164186250Y-55375000D03*
X164186250Y-56025000D03*
X164186250Y-56675000D03*
X168511250Y-56675000D03*
X168511250Y-56025000D03*
X168511250Y-55375000D03*
X168511250Y-54725000D03*
%TD*%
D10*
%TO.C,U6*%
X73342500Y-157685000D03*
X73342500Y-156765000D03*
X72482500Y-157685000D03*
X72482500Y-156765000D03*
D11*
X75075000Y-158200000D03*
X75075000Y-157550000D03*
X75075000Y-156900000D03*
X75075000Y-156250000D03*
X70750000Y-156250000D03*
X70750000Y-156900000D03*
X70750000Y-157550000D03*
X70750000Y-158200000D03*
%TD*%
D10*
%TO.C,U47*%
X56046250Y-56225000D03*
X56046250Y-55305000D03*
X55186250Y-56225000D03*
X55186250Y-55305000D03*
D11*
X57778750Y-56740000D03*
X57778750Y-56090000D03*
X57778750Y-55440000D03*
X57778750Y-54790000D03*
X53453750Y-54790000D03*
X53453750Y-55440000D03*
X53453750Y-56090000D03*
X53453750Y-56740000D03*
%TD*%
D13*
%TO.C,U33*%
X149709641Y-105990000D03*
X149709641Y-106910000D03*
X150569641Y-105990000D03*
X150569641Y-106910000D03*
D14*
X147977141Y-105475000D03*
X147977141Y-106125000D03*
X147977141Y-106775000D03*
X147977141Y-107425000D03*
X152302141Y-107425000D03*
X152302141Y-106775000D03*
X152302141Y-106125000D03*
X152302141Y-105475000D03*
%TD*%
D19*
%TO.C,R119*%
X36096250Y-74050000D03*
X36096250Y-76050000D03*
%TD*%
D12*
%TO.C,J3*%
X29208750Y-79370000D03*
X29208750Y-83620000D03*
X29208750Y-75120000D03*
%TD*%
D10*
%TO.C,U5*%
X56250000Y-157750000D03*
X56250000Y-156830000D03*
X55390000Y-157750000D03*
X55390000Y-156830000D03*
D11*
X57982500Y-158265000D03*
X57982500Y-157615000D03*
X57982500Y-156965000D03*
X57982500Y-156315000D03*
X53657500Y-156315000D03*
X53657500Y-156965000D03*
X53657500Y-157615000D03*
X53657500Y-158265000D03*
%TD*%
D13*
%TO.C,U10*%
X132482500Y-156765000D03*
X132482500Y-157685000D03*
X133342500Y-156765000D03*
X133342500Y-157685000D03*
D14*
X130750000Y-156250000D03*
X130750000Y-156900000D03*
X130750000Y-157550000D03*
X130750000Y-158200000D03*
X135075000Y-158200000D03*
X135075000Y-157550000D03*
X135075000Y-156900000D03*
X135075000Y-156250000D03*
%TD*%
D10*
%TO.C,U27*%
X107477141Y-106925000D03*
X107477141Y-106005000D03*
X106617141Y-106925000D03*
X106617141Y-106005000D03*
D11*
X109209641Y-107440000D03*
X109209641Y-106790000D03*
X109209641Y-106140000D03*
X109209641Y-105490000D03*
X104884641Y-105490000D03*
X104884641Y-106140000D03*
X104884641Y-106790000D03*
X104884641Y-107440000D03*
%TD*%
D15*
%TO.C,R43*%
X36400000Y-180975000D03*
X34400000Y-180975000D03*
%TD*%
D10*
%TO.C,U26*%
X90477141Y-106925000D03*
X90477141Y-106005000D03*
X89617141Y-106925000D03*
X89617141Y-106005000D03*
D11*
X92209641Y-107440000D03*
X92209641Y-106790000D03*
X92209641Y-106140000D03*
X92209641Y-105490000D03*
X87884641Y-105490000D03*
X87884641Y-106140000D03*
X87884641Y-106790000D03*
X87884641Y-107440000D03*
%TD*%
D13*
%TO.C,U22*%
X64617141Y-106055000D03*
X64617141Y-106975000D03*
X65477141Y-106055000D03*
X65477141Y-106975000D03*
D14*
X62884641Y-105540000D03*
X62884641Y-106190000D03*
X62884641Y-106840000D03*
X62884641Y-107490000D03*
X67209641Y-107490000D03*
X67209641Y-106840000D03*
X67209641Y-106190000D03*
X67209641Y-105540000D03*
%TD*%
D13*
%TO.C,U9*%
X115390000Y-156780000D03*
X115390000Y-157700000D03*
X116250000Y-156780000D03*
X116250000Y-157700000D03*
D14*
X113657500Y-156265000D03*
X113657500Y-156915000D03*
X113657500Y-157565000D03*
X113657500Y-158215000D03*
X117982500Y-158215000D03*
X117982500Y-157565000D03*
X117982500Y-156915000D03*
X117982500Y-156265000D03*
%TD*%
D13*
%TO.C,U51*%
X132278750Y-55240000D03*
X132278750Y-56160000D03*
X133138750Y-55240000D03*
X133138750Y-56160000D03*
D14*
X130546250Y-54725000D03*
X130546250Y-55375000D03*
X130546250Y-56025000D03*
X130546250Y-56675000D03*
X134871250Y-56675000D03*
X134871250Y-56025000D03*
X134871250Y-55375000D03*
X134871250Y-54725000D03*
%TD*%
D13*
%TO.C,U43*%
X98186250Y-55255000D03*
X98186250Y-56175000D03*
X99046250Y-55255000D03*
X99046250Y-56175000D03*
D14*
X96453750Y-54740000D03*
X96453750Y-55390000D03*
X96453750Y-56040000D03*
X96453750Y-56690000D03*
X100778750Y-56690000D03*
X100778750Y-56040000D03*
X100778750Y-55390000D03*
X100778750Y-54740000D03*
%TD*%
D16*
%TO.C,R134*%
X36400000Y-44025000D03*
X38400000Y-44025000D03*
%TD*%
%TO.C,R131*%
X50200000Y-44125000D03*
X52200000Y-44125000D03*
%TD*%
D10*
%TO.C,U46*%
X107046250Y-56175000D03*
X107046250Y-55255000D03*
X106186250Y-56175000D03*
X106186250Y-55255000D03*
D11*
X108778750Y-56690000D03*
X108778750Y-56040000D03*
X108778750Y-55390000D03*
X108778750Y-54740000D03*
X104453750Y-54740000D03*
X104453750Y-55390000D03*
X104453750Y-56040000D03*
X104453750Y-56690000D03*
%TD*%
D10*
%TO.C,U55*%
X141278750Y-56160000D03*
X141278750Y-55240000D03*
X140418750Y-56160000D03*
X140418750Y-55240000D03*
D11*
X143011250Y-56675000D03*
X143011250Y-56025000D03*
X143011250Y-55375000D03*
X143011250Y-54725000D03*
X138686250Y-54725000D03*
X138686250Y-55375000D03*
X138686250Y-56025000D03*
X138686250Y-56675000D03*
%TD*%
D10*
%TO.C,U48*%
X73138750Y-56160000D03*
X73138750Y-55240000D03*
X72278750Y-56160000D03*
X72278750Y-55240000D03*
D11*
X74871250Y-56675000D03*
X74871250Y-56025000D03*
X74871250Y-55375000D03*
X74871250Y-54725000D03*
X70546250Y-54725000D03*
X70546250Y-55375000D03*
X70546250Y-56025000D03*
X70546250Y-56675000D03*
%TD*%
D10*
%TO.C,U35*%
X124552141Y-106910000D03*
X124552141Y-105990000D03*
X123692141Y-106910000D03*
X123692141Y-105990000D03*
D11*
X126284641Y-107425000D03*
X126284641Y-106775000D03*
X126284641Y-106125000D03*
X126284641Y-105475000D03*
X121959641Y-105475000D03*
X121959641Y-106125000D03*
X121959641Y-106775000D03*
X121959641Y-107425000D03*
%TD*%
D10*
%TO.C,U56*%
X158138750Y-56225000D03*
X158138750Y-55305000D03*
X157278750Y-56225000D03*
X157278750Y-55305000D03*
D11*
X159871250Y-56740000D03*
X159871250Y-56090000D03*
X159871250Y-55440000D03*
X159871250Y-54790000D03*
X155546250Y-54790000D03*
X155546250Y-55440000D03*
X155546250Y-56090000D03*
X155546250Y-56740000D03*
%TD*%
D19*
%TO.C,R42*%
X36300000Y-175575000D03*
X36300000Y-177575000D03*
%TD*%
M02*
