%TF.GenerationSoftware,KiCad,Pcbnew,10.0.4*%
%TF.CreationDate,2026-08-24T22:14:09+02:00*%
%TF.ProjectId,simdir,73696d64-6972-42e6-9b69-6361645f7063,rev?*%
%TF.SameCoordinates,Original*%
%TF.FileFunction,Soldermask,Top*%
%TF.FilePolarity,Negative*%
%FSLAX46Y46*%
G04 Gerber Fmt 4.6, Leading zero omitted, Abs format (unit mm)*
G04 Created by KiCad (PCBNEW 10.0.4) date 2026-08-24 22:14:09*
%MOMM*%
%LPD*%
G01*
G04 APERTURE LIST*
G04 Aperture macros list*
%AMRoundRect*
0 Rectangle with rounded corners*
0 $1 Rounding radius*
0 $2 $3 $4 $5 $6 $7 $8 $9 X,Y pos of 4 corners*
0 Add a 4 corners polygon primitive as box body*
4,1,4,$2,$3,$4,$5,$6,$7,$8,$9,$2,$3,0*
0 Add four circle primitives for the rounded corners*
1,1,$1+$1,$2,$3*
1,1,$1+$1,$4,$5*
1,1,$1+$1,$6,$7*
1,1,$1+$1,$8,$9*
0 Add four rect primitives between the rounded corners*
20,1,$1+$1,$2,$3,$4,$5,0*
20,1,$1+$1,$4,$5,$6,$7,0*
20,1,$1+$1,$6,$7,$8,$9,0*
20,1,$1+$1,$8,$9,$2,$3,0*%
G04 Aperture macros list end*
%ADD10RoundRect,0.100000X0.612500X0.100000X-0.612500X0.100000X-0.612500X-0.100000X0.612500X-0.100000X0*%
%ADD11RoundRect,0.255000X0.595000X0.595000X-0.595000X0.595000X-0.595000X-0.595000X0.595000X-0.595000X0*%
%ADD12R,1.730000X1.850000*%
%ADD13RoundRect,0.250000X-0.550000X-0.550000X0.550000X-0.550000X0.550000X0.550000X-0.550000X0.550000X0*%
%ADD14C,1.600000*%
%ADD15R,5.080000X1.500000*%
%ADD16C,4.300000*%
%ADD17RoundRect,0.100000X-0.612500X-0.100000X0.612500X-0.100000X0.612500X0.100000X-0.612500X0.100000X0*%
%ADD18RoundRect,0.255000X-0.595000X-0.595000X0.595000X-0.595000X0.595000X0.595000X-0.595000X0.595000X0*%
%ADD19RoundRect,0.250000X0.350000X0.450000X-0.350000X0.450000X-0.350000X-0.450000X0.350000X-0.450000X0*%
%ADD20RoundRect,0.250000X-0.350000X-0.450000X0.350000X-0.450000X0.350000X0.450000X-0.350000X0.450000X0*%
%ADD21R,1.700000X1.700000*%
%ADD22C,1.700000*%
%ADD23RoundRect,0.250000X0.450000X-0.350000X0.450000X0.350000X-0.450000X0.350000X-0.450000X-0.350000X0*%
%ADD24RoundRect,0.250000X-0.275000X-0.350000X0.275000X-0.350000X0.275000X0.350000X-0.275000X0.350000X0*%
%ADD25RoundRect,0.250000X-0.450000X0.350000X-0.450000X-0.350000X0.450000X-0.350000X0.450000X0.350000X0*%
%ADD26R,1.905000X2.000000*%
%ADD27O,1.905000X2.000000*%
G04 APERTURE END LIST*
D10*
%TO.C,U29*%
X75302141Y-107425000D03*
X75302141Y-106775000D03*
X75302141Y-106125000D03*
X75302141Y-105475000D03*
X70977141Y-105475000D03*
X70977141Y-106125000D03*
X70977141Y-106775000D03*
X70977141Y-107425000D03*
D11*
X73139641Y-106450000D03*
D12*
X73139641Y-106450000D03*
%TD*%
D10*
%TO.C,U36*%
X143442141Y-107425000D03*
X143442141Y-106775000D03*
X143442141Y-106125000D03*
X143442141Y-105475000D03*
X139117141Y-105475000D03*
X139117141Y-106125000D03*
X139117141Y-106775000D03*
X139117141Y-107425000D03*
D11*
X141279641Y-106450000D03*
D12*
X141279641Y-106450000D03*
%TD*%
D10*
%TO.C,U15*%
X160075000Y-158265000D03*
X160075000Y-157615000D03*
X160075000Y-156965000D03*
X160075000Y-156315000D03*
X155750000Y-156315000D03*
X155750000Y-156965000D03*
X155750000Y-157615000D03*
X155750000Y-158265000D03*
D11*
X157912500Y-157290000D03*
D12*
X157912500Y-157290000D03*
%TD*%
D13*
%TO.C,SWMSB1*%
X221230000Y-169420000D03*
D14*
X221230000Y-171960000D03*
X221230000Y-174500000D03*
X228850000Y-174500000D03*
X228850000Y-171960000D03*
X228850000Y-169420000D03*
%TD*%
D15*
%TO.C,J5*%
X29362500Y-44025000D03*
X29362500Y-48275000D03*
X29362500Y-39775000D03*
%TD*%
D13*
%TO.C,SWLSB3*%
X220836250Y-57685000D03*
D14*
X220836250Y-60225000D03*
X220836250Y-62765000D03*
X228456250Y-62765000D03*
X228456250Y-60225000D03*
X228456250Y-57685000D03*
%TD*%
D16*
%TO.C,REF\u002A\u002A*%
X32750000Y-150375000D03*
%TD*%
D17*
%TO.C,U52*%
X147546250Y-54725000D03*
X147546250Y-55375000D03*
X147546250Y-56025000D03*
X147546250Y-56675000D03*
X151871250Y-56675000D03*
X151871250Y-56025000D03*
X151871250Y-55375000D03*
X151871250Y-54725000D03*
D18*
X149708750Y-55700000D03*
D12*
X149708750Y-55700000D03*
%TD*%
D10*
%TO.C,U28*%
X58209641Y-107490000D03*
X58209641Y-106840000D03*
X58209641Y-106190000D03*
X58209641Y-105540000D03*
X53884641Y-105540000D03*
X53884641Y-106190000D03*
X53884641Y-106840000D03*
X53884641Y-107490000D03*
D11*
X56047141Y-106515000D03*
D12*
X56047141Y-106515000D03*
%TD*%
D14*
%TO.C,C7*%
X222000000Y-44375000D03*
X227000000Y-44375000D03*
%TD*%
D10*
%TO.C,U37*%
X160302141Y-107490000D03*
X160302141Y-106840000D03*
X160302141Y-106190000D03*
X160302141Y-105540000D03*
X155977141Y-105540000D03*
X155977141Y-106190000D03*
X155977141Y-106840000D03*
X155977141Y-107490000D03*
D11*
X158139641Y-106515000D03*
D12*
X158139641Y-106515000D03*
%TD*%
D13*
%TO.C,C8*%
X231817621Y-40125000D03*
D14*
X234317621Y-40125000D03*
%TD*%
D17*
%TO.C,U42*%
X79453750Y-54790000D03*
X79453750Y-55440000D03*
X79453750Y-56090000D03*
X79453750Y-56740000D03*
X83778750Y-56740000D03*
X83778750Y-56090000D03*
X83778750Y-55440000D03*
X83778750Y-54790000D03*
D18*
X81616250Y-55765000D03*
D12*
X81616250Y-55765000D03*
%TD*%
D19*
%TO.C,R124*%
X36196250Y-79450000D03*
X34196250Y-79450000D03*
%TD*%
D20*
%TO.C,R132*%
X45750000Y-37875000D03*
X47750000Y-37875000D03*
%TD*%
D13*
%TO.C,SWMSB2*%
X221457141Y-118645000D03*
D14*
X221457141Y-121185000D03*
X221457141Y-123725000D03*
X229077141Y-123725000D03*
X229077141Y-121185000D03*
X229077141Y-118645000D03*
%TD*%
D17*
%TO.C,U32*%
X130977141Y-105475000D03*
X130977141Y-106125000D03*
X130977141Y-106775000D03*
X130977141Y-107425000D03*
X135302141Y-107425000D03*
X135302141Y-106775000D03*
X135302141Y-106125000D03*
X135302141Y-105475000D03*
D18*
X133139641Y-106450000D03*
D12*
X133139641Y-106450000D03*
%TD*%
D10*
%TO.C,U14*%
X143215000Y-158200000D03*
X143215000Y-157550000D03*
X143215000Y-156900000D03*
X143215000Y-156250000D03*
X138890000Y-156250000D03*
X138890000Y-156900000D03*
X138890000Y-157550000D03*
X138890000Y-158200000D03*
D11*
X141052500Y-157225000D03*
D12*
X141052500Y-157225000D03*
%TD*%
D10*
%TO.C,U54*%
X125853750Y-56675000D03*
X125853750Y-56025000D03*
X125853750Y-55375000D03*
X125853750Y-54725000D03*
X121528750Y-54725000D03*
X121528750Y-55375000D03*
X121528750Y-56025000D03*
X121528750Y-56675000D03*
D11*
X123691250Y-55700000D03*
D12*
X123691250Y-55700000D03*
%TD*%
D15*
%TO.C,J2*%
X29639641Y-130120000D03*
X29639641Y-134370000D03*
X29639641Y-125870000D03*
%TD*%
D17*
%TO.C,U50*%
X113453750Y-54740000D03*
X113453750Y-55390000D03*
X113453750Y-56040000D03*
X113453750Y-56690000D03*
X117778750Y-56690000D03*
X117778750Y-56040000D03*
X117778750Y-55390000D03*
X117778750Y-54740000D03*
D18*
X115616250Y-55715000D03*
D12*
X115616250Y-55715000D03*
%TD*%
D19*
%TO.C,R81*%
X36627141Y-130200000D03*
X34627141Y-130200000D03*
%TD*%
D10*
%TO.C,U13*%
X126057500Y-158200000D03*
X126057500Y-157550000D03*
X126057500Y-156900000D03*
X126057500Y-156250000D03*
X121732500Y-156250000D03*
X121732500Y-156900000D03*
X121732500Y-157550000D03*
X121732500Y-158200000D03*
D11*
X123895000Y-157225000D03*
D12*
X123895000Y-157225000D03*
%TD*%
D15*
%TO.C,J1*%
X29412500Y-180895000D03*
X29412500Y-185145000D03*
X29412500Y-176645000D03*
%TD*%
D10*
%TO.C,U16*%
X176707500Y-158200000D03*
X176707500Y-157550000D03*
X176707500Y-156900000D03*
X176707500Y-156250000D03*
X172382500Y-156250000D03*
X172382500Y-156900000D03*
X172382500Y-157550000D03*
X172382500Y-158200000D03*
D11*
X174545000Y-157225000D03*
D12*
X174545000Y-157225000D03*
%TD*%
D10*
%TO.C,U57*%
X176503750Y-56675000D03*
X176503750Y-56025000D03*
X176503750Y-55375000D03*
X176503750Y-54725000D03*
X172178750Y-54725000D03*
X172178750Y-55375000D03*
X172178750Y-56025000D03*
X172178750Y-56675000D03*
D11*
X174341250Y-55700000D03*
D12*
X174341250Y-55700000D03*
%TD*%
D10*
%TO.C,U45*%
X91778750Y-56690000D03*
X91778750Y-56040000D03*
X91778750Y-55390000D03*
X91778750Y-54740000D03*
X87453750Y-54740000D03*
X87453750Y-55390000D03*
X87453750Y-56040000D03*
X87453750Y-56690000D03*
D11*
X89616250Y-55715000D03*
D12*
X89616250Y-55715000D03*
%TD*%
D17*
%TO.C,U11*%
X147750000Y-156250000D03*
X147750000Y-156900000D03*
X147750000Y-157550000D03*
X147750000Y-158200000D03*
X152075000Y-158200000D03*
X152075000Y-157550000D03*
X152075000Y-156900000D03*
X152075000Y-156250000D03*
D18*
X149912500Y-157225000D03*
D12*
X149912500Y-157225000D03*
%TD*%
D17*
%TO.C,U41*%
X62453750Y-54790000D03*
X62453750Y-55440000D03*
X62453750Y-56090000D03*
X62453750Y-56740000D03*
X66778750Y-56740000D03*
X66778750Y-56090000D03*
X66778750Y-55440000D03*
X66778750Y-54790000D03*
D18*
X64616250Y-55765000D03*
D12*
X64616250Y-55765000D03*
%TD*%
D21*
%TO.C,J6*%
X240750000Y-39875000D03*
D22*
X243290000Y-39875000D03*
%TD*%
D23*
%TO.C,R82*%
X36227141Y-135400000D03*
X36227141Y-133400000D03*
%TD*%
D24*
%TO.C,FB4*%
X201750000Y-37125000D03*
X204050000Y-37125000D03*
%TD*%
D13*
%TO.C,SWLSB2*%
X221267141Y-108435000D03*
D14*
X221267141Y-110975000D03*
X221267141Y-113515000D03*
X228887141Y-113515000D03*
X228887141Y-110975000D03*
X228887141Y-108435000D03*
%TD*%
D17*
%TO.C,U24*%
X96884641Y-105490000D03*
X96884641Y-106140000D03*
X96884641Y-106790000D03*
X96884641Y-107440000D03*
X101209641Y-107440000D03*
X101209641Y-106790000D03*
X101209641Y-106140000D03*
X101209641Y-105490000D03*
D18*
X99047141Y-106465000D03*
D12*
X99047141Y-106465000D03*
%TD*%
D23*
%TO.C,R41*%
X36000000Y-186175000D03*
X36000000Y-184175000D03*
%TD*%
D17*
%TO.C,U23*%
X79884641Y-105540000D03*
X79884641Y-106190000D03*
X79884641Y-106840000D03*
X79884641Y-107490000D03*
X84209641Y-107490000D03*
X84209641Y-106840000D03*
X84209641Y-106190000D03*
X84209641Y-105540000D03*
D18*
X82047141Y-106515000D03*
D12*
X82047141Y-106515000D03*
%TD*%
D17*
%TO.C,U40*%
X45453750Y-54790000D03*
X45453750Y-55440000D03*
X45453750Y-56090000D03*
X45453750Y-56740000D03*
X49778750Y-56740000D03*
X49778750Y-56090000D03*
X49778750Y-55440000D03*
X49778750Y-54790000D03*
D18*
X47616250Y-55765000D03*
D12*
X47616250Y-55765000D03*
%TD*%
D17*
%TO.C,U2*%
X62657500Y-156315000D03*
X62657500Y-156965000D03*
X62657500Y-157615000D03*
X62657500Y-158265000D03*
X66982500Y-158265000D03*
X66982500Y-157615000D03*
X66982500Y-156965000D03*
X66982500Y-156315000D03*
D18*
X64820000Y-157290000D03*
D12*
X64820000Y-157290000D03*
%TD*%
D20*
%TO.C,R133*%
X46500000Y-49125000D03*
X48500000Y-49125000D03*
%TD*%
D17*
%TO.C,U4*%
X96657500Y-156265000D03*
X96657500Y-156915000D03*
X96657500Y-157565000D03*
X96657500Y-158215000D03*
X100982500Y-158215000D03*
X100982500Y-157565000D03*
X100982500Y-156915000D03*
X100982500Y-156265000D03*
D18*
X98820000Y-157240000D03*
D12*
X98820000Y-157240000D03*
%TD*%
D23*
%TO.C,R125*%
X35796250Y-84650000D03*
X35796250Y-82650000D03*
%TD*%
D17*
%TO.C,U1*%
X45657500Y-156315000D03*
X45657500Y-156965000D03*
X45657500Y-157615000D03*
X45657500Y-158265000D03*
X49982500Y-158265000D03*
X49982500Y-157615000D03*
X49982500Y-156965000D03*
X49982500Y-156315000D03*
D18*
X47820000Y-157290000D03*
D12*
X47820000Y-157290000D03*
%TD*%
D10*
%TO.C,U38*%
X176934641Y-107425000D03*
X176934641Y-106775000D03*
X176934641Y-106125000D03*
X176934641Y-105475000D03*
X172609641Y-105475000D03*
X172609641Y-106125000D03*
X172609641Y-106775000D03*
X172609641Y-107425000D03*
D11*
X174772141Y-106450000D03*
D12*
X174772141Y-106450000D03*
%TD*%
D17*
%TO.C,U21*%
X45884641Y-105540000D03*
X45884641Y-106190000D03*
X45884641Y-106840000D03*
X45884641Y-107490000D03*
X50209641Y-107490000D03*
X50209641Y-106840000D03*
X50209641Y-106190000D03*
X50209641Y-105540000D03*
D18*
X48047141Y-106515000D03*
D12*
X48047141Y-106515000D03*
%TD*%
D17*
%TO.C,U3*%
X79657500Y-156315000D03*
X79657500Y-156965000D03*
X79657500Y-157615000D03*
X79657500Y-158265000D03*
X83982500Y-158265000D03*
X83982500Y-157615000D03*
X83982500Y-156965000D03*
X83982500Y-156315000D03*
D18*
X81820000Y-157290000D03*
D12*
X81820000Y-157290000D03*
%TD*%
D25*
%TO.C,R76*%
X36527141Y-124800000D03*
X36527141Y-126800000D03*
%TD*%
D10*
%TO.C,U8*%
X108982500Y-158215000D03*
X108982500Y-157565000D03*
X108982500Y-156915000D03*
X108982500Y-156265000D03*
X104657500Y-156265000D03*
X104657500Y-156915000D03*
X104657500Y-157565000D03*
X104657500Y-158215000D03*
D11*
X106820000Y-157240000D03*
D12*
X106820000Y-157240000D03*
%TD*%
D17*
%TO.C,U31*%
X113884641Y-105490000D03*
X113884641Y-106140000D03*
X113884641Y-106790000D03*
X113884641Y-107440000D03*
X118209641Y-107440000D03*
X118209641Y-106790000D03*
X118209641Y-106140000D03*
X118209641Y-105490000D03*
D18*
X116047141Y-106465000D03*
D12*
X116047141Y-106465000D03*
%TD*%
D17*
%TO.C,U12*%
X164390000Y-156250000D03*
X164390000Y-156900000D03*
X164390000Y-157550000D03*
X164390000Y-158200000D03*
X168715000Y-158200000D03*
X168715000Y-157550000D03*
X168715000Y-156900000D03*
X168715000Y-156250000D03*
D18*
X166552500Y-157225000D03*
D12*
X166552500Y-157225000D03*
%TD*%
D10*
%TO.C,U7*%
X91982500Y-158215000D03*
X91982500Y-157565000D03*
X91982500Y-156915000D03*
X91982500Y-156265000D03*
X87657500Y-156265000D03*
X87657500Y-156915000D03*
X87657500Y-157565000D03*
X87657500Y-158215000D03*
D11*
X89820000Y-157240000D03*
D12*
X89820000Y-157240000D03*
%TD*%
D26*
%TO.C,U58*%
X216500000Y-37875000D03*
D27*
X213960000Y-37875000D03*
X211420000Y-37875000D03*
%TD*%
D21*
%TO.C,J4*%
X260290000Y-38335000D03*
D22*
X260290000Y-40875000D03*
X257750000Y-38335000D03*
X257750000Y-40875000D03*
X255210000Y-38335000D03*
X255210000Y-40875000D03*
X252670000Y-38335000D03*
X252670000Y-40875000D03*
X250130000Y-38335000D03*
X250130000Y-40875000D03*
%TD*%
D17*
%TO.C,U34*%
X164617141Y-105475000D03*
X164617141Y-106125000D03*
X164617141Y-106775000D03*
X164617141Y-107425000D03*
X168942141Y-107425000D03*
X168942141Y-106775000D03*
X168942141Y-106125000D03*
X168942141Y-105475000D03*
D18*
X166779641Y-106450000D03*
D12*
X166779641Y-106450000D03*
%TD*%
D13*
%TO.C,SWLSB1*%
X221040000Y-159210000D03*
D14*
X221040000Y-161750000D03*
X221040000Y-164290000D03*
X228660000Y-164290000D03*
X228660000Y-161750000D03*
X228660000Y-159210000D03*
%TD*%
D17*
%TO.C,U53*%
X164186250Y-54725000D03*
X164186250Y-55375000D03*
X164186250Y-56025000D03*
X164186250Y-56675000D03*
X168511250Y-56675000D03*
X168511250Y-56025000D03*
X168511250Y-55375000D03*
X168511250Y-54725000D03*
D18*
X166348750Y-55700000D03*
D12*
X166348750Y-55700000D03*
%TD*%
D10*
%TO.C,U6*%
X75075000Y-158200000D03*
X75075000Y-157550000D03*
X75075000Y-156900000D03*
X75075000Y-156250000D03*
X70750000Y-156250000D03*
X70750000Y-156900000D03*
X70750000Y-157550000D03*
X70750000Y-158200000D03*
D11*
X72912500Y-157225000D03*
D12*
X72912500Y-157225000D03*
%TD*%
D16*
%TO.C,REF\u002A\u002A*%
X271800000Y-39825000D03*
%TD*%
D10*
%TO.C,U47*%
X57778750Y-56740000D03*
X57778750Y-56090000D03*
X57778750Y-55440000D03*
X57778750Y-54790000D03*
X53453750Y-54790000D03*
X53453750Y-55440000D03*
X53453750Y-56090000D03*
X53453750Y-56740000D03*
D11*
X55616250Y-55765000D03*
D12*
X55616250Y-55765000D03*
%TD*%
D17*
%TO.C,U33*%
X147977141Y-105475000D03*
X147977141Y-106125000D03*
X147977141Y-106775000D03*
X147977141Y-107425000D03*
X152302141Y-107425000D03*
X152302141Y-106775000D03*
X152302141Y-106125000D03*
X152302141Y-105475000D03*
D18*
X150139641Y-106450000D03*
D12*
X150139641Y-106450000D03*
%TD*%
D25*
%TO.C,R119*%
X36096250Y-74050000D03*
X36096250Y-76050000D03*
%TD*%
D15*
%TO.C,J3*%
X29208750Y-79370000D03*
X29208750Y-83620000D03*
X29208750Y-75120000D03*
%TD*%
D10*
%TO.C,U5*%
X57982500Y-158265000D03*
X57982500Y-157615000D03*
X57982500Y-156965000D03*
X57982500Y-156315000D03*
X53657500Y-156315000D03*
X53657500Y-156965000D03*
X53657500Y-157615000D03*
X53657500Y-158265000D03*
D11*
X55820000Y-157290000D03*
D12*
X55820000Y-157290000D03*
%TD*%
D17*
%TO.C,U10*%
X130750000Y-156250000D03*
X130750000Y-156900000D03*
X130750000Y-157550000D03*
X130750000Y-158200000D03*
X135075000Y-158200000D03*
X135075000Y-157550000D03*
X135075000Y-156900000D03*
X135075000Y-156250000D03*
D18*
X132912500Y-157225000D03*
D12*
X132912500Y-157225000D03*
%TD*%
D10*
%TO.C,U27*%
X109209641Y-107440000D03*
X109209641Y-106790000D03*
X109209641Y-106140000D03*
X109209641Y-105490000D03*
X104884641Y-105490000D03*
X104884641Y-106140000D03*
X104884641Y-106790000D03*
X104884641Y-107440000D03*
D11*
X107047141Y-106465000D03*
D12*
X107047141Y-106465000D03*
%TD*%
D19*
%TO.C,R43*%
X36400000Y-180975000D03*
X34400000Y-180975000D03*
%TD*%
D10*
%TO.C,U26*%
X92209641Y-107440000D03*
X92209641Y-106790000D03*
X92209641Y-106140000D03*
X92209641Y-105490000D03*
X87884641Y-105490000D03*
X87884641Y-106140000D03*
X87884641Y-106790000D03*
X87884641Y-107440000D03*
D11*
X90047141Y-106465000D03*
D12*
X90047141Y-106465000D03*
%TD*%
D17*
%TO.C,U22*%
X62884641Y-105540000D03*
X62884641Y-106190000D03*
X62884641Y-106840000D03*
X62884641Y-107490000D03*
X67209641Y-107490000D03*
X67209641Y-106840000D03*
X67209641Y-106190000D03*
X67209641Y-105540000D03*
D18*
X65047141Y-106515000D03*
D12*
X65047141Y-106515000D03*
%TD*%
D17*
%TO.C,U9*%
X113657500Y-156265000D03*
X113657500Y-156915000D03*
X113657500Y-157565000D03*
X113657500Y-158215000D03*
X117982500Y-158215000D03*
X117982500Y-157565000D03*
X117982500Y-156915000D03*
X117982500Y-156265000D03*
D18*
X115820000Y-157240000D03*
D12*
X115820000Y-157240000D03*
%TD*%
D13*
%TO.C,SWMSB3*%
X221026250Y-67895000D03*
D14*
X221026250Y-70435000D03*
X221026250Y-72975000D03*
X228646250Y-72975000D03*
X228646250Y-70435000D03*
X228646250Y-67895000D03*
%TD*%
D17*
%TO.C,U51*%
X130546250Y-54725000D03*
X130546250Y-55375000D03*
X130546250Y-56025000D03*
X130546250Y-56675000D03*
X134871250Y-56675000D03*
X134871250Y-56025000D03*
X134871250Y-55375000D03*
X134871250Y-54725000D03*
D18*
X132708750Y-55700000D03*
D12*
X132708750Y-55700000D03*
%TD*%
D17*
%TO.C,U43*%
X96453750Y-54740000D03*
X96453750Y-55390000D03*
X96453750Y-56040000D03*
X96453750Y-56690000D03*
X100778750Y-56690000D03*
X100778750Y-56040000D03*
X100778750Y-55390000D03*
X100778750Y-54740000D03*
D18*
X98616250Y-55715000D03*
D12*
X98616250Y-55715000D03*
%TD*%
D20*
%TO.C,R134*%
X36400000Y-44025000D03*
X38400000Y-44025000D03*
%TD*%
%TO.C,R131*%
X50200000Y-44125000D03*
X52200000Y-44125000D03*
%TD*%
D16*
%TO.C,REF\u002A\u002A*%
X32750000Y-61125000D03*
%TD*%
D10*
%TO.C,U46*%
X108778750Y-56690000D03*
X108778750Y-56040000D03*
X108778750Y-55390000D03*
X108778750Y-54740000D03*
X104453750Y-54740000D03*
X104453750Y-55390000D03*
X104453750Y-56040000D03*
X104453750Y-56690000D03*
D11*
X106616250Y-55715000D03*
D12*
X106616250Y-55715000D03*
%TD*%
D10*
%TO.C,U55*%
X143011250Y-56675000D03*
X143011250Y-56025000D03*
X143011250Y-55375000D03*
X143011250Y-54725000D03*
X138686250Y-54725000D03*
X138686250Y-55375000D03*
X138686250Y-56025000D03*
X138686250Y-56675000D03*
D11*
X140848750Y-55700000D03*
D12*
X140848750Y-55700000D03*
%TD*%
D10*
%TO.C,U48*%
X74871250Y-56675000D03*
X74871250Y-56025000D03*
X74871250Y-55375000D03*
X74871250Y-54725000D03*
X70546250Y-54725000D03*
X70546250Y-55375000D03*
X70546250Y-56025000D03*
X70546250Y-56675000D03*
D11*
X72708750Y-55700000D03*
D12*
X72708750Y-55700000D03*
%TD*%
D16*
%TO.C,REF\u002A\u002A*%
X271400000Y-189725000D03*
%TD*%
D10*
%TO.C,U35*%
X126284641Y-107425000D03*
X126284641Y-106775000D03*
X126284641Y-106125000D03*
X126284641Y-105475000D03*
X121959641Y-105475000D03*
X121959641Y-106125000D03*
X121959641Y-106775000D03*
X121959641Y-107425000D03*
D11*
X124122141Y-106450000D03*
D12*
X124122141Y-106450000D03*
%TD*%
D10*
%TO.C,U56*%
X159871250Y-56740000D03*
X159871250Y-56090000D03*
X159871250Y-55440000D03*
X159871250Y-54790000D03*
X155546250Y-54790000D03*
X155546250Y-55440000D03*
X155546250Y-56090000D03*
X155546250Y-56740000D03*
D11*
X157708750Y-55765000D03*
D12*
X157708750Y-55765000D03*
%TD*%
D25*
%TO.C,R42*%
X36300000Y-175575000D03*
X36300000Y-177575000D03*
%TD*%
M02*
