%TF.GenerationSoftware,KiCad,Pcbnew,10.0.4*%
%TF.CreationDate,2026-08-24T22:14:09+02:00*%
%TF.ProjectId,simdir,73696d64-6972-42e6-9b69-6361645f7063,rev?*%
%TF.SameCoordinates,Original*%
%TF.FileFunction,Paste,Bot*%
%TF.FilePolarity,Positive*%
%FSLAX46Y46*%
G04 Gerber Fmt 4.6, Leading zero omitted, Abs format (unit mm)*
G04 Created by KiCad (PCBNEW 10.0.4) date 2026-08-24 22:14:09*
%MOMM*%
%LPD*%
G01*
G04 APERTURE LIST*
G04 Aperture macros list*
%AMRoundRect*
0 Rectangle with rounded corners*
0 $1 Rounding radius*
0 $2 $3 $4 $5 $6 $7 $8 $9 X,Y pos of 4 corners*
0 Add a 4 corners polygon primitive as box body*
4,1,4,$2,$3,$4,$5,$6,$7,$8,$9,$2,$3,0*
0 Add four circle primitives for the rounded corners*
1,1,$1+$1,$2,$3*
1,1,$1+$1,$4,$5*
1,1,$1+$1,$6,$7*
1,1,$1+$1,$8,$9*
0 Add four rect primitives between the rounded corners*
20,1,$1+$1,$2,$3,$4,$5,0*
20,1,$1+$1,$4,$5,$6,$7,0*
20,1,$1+$1,$6,$7,$8,$9,0*
20,1,$1+$1,$8,$9,$2,$3,0*%
G04 Aperture macros list end*
%ADD10R,5.080000X1.500000*%
%ADD11RoundRect,0.150000X-0.825000X-0.150000X0.825000X-0.150000X0.825000X0.150000X-0.825000X0.150000X0*%
%ADD12RoundRect,0.150000X-0.150000X0.587500X-0.150000X-0.587500X0.150000X-0.587500X0.150000X0.587500X0*%
%ADD13RoundRect,0.150000X0.587500X0.150000X-0.587500X0.150000X-0.587500X-0.150000X0.587500X-0.150000X0*%
%ADD14RoundRect,0.250000X-0.450000X0.350000X-0.450000X-0.350000X0.450000X-0.350000X0.450000X0.350000X0*%
%ADD15RoundRect,0.250000X0.350000X0.450000X-0.350000X0.450000X-0.350000X-0.450000X0.350000X-0.450000X0*%
%ADD16RoundRect,0.250000X0.450000X-0.350000X0.450000X0.350000X-0.450000X0.350000X-0.450000X-0.350000X0*%
%ADD17RoundRect,0.249999X0.750001X0.640001X-0.750001X0.640001X-0.750001X-0.640001X0.750001X-0.640001X0*%
%ADD18RoundRect,0.250000X0.337500X0.475000X-0.337500X0.475000X-0.337500X-0.475000X0.337500X-0.475000X0*%
%ADD19RoundRect,0.250000X0.275000X0.350000X-0.275000X0.350000X-0.275000X-0.350000X0.275000X-0.350000X0*%
G04 APERTURE END LIST*
D10*
%TO.C,J5*%
X29362500Y-48275000D03*
X29362500Y-39775000D03*
%TD*%
%TO.C,J2*%
X29639641Y-134370000D03*
X29639641Y-125870000D03*
%TD*%
%TO.C,J1*%
X29412500Y-185145000D03*
X29412500Y-176645000D03*
%TD*%
%TO.C,J3*%
X29208750Y-83620000D03*
X29208750Y-75120000D03*
%TD*%
D11*
%TO.C,U20*%
X253627141Y-119115000D03*
X253627141Y-117845000D03*
X253627141Y-116575000D03*
X253627141Y-115305000D03*
X253627141Y-114035000D03*
X253627141Y-112765000D03*
X253627141Y-111495000D03*
X253627141Y-110225000D03*
X258577141Y-110225000D03*
X258577141Y-111495000D03*
X258577141Y-112765000D03*
X258577141Y-114035000D03*
X258577141Y-115305000D03*
X258577141Y-116575000D03*
X258577141Y-117845000D03*
X258577141Y-119115000D03*
%TD*%
D12*
%TO.C,Q2*%
X70032500Y-181140000D03*
X71932500Y-181140000D03*
X70982500Y-183015000D03*
%TD*%
%TO.C,Q25*%
X59227141Y-130225000D03*
X61127141Y-130225000D03*
X60177141Y-132100000D03*
%TD*%
D13*
%TO.C,Q17*%
X237077141Y-96725000D03*
X237077141Y-98625000D03*
X235202141Y-97675000D03*
%TD*%
D14*
%TO.C,R21*%
X150750000Y-186250000D03*
X150750000Y-188250000D03*
%TD*%
D15*
%TO.C,R87*%
X242646250Y-45975000D03*
X240646250Y-45975000D03*
%TD*%
D12*
%TO.C,Q8*%
X166250000Y-181000000D03*
X168150000Y-181000000D03*
X167200000Y-182875000D03*
%TD*%
D16*
%TO.C,R3*%
X63750000Y-183000000D03*
X63750000Y-181000000D03*
%TD*%
D15*
%TO.C,R31*%
X213600000Y-182000000D03*
X211600000Y-182000000D03*
%TD*%
D16*
%TO.C,R1*%
X63750000Y-188250000D03*
X63750000Y-186250000D03*
%TD*%
%TO.C,R80*%
X175227141Y-132225000D03*
X175227141Y-130225000D03*
%TD*%
D15*
%TO.C,R27*%
X213850000Y-158500000D03*
X211850000Y-158500000D03*
%TD*%
D17*
%TO.C,U49*%
X207176250Y-67725000D03*
X207176250Y-70265000D03*
X207176250Y-72805000D03*
X207176250Y-75345000D03*
X207176250Y-77885000D03*
X207176250Y-80425000D03*
X207176250Y-82965000D03*
X207176250Y-85505000D03*
X197646250Y-85505000D03*
X197646250Y-82965000D03*
X197646250Y-80425000D03*
X197646250Y-77885000D03*
X197646250Y-75345000D03*
X197646250Y-72805000D03*
X197646250Y-70265000D03*
X197646250Y-67725000D03*
%TD*%
D13*
%TO.C,Q10*%
X236975000Y-152350000D03*
X236975000Y-154250000D03*
X235100000Y-153300000D03*
%TD*%
D14*
%TO.C,R70*%
X84709641Y-135490000D03*
X84709641Y-137490000D03*
%TD*%
D16*
%TO.C,R62*%
X89959641Y-137490000D03*
X89959641Y-135490000D03*
%TD*%
D15*
%TO.C,R28*%
X213850000Y-163750000D03*
X211850000Y-163750000D03*
%TD*%
D18*
%TO.C,C2*%
X258637500Y-173000000D03*
X256562500Y-173000000D03*
%TD*%
%TO.C,C6*%
X198683750Y-88725000D03*
X196608750Y-88725000D03*
%TD*%
%TO.C,C5*%
X258433750Y-71475000D03*
X256358750Y-71475000D03*
%TD*%
D16*
%TO.C,R115*%
X124796250Y-86475000D03*
X124796250Y-84475000D03*
%TD*%
%TO.C,R4*%
X76232500Y-188265000D03*
X76232500Y-186265000D03*
%TD*%
D18*
%TO.C,C4*%
X199114641Y-139475000D03*
X197039641Y-139475000D03*
%TD*%
D17*
%TO.C,U44*%
X207176250Y-44225000D03*
X207176250Y-46765000D03*
X207176250Y-49305000D03*
X207176250Y-51845000D03*
X207176250Y-54385000D03*
X207176250Y-56925000D03*
X207176250Y-59465000D03*
X207176250Y-62005000D03*
X197646250Y-62005000D03*
X197646250Y-59465000D03*
X197646250Y-56925000D03*
X197646250Y-54385000D03*
X197646250Y-51845000D03*
X197646250Y-49305000D03*
X197646250Y-46765000D03*
X197646250Y-44225000D03*
%TD*%
D15*
%TO.C,R53*%
X242577141Y-122725000D03*
X240577141Y-122725000D03*
%TD*%
%TO.C,R36*%
X242600000Y-162750000D03*
X240600000Y-162750000D03*
%TD*%
%TO.C,R25*%
X213850000Y-148250000D03*
X211850000Y-148250000D03*
%TD*%
D17*
%TO.C,U25*%
X207607141Y-94975000D03*
X207607141Y-97515000D03*
X207607141Y-100055000D03*
X207607141Y-102595000D03*
X207607141Y-105135000D03*
X207607141Y-107675000D03*
X207607141Y-110215000D03*
X207607141Y-112755000D03*
X198077141Y-112755000D03*
X198077141Y-110215000D03*
X198077141Y-107675000D03*
X198077141Y-105135000D03*
X198077141Y-102595000D03*
X198077141Y-100055000D03*
X198077141Y-97515000D03*
X198077141Y-94975000D03*
%TD*%
D11*
%TO.C,U39*%
X253196250Y-68365000D03*
X253196250Y-67095000D03*
X253196250Y-65825000D03*
X253196250Y-64555000D03*
X253196250Y-63285000D03*
X253196250Y-62015000D03*
X253196250Y-60745000D03*
X253196250Y-59475000D03*
X258146250Y-59475000D03*
X258146250Y-60745000D03*
X258146250Y-62015000D03*
X258146250Y-63285000D03*
X258146250Y-64555000D03*
X258146250Y-65825000D03*
X258146250Y-67095000D03*
X258146250Y-68365000D03*
%TD*%
D15*
%TO.C,R29*%
X213850000Y-172000000D03*
X211850000Y-172000000D03*
%TD*%
D16*
%TO.C,R66*%
X89959641Y-132240000D03*
X89959641Y-130240000D03*
%TD*%
D17*
%TO.C,U30*%
X207607141Y-118475000D03*
X207607141Y-121015000D03*
X207607141Y-123555000D03*
X207607141Y-126095000D03*
X207607141Y-128635000D03*
X207607141Y-131175000D03*
X207607141Y-133715000D03*
X207607141Y-136255000D03*
X198077141Y-136255000D03*
X198077141Y-133715000D03*
X198077141Y-131175000D03*
X198077141Y-128635000D03*
X198077141Y-126095000D03*
X198077141Y-123555000D03*
X198077141Y-121015000D03*
X198077141Y-118475000D03*
%TD*%
D15*
%TO.C,R52*%
X242577141Y-117725000D03*
X240577141Y-117725000D03*
%TD*%
D16*
%TO.C,R117*%
X157296250Y-86725000D03*
X157296250Y-84725000D03*
%TD*%
D13*
%TO.C,Q19*%
X236827141Y-106725000D03*
X236827141Y-108625000D03*
X234952141Y-107675000D03*
%TD*%
D16*
%TO.C,R121*%
X139546250Y-81475000D03*
X139546250Y-79475000D03*
%TD*%
D15*
%TO.C,R97*%
X242146250Y-76975000D03*
X240146250Y-76975000D03*
%TD*%
D13*
%TO.C,Q39*%
X236021250Y-77025000D03*
X236021250Y-78925000D03*
X234146250Y-77975000D03*
%TD*%
%TO.C,Q11*%
X236600000Y-157500000D03*
X236600000Y-159400000D03*
X234725000Y-158450000D03*
%TD*%
D12*
%TO.C,Q28*%
X99227141Y-130225000D03*
X101127141Y-130225000D03*
X100177141Y-132100000D03*
%TD*%
%TO.C,Q45*%
X116296250Y-79475000D03*
X118196250Y-79475000D03*
X117246250Y-81350000D03*
%TD*%
D15*
%TO.C,R96*%
X242146250Y-71975000D03*
X240146250Y-71975000D03*
%TD*%
D12*
%TO.C,Q48*%
X166046250Y-79475000D03*
X167946250Y-79475000D03*
X166996250Y-81350000D03*
%TD*%
D13*
%TO.C,Q34*%
X236771250Y-50825000D03*
X236771250Y-52725000D03*
X234896250Y-51775000D03*
%TD*%
D16*
%TO.C,R107*%
X63546250Y-81475000D03*
X63546250Y-79475000D03*
%TD*%
%TO.C,R16*%
X139750000Y-188250000D03*
X139750000Y-186250000D03*
%TD*%
D15*
%TO.C,R38*%
X242350000Y-173500000D03*
X240350000Y-173500000D03*
%TD*%
D14*
%TO.C,R68*%
X60227141Y-135475000D03*
X60227141Y-137475000D03*
%TD*%
%TO.C,R112*%
X70778750Y-84740000D03*
X70778750Y-86740000D03*
%TD*%
D15*
%TO.C,R49*%
X214077141Y-102475000D03*
X212077141Y-102475000D03*
%TD*%
D12*
%TO.C,Q32*%
X166477141Y-130225000D03*
X168377141Y-130225000D03*
X167427141Y-132100000D03*
%TD*%
D16*
%TO.C,R17*%
X139750000Y-183000000D03*
X139750000Y-181000000D03*
%TD*%
%TO.C,R75*%
X175227141Y-137475000D03*
X175227141Y-135475000D03*
%TD*%
D15*
%TO.C,R101*%
X213396250Y-80475000D03*
X211396250Y-80475000D03*
%TD*%
%TO.C,R39*%
X242350000Y-178500000D03*
X240350000Y-178500000D03*
%TD*%
%TO.C,R46*%
X242827141Y-106725000D03*
X240827141Y-106725000D03*
%TD*%
D16*
%TO.C,R7*%
X89732500Y-188265000D03*
X89732500Y-186265000D03*
%TD*%
D12*
%TO.C,Q29*%
X116727141Y-130225000D03*
X118627141Y-130225000D03*
X117677141Y-132100000D03*
%TD*%
D14*
%TO.C,R129*%
X167046250Y-84725000D03*
X167046250Y-86725000D03*
%TD*%
D16*
%TO.C,R109*%
X89528750Y-81490000D03*
X89528750Y-79490000D03*
%TD*%
D15*
%TO.C,R99*%
X213646250Y-70475000D03*
X211646250Y-70475000D03*
%TD*%
D16*
%TO.C,R72*%
X125227141Y-137225000D03*
X125227141Y-135225000D03*
%TD*%
D12*
%TO.C,Q26*%
X70259641Y-130365000D03*
X72159641Y-130365000D03*
X71209641Y-132240000D03*
%TD*%
D15*
%TO.C,R50*%
X214077141Y-107725000D03*
X212077141Y-107725000D03*
%TD*%
%TO.C,R56*%
X214077141Y-121225000D03*
X212077141Y-121225000D03*
%TD*%
D18*
%TO.C,C3*%
X258864641Y-122225000D03*
X256789641Y-122225000D03*
%TD*%
D14*
%TO.C,R86*%
X167477141Y-135475000D03*
X167477141Y-137475000D03*
%TD*%
D16*
%TO.C,R60*%
X63977141Y-137475000D03*
X63977141Y-135475000D03*
%TD*%
D12*
%TO.C,Q6*%
X133750000Y-181000000D03*
X135650000Y-181000000D03*
X134700000Y-182875000D03*
%TD*%
D15*
%TO.C,R89*%
X242396250Y-55975000D03*
X240396250Y-55975000D03*
%TD*%
D16*
%TO.C,R64*%
X63977141Y-132225000D03*
X63977141Y-130225000D03*
%TD*%
D15*
%TO.C,R102*%
X213396250Y-85475000D03*
X211396250Y-85475000D03*
%TD*%
D14*
%TO.C,R111*%
X59796250Y-84725000D03*
X59796250Y-86725000D03*
%TD*%
D12*
%TO.C,Q46*%
X133546250Y-79475000D03*
X135446250Y-79475000D03*
X134496250Y-81350000D03*
%TD*%
D14*
%TO.C,R18*%
X134750000Y-186250000D03*
X134750000Y-188250000D03*
%TD*%
%TO.C,R12*%
X100000000Y-186250000D03*
X100000000Y-188250000D03*
%TD*%
D13*
%TO.C,Q36*%
X236208750Y-61225000D03*
X236208750Y-63125000D03*
X234333750Y-62175000D03*
%TD*%
D19*
%TO.C,FB2*%
X203877141Y-139475000D03*
X201577141Y-139475000D03*
%TD*%
D16*
%TO.C,R106*%
X106296250Y-86725000D03*
X106296250Y-84725000D03*
%TD*%
D14*
%TO.C,R127*%
X134546250Y-84725000D03*
X134546250Y-86725000D03*
%TD*%
D16*
%TO.C,R20*%
X157500000Y-183000000D03*
X157500000Y-181000000D03*
%TD*%
%TO.C,R110*%
X106296250Y-81475000D03*
X106296250Y-79475000D03*
%TD*%
D15*
%TO.C,R47*%
X242827141Y-111975000D03*
X240827141Y-111975000D03*
%TD*%
%TO.C,R35*%
X242600000Y-157500000D03*
X240600000Y-157500000D03*
%TD*%
D14*
%TO.C,R15*%
X117500000Y-186250000D03*
X117500000Y-188250000D03*
%TD*%
D12*
%TO.C,Q27*%
X83709641Y-130240000D03*
X85609641Y-130240000D03*
X84659641Y-132115000D03*
%TD*%
D13*
%TO.C,Q21*%
X236327141Y-117725000D03*
X236327141Y-119625000D03*
X234452141Y-118675000D03*
%TD*%
D15*
%TO.C,R51*%
X214077141Y-112975000D03*
X212077141Y-112975000D03*
%TD*%
D16*
%TO.C,R78*%
X139977141Y-132225000D03*
X139977141Y-130225000D03*
%TD*%
%TO.C,R79*%
X157727141Y-132225000D03*
X157727141Y-130225000D03*
%TD*%
D12*
%TO.C,Q30*%
X133977141Y-130225000D03*
X135877141Y-130225000D03*
X134927141Y-132100000D03*
%TD*%
D16*
%TO.C,R22*%
X175000000Y-188250000D03*
X175000000Y-186250000D03*
%TD*%
%TO.C,R8*%
X89732500Y-183015000D03*
X89732500Y-181015000D03*
%TD*%
D12*
%TO.C,Q31*%
X149977141Y-130225000D03*
X151877141Y-130225000D03*
X150927141Y-132100000D03*
%TD*%
D16*
%TO.C,R74*%
X157727141Y-137475000D03*
X157727141Y-135475000D03*
%TD*%
D13*
%TO.C,Q14*%
X236100000Y-173350000D03*
X236100000Y-175250000D03*
X234225000Y-174300000D03*
%TD*%
%TO.C,Q40*%
X236146250Y-82075000D03*
X236146250Y-83975000D03*
X234271250Y-83025000D03*
%TD*%
D15*
%TO.C,R88*%
X242396250Y-50975000D03*
X240396250Y-50975000D03*
%TD*%
D14*
%TO.C,R9*%
X84482500Y-186265000D03*
X84482500Y-188265000D03*
%TD*%
D16*
%TO.C,R11*%
X106500000Y-183000000D03*
X106500000Y-181000000D03*
%TD*%
D14*
%TO.C,R114*%
X99796250Y-84725000D03*
X99796250Y-86725000D03*
%TD*%
D12*
%TO.C,Q43*%
X83278750Y-79490000D03*
X85178750Y-79490000D03*
X84228750Y-81365000D03*
%TD*%
D14*
%TO.C,R113*%
X84278750Y-84740000D03*
X84278750Y-86740000D03*
%TD*%
D12*
%TO.C,Q5*%
X116500000Y-181000000D03*
X118400000Y-181000000D03*
X117450000Y-182875000D03*
%TD*%
D14*
%TO.C,R24*%
X167250000Y-186250000D03*
X167250000Y-188250000D03*
%TD*%
D13*
%TO.C,Q15*%
X236225000Y-178550000D03*
X236225000Y-180450000D03*
X234350000Y-179500000D03*
%TD*%
D16*
%TO.C,R108*%
X76028750Y-81490000D03*
X76028750Y-79490000D03*
%TD*%
D12*
%TO.C,Q7*%
X149750000Y-181000000D03*
X151650000Y-181000000D03*
X150700000Y-182875000D03*
%TD*%
D13*
%TO.C,Q9*%
X236850000Y-147500000D03*
X236850000Y-149400000D03*
X234975000Y-148450000D03*
%TD*%
D18*
%TO.C,C1*%
X198887500Y-190250000D03*
X196812500Y-190250000D03*
%TD*%
D14*
%TO.C,R83*%
X117727141Y-135475000D03*
X117727141Y-137475000D03*
%TD*%
D11*
%TO.C,U19*%
X253400000Y-169890000D03*
X253400000Y-168620000D03*
X253400000Y-167350000D03*
X253400000Y-166080000D03*
X253400000Y-164810000D03*
X253400000Y-163540000D03*
X253400000Y-162270000D03*
X253400000Y-161000000D03*
X258350000Y-161000000D03*
X258350000Y-162270000D03*
X258350000Y-163540000D03*
X258350000Y-164810000D03*
X258350000Y-166080000D03*
X258350000Y-167350000D03*
X258350000Y-168620000D03*
X258350000Y-169890000D03*
%TD*%
D12*
%TO.C,Q3*%
X83482500Y-181015000D03*
X85382500Y-181015000D03*
X84432500Y-182890000D03*
%TD*%
D16*
%TO.C,R10*%
X106500000Y-188250000D03*
X106500000Y-186250000D03*
%TD*%
D15*
%TO.C,R91*%
X213646250Y-46725000D03*
X211646250Y-46725000D03*
%TD*%
%TO.C,R58*%
X213827141Y-131225000D03*
X211827141Y-131225000D03*
%TD*%
D19*
%TO.C,FB1*%
X203650000Y-190250000D03*
X201350000Y-190250000D03*
%TD*%
D15*
%TO.C,R34*%
X242600000Y-152500000D03*
X240600000Y-152500000D03*
%TD*%
%TO.C,R90*%
X242396250Y-61225000D03*
X240396250Y-61225000D03*
%TD*%
%TO.C,R44*%
X243077141Y-96725000D03*
X241077141Y-96725000D03*
%TD*%
D14*
%TO.C,R85*%
X150977141Y-135475000D03*
X150977141Y-137475000D03*
%TD*%
D15*
%TO.C,R57*%
X214077141Y-126225000D03*
X212077141Y-126225000D03*
%TD*%
D16*
%TO.C,R63*%
X106727141Y-137475000D03*
X106727141Y-135475000D03*
%TD*%
D19*
%TO.C,FB3*%
X203446250Y-88725000D03*
X201146250Y-88725000D03*
%TD*%
D12*
%TO.C,Q44*%
X98796250Y-79475000D03*
X100696250Y-79475000D03*
X99746250Y-81350000D03*
%TD*%
D15*
%TO.C,R45*%
X242827141Y-101725000D03*
X240827141Y-101725000D03*
%TD*%
D16*
%TO.C,R116*%
X139546250Y-86725000D03*
X139546250Y-84725000D03*
%TD*%
D15*
%TO.C,R130*%
X264750000Y-45375000D03*
X262750000Y-45375000D03*
%TD*%
D14*
%TO.C,R2*%
X60000000Y-186250000D03*
X60000000Y-188250000D03*
%TD*%
D13*
%TO.C,Q18*%
X237202141Y-101575000D03*
X237202141Y-103475000D03*
X235327141Y-102525000D03*
%TD*%
D15*
%TO.C,R33*%
X242850000Y-147500000D03*
X240850000Y-147500000D03*
%TD*%
D16*
%TO.C,R104*%
X76028750Y-86740000D03*
X76028750Y-84740000D03*
%TD*%
D13*
%TO.C,Q23*%
X236452141Y-127775000D03*
X236452141Y-129675000D03*
X234577141Y-128725000D03*
%TD*%
%TO.C,Q38*%
X235896250Y-71825000D03*
X235896250Y-73725000D03*
X234021250Y-72775000D03*
%TD*%
D12*
%TO.C,Q4*%
X99000000Y-181000000D03*
X100900000Y-181000000D03*
X99950000Y-182875000D03*
%TD*%
D16*
%TO.C,R123*%
X174796250Y-81475000D03*
X174796250Y-79475000D03*
%TD*%
D15*
%TO.C,R93*%
X213646250Y-56975000D03*
X211646250Y-56975000D03*
%TD*%
%TO.C,R32*%
X213600000Y-187000000D03*
X211600000Y-187000000D03*
%TD*%
D16*
%TO.C,R5*%
X76232500Y-183015000D03*
X76232500Y-181015000D03*
%TD*%
D15*
%TO.C,R100*%
X213646250Y-75475000D03*
X211646250Y-75475000D03*
%TD*%
D16*
%TO.C,R65*%
X76459641Y-132240000D03*
X76459641Y-130240000D03*
%TD*%
D15*
%TO.C,R55*%
X242577141Y-132725000D03*
X240577141Y-132725000D03*
%TD*%
D12*
%TO.C,Q41*%
X58796250Y-79475000D03*
X60696250Y-79475000D03*
X59746250Y-81350000D03*
%TD*%
%TO.C,Q47*%
X149546250Y-79475000D03*
X151446250Y-79475000D03*
X150496250Y-81350000D03*
%TD*%
D15*
%TO.C,R54*%
X242577141Y-127725000D03*
X240577141Y-127725000D03*
%TD*%
D12*
%TO.C,Q42*%
X69828750Y-79615000D03*
X71728750Y-79615000D03*
X70778750Y-81490000D03*
%TD*%
D13*
%TO.C,Q37*%
X235896250Y-66975000D03*
X235896250Y-68875000D03*
X234021250Y-67925000D03*
%TD*%
D17*
%TO.C,U18*%
X207380000Y-169250000D03*
X207380000Y-171790000D03*
X207380000Y-174330000D03*
X207380000Y-176870000D03*
X207380000Y-179410000D03*
X207380000Y-181950000D03*
X207380000Y-184490000D03*
X207380000Y-187030000D03*
X197850000Y-187030000D03*
X197850000Y-184490000D03*
X197850000Y-181950000D03*
X197850000Y-179410000D03*
X197850000Y-176870000D03*
X197850000Y-174330000D03*
X197850000Y-171790000D03*
X197850000Y-169250000D03*
%TD*%
D15*
%TO.C,R37*%
X242350000Y-168500000D03*
X240350000Y-168500000D03*
%TD*%
D13*
%TO.C,Q35*%
X236396250Y-55975000D03*
X236396250Y-57875000D03*
X234521250Y-56925000D03*
%TD*%
D16*
%TO.C,R73*%
X139977141Y-137475000D03*
X139977141Y-135475000D03*
%TD*%
D15*
%TO.C,R59*%
X213827141Y-136225000D03*
X211827141Y-136225000D03*
%TD*%
%TO.C,R30*%
X213850000Y-177000000D03*
X211850000Y-177000000D03*
%TD*%
D16*
%TO.C,R19*%
X157500000Y-188250000D03*
X157500000Y-186250000D03*
%TD*%
%TO.C,R67*%
X106727141Y-132225000D03*
X106727141Y-130225000D03*
%TD*%
D17*
%TO.C,U17*%
X207380000Y-145750000D03*
X207380000Y-148290000D03*
X207380000Y-150830000D03*
X207380000Y-153370000D03*
X207380000Y-155910000D03*
X207380000Y-158450000D03*
X207380000Y-160990000D03*
X207380000Y-163530000D03*
X197850000Y-163530000D03*
X197850000Y-160990000D03*
X197850000Y-158450000D03*
X197850000Y-155910000D03*
X197850000Y-153370000D03*
X197850000Y-150830000D03*
X197850000Y-148290000D03*
X197850000Y-145750000D03*
%TD*%
D14*
%TO.C,R126*%
X117296250Y-84725000D03*
X117296250Y-86725000D03*
%TD*%
D16*
%TO.C,R118*%
X174796250Y-86725000D03*
X174796250Y-84725000D03*
%TD*%
%TO.C,R103*%
X63546250Y-86725000D03*
X63546250Y-84725000D03*
%TD*%
D14*
%TO.C,R128*%
X150546250Y-84725000D03*
X150546250Y-86725000D03*
%TD*%
D13*
%TO.C,Q13*%
X236100000Y-168500000D03*
X236100000Y-170400000D03*
X234225000Y-169450000D03*
%TD*%
%TO.C,Q20*%
X236639641Y-111975000D03*
X236639641Y-113875000D03*
X234764641Y-112925000D03*
%TD*%
D14*
%TO.C,R71*%
X100227141Y-135475000D03*
X100227141Y-137475000D03*
%TD*%
D13*
%TO.C,Q16*%
X236350000Y-183600000D03*
X236350000Y-185500000D03*
X234475000Y-184550000D03*
%TD*%
%TO.C,Q22*%
X236327141Y-122575000D03*
X236327141Y-124475000D03*
X234452141Y-123525000D03*
%TD*%
D15*
%TO.C,R98*%
X242146250Y-81975000D03*
X240146250Y-81975000D03*
%TD*%
D16*
%TO.C,R77*%
X125227141Y-131975000D03*
X125227141Y-129975000D03*
%TD*%
%TO.C,R23*%
X175000000Y-183000000D03*
X175000000Y-181000000D03*
%TD*%
%TO.C,R122*%
X157296250Y-81475000D03*
X157296250Y-79475000D03*
%TD*%
%TO.C,R14*%
X125000000Y-182750000D03*
X125000000Y-180750000D03*
%TD*%
%TO.C,R13*%
X125000000Y-188000000D03*
X125000000Y-186000000D03*
%TD*%
D15*
%TO.C,R40*%
X242350000Y-183500000D03*
X240350000Y-183500000D03*
%TD*%
D13*
%TO.C,Q33*%
X236646250Y-45975000D03*
X236646250Y-47875000D03*
X234771250Y-46925000D03*
%TD*%
D15*
%TO.C,R48*%
X214077141Y-97475000D03*
X212077141Y-97475000D03*
%TD*%
D14*
%TO.C,R69*%
X71209641Y-135490000D03*
X71209641Y-137490000D03*
%TD*%
%TO.C,R84*%
X134977141Y-135475000D03*
X134977141Y-137475000D03*
%TD*%
D15*
%TO.C,R94*%
X213646250Y-62225000D03*
X211646250Y-62225000D03*
%TD*%
%TO.C,R92*%
X213646250Y-51725000D03*
X211646250Y-51725000D03*
%TD*%
D16*
%TO.C,R61*%
X76459641Y-137490000D03*
X76459641Y-135490000D03*
%TD*%
%TO.C,R120*%
X124796250Y-81225000D03*
X124796250Y-79225000D03*
%TD*%
D15*
%TO.C,R26*%
X213850000Y-153250000D03*
X211850000Y-153250000D03*
%TD*%
D16*
%TO.C,R105*%
X89528750Y-86740000D03*
X89528750Y-84740000D03*
%TD*%
D14*
%TO.C,R6*%
X70982500Y-186265000D03*
X70982500Y-188265000D03*
%TD*%
D13*
%TO.C,Q12*%
X236412500Y-162750000D03*
X236412500Y-164650000D03*
X234537500Y-163700000D03*
%TD*%
D15*
%TO.C,R95*%
X242146250Y-66975000D03*
X240146250Y-66975000D03*
%TD*%
D12*
%TO.C,Q1*%
X59000000Y-181000000D03*
X60900000Y-181000000D03*
X59950000Y-182875000D03*
%TD*%
D13*
%TO.C,Q24*%
X236577141Y-132825000D03*
X236577141Y-134725000D03*
X234702141Y-133775000D03*
%TD*%
M02*
