%TF.GenerationSoftware,KiCad,Pcbnew,10.0.5*%
%TF.CreationDate,2026-09-21T15:49:40+02:00*%
%TF.ProjectId,simdir,73696d64-6972-42e6-9b69-6361645f7063,rev?*%
%TF.SameCoordinates,Original*%
%TF.FileFunction,Copper,L2,Inr*%
%TF.FilePolarity,Positive*%
%FSLAX46Y46*%
G04 Gerber Fmt 4.6, Leading zero omitted, Abs format (unit mm)*
G04 Created by KiCad (PCBNEW 10.0.5) date 2026-09-21 15:49:40*
%MOMM*%
%LPD*%
G01*
G04 APERTURE LIST*
G04 Aperture macros list*
%AMRoundRect*
0 Rectangle with rounded corners*
0 $1 Rounding radius*
0 $2 $3 $4 $5 $6 $7 $8 $9 X,Y pos of 4 corners*
0 Add a 4 corners polygon primitive as box body*
4,1,4,$2,$3,$4,$5,$6,$7,$8,$9,$2,$3,0*
0 Add four circle primitives for the rounded corners*
1,1,$1+$1,$2,$3*
1,1,$1+$1,$4,$5*
1,1,$1+$1,$6,$7*
1,1,$1+$1,$8,$9*
0 Add four rect primitives between the rounded corners*
20,1,$1+$1,$2,$3,$4,$5,0*
20,1,$1+$1,$4,$5,$6,$7,0*
20,1,$1+$1,$6,$7,$8,$9,0*
20,1,$1+$1,$8,$9,$2,$3,0*%
G04 Aperture macros list end*
%TA.AperFunction,ComponentPad*%
%ADD10RoundRect,0.250000X-0.550000X-0.550000X0.550000X-0.550000X0.550000X0.550000X-0.550000X0.550000X0*%
%TD*%
%TA.AperFunction,ComponentPad*%
%ADD11C,1.600000*%
%TD*%
%TA.AperFunction,ComponentPad*%
%ADD12C,0.900000*%
%TD*%
%TA.AperFunction,ComponentPad*%
%ADD13C,8.600000*%
%TD*%
%TA.AperFunction,ComponentPad*%
%ADD14R,1.700000X1.700000*%
%TD*%
%TA.AperFunction,ComponentPad*%
%ADD15C,1.700000*%
%TD*%
%TA.AperFunction,ComponentPad*%
%ADD16R,2.000000X1.905000*%
%TD*%
%TA.AperFunction,ComponentPad*%
%ADD17O,2.000000X1.905000*%
%TD*%
%TA.AperFunction,ComponentPad*%
%ADD18C,1.300000*%
%TD*%
%TA.AperFunction,ViaPad*%
%ADD19C,0.600000*%
%TD*%
G04 APERTURE END LIST*
D10*
%TO.N,Net-(Q13-C)*%
%TO.C,SWMSB1*%
X221230000Y-169420000D03*
D11*
%TO.N,DIG_GND*%
X221230000Y-171960000D03*
%TO.N,Net-(Q15-C)*%
X221230000Y-174500000D03*
%TO.N,Net-(Q14-C)*%
X228850000Y-174500000D03*
%TO.N,DIG_GND*%
X228850000Y-171960000D03*
%TO.N,Net-(Q16-C)*%
X228850000Y-169420000D03*
%TD*%
D10*
%TO.N,Net-(Q33-C)*%
%TO.C,SWLSB3*%
X220836250Y-57685000D03*
D11*
%TO.N,DIG_GND*%
X220836250Y-60225000D03*
%TO.N,Net-(Q35-C)*%
X220836250Y-62765000D03*
%TO.N,Net-(Q34-C)*%
X228456250Y-62765000D03*
%TO.N,DIG_GND*%
X228456250Y-60225000D03*
%TO.N,Net-(Q36-C)*%
X228456250Y-57685000D03*
%TD*%
%TO.N,Net-(J6-Pin_1)*%
%TO.C,C7*%
X211900000Y-42625000D03*
%TO.N,DIG_GND*%
X211900000Y-37625000D03*
%TD*%
D12*
%TO.N,RF_GND*%
%TO.C,H4*%
X30675000Y-99050000D03*
X31619581Y-96769581D03*
X31619581Y-101330419D03*
X33900000Y-95825000D03*
D13*
X33900000Y-99050000D03*
D12*
X33900000Y-102275000D03*
X36180419Y-96769581D03*
X36180419Y-101330419D03*
X37125000Y-99050000D03*
%TD*%
D10*
%TO.N,5v*%
%TO.C,C8*%
X239100000Y-39225000D03*
D11*
%TO.N,DIG_GND*%
X241600000Y-39225000D03*
%TD*%
D12*
%TO.N,DIG_GND*%
%TO.C,H2*%
X266975000Y-187925000D03*
X267919581Y-185644581D03*
X267919581Y-190205419D03*
X270200000Y-184700000D03*
D13*
X270200000Y-187925000D03*
D12*
X270200000Y-191150000D03*
X272480419Y-185644581D03*
X272480419Y-190205419D03*
X273425000Y-187925000D03*
%TD*%
D10*
%TO.N,Net-(Q21-C)*%
%TO.C,SWMSB2*%
X221457141Y-118645000D03*
D11*
%TO.N,DIG_GND*%
X221457141Y-121185000D03*
%TO.N,Net-(Q23-C)*%
X221457141Y-123725000D03*
%TO.N,Net-(Q22-C)*%
X229077141Y-123725000D03*
%TO.N,DIG_GND*%
X229077141Y-121185000D03*
%TO.N,Net-(Q24-C)*%
X229077141Y-118645000D03*
%TD*%
D14*
%TO.N,Net-(J6-Pin_1)*%
%TO.C,J6*%
X207400000Y-37525000D03*
D15*
%TO.N,DIG_GND*%
X204860000Y-37525000D03*
%TD*%
D10*
%TO.N,Net-(Q17-C)*%
%TO.C,SWLSB2*%
X221267141Y-108435000D03*
D11*
%TO.N,DIG_GND*%
X221267141Y-110975000D03*
%TO.N,Net-(Q19-C)*%
X221267141Y-113515000D03*
%TO.N,Net-(Q18-C)*%
X228887141Y-113515000D03*
%TO.N,DIG_GND*%
X228887141Y-110975000D03*
%TO.N,Net-(Q20-C)*%
X228887141Y-108435000D03*
%TD*%
D14*
%TO.N,5v*%
%TO.C,J4*%
X258700000Y-38485000D03*
D15*
%TO.N,/channel1/DIN*%
X258700000Y-41025000D03*
%TO.N,/channel1/CLK*%
X256160000Y-38485000D03*
%TO.N,/channel1/ENABLE*%
X256160000Y-41025000D03*
%TO.N,/channel1/RESET*%
X253620000Y-38485000D03*
%TO.N,/channel1/RCLK*%
X253620000Y-41025000D03*
%TO.N,DIG_GND*%
X251080000Y-38485000D03*
X251080000Y-41025000D03*
%TD*%
D16*
%TO.N,Net-(J6-Pin_1)*%
%TO.C,U58*%
X234500000Y-43105000D03*
D17*
%TO.N,DIG_GND*%
X234500000Y-40565000D03*
%TO.N,5v*%
X234500000Y-38025000D03*
%TD*%
D10*
%TO.N,Net-(Q9-C)*%
%TO.C,SWLSB1*%
X221040000Y-159210000D03*
D11*
%TO.N,DIG_GND*%
X221040000Y-161750000D03*
%TO.N,Net-(Q11-C)*%
X221040000Y-164290000D03*
%TO.N,Net-(Q10-C)*%
X228660000Y-164290000D03*
%TO.N,DIG_GND*%
X228660000Y-161750000D03*
%TO.N,Net-(Q12-C)*%
X228660000Y-159210000D03*
%TD*%
D12*
%TO.N,RF_GND*%
%TO.C,H3*%
X30675000Y-150450000D03*
X31619581Y-148169581D03*
X31619581Y-152730419D03*
X33900000Y-147225000D03*
D13*
X33900000Y-150450000D03*
D12*
X33900000Y-153675000D03*
X36180419Y-148169581D03*
X36180419Y-152730419D03*
X37125000Y-150450000D03*
%TD*%
D18*
%TO.N,DIG_GND*%
%TO.C,NT1*%
X204100000Y-40525000D03*
%TO.N,RF_GND*%
X201500000Y-40525000D03*
%TD*%
D10*
%TO.N,Net-(Q37-C)*%
%TO.C,SWMSB3*%
X221026250Y-67895000D03*
D11*
%TO.N,DIG_GND*%
X221026250Y-70435000D03*
%TO.N,Net-(Q39-C)*%
X221026250Y-72975000D03*
%TO.N,Net-(Q38-C)*%
X228646250Y-72975000D03*
%TO.N,DIG_GND*%
X228646250Y-70435000D03*
%TO.N,Net-(Q40-C)*%
X228646250Y-67895000D03*
%TD*%
D12*
%TO.N,DIG_GND*%
%TO.C,H1*%
X267775000Y-40825000D03*
X268719581Y-38544581D03*
X268719581Y-43105419D03*
X271000000Y-37600000D03*
D13*
X271000000Y-40825000D03*
D12*
X271000000Y-44050000D03*
X273280419Y-38544581D03*
X273280419Y-43105419D03*
X274225000Y-40825000D03*
%TD*%
D19*
%TO.N,RF_GND*%
X123000000Y-133525000D03*
X116482500Y-169515000D03*
X136250000Y-48875000D03*
X103750000Y-187000000D03*
X70182500Y-68190000D03*
X186950000Y-80425000D03*
X40932500Y-83925000D03*
X75732500Y-173765000D03*
X73450000Y-77925000D03*
X181200000Y-135925000D03*
X52750000Y-39625000D03*
X136232500Y-167265000D03*
X180450000Y-74675000D03*
X98432500Y-59940000D03*
X37500000Y-69325000D03*
X33050000Y-186500000D03*
X52000000Y-157625000D03*
X87932500Y-65440000D03*
X51200000Y-87675000D03*
X122100000Y-135800000D03*
X103450000Y-72175000D03*
X177732500Y-162265000D03*
X103450000Y-77925000D03*
X75250000Y-42625000D03*
X31027141Y-136975000D03*
X136582500Y-113565000D03*
X194500000Y-65375000D03*
X145600000Y-133425000D03*
X131000000Y-82925000D03*
X34000000Y-45125000D03*
X189250000Y-190250000D03*
X118500000Y-51875000D03*
X190000000Y-171750000D03*
X131332500Y-121065000D03*
X41232500Y-175515000D03*
X151832500Y-110565000D03*
X132500000Y-45375000D03*
X51832500Y-132065000D03*
X136700000Y-56025000D03*
X151500000Y-92375000D03*
X171200000Y-80425000D03*
X189750000Y-187000000D03*
X130000000Y-42625000D03*
X128432500Y-70440000D03*
X171500000Y-182000000D03*
X66232500Y-169765000D03*
X121450000Y-77925000D03*
X34250000Y-38625000D03*
X200500000Y-124875000D03*
X87250000Y-181750000D03*
X138900000Y-87925000D03*
X147982500Y-165765000D03*
X180350000Y-104925000D03*
X86950000Y-80175000D03*
X200000000Y-81875000D03*
X173682500Y-58690000D03*
X131500000Y-85525000D03*
X55100000Y-82925000D03*
X120182500Y-67940000D03*
X154000000Y-101875000D03*
X48750000Y-185750000D03*
X193500000Y-39375000D03*
X83332500Y-109815000D03*
X86500000Y-39375000D03*
X200000000Y-85875000D03*
X106682500Y-59940000D03*
X170600000Y-157625000D03*
X27846250Y-86225000D03*
X104100000Y-136050000D03*
X189982500Y-163515000D03*
X146250000Y-39375000D03*
X63650000Y-130975000D03*
X156432500Y-68440000D03*
X54750000Y-45125000D03*
X79750000Y-39375000D03*
X100732500Y-160515000D03*
X157082500Y-112315000D03*
X155700000Y-133475000D03*
X103750000Y-179500000D03*
X97750000Y-36375000D03*
X111200000Y-62690000D03*
X98732500Y-164515000D03*
X190332500Y-125800000D03*
X179450000Y-83050000D03*
X104100000Y-131050000D03*
X200250000Y-55625000D03*
X101500000Y-39375000D03*
X189700000Y-70175000D03*
X142750000Y-36125000D03*
X37400000Y-64125000D03*
X74100000Y-130800000D03*
X81500000Y-133475000D03*
X171500000Y-189750000D03*
X167732500Y-162015000D03*
X103750000Y-173750000D03*
X121750000Y-179500000D03*
X120082500Y-109815000D03*
X117182500Y-60940000D03*
X122200000Y-87825000D03*
X62600000Y-128550000D03*
X164750000Y-98125000D03*
X43082500Y-109815000D03*
X200250000Y-149625000D03*
X85700000Y-56025000D03*
X188082500Y-112565000D03*
X122100000Y-123050000D03*
X90500000Y-48875000D03*
X183000000Y-50375000D03*
X136232500Y-161015000D03*
X154732500Y-165765000D03*
X179500000Y-101375000D03*
X170000000Y-36125000D03*
X109750000Y-45875000D03*
X129082500Y-121065000D03*
X68500000Y-136050000D03*
X181250000Y-52375000D03*
X194000000Y-147125000D03*
X172500000Y-39625000D03*
X174332500Y-109315000D03*
X52400000Y-106625000D03*
X187582500Y-118315000D03*
X82982500Y-160765000D03*
X187232500Y-175765000D03*
X41582500Y-119565000D03*
X63432500Y-60940000D03*
X33596250Y-73475000D03*
X122100000Y-131050000D03*
X190227141Y-97475000D03*
X171850000Y-133550000D03*
X138700000Y-85425000D03*
X112500000Y-36375000D03*
X51500000Y-189250000D03*
X150932500Y-61940000D03*
X102432500Y-58940000D03*
X137850000Y-128550000D03*
X171250000Y-49625000D03*
X166250000Y-39375000D03*
X187232500Y-169265000D03*
X75732500Y-164515000D03*
X51182500Y-66690000D03*
X90682500Y-72190000D03*
X73832500Y-116065000D03*
X56000000Y-42625000D03*
X121450000Y-80425000D03*
X159750000Y-39375000D03*
X74350000Y-126050000D03*
X33800000Y-175000000D03*
X74800000Y-136125000D03*
X181182500Y-58690000D03*
X122200000Y-85225000D03*
X187250000Y-156125000D03*
X151000000Y-49625000D03*
X88232500Y-167015000D03*
X146000000Y-51875000D03*
X184000000Y-92375000D03*
X96300000Y-135975000D03*
X151582500Y-112565000D03*
X171200000Y-75425000D03*
X178432500Y-70190000D03*
X91332500Y-113565000D03*
X137100000Y-157625000D03*
X73700000Y-75425000D03*
X164000000Y-42625000D03*
X108250000Y-51875000D03*
X171500000Y-184500000D03*
X135932500Y-62940000D03*
X103750000Y-182000000D03*
X104800000Y-85425000D03*
X87600000Y-128550000D03*
X76082500Y-122815000D03*
X93500000Y-39375000D03*
X135932500Y-65690000D03*
X38500000Y-45425000D03*
X145250000Y-184375000D03*
X140232500Y-161515000D03*
X174500000Y-102875000D03*
X120250000Y-36125000D03*
X101482500Y-162515000D03*
X146550000Y-135975000D03*
X67500000Y-48875000D03*
X128732500Y-172015000D03*
X85600000Y-157625000D03*
X82932500Y-65440000D03*
X125350000Y-115065000D03*
X80432500Y-62940000D03*
X144482500Y-165765000D03*
X86982500Y-162015000D03*
X137500000Y-179500000D03*
X33800000Y-178000000D03*
X154500000Y-177000000D03*
X115850000Y-109800000D03*
X151332500Y-117065000D03*
X38600000Y-125225000D03*
X200250000Y-71625000D03*
X130350000Y-133425000D03*
X194500000Y-108875000D03*
X104100000Y-122800000D03*
X88300000Y-87725000D03*
X115332500Y-120565000D03*
X41582500Y-114815000D03*
X154850000Y-131050000D03*
X51482500Y-178015000D03*
X186932500Y-74190000D03*
X138900000Y-83025000D03*
X70832500Y-118815000D03*
X122200000Y-82925000D03*
X189796250Y-46725000D03*
X63750000Y-39625000D03*
X177500000Y-49625000D03*
X116250000Y-39375000D03*
X120832500Y-118565000D03*
X174250000Y-96125000D03*
X103932500Y-65440000D03*
X55432500Y-63690000D03*
X191500000Y-36125000D03*
X194250000Y-60625000D03*
X43750000Y-40125000D03*
X67250000Y-184625000D03*
X73750000Y-184500000D03*
X43750000Y-42375000D03*
X137200000Y-75425000D03*
X189682500Y-75175000D03*
X54750000Y-48125000D03*
X41750000Y-39125000D03*
X194250000Y-115125000D03*
X148500000Y-95875000D03*
X93232500Y-167015000D03*
X83582500Y-116065000D03*
X155082500Y-114815000D03*
X123432500Y-59190000D03*
X80982500Y-173765000D03*
X67250000Y-36125000D03*
X105232500Y-160515000D03*
X88582500Y-116065000D03*
X154200000Y-77925000D03*
X155600000Y-82925000D03*
X158000000Y-49625000D03*
X34000000Y-42625000D03*
X87332500Y-111065000D03*
X138800000Y-136025000D03*
X177250000Y-98125000D03*
X112750000Y-42625000D03*
X171200000Y-77925000D03*
X163550000Y-135875000D03*
X119432500Y-59190000D03*
X83000000Y-42625000D03*
X187250000Y-187000000D03*
X116832500Y-118565000D03*
X69332500Y-111565000D03*
X138800000Y-138550000D03*
X51700000Y-56025000D03*
X189796250Y-51725000D03*
X137500000Y-187000000D03*
X71500000Y-45875000D03*
X84832500Y-111065000D03*
X86300000Y-106625000D03*
X172250000Y-42625000D03*
X112250000Y-184625000D03*
X190000000Y-148250000D03*
X79250000Y-45875000D03*
X74800000Y-138225000D03*
X65932500Y-68190000D03*
X137200000Y-80425000D03*
X114082500Y-111815000D03*
X139482500Y-168515000D03*
X139182500Y-62190000D03*
X160750000Y-96125000D03*
X124700000Y-64440000D03*
X194000000Y-55625000D03*
X136582500Y-116315000D03*
X86332500Y-109065000D03*
X200250000Y-93125000D03*
X200500000Y-98875000D03*
X144832500Y-118815000D03*
X103450000Y-75425000D03*
X136582500Y-110065000D03*
X187500000Y-42625000D03*
X186950000Y-85425000D03*
X194000000Y-93375000D03*
X187732500Y-163515000D03*
X81850000Y-135725000D03*
X135932500Y-59440000D03*
X154300000Y-106625000D03*
X154000000Y-51875000D03*
X200250000Y-154625000D03*
X148500000Y-97925000D03*
X113550000Y-136025000D03*
X190000000Y-158500000D03*
X157082500Y-119065000D03*
X51500000Y-187000000D03*
X40700000Y-54450000D03*
X179700000Y-54300000D03*
X190227141Y-102475000D03*
X103200000Y-106625000D03*
X125000000Y-166015000D03*
X121750000Y-186750000D03*
X200500000Y-134875000D03*
X84182500Y-60440000D03*
X122100000Y-128550000D03*
X38600000Y-109925000D03*
X90000000Y-42625000D03*
X87250000Y-189750000D03*
X200000000Y-60625000D03*
X104700000Y-82925000D03*
X137500000Y-182000000D03*
X180000000Y-155875000D03*
X200000000Y-65375000D03*
X114682500Y-69940000D03*
X181832500Y-109315000D03*
X73750000Y-189750000D03*
X63000000Y-42875000D03*
X82682500Y-59190000D03*
X155800000Y-87925000D03*
X129250000Y-36125000D03*
X78232500Y-167015000D03*
X31300000Y-173500000D03*
X171500000Y-187000000D03*
X142500000Y-42625000D03*
X170082500Y-117065000D03*
X180750000Y-157875000D03*
X99082500Y-118315000D03*
X189450000Y-85425000D03*
X33527141Y-132975000D03*
X40900000Y-105525000D03*
X122100000Y-138300000D03*
X58432500Y-60940000D03*
X76082500Y-113565000D03*
X154432500Y-64190000D03*
X59750000Y-45125000D03*
X137500000Y-184500000D03*
X154200000Y-75425000D03*
X158000000Y-92375000D03*
X117482500Y-162515000D03*
X189682500Y-61940000D03*
X154500000Y-96125000D03*
X187600000Y-105175000D03*
X177432500Y-60690000D03*
X162250000Y-184375000D03*
X55750000Y-36125000D03*
X51850000Y-136050000D03*
X121832500Y-111565000D03*
X160500000Y-51875000D03*
X194000000Y-50625000D03*
X40932500Y-78940000D03*
X194500000Y-76625000D03*
X119600000Y-56025000D03*
X72000000Y-51875000D03*
X58732500Y-162515000D03*
X144482500Y-172015000D03*
X149750000Y-36125000D03*
X87250000Y-187000000D03*
X174750000Y-36125000D03*
X154500000Y-187000000D03*
X134732500Y-168765000D03*
X93582500Y-116065000D03*
X187432500Y-61940000D03*
X125500000Y-45125000D03*
X186850000Y-138550000D03*
X51832500Y-117315000D03*
X87600000Y-126050000D03*
X140082500Y-115065000D03*
X86682500Y-60440000D03*
X83000000Y-36375000D03*
X120250000Y-42625000D03*
X81332500Y-122815000D03*
X95350000Y-133675000D03*
X28527141Y-122725000D03*
X85982500Y-160015000D03*
X137500000Y-172000000D03*
X62750000Y-50375000D03*
X124082500Y-109815000D03*
X194000000Y-45625000D03*
X104232500Y-167015000D03*
X122000000Y-48875000D03*
X117832500Y-111565000D03*
X88500000Y-133275000D03*
X171500000Y-177000000D03*
X181200000Y-56300000D03*
X139432500Y-64440000D03*
X144832500Y-121065000D03*
X38300000Y-165225000D03*
X137200000Y-70425000D03*
X41582500Y-129565000D03*
X134232500Y-162765000D03*
X112600000Y-133675000D03*
X138100000Y-111300000D03*
X84482500Y-162015000D03*
X74100000Y-128550000D03*
X106982500Y-161515000D03*
X59250000Y-48125000D03*
X168082500Y-111065000D03*
X99082500Y-110565000D03*
X55732500Y-165265000D03*
X33277141Y-135725000D03*
X107332500Y-110565000D03*
X133932500Y-64190000D03*
X167182500Y-72690000D03*
X164500000Y-92375000D03*
X40932500Y-73940000D03*
X137432500Y-65690000D03*
X51832500Y-127065000D03*
X88432500Y-59190000D03*
X71250000Y-39375000D03*
X41232500Y-180515000D03*
X200500000Y-108875000D03*
X179082500Y-120815000D03*
X86950000Y-75425000D03*
X48450000Y-84175000D03*
X126932500Y-65940000D03*
X112000000Y-51875000D03*
X171800000Y-138625000D03*
X100432500Y-58940000D03*
X34027141Y-127225000D03*
X42000000Y-50375000D03*
X85982500Y-173765000D03*
X187600000Y-128550000D03*
X190100000Y-136050000D03*
X60932500Y-67440000D03*
X86750000Y-45875000D03*
X113432500Y-64440000D03*
X187500000Y-39375000D03*
X178732500Y-166765000D03*
X177250000Y-39625000D03*
X189750000Y-182000000D03*
X137750000Y-162250000D03*
X154850000Y-128550000D03*
X139482500Y-163765000D03*
X151232500Y-163515000D03*
X97000000Y-42625000D03*
X51200000Y-85425000D03*
X88732500Y-160765000D03*
X114982500Y-171515000D03*
X90982500Y-164515000D03*
X178082500Y-111315000D03*
X187250000Y-184500000D03*
X121750000Y-177000000D03*
X187250000Y-179500000D03*
X38300000Y-175525000D03*
X104800000Y-87725000D03*
X51182500Y-76440000D03*
X85682500Y-58440000D03*
X134582500Y-111815000D03*
X73182500Y-65440000D03*
X92932500Y-65440000D03*
X156750000Y-36125000D03*
X146700000Y-85425000D03*
X93750000Y-45875000D03*
X80682500Y-72190000D03*
X86082500Y-113565000D03*
X41582500Y-134550000D03*
X188950000Y-88675000D03*
X73450000Y-80175000D03*
X51182500Y-81440000D03*
X136232500Y-164515000D03*
X151750000Y-98125000D03*
X163700000Y-85325000D03*
X135082500Y-117815000D03*
X147682500Y-64190000D03*
X155900000Y-85525000D03*
X154000000Y-157625000D03*
X109250000Y-39375000D03*
X181482500Y-160265000D03*
X58250000Y-39625000D03*
X28300000Y-173500000D03*
X182500000Y-39375000D03*
X194500000Y-140625000D03*
X177250000Y-42625000D03*
X154500000Y-174500000D03*
X178732500Y-171765000D03*
X192250000Y-154875000D03*
X200500000Y-103875000D03*
X197000000Y-41125000D03*
X187600000Y-131050000D03*
X171200000Y-85425000D03*
X139182500Y-66940000D03*
X144182500Y-64190000D03*
X194250000Y-98875000D03*
X160750000Y-101625000D03*
X78250000Y-51875000D03*
X172250000Y-45125000D03*
X121450000Y-75425000D03*
X62250000Y-179500000D03*
X137732500Y-167265000D03*
X62100000Y-80325000D03*
X111200000Y-65940000D03*
X116000000Y-45125000D03*
X94700000Y-83050000D03*
X171000000Y-98125000D03*
X98732500Y-169265000D03*
X194250000Y-134875000D03*
X34250000Y-49625000D03*
X156500000Y-42625000D03*
X154200000Y-72925000D03*
X154500000Y-182000000D03*
X38200000Y-170625000D03*
X103750000Y-184500000D03*
X102500000Y-56025000D03*
X138750000Y-133625000D03*
X139732500Y-166015000D03*
X37400000Y-59125000D03*
X105582500Y-109565000D03*
X75100000Y-85325000D03*
X186500000Y-96125000D03*
X115500000Y-160750000D03*
X127232500Y-167515000D03*
X127232500Y-164515000D03*
X99082500Y-113565000D03*
X75000000Y-87925000D03*
X50000000Y-36125000D03*
X154850000Y-138550000D03*
X181500000Y-96125000D03*
X154500000Y-184500000D03*
X101082500Y-109565000D03*
X134232500Y-165765000D03*
X41232500Y-165765000D03*
X40932500Y-64190000D03*
X106000000Y-48875000D03*
X92000000Y-51875000D03*
X37700000Y-77025000D03*
X33300000Y-183750000D03*
X113432500Y-67940000D03*
X121750000Y-182000000D03*
X38400000Y-179125000D03*
X47750000Y-45125000D03*
X111850000Y-116565000D03*
X167432500Y-60440000D03*
X117932500Y-69440000D03*
X136500000Y-36125000D03*
X41232500Y-170515000D03*
X197500000Y-143625000D03*
X69200000Y-106625000D03*
X31750000Y-51375000D03*
X41232500Y-185500000D03*
X120300000Y-106625000D03*
X154850000Y-136050000D03*
X51482500Y-173265000D03*
X171000000Y-106625000D03*
X111950000Y-83050000D03*
X63732500Y-162515000D03*
X178025000Y-51467500D03*
X83232500Y-167015000D03*
X38600000Y-119725000D03*
X157000000Y-98125000D03*
X127582500Y-116565000D03*
X137500000Y-106625000D03*
X119800000Y-157625000D03*
X56082500Y-114315000D03*
X28096250Y-71975000D03*
X75432500Y-62940000D03*
X140582500Y-110565000D03*
X194250000Y-129875000D03*
X186950000Y-77925000D03*
X189450000Y-80425000D03*
X125350000Y-111800000D03*
X66582500Y-118815000D03*
X28277141Y-136975000D03*
X81800000Y-83050000D03*
X113600000Y-85425000D03*
X104182500Y-60940000D03*
X96500000Y-48875000D03*
X187250000Y-182000000D03*
X75250000Y-36375000D03*
X38200000Y-158725000D03*
X186950000Y-82925000D03*
X75432500Y-72190000D03*
X114082500Y-115065000D03*
X124700000Y-61175000D03*
X139832500Y-117565000D03*
X129500000Y-48875000D03*
X60750000Y-36125000D03*
X200250000Y-50625000D03*
X179082500Y-115815000D03*
X91332500Y-122815000D03*
X190000000Y-153250000D03*
X47750000Y-42625000D03*
X200500000Y-119875000D03*
X137450000Y-60675000D03*
X118582500Y-120065000D03*
X57750000Y-50375000D03*
X187600000Y-136050000D03*
X38600000Y-114925000D03*
X127582500Y-113565000D03*
X169732500Y-168015000D03*
X101250000Y-51875000D03*
X167482500Y-174265000D03*
X85732500Y-164515000D03*
X59082500Y-111565000D03*
X87250000Y-184500000D03*
X88300000Y-85325000D03*
X56500000Y-87675000D03*
X190332500Y-112565000D03*
X42732500Y-160765000D03*
X34027141Y-124225000D03*
X114082500Y-118565000D03*
X144832500Y-123565000D03*
X179500000Y-36125000D03*
X194500000Y-87125000D03*
X67250000Y-42625000D03*
X137850000Y-121050000D03*
X194250000Y-103875000D03*
X180050000Y-108425000D03*
X51482500Y-183015000D03*
X87250000Y-179500000D03*
X75250000Y-48875000D03*
X28250000Y-36375000D03*
X200000000Y-45625000D03*
X104832500Y-111565000D03*
X164500000Y-49625000D03*
X104582500Y-116065000D03*
X33596250Y-76475000D03*
X161950000Y-82800000D03*
X61950000Y-77925000D03*
X167832500Y-123315000D03*
X153732500Y-162515000D03*
X41582500Y-124565000D03*
X88500000Y-136050000D03*
X171500000Y-92375000D03*
X187600000Y-133550000D03*
X146000000Y-47375000D03*
X151182500Y-59940000D03*
X126000000Y-51875000D03*
X189700000Y-56925000D03*
X103450000Y-80425000D03*
X130682500Y-70440000D03*
X90000000Y-36375000D03*
X194250000Y-124875000D03*
X102732500Y-160515000D03*
X51832500Y-122315000D03*
X183700000Y-74675000D03*
X49100000Y-134800000D03*
X98432500Y-62940000D03*
X194500000Y-152125000D03*
X105250000Y-42625000D03*
X200500000Y-129875000D03*
X113732500Y-166015000D03*
X197750000Y-115125000D03*
X116182500Y-67940000D03*
X111850000Y-113315000D03*
X137500000Y-189500000D03*
X142250000Y-48875000D03*
X186950000Y-54550000D03*
X154500000Y-179500000D03*
X133500000Y-51875000D03*
X137200000Y-72925000D03*
X190350000Y-120800000D03*
X68982500Y-162515000D03*
X156732500Y-163265000D03*
X144182500Y-68190000D03*
X33096250Y-82225000D03*
X31750000Y-36375000D03*
X153750000Y-39375000D03*
X73750000Y-181750000D03*
X51182500Y-71690000D03*
X75100000Y-133325000D03*
X120482500Y-169515000D03*
X150682500Y-66440000D03*
X137850000Y-123550000D03*
X111500000Y-167515000D03*
X154082500Y-111565000D03*
X87250000Y-177000000D03*
X125000000Y-162750000D03*
X179750000Y-184625000D03*
X118232500Y-171015000D03*
X68682500Y-60940000D03*
X137500000Y-177000000D03*
X178000000Y-92375000D03*
X37150000Y-55200000D03*
X104482500Y-162515000D03*
X104000000Y-138325000D03*
X173982500Y-160265000D03*
X194500000Y-119875000D03*
X194500000Y-71625000D03*
X105250000Y-36375000D03*
X150982500Y-168015000D03*
X171850000Y-128550000D03*
X96400000Y-85425000D03*
X122100000Y-126050000D03*
X163250000Y-36125000D03*
X68600000Y-85525000D03*
X51850000Y-138300000D03*
X144832500Y-114815000D03*
X103750000Y-177000000D03*
X131250000Y-135925000D03*
X51182500Y-61440000D03*
X183500000Y-101625000D03*
X124700000Y-67925000D03*
X180100000Y-133675000D03*
X51482500Y-163015000D03*
X102700000Y-157625000D03*
X195000000Y-157125000D03*
X122682500Y-70190000D03*
X139500000Y-51875000D03*
X171850000Y-136050000D03*
X136250000Y-42625000D03*
X200000000Y-76625000D03*
X130000000Y-184375000D03*
X89082500Y-109815000D03*
X137200000Y-77925000D03*
X68600000Y-56025000D03*
X171500000Y-179500000D03*
X151482500Y-161515000D03*
X154850000Y-123550000D03*
X126932500Y-62940000D03*
X43750000Y-45125000D03*
X178432500Y-65190000D03*
X31096250Y-71975000D03*
X168500000Y-42625000D03*
X121750000Y-174000000D03*
X171850000Y-131050000D03*
X51250000Y-50375000D03*
X121450000Y-72425000D03*
X174750000Y-52125000D03*
X73750000Y-179500000D03*
X189600000Y-139300000D03*
X121482500Y-162515000D03*
X125250000Y-39375000D03*
X38600000Y-42525000D03*
X121750000Y-184500000D03*
X95000000Y-184625000D03*
X80500000Y-184375000D03*
X66750000Y-51875000D03*
X137500000Y-174500000D03*
X170100000Y-56025000D03*
X123332500Y-120815000D03*
X105100000Y-133525000D03*
X87600000Y-130800000D03*
X186932500Y-67690000D03*
X31527141Y-122725000D03*
X171200000Y-88175000D03*
X68700000Y-157625000D03*
X182250000Y-42375000D03*
X134432500Y-67190000D03*
X144182500Y-72940000D03*
X133250000Y-39375000D03*
X168250000Y-52125000D03*
X73482500Y-167015000D03*
X139932500Y-59940000D03*
X98432500Y-67690000D03*
X123732500Y-160765000D03*
X61582500Y-118065000D03*
X87000000Y-51875000D03*
X125000000Y-169500000D03*
X104100000Y-126050000D03*
X119732500Y-160765000D03*
X88400000Y-138425000D03*
X90982500Y-173765000D03*
X28050000Y-187750000D03*
X40932500Y-68940000D03*
X42432500Y-59190000D03*
X101182500Y-60940000D03*
X167500000Y-102875000D03*
X190350000Y-107550000D03*
X134582500Y-114815000D03*
X64082500Y-111565000D03*
X144182500Y-70440000D03*
X73750000Y-187000000D03*
X125350000Y-118550000D03*
X138082500Y-116315000D03*
X188071250Y-54317500D03*
X189982500Y-176750000D03*
X40750000Y-46375000D03*
X85682500Y-72190000D03*
X74000000Y-177000000D03*
X111500000Y-164265000D03*
X153432500Y-60940000D03*
X171850000Y-126050000D03*
X68500000Y-83050000D03*
X171200000Y-82925000D03*
X137850000Y-126050000D03*
X144482500Y-174515000D03*
X81800000Y-85425000D03*
X121750000Y-189250000D03*
X28250000Y-51375000D03*
X121182500Y-60940000D03*
X113732500Y-169515000D03*
X86950000Y-77925000D03*
X43750000Y-36625000D03*
X156732500Y-170015000D03*
X168250000Y-96125000D03*
X185000000Y-36125000D03*
X85432500Y-62940000D03*
X51250000Y-48125000D03*
X51832500Y-112065000D03*
X103750000Y-189750000D03*
X114250000Y-48875000D03*
X122982500Y-171765000D03*
X133932500Y-61190000D03*
X40750000Y-41125000D03*
X30800000Y-187750000D03*
X80732500Y-164515000D03*
X32846250Y-84975000D03*
X64000000Y-45875000D03*
X98732500Y-161515000D03*
X104932500Y-58940000D03*
X70482500Y-169765000D03*
X156432500Y-61690000D03*
X61232500Y-169015000D03*
X154850000Y-126050000D03*
X113432500Y-61190000D03*
X139500000Y-39375000D03*
X103082500Y-109565000D03*
X190100000Y-131050000D03*
X101500000Y-45875000D03*
X83000000Y-48875000D03*
X113732500Y-162765000D03*
X90682500Y-62940000D03*
X169432500Y-66440000D03*
X30596250Y-86225000D03*
X43750000Y-47875000D03*
X194500000Y-81875000D03*
X149750000Y-42625000D03*
X181100000Y-85325000D03*
X187582500Y-124815000D03*
X81082500Y-113565000D03*
X77932500Y-65440000D03*
X51482500Y-168265000D03*
X101832500Y-111565000D03*
X154500000Y-189500000D03*
X137850000Y-131050000D03*
X148332500Y-114815000D03*
X139832500Y-112815000D03*
X78582500Y-116065000D03*
X130982500Y-172015000D03*
X154200000Y-80425000D03*
X153600000Y-56025000D03*
X181100000Y-125300000D03*
X145800000Y-82925000D03*
X86332500Y-122815000D03*
X104100000Y-128550000D03*
X144482500Y-169765000D03*
%TO.N,Net-(U60-V2)*%
X73100000Y-108325000D03*
X63570000Y-107825000D03*
%TO.N,Net-(Q26-C)*%
X64250000Y-105325000D03*
X72550000Y-104775000D03*
%TO.N,Net-(U102-V2)*%
X174950000Y-108075000D03*
X182050000Y-128525000D03*
X184950000Y-128575000D03*
X166750000Y-108110000D03*
%TO.N,Net-(Q32-C)*%
X166950000Y-104925000D03*
X174200000Y-104975000D03*
%TO.N,DIG_GND*%
X254000000Y-172875000D03*
X238600000Y-180500000D03*
X238646250Y-63225000D03*
X238396250Y-68975000D03*
X238600000Y-185500000D03*
X254250000Y-71375000D03*
X238396250Y-83975000D03*
X238896250Y-57975000D03*
X239100000Y-149500000D03*
X238850000Y-164750000D03*
X239100000Y-154250000D03*
X238827141Y-119725000D03*
X250646250Y-59475000D03*
X239327141Y-98725000D03*
X250850000Y-161000000D03*
X239327141Y-103475000D03*
X254000000Y-122125000D03*
X251077141Y-110225000D03*
X238827141Y-124475000D03*
X238896250Y-47975000D03*
X238827141Y-134725000D03*
X239327141Y-108725000D03*
X238827141Y-129725000D03*
X239100000Y-159500000D03*
X238600000Y-170500000D03*
X238396250Y-78975000D03*
X238396250Y-73725000D03*
X239077141Y-113975000D03*
X238600000Y-175250000D03*
X238896250Y-52725000D03*
%TO.N,Net-(Q14-C)*%
X218350000Y-177000000D03*
%TO.N,Net-(Q16-C)*%
X230850000Y-187000000D03*
X231600000Y-169500000D03*
%TO.N,Net-(Q47-C)*%
X150200000Y-53925000D03*
X157100000Y-53925000D03*
%TO.N,Net-(U100-V1)*%
X150200000Y-58125000D03*
X157200000Y-58125000D03*
%TO.N,Net-(Q35-C)*%
X216896250Y-56975000D03*
X230396250Y-54225000D03*
%TO.N,Net-(Q34-C)*%
X219646250Y-51725000D03*
X230896250Y-51725000D03*
%TO.N,Net-(Q43-C)*%
X82100000Y-53725000D03*
X89200000Y-53725000D03*
%TO.N,Net-(U73-V2)*%
X82000000Y-58025000D03*
X89100000Y-57725000D03*
%TO.N,Net-(Q27-C)*%
X89250000Y-104725000D03*
X82200000Y-104825000D03*
%TO.N,Net-(U72-V2)*%
X81950000Y-108925000D03*
X90300000Y-108775000D03*
%TO.N,Net-(U91-V2)*%
X133200000Y-58125000D03*
X140100000Y-58125000D03*
%TO.N,Net-(Q46-C)*%
X133100000Y-53625000D03*
X140200000Y-53825000D03*
%TO.N,Net-(Q22-C)*%
X218577141Y-126225000D03*
%TO.N,Net-(Q24-C)*%
X231077141Y-136225000D03*
X231827141Y-118725000D03*
%TO.N,Net-(Q1-C)*%
X55550000Y-155475000D03*
X47100000Y-156125000D03*
%TO.N,Net-(U62-V1)*%
X37450000Y-156775000D03*
X41000000Y-156025000D03*
X46300000Y-159925000D03*
X56150000Y-159125000D03*
%TO.N,Net-(Q30-C)*%
X133250000Y-105075000D03*
X140450000Y-104975000D03*
%TO.N,Net-(U90-V2)*%
X133550000Y-108175000D03*
X141200000Y-108075000D03*
%TO.N,Net-(Q44-C)*%
X106000000Y-53825000D03*
X99000000Y-53925000D03*
%TO.N,Net-(U79-V2)*%
X98300000Y-57725000D03*
X106500000Y-57725000D03*
%TO.N,Net-(Q45-C)*%
X123200000Y-53725000D03*
X116200000Y-53925000D03*
%TO.N,Net-(U85-V2)*%
X123100000Y-58125000D03*
X189556250Y-59465000D03*
X116100000Y-58125000D03*
%TO.N,Net-(U61-V2)*%
X63600000Y-57325000D03*
X73900000Y-57425000D03*
%TO.N,Net-(Q42-C)*%
X72000000Y-54025000D03*
X64900000Y-54325000D03*
%TO.N,Net-(Q19-C)*%
X217327141Y-107725000D03*
X230827141Y-104975000D03*
%TO.N,Net-(Q18-C)*%
X231327141Y-102475000D03*
X220077141Y-102475000D03*
%TO.N,Net-(U84-V2)*%
X126150000Y-101425000D03*
X116150000Y-108325000D03*
X124300000Y-108375000D03*
X147727141Y-100475000D03*
%TO.N,Net-(Q29-C)*%
X116150000Y-104925000D03*
X123300000Y-104875000D03*
%TO.N,Net-(Q8-C)*%
X166600000Y-155875000D03*
X173850000Y-155925000D03*
%TO.N,Net-(U101-V2)*%
X166400000Y-159060000D03*
X180750000Y-176250000D03*
X184000000Y-176250000D03*
X174600000Y-159025000D03*
%TO.N,/channel1/DIN*%
X266000000Y-167350000D03*
%TO.N,/channel1/CLK*%
X265500000Y-47625000D03*
X263000000Y-163625000D03*
X263250000Y-62125000D03*
X263250000Y-49725000D03*
X263250000Y-112875000D03*
%TO.N,/channel1/ENABLE*%
X261750000Y-49875000D03*
X261750000Y-166125000D03*
X261750000Y-115375000D03*
X261750000Y-64375000D03*
%TO.N,/channel1/RESET*%
X264500000Y-111625000D03*
X264500000Y-60875000D03*
X264500000Y-162125000D03*
%TO.N,/channel1/RCLK*%
X266800000Y-113925000D03*
X266800000Y-63425000D03*
X267000000Y-164925000D03*
X260500000Y-63375000D03*
%TO.N,Net-(Q31-C)*%
X157350000Y-104825000D03*
X150400000Y-104725000D03*
%TO.N,Net-(U96-V2)*%
X150550000Y-108175000D03*
X158200000Y-108225000D03*
%TO.N,Net-(Q2-C)*%
X72200000Y-155725000D03*
X63900000Y-156275000D03*
%TO.N,Net-(U59-V2)*%
X63220000Y-158775000D03*
X72750000Y-159275000D03*
%TO.N,Net-(Q41-C)*%
X48600000Y-53825000D03*
X54800000Y-53825000D03*
%TO.N,Net-(U64-V1)*%
X174300000Y-91225000D03*
X185300000Y-88625000D03*
X45100000Y-58525000D03*
X55000000Y-58225000D03*
X48100000Y-58425000D03*
%TO.N,Net-(U71-V2)*%
X81750000Y-159375000D03*
X89850000Y-159225000D03*
%TO.N,Net-(Q3-C)*%
X88900000Y-155675000D03*
X81850000Y-155775000D03*
%TO.N,Net-(U63-V1)*%
X38250000Y-107625000D03*
X42300000Y-107525000D03*
X56500000Y-108175000D03*
X46650000Y-108975000D03*
%TO.N,Net-(Q25-C)*%
X55800000Y-104240000D03*
X47450000Y-104240000D03*
%TO.N,Net-(Q48-C)*%
X166600000Y-53625000D03*
X173900000Y-53625000D03*
%TO.N,Net-(U103-V2)*%
X173300000Y-57625000D03*
X166700000Y-58025000D03*
X188900000Y-79225000D03*
X182175000Y-80325000D03*
%TO.N,Net-(U83-V2)*%
X123950000Y-159325000D03*
X115800000Y-159275000D03*
X147600000Y-151325000D03*
%TO.N,Net-(Q5-C)*%
X115800000Y-155875000D03*
X122950000Y-155825000D03*
%TO.N,Net-(Q11-C)*%
X217100000Y-158500000D03*
X230600000Y-155750000D03*
%TO.N,Net-(Q10-C)*%
X231100000Y-153250000D03*
X219850000Y-153250000D03*
%TO.N,Net-(Q4-C)*%
X98800000Y-155775000D03*
X105900000Y-155725000D03*
%TO.N,Net-(U77-V2)*%
X98800000Y-159275000D03*
X107700000Y-159325000D03*
%TO.N,Net-(Q28-C)*%
X99150000Y-104825000D03*
X106250000Y-104775000D03*
%TO.N,Net-(U78-V2)*%
X99150000Y-108325000D03*
X108050000Y-108375000D03*
%TO.N,Net-(Q6-C)*%
X132900000Y-156025000D03*
X140100000Y-155925000D03*
%TO.N,Net-(U89-V2)*%
X133200000Y-159125000D03*
X140850000Y-159025000D03*
%TO.N,Net-(Q38-C)*%
X218146250Y-75475000D03*
%TO.N,Net-(Q40-C)*%
X231396250Y-67975000D03*
X230646250Y-85475000D03*
%TO.N,Net-(Q7-C)*%
X157000000Y-155775000D03*
X150050000Y-155675000D03*
%TO.N,Net-(U95-V2)*%
X157850000Y-159175000D03*
X150200000Y-159125000D03*
%TO.N,Net-(U20-QD)*%
X244577141Y-111975000D03*
X246827141Y-111975000D03*
%TO.N,Net-(U20-QE)*%
X244827141Y-117725000D03*
X248077141Y-115475000D03*
%TO.N,Net-(U20-QF)*%
X249077141Y-114225000D03*
X248577141Y-122725000D03*
%TO.N,Net-(U20-QG)*%
X250077141Y-112725000D03*
X250077141Y-127725000D03*
%TO.N,Net-(U20-QH)*%
X251077141Y-111725000D03*
X250577141Y-132725000D03*
%TO.N,/channel1/RF-5v*%
X179750000Y-189500000D03*
X186500000Y-189500000D03*
%TO.N,/channel2/RF-5v*%
X181050000Y-141000000D03*
X187800000Y-141000000D03*
%TO.N,/channel3/RF-5v*%
X187925000Y-90582500D03*
X181175000Y-90582500D03*
%TO.N,Net-(U19-QD)*%
X244350000Y-162750000D03*
X246600000Y-162750000D03*
%TO.N,Net-(U39-QD)*%
X244146250Y-61225000D03*
X246396250Y-61225000D03*
%TO.N,Net-(U39-QE)*%
X247646250Y-64725000D03*
X244396250Y-66975000D03*
%TO.N,Net-(U39-QF)*%
X248146250Y-71975000D03*
X248646250Y-63475000D03*
%TO.N,Net-(U39-QG)*%
X249646250Y-76975000D03*
X249646250Y-61975000D03*
%TO.N,Net-(U39-QH)*%
X250146250Y-81975000D03*
X250646250Y-60975000D03*
%TO.N,Net-(U19-QF)*%
X248850000Y-165000000D03*
X248350000Y-173500000D03*
%TO.N,Net-(U19-QG)*%
X249850000Y-163500000D03*
X249850000Y-178500000D03*
%TO.N,Net-(U19-QE)*%
X244600000Y-168500000D03*
X247850000Y-166250000D03*
%TO.N,Net-(U19-QH)*%
X250350000Y-183500000D03*
X250850000Y-162500000D03*
%TD*%
%TA.AperFunction,Conductor*%
%TO.N,RF_GND*%
G36*
X201009019Y-35530175D02*
G01*
X201043260Y-35542960D01*
X201073480Y-35554244D01*
X201083090Y-35558638D01*
X201324425Y-35690575D01*
X201333313Y-35696294D01*
X201553393Y-35861266D01*
X201561376Y-35868193D01*
X201755711Y-36062838D01*
X201762625Y-36070831D01*
X201927250Y-36291174D01*
X201932955Y-36300071D01*
X202062230Y-36537431D01*
X202064512Y-36541620D01*
X202068891Y-36551239D01*
X202164694Y-36809063D01*
X202167658Y-36819207D01*
X202225639Y-37087514D01*
X202225755Y-37088048D01*
X202227244Y-37098512D01*
X202246634Y-37375529D01*
X202246815Y-37380813D01*
X202003174Y-190875540D01*
X202002977Y-190880814D01*
X201982787Y-191157211D01*
X201981271Y-191167649D01*
X201922556Y-191435788D01*
X201919572Y-191445904D01*
X201823329Y-191702978D01*
X201818936Y-191712568D01*
X201687122Y-191953347D01*
X201681410Y-191962214D01*
X201516708Y-192181801D01*
X201509794Y-192189766D01*
X201315547Y-192383705D01*
X201307571Y-192390607D01*
X201087713Y-192554967D01*
X201078837Y-192560664D01*
X200837860Y-192692089D01*
X200828263Y-192696467D01*
X200571033Y-192792303D01*
X200560912Y-192795271D01*
X200292685Y-192853560D01*
X200282245Y-192855060D01*
X200005803Y-192874812D01*
X200000529Y-192875000D01*
X29005821Y-192875000D01*
X29000537Y-192874811D01*
X28723545Y-192854980D01*
X28713083Y-192853474D01*
X28444335Y-192794950D01*
X28434196Y-192791970D01*
X28176521Y-192695756D01*
X28166909Y-192691361D01*
X27925574Y-192559424D01*
X27916686Y-192553705D01*
X27696606Y-192388733D01*
X27688623Y-192381806D01*
X27494288Y-192187161D01*
X27487374Y-192179168D01*
X27322749Y-191958825D01*
X27317044Y-191949928D01*
X27209513Y-191752491D01*
X27200500Y-191717097D01*
X27200500Y-189434105D01*
X179249500Y-189434105D01*
X179249500Y-189565894D01*
X179283606Y-189693181D01*
X179283607Y-189693184D01*
X179283608Y-189693186D01*
X179349500Y-189807314D01*
X179442686Y-189900500D01*
X179556814Y-189966392D01*
X179684105Y-190000499D01*
X179684106Y-190000500D01*
X179684108Y-190000500D01*
X179815894Y-190000500D01*
X179815894Y-190000499D01*
X179943186Y-189966392D01*
X180057314Y-189900500D01*
X180150500Y-189807314D01*
X180216392Y-189693186D01*
X180250499Y-189565894D01*
X180250500Y-189565894D01*
X180250500Y-189434106D01*
X180250499Y-189434105D01*
X185999500Y-189434105D01*
X185999500Y-189565894D01*
X186033606Y-189693181D01*
X186033607Y-189693184D01*
X186033608Y-189693186D01*
X186099500Y-189807314D01*
X186192686Y-189900500D01*
X186306814Y-189966392D01*
X186434105Y-190000499D01*
X186434106Y-190000500D01*
X186434108Y-190000500D01*
X186565894Y-190000500D01*
X186565894Y-190000499D01*
X186693186Y-189966392D01*
X186807314Y-189900500D01*
X186900500Y-189807314D01*
X186966392Y-189693186D01*
X187000499Y-189565894D01*
X187000500Y-189565894D01*
X187000500Y-189434106D01*
X187000499Y-189434105D01*
X186966393Y-189306818D01*
X186966392Y-189306814D01*
X186900500Y-189192686D01*
X186807314Y-189099500D01*
X186693190Y-189033610D01*
X186693181Y-189033606D01*
X186565894Y-188999500D01*
X186565892Y-188999500D01*
X186434108Y-188999500D01*
X186434106Y-188999500D01*
X186306818Y-189033606D01*
X186306809Y-189033610D01*
X186192685Y-189099500D01*
X186099500Y-189192685D01*
X186033610Y-189306809D01*
X186033606Y-189306818D01*
X185999500Y-189434105D01*
X180250499Y-189434105D01*
X180216393Y-189306818D01*
X180216392Y-189306814D01*
X180150500Y-189192686D01*
X180057314Y-189099500D01*
X179943190Y-189033610D01*
X179943181Y-189033606D01*
X179815894Y-188999500D01*
X179815892Y-188999500D01*
X179684108Y-188999500D01*
X179684106Y-188999500D01*
X179556818Y-189033606D01*
X179556809Y-189033610D01*
X179442685Y-189099500D01*
X179349500Y-189192685D01*
X179283610Y-189306809D01*
X179283606Y-189306818D01*
X179249500Y-189434105D01*
X27200500Y-189434105D01*
X27200500Y-176184105D01*
X180249500Y-176184105D01*
X180249500Y-176315894D01*
X180283606Y-176443181D01*
X180283607Y-176443184D01*
X180283608Y-176443186D01*
X180349500Y-176557314D01*
X180442686Y-176650500D01*
X180556814Y-176716392D01*
X180684105Y-176750499D01*
X180684106Y-176750500D01*
X180684108Y-176750500D01*
X180815894Y-176750500D01*
X180815894Y-176750499D01*
X180943186Y-176716392D01*
X181057314Y-176650500D01*
X181150500Y-176557314D01*
X181216392Y-176443186D01*
X181250499Y-176315894D01*
X181250500Y-176315894D01*
X181250500Y-176184106D01*
X181250499Y-176184105D01*
X183499500Y-176184105D01*
X183499500Y-176315894D01*
X183533606Y-176443181D01*
X183533607Y-176443184D01*
X183533608Y-176443186D01*
X183599500Y-176557314D01*
X183692686Y-176650500D01*
X183806814Y-176716392D01*
X183934105Y-176750499D01*
X183934106Y-176750500D01*
X183934108Y-176750500D01*
X184065894Y-176750500D01*
X184065894Y-176750499D01*
X184193186Y-176716392D01*
X184307314Y-176650500D01*
X184400500Y-176557314D01*
X184466392Y-176443186D01*
X184500499Y-176315894D01*
X184500500Y-176315894D01*
X184500500Y-176184106D01*
X184500499Y-176184105D01*
X184466393Y-176056818D01*
X184466392Y-176056814D01*
X184400500Y-175942686D01*
X184307314Y-175849500D01*
X184193190Y-175783610D01*
X184193181Y-175783606D01*
X184065894Y-175749500D01*
X184065892Y-175749500D01*
X183934108Y-175749500D01*
X183934106Y-175749500D01*
X183806818Y-175783606D01*
X183806809Y-175783610D01*
X183692685Y-175849500D01*
X183599500Y-175942685D01*
X183533610Y-176056809D01*
X183533606Y-176056818D01*
X183499500Y-176184105D01*
X181250499Y-176184105D01*
X181216393Y-176056818D01*
X181216392Y-176056814D01*
X181150500Y-175942686D01*
X181057314Y-175849500D01*
X180943190Y-175783610D01*
X180943181Y-175783606D01*
X180815894Y-175749500D01*
X180815892Y-175749500D01*
X180684108Y-175749500D01*
X180684106Y-175749500D01*
X180556818Y-175783606D01*
X180556809Y-175783610D01*
X180442685Y-175849500D01*
X180349500Y-175942685D01*
X180283610Y-176056809D01*
X180283606Y-176056818D01*
X180249500Y-176184105D01*
X27200500Y-176184105D01*
X27200500Y-159859105D01*
X45799500Y-159859105D01*
X45799500Y-159990894D01*
X45833606Y-160118181D01*
X45833607Y-160118184D01*
X45833608Y-160118186D01*
X45899500Y-160232314D01*
X45992686Y-160325500D01*
X46106814Y-160391392D01*
X46234105Y-160425499D01*
X46234106Y-160425500D01*
X46234108Y-160425500D01*
X46365894Y-160425500D01*
X46365894Y-160425499D01*
X46493186Y-160391392D01*
X46607314Y-160325500D01*
X46700500Y-160232314D01*
X46766392Y-160118186D01*
X46800499Y-159990894D01*
X46800500Y-159990894D01*
X46800500Y-159859106D01*
X46800499Y-159859105D01*
X46791494Y-159825499D01*
X46766392Y-159731814D01*
X46700500Y-159617686D01*
X46607314Y-159524500D01*
X46549971Y-159491393D01*
X46493190Y-159458610D01*
X46493181Y-159458606D01*
X46365894Y-159424500D01*
X46365892Y-159424500D01*
X46234108Y-159424500D01*
X46234106Y-159424500D01*
X46106818Y-159458606D01*
X46106809Y-159458610D01*
X45992685Y-159524500D01*
X45899500Y-159617685D01*
X45833610Y-159731809D01*
X45833606Y-159731818D01*
X45799500Y-159859105D01*
X27200500Y-159859105D01*
X27200500Y-159059105D01*
X55649500Y-159059105D01*
X55649500Y-159190894D01*
X55683606Y-159318181D01*
X55683610Y-159318190D01*
X55712478Y-159368190D01*
X55749500Y-159432314D01*
X55842686Y-159525500D01*
X55956814Y-159591392D01*
X56084105Y-159625499D01*
X56084106Y-159625500D01*
X56084108Y-159625500D01*
X56215894Y-159625500D01*
X56215894Y-159625499D01*
X56343186Y-159591392D01*
X56457314Y-159525500D01*
X56550500Y-159432314D01*
X56616392Y-159318186D01*
X56650499Y-159190894D01*
X56650500Y-159190894D01*
X56650500Y-159059106D01*
X56650499Y-159059105D01*
X56643186Y-159031814D01*
X56616392Y-158931814D01*
X56550500Y-158817686D01*
X56457314Y-158724500D01*
X56430649Y-158709105D01*
X62719500Y-158709105D01*
X62719500Y-158840894D01*
X62753606Y-158968181D01*
X62753610Y-158968190D01*
X62757253Y-158974500D01*
X62819500Y-159082314D01*
X62912686Y-159175500D01*
X63026814Y-159241392D01*
X63154105Y-159275499D01*
X63154106Y-159275500D01*
X63154108Y-159275500D01*
X63285894Y-159275500D01*
X63285894Y-159275499D01*
X63413186Y-159241392D01*
X63469109Y-159209105D01*
X72249500Y-159209105D01*
X72249500Y-159340894D01*
X72283606Y-159468181D01*
X72283610Y-159468190D01*
X72317213Y-159526392D01*
X72349500Y-159582314D01*
X72442686Y-159675500D01*
X72556814Y-159741392D01*
X72684105Y-159775499D01*
X72684106Y-159775500D01*
X72684108Y-159775500D01*
X72815894Y-159775500D01*
X72815894Y-159775499D01*
X72943186Y-159741392D01*
X73057314Y-159675500D01*
X73150500Y-159582314D01*
X73216392Y-159468186D01*
X73250499Y-159340894D01*
X73250500Y-159340894D01*
X73250500Y-159309105D01*
X81249500Y-159309105D01*
X81249500Y-159440894D01*
X81283606Y-159568181D01*
X81283610Y-159568190D01*
X81312186Y-159617685D01*
X81349500Y-159682314D01*
X81442686Y-159775500D01*
X81556814Y-159841392D01*
X81684105Y-159875499D01*
X81684106Y-159875500D01*
X81684108Y-159875500D01*
X81815894Y-159875500D01*
X81815894Y-159875499D01*
X81943186Y-159841392D01*
X82057314Y-159775500D01*
X82150500Y-159682314D01*
X82216392Y-159568186D01*
X82250499Y-159440894D01*
X82250500Y-159440894D01*
X82250500Y-159309106D01*
X82250499Y-159309105D01*
X82216392Y-159181814D01*
X82203281Y-159159106D01*
X82203280Y-159159105D01*
X89349500Y-159159105D01*
X89349500Y-159290894D01*
X89383606Y-159418181D01*
X89383610Y-159418190D01*
X89449500Y-159532314D01*
X89542686Y-159625500D01*
X89656814Y-159691392D01*
X89784105Y-159725499D01*
X89784106Y-159725500D01*
X89784108Y-159725500D01*
X89915894Y-159725500D01*
X89915894Y-159725499D01*
X90043186Y-159691392D01*
X90157314Y-159625500D01*
X90250500Y-159532314D01*
X90316392Y-159418186D01*
X90350499Y-159290894D01*
X90350500Y-159290894D01*
X90350500Y-159209105D01*
X98299500Y-159209105D01*
X98299500Y-159340894D01*
X98333606Y-159468181D01*
X98333610Y-159468190D01*
X98367213Y-159526392D01*
X98399500Y-159582314D01*
X98492686Y-159675500D01*
X98606814Y-159741392D01*
X98734105Y-159775499D01*
X98734106Y-159775500D01*
X98734108Y-159775500D01*
X98865894Y-159775500D01*
X98865894Y-159775499D01*
X98993186Y-159741392D01*
X99107314Y-159675500D01*
X99200500Y-159582314D01*
X99266392Y-159468186D01*
X99300499Y-159340894D01*
X99300500Y-159340894D01*
X99300500Y-159259105D01*
X107199500Y-159259105D01*
X107199500Y-159390894D01*
X107233606Y-159518181D01*
X107233610Y-159518190D01*
X107262478Y-159568190D01*
X107299500Y-159632314D01*
X107392686Y-159725500D01*
X107506814Y-159791392D01*
X107634105Y-159825499D01*
X107634106Y-159825500D01*
X107634108Y-159825500D01*
X107765894Y-159825500D01*
X107765894Y-159825499D01*
X107893186Y-159791392D01*
X108007314Y-159725500D01*
X108100500Y-159632314D01*
X108166392Y-159518186D01*
X108200499Y-159390894D01*
X108200500Y-159390894D01*
X108200500Y-159259108D01*
X108190935Y-159223410D01*
X108190935Y-159223408D01*
X108187102Y-159209105D01*
X115299500Y-159209105D01*
X115299500Y-159340894D01*
X115333606Y-159468181D01*
X115333610Y-159468190D01*
X115367213Y-159526392D01*
X115399500Y-159582314D01*
X115492686Y-159675500D01*
X115606814Y-159741392D01*
X115734105Y-159775499D01*
X115734106Y-159775500D01*
X115734108Y-159775500D01*
X115865894Y-159775500D01*
X115865894Y-159775499D01*
X115993186Y-159741392D01*
X116107314Y-159675500D01*
X116200500Y-159582314D01*
X116266392Y-159468186D01*
X116300499Y-159340894D01*
X116300500Y-159340894D01*
X116300500Y-159259105D01*
X123449500Y-159259105D01*
X123449500Y-159390894D01*
X123483606Y-159518181D01*
X123483610Y-159518190D01*
X123512478Y-159568190D01*
X123549500Y-159632314D01*
X123642686Y-159725500D01*
X123756814Y-159791392D01*
X123884105Y-159825499D01*
X123884106Y-159825500D01*
X123884108Y-159825500D01*
X124015894Y-159825500D01*
X124015894Y-159825499D01*
X124143186Y-159791392D01*
X124257314Y-159725500D01*
X124350500Y-159632314D01*
X124416392Y-159518186D01*
X124450499Y-159390894D01*
X124450500Y-159390894D01*
X124450500Y-159259106D01*
X124450499Y-159259105D01*
X124445619Y-159240894D01*
X124416392Y-159131814D01*
X124374413Y-159059105D01*
X132699500Y-159059105D01*
X132699500Y-159190894D01*
X132733606Y-159318181D01*
X132733610Y-159318190D01*
X132762478Y-159368190D01*
X132799500Y-159432314D01*
X132892686Y-159525500D01*
X133006814Y-159591392D01*
X133134105Y-159625499D01*
X133134106Y-159625500D01*
X133134108Y-159625500D01*
X133265894Y-159625500D01*
X133265894Y-159625499D01*
X133393186Y-159591392D01*
X133507314Y-159525500D01*
X133600500Y-159432314D01*
X133666392Y-159318186D01*
X133700499Y-159190894D01*
X133700500Y-159190894D01*
X133700500Y-159059106D01*
X133700499Y-159059105D01*
X133677538Y-158973411D01*
X133677538Y-158973410D01*
X133673705Y-158959105D01*
X140349500Y-158959105D01*
X140349500Y-159090894D01*
X140383606Y-159218181D01*
X140383610Y-159218190D01*
X140407233Y-159259106D01*
X140449500Y-159332314D01*
X140542686Y-159425500D01*
X140656814Y-159491392D01*
X140784105Y-159525499D01*
X140784106Y-159525500D01*
X140784108Y-159525500D01*
X140915894Y-159525500D01*
X140915894Y-159525499D01*
X141043186Y-159491392D01*
X141157314Y-159425500D01*
X141250500Y-159332314D01*
X141316392Y-159218186D01*
X141350499Y-159090894D01*
X141350500Y-159090894D01*
X141350500Y-159059105D01*
X149699500Y-159059105D01*
X149699500Y-159190894D01*
X149733606Y-159318181D01*
X149733610Y-159318190D01*
X149762478Y-159368190D01*
X149799500Y-159432314D01*
X149892686Y-159525500D01*
X150006814Y-159591392D01*
X150134105Y-159625499D01*
X150134106Y-159625500D01*
X150134108Y-159625500D01*
X150265894Y-159625500D01*
X150265894Y-159625499D01*
X150393186Y-159591392D01*
X150507314Y-159525500D01*
X150600500Y-159432314D01*
X150666392Y-159318186D01*
X150700499Y-159190894D01*
X150700500Y-159190894D01*
X150700500Y-159109105D01*
X157349500Y-159109105D01*
X157349500Y-159240894D01*
X157383606Y-159368181D01*
X157383610Y-159368190D01*
X157412478Y-159418190D01*
X157449500Y-159482314D01*
X157542686Y-159575500D01*
X157656814Y-159641392D01*
X157784105Y-159675499D01*
X157784106Y-159675500D01*
X157784108Y-159675500D01*
X157915894Y-159675500D01*
X157915894Y-159675499D01*
X158043186Y-159641392D01*
X158157314Y-159575500D01*
X158250500Y-159482314D01*
X158316392Y-159368186D01*
X158350499Y-159240894D01*
X158350500Y-159240894D01*
X158350500Y-159109109D01*
X158345717Y-159091258D01*
X158319685Y-158994105D01*
X165899500Y-158994105D01*
X165899500Y-159125894D01*
X165933606Y-159253181D01*
X165933610Y-159253190D01*
X165965895Y-159309108D01*
X165999500Y-159367314D01*
X166092686Y-159460500D01*
X166206814Y-159526392D01*
X166334105Y-159560499D01*
X166334106Y-159560500D01*
X166334108Y-159560500D01*
X166465894Y-159560500D01*
X166465894Y-159560499D01*
X166593186Y-159526392D01*
X166707314Y-159460500D01*
X166800500Y-159367314D01*
X166866392Y-159253186D01*
X166900499Y-159125894D01*
X166900500Y-159125894D01*
X166900500Y-158994108D01*
X166894954Y-158973410D01*
X166894954Y-158973408D01*
X166891121Y-158959105D01*
X174099500Y-158959105D01*
X174099500Y-159090894D01*
X174133606Y-159218181D01*
X174133610Y-159218190D01*
X174157233Y-159259106D01*
X174199500Y-159332314D01*
X174292686Y-159425500D01*
X174406814Y-159491392D01*
X174534105Y-159525499D01*
X174534106Y-159525500D01*
X174534108Y-159525500D01*
X174665894Y-159525500D01*
X174665894Y-159525499D01*
X174793186Y-159491392D01*
X174907314Y-159425500D01*
X175000500Y-159332314D01*
X175066392Y-159218186D01*
X175100499Y-159090894D01*
X175100500Y-159090894D01*
X175100500Y-158959106D01*
X175100499Y-158959105D01*
X175093186Y-158931814D01*
X175066392Y-158831814D01*
X175000500Y-158717686D01*
X174907314Y-158624500D01*
X174833380Y-158581814D01*
X174793190Y-158558610D01*
X174793181Y-158558606D01*
X174665894Y-158524500D01*
X174665892Y-158524500D01*
X174534108Y-158524500D01*
X174534106Y-158524500D01*
X174406818Y-158558606D01*
X174406809Y-158558610D01*
X174292685Y-158624500D01*
X174199500Y-158717685D01*
X174133610Y-158831809D01*
X174133606Y-158831818D01*
X174099500Y-158959105D01*
X166891121Y-158959105D01*
X166866393Y-158866818D01*
X166866392Y-158866814D01*
X166800500Y-158752686D01*
X166707314Y-158659500D01*
X166705766Y-158658606D01*
X166593190Y-158593610D01*
X166593181Y-158593606D01*
X166465894Y-158559500D01*
X166465892Y-158559500D01*
X166334108Y-158559500D01*
X166334106Y-158559500D01*
X166206818Y-158593606D01*
X166206809Y-158593610D01*
X166092685Y-158659500D01*
X165999500Y-158752685D01*
X165933610Y-158866809D01*
X165933606Y-158866818D01*
X165899500Y-158994105D01*
X158319685Y-158994105D01*
X158316392Y-158981814D01*
X158250500Y-158867686D01*
X158157314Y-158774500D01*
X158119531Y-158752686D01*
X158043190Y-158708610D01*
X158043181Y-158708606D01*
X157915894Y-158674500D01*
X157915892Y-158674500D01*
X157784108Y-158674500D01*
X157784106Y-158674500D01*
X157656818Y-158708606D01*
X157656809Y-158708610D01*
X157542685Y-158774500D01*
X157449500Y-158867685D01*
X157383610Y-158981809D01*
X157383606Y-158981818D01*
X157349500Y-159109105D01*
X150700500Y-159109105D01*
X150700500Y-159059106D01*
X150700499Y-159059105D01*
X150693186Y-159031814D01*
X150666392Y-158931814D01*
X150600500Y-158817686D01*
X150507314Y-158724500D01*
X150420712Y-158674500D01*
X150393190Y-158658610D01*
X150393181Y-158658606D01*
X150265894Y-158624500D01*
X150265892Y-158624500D01*
X150134108Y-158624500D01*
X150134106Y-158624500D01*
X150006818Y-158658606D01*
X150006809Y-158658610D01*
X149892685Y-158724500D01*
X149799500Y-158817685D01*
X149733610Y-158931809D01*
X149733606Y-158931818D01*
X149699500Y-159059105D01*
X141350500Y-159059105D01*
X141350500Y-158959106D01*
X141350499Y-158959105D01*
X141343186Y-158931814D01*
X141316392Y-158831814D01*
X141250500Y-158717686D01*
X141157314Y-158624500D01*
X141083380Y-158581814D01*
X141043190Y-158558610D01*
X141043181Y-158558606D01*
X140915894Y-158524500D01*
X140915892Y-158524500D01*
X140784108Y-158524500D01*
X140784106Y-158524500D01*
X140656818Y-158558606D01*
X140656809Y-158558610D01*
X140542685Y-158624500D01*
X140449500Y-158717685D01*
X140383610Y-158831809D01*
X140383606Y-158831818D01*
X140349500Y-158959105D01*
X133673705Y-158959105D01*
X133666393Y-158931818D01*
X133666392Y-158931814D01*
X133600500Y-158817686D01*
X133507314Y-158724500D01*
X133420712Y-158674500D01*
X133393190Y-158658610D01*
X133393181Y-158658606D01*
X133265894Y-158624500D01*
X133265892Y-158624500D01*
X133134108Y-158624500D01*
X133134106Y-158624500D01*
X133006818Y-158658606D01*
X133006809Y-158658610D01*
X132892685Y-158724500D01*
X132799500Y-158817685D01*
X132733610Y-158931809D01*
X132733606Y-158931818D01*
X132699500Y-159059105D01*
X124374413Y-159059105D01*
X124350500Y-159017686D01*
X124257314Y-158924500D01*
X124158908Y-158867685D01*
X124143190Y-158858610D01*
X124143181Y-158858606D01*
X124015894Y-158824500D01*
X124015892Y-158824500D01*
X123884108Y-158824500D01*
X123884106Y-158824500D01*
X123756818Y-158858606D01*
X123756809Y-158858610D01*
X123642685Y-158924500D01*
X123549500Y-159017685D01*
X123483610Y-159131809D01*
X123483606Y-159131818D01*
X123449500Y-159259105D01*
X116300500Y-159259105D01*
X116300500Y-159209106D01*
X116300499Y-159209105D01*
X116295619Y-159190894D01*
X116266392Y-159081814D01*
X116200500Y-158967686D01*
X116107314Y-158874500D01*
X116094008Y-158866818D01*
X115993190Y-158808610D01*
X115993181Y-158808606D01*
X115865894Y-158774500D01*
X115865892Y-158774500D01*
X115734108Y-158774500D01*
X115734106Y-158774500D01*
X115606818Y-158808606D01*
X115606809Y-158808610D01*
X115492685Y-158874500D01*
X115399500Y-158967685D01*
X115333610Y-159081809D01*
X115333606Y-159081818D01*
X115299500Y-159209105D01*
X108187102Y-159209105D01*
X108166393Y-159131818D01*
X108166392Y-159131814D01*
X108100500Y-159017686D01*
X108007314Y-158924500D01*
X107908908Y-158867685D01*
X107893190Y-158858610D01*
X107893181Y-158858606D01*
X107765894Y-158824500D01*
X107765892Y-158824500D01*
X107634108Y-158824500D01*
X107634106Y-158824500D01*
X107506818Y-158858606D01*
X107506809Y-158858610D01*
X107392685Y-158924500D01*
X107299500Y-159017685D01*
X107233610Y-159131809D01*
X107233606Y-159131818D01*
X107199500Y-159259105D01*
X99300500Y-159259105D01*
X99300500Y-159209106D01*
X99300499Y-159209105D01*
X99295619Y-159190894D01*
X99266392Y-159081814D01*
X99200500Y-158967686D01*
X99107314Y-158874500D01*
X99094008Y-158866818D01*
X98993190Y-158808610D01*
X98993181Y-158808606D01*
X98865894Y-158774500D01*
X98865892Y-158774500D01*
X98734108Y-158774500D01*
X98734106Y-158774500D01*
X98606818Y-158808606D01*
X98606809Y-158808610D01*
X98492685Y-158874500D01*
X98399500Y-158967685D01*
X98333610Y-159081809D01*
X98333606Y-159081818D01*
X98299500Y-159209105D01*
X90350500Y-159209105D01*
X90350500Y-159159106D01*
X90350499Y-159159105D01*
X90343186Y-159131814D01*
X90316392Y-159031814D01*
X90250500Y-158917686D01*
X90157314Y-158824500D01*
X90070712Y-158774500D01*
X90043190Y-158758610D01*
X90043181Y-158758606D01*
X89915894Y-158724500D01*
X89915892Y-158724500D01*
X89784108Y-158724500D01*
X89784106Y-158724500D01*
X89656818Y-158758606D01*
X89656809Y-158758610D01*
X89542685Y-158824500D01*
X89449500Y-158917685D01*
X89383610Y-159031809D01*
X89383606Y-159031818D01*
X89349500Y-159159105D01*
X82203280Y-159159105D01*
X82187524Y-159131814D01*
X82150500Y-159067686D01*
X82057314Y-158974500D01*
X81983380Y-158931814D01*
X81943190Y-158908610D01*
X81943181Y-158908606D01*
X81815894Y-158874500D01*
X81815892Y-158874500D01*
X81684108Y-158874500D01*
X81684106Y-158874500D01*
X81556818Y-158908606D01*
X81556809Y-158908610D01*
X81442685Y-158974500D01*
X81349500Y-159067685D01*
X81283610Y-159181809D01*
X81283606Y-159181818D01*
X81249500Y-159309105D01*
X73250500Y-159309105D01*
X73250500Y-159209106D01*
X73250499Y-159209105D01*
X73245619Y-159190894D01*
X73216392Y-159081814D01*
X73150500Y-158967686D01*
X73057314Y-158874500D01*
X73044008Y-158866818D01*
X72943190Y-158808610D01*
X72943181Y-158808606D01*
X72815894Y-158774500D01*
X72815892Y-158774500D01*
X72684108Y-158774500D01*
X72684106Y-158774500D01*
X72556818Y-158808606D01*
X72556809Y-158808610D01*
X72442685Y-158874500D01*
X72349500Y-158967685D01*
X72283610Y-159081809D01*
X72283606Y-159081818D01*
X72249500Y-159209105D01*
X63469109Y-159209105D01*
X63527314Y-159175500D01*
X63620500Y-159082314D01*
X63686392Y-158968186D01*
X63720499Y-158840894D01*
X63720500Y-158840894D01*
X63720500Y-158709106D01*
X63720499Y-158709105D01*
X63720366Y-158708610D01*
X63686392Y-158581814D01*
X63620500Y-158467686D01*
X63527314Y-158374500D01*
X63413190Y-158308610D01*
X63413181Y-158308606D01*
X63285894Y-158274500D01*
X63285892Y-158274500D01*
X63154108Y-158274500D01*
X63154106Y-158274500D01*
X63026818Y-158308606D01*
X63026809Y-158308610D01*
X62912685Y-158374500D01*
X62819500Y-158467685D01*
X62753610Y-158581809D01*
X62753606Y-158581818D01*
X62719500Y-158709105D01*
X56430649Y-158709105D01*
X56370712Y-158674500D01*
X56343190Y-158658610D01*
X56343181Y-158658606D01*
X56215894Y-158624500D01*
X56215892Y-158624500D01*
X56084108Y-158624500D01*
X56084106Y-158624500D01*
X55956818Y-158658606D01*
X55956809Y-158658610D01*
X55842685Y-158724500D01*
X55749500Y-158817685D01*
X55683610Y-158931809D01*
X55683606Y-158931818D01*
X55649500Y-159059105D01*
X27200500Y-159059105D01*
X27200500Y-156709105D01*
X36949500Y-156709105D01*
X36949500Y-156840894D01*
X36983606Y-156968181D01*
X36983607Y-156968184D01*
X36983608Y-156968186D01*
X37049500Y-157082314D01*
X37142686Y-157175500D01*
X37256814Y-157241392D01*
X37384105Y-157275499D01*
X37384106Y-157275500D01*
X37384108Y-157275500D01*
X37515894Y-157275500D01*
X37515894Y-157275499D01*
X37643186Y-157241392D01*
X37757314Y-157175500D01*
X37850500Y-157082314D01*
X37916392Y-156968186D01*
X37950499Y-156840894D01*
X37950500Y-156840894D01*
X37950500Y-156709106D01*
X37950499Y-156709105D01*
X37941494Y-156675499D01*
X37916392Y-156581814D01*
X37850500Y-156467686D01*
X37757314Y-156374500D01*
X37699971Y-156341393D01*
X37643190Y-156308610D01*
X37643181Y-156308606D01*
X37515894Y-156274500D01*
X37515892Y-156274500D01*
X37384108Y-156274500D01*
X37384106Y-156274500D01*
X37256818Y-156308606D01*
X37256809Y-156308610D01*
X37142685Y-156374500D01*
X37049500Y-156467685D01*
X36983610Y-156581809D01*
X36983606Y-156581818D01*
X36949500Y-156709105D01*
X27200500Y-156709105D01*
X27200500Y-155959105D01*
X40499500Y-155959105D01*
X40499500Y-156090894D01*
X40533606Y-156218181D01*
X40533610Y-156218190D01*
X40566121Y-156274500D01*
X40599500Y-156332314D01*
X40692686Y-156425500D01*
X40806814Y-156491392D01*
X40934105Y-156525499D01*
X40934106Y-156525500D01*
X40934108Y-156525500D01*
X41065894Y-156525500D01*
X41065894Y-156525499D01*
X41193186Y-156491392D01*
X41307314Y-156425500D01*
X41400500Y-156332314D01*
X41466392Y-156218186D01*
X41500499Y-156090894D01*
X41500500Y-156090894D01*
X41500500Y-156059105D01*
X46599500Y-156059105D01*
X46599500Y-156190894D01*
X46633606Y-156318181D01*
X46633610Y-156318190D01*
X46666121Y-156374500D01*
X46699500Y-156432314D01*
X46792686Y-156525500D01*
X46906814Y-156591392D01*
X47034105Y-156625499D01*
X47034106Y-156625500D01*
X47034108Y-156625500D01*
X47165894Y-156625500D01*
X47165894Y-156625499D01*
X47293186Y-156591392D01*
X47407314Y-156525500D01*
X47500500Y-156432314D01*
X47566392Y-156318186D01*
X47595620Y-156209105D01*
X63399500Y-156209105D01*
X63399500Y-156340894D01*
X63433606Y-156468181D01*
X63433610Y-156468190D01*
X63466698Y-156525499D01*
X63499500Y-156582314D01*
X63592686Y-156675500D01*
X63706814Y-156741392D01*
X63834105Y-156775499D01*
X63834106Y-156775500D01*
X63834108Y-156775500D01*
X63965894Y-156775500D01*
X63965894Y-156775499D01*
X64093186Y-156741392D01*
X64207314Y-156675500D01*
X64300500Y-156582314D01*
X64366392Y-156468186D01*
X64400499Y-156340894D01*
X64400500Y-156340894D01*
X64400500Y-156209106D01*
X64400499Y-156209105D01*
X64395619Y-156190894D01*
X64366392Y-156081814D01*
X64300500Y-155967686D01*
X64207314Y-155874500D01*
X64149107Y-155840894D01*
X64093190Y-155808610D01*
X64093181Y-155808606D01*
X63965894Y-155774500D01*
X63965892Y-155774500D01*
X63834108Y-155774500D01*
X63834106Y-155774500D01*
X63706818Y-155808606D01*
X63706809Y-155808610D01*
X63592685Y-155874500D01*
X63499500Y-155967685D01*
X63433610Y-156081809D01*
X63433606Y-156081818D01*
X63399500Y-156209105D01*
X47595620Y-156209105D01*
X47600500Y-156190892D01*
X47600500Y-156059108D01*
X47600500Y-156059106D01*
X47600499Y-156059105D01*
X47593320Y-156032314D01*
X47566392Y-155931814D01*
X47500500Y-155817686D01*
X47407314Y-155724500D01*
X47333380Y-155681814D01*
X47293190Y-155658610D01*
X47293181Y-155658606D01*
X47165894Y-155624500D01*
X47165892Y-155624500D01*
X47034108Y-155624500D01*
X47034106Y-155624500D01*
X46906818Y-155658606D01*
X46906809Y-155658610D01*
X46792685Y-155724500D01*
X46699500Y-155817685D01*
X46633610Y-155931809D01*
X46633606Y-155931818D01*
X46599500Y-156059105D01*
X41500500Y-156059105D01*
X41500500Y-155959106D01*
X41500499Y-155959105D01*
X41495619Y-155940894D01*
X41466392Y-155831814D01*
X41400500Y-155717686D01*
X41307314Y-155624500D01*
X41233380Y-155581814D01*
X41193190Y-155558610D01*
X41193181Y-155558606D01*
X41065894Y-155524500D01*
X41065892Y-155524500D01*
X40934108Y-155524500D01*
X40934106Y-155524500D01*
X40806818Y-155558606D01*
X40806809Y-155558610D01*
X40692685Y-155624500D01*
X40599500Y-155717685D01*
X40533610Y-155831809D01*
X40533606Y-155831818D01*
X40499500Y-155959105D01*
X27200500Y-155959105D01*
X27200500Y-155409105D01*
X55049500Y-155409105D01*
X55049500Y-155540894D01*
X55083606Y-155668181D01*
X55083610Y-155668190D01*
X55107233Y-155709106D01*
X55149500Y-155782314D01*
X55242686Y-155875500D01*
X55356814Y-155941392D01*
X55484105Y-155975499D01*
X55484106Y-155975500D01*
X55484108Y-155975500D01*
X55615894Y-155975500D01*
X55615894Y-155975499D01*
X55743186Y-155941392D01*
X55857314Y-155875500D01*
X55950500Y-155782314D01*
X56016392Y-155668186D01*
X56018825Y-155659105D01*
X71699500Y-155659105D01*
X71699500Y-155790894D01*
X71733606Y-155918181D01*
X71733610Y-155918190D01*
X71762478Y-155968190D01*
X71799500Y-156032314D01*
X71892686Y-156125500D01*
X72006814Y-156191392D01*
X72134105Y-156225499D01*
X72134106Y-156225500D01*
X72134108Y-156225500D01*
X72265894Y-156225500D01*
X72265894Y-156225499D01*
X72393186Y-156191392D01*
X72507314Y-156125500D01*
X72600500Y-156032314D01*
X72666392Y-155918186D01*
X72700499Y-155790894D01*
X72700500Y-155790894D01*
X72700500Y-155709105D01*
X81349500Y-155709105D01*
X81349500Y-155840894D01*
X81383606Y-155968181D01*
X81383610Y-155968190D01*
X81412478Y-156018190D01*
X81449500Y-156082314D01*
X81542686Y-156175500D01*
X81656814Y-156241392D01*
X81784105Y-156275499D01*
X81784106Y-156275500D01*
X81784108Y-156275500D01*
X81915894Y-156275500D01*
X81915894Y-156275499D01*
X82043186Y-156241392D01*
X82157314Y-156175500D01*
X82250500Y-156082314D01*
X82316392Y-155968186D01*
X82350499Y-155840894D01*
X82350500Y-155840894D01*
X82350500Y-155709106D01*
X82350499Y-155709105D01*
X82327538Y-155623411D01*
X82323705Y-155609105D01*
X88399500Y-155609105D01*
X88399500Y-155740894D01*
X88433606Y-155868181D01*
X88433610Y-155868190D01*
X88462478Y-155918190D01*
X88499500Y-155982314D01*
X88592686Y-156075500D01*
X88706814Y-156141392D01*
X88834105Y-156175499D01*
X88834106Y-156175500D01*
X88834108Y-156175500D01*
X88965894Y-156175500D01*
X88965894Y-156175499D01*
X89093186Y-156141392D01*
X89207314Y-156075500D01*
X89300500Y-155982314D01*
X89366392Y-155868186D01*
X89400499Y-155740894D01*
X89400500Y-155740894D01*
X89400500Y-155709105D01*
X98299500Y-155709105D01*
X98299500Y-155840894D01*
X98333606Y-155968181D01*
X98333610Y-155968190D01*
X98362478Y-156018190D01*
X98399500Y-156082314D01*
X98492686Y-156175500D01*
X98606814Y-156241392D01*
X98734105Y-156275499D01*
X98734106Y-156275500D01*
X98734108Y-156275500D01*
X98865894Y-156275500D01*
X98865894Y-156275499D01*
X98993186Y-156241392D01*
X99107314Y-156175500D01*
X99200500Y-156082314D01*
X99266392Y-155968186D01*
X99300499Y-155840894D01*
X99300500Y-155840894D01*
X99300500Y-155709108D01*
X99290935Y-155673410D01*
X99290935Y-155673408D01*
X99287102Y-155659105D01*
X105399500Y-155659105D01*
X105399500Y-155790894D01*
X105433606Y-155918181D01*
X105433610Y-155918190D01*
X105462478Y-155968190D01*
X105499500Y-156032314D01*
X105592686Y-156125500D01*
X105706814Y-156191392D01*
X105834105Y-156225499D01*
X105834106Y-156225500D01*
X105834108Y-156225500D01*
X105965894Y-156225500D01*
X105965894Y-156225499D01*
X106093186Y-156191392D01*
X106207314Y-156125500D01*
X106300500Y-156032314D01*
X106366392Y-155918186D01*
X106395620Y-155809105D01*
X115299500Y-155809105D01*
X115299500Y-155940894D01*
X115333606Y-156068181D01*
X115333610Y-156068190D01*
X115362478Y-156118190D01*
X115399500Y-156182314D01*
X115492686Y-156275500D01*
X115606814Y-156341392D01*
X115734105Y-156375499D01*
X115734106Y-156375500D01*
X115734108Y-156375500D01*
X115865894Y-156375500D01*
X115865894Y-156375499D01*
X115993186Y-156341392D01*
X116107314Y-156275500D01*
X116200500Y-156182314D01*
X116266392Y-156068186D01*
X116300499Y-155940894D01*
X116300500Y-155940894D01*
X116300500Y-155809108D01*
X116290935Y-155773410D01*
X116290935Y-155773408D01*
X116287102Y-155759105D01*
X122449500Y-155759105D01*
X122449500Y-155890894D01*
X122483606Y-156018181D01*
X122483610Y-156018190D01*
X122512478Y-156068190D01*
X122549500Y-156132314D01*
X122642686Y-156225500D01*
X122756814Y-156291392D01*
X122884105Y-156325499D01*
X122884106Y-156325500D01*
X122884108Y-156325500D01*
X123015894Y-156325500D01*
X123015894Y-156325499D01*
X123143186Y-156291392D01*
X123257314Y-156225500D01*
X123350500Y-156132314D01*
X123416392Y-156018186D01*
X123432223Y-155959105D01*
X132399500Y-155959105D01*
X132399500Y-156090894D01*
X132433606Y-156218181D01*
X132433610Y-156218190D01*
X132466121Y-156274500D01*
X132499500Y-156332314D01*
X132592686Y-156425500D01*
X132706814Y-156491392D01*
X132834105Y-156525499D01*
X132834106Y-156525500D01*
X132834108Y-156525500D01*
X132965894Y-156525500D01*
X132965894Y-156525499D01*
X133093186Y-156491392D01*
X133207314Y-156425500D01*
X133300500Y-156332314D01*
X133366392Y-156218186D01*
X133400499Y-156090894D01*
X133400500Y-156090894D01*
X133400500Y-155959106D01*
X133400499Y-155959105D01*
X133377538Y-155873411D01*
X133373705Y-155859105D01*
X139599500Y-155859105D01*
X139599500Y-155990894D01*
X139633606Y-156118181D01*
X139633610Y-156118190D01*
X139666698Y-156175499D01*
X139699500Y-156232314D01*
X139792686Y-156325500D01*
X139906814Y-156391392D01*
X140034105Y-156425499D01*
X140034106Y-156425500D01*
X140034108Y-156425500D01*
X140165894Y-156425500D01*
X140165894Y-156425499D01*
X140293186Y-156391392D01*
X140407314Y-156325500D01*
X140500500Y-156232314D01*
X140566392Y-156118186D01*
X140600499Y-155990894D01*
X140600500Y-155990894D01*
X140600500Y-155859106D01*
X140600499Y-155859105D01*
X140595619Y-155840894D01*
X140566392Y-155731814D01*
X140500500Y-155617686D01*
X140491919Y-155609105D01*
X149549500Y-155609105D01*
X149549500Y-155740894D01*
X149583606Y-155868181D01*
X149583610Y-155868190D01*
X149612478Y-155918190D01*
X149649500Y-155982314D01*
X149742686Y-156075500D01*
X149856814Y-156141392D01*
X149984105Y-156175499D01*
X149984106Y-156175500D01*
X149984108Y-156175500D01*
X150115894Y-156175500D01*
X150115894Y-156175499D01*
X150243186Y-156141392D01*
X150357314Y-156075500D01*
X150450500Y-155982314D01*
X150516392Y-155868186D01*
X150550499Y-155740894D01*
X150550500Y-155740894D01*
X150550500Y-155709105D01*
X156499500Y-155709105D01*
X156499500Y-155840894D01*
X156533606Y-155968181D01*
X156533610Y-155968190D01*
X156562478Y-156018190D01*
X156599500Y-156082314D01*
X156692686Y-156175500D01*
X156806814Y-156241392D01*
X156934105Y-156275499D01*
X156934106Y-156275500D01*
X156934108Y-156275500D01*
X157065894Y-156275500D01*
X157065894Y-156275499D01*
X157193186Y-156241392D01*
X157307314Y-156175500D01*
X157400500Y-156082314D01*
X157466392Y-155968186D01*
X157500499Y-155840894D01*
X157500500Y-155840894D01*
X157500500Y-155809105D01*
X166099500Y-155809105D01*
X166099500Y-155940894D01*
X166133606Y-156068181D01*
X166133610Y-156068190D01*
X166162478Y-156118190D01*
X166199500Y-156182314D01*
X166292686Y-156275500D01*
X166406814Y-156341392D01*
X166534105Y-156375499D01*
X166534106Y-156375500D01*
X166534108Y-156375500D01*
X166665894Y-156375500D01*
X166665894Y-156375499D01*
X166793186Y-156341392D01*
X166907314Y-156275500D01*
X167000500Y-156182314D01*
X167066392Y-156068186D01*
X167100499Y-155940894D01*
X167100500Y-155940894D01*
X167100500Y-155859105D01*
X173349500Y-155859105D01*
X173349500Y-155990894D01*
X173383606Y-156118181D01*
X173383610Y-156118190D01*
X173416698Y-156175499D01*
X173449500Y-156232314D01*
X173542686Y-156325500D01*
X173656814Y-156391392D01*
X173784105Y-156425499D01*
X173784106Y-156425500D01*
X173784108Y-156425500D01*
X173915894Y-156425500D01*
X173915894Y-156425499D01*
X174043186Y-156391392D01*
X174157314Y-156325500D01*
X174250500Y-156232314D01*
X174316392Y-156118186D01*
X174350499Y-155990894D01*
X174350500Y-155990894D01*
X174350500Y-155859106D01*
X174350499Y-155859105D01*
X174345619Y-155840894D01*
X174316392Y-155731814D01*
X174250500Y-155617686D01*
X174157314Y-155524500D01*
X174083380Y-155481814D01*
X174043190Y-155458610D01*
X174043181Y-155458606D01*
X173915894Y-155424500D01*
X173915892Y-155424500D01*
X173784108Y-155424500D01*
X173784106Y-155424500D01*
X173656818Y-155458606D01*
X173656809Y-155458610D01*
X173542685Y-155524500D01*
X173449500Y-155617685D01*
X173383610Y-155731809D01*
X173383606Y-155731818D01*
X173349500Y-155859105D01*
X167100500Y-155859105D01*
X167100500Y-155809106D01*
X167100499Y-155809105D01*
X167100366Y-155808610D01*
X167066392Y-155681814D01*
X167000500Y-155567686D01*
X166907314Y-155474500D01*
X166808908Y-155417685D01*
X166793190Y-155408610D01*
X166793181Y-155408606D01*
X166665894Y-155374500D01*
X166665892Y-155374500D01*
X166534108Y-155374500D01*
X166534106Y-155374500D01*
X166406818Y-155408606D01*
X166406809Y-155408610D01*
X166292685Y-155474500D01*
X166199500Y-155567685D01*
X166133610Y-155681809D01*
X166133606Y-155681818D01*
X166099500Y-155809105D01*
X157500500Y-155809105D01*
X157500500Y-155709106D01*
X157500499Y-155709105D01*
X157493186Y-155681814D01*
X157466392Y-155581814D01*
X157400500Y-155467686D01*
X157307314Y-155374500D01*
X157220712Y-155324500D01*
X157193190Y-155308610D01*
X157193181Y-155308606D01*
X157065894Y-155274500D01*
X157065892Y-155274500D01*
X156934108Y-155274500D01*
X156934106Y-155274500D01*
X156806818Y-155308606D01*
X156806809Y-155308610D01*
X156692685Y-155374500D01*
X156599500Y-155467685D01*
X156533610Y-155581809D01*
X156533606Y-155581818D01*
X156499500Y-155709105D01*
X150550500Y-155709105D01*
X150550500Y-155609106D01*
X150550499Y-155609105D01*
X150543186Y-155581814D01*
X150516392Y-155481814D01*
X150450500Y-155367686D01*
X150357314Y-155274500D01*
X150270712Y-155224500D01*
X150243190Y-155208610D01*
X150243181Y-155208606D01*
X150115894Y-155174500D01*
X150115892Y-155174500D01*
X149984108Y-155174500D01*
X149984106Y-155174500D01*
X149856818Y-155208606D01*
X149856809Y-155208610D01*
X149742685Y-155274500D01*
X149649500Y-155367685D01*
X149583610Y-155481809D01*
X149583606Y-155481818D01*
X149549500Y-155609105D01*
X140491919Y-155609105D01*
X140407314Y-155524500D01*
X140333380Y-155481814D01*
X140293190Y-155458610D01*
X140293181Y-155458606D01*
X140165894Y-155424500D01*
X140165892Y-155424500D01*
X140034108Y-155424500D01*
X140034106Y-155424500D01*
X139906818Y-155458606D01*
X139906809Y-155458610D01*
X139792685Y-155524500D01*
X139699500Y-155617685D01*
X139633610Y-155731809D01*
X139633606Y-155731818D01*
X139599500Y-155859105D01*
X133373705Y-155859105D01*
X133366393Y-155831818D01*
X133366392Y-155831814D01*
X133300500Y-155717686D01*
X133207314Y-155624500D01*
X133133380Y-155581814D01*
X133093190Y-155558610D01*
X133093181Y-155558606D01*
X132965894Y-155524500D01*
X132965892Y-155524500D01*
X132834108Y-155524500D01*
X132834106Y-155524500D01*
X132706818Y-155558606D01*
X132706809Y-155558610D01*
X132592685Y-155624500D01*
X132499500Y-155717685D01*
X132433610Y-155831809D01*
X132433606Y-155831818D01*
X132399500Y-155959105D01*
X123432223Y-155959105D01*
X123438652Y-155935111D01*
X123438653Y-155935106D01*
X123439536Y-155931809D01*
X123450500Y-155890892D01*
X123450500Y-155759108D01*
X123450500Y-155759106D01*
X123450499Y-155759105D01*
X123445619Y-155740894D01*
X123416392Y-155631814D01*
X123350500Y-155517686D01*
X123257314Y-155424500D01*
X123158908Y-155367685D01*
X123143190Y-155358610D01*
X123143181Y-155358606D01*
X123015894Y-155324500D01*
X123015892Y-155324500D01*
X122884108Y-155324500D01*
X122884106Y-155324500D01*
X122756818Y-155358606D01*
X122756809Y-155358610D01*
X122642685Y-155424500D01*
X122549500Y-155517685D01*
X122483610Y-155631809D01*
X122483606Y-155631818D01*
X122449500Y-155759105D01*
X116287102Y-155759105D01*
X116266393Y-155681818D01*
X116266392Y-155681814D01*
X116200500Y-155567686D01*
X116107314Y-155474500D01*
X116008908Y-155417685D01*
X115993190Y-155408610D01*
X115993181Y-155408606D01*
X115865894Y-155374500D01*
X115865892Y-155374500D01*
X115734108Y-155374500D01*
X115734106Y-155374500D01*
X115606818Y-155408606D01*
X115606809Y-155408610D01*
X115492685Y-155474500D01*
X115399500Y-155567685D01*
X115333610Y-155681809D01*
X115333606Y-155681818D01*
X115299500Y-155809105D01*
X106395620Y-155809105D01*
X106400500Y-155790892D01*
X106400500Y-155659108D01*
X106400500Y-155659106D01*
X106400499Y-155659105D01*
X106400366Y-155658610D01*
X106366392Y-155531814D01*
X106300500Y-155417686D01*
X106207314Y-155324500D01*
X106133380Y-155281814D01*
X106093190Y-155258610D01*
X106093181Y-155258606D01*
X105965894Y-155224500D01*
X105965892Y-155224500D01*
X105834108Y-155224500D01*
X105834106Y-155224500D01*
X105706818Y-155258606D01*
X105706809Y-155258610D01*
X105592685Y-155324500D01*
X105499500Y-155417685D01*
X105433610Y-155531809D01*
X105433606Y-155531818D01*
X105399500Y-155659105D01*
X99287102Y-155659105D01*
X99266393Y-155581818D01*
X99266392Y-155581814D01*
X99200500Y-155467686D01*
X99107314Y-155374500D01*
X99020712Y-155324500D01*
X98993190Y-155308610D01*
X98993181Y-155308606D01*
X98865894Y-155274500D01*
X98865892Y-155274500D01*
X98734108Y-155274500D01*
X98734106Y-155274500D01*
X98606818Y-155308606D01*
X98606809Y-155308610D01*
X98492685Y-155374500D01*
X98399500Y-155467685D01*
X98333610Y-155581809D01*
X98333606Y-155581818D01*
X98299500Y-155709105D01*
X89400500Y-155709105D01*
X89400500Y-155609106D01*
X89400499Y-155609105D01*
X89393186Y-155581814D01*
X89366392Y-155481814D01*
X89300500Y-155367686D01*
X89207314Y-155274500D01*
X89120712Y-155224500D01*
X89093190Y-155208610D01*
X89093181Y-155208606D01*
X88965894Y-155174500D01*
X88965892Y-155174500D01*
X88834108Y-155174500D01*
X88834106Y-155174500D01*
X88706818Y-155208606D01*
X88706809Y-155208610D01*
X88592685Y-155274500D01*
X88499500Y-155367685D01*
X88433610Y-155481809D01*
X88433606Y-155481818D01*
X88399500Y-155609105D01*
X82323705Y-155609105D01*
X82316393Y-155581818D01*
X82316392Y-155581814D01*
X82250500Y-155467686D01*
X82157314Y-155374500D01*
X82070712Y-155324500D01*
X82043190Y-155308610D01*
X82043181Y-155308606D01*
X81915894Y-155274500D01*
X81915892Y-155274500D01*
X81784108Y-155274500D01*
X81784106Y-155274500D01*
X81656818Y-155308606D01*
X81656809Y-155308610D01*
X81542685Y-155374500D01*
X81449500Y-155467685D01*
X81383610Y-155581809D01*
X81383606Y-155581818D01*
X81349500Y-155709105D01*
X72700500Y-155709105D01*
X72700500Y-155659106D01*
X72700499Y-155659105D01*
X72700366Y-155658610D01*
X72666392Y-155531814D01*
X72600500Y-155417686D01*
X72507314Y-155324500D01*
X72433380Y-155281814D01*
X72393190Y-155258610D01*
X72393181Y-155258606D01*
X72265894Y-155224500D01*
X72265892Y-155224500D01*
X72134108Y-155224500D01*
X72134106Y-155224500D01*
X72006818Y-155258606D01*
X72006809Y-155258610D01*
X71892685Y-155324500D01*
X71799500Y-155417685D01*
X71733610Y-155531809D01*
X71733606Y-155531818D01*
X71699500Y-155659105D01*
X56018825Y-155659105D01*
X56050499Y-155540894D01*
X56050500Y-155540894D01*
X56050500Y-155409106D01*
X56050499Y-155409105D01*
X56050366Y-155408610D01*
X56016392Y-155281814D01*
X55950500Y-155167686D01*
X55857314Y-155074500D01*
X55743190Y-155008610D01*
X55743181Y-155008606D01*
X55615894Y-154974500D01*
X55615892Y-154974500D01*
X55484108Y-154974500D01*
X55484106Y-154974500D01*
X55356818Y-155008606D01*
X55356809Y-155008610D01*
X55242685Y-155074500D01*
X55149500Y-155167685D01*
X55083610Y-155281809D01*
X55083606Y-155281818D01*
X55049500Y-155409105D01*
X27200500Y-155409105D01*
X27200500Y-151259105D01*
X147099500Y-151259105D01*
X147099500Y-151390894D01*
X147133606Y-151518181D01*
X147133607Y-151518184D01*
X147133608Y-151518186D01*
X147199500Y-151632314D01*
X147292686Y-151725500D01*
X147406814Y-151791392D01*
X147534105Y-151825499D01*
X147534106Y-151825500D01*
X147534108Y-151825500D01*
X147665894Y-151825500D01*
X147665894Y-151825499D01*
X147793186Y-151791392D01*
X147907314Y-151725500D01*
X148000500Y-151632314D01*
X148066392Y-151518186D01*
X148100499Y-151390894D01*
X148100500Y-151390894D01*
X148100500Y-151259106D01*
X148100499Y-151259105D01*
X148066393Y-151131818D01*
X148066392Y-151131814D01*
X148000500Y-151017686D01*
X147907314Y-150924500D01*
X147793190Y-150858610D01*
X147793181Y-150858606D01*
X147665894Y-150824500D01*
X147665892Y-150824500D01*
X147534108Y-150824500D01*
X147534106Y-150824500D01*
X147406818Y-150858606D01*
X147406809Y-150858610D01*
X147292685Y-150924500D01*
X147199500Y-151017685D01*
X147133610Y-151131809D01*
X147133606Y-151131818D01*
X147099500Y-151259105D01*
X27200500Y-151259105D01*
X27200500Y-140934105D01*
X180549500Y-140934105D01*
X180549500Y-141065894D01*
X180583606Y-141193181D01*
X180583607Y-141193184D01*
X180583608Y-141193186D01*
X180649500Y-141307314D01*
X180742686Y-141400500D01*
X180856814Y-141466392D01*
X180984105Y-141500499D01*
X180984106Y-141500500D01*
X180984108Y-141500500D01*
X181115894Y-141500500D01*
X181115894Y-141500499D01*
X181243186Y-141466392D01*
X181357314Y-141400500D01*
X181450500Y-141307314D01*
X181516392Y-141193186D01*
X181550499Y-141065894D01*
X181550500Y-141065894D01*
X181550500Y-140934106D01*
X181550499Y-140934105D01*
X187299500Y-140934105D01*
X187299500Y-141065894D01*
X187333606Y-141193181D01*
X187333607Y-141193184D01*
X187333608Y-141193186D01*
X187399500Y-141307314D01*
X187492686Y-141400500D01*
X187606814Y-141466392D01*
X187734105Y-141500499D01*
X187734106Y-141500500D01*
X187734108Y-141500500D01*
X187865894Y-141500500D01*
X187865894Y-141500499D01*
X187993186Y-141466392D01*
X188107314Y-141400500D01*
X188200500Y-141307314D01*
X188266392Y-141193186D01*
X188300499Y-141065894D01*
X188300500Y-141065894D01*
X188300500Y-140934106D01*
X188300499Y-140934105D01*
X188266393Y-140806818D01*
X188266392Y-140806814D01*
X188200500Y-140692686D01*
X188107314Y-140599500D01*
X187993190Y-140533610D01*
X187993181Y-140533606D01*
X187865894Y-140499500D01*
X187865892Y-140499500D01*
X187734108Y-140499500D01*
X187734106Y-140499500D01*
X187606818Y-140533606D01*
X187606809Y-140533610D01*
X187492685Y-140599500D01*
X187399500Y-140692685D01*
X187333610Y-140806809D01*
X187333606Y-140806818D01*
X187299500Y-140934105D01*
X181550499Y-140934105D01*
X181516393Y-140806818D01*
X181516392Y-140806814D01*
X181450500Y-140692686D01*
X181357314Y-140599500D01*
X181243190Y-140533610D01*
X181243181Y-140533606D01*
X181115894Y-140499500D01*
X181115892Y-140499500D01*
X180984108Y-140499500D01*
X180984106Y-140499500D01*
X180856818Y-140533606D01*
X180856809Y-140533610D01*
X180742685Y-140599500D01*
X180649500Y-140692685D01*
X180583610Y-140806809D01*
X180583606Y-140806818D01*
X180549500Y-140934105D01*
X27200500Y-140934105D01*
X27200500Y-128459105D01*
X181549500Y-128459105D01*
X181549500Y-128590894D01*
X181583606Y-128718181D01*
X181583610Y-128718190D01*
X181612478Y-128768190D01*
X181649500Y-128832314D01*
X181742686Y-128925500D01*
X181856814Y-128991392D01*
X181984105Y-129025499D01*
X181984106Y-129025500D01*
X181984108Y-129025500D01*
X182115894Y-129025500D01*
X182115894Y-129025499D01*
X182243186Y-128991392D01*
X182357314Y-128925500D01*
X182450500Y-128832314D01*
X182516392Y-128718186D01*
X182550499Y-128590894D01*
X182550500Y-128590894D01*
X182550500Y-128509105D01*
X184449500Y-128509105D01*
X184449500Y-128640894D01*
X184483606Y-128768181D01*
X184483607Y-128768184D01*
X184483608Y-128768186D01*
X184549500Y-128882314D01*
X184642686Y-128975500D01*
X184756814Y-129041392D01*
X184884105Y-129075499D01*
X184884106Y-129075500D01*
X184884108Y-129075500D01*
X185015894Y-129075500D01*
X185015894Y-129075499D01*
X185143186Y-129041392D01*
X185257314Y-128975500D01*
X185350500Y-128882314D01*
X185416392Y-128768186D01*
X185450499Y-128640894D01*
X185450500Y-128640894D01*
X185450500Y-128509106D01*
X185450499Y-128509105D01*
X185416393Y-128381818D01*
X185416392Y-128381814D01*
X185350500Y-128267686D01*
X185257314Y-128174500D01*
X185170712Y-128124500D01*
X185143190Y-128108610D01*
X185143181Y-128108606D01*
X185015894Y-128074500D01*
X185015892Y-128074500D01*
X184884108Y-128074500D01*
X184884106Y-128074500D01*
X184756818Y-128108606D01*
X184756809Y-128108610D01*
X184642685Y-128174500D01*
X184549500Y-128267685D01*
X184483610Y-128381809D01*
X184483606Y-128381818D01*
X184449500Y-128509105D01*
X182550500Y-128509105D01*
X182550500Y-128459106D01*
X182550499Y-128459105D01*
X182516393Y-128331818D01*
X182516392Y-128331814D01*
X182450500Y-128217686D01*
X182357314Y-128124500D01*
X182270712Y-128074500D01*
X182243190Y-128058610D01*
X182243181Y-128058606D01*
X182115894Y-128024500D01*
X182115892Y-128024500D01*
X181984108Y-128024500D01*
X181984106Y-128024500D01*
X181856818Y-128058606D01*
X181856809Y-128058610D01*
X181742685Y-128124500D01*
X181649500Y-128217685D01*
X181583610Y-128331809D01*
X181583606Y-128331818D01*
X181549500Y-128459105D01*
X27200500Y-128459105D01*
X27200500Y-108909105D01*
X46149500Y-108909105D01*
X46149500Y-109040894D01*
X46183606Y-109168181D01*
X46183610Y-109168190D01*
X46220632Y-109232314D01*
X46249500Y-109282314D01*
X46342686Y-109375500D01*
X46456814Y-109441392D01*
X46584105Y-109475499D01*
X46584106Y-109475500D01*
X46584108Y-109475500D01*
X46715894Y-109475500D01*
X46715894Y-109475499D01*
X46843186Y-109441392D01*
X46957314Y-109375500D01*
X47050500Y-109282314D01*
X47116392Y-109168186D01*
X47150499Y-109040894D01*
X47150500Y-109040894D01*
X47150500Y-108909106D01*
X47150499Y-108909105D01*
X47141494Y-108875499D01*
X47137101Y-108859105D01*
X81449500Y-108859105D01*
X81449500Y-108990894D01*
X81483606Y-109118181D01*
X81483610Y-109118190D01*
X81512478Y-109168190D01*
X81549500Y-109232314D01*
X81642686Y-109325500D01*
X81756814Y-109391392D01*
X81884105Y-109425499D01*
X81884106Y-109425500D01*
X81884108Y-109425500D01*
X82015894Y-109425500D01*
X82015894Y-109425499D01*
X82143186Y-109391392D01*
X82257314Y-109325500D01*
X82350500Y-109232314D01*
X82416392Y-109118186D01*
X82450499Y-108990894D01*
X82450500Y-108990894D01*
X82450500Y-108859106D01*
X82450499Y-108859105D01*
X82445752Y-108841389D01*
X82416392Y-108731814D01*
X82403281Y-108709106D01*
X82403280Y-108709105D01*
X89799500Y-108709105D01*
X89799500Y-108840894D01*
X89833606Y-108968181D01*
X89833610Y-108968190D01*
X89875585Y-109040892D01*
X89899500Y-109082314D01*
X89992686Y-109175500D01*
X90106814Y-109241392D01*
X90234105Y-109275499D01*
X90234106Y-109275500D01*
X90234108Y-109275500D01*
X90365894Y-109275500D01*
X90365894Y-109275499D01*
X90493186Y-109241392D01*
X90607314Y-109175500D01*
X90700500Y-109082314D01*
X90766392Y-108968186D01*
X90800499Y-108840894D01*
X90800500Y-108840894D01*
X90800500Y-108709106D01*
X90800499Y-108709105D01*
X90793320Y-108682314D01*
X90766392Y-108581814D01*
X90700500Y-108467686D01*
X90607314Y-108374500D01*
X90493186Y-108308608D01*
X90493181Y-108308606D01*
X90365894Y-108274500D01*
X90365892Y-108274500D01*
X90234108Y-108274500D01*
X90234106Y-108274500D01*
X90106818Y-108308606D01*
X90106809Y-108308610D01*
X89992685Y-108374500D01*
X89899500Y-108467685D01*
X89833610Y-108581809D01*
X89833606Y-108581818D01*
X89799500Y-108709105D01*
X82403280Y-108709105D01*
X82383878Y-108675499D01*
X82350500Y-108617686D01*
X82257314Y-108524500D01*
X82158908Y-108467685D01*
X82143190Y-108458610D01*
X82143181Y-108458606D01*
X82015894Y-108424500D01*
X82015892Y-108424500D01*
X81884108Y-108424500D01*
X81884106Y-108424500D01*
X81756818Y-108458606D01*
X81756809Y-108458610D01*
X81642685Y-108524500D01*
X81549500Y-108617685D01*
X81483610Y-108731809D01*
X81483606Y-108731818D01*
X81449500Y-108859105D01*
X47137101Y-108859105D01*
X47116392Y-108781814D01*
X47050500Y-108667686D01*
X46957314Y-108574500D01*
X46899971Y-108541393D01*
X46843190Y-108508610D01*
X46843181Y-108508606D01*
X46715894Y-108474500D01*
X46715892Y-108474500D01*
X46584108Y-108474500D01*
X46584106Y-108474500D01*
X46456818Y-108508606D01*
X46456809Y-108508610D01*
X46342685Y-108574500D01*
X46249500Y-108667685D01*
X46183610Y-108781809D01*
X46183606Y-108781818D01*
X46149500Y-108909105D01*
X27200500Y-108909105D01*
X27200500Y-107559105D01*
X37749500Y-107559105D01*
X37749500Y-107690894D01*
X37783606Y-107818181D01*
X37783610Y-107818190D01*
X37806946Y-107858608D01*
X37849500Y-107932314D01*
X37942686Y-108025500D01*
X38056814Y-108091392D01*
X38184105Y-108125499D01*
X38184106Y-108125500D01*
X38184108Y-108125500D01*
X38315894Y-108125500D01*
X38315894Y-108125499D01*
X38377079Y-108109105D01*
X55999500Y-108109105D01*
X55999500Y-108240894D01*
X56033606Y-108368181D01*
X56033610Y-108368190D01*
X56062478Y-108418190D01*
X56099500Y-108482314D01*
X56192686Y-108575500D01*
X56306814Y-108641392D01*
X56434105Y-108675499D01*
X56434106Y-108675500D01*
X56434108Y-108675500D01*
X56565894Y-108675500D01*
X56565894Y-108675499D01*
X56693186Y-108641392D01*
X56807314Y-108575500D01*
X56900500Y-108482314D01*
X56966392Y-108368186D01*
X57000499Y-108240894D01*
X57000500Y-108240894D01*
X57000500Y-108109106D01*
X57000499Y-108109105D01*
X56978097Y-108025500D01*
X56966392Y-107981814D01*
X56900500Y-107867686D01*
X56807314Y-107774500D01*
X56780649Y-107759105D01*
X63069500Y-107759105D01*
X63069500Y-107890894D01*
X63103606Y-108018181D01*
X63103610Y-108018190D01*
X63118572Y-108044105D01*
X63169500Y-108132314D01*
X63262686Y-108225500D01*
X63376814Y-108291392D01*
X63504105Y-108325499D01*
X63504106Y-108325500D01*
X63504108Y-108325500D01*
X63635894Y-108325500D01*
X63635894Y-108325499D01*
X63763186Y-108291392D01*
X63819109Y-108259105D01*
X72599500Y-108259105D01*
X72599500Y-108390894D01*
X72633606Y-108518181D01*
X72633610Y-108518190D01*
X72667213Y-108576392D01*
X72699500Y-108632314D01*
X72792686Y-108725500D01*
X72906814Y-108791392D01*
X73034105Y-108825499D01*
X73034106Y-108825500D01*
X73034108Y-108825500D01*
X73165894Y-108825500D01*
X73165894Y-108825499D01*
X73293186Y-108791392D01*
X73294775Y-108790474D01*
X73295298Y-108790173D01*
X73295299Y-108790172D01*
X73407314Y-108725500D01*
X73500500Y-108632314D01*
X73566392Y-108518186D01*
X73600499Y-108390894D01*
X73600500Y-108390894D01*
X73600500Y-108259106D01*
X73600499Y-108259105D01*
X98649500Y-108259105D01*
X98649500Y-108390894D01*
X98683606Y-108518181D01*
X98683610Y-108518190D01*
X98717213Y-108576392D01*
X98749500Y-108632314D01*
X98842686Y-108725500D01*
X98956814Y-108791392D01*
X99084105Y-108825499D01*
X99084106Y-108825500D01*
X99084108Y-108825500D01*
X99215894Y-108825500D01*
X99215894Y-108825499D01*
X99343186Y-108791392D01*
X99457314Y-108725500D01*
X99550500Y-108632314D01*
X99616392Y-108518186D01*
X99650499Y-108390894D01*
X99650500Y-108390894D01*
X99650500Y-108309105D01*
X107549500Y-108309105D01*
X107549500Y-108440894D01*
X107583606Y-108568181D01*
X107583610Y-108568190D01*
X107588346Y-108576393D01*
X107649500Y-108682314D01*
X107742686Y-108775500D01*
X107856814Y-108841392D01*
X107984105Y-108875499D01*
X107984106Y-108875500D01*
X107984108Y-108875500D01*
X108115894Y-108875500D01*
X108115894Y-108875499D01*
X108243186Y-108841392D01*
X108357314Y-108775500D01*
X108450500Y-108682314D01*
X108516392Y-108568186D01*
X108550499Y-108440894D01*
X108550500Y-108440894D01*
X108550500Y-108309108D01*
X108540935Y-108273410D01*
X108540935Y-108273408D01*
X108537102Y-108259105D01*
X115649500Y-108259105D01*
X115649500Y-108390894D01*
X115683606Y-108518181D01*
X115683610Y-108518190D01*
X115717213Y-108576392D01*
X115749500Y-108632314D01*
X115842686Y-108725500D01*
X115956814Y-108791392D01*
X116084105Y-108825499D01*
X116084106Y-108825500D01*
X116084108Y-108825500D01*
X116215894Y-108825500D01*
X116215894Y-108825499D01*
X116343186Y-108791392D01*
X116457314Y-108725500D01*
X116550500Y-108632314D01*
X116616392Y-108518186D01*
X116650499Y-108390894D01*
X116650500Y-108390894D01*
X116650500Y-108309105D01*
X123799500Y-108309105D01*
X123799500Y-108440894D01*
X123833606Y-108568181D01*
X123833610Y-108568190D01*
X123838346Y-108576393D01*
X123899500Y-108682314D01*
X123992686Y-108775500D01*
X124106814Y-108841392D01*
X124234105Y-108875499D01*
X124234106Y-108875500D01*
X124234108Y-108875500D01*
X124365894Y-108875500D01*
X124365894Y-108875499D01*
X124493186Y-108841392D01*
X124607314Y-108775500D01*
X124700500Y-108682314D01*
X124766392Y-108568186D01*
X124800499Y-108440894D01*
X124800500Y-108440894D01*
X124800500Y-108309106D01*
X124800499Y-108309105D01*
X124800366Y-108308610D01*
X124766392Y-108181814D01*
X124724413Y-108109105D01*
X133049500Y-108109105D01*
X133049500Y-108240894D01*
X133083606Y-108368181D01*
X133083610Y-108368190D01*
X133112478Y-108418190D01*
X133149500Y-108482314D01*
X133242686Y-108575500D01*
X133356814Y-108641392D01*
X133484105Y-108675499D01*
X133484106Y-108675500D01*
X133484108Y-108675500D01*
X133615894Y-108675500D01*
X133615894Y-108675499D01*
X133743186Y-108641392D01*
X133857314Y-108575500D01*
X133950500Y-108482314D01*
X134016392Y-108368186D01*
X134050499Y-108240894D01*
X134050500Y-108240894D01*
X134050500Y-108109106D01*
X134050499Y-108109105D01*
X134027538Y-108023411D01*
X134027538Y-108023410D01*
X134023705Y-108009105D01*
X140699500Y-108009105D01*
X140699500Y-108140894D01*
X140733606Y-108268181D01*
X140733610Y-108268190D01*
X140757233Y-108309106D01*
X140799500Y-108382314D01*
X140892686Y-108475500D01*
X141006814Y-108541392D01*
X141134105Y-108575499D01*
X141134106Y-108575500D01*
X141134108Y-108575500D01*
X141265894Y-108575500D01*
X141265894Y-108575499D01*
X141393186Y-108541392D01*
X141507314Y-108475500D01*
X141600500Y-108382314D01*
X141666392Y-108268186D01*
X141700499Y-108140894D01*
X141700500Y-108140894D01*
X141700500Y-108109105D01*
X150049500Y-108109105D01*
X150049500Y-108240894D01*
X150083606Y-108368181D01*
X150083610Y-108368190D01*
X150112478Y-108418190D01*
X150149500Y-108482314D01*
X150242686Y-108575500D01*
X150356814Y-108641392D01*
X150484105Y-108675499D01*
X150484106Y-108675500D01*
X150484108Y-108675500D01*
X150615894Y-108675500D01*
X150615894Y-108675499D01*
X150743186Y-108641392D01*
X150857314Y-108575500D01*
X150950500Y-108482314D01*
X151016392Y-108368186D01*
X151050499Y-108240894D01*
X151050500Y-108240894D01*
X151050500Y-108159105D01*
X157699500Y-108159105D01*
X157699500Y-108290894D01*
X157733606Y-108418181D01*
X157733610Y-108418190D01*
X157756946Y-108458608D01*
X157799500Y-108532314D01*
X157892686Y-108625500D01*
X158006814Y-108691392D01*
X158134105Y-108725499D01*
X158134106Y-108725500D01*
X158134108Y-108725500D01*
X158265894Y-108725500D01*
X158265894Y-108725499D01*
X158393186Y-108691392D01*
X158507314Y-108625500D01*
X158600500Y-108532314D01*
X158666392Y-108418186D01*
X158700499Y-108290894D01*
X158700500Y-108290894D01*
X158700500Y-108159109D01*
X158695717Y-108141258D01*
X158669685Y-108044105D01*
X166249500Y-108044105D01*
X166249500Y-108175894D01*
X166283606Y-108303181D01*
X166283610Y-108303190D01*
X166287025Y-108309105D01*
X166349500Y-108417314D01*
X166442686Y-108510500D01*
X166556814Y-108576392D01*
X166684105Y-108610499D01*
X166684106Y-108610500D01*
X166684108Y-108610500D01*
X166815894Y-108610500D01*
X166815894Y-108610499D01*
X166943186Y-108576392D01*
X167057314Y-108510500D01*
X167150500Y-108417314D01*
X167216392Y-108303186D01*
X167250499Y-108175894D01*
X167250500Y-108175894D01*
X167250500Y-108044108D01*
X167244954Y-108023410D01*
X167244954Y-108023408D01*
X167241121Y-108009105D01*
X174449500Y-108009105D01*
X174449500Y-108140894D01*
X174483606Y-108268181D01*
X174483610Y-108268190D01*
X174507233Y-108309106D01*
X174549500Y-108382314D01*
X174642686Y-108475500D01*
X174756814Y-108541392D01*
X174884105Y-108575499D01*
X174884106Y-108575500D01*
X174884108Y-108575500D01*
X175015894Y-108575500D01*
X175015894Y-108575499D01*
X175143186Y-108541392D01*
X175257314Y-108475500D01*
X175350500Y-108382314D01*
X175416392Y-108268186D01*
X175450499Y-108140894D01*
X175450500Y-108140894D01*
X175450500Y-108009106D01*
X175450499Y-108009105D01*
X175443186Y-107981814D01*
X175416392Y-107881814D01*
X175350500Y-107767686D01*
X175257314Y-107674500D01*
X175183380Y-107631814D01*
X175143190Y-107608610D01*
X175143181Y-107608606D01*
X175015894Y-107574500D01*
X175015892Y-107574500D01*
X174884108Y-107574500D01*
X174884106Y-107574500D01*
X174756818Y-107608606D01*
X174756809Y-107608610D01*
X174642685Y-107674500D01*
X174549500Y-107767685D01*
X174483610Y-107881809D01*
X174483606Y-107881818D01*
X174449500Y-108009105D01*
X167241121Y-108009105D01*
X167216393Y-107916818D01*
X167216392Y-107916814D01*
X167150500Y-107802686D01*
X167057314Y-107709500D01*
X167025084Y-107690892D01*
X166943190Y-107643610D01*
X166943181Y-107643606D01*
X166815894Y-107609500D01*
X166815892Y-107609500D01*
X166684108Y-107609500D01*
X166684106Y-107609500D01*
X166556818Y-107643606D01*
X166556809Y-107643610D01*
X166442685Y-107709500D01*
X166349500Y-107802685D01*
X166283610Y-107916809D01*
X166283606Y-107916818D01*
X166249500Y-108044105D01*
X158669685Y-108044105D01*
X158668631Y-108040172D01*
X158666393Y-108031818D01*
X158666392Y-108031814D01*
X158600500Y-107917686D01*
X158507314Y-107824500D01*
X158469531Y-107802686D01*
X158393190Y-107758610D01*
X158393181Y-107758606D01*
X158265894Y-107724500D01*
X158265892Y-107724500D01*
X158134108Y-107724500D01*
X158134106Y-107724500D01*
X158006818Y-107758606D01*
X158006809Y-107758610D01*
X157892685Y-107824500D01*
X157799500Y-107917685D01*
X157733610Y-108031809D01*
X157733606Y-108031818D01*
X157699500Y-108159105D01*
X151050500Y-108159105D01*
X151050500Y-108109106D01*
X151050499Y-108109105D01*
X151028097Y-108025500D01*
X151016392Y-107981814D01*
X150950500Y-107867686D01*
X150857314Y-107774500D01*
X150770712Y-107724500D01*
X150743190Y-107708610D01*
X150743181Y-107708606D01*
X150615894Y-107674500D01*
X150615892Y-107674500D01*
X150484108Y-107674500D01*
X150484106Y-107674500D01*
X150356818Y-107708606D01*
X150356809Y-107708610D01*
X150242685Y-107774500D01*
X150149500Y-107867685D01*
X150083610Y-107981809D01*
X150083606Y-107981818D01*
X150049500Y-108109105D01*
X141700500Y-108109105D01*
X141700500Y-108009106D01*
X141700499Y-108009105D01*
X141693186Y-107981814D01*
X141666392Y-107881814D01*
X141600500Y-107767686D01*
X141507314Y-107674500D01*
X141433380Y-107631814D01*
X141393190Y-107608610D01*
X141393181Y-107608606D01*
X141265894Y-107574500D01*
X141265892Y-107574500D01*
X141134108Y-107574500D01*
X141134106Y-107574500D01*
X141006818Y-107608606D01*
X141006809Y-107608610D01*
X140892685Y-107674500D01*
X140799500Y-107767685D01*
X140733610Y-107881809D01*
X140733606Y-107881818D01*
X140699500Y-108009105D01*
X134023705Y-108009105D01*
X134016393Y-107981818D01*
X134016392Y-107981814D01*
X133950500Y-107867686D01*
X133857314Y-107774500D01*
X133770712Y-107724500D01*
X133743190Y-107708610D01*
X133743181Y-107708606D01*
X133615894Y-107674500D01*
X133615892Y-107674500D01*
X133484108Y-107674500D01*
X133484106Y-107674500D01*
X133356818Y-107708606D01*
X133356809Y-107708610D01*
X133242685Y-107774500D01*
X133149500Y-107867685D01*
X133083610Y-107981809D01*
X133083606Y-107981818D01*
X133049500Y-108109105D01*
X124724413Y-108109105D01*
X124700500Y-108067686D01*
X124607314Y-107974500D01*
X124508908Y-107917685D01*
X124493190Y-107908610D01*
X124493181Y-107908606D01*
X124365894Y-107874500D01*
X124365892Y-107874500D01*
X124234108Y-107874500D01*
X124234106Y-107874500D01*
X124106818Y-107908606D01*
X124106809Y-107908610D01*
X123992685Y-107974500D01*
X123899500Y-108067685D01*
X123833610Y-108181809D01*
X123833606Y-108181818D01*
X123799500Y-108309105D01*
X116650500Y-108309105D01*
X116650500Y-108259106D01*
X116650499Y-108259105D01*
X116645619Y-108240894D01*
X116616392Y-108131814D01*
X116550500Y-108017686D01*
X116457314Y-107924500D01*
X116444008Y-107916818D01*
X116343190Y-107858610D01*
X116343181Y-107858606D01*
X116215894Y-107824500D01*
X116215892Y-107824500D01*
X116084108Y-107824500D01*
X116084106Y-107824500D01*
X115956818Y-107858606D01*
X115956809Y-107858610D01*
X115842685Y-107924500D01*
X115749500Y-108017685D01*
X115683610Y-108131809D01*
X115683606Y-108131818D01*
X115649500Y-108259105D01*
X108537102Y-108259105D01*
X108516393Y-108181818D01*
X108516392Y-108181814D01*
X108450500Y-108067686D01*
X108357314Y-107974500D01*
X108258908Y-107917685D01*
X108243190Y-107908610D01*
X108243181Y-107908606D01*
X108115894Y-107874500D01*
X108115892Y-107874500D01*
X107984108Y-107874500D01*
X107984106Y-107874500D01*
X107856818Y-107908606D01*
X107856809Y-107908610D01*
X107742685Y-107974500D01*
X107649500Y-108067685D01*
X107583610Y-108181809D01*
X107583606Y-108181818D01*
X107549500Y-108309105D01*
X99650500Y-108309105D01*
X99650500Y-108259106D01*
X99650499Y-108259105D01*
X99645619Y-108240894D01*
X99616392Y-108131814D01*
X99550500Y-108017686D01*
X99457314Y-107924500D01*
X99444008Y-107916818D01*
X99343190Y-107858610D01*
X99343181Y-107858606D01*
X99215894Y-107824500D01*
X99215892Y-107824500D01*
X99084108Y-107824500D01*
X99084106Y-107824500D01*
X98956818Y-107858606D01*
X98956809Y-107858610D01*
X98842685Y-107924500D01*
X98749500Y-108017685D01*
X98683610Y-108131809D01*
X98683606Y-108131818D01*
X98649500Y-108259105D01*
X73600499Y-108259105D01*
X73595619Y-108240894D01*
X73566392Y-108131814D01*
X73500500Y-108017686D01*
X73407314Y-107924500D01*
X73394008Y-107916818D01*
X73293190Y-107858610D01*
X73293181Y-107858606D01*
X73165894Y-107824500D01*
X73165892Y-107824500D01*
X73034108Y-107824500D01*
X73034106Y-107824500D01*
X72906818Y-107858606D01*
X72906809Y-107858610D01*
X72792685Y-107924500D01*
X72699500Y-108017685D01*
X72633610Y-108131809D01*
X72633606Y-108131818D01*
X72599500Y-108259105D01*
X63819109Y-108259105D01*
X63877314Y-108225500D01*
X63970500Y-108132314D01*
X64036392Y-108018186D01*
X64070499Y-107890894D01*
X64070500Y-107890894D01*
X64070500Y-107759106D01*
X64070499Y-107759105D01*
X64070366Y-107758610D01*
X64036392Y-107631814D01*
X63970500Y-107517686D01*
X63877314Y-107424500D01*
X63763190Y-107358610D01*
X63763181Y-107358606D01*
X63635894Y-107324500D01*
X63635892Y-107324500D01*
X63504108Y-107324500D01*
X63504106Y-107324500D01*
X63376818Y-107358606D01*
X63376809Y-107358610D01*
X63262685Y-107424500D01*
X63169500Y-107517685D01*
X63103610Y-107631809D01*
X63103606Y-107631818D01*
X63069500Y-107759105D01*
X56780649Y-107759105D01*
X56720712Y-107724500D01*
X56693190Y-107708610D01*
X56693181Y-107708606D01*
X56565894Y-107674500D01*
X56565892Y-107674500D01*
X56434108Y-107674500D01*
X56434106Y-107674500D01*
X56306818Y-107708606D01*
X56306809Y-107708610D01*
X56192685Y-107774500D01*
X56099500Y-107867685D01*
X56033610Y-107981809D01*
X56033606Y-107981818D01*
X55999500Y-108109105D01*
X38377079Y-108109105D01*
X38443186Y-108091392D01*
X38557314Y-108025500D01*
X38650500Y-107932314D01*
X38716392Y-107818186D01*
X38750499Y-107690894D01*
X38750500Y-107690894D01*
X38750500Y-107559106D01*
X38750499Y-107559105D01*
X38727538Y-107473411D01*
X38723705Y-107459105D01*
X41799500Y-107459105D01*
X41799500Y-107590894D01*
X41833606Y-107718181D01*
X41833610Y-107718190D01*
X41857233Y-107759106D01*
X41899500Y-107832314D01*
X41992686Y-107925500D01*
X42106814Y-107991392D01*
X42234105Y-108025499D01*
X42234106Y-108025500D01*
X42234108Y-108025500D01*
X42365894Y-108025500D01*
X42365894Y-108025499D01*
X42493186Y-107991392D01*
X42607314Y-107925500D01*
X42700500Y-107832314D01*
X42766392Y-107718186D01*
X42800499Y-107590894D01*
X42800500Y-107590894D01*
X42800500Y-107459106D01*
X42800499Y-107459105D01*
X42793186Y-107431814D01*
X42766392Y-107331814D01*
X42700500Y-107217686D01*
X42607314Y-107124500D01*
X42493190Y-107058610D01*
X42493181Y-107058606D01*
X42365894Y-107024500D01*
X42365892Y-107024500D01*
X42234108Y-107024500D01*
X42234106Y-107024500D01*
X42106818Y-107058606D01*
X42106809Y-107058610D01*
X41992685Y-107124500D01*
X41899500Y-107217685D01*
X41833610Y-107331809D01*
X41833606Y-107331818D01*
X41799500Y-107459105D01*
X38723705Y-107459105D01*
X38716393Y-107431818D01*
X38716392Y-107431814D01*
X38650500Y-107317686D01*
X38557314Y-107224500D01*
X38545510Y-107217685D01*
X38443190Y-107158610D01*
X38443181Y-107158606D01*
X38315894Y-107124500D01*
X38315892Y-107124500D01*
X38184108Y-107124500D01*
X38184106Y-107124500D01*
X38056818Y-107158606D01*
X38056809Y-107158610D01*
X37942685Y-107224500D01*
X37849500Y-107317685D01*
X37783610Y-107431809D01*
X37783606Y-107431818D01*
X37749500Y-107559105D01*
X27200500Y-107559105D01*
X27200500Y-105259105D01*
X63749500Y-105259105D01*
X63749500Y-105390894D01*
X63783606Y-105518181D01*
X63783610Y-105518190D01*
X63816698Y-105575499D01*
X63849500Y-105632314D01*
X63942686Y-105725500D01*
X64056814Y-105791392D01*
X64184105Y-105825499D01*
X64184106Y-105825500D01*
X64184108Y-105825500D01*
X64315894Y-105825500D01*
X64315894Y-105825499D01*
X64443186Y-105791392D01*
X64557314Y-105725500D01*
X64650500Y-105632314D01*
X64716392Y-105518186D01*
X64750499Y-105390894D01*
X64750500Y-105390894D01*
X64750500Y-105259106D01*
X64750499Y-105259105D01*
X64743320Y-105232314D01*
X64716392Y-105131814D01*
X64650500Y-105017686D01*
X64557314Y-104924500D01*
X64499107Y-104890894D01*
X64443190Y-104858610D01*
X64443181Y-104858606D01*
X64315894Y-104824500D01*
X64315892Y-104824500D01*
X64184108Y-104824500D01*
X64184106Y-104824500D01*
X64056818Y-104858606D01*
X64056809Y-104858610D01*
X63942685Y-104924500D01*
X63849500Y-105017685D01*
X63783610Y-105131809D01*
X63783606Y-105131818D01*
X63749500Y-105259105D01*
X27200500Y-105259105D01*
X27200500Y-104174105D01*
X46949500Y-104174105D01*
X46949500Y-104305894D01*
X46983606Y-104433181D01*
X46983610Y-104433190D01*
X47007461Y-104474500D01*
X47049500Y-104547314D01*
X47142686Y-104640500D01*
X47256814Y-104706392D01*
X47384105Y-104740499D01*
X47384106Y-104740500D01*
X47384108Y-104740500D01*
X47515894Y-104740500D01*
X47515894Y-104740499D01*
X47643186Y-104706392D01*
X47757314Y-104640500D01*
X47850500Y-104547314D01*
X47916392Y-104433186D01*
X47950499Y-104305894D01*
X47950500Y-104305894D01*
X47950500Y-104174106D01*
X47950499Y-104174105D01*
X55299500Y-104174105D01*
X55299500Y-104305894D01*
X55333606Y-104433181D01*
X55333610Y-104433190D01*
X55357461Y-104474500D01*
X55399500Y-104547314D01*
X55492686Y-104640500D01*
X55606814Y-104706392D01*
X55734105Y-104740499D01*
X55734106Y-104740500D01*
X55734108Y-104740500D01*
X55865894Y-104740500D01*
X55865894Y-104740499D01*
X55983061Y-104709105D01*
X72049500Y-104709105D01*
X72049500Y-104840894D01*
X72083606Y-104968181D01*
X72083610Y-104968190D01*
X72112478Y-105018190D01*
X72149500Y-105082314D01*
X72242686Y-105175500D01*
X72356814Y-105241392D01*
X72484105Y-105275499D01*
X72484106Y-105275500D01*
X72484108Y-105275500D01*
X72615894Y-105275500D01*
X72615894Y-105275499D01*
X72743186Y-105241392D01*
X72857314Y-105175500D01*
X72950500Y-105082314D01*
X73016392Y-104968186D01*
X73050499Y-104840894D01*
X73050500Y-104840894D01*
X73050500Y-104759105D01*
X81699500Y-104759105D01*
X81699500Y-104890894D01*
X81733606Y-105018181D01*
X81733610Y-105018190D01*
X81762478Y-105068190D01*
X81799500Y-105132314D01*
X81892686Y-105225500D01*
X82006814Y-105291392D01*
X82134105Y-105325499D01*
X82134106Y-105325500D01*
X82134108Y-105325500D01*
X82265894Y-105325500D01*
X82265894Y-105325499D01*
X82393186Y-105291392D01*
X82507314Y-105225500D01*
X82600500Y-105132314D01*
X82666392Y-105018186D01*
X82700499Y-104890894D01*
X82700500Y-104890894D01*
X82700500Y-104759106D01*
X82700499Y-104759105D01*
X82677538Y-104673411D01*
X82673705Y-104659105D01*
X88749500Y-104659105D01*
X88749500Y-104790894D01*
X88783606Y-104918181D01*
X88783610Y-104918190D01*
X88812478Y-104968190D01*
X88849500Y-105032314D01*
X88942686Y-105125500D01*
X89056814Y-105191392D01*
X89184105Y-105225499D01*
X89184106Y-105225500D01*
X89184108Y-105225500D01*
X89315894Y-105225500D01*
X89315894Y-105225499D01*
X89443186Y-105191392D01*
X89557314Y-105125500D01*
X89650500Y-105032314D01*
X89716392Y-104918186D01*
X89750499Y-104790894D01*
X89750500Y-104790894D01*
X89750500Y-104759105D01*
X98649500Y-104759105D01*
X98649500Y-104890894D01*
X98683606Y-105018181D01*
X98683610Y-105018190D01*
X98712478Y-105068190D01*
X98749500Y-105132314D01*
X98842686Y-105225500D01*
X98956814Y-105291392D01*
X99084105Y-105325499D01*
X99084106Y-105325500D01*
X99084108Y-105325500D01*
X99215894Y-105325500D01*
X99215894Y-105325499D01*
X99343186Y-105291392D01*
X99457314Y-105225500D01*
X99550500Y-105132314D01*
X99616392Y-105018186D01*
X99650499Y-104890894D01*
X99650500Y-104890894D01*
X99650500Y-104759108D01*
X99640935Y-104723410D01*
X99640935Y-104723408D01*
X99637102Y-104709105D01*
X105749500Y-104709105D01*
X105749500Y-104840894D01*
X105783606Y-104968181D01*
X105783610Y-104968190D01*
X105812478Y-105018190D01*
X105849500Y-105082314D01*
X105942686Y-105175500D01*
X106056814Y-105241392D01*
X106184105Y-105275499D01*
X106184106Y-105275500D01*
X106184108Y-105275500D01*
X106315894Y-105275500D01*
X106315894Y-105275499D01*
X106443186Y-105241392D01*
X106557314Y-105175500D01*
X106650500Y-105082314D01*
X106716392Y-104968186D01*
X106745620Y-104859105D01*
X115649500Y-104859105D01*
X115649500Y-104990894D01*
X115683606Y-105118181D01*
X115683610Y-105118190D01*
X115712478Y-105168190D01*
X115749500Y-105232314D01*
X115842686Y-105325500D01*
X115956814Y-105391392D01*
X116084105Y-105425499D01*
X116084106Y-105425500D01*
X116084108Y-105425500D01*
X116215894Y-105425500D01*
X116215894Y-105425499D01*
X116343186Y-105391392D01*
X116457314Y-105325500D01*
X116550500Y-105232314D01*
X116616392Y-105118186D01*
X116650499Y-104990894D01*
X116650500Y-104990894D01*
X116650500Y-104859108D01*
X116640935Y-104823410D01*
X116640935Y-104823408D01*
X116637102Y-104809105D01*
X122799500Y-104809105D01*
X122799500Y-104940894D01*
X122833606Y-105068181D01*
X122833610Y-105068190D01*
X122862478Y-105118190D01*
X122899500Y-105182314D01*
X122992686Y-105275500D01*
X123106814Y-105341392D01*
X123234105Y-105375499D01*
X123234106Y-105375500D01*
X123234108Y-105375500D01*
X123365894Y-105375500D01*
X123365894Y-105375499D01*
X123493186Y-105341392D01*
X123607314Y-105275500D01*
X123700500Y-105182314D01*
X123766392Y-105068186D01*
X123782223Y-105009105D01*
X132749500Y-105009105D01*
X132749500Y-105140894D01*
X132783606Y-105268181D01*
X132783610Y-105268190D01*
X132816698Y-105325499D01*
X132849500Y-105382314D01*
X132942686Y-105475500D01*
X133056814Y-105541392D01*
X133184105Y-105575499D01*
X133184106Y-105575500D01*
X133184108Y-105575500D01*
X133315894Y-105575500D01*
X133315894Y-105575499D01*
X133443186Y-105541392D01*
X133557314Y-105475500D01*
X133650500Y-105382314D01*
X133716392Y-105268186D01*
X133750499Y-105140894D01*
X133750500Y-105140894D01*
X133750500Y-105009106D01*
X133750499Y-105009105D01*
X133727538Y-104923411D01*
X133723705Y-104909105D01*
X139949500Y-104909105D01*
X139949500Y-105040894D01*
X139983606Y-105168181D01*
X139983610Y-105168190D01*
X140016698Y-105225499D01*
X140049500Y-105282314D01*
X140142686Y-105375500D01*
X140256814Y-105441392D01*
X140384105Y-105475499D01*
X140384106Y-105475500D01*
X140384108Y-105475500D01*
X140515894Y-105475500D01*
X140515894Y-105475499D01*
X140643186Y-105441392D01*
X140757314Y-105375500D01*
X140850500Y-105282314D01*
X140916392Y-105168186D01*
X140950499Y-105040894D01*
X140950500Y-105040894D01*
X140950500Y-104909106D01*
X140950499Y-104909105D01*
X140945619Y-104890894D01*
X140916392Y-104781814D01*
X140850500Y-104667686D01*
X140841919Y-104659105D01*
X149899500Y-104659105D01*
X149899500Y-104790894D01*
X149933606Y-104918181D01*
X149933610Y-104918190D01*
X149962478Y-104968190D01*
X149999500Y-105032314D01*
X150092686Y-105125500D01*
X150206814Y-105191392D01*
X150334105Y-105225499D01*
X150334106Y-105225500D01*
X150334108Y-105225500D01*
X150465894Y-105225500D01*
X150465894Y-105225499D01*
X150593186Y-105191392D01*
X150707314Y-105125500D01*
X150800500Y-105032314D01*
X150866392Y-104918186D01*
X150900499Y-104790894D01*
X150900500Y-104790894D01*
X150900500Y-104759105D01*
X156849500Y-104759105D01*
X156849500Y-104890894D01*
X156883606Y-105018181D01*
X156883610Y-105018190D01*
X156912478Y-105068190D01*
X156949500Y-105132314D01*
X157042686Y-105225500D01*
X157156814Y-105291392D01*
X157284105Y-105325499D01*
X157284106Y-105325500D01*
X157284108Y-105325500D01*
X157415894Y-105325500D01*
X157415894Y-105325499D01*
X157543186Y-105291392D01*
X157657314Y-105225500D01*
X157750500Y-105132314D01*
X157816392Y-105018186D01*
X157850499Y-104890894D01*
X157850500Y-104890894D01*
X157850500Y-104859105D01*
X166449500Y-104859105D01*
X166449500Y-104990894D01*
X166483606Y-105118181D01*
X166483610Y-105118190D01*
X166512478Y-105168190D01*
X166549500Y-105232314D01*
X166642686Y-105325500D01*
X166756814Y-105391392D01*
X166884105Y-105425499D01*
X166884106Y-105425500D01*
X166884108Y-105425500D01*
X167015894Y-105425500D01*
X167015894Y-105425499D01*
X167143186Y-105391392D01*
X167257314Y-105325500D01*
X167350500Y-105232314D01*
X167416392Y-105118186D01*
X167450499Y-104990894D01*
X167450500Y-104990894D01*
X167450500Y-104909105D01*
X173699500Y-104909105D01*
X173699500Y-105040894D01*
X173733606Y-105168181D01*
X173733610Y-105168190D01*
X173766698Y-105225499D01*
X173799500Y-105282314D01*
X173892686Y-105375500D01*
X174006814Y-105441392D01*
X174134105Y-105475499D01*
X174134106Y-105475500D01*
X174134108Y-105475500D01*
X174265894Y-105475500D01*
X174265894Y-105475499D01*
X174393186Y-105441392D01*
X174507314Y-105375500D01*
X174600500Y-105282314D01*
X174666392Y-105168186D01*
X174700499Y-105040894D01*
X174700500Y-105040894D01*
X174700500Y-104909106D01*
X174700499Y-104909105D01*
X174695619Y-104890894D01*
X174666392Y-104781814D01*
X174600500Y-104667686D01*
X174507314Y-104574500D01*
X174433380Y-104531814D01*
X174393190Y-104508610D01*
X174393181Y-104508606D01*
X174265894Y-104474500D01*
X174265892Y-104474500D01*
X174134108Y-104474500D01*
X174134106Y-104474500D01*
X174006818Y-104508606D01*
X174006809Y-104508610D01*
X173892685Y-104574500D01*
X173799500Y-104667685D01*
X173733610Y-104781809D01*
X173733606Y-104781818D01*
X173699500Y-104909105D01*
X167450500Y-104909105D01*
X167450500Y-104859106D01*
X167450499Y-104859105D01*
X167450366Y-104858610D01*
X167416392Y-104731814D01*
X167350500Y-104617686D01*
X167257314Y-104524500D01*
X167158908Y-104467685D01*
X167143190Y-104458610D01*
X167143181Y-104458606D01*
X167015894Y-104424500D01*
X167015892Y-104424500D01*
X166884108Y-104424500D01*
X166884106Y-104424500D01*
X166756818Y-104458606D01*
X166756809Y-104458610D01*
X166642685Y-104524500D01*
X166549500Y-104617685D01*
X166483610Y-104731809D01*
X166483606Y-104731818D01*
X166449500Y-104859105D01*
X157850500Y-104859105D01*
X157850500Y-104759106D01*
X157850499Y-104759105D01*
X157843186Y-104731814D01*
X157816392Y-104631814D01*
X157750500Y-104517686D01*
X157657314Y-104424500D01*
X157570712Y-104374500D01*
X157543190Y-104358610D01*
X157543181Y-104358606D01*
X157415894Y-104324500D01*
X157415892Y-104324500D01*
X157284108Y-104324500D01*
X157284106Y-104324500D01*
X157156818Y-104358606D01*
X157156809Y-104358610D01*
X157042685Y-104424500D01*
X156949500Y-104517685D01*
X156883610Y-104631809D01*
X156883606Y-104631818D01*
X156849500Y-104759105D01*
X150900500Y-104759105D01*
X150900500Y-104659106D01*
X150900499Y-104659105D01*
X150893186Y-104631814D01*
X150866392Y-104531814D01*
X150800500Y-104417686D01*
X150707314Y-104324500D01*
X150620712Y-104274500D01*
X150593190Y-104258610D01*
X150593181Y-104258606D01*
X150465894Y-104224500D01*
X150465892Y-104224500D01*
X150334108Y-104224500D01*
X150334106Y-104224500D01*
X150206818Y-104258606D01*
X150206809Y-104258610D01*
X150092685Y-104324500D01*
X149999500Y-104417685D01*
X149933610Y-104531809D01*
X149933606Y-104531818D01*
X149899500Y-104659105D01*
X140841919Y-104659105D01*
X140757314Y-104574500D01*
X140683380Y-104531814D01*
X140643190Y-104508610D01*
X140643181Y-104508606D01*
X140515894Y-104474500D01*
X140515892Y-104474500D01*
X140384108Y-104474500D01*
X140384106Y-104474500D01*
X140256818Y-104508606D01*
X140256809Y-104508610D01*
X140142685Y-104574500D01*
X140049500Y-104667685D01*
X139983610Y-104781809D01*
X139983606Y-104781818D01*
X139949500Y-104909105D01*
X133723705Y-104909105D01*
X133716393Y-104881818D01*
X133716392Y-104881814D01*
X133650500Y-104767686D01*
X133557314Y-104674500D01*
X133530649Y-104659105D01*
X133443190Y-104608610D01*
X133443181Y-104608606D01*
X133315894Y-104574500D01*
X133315892Y-104574500D01*
X133184108Y-104574500D01*
X133184106Y-104574500D01*
X133056818Y-104608606D01*
X133056809Y-104608610D01*
X132942685Y-104674500D01*
X132849500Y-104767685D01*
X132783610Y-104881809D01*
X132783606Y-104881818D01*
X132749500Y-105009105D01*
X123782223Y-105009105D01*
X123800500Y-104940892D01*
X123800500Y-104809108D01*
X123800500Y-104809106D01*
X123800499Y-104809105D01*
X123795619Y-104790894D01*
X123766392Y-104681814D01*
X123700500Y-104567686D01*
X123607314Y-104474500D01*
X123579785Y-104458606D01*
X123493190Y-104408610D01*
X123493181Y-104408606D01*
X123365894Y-104374500D01*
X123365892Y-104374500D01*
X123234108Y-104374500D01*
X123234106Y-104374500D01*
X123106818Y-104408606D01*
X123106809Y-104408610D01*
X122992685Y-104474500D01*
X122899500Y-104567685D01*
X122833610Y-104681809D01*
X122833606Y-104681818D01*
X122799500Y-104809105D01*
X116637102Y-104809105D01*
X116616393Y-104731818D01*
X116616392Y-104731814D01*
X116550500Y-104617686D01*
X116457314Y-104524500D01*
X116358908Y-104467685D01*
X116343190Y-104458610D01*
X116343181Y-104458606D01*
X116215894Y-104424500D01*
X116215892Y-104424500D01*
X116084108Y-104424500D01*
X116084106Y-104424500D01*
X115956818Y-104458606D01*
X115956809Y-104458610D01*
X115842685Y-104524500D01*
X115749500Y-104617685D01*
X115683610Y-104731809D01*
X115683606Y-104731818D01*
X115649500Y-104859105D01*
X106745620Y-104859105D01*
X106750500Y-104840892D01*
X106750500Y-104709108D01*
X106750500Y-104709106D01*
X106750499Y-104709105D01*
X106749772Y-104706393D01*
X106716392Y-104581814D01*
X106650500Y-104467686D01*
X106557314Y-104374500D01*
X106470712Y-104324500D01*
X106443190Y-104308610D01*
X106443181Y-104308606D01*
X106315894Y-104274500D01*
X106315892Y-104274500D01*
X106184108Y-104274500D01*
X106184106Y-104274500D01*
X106056818Y-104308606D01*
X106056809Y-104308610D01*
X105942685Y-104374500D01*
X105849500Y-104467685D01*
X105783610Y-104581809D01*
X105783606Y-104581818D01*
X105749500Y-104709105D01*
X99637102Y-104709105D01*
X99616393Y-104631818D01*
X99616392Y-104631814D01*
X99550500Y-104517686D01*
X99457314Y-104424500D01*
X99370712Y-104374500D01*
X99343190Y-104358610D01*
X99343181Y-104358606D01*
X99215894Y-104324500D01*
X99215892Y-104324500D01*
X99084108Y-104324500D01*
X99084106Y-104324500D01*
X98956818Y-104358606D01*
X98956809Y-104358610D01*
X98842685Y-104424500D01*
X98749500Y-104517685D01*
X98683610Y-104631809D01*
X98683606Y-104631818D01*
X98649500Y-104759105D01*
X89750500Y-104759105D01*
X89750500Y-104659106D01*
X89750499Y-104659105D01*
X89743186Y-104631814D01*
X89716392Y-104531814D01*
X89650500Y-104417686D01*
X89557314Y-104324500D01*
X89470712Y-104274500D01*
X89443190Y-104258610D01*
X89443181Y-104258606D01*
X89315894Y-104224500D01*
X89315892Y-104224500D01*
X89184108Y-104224500D01*
X89184106Y-104224500D01*
X89056818Y-104258606D01*
X89056809Y-104258610D01*
X88942685Y-104324500D01*
X88849500Y-104417685D01*
X88783610Y-104531809D01*
X88783606Y-104531818D01*
X88749500Y-104659105D01*
X82673705Y-104659105D01*
X82666393Y-104631818D01*
X82666392Y-104631814D01*
X82600500Y-104517686D01*
X82507314Y-104424500D01*
X82420712Y-104374500D01*
X82393190Y-104358610D01*
X82393181Y-104358606D01*
X82265894Y-104324500D01*
X82265892Y-104324500D01*
X82134108Y-104324500D01*
X82134106Y-104324500D01*
X82006818Y-104358606D01*
X82006809Y-104358610D01*
X81892685Y-104424500D01*
X81799500Y-104517685D01*
X81733610Y-104631809D01*
X81733606Y-104631818D01*
X81699500Y-104759105D01*
X73050500Y-104759105D01*
X73050500Y-104709106D01*
X73050499Y-104709105D01*
X73049772Y-104706393D01*
X73016392Y-104581814D01*
X72950500Y-104467686D01*
X72857314Y-104374500D01*
X72770712Y-104324500D01*
X72743190Y-104308610D01*
X72743181Y-104308606D01*
X72615894Y-104274500D01*
X72615892Y-104274500D01*
X72484108Y-104274500D01*
X72484106Y-104274500D01*
X72356818Y-104308606D01*
X72356809Y-104308610D01*
X72242685Y-104374500D01*
X72149500Y-104467685D01*
X72083610Y-104581809D01*
X72083606Y-104581818D01*
X72049500Y-104709105D01*
X55983061Y-104709105D01*
X55993186Y-104706392D01*
X56107314Y-104640500D01*
X56200500Y-104547314D01*
X56266392Y-104433186D01*
X56300499Y-104305894D01*
X56300500Y-104305894D01*
X56300500Y-104174106D01*
X56300499Y-104174105D01*
X56266393Y-104046818D01*
X56266392Y-104046814D01*
X56200500Y-103932686D01*
X56107314Y-103839500D01*
X55993190Y-103773610D01*
X55993181Y-103773606D01*
X55865894Y-103739500D01*
X55865892Y-103739500D01*
X55734108Y-103739500D01*
X55734106Y-103739500D01*
X55606818Y-103773606D01*
X55606809Y-103773610D01*
X55492685Y-103839500D01*
X55399500Y-103932685D01*
X55333610Y-104046809D01*
X55333606Y-104046818D01*
X55299500Y-104174105D01*
X47950499Y-104174105D01*
X47916393Y-104046818D01*
X47916392Y-104046814D01*
X47850500Y-103932686D01*
X47757314Y-103839500D01*
X47643190Y-103773610D01*
X47643181Y-103773606D01*
X47515894Y-103739500D01*
X47515892Y-103739500D01*
X47384108Y-103739500D01*
X47384106Y-103739500D01*
X47256818Y-103773606D01*
X47256809Y-103773610D01*
X47142685Y-103839500D01*
X47049500Y-103932685D01*
X46983610Y-104046809D01*
X46983606Y-104046818D01*
X46949500Y-104174105D01*
X27200500Y-104174105D01*
X27200500Y-101359105D01*
X125649500Y-101359105D01*
X125649500Y-101490894D01*
X125683606Y-101618181D01*
X125683607Y-101618184D01*
X125683608Y-101618186D01*
X125749500Y-101732314D01*
X125842686Y-101825500D01*
X125956814Y-101891392D01*
X126084105Y-101925499D01*
X126084106Y-101925500D01*
X126084108Y-101925500D01*
X126215894Y-101925500D01*
X126215894Y-101925499D01*
X126343186Y-101891392D01*
X126457314Y-101825500D01*
X126550500Y-101732314D01*
X126616392Y-101618186D01*
X126650499Y-101490894D01*
X126650500Y-101490894D01*
X126650500Y-101359106D01*
X126650499Y-101359105D01*
X126616393Y-101231818D01*
X126616392Y-101231814D01*
X126550500Y-101117686D01*
X126457314Y-101024500D01*
X126372442Y-100975499D01*
X126343190Y-100958610D01*
X126343181Y-100958606D01*
X126215894Y-100924500D01*
X126215892Y-100924500D01*
X126084108Y-100924500D01*
X126084106Y-100924500D01*
X125956818Y-100958606D01*
X125956809Y-100958610D01*
X125842685Y-101024500D01*
X125749500Y-101117685D01*
X125683610Y-101231809D01*
X125683606Y-101231818D01*
X125649500Y-101359105D01*
X27200500Y-101359105D01*
X27200500Y-100409105D01*
X147226641Y-100409105D01*
X147226641Y-100540894D01*
X147260747Y-100668181D01*
X147260748Y-100668184D01*
X147260749Y-100668186D01*
X147326641Y-100782314D01*
X147419827Y-100875500D01*
X147533955Y-100941392D01*
X147661246Y-100975499D01*
X147661247Y-100975500D01*
X147661249Y-100975500D01*
X147793035Y-100975500D01*
X147793035Y-100975499D01*
X147920327Y-100941392D01*
X148034455Y-100875500D01*
X148127641Y-100782314D01*
X148193533Y-100668186D01*
X148227640Y-100540894D01*
X148227641Y-100540894D01*
X148227641Y-100409106D01*
X148227640Y-100409105D01*
X148193534Y-100281818D01*
X148193533Y-100281814D01*
X148127641Y-100167686D01*
X148034455Y-100074500D01*
X147920331Y-100008610D01*
X147920322Y-100008606D01*
X147793035Y-99974500D01*
X147793033Y-99974500D01*
X147661249Y-99974500D01*
X147661247Y-99974500D01*
X147533959Y-100008606D01*
X147533950Y-100008610D01*
X147419826Y-100074500D01*
X147326641Y-100167685D01*
X147260751Y-100281809D01*
X147260747Y-100281818D01*
X147226641Y-100409105D01*
X27200500Y-100409105D01*
X27200500Y-91159105D01*
X173799500Y-91159105D01*
X173799500Y-91290894D01*
X173833606Y-91418181D01*
X173833607Y-91418184D01*
X173833608Y-91418186D01*
X173899500Y-91532314D01*
X173992686Y-91625500D01*
X174106814Y-91691392D01*
X174234105Y-91725499D01*
X174234106Y-91725500D01*
X174234108Y-91725500D01*
X174365894Y-91725500D01*
X174365894Y-91725499D01*
X174493186Y-91691392D01*
X174607314Y-91625500D01*
X174700500Y-91532314D01*
X174766392Y-91418186D01*
X174800499Y-91290894D01*
X174800500Y-91290894D01*
X174800500Y-91159106D01*
X174800499Y-91159105D01*
X174766393Y-91031818D01*
X174766392Y-91031814D01*
X174700500Y-90917686D01*
X174607314Y-90824500D01*
X174522766Y-90775686D01*
X174493190Y-90758610D01*
X174493181Y-90758606D01*
X174365894Y-90724500D01*
X174365892Y-90724500D01*
X174234108Y-90724500D01*
X174234106Y-90724500D01*
X174106818Y-90758606D01*
X174106809Y-90758610D01*
X173992685Y-90824500D01*
X173899500Y-90917685D01*
X173833610Y-91031809D01*
X173833606Y-91031818D01*
X173799500Y-91159105D01*
X27200500Y-91159105D01*
X27200500Y-90516605D01*
X180674500Y-90516605D01*
X180674500Y-90648394D01*
X180708606Y-90775681D01*
X180708607Y-90775684D01*
X180708608Y-90775686D01*
X180774500Y-90889814D01*
X180867686Y-90983000D01*
X180981814Y-91048892D01*
X181109105Y-91082999D01*
X181109106Y-91083000D01*
X181109108Y-91083000D01*
X181240894Y-91083000D01*
X181240894Y-91082999D01*
X181368186Y-91048892D01*
X181482314Y-90983000D01*
X181575500Y-90889814D01*
X181641392Y-90775686D01*
X181675499Y-90648394D01*
X181675500Y-90648394D01*
X181675500Y-90516606D01*
X181675499Y-90516605D01*
X187424500Y-90516605D01*
X187424500Y-90648394D01*
X187458606Y-90775681D01*
X187458607Y-90775684D01*
X187458608Y-90775686D01*
X187524500Y-90889814D01*
X187617686Y-90983000D01*
X187731814Y-91048892D01*
X187859105Y-91082999D01*
X187859106Y-91083000D01*
X187859108Y-91083000D01*
X187990894Y-91083000D01*
X187990894Y-91082999D01*
X188118186Y-91048892D01*
X188232314Y-90983000D01*
X188325500Y-90889814D01*
X188391392Y-90775686D01*
X188425499Y-90648394D01*
X188425500Y-90648394D01*
X188425500Y-90516606D01*
X188425499Y-90516605D01*
X188391393Y-90389318D01*
X188391392Y-90389314D01*
X188325500Y-90275186D01*
X188232314Y-90182000D01*
X188118190Y-90116110D01*
X188118181Y-90116106D01*
X187990894Y-90082000D01*
X187990892Y-90082000D01*
X187859108Y-90082000D01*
X187859106Y-90082000D01*
X187731818Y-90116106D01*
X187731809Y-90116110D01*
X187617685Y-90182000D01*
X187524500Y-90275185D01*
X187458610Y-90389309D01*
X187458606Y-90389318D01*
X187424500Y-90516605D01*
X181675499Y-90516605D01*
X181641393Y-90389318D01*
X181641392Y-90389314D01*
X181575500Y-90275186D01*
X181482314Y-90182000D01*
X181368190Y-90116110D01*
X181368181Y-90116106D01*
X181240894Y-90082000D01*
X181240892Y-90082000D01*
X181109108Y-90082000D01*
X181109106Y-90082000D01*
X180981818Y-90116106D01*
X180981809Y-90116110D01*
X180867685Y-90182000D01*
X180774500Y-90275185D01*
X180708610Y-90389309D01*
X180708606Y-90389318D01*
X180674500Y-90516605D01*
X27200500Y-90516605D01*
X27200500Y-88559105D01*
X184799500Y-88559105D01*
X184799500Y-88690894D01*
X184833606Y-88818181D01*
X184833607Y-88818184D01*
X184833608Y-88818186D01*
X184899500Y-88932314D01*
X184992686Y-89025500D01*
X185106814Y-89091392D01*
X185234105Y-89125499D01*
X185234106Y-89125500D01*
X185234108Y-89125500D01*
X185365894Y-89125500D01*
X185365894Y-89125499D01*
X185493186Y-89091392D01*
X185607314Y-89025500D01*
X185700500Y-88932314D01*
X185766392Y-88818186D01*
X185800499Y-88690894D01*
X185800500Y-88690894D01*
X185800500Y-88559106D01*
X185800499Y-88559105D01*
X185766393Y-88431818D01*
X185766392Y-88431814D01*
X185700500Y-88317686D01*
X185607314Y-88224500D01*
X185493190Y-88158610D01*
X185493181Y-88158606D01*
X185365894Y-88124500D01*
X185365892Y-88124500D01*
X185234108Y-88124500D01*
X185234106Y-88124500D01*
X185106818Y-88158606D01*
X185106809Y-88158610D01*
X184992685Y-88224500D01*
X184899500Y-88317685D01*
X184833610Y-88431809D01*
X184833606Y-88431818D01*
X184799500Y-88559105D01*
X27200500Y-88559105D01*
X27200500Y-80259105D01*
X181674500Y-80259105D01*
X181674500Y-80390894D01*
X181708606Y-80518181D01*
X181708607Y-80518184D01*
X181708608Y-80518186D01*
X181774500Y-80632314D01*
X181867686Y-80725500D01*
X181981814Y-80791392D01*
X182109105Y-80825499D01*
X182109106Y-80825500D01*
X182109108Y-80825500D01*
X182240894Y-80825500D01*
X182240894Y-80825499D01*
X182368186Y-80791392D01*
X182482314Y-80725500D01*
X182575500Y-80632314D01*
X182641392Y-80518186D01*
X182675499Y-80390894D01*
X182675500Y-80390894D01*
X182675500Y-80259106D01*
X182675499Y-80259105D01*
X182641393Y-80131818D01*
X182641392Y-80131814D01*
X182575500Y-80017686D01*
X182482314Y-79924500D01*
X182368190Y-79858610D01*
X182368181Y-79858606D01*
X182240894Y-79824500D01*
X182240892Y-79824500D01*
X182109108Y-79824500D01*
X182109106Y-79824500D01*
X181981818Y-79858606D01*
X181981809Y-79858610D01*
X181867685Y-79924500D01*
X181774500Y-80017685D01*
X181708610Y-80131809D01*
X181708606Y-80131818D01*
X181674500Y-80259105D01*
X27200500Y-80259105D01*
X27200500Y-79159105D01*
X188399500Y-79159105D01*
X188399500Y-79290894D01*
X188433606Y-79418181D01*
X188433607Y-79418184D01*
X188433608Y-79418186D01*
X188499500Y-79532314D01*
X188592686Y-79625500D01*
X188706814Y-79691392D01*
X188834105Y-79725499D01*
X188834106Y-79725500D01*
X188834108Y-79725500D01*
X188965894Y-79725500D01*
X188965894Y-79725499D01*
X189093186Y-79691392D01*
X189207314Y-79625500D01*
X189300500Y-79532314D01*
X189366392Y-79418186D01*
X189400499Y-79290894D01*
X189400500Y-79290894D01*
X189400500Y-79159106D01*
X189400499Y-79159105D01*
X189366393Y-79031818D01*
X189366392Y-79031814D01*
X189300500Y-78917686D01*
X189207314Y-78824500D01*
X189093190Y-78758610D01*
X189093181Y-78758606D01*
X188965894Y-78724500D01*
X188965892Y-78724500D01*
X188834108Y-78724500D01*
X188834106Y-78724500D01*
X188706818Y-78758606D01*
X188706809Y-78758610D01*
X188592685Y-78824500D01*
X188499500Y-78917685D01*
X188433610Y-79031809D01*
X188433606Y-79031818D01*
X188399500Y-79159105D01*
X27200500Y-79159105D01*
X27200500Y-66559820D01*
X27211866Y-59399105D01*
X189055750Y-59399105D01*
X189055750Y-59530894D01*
X189089856Y-59658181D01*
X189089857Y-59658184D01*
X189089858Y-59658186D01*
X189155750Y-59772314D01*
X189248936Y-59865500D01*
X189363064Y-59931392D01*
X189490355Y-59965499D01*
X189490356Y-59965500D01*
X189490358Y-59965500D01*
X189622144Y-59965500D01*
X189622144Y-59965499D01*
X189749436Y-59931392D01*
X189863564Y-59865500D01*
X189956750Y-59772314D01*
X190022642Y-59658186D01*
X190056749Y-59530894D01*
X190056750Y-59530894D01*
X190056750Y-59399106D01*
X190056749Y-59399105D01*
X190022643Y-59271818D01*
X190022642Y-59271814D01*
X189956750Y-59157686D01*
X189863564Y-59064500D01*
X189749440Y-58998610D01*
X189749431Y-58998606D01*
X189622144Y-58964500D01*
X189622142Y-58964500D01*
X189490358Y-58964500D01*
X189490356Y-58964500D01*
X189363068Y-58998606D01*
X189363059Y-58998610D01*
X189248935Y-59064500D01*
X189155750Y-59157685D01*
X189089860Y-59271809D01*
X189089856Y-59271818D01*
X189055750Y-59399105D01*
X27211866Y-59399105D01*
X27211874Y-59394141D01*
X27212777Y-58825499D01*
X27213359Y-58459105D01*
X44599500Y-58459105D01*
X44599500Y-58590894D01*
X44633606Y-58718181D01*
X44633610Y-58718190D01*
X44641765Y-58732314D01*
X44699500Y-58832314D01*
X44792686Y-58925500D01*
X44906814Y-58991392D01*
X45034105Y-59025499D01*
X45034106Y-59025500D01*
X45034108Y-59025500D01*
X45165894Y-59025500D01*
X45165894Y-59025499D01*
X45293186Y-58991392D01*
X45407314Y-58925500D01*
X45500500Y-58832314D01*
X45566392Y-58718186D01*
X45600499Y-58590894D01*
X45600500Y-58590894D01*
X45600500Y-58459106D01*
X45600499Y-58459105D01*
X45577538Y-58373411D01*
X45573705Y-58359105D01*
X47599500Y-58359105D01*
X47599500Y-58490894D01*
X47633606Y-58618181D01*
X47633610Y-58618190D01*
X47675872Y-58691389D01*
X47699500Y-58732314D01*
X47792686Y-58825500D01*
X47906814Y-58891392D01*
X48034105Y-58925499D01*
X48034106Y-58925500D01*
X48034108Y-58925500D01*
X48165894Y-58925500D01*
X48165894Y-58925499D01*
X48293186Y-58891392D01*
X48407314Y-58825500D01*
X48500500Y-58732314D01*
X48566392Y-58618186D01*
X48600499Y-58490894D01*
X48600500Y-58490894D01*
X48600500Y-58359106D01*
X48600499Y-58359105D01*
X48593320Y-58332314D01*
X48566392Y-58231814D01*
X48524413Y-58159105D01*
X54499500Y-58159105D01*
X54499500Y-58290894D01*
X54533606Y-58418181D01*
X54533610Y-58418190D01*
X54557233Y-58459106D01*
X54599500Y-58532314D01*
X54692686Y-58625500D01*
X54806814Y-58691392D01*
X54934105Y-58725499D01*
X54934106Y-58725500D01*
X54934108Y-58725500D01*
X55065894Y-58725500D01*
X55065894Y-58725499D01*
X55193186Y-58691392D01*
X55307314Y-58625500D01*
X55400500Y-58532314D01*
X55466392Y-58418186D01*
X55500499Y-58290894D01*
X55500500Y-58290894D01*
X55500500Y-58159106D01*
X55500499Y-58159105D01*
X55491494Y-58125499D01*
X55466392Y-58031814D01*
X55424413Y-57959105D01*
X81499500Y-57959105D01*
X81499500Y-58090894D01*
X81533606Y-58218181D01*
X81533610Y-58218190D01*
X81541473Y-58231809D01*
X81599500Y-58332314D01*
X81692686Y-58425500D01*
X81806814Y-58491392D01*
X81934105Y-58525499D01*
X81934106Y-58525500D01*
X81934108Y-58525500D01*
X82065894Y-58525500D01*
X82065894Y-58525499D01*
X82193186Y-58491392D01*
X82307314Y-58425500D01*
X82400500Y-58332314D01*
X82466392Y-58218186D01*
X82500499Y-58090894D01*
X82500500Y-58090894D01*
X82500500Y-57959106D01*
X82500499Y-57959105D01*
X82500366Y-57958610D01*
X82466392Y-57831814D01*
X82400500Y-57717686D01*
X82341919Y-57659105D01*
X88599500Y-57659105D01*
X88599500Y-57790894D01*
X88633606Y-57918181D01*
X88633610Y-57918190D01*
X88657233Y-57959106D01*
X88699500Y-58032314D01*
X88792686Y-58125500D01*
X88906814Y-58191392D01*
X89034105Y-58225499D01*
X89034106Y-58225500D01*
X89034108Y-58225500D01*
X89165894Y-58225500D01*
X89165894Y-58225499D01*
X89293186Y-58191392D01*
X89407314Y-58125500D01*
X89500500Y-58032314D01*
X89566392Y-57918186D01*
X89600499Y-57790894D01*
X89600500Y-57790894D01*
X89600500Y-57659106D01*
X89600499Y-57659105D01*
X97799500Y-57659105D01*
X97799500Y-57790894D01*
X97833606Y-57918181D01*
X97833610Y-57918190D01*
X97857233Y-57959106D01*
X97899500Y-58032314D01*
X97992686Y-58125500D01*
X98106814Y-58191392D01*
X98234105Y-58225499D01*
X98234106Y-58225500D01*
X98234108Y-58225500D01*
X98365894Y-58225500D01*
X98365894Y-58225499D01*
X98493186Y-58191392D01*
X98607314Y-58125500D01*
X98700500Y-58032314D01*
X98766392Y-57918186D01*
X98800499Y-57790894D01*
X98800500Y-57790894D01*
X98800500Y-57659106D01*
X98800499Y-57659105D01*
X105999500Y-57659105D01*
X105999500Y-57790894D01*
X106033606Y-57918181D01*
X106033610Y-57918190D01*
X106057233Y-57959106D01*
X106099500Y-58032314D01*
X106192686Y-58125500D01*
X106306814Y-58191392D01*
X106434105Y-58225499D01*
X106434106Y-58225500D01*
X106434108Y-58225500D01*
X106565894Y-58225500D01*
X106565894Y-58225499D01*
X106693186Y-58191392D01*
X106807314Y-58125500D01*
X106873709Y-58059105D01*
X115599500Y-58059105D01*
X115599500Y-58190894D01*
X115633606Y-58318181D01*
X115633610Y-58318190D01*
X115657233Y-58359106D01*
X115699500Y-58432314D01*
X115792686Y-58525500D01*
X115906814Y-58591392D01*
X116034105Y-58625499D01*
X116034106Y-58625500D01*
X116034108Y-58625500D01*
X116165894Y-58625500D01*
X116165894Y-58625499D01*
X116293186Y-58591392D01*
X116407314Y-58525500D01*
X116500500Y-58432314D01*
X116566392Y-58318186D01*
X116600499Y-58190894D01*
X116600500Y-58190894D01*
X116600500Y-58059106D01*
X116600499Y-58059105D01*
X122599500Y-58059105D01*
X122599500Y-58190894D01*
X122633606Y-58318181D01*
X122633610Y-58318190D01*
X122657233Y-58359106D01*
X122699500Y-58432314D01*
X122792686Y-58525500D01*
X122906814Y-58591392D01*
X123034105Y-58625499D01*
X123034106Y-58625500D01*
X123034108Y-58625500D01*
X123165894Y-58625500D01*
X123165894Y-58625499D01*
X123293186Y-58591392D01*
X123407314Y-58525500D01*
X123500500Y-58432314D01*
X123566392Y-58318186D01*
X123600499Y-58190894D01*
X123600500Y-58190894D01*
X123600500Y-58059106D01*
X123600499Y-58059105D01*
X132699500Y-58059105D01*
X132699500Y-58190894D01*
X132733606Y-58318181D01*
X132733610Y-58318190D01*
X132757233Y-58359106D01*
X132799500Y-58432314D01*
X132892686Y-58525500D01*
X133006814Y-58591392D01*
X133134105Y-58625499D01*
X133134106Y-58625500D01*
X133134108Y-58625500D01*
X133265894Y-58625500D01*
X133265894Y-58625499D01*
X133393186Y-58591392D01*
X133507314Y-58525500D01*
X133600500Y-58432314D01*
X133666392Y-58318186D01*
X133700499Y-58190894D01*
X133700500Y-58190894D01*
X133700500Y-58059106D01*
X133700499Y-58059105D01*
X139599500Y-58059105D01*
X139599500Y-58190894D01*
X139633606Y-58318181D01*
X139633610Y-58318190D01*
X139657233Y-58359106D01*
X139699500Y-58432314D01*
X139792686Y-58525500D01*
X139906814Y-58591392D01*
X140034105Y-58625499D01*
X140034106Y-58625500D01*
X140034108Y-58625500D01*
X140165894Y-58625500D01*
X140165894Y-58625499D01*
X140293186Y-58591392D01*
X140407314Y-58525500D01*
X140500500Y-58432314D01*
X140566392Y-58318186D01*
X140600499Y-58190894D01*
X140600500Y-58190894D01*
X140600500Y-58059106D01*
X140600499Y-58059105D01*
X149699500Y-58059105D01*
X149699500Y-58190894D01*
X149733606Y-58318181D01*
X149733610Y-58318190D01*
X149757233Y-58359106D01*
X149799500Y-58432314D01*
X149892686Y-58525500D01*
X150006814Y-58591392D01*
X150134105Y-58625499D01*
X150134106Y-58625500D01*
X150134108Y-58625500D01*
X150265894Y-58625500D01*
X150265894Y-58625499D01*
X150393186Y-58591392D01*
X150507314Y-58525500D01*
X150600500Y-58432314D01*
X150666392Y-58318186D01*
X150700499Y-58190894D01*
X150700500Y-58190894D01*
X150700500Y-58059106D01*
X150700499Y-58059105D01*
X156699500Y-58059105D01*
X156699500Y-58190894D01*
X156733606Y-58318181D01*
X156733610Y-58318190D01*
X156757233Y-58359106D01*
X156799500Y-58432314D01*
X156892686Y-58525500D01*
X157006814Y-58591392D01*
X157134105Y-58625499D01*
X157134106Y-58625500D01*
X157134108Y-58625500D01*
X157265894Y-58625500D01*
X157265894Y-58625499D01*
X157393186Y-58591392D01*
X157507314Y-58525500D01*
X157600500Y-58432314D01*
X157666392Y-58318186D01*
X157700499Y-58190894D01*
X157700500Y-58190894D01*
X157700500Y-58059106D01*
X157700499Y-58059105D01*
X157700366Y-58058610D01*
X157673704Y-57959105D01*
X166199500Y-57959105D01*
X166199500Y-58090894D01*
X166233606Y-58218181D01*
X166233610Y-58218190D01*
X166241473Y-58231809D01*
X166299500Y-58332314D01*
X166392686Y-58425500D01*
X166506814Y-58491392D01*
X166634105Y-58525499D01*
X166634106Y-58525500D01*
X166634108Y-58525500D01*
X166765894Y-58525500D01*
X166765894Y-58525499D01*
X166893186Y-58491392D01*
X167007314Y-58425500D01*
X167100500Y-58332314D01*
X167166392Y-58218186D01*
X167200499Y-58090894D01*
X167200500Y-58090894D01*
X167200500Y-57959106D01*
X167200499Y-57959105D01*
X167200366Y-57958610D01*
X167166392Y-57831814D01*
X167100500Y-57717686D01*
X167007314Y-57624500D01*
X167007313Y-57624499D01*
X166996652Y-57618344D01*
X166945576Y-57588855D01*
X166894047Y-57559105D01*
X172799500Y-57559105D01*
X172799500Y-57690894D01*
X172833606Y-57818181D01*
X172833610Y-57818190D01*
X172841473Y-57831809D01*
X172899500Y-57932314D01*
X172992686Y-58025500D01*
X173106814Y-58091392D01*
X173234105Y-58125499D01*
X173234106Y-58125500D01*
X173234108Y-58125500D01*
X173365894Y-58125500D01*
X173365894Y-58125499D01*
X173493186Y-58091392D01*
X173607314Y-58025500D01*
X173700500Y-57932314D01*
X173766392Y-57818186D01*
X173800499Y-57690894D01*
X173800500Y-57690894D01*
X173800500Y-57559106D01*
X173800499Y-57559105D01*
X173800366Y-57558610D01*
X173766392Y-57431814D01*
X173700500Y-57317686D01*
X173607314Y-57224500D01*
X173493190Y-57158610D01*
X173493181Y-57158606D01*
X173365894Y-57124500D01*
X173365892Y-57124500D01*
X173234108Y-57124500D01*
X173234106Y-57124500D01*
X173106818Y-57158606D01*
X173106809Y-57158610D01*
X172992685Y-57224500D01*
X172899500Y-57317685D01*
X172833610Y-57431809D01*
X172833606Y-57431818D01*
X172799500Y-57559105D01*
X166894047Y-57559105D01*
X166893190Y-57558610D01*
X166893181Y-57558606D01*
X166765894Y-57524500D01*
X166765892Y-57524500D01*
X166634108Y-57524500D01*
X166634106Y-57524500D01*
X166506818Y-57558606D01*
X166506809Y-57558610D01*
X166392685Y-57624500D01*
X166299500Y-57717685D01*
X166233610Y-57831809D01*
X166233606Y-57831818D01*
X166199500Y-57959105D01*
X157673704Y-57959105D01*
X157666392Y-57931814D01*
X157600500Y-57817686D01*
X157507314Y-57724500D01*
X157449107Y-57690894D01*
X157393190Y-57658610D01*
X157393181Y-57658606D01*
X157265894Y-57624500D01*
X157265892Y-57624500D01*
X157134108Y-57624500D01*
X157134106Y-57624500D01*
X157006818Y-57658606D01*
X157006809Y-57658610D01*
X156892685Y-57724500D01*
X156799500Y-57817685D01*
X156733610Y-57931809D01*
X156733606Y-57931818D01*
X156699500Y-58059105D01*
X150700499Y-58059105D01*
X150700366Y-58058610D01*
X150666392Y-57931814D01*
X150600500Y-57817686D01*
X150507314Y-57724500D01*
X150449107Y-57690894D01*
X150393190Y-57658610D01*
X150393181Y-57658606D01*
X150265894Y-57624500D01*
X150265892Y-57624500D01*
X150134108Y-57624500D01*
X150134106Y-57624500D01*
X150006818Y-57658606D01*
X150006809Y-57658610D01*
X149892685Y-57724500D01*
X149799500Y-57817685D01*
X149733610Y-57931809D01*
X149733606Y-57931818D01*
X149699500Y-58059105D01*
X140600499Y-58059105D01*
X140600366Y-58058610D01*
X140566392Y-57931814D01*
X140500500Y-57817686D01*
X140407314Y-57724500D01*
X140349107Y-57690894D01*
X140293190Y-57658610D01*
X140293181Y-57658606D01*
X140165894Y-57624500D01*
X140165892Y-57624500D01*
X140034108Y-57624500D01*
X140034106Y-57624500D01*
X139906818Y-57658606D01*
X139906809Y-57658610D01*
X139792685Y-57724500D01*
X139699500Y-57817685D01*
X139633610Y-57931809D01*
X139633606Y-57931818D01*
X139599500Y-58059105D01*
X133700499Y-58059105D01*
X133700366Y-58058610D01*
X133666392Y-57931814D01*
X133600500Y-57817686D01*
X133507314Y-57724500D01*
X133449107Y-57690894D01*
X133393190Y-57658610D01*
X133393181Y-57658606D01*
X133265894Y-57624500D01*
X133265892Y-57624500D01*
X133134108Y-57624500D01*
X133134106Y-57624500D01*
X133006818Y-57658606D01*
X133006809Y-57658610D01*
X132892685Y-57724500D01*
X132799500Y-57817685D01*
X132733610Y-57931809D01*
X132733606Y-57931818D01*
X132699500Y-58059105D01*
X123600499Y-58059105D01*
X123600366Y-58058610D01*
X123566392Y-57931814D01*
X123500500Y-57817686D01*
X123407314Y-57724500D01*
X123349107Y-57690894D01*
X123293190Y-57658610D01*
X123293181Y-57658606D01*
X123165894Y-57624500D01*
X123165892Y-57624500D01*
X123034108Y-57624500D01*
X123034106Y-57624500D01*
X122906818Y-57658606D01*
X122906809Y-57658610D01*
X122792685Y-57724500D01*
X122699500Y-57817685D01*
X122633610Y-57931809D01*
X122633606Y-57931818D01*
X122599500Y-58059105D01*
X116600499Y-58059105D01*
X116600366Y-58058610D01*
X116566392Y-57931814D01*
X116500500Y-57817686D01*
X116407314Y-57724500D01*
X116349107Y-57690894D01*
X116293190Y-57658610D01*
X116293181Y-57658606D01*
X116165894Y-57624500D01*
X116165892Y-57624500D01*
X116034108Y-57624500D01*
X116034106Y-57624500D01*
X115906818Y-57658606D01*
X115906809Y-57658610D01*
X115792685Y-57724500D01*
X115699500Y-57817685D01*
X115633610Y-57931809D01*
X115633606Y-57931818D01*
X115599500Y-58059105D01*
X106873709Y-58059105D01*
X106900500Y-58032314D01*
X106904435Y-58025499D01*
X106909194Y-58017257D01*
X106958235Y-57932314D01*
X106966392Y-57918186D01*
X107000499Y-57790894D01*
X107000500Y-57790894D01*
X107000500Y-57659106D01*
X107000499Y-57659105D01*
X107000366Y-57658610D01*
X106966392Y-57531814D01*
X106900500Y-57417686D01*
X106807314Y-57324500D01*
X106795510Y-57317685D01*
X106693190Y-57258610D01*
X106693181Y-57258606D01*
X106565894Y-57224500D01*
X106565892Y-57224500D01*
X106434108Y-57224500D01*
X106434106Y-57224500D01*
X106306818Y-57258606D01*
X106306809Y-57258610D01*
X106192685Y-57324500D01*
X106099500Y-57417685D01*
X106033610Y-57531809D01*
X106033606Y-57531818D01*
X105999500Y-57659105D01*
X98800499Y-57659105D01*
X98800366Y-57658610D01*
X98766392Y-57531814D01*
X98700500Y-57417686D01*
X98607314Y-57324500D01*
X98595510Y-57317685D01*
X98493190Y-57258610D01*
X98493181Y-57258606D01*
X98365894Y-57224500D01*
X98365892Y-57224500D01*
X98234108Y-57224500D01*
X98234106Y-57224500D01*
X98106818Y-57258606D01*
X98106809Y-57258610D01*
X97992685Y-57324500D01*
X97899500Y-57417685D01*
X97833610Y-57531809D01*
X97833606Y-57531818D01*
X97799500Y-57659105D01*
X89600499Y-57659105D01*
X89600366Y-57658610D01*
X89566392Y-57531814D01*
X89500500Y-57417686D01*
X89407314Y-57324500D01*
X89395510Y-57317685D01*
X89293190Y-57258610D01*
X89293181Y-57258606D01*
X89165894Y-57224500D01*
X89165892Y-57224500D01*
X89034108Y-57224500D01*
X89034106Y-57224500D01*
X88906818Y-57258606D01*
X88906809Y-57258610D01*
X88792685Y-57324500D01*
X88699500Y-57417685D01*
X88633610Y-57531809D01*
X88633606Y-57531818D01*
X88599500Y-57659105D01*
X82341919Y-57659105D01*
X82307314Y-57624500D01*
X82296369Y-57618181D01*
X82193190Y-57558610D01*
X82193181Y-57558606D01*
X82065894Y-57524500D01*
X82065892Y-57524500D01*
X81934108Y-57524500D01*
X81934106Y-57524500D01*
X81806818Y-57558606D01*
X81806809Y-57558610D01*
X81692685Y-57624500D01*
X81599500Y-57717685D01*
X81533610Y-57831809D01*
X81533606Y-57831818D01*
X81499500Y-57959105D01*
X55424413Y-57959105D01*
X55400500Y-57917686D01*
X55307314Y-57824500D01*
X55249971Y-57791393D01*
X55193190Y-57758610D01*
X55193181Y-57758606D01*
X55065894Y-57724500D01*
X55065892Y-57724500D01*
X54934108Y-57724500D01*
X54934106Y-57724500D01*
X54806818Y-57758606D01*
X54806809Y-57758610D01*
X54692685Y-57824500D01*
X54599500Y-57917685D01*
X54533610Y-58031809D01*
X54533606Y-58031818D01*
X54499500Y-58159105D01*
X48524413Y-58159105D01*
X48500500Y-58117686D01*
X48407314Y-58024500D01*
X48394769Y-58017257D01*
X48293190Y-57958610D01*
X48293181Y-57958606D01*
X48165894Y-57924500D01*
X48165892Y-57924500D01*
X48034108Y-57924500D01*
X48034106Y-57924500D01*
X47906818Y-57958606D01*
X47906809Y-57958610D01*
X47792685Y-58024500D01*
X47699500Y-58117685D01*
X47633610Y-58231809D01*
X47633606Y-58231818D01*
X47599500Y-58359105D01*
X45573705Y-58359105D01*
X45566393Y-58331818D01*
X45566392Y-58331814D01*
X45500500Y-58217686D01*
X45407314Y-58124500D01*
X45349971Y-58091393D01*
X45293190Y-58058610D01*
X45293181Y-58058606D01*
X45165894Y-58024500D01*
X45165892Y-58024500D01*
X45034108Y-58024500D01*
X45034106Y-58024500D01*
X44906818Y-58058606D01*
X44906809Y-58058610D01*
X44792685Y-58124500D01*
X44699500Y-58217685D01*
X44633610Y-58331809D01*
X44633606Y-58331818D01*
X44599500Y-58459105D01*
X27213359Y-58459105D01*
X27215264Y-57259105D01*
X63099500Y-57259105D01*
X63099500Y-57390894D01*
X63133606Y-57518181D01*
X63133610Y-57518190D01*
X63157233Y-57559106D01*
X63199500Y-57632314D01*
X63292686Y-57725500D01*
X63406814Y-57791392D01*
X63534105Y-57825499D01*
X63534106Y-57825500D01*
X63534108Y-57825500D01*
X63665894Y-57825500D01*
X63665894Y-57825499D01*
X63793186Y-57791392D01*
X63907314Y-57725500D01*
X64000500Y-57632314D01*
X64066392Y-57518186D01*
X64100499Y-57390894D01*
X64100500Y-57390894D01*
X64100500Y-57359105D01*
X73399500Y-57359105D01*
X73399500Y-57490894D01*
X73433606Y-57618181D01*
X73433610Y-57618190D01*
X73457233Y-57659106D01*
X73499500Y-57732314D01*
X73592686Y-57825500D01*
X73706814Y-57891392D01*
X73834105Y-57925499D01*
X73834106Y-57925500D01*
X73834108Y-57925500D01*
X73965894Y-57925500D01*
X73965894Y-57925499D01*
X74093186Y-57891392D01*
X74094775Y-57890474D01*
X74095298Y-57890173D01*
X74095299Y-57890172D01*
X74207314Y-57825500D01*
X74300500Y-57732314D01*
X74366392Y-57618186D01*
X74400499Y-57490894D01*
X74400500Y-57490894D01*
X74400500Y-57359106D01*
X74400499Y-57359105D01*
X74373704Y-57259105D01*
X74366392Y-57231814D01*
X74300500Y-57117686D01*
X74207314Y-57024500D01*
X74195510Y-57017685D01*
X74093190Y-56958610D01*
X74093181Y-56958606D01*
X73965894Y-56924500D01*
X73965892Y-56924500D01*
X73834108Y-56924500D01*
X73834106Y-56924500D01*
X73706818Y-56958606D01*
X73706809Y-56958610D01*
X73592685Y-57024500D01*
X73499500Y-57117685D01*
X73433610Y-57231809D01*
X73433606Y-57231818D01*
X73399500Y-57359105D01*
X64100500Y-57359105D01*
X64100500Y-57259106D01*
X64100499Y-57259105D01*
X64100366Y-57258610D01*
X64066392Y-57131814D01*
X64000500Y-57017686D01*
X63907314Y-56924500D01*
X63793190Y-56858610D01*
X63793181Y-56858606D01*
X63665894Y-56824500D01*
X63665892Y-56824500D01*
X63534108Y-56824500D01*
X63534106Y-56824500D01*
X63406818Y-56858606D01*
X63406809Y-56858610D01*
X63292685Y-56924500D01*
X63199500Y-57017685D01*
X63133610Y-57131809D01*
X63133606Y-57131818D01*
X63099500Y-57259105D01*
X27215264Y-57259105D01*
X27215488Y-57117685D01*
X27219180Y-54791389D01*
X27220818Y-53759105D01*
X48099500Y-53759105D01*
X48099500Y-53890894D01*
X48133606Y-54018181D01*
X48133610Y-54018190D01*
X48141765Y-54032314D01*
X48199500Y-54132314D01*
X48292686Y-54225500D01*
X48406814Y-54291392D01*
X48534105Y-54325499D01*
X48534106Y-54325500D01*
X48534108Y-54325500D01*
X48665894Y-54325500D01*
X48665894Y-54325499D01*
X48793186Y-54291392D01*
X48907314Y-54225500D01*
X49000500Y-54132314D01*
X49066392Y-54018186D01*
X49100499Y-53890894D01*
X49100500Y-53890894D01*
X49100500Y-53759106D01*
X49100499Y-53759105D01*
X54299500Y-53759105D01*
X54299500Y-53890894D01*
X54333606Y-54018181D01*
X54333610Y-54018190D01*
X54341765Y-54032314D01*
X54399500Y-54132314D01*
X54492686Y-54225500D01*
X54606814Y-54291392D01*
X54734105Y-54325499D01*
X54734106Y-54325500D01*
X54734108Y-54325500D01*
X54865894Y-54325500D01*
X54865894Y-54325499D01*
X54993186Y-54291392D01*
X55049109Y-54259105D01*
X64399500Y-54259105D01*
X64399500Y-54390894D01*
X64433606Y-54518181D01*
X64433610Y-54518190D01*
X64499500Y-54632314D01*
X64592686Y-54725500D01*
X64706814Y-54791392D01*
X64834105Y-54825499D01*
X64834106Y-54825500D01*
X64834108Y-54825500D01*
X64965894Y-54825500D01*
X64965894Y-54825499D01*
X65093186Y-54791392D01*
X65207314Y-54725500D01*
X65300500Y-54632314D01*
X65366392Y-54518186D01*
X65400499Y-54390894D01*
X65400500Y-54390894D01*
X65400500Y-54259106D01*
X65400499Y-54259105D01*
X65393320Y-54232314D01*
X65366392Y-54131814D01*
X65300500Y-54017686D01*
X65241919Y-53959105D01*
X71499500Y-53959105D01*
X71499500Y-54090894D01*
X71533606Y-54218181D01*
X71533610Y-54218190D01*
X71557233Y-54259106D01*
X71599500Y-54332314D01*
X71692686Y-54425500D01*
X71806814Y-54491392D01*
X71934105Y-54525499D01*
X71934106Y-54525500D01*
X71934108Y-54525500D01*
X72065894Y-54525500D01*
X72065894Y-54525499D01*
X72193186Y-54491392D01*
X72307314Y-54425500D01*
X72400500Y-54332314D01*
X72466392Y-54218186D01*
X72500499Y-54090894D01*
X72500500Y-54090894D01*
X72500500Y-53959106D01*
X72500499Y-53959105D01*
X72493320Y-53932314D01*
X72466392Y-53831814D01*
X72400500Y-53717686D01*
X72341919Y-53659105D01*
X81599500Y-53659105D01*
X81599500Y-53790894D01*
X81633606Y-53918181D01*
X81633610Y-53918190D01*
X81657233Y-53959106D01*
X81699500Y-54032314D01*
X81792686Y-54125500D01*
X81906814Y-54191392D01*
X82034105Y-54225499D01*
X82034106Y-54225500D01*
X82034108Y-54225500D01*
X82165894Y-54225500D01*
X82165894Y-54225499D01*
X82293186Y-54191392D01*
X82407314Y-54125500D01*
X82500500Y-54032314D01*
X82566392Y-53918186D01*
X82600499Y-53790894D01*
X82600500Y-53790894D01*
X82600500Y-53659106D01*
X82600499Y-53659105D01*
X88699500Y-53659105D01*
X88699500Y-53790894D01*
X88733606Y-53918181D01*
X88733610Y-53918190D01*
X88757233Y-53959106D01*
X88799500Y-54032314D01*
X88892686Y-54125500D01*
X89006814Y-54191392D01*
X89134105Y-54225499D01*
X89134106Y-54225500D01*
X89134108Y-54225500D01*
X89265894Y-54225500D01*
X89265894Y-54225499D01*
X89393186Y-54191392D01*
X89507314Y-54125500D01*
X89600500Y-54032314D01*
X89666392Y-53918186D01*
X89682223Y-53859105D01*
X98499500Y-53859105D01*
X98499500Y-53990894D01*
X98533606Y-54118181D01*
X98533610Y-54118190D01*
X98541473Y-54131809D01*
X98599500Y-54232314D01*
X98692686Y-54325500D01*
X98806814Y-54391392D01*
X98934105Y-54425499D01*
X98934106Y-54425500D01*
X98934108Y-54425500D01*
X99065894Y-54425500D01*
X99065894Y-54425499D01*
X99193186Y-54391392D01*
X99307314Y-54325500D01*
X99400500Y-54232314D01*
X99466392Y-54118186D01*
X99500499Y-53990894D01*
X99500500Y-53990894D01*
X99500500Y-53859106D01*
X99500499Y-53859105D01*
X99500366Y-53858610D01*
X99482222Y-53790892D01*
X99477538Y-53773411D01*
X99473705Y-53759105D01*
X105499500Y-53759105D01*
X105499500Y-53890894D01*
X105533606Y-54018181D01*
X105533610Y-54018190D01*
X105541765Y-54032314D01*
X105599500Y-54132314D01*
X105692686Y-54225500D01*
X105806814Y-54291392D01*
X105934105Y-54325499D01*
X105934106Y-54325500D01*
X105934108Y-54325500D01*
X106065894Y-54325500D01*
X106065894Y-54325499D01*
X106193186Y-54291392D01*
X106307314Y-54225500D01*
X106400500Y-54132314D01*
X106466392Y-54018186D01*
X106500499Y-53890894D01*
X106500500Y-53890894D01*
X106500500Y-53859105D01*
X115699500Y-53859105D01*
X115699500Y-53990894D01*
X115733606Y-54118181D01*
X115733610Y-54118190D01*
X115741473Y-54131809D01*
X115799500Y-54232314D01*
X115892686Y-54325500D01*
X116006814Y-54391392D01*
X116134105Y-54425499D01*
X116134106Y-54425500D01*
X116134108Y-54425500D01*
X116265894Y-54425500D01*
X116265894Y-54425499D01*
X116393186Y-54391392D01*
X116507314Y-54325500D01*
X116600500Y-54232314D01*
X116666392Y-54118186D01*
X116700499Y-53990894D01*
X116700500Y-53990894D01*
X116700500Y-53859106D01*
X116700499Y-53859105D01*
X116700366Y-53858610D01*
X116666392Y-53731814D01*
X116624413Y-53659105D01*
X122699500Y-53659105D01*
X122699500Y-53790894D01*
X122733606Y-53918181D01*
X122733610Y-53918190D01*
X122757233Y-53959106D01*
X122799500Y-54032314D01*
X122892686Y-54125500D01*
X123006814Y-54191392D01*
X123134105Y-54225499D01*
X123134106Y-54225500D01*
X123134108Y-54225500D01*
X123265894Y-54225500D01*
X123265894Y-54225499D01*
X123393186Y-54191392D01*
X123507314Y-54125500D01*
X123600500Y-54032314D01*
X123666392Y-53918186D01*
X123700499Y-53790894D01*
X123700500Y-53790894D01*
X123700500Y-53659106D01*
X123700499Y-53659105D01*
X123677538Y-53573411D01*
X123673705Y-53559105D01*
X132599500Y-53559105D01*
X132599500Y-53690894D01*
X132633606Y-53818181D01*
X132633610Y-53818190D01*
X132657233Y-53859106D01*
X132699500Y-53932314D01*
X132792686Y-54025500D01*
X132906814Y-54091392D01*
X133034105Y-54125499D01*
X133034106Y-54125500D01*
X133034108Y-54125500D01*
X133165894Y-54125500D01*
X133165894Y-54125499D01*
X133293186Y-54091392D01*
X133407314Y-54025500D01*
X133500500Y-53932314D01*
X133566392Y-53818186D01*
X133582223Y-53759105D01*
X139699500Y-53759105D01*
X139699500Y-53890894D01*
X139733606Y-54018181D01*
X139733610Y-54018190D01*
X139741765Y-54032314D01*
X139799500Y-54132314D01*
X139892686Y-54225500D01*
X140006814Y-54291392D01*
X140134105Y-54325499D01*
X140134106Y-54325500D01*
X140134108Y-54325500D01*
X140265894Y-54325500D01*
X140265894Y-54325499D01*
X140393186Y-54291392D01*
X140507314Y-54225500D01*
X140600500Y-54132314D01*
X140666392Y-54018186D01*
X140700499Y-53890894D01*
X140700500Y-53890894D01*
X140700500Y-53859105D01*
X149699500Y-53859105D01*
X149699500Y-53990894D01*
X149733606Y-54118181D01*
X149733610Y-54118190D01*
X149741473Y-54131809D01*
X149799500Y-54232314D01*
X149892686Y-54325500D01*
X150006814Y-54391392D01*
X150134105Y-54425499D01*
X150134106Y-54425500D01*
X150134108Y-54425500D01*
X150265894Y-54425500D01*
X150265894Y-54425499D01*
X150393186Y-54391392D01*
X150507314Y-54325500D01*
X150600500Y-54232314D01*
X150666392Y-54118186D01*
X150700499Y-53990894D01*
X150700500Y-53990894D01*
X150700500Y-53859106D01*
X150700499Y-53859105D01*
X156599500Y-53859105D01*
X156599500Y-53990894D01*
X156633606Y-54118181D01*
X156633610Y-54118190D01*
X156641473Y-54131809D01*
X156699500Y-54232314D01*
X156792686Y-54325500D01*
X156906814Y-54391392D01*
X157034105Y-54425499D01*
X157034106Y-54425500D01*
X157034108Y-54425500D01*
X157165894Y-54425500D01*
X157165894Y-54425499D01*
X157293186Y-54391392D01*
X157407314Y-54325500D01*
X157500500Y-54232314D01*
X157566392Y-54118186D01*
X157600499Y-53990894D01*
X157600500Y-53990894D01*
X157600500Y-53859106D01*
X157600499Y-53859105D01*
X157600366Y-53858610D01*
X157566392Y-53731814D01*
X157500500Y-53617686D01*
X157441919Y-53559105D01*
X166099500Y-53559105D01*
X166099500Y-53690894D01*
X166133606Y-53818181D01*
X166133610Y-53818190D01*
X166157233Y-53859106D01*
X166199500Y-53932314D01*
X166292686Y-54025500D01*
X166406814Y-54091392D01*
X166534105Y-54125499D01*
X166534106Y-54125500D01*
X166534108Y-54125500D01*
X166665894Y-54125500D01*
X166665894Y-54125499D01*
X166793186Y-54091392D01*
X166907314Y-54025500D01*
X167000500Y-53932314D01*
X167066392Y-53818186D01*
X167100499Y-53690894D01*
X167100500Y-53690894D01*
X167100500Y-53559106D01*
X167100499Y-53559105D01*
X173399500Y-53559105D01*
X173399500Y-53690894D01*
X173433606Y-53818181D01*
X173433610Y-53818190D01*
X173457233Y-53859106D01*
X173499500Y-53932314D01*
X173592686Y-54025500D01*
X173706814Y-54091392D01*
X173834105Y-54125499D01*
X173834106Y-54125500D01*
X173834108Y-54125500D01*
X173965894Y-54125500D01*
X173965894Y-54125499D01*
X174093186Y-54091392D01*
X174207314Y-54025500D01*
X174300500Y-53932314D01*
X174366392Y-53818186D01*
X174400499Y-53690894D01*
X174400500Y-53690894D01*
X174400500Y-53559106D01*
X174400499Y-53559105D01*
X174400366Y-53558610D01*
X174366392Y-53431814D01*
X174300500Y-53317686D01*
X174207314Y-53224500D01*
X174093190Y-53158610D01*
X174093181Y-53158606D01*
X173965894Y-53124500D01*
X173965892Y-53124500D01*
X173834108Y-53124500D01*
X173834106Y-53124500D01*
X173706818Y-53158606D01*
X173706809Y-53158610D01*
X173592685Y-53224500D01*
X173499500Y-53317685D01*
X173433610Y-53431809D01*
X173433606Y-53431818D01*
X173399500Y-53559105D01*
X167100499Y-53559105D01*
X167100366Y-53558610D01*
X167066392Y-53431814D01*
X167000500Y-53317686D01*
X166907314Y-53224500D01*
X166793190Y-53158610D01*
X166793181Y-53158606D01*
X166665894Y-53124500D01*
X166665892Y-53124500D01*
X166534108Y-53124500D01*
X166534106Y-53124500D01*
X166406818Y-53158606D01*
X166406809Y-53158610D01*
X166292685Y-53224500D01*
X166199500Y-53317685D01*
X166133610Y-53431809D01*
X166133606Y-53431818D01*
X166099500Y-53559105D01*
X157441919Y-53559105D01*
X157407314Y-53524500D01*
X157395510Y-53517685D01*
X157293190Y-53458610D01*
X157293181Y-53458606D01*
X157165894Y-53424500D01*
X157165892Y-53424500D01*
X157034108Y-53424500D01*
X157034106Y-53424500D01*
X156906818Y-53458606D01*
X156906809Y-53458610D01*
X156792685Y-53524500D01*
X156699500Y-53617685D01*
X156633610Y-53731809D01*
X156633606Y-53731818D01*
X156599500Y-53859105D01*
X150700499Y-53859105D01*
X150700366Y-53858610D01*
X150666392Y-53731814D01*
X150600500Y-53617686D01*
X150507314Y-53524500D01*
X150495510Y-53517685D01*
X150393190Y-53458610D01*
X150393181Y-53458606D01*
X150265894Y-53424500D01*
X150265892Y-53424500D01*
X150134108Y-53424500D01*
X150134106Y-53424500D01*
X150006818Y-53458606D01*
X150006809Y-53458610D01*
X149892685Y-53524500D01*
X149799500Y-53617685D01*
X149733610Y-53731809D01*
X149733606Y-53731818D01*
X149699500Y-53859105D01*
X140700500Y-53859105D01*
X140700500Y-53759106D01*
X140700499Y-53759105D01*
X140693186Y-53731814D01*
X140666392Y-53631814D01*
X140600500Y-53517686D01*
X140507314Y-53424500D01*
X140495510Y-53417685D01*
X140393190Y-53358610D01*
X140393181Y-53358606D01*
X140265894Y-53324500D01*
X140265892Y-53324500D01*
X140134108Y-53324500D01*
X140134106Y-53324500D01*
X140006818Y-53358606D01*
X140006809Y-53358610D01*
X139892685Y-53424500D01*
X139799500Y-53517685D01*
X139733610Y-53631809D01*
X139733606Y-53631818D01*
X139699500Y-53759105D01*
X133582223Y-53759105D01*
X133600500Y-53690892D01*
X133600500Y-53559108D01*
X133600500Y-53559106D01*
X133600499Y-53559105D01*
X133600366Y-53558610D01*
X133566392Y-53431814D01*
X133500500Y-53317686D01*
X133407314Y-53224500D01*
X133293190Y-53158610D01*
X133293181Y-53158606D01*
X133165894Y-53124500D01*
X133165892Y-53124500D01*
X133034108Y-53124500D01*
X133034106Y-53124500D01*
X132906818Y-53158606D01*
X132906809Y-53158610D01*
X132792685Y-53224500D01*
X132699500Y-53317685D01*
X132633610Y-53431809D01*
X132633606Y-53431818D01*
X132599500Y-53559105D01*
X123673705Y-53559105D01*
X123666393Y-53531818D01*
X123666392Y-53531814D01*
X123600500Y-53417686D01*
X123507314Y-53324500D01*
X123495510Y-53317685D01*
X123393190Y-53258610D01*
X123393181Y-53258606D01*
X123265894Y-53224500D01*
X123265892Y-53224500D01*
X123134108Y-53224500D01*
X123134106Y-53224500D01*
X123006818Y-53258606D01*
X123006809Y-53258610D01*
X122892685Y-53324500D01*
X122799500Y-53417685D01*
X122733610Y-53531809D01*
X122733606Y-53531818D01*
X122699500Y-53659105D01*
X116624413Y-53659105D01*
X116600500Y-53617686D01*
X116507314Y-53524500D01*
X116495510Y-53517685D01*
X116393190Y-53458610D01*
X116393181Y-53458606D01*
X116265894Y-53424500D01*
X116265892Y-53424500D01*
X116134108Y-53424500D01*
X116134106Y-53424500D01*
X116006818Y-53458606D01*
X116006809Y-53458610D01*
X115892685Y-53524500D01*
X115799500Y-53617685D01*
X115733610Y-53731809D01*
X115733606Y-53731818D01*
X115699500Y-53859105D01*
X106500500Y-53859105D01*
X106500500Y-53759106D01*
X106500499Y-53759105D01*
X106493186Y-53731814D01*
X106466392Y-53631814D01*
X106400500Y-53517686D01*
X106307314Y-53424500D01*
X106295510Y-53417685D01*
X106193190Y-53358610D01*
X106193181Y-53358606D01*
X106065894Y-53324500D01*
X106065892Y-53324500D01*
X105934108Y-53324500D01*
X105934106Y-53324500D01*
X105806818Y-53358606D01*
X105806809Y-53358610D01*
X105692685Y-53424500D01*
X105599500Y-53517685D01*
X105533610Y-53631809D01*
X105533606Y-53631818D01*
X105499500Y-53759105D01*
X99473705Y-53759105D01*
X99466393Y-53731818D01*
X99466392Y-53731814D01*
X99400500Y-53617686D01*
X99307314Y-53524500D01*
X99295510Y-53517685D01*
X99193190Y-53458610D01*
X99193181Y-53458606D01*
X99065894Y-53424500D01*
X99065892Y-53424500D01*
X98934108Y-53424500D01*
X98934106Y-53424500D01*
X98806818Y-53458606D01*
X98806809Y-53458610D01*
X98692685Y-53524500D01*
X98599500Y-53617685D01*
X98533610Y-53731809D01*
X98533606Y-53731818D01*
X98499500Y-53859105D01*
X89682223Y-53859105D01*
X89700500Y-53790892D01*
X89700500Y-53659108D01*
X89700500Y-53659106D01*
X89700499Y-53659105D01*
X89693186Y-53631814D01*
X89666392Y-53531814D01*
X89600500Y-53417686D01*
X89507314Y-53324500D01*
X89495510Y-53317685D01*
X89393190Y-53258610D01*
X89393181Y-53258606D01*
X89265894Y-53224500D01*
X89265892Y-53224500D01*
X89134108Y-53224500D01*
X89134106Y-53224500D01*
X89006818Y-53258606D01*
X89006809Y-53258610D01*
X88892685Y-53324500D01*
X88799500Y-53417685D01*
X88733610Y-53531809D01*
X88733606Y-53531818D01*
X88699500Y-53659105D01*
X82600499Y-53659105D01*
X82593186Y-53631814D01*
X82566392Y-53531814D01*
X82500500Y-53417686D01*
X82407314Y-53324500D01*
X82395510Y-53317685D01*
X82293190Y-53258610D01*
X82293181Y-53258606D01*
X82165894Y-53224500D01*
X82165892Y-53224500D01*
X82034108Y-53224500D01*
X82034106Y-53224500D01*
X81906818Y-53258606D01*
X81906809Y-53258610D01*
X81792685Y-53324500D01*
X81699500Y-53417685D01*
X81633610Y-53531809D01*
X81633606Y-53531818D01*
X81599500Y-53659105D01*
X72341919Y-53659105D01*
X72307314Y-53624500D01*
X72295510Y-53617685D01*
X72193190Y-53558610D01*
X72193181Y-53558606D01*
X72065894Y-53524500D01*
X72065892Y-53524500D01*
X71934108Y-53524500D01*
X71934106Y-53524500D01*
X71806818Y-53558606D01*
X71806809Y-53558610D01*
X71692685Y-53624500D01*
X71599500Y-53717685D01*
X71533610Y-53831809D01*
X71533606Y-53831818D01*
X71499500Y-53959105D01*
X65241919Y-53959105D01*
X65207314Y-53924500D01*
X65149107Y-53890894D01*
X65093190Y-53858610D01*
X65093181Y-53858606D01*
X64965894Y-53824500D01*
X64965892Y-53824500D01*
X64834108Y-53824500D01*
X64834106Y-53824500D01*
X64706818Y-53858606D01*
X64706809Y-53858610D01*
X64592685Y-53924500D01*
X64499500Y-54017685D01*
X64433610Y-54131809D01*
X64433606Y-54131818D01*
X64399500Y-54259105D01*
X55049109Y-54259105D01*
X55107314Y-54225500D01*
X55200500Y-54132314D01*
X55266392Y-54018186D01*
X55300499Y-53890894D01*
X55300500Y-53890894D01*
X55300500Y-53759106D01*
X55300499Y-53759105D01*
X55293186Y-53731814D01*
X55266392Y-53631814D01*
X55200500Y-53517686D01*
X55107314Y-53424500D01*
X55095510Y-53417685D01*
X54993190Y-53358610D01*
X54993181Y-53358606D01*
X54865894Y-53324500D01*
X54865892Y-53324500D01*
X54734108Y-53324500D01*
X54734106Y-53324500D01*
X54606818Y-53358606D01*
X54606809Y-53358610D01*
X54492685Y-53424500D01*
X54399500Y-53517685D01*
X54333610Y-53631809D01*
X54333606Y-53631818D01*
X54299500Y-53759105D01*
X49100499Y-53759105D01*
X49093186Y-53731814D01*
X49066392Y-53631814D01*
X49000500Y-53517686D01*
X48907314Y-53424500D01*
X48895510Y-53417685D01*
X48793190Y-53358610D01*
X48793181Y-53358606D01*
X48665894Y-53324500D01*
X48665892Y-53324500D01*
X48534108Y-53324500D01*
X48534106Y-53324500D01*
X48406818Y-53358606D01*
X48406809Y-53358610D01*
X48292685Y-53424500D01*
X48199500Y-53517685D01*
X48133610Y-53631809D01*
X48133606Y-53631818D01*
X48099500Y-53759105D01*
X27220818Y-53759105D01*
X27246825Y-37374436D01*
X27247021Y-37369208D01*
X27267213Y-37092777D01*
X27268726Y-37082360D01*
X27327444Y-36814206D01*
X27330427Y-36804095D01*
X27426670Y-36547021D01*
X27431059Y-36537437D01*
X27562881Y-36296645D01*
X27568584Y-36287791D01*
X27733296Y-36068191D01*
X27740198Y-36060240D01*
X27934459Y-35866287D01*
X27942419Y-35859399D01*
X28162292Y-35695027D01*
X28171149Y-35689343D01*
X28412154Y-35557902D01*
X28421732Y-35553534D01*
X28449863Y-35543053D01*
X28484482Y-35530156D01*
X28510316Y-35525500D01*
X200983134Y-35525500D01*
X201009019Y-35530175D01*
G37*
%TD.AperFunction*%
%TD*%
M02*
