M48
; DRILL file KiCad 10.0.4 date 2026-08-24T22:15:28
; FORMAT={-:-/ absolute / metric / decimal}
; #@! TF.CreationDate,2026-08-24T22:15:28+02:00
; #@! TF.GenerationSoftware,Kicad,Pcbnew,10.0.4
; #@! TF.FileFunction,MixedPlating,1,4
FMAT,2
METRIC
; #@! TA.AperFunction,Plated,PTH,ViaDrill
T1C0.300
; #@! TA.AperFunction,Plated,PTH,ComponentDrill
T2C0.800
; #@! TA.AperFunction,Plated,PTH,ComponentDrill
T3C1.000
; #@! TA.AperFunction,Plated,PTH,ComponentDrill
T4C1.100
; #@! TA.AperFunction,Plated,PTH,ComponentDrill
T5C1.200
; #@! TA.AperFunction,NonPlated,NPTH,ComponentDrill
T6C4.300
%
G90
G05
T1
X27.846Y-86.225
X28.05Y-187.75
X28.096Y-71.975
X28.25Y-36.375
X28.25Y-51.375
X28.277Y-136.975
X28.3Y-173.5
X28.527Y-122.725
X30.596Y-86.225
X30.8Y-187.75
X31.027Y-136.975
X31.096Y-71.975
X31.3Y-173.5
X31.527Y-122.725
X31.75Y-36.375
X31.75Y-51.375
X32.846Y-84.975
X33.05Y-186.5
X33.096Y-82.225
X33.277Y-135.725
X33.3Y-183.75
X33.527Y-132.975
X33.596Y-73.475
X33.596Y-76.475
X33.8Y-175.0
X33.8Y-178.0
X34.0Y-42.625
X34.0Y-45.125
X34.027Y-124.225
X34.027Y-127.225
X34.25Y-38.625
X34.25Y-49.625
X37.546Y-53.225
X37.75Y-154.75
X37.977Y-103.975
X38.5Y-42.875
X38.5Y-45.125
X40.75Y-41.125
X40.75Y-46.375
X41.029Y-64.24
X41.029Y-68.99
X41.029Y-73.99
X41.029Y-78.99
X41.029Y-83.975
X41.232Y-165.765
X41.232Y-170.515
X41.232Y-175.515
X41.232Y-180.515
X41.232Y-185.5
X41.46Y-114.99
X41.46Y-119.74
X41.46Y-124.74
X41.46Y-129.74
X41.46Y-134.725
X41.75Y-39.125
X42.0Y-50.375
X42.529Y-59.24
X42.732Y-160.765
X42.96Y-109.99
X43.529Y-55.49
X43.732Y-157.015
X43.75Y-36.625
X43.75Y-40.125
X43.75Y-42.375
X43.75Y-45.125
X43.75Y-47.875
X43.96Y-106.24
X44.029Y-53.24
X44.232Y-154.765
X44.46Y-103.99
X47.75Y-42.625
X47.75Y-45.125
X48.546Y-84.225
X48.75Y-185.75
X48.977Y-134.975
X50.0Y-36.125
X51.25Y-48.125
X51.25Y-50.375
X51.279Y-61.49
X51.279Y-66.74
X51.279Y-71.74
X51.279Y-76.49
X51.279Y-81.49
X51.296Y-85.475
X51.296Y-87.725
X51.482Y-163.015
X51.482Y-168.265
X51.482Y-173.265
X51.482Y-178.015
X51.482Y-183.015
X51.5Y-187.0
X51.5Y-189.25
X51.71Y-112.24
X51.71Y-117.49
X51.71Y-122.49
X51.71Y-127.24
X51.71Y-132.24
X51.727Y-136.225
X51.727Y-138.475
X52.75Y-39.625
X54.75Y-45.125
X54.75Y-48.125
X55.529Y-63.74
X55.732Y-165.265
X55.75Y-36.125
X55.96Y-114.49
X56.0Y-42.625
X56.779Y-58.24
X56.982Y-159.765
X57.21Y-108.99
X57.75Y-50.375
X58.25Y-39.625
X58.529Y-60.99
X58.732Y-162.515
X58.96Y-111.74
X59.25Y-48.125
X59.279Y-57.99
X59.482Y-159.515
X59.71Y-108.74
X59.75Y-45.125
X60.529Y-54.74
X60.732Y-156.265
X60.75Y-36.125
X60.96Y-105.49
X60.969Y-53.24
X61.029Y-67.49
X61.172Y-154.765
X61.232Y-169.015
X61.4Y-103.99
X61.46Y-118.24
X62.046Y-77.975
X62.25Y-179.5
X62.477Y-128.725
X62.75Y-50.375
X63.0Y-42.875
X63.529Y-60.99
X63.732Y-162.515
X63.75Y-39.625
X63.96Y-111.74
X64.0Y-45.875
X66.029Y-68.24
X66.233Y-169.765
X66.46Y-118.99
X66.75Y-51.875
X67.25Y-36.125
X67.25Y-42.625
X67.5Y-48.875
X68.779Y-60.99
X68.983Y-162.515
X69.21Y-111.74
X70.279Y-68.24
X70.483Y-169.765
X70.71Y-118.99
X71.25Y-39.375
X71.5Y-45.875
X72.0Y-51.875
X73.279Y-65.49
X73.483Y-167.015
X73.546Y-77.975
X73.546Y-80.225
X73.546Y-82.975
X73.546Y-85.475
X73.546Y-88.225
X73.71Y-116.24
X73.75Y-179.5
X73.75Y-181.75
X73.75Y-184.5
X73.75Y-187.0
X73.75Y-189.75
X73.796Y-75.475
X73.977Y-128.725
X73.977Y-130.975
X73.977Y-133.725
X73.977Y-136.225
X73.977Y-138.975
X74.0Y-177.0
X74.029Y-58.49
X74.227Y-126.225
X74.233Y-160.015
X74.46Y-109.24
X75.25Y-36.375
X75.25Y-42.625
X75.25Y-48.875
X75.529Y-62.99
X75.529Y-72.24
X75.733Y-164.515
X75.733Y-173.765
X75.96Y-113.74
X75.96Y-122.99
X76.529Y-58.24
X76.733Y-159.765
X76.96Y-108.99
X77.529Y-54.74
X77.733Y-156.265
X77.96Y-105.49
X78.029Y-65.49
X78.233Y-167.015
X78.25Y-51.875
X78.46Y-116.24
X79.25Y-45.875
X79.529Y-53.24
X79.733Y-154.765
X79.75Y-39.375
X79.96Y-103.99
X80.529Y-62.99
X80.733Y-164.515
X80.779Y-72.24
X80.96Y-113.74
X80.983Y-173.765
X81.21Y-122.99
X82.779Y-59.24
X82.983Y-160.765
X83.0Y-36.375
X83.0Y-42.625
X83.0Y-48.875
X83.029Y-65.49
X83.21Y-109.99
X83.233Y-167.015
X83.46Y-116.24
X84.279Y-60.49
X84.483Y-162.015
X84.71Y-111.24
X85.529Y-62.99
X85.733Y-164.515
X85.779Y-58.49
X85.779Y-72.24
X85.96Y-113.74
X85.983Y-160.015
X85.983Y-173.765
X86.21Y-109.24
X86.21Y-122.99
X86.5Y-39.375
X86.75Y-45.875
X86.779Y-60.49
X86.983Y-162.015
X87.0Y-51.875
X87.046Y-75.475
X87.046Y-77.975
X87.046Y-80.225
X87.046Y-82.975
X87.046Y-85.475
X87.046Y-88.225
X87.21Y-111.24
X87.25Y-177.0
X87.25Y-179.5
X87.25Y-181.75
X87.25Y-184.5
X87.25Y-187.0
X87.25Y-189.75
X87.477Y-126.225
X87.477Y-128.725
X87.477Y-130.975
X87.477Y-133.725
X87.477Y-136.225
X87.477Y-138.975
X88.029Y-65.49
X88.233Y-167.015
X88.46Y-116.24
X88.529Y-59.24
X88.733Y-160.765
X88.96Y-109.99
X90.0Y-36.375
X90.0Y-42.625
X90.5Y-48.875
X90.779Y-62.99
X90.779Y-72.24
X90.983Y-164.515
X90.983Y-173.765
X91.21Y-113.74
X91.21Y-122.99
X91.779Y-58.74
X91.983Y-160.265
X92.0Y-51.875
X92.21Y-109.49
X93.029Y-65.49
X93.233Y-167.015
X93.279Y-57.99
X93.46Y-116.24
X93.483Y-159.515
X93.5Y-39.375
X93.71Y-108.74
X93.75Y-45.875
X94.296Y-54.725
X94.5Y-156.25
X94.727Y-105.475
X96.5Y-48.875
X96.546Y-53.225
X96.75Y-154.75
X96.977Y-103.975
X97.0Y-42.625
X97.75Y-36.375
X98.529Y-59.99
X98.529Y-62.99
X98.529Y-67.74
X98.733Y-161.515
X98.733Y-164.515
X98.733Y-169.265
X98.96Y-110.74
X98.96Y-113.74
X98.96Y-118.49
X100.529Y-58.99
X100.733Y-160.515
X100.96Y-109.74
X101.25Y-51.875
X101.279Y-60.99
X101.483Y-162.515
X101.5Y-39.375
X101.5Y-45.875
X101.71Y-111.74
X102.529Y-58.99
X102.733Y-160.515
X102.96Y-109.74
X103.546Y-72.225
X103.546Y-75.475
X103.546Y-77.975
X103.546Y-80.475
X103.546Y-82.975
X103.546Y-85.475
X103.546Y-88.225
X103.75Y-173.75
X103.75Y-177.0
X103.75Y-179.5
X103.75Y-182.0
X103.75Y-184.5
X103.75Y-187.0
X103.75Y-189.75
X103.977Y-122.975
X103.977Y-126.225
X103.977Y-128.725
X103.977Y-131.225
X103.977Y-133.725
X103.977Y-136.225
X103.977Y-138.975
X104.029Y-65.49
X104.233Y-167.015
X104.279Y-60.99
X104.46Y-116.24
X104.483Y-162.515
X104.71Y-111.74
X105.029Y-58.99
X105.233Y-160.515
X105.25Y-36.375
X105.25Y-42.625
X105.46Y-109.74
X106.0Y-48.875
X106.779Y-59.99
X106.983Y-161.515
X107.21Y-110.74
X108.25Y-51.875
X108.796Y-59.225
X109.0Y-160.75
X109.227Y-109.975
X109.25Y-39.375
X109.75Y-45.875
X110.296Y-58.225
X110.5Y-159.75
X110.727Y-108.975
X111.296Y-62.74
X111.296Y-65.99
X111.5Y-164.265
X111.5Y-167.515
X111.546Y-54.725
X111.727Y-113.49
X111.727Y-116.74
X111.75Y-156.25
X111.977Y-105.475
X112.0Y-51.875
X112.5Y-36.375
X112.75Y-42.625
X113.529Y-61.24
X113.529Y-64.49
X113.529Y-67.99
X113.546Y-52.975
X113.733Y-162.765
X113.733Y-166.015
X113.733Y-169.515
X113.75Y-154.5
X113.96Y-111.99
X113.96Y-115.24
X113.96Y-118.74
X113.977Y-103.725
X114.25Y-48.875
X114.779Y-69.99
X114.983Y-171.515
X115.21Y-120.74
X115.296Y-59.225
X115.5Y-160.75
X115.727Y-109.975
X116.0Y-45.125
X116.25Y-39.375
X116.279Y-67.99
X116.483Y-169.515
X116.71Y-118.74
X117.279Y-60.99
X117.483Y-162.515
X117.71Y-111.74
X118.029Y-69.49
X118.233Y-171.015
X118.46Y-120.24
X118.5Y-51.875
X119.529Y-59.24
X119.732Y-160.765
X119.96Y-109.99
X120.25Y-36.125
X120.25Y-42.625
X120.279Y-67.99
X120.482Y-169.515
X120.71Y-118.74
X121.279Y-60.99
X121.482Y-162.515
X121.546Y-72.475
X121.546Y-75.475
X121.546Y-77.975
X121.546Y-80.475
X121.546Y-82.975
X121.546Y-85.225
X121.546Y-87.725
X121.71Y-111.74
X121.75Y-174.0
X121.75Y-177.0
X121.75Y-179.5
X121.75Y-182.0
X121.75Y-184.5
X121.75Y-186.75
X121.75Y-189.25
X121.977Y-123.225
X121.977Y-126.225
X121.977Y-128.725
X121.977Y-131.225
X121.977Y-133.725
X121.977Y-135.975
X121.977Y-138.475
X122.0Y-48.875
X122.779Y-70.24
X122.982Y-171.765
X123.21Y-120.99
X123.529Y-59.24
X123.732Y-160.765
X123.96Y-109.99
X124.796Y-61.225
X124.796Y-64.49
X124.796Y-67.975
X125.0Y-162.75
X125.0Y-166.015
X125.0Y-169.5
X125.227Y-111.975
X125.227Y-115.24
X125.227Y-118.725
X125.25Y-39.375
X125.5Y-45.125
X125.796Y-57.975
X126.0Y-51.875
X126.0Y-159.5
X126.227Y-108.725
X127.029Y-62.99
X127.029Y-65.99
X127.232Y-164.515
X127.232Y-167.515
X127.46Y-113.74
X127.46Y-116.74
X127.546Y-58.225
X127.75Y-159.75
X127.977Y-108.975
X128.529Y-70.49
X128.546Y-54.725
X128.732Y-172.015
X128.75Y-156.25
X128.96Y-121.24
X128.977Y-105.475
X129.25Y-36.125
X129.5Y-48.875
X130.0Y-42.625
X130.546Y-52.975
X130.75Y-154.5
X130.779Y-70.49
X130.977Y-103.725
X130.982Y-172.015
X131.21Y-121.24
X132.5Y-45.375
X133.25Y-39.375
X133.5Y-51.875
X134.029Y-61.24
X134.029Y-64.24
X134.232Y-162.765
X134.232Y-165.765
X134.46Y-111.99
X134.46Y-114.99
X134.529Y-67.24
X134.732Y-168.765
X134.96Y-117.99
X136.029Y-59.49
X136.029Y-62.99
X136.029Y-65.74
X136.232Y-161.015
X136.232Y-164.515
X136.232Y-167.265
X136.25Y-42.625
X136.25Y-48.875
X136.46Y-110.24
X136.46Y-113.74
X136.46Y-116.49
X136.5Y-36.125
X137.296Y-70.475
X137.296Y-72.975
X137.296Y-75.475
X137.296Y-77.975
X137.296Y-80.475
X137.296Y-82.975
X137.296Y-85.475
X137.296Y-87.975
X137.5Y-172.0
X137.5Y-174.5
X137.5Y-177.0
X137.5Y-179.5
X137.5Y-182.0
X137.5Y-184.5
X137.5Y-187.0
X137.5Y-189.5
X137.529Y-65.74
X137.546Y-60.725
X137.727Y-121.225
X137.727Y-123.725
X137.727Y-126.225
X137.727Y-128.725
X137.727Y-131.225
X137.727Y-133.725
X137.727Y-136.225
X137.727Y-138.725
X137.732Y-167.265
X137.75Y-162.25
X137.96Y-116.49
X137.977Y-111.475
X139.279Y-62.24
X139.279Y-66.99
X139.482Y-163.765
X139.482Y-168.515
X139.5Y-39.375
X139.5Y-51.875
X139.529Y-64.49
X139.71Y-112.99
X139.71Y-117.74
X139.732Y-166.015
X139.96Y-115.24
X140.029Y-59.99
X140.232Y-161.515
X140.46Y-110.74
X142.25Y-48.875
X142.5Y-42.625
X142.75Y-36.125
X143.046Y-58.475
X143.25Y-160.0
X143.477Y-109.225
X144.279Y-64.24
X144.279Y-68.24
X144.279Y-70.49
X144.279Y-72.99
X144.482Y-165.765
X144.482Y-169.765
X144.482Y-172.015
X144.482Y-174.515
X144.546Y-58.225
X144.71Y-114.99
X144.71Y-118.99
X144.71Y-121.24
X144.71Y-123.74
X144.75Y-159.75
X144.977Y-108.975
X145.551Y-54.693
X145.755Y-156.218
X145.982Y-105.443
X146.0Y-47.375
X146.0Y-51.875
X146.25Y-39.375
X147.5Y-151.25
X147.546Y-52.975
X147.727Y-100.475
X147.75Y-154.5
X147.779Y-64.24
X147.977Y-103.725
X147.982Y-165.765
X148.21Y-114.99
X149.25Y-98.125
X149.5Y-95.875
X149.75Y-36.125
X149.75Y-42.625
X150.779Y-66.49
X150.982Y-168.015
X151.0Y-49.625
X151.029Y-61.99
X151.21Y-117.24
X151.232Y-163.515
X151.279Y-59.99
X151.46Y-112.74
X151.482Y-161.515
X151.5Y-92.375
X151.71Y-110.74
X151.75Y-98.125
X153.529Y-60.99
X153.732Y-162.515
X153.75Y-39.375
X153.96Y-111.74
X154.0Y-51.875
X154.0Y-101.875
X154.296Y-72.975
X154.296Y-75.475
X154.296Y-77.975
X154.296Y-80.475
X154.296Y-82.975
X154.296Y-85.475
X154.296Y-87.975
X154.5Y-96.125
X154.5Y-174.5
X154.5Y-177.0
X154.5Y-179.5
X154.5Y-182.0
X154.5Y-184.5
X154.5Y-187.0
X154.5Y-189.5
X154.529Y-64.24
X154.727Y-123.725
X154.727Y-126.225
X154.727Y-128.725
X154.727Y-131.225
X154.727Y-133.725
X154.727Y-136.225
X154.727Y-138.725
X154.732Y-165.765
X154.96Y-114.99
X156.5Y-42.625
X156.529Y-61.74
X156.529Y-68.49
X156.732Y-163.265
X156.732Y-170.015
X156.75Y-36.125
X156.96Y-112.49
X156.96Y-119.24
X157.0Y-98.125
X158.0Y-49.625
X158.0Y-92.375
X159.75Y-39.375
X160.046Y-58.225
X160.25Y-159.75
X160.477Y-108.975
X160.5Y-51.875
X160.75Y-96.125
X160.75Y-101.625
X161.546Y-58.225
X161.75Y-159.75
X161.977Y-108.975
X162.546Y-54.725
X162.75Y-156.25
X162.977Y-105.475
X163.25Y-36.125
X164.0Y-42.625
X164.296Y-52.975
X164.5Y-49.625
X164.5Y-92.375
X164.5Y-154.5
X164.727Y-103.725
X164.75Y-98.125
X166.25Y-39.375
X167.279Y-72.74
X167.482Y-174.265
X167.5Y-102.875
X167.529Y-60.49
X167.71Y-123.49
X167.732Y-162.015
X167.96Y-111.24
X168.25Y-52.125
X168.25Y-96.125
X168.5Y-42.625
X169.529Y-66.49
X169.732Y-168.015
X169.96Y-117.24
X170.0Y-36.125
X171.0Y-98.125
X171.25Y-49.625
X171.296Y-75.475
X171.296Y-77.975
X171.296Y-80.475
X171.296Y-82.975
X171.296Y-85.475
X171.296Y-88.225
X171.5Y-92.375
X171.5Y-177.0
X171.5Y-179.5
X171.5Y-182.0
X171.5Y-184.5
X171.5Y-187.0
X171.5Y-189.75
X171.727Y-126.225
X171.727Y-128.725
X171.727Y-131.225
X171.727Y-133.725
X171.727Y-136.225
X171.727Y-138.975
X172.25Y-42.625
X172.25Y-45.125
X172.5Y-39.625
X173.779Y-58.74
X173.982Y-160.265
X174.21Y-109.49
X174.25Y-96.125
X174.5Y-102.875
X174.75Y-36.125
X174.75Y-52.125
X176.546Y-58.475
X176.75Y-160.0
X176.977Y-109.225
X177.25Y-39.625
X177.25Y-42.625
X177.25Y-98.125
X177.5Y-49.625
X177.529Y-60.74
X177.732Y-162.265
X177.96Y-111.49
X178.0Y-92.375
X178.296Y-58.475
X178.5Y-160.0
X178.529Y-65.24
X178.529Y-70.24
X178.727Y-109.225
X178.732Y-166.765
X178.732Y-171.765
X178.96Y-115.99
X178.96Y-120.99
X179.5Y-36.125
X179.5Y-101.375
X179.546Y-87.975
X179.75Y-54.125
X179.75Y-189.5
X179.977Y-138.725
X180.0Y-105.125
X180.0Y-107.125
X180.0Y-155.875
X180.5Y-56.375
X180.546Y-74.725
X180.75Y-157.875
X180.75Y-176.25
X180.977Y-125.475
X181.25Y-52.375
X181.279Y-58.74
X181.482Y-160.265
X181.5Y-96.125
X181.71Y-109.49
X182.25Y-42.375
X182.5Y-39.375
X183.0Y-50.375
X183.5Y-101.625
X183.5Y-105.125
X183.796Y-74.725
X184.0Y-92.375
X184.0Y-176.25
X184.227Y-125.475
X185.0Y-36.125
X186.296Y-87.975
X186.5Y-96.125
X186.5Y-189.5
X186.727Y-138.725
X187.029Y-67.74
X187.029Y-74.24
X187.046Y-77.975
X187.046Y-80.475
X187.046Y-82.975
X187.046Y-85.475
X187.232Y-169.265
X187.232Y-175.765
X187.25Y-156.125
X187.25Y-179.5
X187.25Y-182.0
X187.25Y-184.5
X187.25Y-187.0
X187.46Y-118.49
X187.46Y-124.99
X187.477Y-128.725
X187.477Y-131.225
X187.477Y-133.725
X187.477Y-136.225
X187.5Y-39.375
X187.5Y-42.625
X187.529Y-61.99
X187.732Y-163.515
X187.96Y-112.74
X189.046Y-88.725
X189.25Y-190.25
X189.477Y-139.475
X189.546Y-80.475
X189.546Y-85.475
X189.556Y-59.465
X189.75Y-182.0
X189.75Y-187.0
X189.779Y-61.99
X189.779Y-75.225
X189.796Y-46.725
X189.796Y-51.725
X189.796Y-56.975
X189.796Y-70.225
X189.977Y-131.225
X189.977Y-136.225
X189.982Y-163.515
X189.982Y-176.75
X190.0Y-148.25
X190.0Y-153.25
X190.0Y-158.5
X190.0Y-171.75
X190.21Y-112.74
X190.21Y-125.975
X190.227Y-97.475
X190.227Y-102.475
X190.227Y-107.725
X190.227Y-120.975
X191.5Y-36.125
X192.25Y-154.875
X193.5Y-39.375
X194.0Y-45.625
X194.0Y-50.625
X194.0Y-55.625
X194.0Y-93.375
X194.0Y-147.125
X194.25Y-60.625
X194.25Y-98.875
X194.25Y-103.875
X194.25Y-115.125
X194.25Y-124.875
X194.25Y-129.875
X194.25Y-134.875
X194.5Y-65.375
X194.5Y-71.625
X194.5Y-76.625
X194.5Y-81.875
X194.5Y-87.125
X194.5Y-108.875
X194.5Y-119.875
X194.5Y-140.625
X194.5Y-152.125
X195.0Y-157.125
X197.0Y-41.125
X197.5Y-143.625
X197.75Y-115.125
X200.0Y-45.625
X200.0Y-60.625
X200.0Y-65.375
X200.0Y-76.625
X200.0Y-81.875
X200.0Y-85.875
X200.25Y-50.625
X200.25Y-55.625
X200.25Y-71.625
X200.25Y-93.125
X200.25Y-149.625
X200.25Y-154.625
X200.5Y-98.875
X200.5Y-103.875
X200.5Y-108.875
X200.5Y-119.875
X200.5Y-124.875
X200.5Y-129.875
X200.5Y-134.875
X216.896Y-56.975
X217.1Y-158.5
X217.327Y-107.725
X218.146Y-75.475
X218.35Y-177.0
X218.577Y-126.225
X219.646Y-51.725
X219.85Y-153.25
X220.077Y-102.475
X230.396Y-54.225
X230.6Y-155.75
X230.646Y-85.475
X230.827Y-104.975
X230.85Y-187.0
X230.896Y-51.725
X231.077Y-136.225
X231.1Y-153.25
X231.327Y-102.475
X231.396Y-67.975
X231.6Y-169.5
X231.827Y-118.725
X238.396Y-68.975
X238.396Y-73.725
X238.396Y-78.975
X238.396Y-83.975
X238.6Y-170.5
X238.6Y-175.25
X238.6Y-180.5
X238.6Y-185.5
X238.646Y-63.225
X238.827Y-119.725
X238.827Y-124.475
X238.827Y-129.725
X238.827Y-134.725
X238.85Y-164.75
X238.896Y-47.975
X238.896Y-52.725
X238.896Y-57.975
X239.077Y-113.975
X239.1Y-149.5
X239.1Y-154.25
X239.1Y-159.5
X239.327Y-98.725
X239.327Y-103.475
X239.327Y-108.725
X244.146Y-61.225
X244.35Y-162.75
X244.396Y-66.975
X244.577Y-111.975
X244.6Y-168.5
X244.827Y-117.725
X246.396Y-61.225
X246.6Y-162.75
X246.827Y-111.975
X247.646Y-64.725
X247.85Y-166.25
X248.077Y-115.475
X248.146Y-71.975
X248.35Y-173.5
X248.577Y-122.725
X248.646Y-63.475
X248.85Y-165.0
X249.077Y-114.225
X249.646Y-61.975
X249.646Y-76.975
X249.85Y-163.5
X249.85Y-178.5
X250.077Y-112.725
X250.077Y-127.725
X250.146Y-81.975
X250.35Y-183.5
X250.577Y-132.725
X250.646Y-59.475
X250.646Y-60.975
X250.85Y-161.0
X250.85Y-162.5
X251.077Y-110.225
X251.077Y-111.725
X254.0Y-122.125
X254.0Y-172.875
X254.25Y-71.375
X260.5Y-63.375
X261.75Y-49.875
X261.75Y-64.375
X261.75Y-115.375
X261.75Y-166.125
X263.0Y-163.625
X263.25Y-62.125
X263.25Y-112.875
X264.5Y-60.875
X264.5Y-111.625
X264.5Y-162.125
X266.0Y-167.35
X266.8Y-113.925
T2
X220.836Y-57.685
X220.836Y-60.225
X220.836Y-62.765
X221.026Y-67.895
X221.026Y-70.435
X221.026Y-72.975
X221.04Y-159.21
X221.04Y-161.75
X221.04Y-164.29
X221.23Y-169.42
X221.23Y-171.96
X221.23Y-174.5
X221.267Y-108.435
X221.267Y-110.975
X221.267Y-113.515
X221.457Y-118.645
X221.457Y-121.185
X221.457Y-123.725
X222.0Y-44.375
X227.0Y-44.375
X228.456Y-57.685
X228.456Y-60.225
X228.456Y-62.765
X228.646Y-67.895
X228.646Y-70.435
X228.646Y-72.975
X228.66Y-159.21
X228.66Y-161.75
X228.66Y-164.29
X228.85Y-169.42
X228.85Y-171.96
X228.85Y-174.5
X228.887Y-108.435
X228.887Y-110.975
X228.887Y-113.515
X229.077Y-118.645
X229.077Y-121.185
X229.077Y-123.725
X231.818Y-40.125
X234.318Y-40.125
T3
X240.75Y-39.875
X243.29Y-39.875
X250.13Y-38.335
X250.13Y-40.875
X252.67Y-38.335
X252.67Y-40.875
X255.21Y-38.335
X255.21Y-40.875
X257.75Y-38.335
X257.75Y-40.875
X260.29Y-38.335
X260.29Y-40.875
T4
X211.42Y-37.875
X213.96Y-37.875
X216.5Y-37.875
T5
X47.616Y-55.765
X47.82Y-157.29
X48.047Y-106.515
X55.616Y-55.765
X55.82Y-157.29
X56.047Y-106.515
X64.616Y-55.765
X64.82Y-157.29
X65.047Y-106.515
X72.709Y-55.7
X72.912Y-157.225
X73.14Y-106.45
X81.616Y-55.765
X81.82Y-157.29
X82.047Y-106.515
X89.616Y-55.715
X89.82Y-157.24
X90.047Y-106.465
X98.616Y-55.715
X98.82Y-157.24
X99.047Y-106.465
X106.616Y-55.715
X106.82Y-157.24
X107.047Y-106.465
X115.616Y-55.715
X115.82Y-157.24
X116.047Y-106.465
X123.691Y-55.7
X123.895Y-157.225
X124.122Y-106.45
X132.709Y-55.7
X132.912Y-157.225
X133.14Y-106.45
X140.849Y-55.7
X141.052Y-157.225
X141.28Y-106.45
X149.709Y-55.7
X149.912Y-157.225
X150.14Y-106.45
X157.709Y-55.765
X157.912Y-157.29
X158.14Y-106.515
X166.349Y-55.7
X166.552Y-157.225
X166.78Y-106.45
X174.341Y-55.7
X174.545Y-157.225
X174.772Y-106.45
T6
X32.75Y-61.125
X32.75Y-150.375
X271.4Y-189.725
X271.8Y-39.825
M30
